<svg xmlns="http://www.w3.org/2000/svg" xmlns:xlink="http://www.w3.org/1999/xlink" viewBox="0 0 400 200"><defs><style>.cls-1{filter:url(#AI_Shadow_1);}.cls-2{fill:#666;}.cls-3{fill:#999;}.cls-4{fill:#b3b3b3;}.cls-5{fill:#00fa00;}.cls-6{fill:#d2f78b;}</style><filter id="AI_Shadow_1" name="AI_Shadow_1"><feGaussianBlur result="blur" stdDeviation="2" in="SourceAlpha"/><feOffset result="offsetBlurredAlpha" dx="4" dy="4" in="blur"/><feMerge><feMergeNode in="offsetBlurredAlpha"/><feMergeNode in="SourceGraphic"/></feMerge></filter></defs><g id="Seetings"><g class="cls-1"><path class="cls-2" d="M7.78,8c2.43,2.59,5.46,4.55,8,7,1.61,1.54,3.07,3.19,5.09,4.18a9.64,9.64,0,0,1,3.63,4,5.21,5.21,0,0,1,.91,2,26.56,26.56,0,0,1,0,3.09c0,1.17-.36,2.11-.42,3.25s0,2.35,0,3.51V42.8a56.05,56.05,0,0,0,.36,9.36A39.57,39.57,0,0,1,25.83,59a27.65,27.65,0,0,1,0,3.28c-.24,1.83-2.09,2.66-1.62,4.75a14.41,14.41,0,0,0,.9,1.91c.28.72.39,1.48.69,2.2a8,8,0,0,1,.4,3.42c0,1-.08,2.12,0,3.16s.39,1.71.42,2.64c.07,1.84.4,3.58.39,5.44,0,3.28.48,7-.2,10.22-.48,2.29.62,4.19.6,6.52,0,.81,0,1.64,0,2.45,0,1,.37,1.86.44,2.81.12,1.78,0,3.68,0,5.46s-.42,3.5-.42,5.31a26.13,26.13,0,0,1-.5,5.72c-.58,2.75-1,5.6-1.52,8.39a43.9,43.9,0,0,0-.38,7.77c0,1.05,0,2.09,0,3.13,0,1.42-.35,2.73-.44,4.13-.13,2.17,0,4.41,0,6.6a15.49,15.49,0,0,0,.5,4.18c.19.76.5,1.57.64,2.35.07.4-.05.95.06,1.33s.35.6.42,1.13a30.32,30.32,0,0,1,0,3.93,17,17,0,0,1-.4,4.12c-.27,1.15-.21,2.23-1,3.08a7.88,7.88,0,0,1-.8.83c-.49.38-.67.24-1.22.4s-.73.32-1.18.43-1.18-.11-1.75.06c0,.22-.09.45-.15.67-1.27.09-3.11,1.41-4,2.11s-.94,1.08-1.91,1.26a10.39,10.39,0,0,0-2.43.82c-1.25.56-2.69,1.09-4,1.65-.57.25-1.22.32-1.82.64s-1.3.87-1.93,1.25a5.06,5.06,0,0,1-.8-3.61,24.41,24.41,0,0,0,.55-7.24,28,28,0,0,0-1.65-7.29c-.88-2.67-.08-4.79.65-7.36a6.46,6.46,0,0,0,.1-3.09c-.27-1.1-.94-2-.76-3.22a46.11,46.11,0,0,0,.83-7,23.44,23.44,0,0,1,0-2.78c.1-.85.6-1.51.73-2.39.48-3,0-6.31.06-9.38.06-1.8.61-3.28.06-5.05a39.19,39.19,0,0,1-1.46-5.56,27.56,27.56,0,0,1,1-11.45,23.85,23.85,0,0,0,.82-3.09,10.66,10.66,0,0,0-.51-3.75,33.78,33.78,0,0,1-1.14-7.19c0-1.24,0-2.48,0-3.71a9.37,9.37,0,0,1,.16-3.22c.29-.76.82-1.07,1-2a23.2,23.2,0,0,0,.05-4.16c0-4.25.33-8.6-.38-12.81-.39-2.33-1.23-4.66-1.25-7a21.61,21.61,0,0,0-.18-2.9C1.05,55.69,2,53.1,3,49.72c.77-2.72.08-5.89,0-8.7s-.35-5.73-.72-8.53a57.78,57.78,0,0,1-.09-7.21c0-.79-.07-1.61,0-2.39A17.17,17.17,0,0,1,3,19.77c.67-2.77.42-5.81.39-8.64,0-1-.17-1.06.58-1.5A31.74,31.74,0,0,0,7.78,8Z"/><path class="cls-3" d="M7.38,11.32c0-1.24-.33-2.54.69-3.39a5.63,5.63,0,0,1,3.72-1.54c1.71,0,3.42,0,5.14,0a29.46,29.46,0,0,0,6.82-1.13,20.49,20.49,0,0,1,4.89-.92h4.72a4.62,4.62,0,0,1,.91,0,6.41,6.41,0,0,1,.87.33c.76.19,1.54,0,2.32.12a10.29,10.29,0,0,0,3.95.34,9,9,0,0,1,2.87-.38,25,25,0,0,0,2.47.43,25.64,25.64,0,0,1,3.92.08,31.35,31.35,0,0,0,5.65.32,10.07,10.07,0,0,1,1.91.09c.84.16,1.91.81,2.83,1.06a19.08,19.08,0,0,0,4.49.93c2.17.06,4.35,0,6.52,0,2.92,0,5.71-.43,8.65-.4,1.56,0,3-.45,4.57-.43,2.13,0,4.3.13,6.43,0,1.85-.08,3.62-.44,5.49-.43a48.52,48.52,0,0,0,6.38-.32c1.83-.23,3.75.22,5.55-.18.35-.08.64-.28,1-.34.78-.14,1.6.11,2.4,0a23.2,23.2,0,0,1,3.28-.74,15.8,15.8,0,0,0,3-.5,82.39,82.39,0,0,1,8.4-1.46c2.65-.4,6.74-1.4,8.91.72a7.12,7.12,0,0,0,3.53,1.73,11.53,11.53,0,0,0,1.74.75,31.4,31.4,0,0,0,4.75,0c3.26,0,6.41-.41,9.67-.41h3.58A17.31,17.31,0,0,1,165,6.82c1.5.5,3,.06,4.46.37.72.16,1.26.7,2,.86,4.28,1,8.61-.46,12.89.19a43.73,43.73,0,0,0,6.17.21,20,20,0,0,0,6-.82c1.56-.46,3.07-1.52,4.65-1.66,2.25-.19,4.52.24,6.76-.08a10.86,10.86,0,0,1,3.36-.24,26.71,26.71,0,0,0,2.67.35,30.32,30.32,0,0,1,4.88.34c2.9.53,5.39-1.89,8.09-2.38,2-.37,4,.33,6,.4s4.28,0,6.41,0c3.09,0,6.14-.37,9.22-.44,1.13,0,2.25.07,3.38.06a43.83,43.83,0,0,0,5.48-.79,59.45,59.45,0,0,1,8-.07,67.64,67.64,0,0,1,7.4.09c.9.09,1.8.29,2.7.44,1.63.27,3.22.16,4.84.33a60.32,60.32,0,0,0,6.7.8c2.16,0,4.33.08,6.49,0s4.63-1,6.87-1.34c4-.6,7.81-2.6,11.87-3.18a12.56,12.56,0,0,1,3,0c1.89.18,3.8.27,5.67.52,2.17.3,4.33.84,6.51,1,2.43.23,4.71.92,7.17.85,3.72-.09,7.39-.75,11.12-.84,2.36,0,4.65-.42,7-.42h2.49c5.12,0,10.23-.77,15.37-.83a10.72,10.72,0,0,1,2.15.33c.79.13,1.56.09,2.37.18a40.3,40.3,0,0,1,5.38,1.06c2.08.53,4.23.41,6.34,1a7.06,7.06,0,0,1,.07,2.59c-.13.91-.46,1-1.23,1.45-1.85,1.19-2.41,2.8-4.48,3.59-1.51.57-1.53,1.18-2.93,2a23.48,23.48,0,0,0-3.91,3c-1.07,1-5.14.64-6.62.87-1.15.18-2.36.29-3.52.48s-2.49.53-3.73.76a53.22,53.22,0,0,1-8.18.45,229.48,229.48,0,0,0-24.12,2.5c-10.12,1.45-20.26,2.49-30.45,3.35a204.66,204.66,0,0,0-25.15,3.22c-5.71,1.2-11.59,2-17.11,4C248.07,34.06,241,36.69,233,35.82c-2.12-.23-4.26-.78-6.37-1.1-2.3-.35-4.63-.52-6.93-.81-4.86-.59-9.67-1.52-14.54-2-6.59-.72-13.2-1.22-19.8-1.85-2.63-.25-5.24-.58-7.87-.84a46,46,0,0,0-10.79.63A206.17,206.17,0,0,1,143.4,31c-3.53.06-6.94-.1-10.47-.33-5.27-.33-10.61-.32-15.86-.9-5.91-.65-11.71-2.08-17.63-2.68s-12,0-18-.42c-3.59-.25-7.13-1.2-10.71-1.34s-7.3,0-11-.42c-3-.34-5.95-.16-8.9-.51a24.12,24.12,0,0,0-5.76-.22c-1.74.19-3.43.29-5.19.31a5.32,5.32,0,0,1-2.41-.73,9.09,9.09,0,0,0-3.73-.49c-1.35,0-2.54-.45-3.89-.43a23.16,23.16,0,0,1-4.78,0A15.2,15.2,0,0,1,20.6,20.8c-1.72-1.11-3.21-2.51-4.85-3.73s-3.5-1.72-5.19-2.7C9.29,13.63,8.83,13,7.38,11.32Z"/><path class="cls-3" d="M369.54,19.37c.7.13,1.27-.58,1.76-1,1-.8,2-1.55,2.94-2.38.71-.61,1.27-1.37,1.93-2.05.81-.83,1.58-1.73,2.44-2.5s1.84-1.28,2.7-2c1.31-1,2-2.44,3.12-3.65.38-.41.92-1.09,1.48-1.19s.55.2.94.31.88-.2,1.33-.27a50.58,50.58,0,0,1,.58,5.81c0,1.29,0,2.57,0,3.85a17.34,17.34,0,0,0,.12,4.14,20.13,20.13,0,0,0,1.24,3.09c.6,1.31.41,3,.73,4.41.41,1.8.39,3.66.78,5.47a42.7,42.7,0,0,1,.89,5.75,24,24,0,0,0,.08,2.68c.1.55.33,1.08.43,1.64.24,1.33.52,2.62.82,3.93a11.18,11.18,0,0,1-.22,4c-.3,1.87-.52,3.68-.75,5.55-.14,1.17-.24,2.32-.35,3.48a37.65,37.65,0,0,0-.53,4q0,3.27,0,6.52a9.3,9.3,0,0,0,.35,2.41c.21.88.18,1.8.32,2.7s.38,2,.56,2.92c.15.76.1,1.51.19,2.28a92.11,92.11,0,0,1,.21,10.11v-.18a29.71,29.71,0,0,0,0,4.22,38.43,38.43,0,0,0,.81,5.37c.42,1.29,0,2.61,0,4a30.7,30.7,0,0,1-.05,4.29c-.22,1.44-.83,3.14-.6,4.58.13.76.53,1.36.63,2.13a13.66,13.66,0,0,1,0,3.38c-.29,1.95-1.19,3.73-1.21,5.75a28.39,28.39,0,0,0,.21,5.14,22.76,22.76,0,0,1,.05,3.6,25.25,25.25,0,0,1-.05,3.37,34.24,34.24,0,0,0-.44,4.74,11.73,11.73,0,0,0,.27,2.85,11.88,11.88,0,0,1,.26,1.47c.11.83.74,1.48.72,2.27s-.26,1.47-.27,2.22c0,.51,0,1,0,1.54a3.86,3.86,0,0,0,0,1c0,.17.19.29.21.44a4.83,4.83,0,0,1-.23,1.34c-.6,3.74,0,7.5,0,11.26a46.11,46.11,0,0,1-.06,5.76c-.1.81-.13,1.52-.18,2.32s-.31,1.84-.27,2.8.4,1.53.14,2.43a3.61,3.61,0,0,1-.92,1.58c-.45.41-.82.84-1.25,1.27a10.24,10.24,0,0,0-.79.83c-.39.48-.22.77-.44,1.23a1.11,1.11,0,0,1-1.39.5,4.26,4.26,0,0,1-.82-.65c-.24-.28-.33-.62-.57-1a12.05,12.05,0,0,0-.89-1.44c-.71-.75-1.35-1.5-2-2.27-.55-.61-1-1.3-1.56-1.86s-1.14-1-1.7-1.52-1-.48-1.54-.8-1.1-.76-1.62-1.13a13.05,13.05,0,0,1-2.65-2.8,3.49,3.49,0,0,1-.63-.95,5.42,5.42,0,0,1-.24-1.33,36.79,36.79,0,0,1-.19-5.15c0-2.52,0-5.05,0-7.57,0-2.71,0-5.37.24-8.07.27-2.87.52-5.76.51-8.64,0-5.33.55-10.92-.74-16.13a32.11,32.11,0,0,1-1.08-5.42c-.18-2.57-.57-5.12-.74-7.69-.17-2.4-.14-4.8-.3-7.19a51,51,0,0,1-.09-7.62,27.38,27.38,0,0,1,1.34-6.27,18.46,18.46,0,0,0,.65-2.16,33.43,33.43,0,0,0,.74-6.64,35.75,35.75,0,0,0-1.47-9.12c-1.53-6-1.78-12.17-2.54-18.3a76.74,76.74,0,0,1-.49-7.73c0-1.5-.27-3-.25-4.48V36.46a19,19,0,0,0-.3-2.81c-.14-.69-.07-1.36-.19-2,0-.25-.22-.41-.27-.68a7.77,7.77,0,0,1,0-1.08c0-.68.07-1.41,0-2.09a19.64,19.64,0,0,0-.57-2.5,3,3,0,0,1,0-1.78A24.33,24.33,0,0,0,369.54,19.37Z"/><path class="cls-2" d="M5.87,178.65a3.24,3.24,0,0,1-.3,1.25c-.13.47-.05.92-.17,1.39a8.26,8.26,0,0,1-1,2.43c-.61,1-.44,1.15.57,1.64.69.33,1.06,1,1.69,1.38.8.46,1.73.25,2.6.45s1.4.92,2.11,1.14a17.2,17.2,0,0,0,5.31.82,7.7,7.7,0,0,1,3.58.79,8.49,8.49,0,0,0,4.31.34,13.23,13.23,0,0,1,2.48-.36h2.22c2.63,0,5.22-.41,7.85-.39,1.08,0,2.15,0,3.23,0,2.18,0,4.69-.37,6.82.07,2.72.55,5.33,1.64,8.13,1.84,3.31.25,6.71,0,10,0,3.83,0,7.66,0,11.5,0a97.14,97.14,0,0,0,10-.79,29.66,29.66,0,0,0,4.47-.78,38.87,38.87,0,0,1,5-.58,25.57,25.57,0,0,1,5.6,0,41.37,41.37,0,0,0,10.19-.17c3.51-.52,6.64-1.35,10,0,1.52.6,3.1,1.1,4.64,1.66a9.2,9.2,0,0,0,3.35.28c1.18,0,2.39.1,3.57,0a23.33,23.33,0,0,0,2.34-.54,11.79,11.79,0,0,1,3.84-.16c1.1.12,2.16.48,3.25.65a17.67,17.67,0,0,0,2.72,0c1.69,0,3.21.77,4.86.82,1.88.06,3.67.35,5.56.37a19.9,19.9,0,0,0,3.45-.27c1.62-.27,3.11-1,4.73-1.23,3.25-.44,6.78-.08,10.07,0,1.57,0,3.08-.34,4.64-.41,2.24-.1,4.49.31,6.71-.17,3.14-.67,5.76-3.17,9-3.32,2.24-.1,3.91.92,6,1.35s4,.13,6,.29c1.65.13,3.27.53,4.89.81a22.27,22.27,0,0,0,7-.25c1.9-.24,3.71.42,5.59.53a49.83,49.83,0,0,0,5.05.42c2.55-.1,5-.61,7.58-.8a8.73,8.73,0,0,1,4.72,1,7.26,7.26,0,0,0,1.57.94,15.63,15.63,0,0,0,2.74.08c4,.34,8,1.22,12,1.49,3.31.22,6.54.4,9.88.42a48.87,48.87,0,0,0,8.71-.59c1.24-.21,2.5-.39,3.75-.53a8,8,0,0,1,2.87.34c1.86.43,3.58.2,5.43.48a53,53,0,0,0,7,.28c2,0,3.91.45,5.9.42,1.31,0,2.42.26,3.7.36a13.41,13.41,0,0,0,4.46-.77,10.37,10.37,0,0,1,2.94-.72l.05.34c0,.15-.49-.4-.47-.25a9,9,0,0,0,3.1.1h10.39c1.53,0,3.07,0,4.61,0s2.9-.5,4.4-.59a50.62,50.62,0,0,0,5.07-.25,43.86,43.86,0,0,1,6.28-.24,40.2,40.2,0,0,0,6.13-1,23.89,23.89,0,0,1,3.59-.08c1.52,0,2.18-1,3.58-1.16a30,30,0,0,1,3.79,0,39.43,39.43,0,0,0,7.51-.67c3.19-.59,6.42-1.17,9.6-1.79,2.29-.44,4.84.24,7.08-.31,1.65-.39,2.49-1,2.46-2.68,0-1.29.3-2.92-.24-4.1a18.34,18.34,0,0,0-2.43-3,22.22,22.22,0,0,1-2.25-3.26c-.41-.8-1.4-2.75-2.11-3.18-.53-.31-1.41,0-2-.19-.86-.25-1.36-1.06-2.12-1.41A11.84,11.84,0,0,0,375,168c-2.36-.19-4.69-.46-7-.81-5.86-.86-11.36-1.94-17.31-1.92-6.69,0-13.41-.27-20.08.4-6.89.7-14.32,1.65-21.11-.09a54.7,54.7,0,0,0-11.19-1.91c-4.24-.17-8.5,0-12.75,0-12.61,0-25.2.47-37.82.55a83.67,83.67,0,0,1-13.69-.8c-3.74-.59-7.41-1.5-11.19-1.85-3.27-.31-6.6,0-9.88-.07-2.66,0-5.27-.29-7.93-.44-5-.28-10,0-15-.65a73.65,73.65,0,0,1-10.44-1.76,67.73,67.73,0,0,0-10.51-2.3,135.66,135.66,0,0,0-14.1-.92c-6.1-.09-12.25,1.42-18.23,2.47-3.36.59-6.74,1.5-10.13,1.87a95.06,95.06,0,0,1-10.27.08c-6,0-12-.24-18-.82-6.53-.63-14-1-20.41.85-3.35,1-7.14.53-10.6.52s-7.11-.12-10,2c-1.06.8-1.45,2-2.71,2.71-2.29,1.38-4.92,1.83-7.53,2.31-3.2.57-5.9,2.18-9,3.16-2.72.86-5.16,2.8-8.09,2.85-2,0-4,0-6,0a17.75,17.75,0,0,0-5.06.41,45,45,0,0,0-5.07,1.7,34.4,34.4,0,0,1-3.32,1.28,7.7,7.7,0,0,1-1.73.41c-.79.08-1.24.62-2,.66C6.83,178,5.86,178.5,5.87,178.65Z"/><path class="cls-4" d="M25.72,19.8c3,0,5.12,2.48,8.07,1.92,4.63-.86,9.24-.66,13.88-1.36,5.13-.77,9.64.24,14.58,1.54,3.8,1,8.42,3.38,12.39,3.49,3.06.09,6.11-1.29,8.8-2.57a55.86,55.86,0,0,1,8.79-3.7c4.29-1.23,8.87-.66,13.24-.73,9.87-.16,19.52-2.57,29.38-2.86,3.76-.11,8.69-.28,12.33.83,3,.92,5.22,3,8.06,4.07,5.59,2.13,11.27-1.19,16.88-2,3.85-.52,7.37.47,11.21.67,7.81.39,15.71.3,23.12,2.85,7.13,2.46,16.15.69,23.31-.7,3.18-.62,7.4-2.5,10.64-2.23,4.12.34,1.49,10.55,4.29,13.8.79-3,2.08-6.29,5.34-7.3.37-3.31-.28-7.12,3.14-8.63a13.14,13.14,0,0,1,4.19-.63c6.95-.59,13.75-.73,20.73-.71,5.49,0,11,.07,16.47,0,4.63-.05,9.06,1.3,13.69.82,5.63-.58,10.91-2.63,16.4-3.46,6.49-1,13.33.93,19.85.88,4.75,0,9.5,0,14.25,0h11.48c1.38,0,5-.5,6.73.09.3,2-.39,4.26,0,6.26s2,3.39,2.74,5.34c1.29,3.52.83,6.73.89,10.55a22,22,0,0,1-1.61,9.5,19,19,0,0,0-1.24,6.51c.13,5.79,4.43,9.86,5.58,15.31,1.53,7.22-.34,14.69,1,21.85,1.51,8.18.69,17,.69,25.39,0,5.89-1.4,10.16-3.6,15.68a23.05,23.05,0,0,0-.92,14.3c1.51,5.61,3.43,10.84,2.27,16.77a15.1,15.1,0,0,1-5.57,9.67c-2.07,1.69-3,1.28-5.49,1.65-4.79.72-9.28,3.4-14.21,3.73a23.56,23.56,0,0,1-6.56-.13,25.42,25.42,0,0,1-3.35-1.73c-3.27-1.56-7.24-.91-10.84-.91-2.23,0-4.48-.08-6.71,0-2.55.1-3.2.67-5.25,2.64-1.72,1.66-2.27,1.9-4.51,1.9a8.94,8.94,0,0,0-3.9.66,38.54,38.54,0,0,1-18.89,1.86,54.9,54.9,0,0,0-13.8-.5c-6.91.62-13.73.72-20.67.7-7.52,0-15,.4-22.42-.7a64.69,64.69,0,0,0-9.65-.2c-4.83,0-10,0-14.21-1.8-2.12-.89-5.21-1.3-7.43-1.89a33.19,33.19,0,0,0-7.26-.87c-5.56-.27-10.78-.9-16.39-.89-3.31,0-7.14-.45-10.44,0-5.26.76-10.44,2.57-15.74,3.41-6,1-13.21,2.57-19.19.43-5.09-1.81-.82-5.61-3-8.91-1.9,1.64-2.82,4.13-4.56,5.87-.76.76-1.9,2.37-2.73,2.76s-2.41-.1-3.47.12c-1.27.25-2.16.83-3.54.84a12.17,12.17,0,0,1-7.06-2.29c-2-1.27-5.8-4.49-8-4-2.86.59-3.09,4.39-5.32,5.37s-4.41-.46-6.21-.9c-2.5-.62-5.49.1-8-.42a39,39,0,0,0-8-.46c-6.28,0-11.49.17-17.36,2.77-5.1,2.26-13,.86-18.43.86-2.76,0-5.76.37-8.49,0-2.23-.27-3.89-1-6.27-.94-3.34,0-9.58,1-11.56-2.7s.46-9.61,2.27-12.74.92-8.93.87-12.72c0-2.43.91-4.34.88-6.81,0-2.11.06-4.24,0-6.35-.05-2.51-1.42-4.41-1.83-6.81-.31-1.83.05-4,.05-5.91,0-2.4-.42-5.26.2-7.56s1.59-3.57,1.57-6.31a16.22,16.22,0,0,0-1.35-7,16.31,16.31,0,0,1-1.3-6.61A26.71,26.71,0,0,1,21,89.63c.65-2.36.41-4.87.41-7.31,0-2.84.17-5.75,0-8.59-.13-2.28-1.47-4.14-1.84-6.35-.73-4.32,1.82-7.56,1.82-11.81,0-2.49-.8-4.41-.9-6.81-.08-2,.35-4.14-.4-5.9-.87-2-2-3.92-1.41-6.4.17-.75.8-1,1-1.73a16.55,16.55,0,0,0-.05-3.22c0-2.27,0-4.54,0-6.81a13.33,13.33,0,0,1,.08-3.1c.19-.76.91-1.25,1-2.18Z"/></g><g class="cls-1"><path class="cls-5" d="M107.42,134.69c-8.52,0-11.21-4.26-12-7.28l-.37-.56-1.67.28a8.55,8.55,0,0,1-1.5.14c-2.38,0-5.77-1.1-8.35-6.37l-.24-.48-.08-.53C79.63,97.12,77.15,82,75.8,75c-.13-.63-.24-1.16-.33-1.61l-.8.12-.19-3.83c-.44-8.53,13-12.25,24.71-14.53l.89-.17a41.67,41.67,0,0,1,8-.82c7.83,0,14.15,2.67,18.79,8l.67.76.66,4.1c.64,3.38-.52,7.22-3.52,11.61,11.28,3.25,17.82,8.71,19.44,16.29a61.42,61.42,0,0,1,2.25,8.86c1.44,7.51-5.46,16.24-21.73,27.5l-.41.28-.47.16a42.29,42.29,0,0,1-5.72,1.59l-2.85.58A41.21,41.21,0,0,1,107.42,134.69Zm-8-22.62a18.51,18.51,0,0,1,5.6-2.36l.41-.09.43,0c4.73.21,8,.32,9.79.32h.72c4-1.73,5.74-3.36,5.78-4.33-.41-.41-2.52-2-11.24-3.38l-.31.05c-.43.1-2.1.53-7.36,1.92l-.31.09-.32,0c-.77.06-1.49.09-2.15.09a13.47,13.47,0,0,1-2.89-.28C98.3,107.47,98.92,110.11,99.37,112.07ZM93.54,77.61c.06.66.15,1.52.28,2.64a17.52,17.52,0,0,1,2.74-2.4L102.47,72l.18-.23-.64,0a12.78,12.78,0,0,0-2.37.24l-2.87.59c-2.71.52-3.21,1.23-3.21,1.24h0a2.08,2.08,0,0,0,0,.29l.66,3.38Z"/><path class="cls-6" d="M108.06,57.65q10.22,0,16.16,6.76l.51,3.11q.87,4.71-5.17,12l.29,1.47q18.78,4.16,20.88,14.87a56.88,56.88,0,0,1,2.18,8.57q1.68,8.75-20.28,23.95a41.44,41.44,0,0,1-5.26,1.46l-2.89.59a37.24,37.24,0,0,1-7.06.79q-7.76,0-8.78-5.2a25.9,25.9,0,0,1-2.9-4.91q-.46.08-2.52,2.52l-.5.08a4.46,4.46,0,0,1-.88.09q-3,0-5.21-4.41-5.34-34.36-7.4-45-.95-4.85-1.25-4.84h0q-.33-6.59,21.89-10.92l.88-.17a38.86,38.86,0,0,1,7.32-.75M92.72,90.2a14.72,14.72,0,0,1,6.09-9.66l6.26-6.21c1.62-2,2.31-3.59,2.05-4.88A10.41,10.41,0,0,0,102,68.22a15.58,15.58,0,0,0-3,.31l-2.9.59q-6.76,1.29-5.92,5.63-.81.16,1.46,15.2l1.1.25M98,117.13q4.95-3.45,7.69-4c4.8.21,8.12.32,9.94.32a11,11,0,0,0,1.56-.07q9.28-3.87,8.36-8.61-.8-4-14.7-6.09l-1,.17q-.77.17-7.57,2c-.68,0-1.31.08-1.87.08-2.43,0-3.74-.49-3.92-1.47l-.09-3a4.89,4.89,0,0,0-3.36-1.8,34.83,34.83,0,0,0,.84,9.32q2.73,11.68,3,12.9l1.09.25m10.09-66.48h0a45.51,45.51,0,0,0-8.66.88l-.85.17c-8.14,1.58-14.14,3.38-18.4,5.5C72.24,61.15,70.8,66.26,71,69.85l.39,7.64,1.3-.18c1.4,7.53,3.76,22,7,43.12l.16,1.06.47,1c3.57,7.25,8.73,8.33,11.5,8.33.36,0,.72,0,1.08-.05,1.71,3.45,5.62,7.47,14.5,7.47a43.8,43.8,0,0,0,8.4-.92h.05l2.85-.58a46.13,46.13,0,0,0,6.14-1.7l.94-.32.81-.56c17.79-12.31,24.94-21.88,23.18-31a68.07,68.07,0,0,0-2.32-9.2c-1.76-7.76-7.67-13.55-17.61-17.28a16.41,16.41,0,0,0,1.76-10.27l-.49-3-.32-2-1.33-1.51c-5.34-6.07-12.54-9.14-21.42-9.14Zm1,55.63,1.86-.48c1.32.21,2.44.43,3.41.64-1.29,0-3.06-.08-5.27-.16Z"/><path class="cls-5" d="M139.1,141c-2.43,0-4.31-2.08-6.93-5.9l-.46-.67-.32-2.23c-.19-1.22-.31-2,9.48-28.14a327.58,327.58,0,0,1,15.58-46.14l.75-1.78,1.52-.25a22.41,22.41,0,0,0,2.55-2.23l1.17-1.14,2.33.24a7.89,7.89,0,0,1,4.38-1.32c6.63,0,10,8,11.26,11.08,9.85,15.73,17.7,26.35,23.35,31.57l.93.86L205,97a7.6,7.6,0,0,1-.22,2.84,31.31,31.31,0,0,1,2.77,8l.58,2.38-4.48,3-1.72-.71a3.59,3.59,0,0,0-.82-.26,9.75,9.75,0,0,0-1.15,1.19,6.11,6.11,0,0,1-1.11,4.17A6.37,6.37,0,0,1,194.4,120a20,20,0,0,1-2.67.22c-5.93,0-7.26-3.9-7.54-5.42a7.5,7.5,0,0,0-3.05-.42,32.41,32.41,0,0,0-4.78.41l-7.3,1.09a61.25,61.25,0,0,0-6.37,1.35l-.18.05-.18,0a15.49,15.49,0,0,1-2.07.16,7.4,7.4,0,0,1-5.51-2.07c-.17.46-.35,1-.54,1.54a162.43,162.43,0,0,0-4.73,17.64l-.63,2.92-3-.17h-.18a3.52,3.52,0,0,0-.56,0l-.1,0c-.31,0-1,.14-1.81,1.6l-.85,1.57-2.68.35-.23,0Zm27.57-51.5c1.42.22,2.7.38,3.83.49a58.81,58.81,0,0,0-3.84-5.75c-1.12,2.44-1.87,4.23-2.37,5.54.68-.16,1.05-.23,1.3-.27l.54-.09Z"/><path class="cls-6" d="M169.15,54.91q4.48,0,8.13,9.17,15.19,24.32,24.11,32.55l.12,1a14.52,14.52,0,0,1-.5,3.06c1,1,2,3.62,3.11,8l-.88.59a6.38,6.38,0,0,0-2.42-.55,4.07,4.07,0,0,0-.61,0l-.5,0c-2.36,1.93-3.46,3.42-3.32,4.45.31,1.94-.52,3-2.48,3.32a14.85,14.85,0,0,1-2.18.18c-2.48,0-3.86-.88-4.12-2.66-.31-2.12-2.46-3.17-6.47-3.17a36.43,36.43,0,0,0-5.29.44l-7.31,1.09a66.26,66.26,0,0,0-6.72,1.43,10,10,0,0,1-1.56.13c-2.24,0-3.5-.93-3.78-2.77s-.7-2.74-1.32-2.74h-.11l-.92.12q-.8.14-3.23,7.21a164.57,164.57,0,0,0-4.84,18h-.37a7.3,7.3,0,0,0-1.14.09,5.89,5.89,0,0,0-4.41,3.4l-1,.13h-.08q-1,0-4-4.38l-.21-1.43q-.16-1.09,9.37-26.59a323.35,323.35,0,0,1,15.45-45.82c.68-.12,2-1.15,4-3.11l2,.21A5.83,5.83,0,0,1,168.5,55a4.74,4.74,0,0,1,.65-.05m-8.44,39.34h.18c2.8-.76,4.55-1.19,5.25-1.31a52.12,52.12,0,0,0,7.51.72,14.72,14.72,0,0,0,2-.13l.33-1q-7.22-12.81-9.91-13.36l-1,.13Q159.45,91,159.8,93.35c.15.6.45.9.91.9m8.44-46.34h0a11.73,11.73,0,0,0-1.67.12h-.07A12,12,0,0,0,164,49.13l-2.87-.29-2.34,2.28c-.72.7-1.23,1.15-1.56,1.43l-2.55.42-1.5,3.56A332.89,332.89,0,0,0,137.53,103c-10,26.85-10,27.47-9.6,29.74l.2,1.39.24,1.6.91,1.34c2.68,3.91,5.45,7.42,9.82,7.42a8.59,8.59,0,0,0,1-.07l.93-.12,3.54-.47,1.6-2.95,5.47.31,1.24-5.83c1.27-5.81,2.55-10.79,3.82-14.85a12.57,12.57,0,0,0,3.54.49,18.21,18.21,0,0,0,2.58-.2l.37-.06.35-.09c2.46-.63,4.47-1.06,6-1.28l7.35-1.09a29.41,29.41,0,0,1,4.26-.37h.36c1.95,4.26,6.47,5.83,10.23,5.83a21.66,21.66,0,0,0,3.2-.25,9.82,9.82,0,0,0,6.71-3.82,9.07,9.07,0,0,0,1.43-2.91l.94.39,3.11-2.07.88-.59,4.08-2.72L210.92,107a40.89,40.89,0,0,0-2.52-7.71,8.91,8.91,0,0,0,0-2.77l-.1-.78L208,93.21l-1.86-1.72c-5.39-5-13-15.28-22.61-30.61-3.56-8.61-8.39-13-14.38-13ZM182.84,118Z"/><path class="cls-5" d="M228.44,123.49c-12.84,0-21.16-3.82-24.71-11.33l0-.1,0-.11c-3.31-8.35-3.7-11.45-3.7-13,0-9.92,5.47-20.32,16.26-30.9,5.72-5.33,14.67-7.89,27.44-7.89h.24l.23,0c4.17.56,15.26,2,15.26,9.35a34.41,34.41,0,0,0,.92,7.11l.47,2.11-1.68,1.36A11.35,11.35,0,0,1,254,82a6.5,6.5,0,0,1-4.09,3.69l-.43.11H249c-.66,0-1.28,0-11.3-2.94h-4.37c-2.11,0-8.42,0-12,13.26,1.24,2.25,3.67,4.7,9.48,4.7,4.38,0,9.15-1.77,14.18-5.26l.9-.63h1.1c.26,0,1.28,0,5-.44l.75-.08.72.24a8.45,8.45,0,0,1,4.94,4.14l.52,1-.5,3.44a8.45,8.45,0,0,1,.84,3.56v3.83l-.1.4c-.48,2-2,3.65-8.5,6.7-2,2.82-8.24,4.35-22,5.79l-.18,0Z"/><path class="cls-6" d="M243.64,63.61q12.23,1.65,12.23,5.88a36.87,36.87,0,0,0,1,7.86q-1.1.89-5.42,1.47c-.65,2-1.46,3.19-2.44,3.44q-.79,0-10.79-2.94h-4.88q-11.55,0-15.67,17.14,3.4,7.82,13.19,7.82,7.69,0,16.18-5.89c.7,0,2.5-.15,5.42-.46a5,5,0,0,1,2.94,2.44l-.51,3.44a5.76,5.76,0,0,1,1,2.94v3.41q-.37,1.55-7.82,4.91,0,2.87-19.61,4.92-17.15,0-21.55-9.33-3.45-8.7-3.45-11.76,0-13.49,15.21-28.4,7.4-6.89,25-6.89m.47-7h-.47c-13.69,0-23.43,2.87-29.76,8.77l-.07.06-.06.06C202.27,76.76,196.44,88,196.44,98.9c0,2.18.47,5.58,3.94,14.34l.09.21.09.2c4.19,8.85,13.56,13.34,27.88,13.34h.36l.37,0a119.81,119.81,0,0,0,15.68-2.43c1.66-.42,5.54-1.39,8-4,5.76-2.74,8.9-5,9.81-8.75l.2-.82v-4.24a11.54,11.54,0,0,0-.74-4l.2-1.37.33-2.25-1.05-2a11.92,11.92,0,0,0-6.93-5.83l-1.44-.48-1.51.16c-3.68.39-4.56.42-4.7.42h-2.19l-1.78,1.25c-4.44,3.08-8.54,4.64-12.19,4.64-3.11,0-4.71-.79-5.66-1.82,2.8-9.14,6.63-9.14,8.14-9.14h3.87c10,2.94,10.67,2.94,11.8,2.94h.89l.86-.22a9.17,9.17,0,0,0,5.44-4,12.48,12.48,0,0,0,5.06-2.27l3.37-2.73-.93-4.23a30.72,30.72,0,0,1-.84-6.35c0-10.36-13.77-12.21-18.3-12.81l-.46-.07Z"/><path class="cls-5" d="M256.37,135.46c-4.88,0-7.94-3-8.36-8.13a4.65,4.65,0,0,1-.47-2.09c0-1.82.78-4.84,6.42-14.41,3.13-13.94,4.71-26,4.71-35.92,0-3.93,2.51-7.56,7.47-10.79l.87-.56H272c5.93,0,5.93,9,5.93,13.79v.25l0,.25c-.4,2.74-.71,5-1,6.78,2.53-2.68,6.21-6.67,11.58-12.58l.24-.26.28-.21c4.64-3.39,9.69-8.45,15-15l1.05-1.3h1.34A15.08,15.08,0,0,0,309,53.5l.95-.74h1.2a18.32,18.32,0,0,0,4.91-.83l.48-.13h2l.83.49c3.26,2,5.15,3.55,5.15,6v.5a7.52,7.52,0,0,1-.4,2.38H326l-1,6.81.95,4.65-2.6,1.13a62.93,62.93,0,0,0-20.42,14.21c2.21,1.55,6.52,3.78,14.9,6.59C320,94.93,321.36,97,322,98l.54.85v3l-.86,1.42a8,8,0,0,1,1.37,4v.33l-.07.33c-.16.83-.26,1.39-.33,1.77a5.54,5.54,0,0,1,.4,2v2.16l-4,2-1.16-.22c-1-.18-1.65-.29-2.16-.35a4.87,4.87,0,0,0-1.58,2.55l-.35,1.67-4.24,2.07h-.81a18.12,18.12,0,0,1-13.19-5.86,47,47,0,0,0-11.77-7.36,91.82,91.82,0,0,0-8.69,8.69L264.94,130h-.6a43.26,43.26,0,0,0-2.69,3.45l-.79,1.11-4.13.86Z"/><path class="cls-6" d="M317.53,55.3Q321,57.36,321,58.24v.5a5.78,5.78,0,0,1-1,2.94c.78,2,1.44,2.94,2,2.94l-.5,3.4.5,2.48a66.36,66.36,0,0,0-23.52,17.14v1Q302.11,93,317,97.93c.5,0,1.16.65,2,1.93v1l-1.47,2.44c1.32,2,2,3.26,2,3.91q-.51,2.59-.51,2.94a3.53,3.53,0,0,1,.51,1.47l-1,.5a23.34,23.34,0,0,0-3.91-.5,8.85,8.85,0,0,0-3.9,5.42l-2,1a14.75,14.75,0,0,1-10.79-4.91,50.48,50.48,0,0,0-14.71-8.82q-3.9,2.76-10.83,10.45l-9.16,11.81q-.89,0-4.41,4.91l-2.44.51q-4.91,0-4.91-5.88-.42-.18-.42-.84,0-2.61,6.22-13.11,4.9-21.72,4.91-37.22,0-4,5.88-7.85H272q2.43,0,2.43,10.29-1.92,13.44-1.93,15.16l1,.51q.7,0,17.64-18.61,7.35-5.39,15.67-15.67c.81,0,2.28-.82,4.41-2.48a21.81,21.81,0,0,0,5.88-1h.5m1.94-7H316l-.94.27a14.88,14.88,0,0,1-4,.69h-2.4l-1.89,1.47c-.63.49-1.08.81-1.39,1h-2.08l-2.1,2.6c-5.13,6.36-10,11.21-14.35,14.42l-.57.42-.48.52-4.54,5A34.41,34.41,0,0,0,280.6,68c-1.75-7.39-7.06-8-8.64-8h-6l-1.74,1.13c-6,3.91-9.07,8.53-9.07,13.72,0,9.52-1.52,21.16-4.5,34.62-5.51,9.39-6.63,13-6.63,15.71a8.35,8.35,0,0,0,.55,3c.79,6.57,5.24,10.7,11.78,10.7h.72l.7-.15,2.44-.5,2.67-.55,1.6-2.22c.62-.87,1.1-1.52,1.48-2h.67l2.1-2.71,9-11.6c2.85-3.15,5-5.32,6.6-6.8a43.27,43.27,0,0,1,8.79,5.79A21.77,21.77,0,0,0,308.71,125h1.62l1.46-.71,2-1,3.06-1.49.6-2.79,2.1.4,2.11-1.06,1-.5,3.87-1.94v-4.32a8.49,8.49,0,0,0-.3-2.21c.05-.24.11-.53.17-.87l.13-.66v-.67a9.5,9.5,0,0,0-.86-3.81l.35-.59v-5l-1.08-1.71c-.7-1.12-2.66-4.23-6.21-5a89.56,89.56,0,0,1-10-3.92,59.26,59.26,0,0,1,16-10.27l5.2-2.25-1.13-5.56-.26-1.28.33-2.18,1.19-8H328c-.35-4.45-4.38-6.87-6.83-8.33l-1.66-1Z"/></g></g></svg>