<svg xmlns="http://www.w3.org/2000/svg" xmlns:xlink="http://www.w3.org/1999/xlink" viewBox="0 0 1920 1080"><defs><style>.cls-1{fill:url(#linear-gradient);}</style><linearGradient id="linear-gradient" x1="861.31" y1="1257.63" x2="897.81" y2="408.94" gradientUnits="userSpaceOnUse"><stop offset="0" stop-color="#244c6d"/><stop offset="0.16" stop-color="#234969"/><stop offset="0.32" stop-color="#1f415e"/><stop offset="0.48" stop-color="#19344a"/><stop offset="0.63" stop-color="#10212f"/><stop offset="0.78" stop-color="#04090d"/><stop offset="0.83"/></linearGradient></defs><g id="back_hill"><path class="cls-1" d="M-23.88,1089.43H1646.37c14.24-3.42,28.16-7.82,42.3-11.7,10.62-2.91,29.45-1.35,36.49-11.49,6.25-9,11.48-19.17,16.67-28.77,2.2-4.08,5.16-7.48,7.09-11.72,3.33-7.29,4.56-15.54,7.42-23,7.22-18.86,25.12-30,31.09-49.69,2.72-9-3.08-17.82-3-27.21,0-5.15,2-10.3,2.62-15.4a117.62,117.62,0,0,0,.63-14.3,99.54,99.54,0,0,0-3.46-25.07c-2.43-8.94-4-19.38-7.23-27.9-4.84-12.56-17.47-13.81-27.17-20.52-10.22-7.08-19-16.2-30.24-21.63-9.15-4.43-19-5.76-28.52-8.64-11.67-3.53-21.4-13.14-33.39-15.48-8.12-1.59-16.18.25-24.29-2-6-1.67-9.88-6.2-15.27-8.42-6.63-2.74-13.58-.69-20.41-4.52-9.23-5.18-16.93-12.74-26.37-17.8-8-4.26-15.74-8.47-23.12-13.91-7.68-5.65-14.37-14.14-23-18.22-5-2.38-10.65-2.88-15.82-4.85-14.77-5.6-33.47-13.5-49.27-6-3.41,1.61-7.08,6.67-10,3.39l-45.54-11.65c-6.17-.69-12.72-3.23-16.84-8.22-5.63-6.84-17.24-11.48-25.46-14.5-6-2.22-12.52-2.57-18.53-4.87a64.27,64.27,0,0,0-9-3.08c-5.69-2.86-11.89-6.11-18.67-9.93-1.58.27-3.15.47-4.7.62,1.16-7.63,2.38-15.62,3.5-23,4.6-30.23-35.95-35.73-40.46-6.16q-1.59,10.51-3.2,21c-32.1-14.7-61.59-43.57-97.26-44.2l-2.3-29.34,16.54-1.3L1187,555.21l-16.53,1.29-1.36-17.31-11.57.9,1.36,17.32-16.53,1.3,1.15,14.69,16.53-1.29,2.29,29.25c-1.64.26-3.3.57-5,1-48.19,23.78-37.24-5.93-62-13.24l3.9-21.42,13.84,2.53,2.11-11.55-13.84-2.52,2.48-13.61-9.69-1.76-2.48,13.6-13.84-2.52-2.11,11.54,13.84,2.53-4,21.83c-15.14,1-28.49-1.82-41.69-4.9-30.25-13.19-89.54-30.61-92.46-31.29q-15.3-4.42-34.26-9.38c.39-2.44.78-4.85,1.15-7.17,2.81-17.56-27.11-22-29.87-4.78l-.72,4.52q-29.09-7.11-64.52-14.82l-3-.64-.28-.07-3.4-.73h0l-5.92-1.26h0l-3.09-.65-.2,0-3.4-.72h0l-5.79-1.21-.33-.07-1.31-.27.68-14.35,32.45,1.54.5-10.5-32.46-1.54L799,460.7l-11.38-.53-1.36,28.71-30.63-1.45-.5,10.5,30.63,1.45-.6,12.57-1.35-.27-3.14-.64-.18,0-3.37-.68h0c-3.15-.63-6.24-1.25-9.27-1.84l-.24-.05q-6.36-1.26-12.28-2.39l-.17,0c-4.14-.8-8.11-1.56-11.88-2.27l-.24,0L734,502l-3.15-.59-.21,0-3.36-.62h0l-5.82-1.07h0l-3-.54-.37-.07-.63-.11-2.72-.49c-5.45-1-9.24-1.64-11-2l-3.34-.59,0,.09q-97.47-12.88-195.46-22.17h0l-12.72-1.19h0L485.3,472c-5.51-61.11-60.65-93.74-110.83-89-24.78,2.31-47.19,15.44-59.82,26.91-25.37,23-34.48,45.95-29.81,73.72-122.26,16.54-262,49.46-281,55.36Q-7.11,541.36-18,543.7q-3,27.31-5.87,54.63ZM509,519l.28.91L509,520C509,519.63,509,519.29,509,519Zm-47-91.12c7.93,10.81,14.41,25.08,16.38,43.59q-10.39-.93-20.79-1.82a80.94,80.94,0,0,0-10.94-26.47,3.3,3.3,0,0,1,.92-1.38q6.44-6.53,12.89-13A2.5,2.5,0,0,1,462,427.83Zm-17.65,10.24a3.92,3.92,0,0,1-.82.68q-1.47-1.87-3.06-3.61a6.23,6.23,0,0,1,.57-.68l4.52-4.57,3.27,3.65Zm11.87-17.25,0,0c.55.61,1.11,1.24,1.66,1.88h0c.53.6.29,1.41-.73,2.43l-4.49,4.53L449.42,426l4.53-4.57C454.94,420.43,455.7,420.22,456.23,420.82Zm-14.51-6.53c1,.73,1.33,1.48.85,2.25l.22.15,3.34-5.38c1.82,1.46,3.66,3.05,5.49,4.78a2.62,2.62,0,0,1-1,1.74q-6.42,6.46-12.82,13a3.91,3.91,0,0,1-.93.73,61.47,61.47,0,0,0-5.65-4.65,6.56,6.56,0,0,1,.38-.74L439.81,413Zm-22-12.54,5.14,2.15c1.16.49,1.58,1.16,1.26,2l.24.1c.73-1.93,1.45-3.85,2.17-5.78,2.08,1,4.13,2.09,6.13,3.25q-1.65,2.64-3.28,5.29l.22.15c.47-.77,1.23-.8,2.28-.07l1.92,1.33q-4.08,6.56-8.13,13.12a4.73,4.73,0,0,1-.6.81,60.72,60.72,0,0,0-6.23-3.33q1-2.82,2.11-5.64l-.25-.1c-.32.86-1.06,1-2.22.56l-5.13-2.15c.4-1.08.8-2.15,1.21-3.23l2.49,1c1.11.47,1.51,1.13,1.19,2l.24.1,2.93-7.82-.25-.1c-.32.86-1,1-2.2.57l-2.44-1Zm-25-10.81a.77.77,0,0,1,.15-.41c2.42.26,4.84.6,7.25,1a.84.84,0,0,1,0,.36,4.22,4.22,0,0,1-.52,1.38q-2.24,4.31-4.45,8.62c-.75-3.17-1.51-6.35-2.27-9.52A4.55,4.55,0,0,1,394.8,390.94Zm-19.72-.61a99.5,99.5,0,0,1,14.24-.27,3.74,3.74,0,0,1,.09,1.67q-1.11,9.31-2.23,18.64c-.17,1.48-.64,2.16-1.41,2.06l0,.31,7,.93c0-.1,0-.21,0-.31-.77-.1-1.06-.87-.89-2.31l1-8.31q1.36,5.65,2.71,11.31l.42.05q2.63-5.12,5.28-10.24c-.34,2.75-.67,5.51-1,8.26-.18,1.47-.64,2.16-1.39,2.06l0,.3,7,.95,0-.31c-.76-.1-1.06-.87-.89-2.31q1.16-9.37,2.3-18.75a3.87,3.87,0,0,1,.37-1.33c3.08.73,6.12,1.62,9.12,2.63a3.88,3.88,0,0,1-.31,1.67q-3.27,8.73-6.52,17.48c-.51,1.39-1.13,1.93-1.85,1.63l-.05.13A96.77,96.77,0,0,0,377.68,414c-.58,0-1.13.12-1.71.17a3,3,0,0,1,.7-.36,8.12,8.12,0,0,0,4.7-4.24,14.75,14.75,0,0,0,1.34-8.54,14.35,14.35,0,0,0-3.5-7.83,7.78,7.78,0,0,0-5.64-2.68h0C374.07,390.46,374.57,390.38,375.08,390.33Zm-3.2,6.74a5.13,5.13,0,0,1,.81-.18,4.28,4.28,0,0,1,.83-.07,3.74,3.74,0,0,1,2.67,1.28,6.65,6.65,0,0,1,1.63,3.66,6.77,6.77,0,0,1-.62,4,3.84,3.84,0,0,1-2.22,2,5.13,5.13,0,0,1-.81.18,4.28,4.28,0,0,1-.83.07,3.7,3.7,0,0,1-2.66-1.28,6.63,6.63,0,0,1-1.64-3.66,6.85,6.85,0,0,1,.61-4A3.89,3.89,0,0,1,371.88,397.07Zm-16.72,3.42a4.06,4.06,0,0,1,4,.1l-2.27-6.48A89.32,89.32,0,0,1,370.24,391l-.22.1a8.17,8.17,0,0,0-4.74,4.26,14.81,14.81,0,0,0-1.29,8.54,14.46,14.46,0,0,0,3.49,7.82,7.78,7.78,0,0,0,5.65,2.68,2.79,2.79,0,0,1,.43.06,79.6,79.6,0,0,0-9.12,1.62l-2.25-6.48a4.34,4.34,0,0,1-2.92,2.71,4.56,4.56,0,0,1-4-.5,6.55,6.55,0,0,1-2.77-3.56,7,7,0,0,1-.07-4.59A5,5,0,0,1,355.16,400.49ZM335.45,404c0-.09-.09-.17-.14-.26a108.26,108.26,0,0,1,17.08-8.12,9.34,9.34,0,0,0-4.51,5.37,13.28,13.28,0,0,0,.26,8.92,12.54,12.54,0,0,0,5.28,6.94,8.57,8.57,0,0,0,4,1.23,70,70,0,0,0-6.65,2.72c-1-1.78-1.95-3.55-2.93-5.33l-.23.14q.66,1.19-1,2.19L343,420.09l-7.5-13.56C334.8,405.28,334.78,404.44,335.45,404Zm-16.33,11.49a94.47,94.47,0,0,1,10.12-7.91l.12.22q1-.63,2.07,1.29l8.95,16.19a4.22,4.22,0,0,1,.49,1.31c-1,.71-1.95,1.43-2.88,2.17l-3.73-4.54-.2.18c.57.69.39,1.48-.55,2.35l-4.15,3.85L327.22,428l2-1.87c.9-.84,1.64-.91,2.21-.22l.19-.18-5.2-6.32-.2.18c.57.69.39,1.47-.53,2.33l-2,1.84-2.15-2.61,4.15-3.86c.94-.87,1.7-1,2.27-.26l.19-.19-4.35-5.28q-5.11,4.74-10.19,9.49l.19.23c.58-.54,1.34-.25,2.26.86q5.82,7.05,11.63,14.12a2.82,2.82,0,0,1,.81,1.73,74.45,74.45,0,0,0-5.52,7.41q-6-9.27-12.1-18.53a3.77,3.77,0,0,1-.81-2.42Q314.16,420,319.12,415.52ZM308.38,426.4l-2.21,3.54.24.17a.57.57,0,0,1,.9-.21,4.32,4.32,0,0,1,.95,1.12q2.65,4,5.29,8l-11.45-2.62c-.09.13-.17.26-.25.4l6.72,10.2c-3-.7-6-1.38-9-2.07a4,4,0,0,1-1.34-.49.65.65,0,0,1-.17-1l-.24-.17L294.32,449A75.32,75.32,0,0,1,308.38,426.4Zm-45.66,67.87c.06,6,.3,21.38,1,39.28l-4.16-.39c-.72-17.52-1-32.46-1-38.27Zm-10.93,1.67c.08,6.29.34,20.25,1,36.59l-3.74-.36c0-.55,0-1.11-.07-1.66l1.23-13-1.69-.16c-.28-9.08-.42-16.48-.49-20.8Zm-10.52,1.65c.07,4.29.21,11,.46,19.09l-3.53-.33-.55,5.82c-.37-10.66-.54-19.32-.62-23.9Zm-11,1.78c.11,6,.37,17.53.93,31.12L227,530.1c-.54-13.14-.8-24.21-.91-30.05Zm-247.4,98.89q1.92-17.93,3.88-35.85c1.72,12.22,3.16,24.75,4.3,35.65Q-13,598.19-17.14,598.26Zm14.89-.47c-1.52-14.78-3.6-32.61-6.18-48.7l4.25-.91C-1.58,564.63.49,582.81,2,597.55Zm10.91-.74c-1.48-15-3.58-33.5-6.21-50.27l2.74-.58.25-.06,1.06-.31c2.66,16.93,4.76,35.77,6.24,50.84C11.39,596.81,10,596.94,8.66,597.05ZM19.4,595.9c-1.49-15.36-3.62-34.6-6.33-51.84l5.73-1.47C21.5,560.32,23.6,580,25,595.08Q22.26,595.53,19.4,595.9Zm12.24-2c-1.42-15.31-3.53-35.08-6.24-52.91l4.24-1c2.69,18,4.77,37.88,6.15,53C34.43,593.25,33.05,593.56,31.64,593.86Zm10.22-8.1c-1.36-14.33-3.25-31.62-5.62-47.45l4-1c2.26,15,4.07,31.5,5.41,45.44A15.85,15.85,0,0,0,41.86,585.76Zm8-27.9C49,550.46,48,543,46.91,535.78l4.39-1c.93,6.61,1.76,13.5,2.5,20.34A15.64,15.64,0,0,0,49.82,557.86Zm10.57-4.58c-.73-6.75-1.55-13.53-2.46-20l4.26-1c.94,6.87,1.78,14,2.53,21.12A19,19,0,0,0,60.39,553.28Zm15.71,11a12.16,12.16,0,0,0-4.28-7.9c-.86-8.55-1.86-17.31-3-25.64l4.06-.91c2,14.82,3.6,31.09,4.76,45C77.13,571.33,76.6,567.7,76.1,564.3Zm9.24,14.79-.6.16c-1.18-15.2-2.91-34-5.21-50.87l5.78-1.27C87.38,542.85,89,560,90.06,574.28A38.59,38.59,0,0,0,85.34,579.09Zm11.15-8.89c-1.1-13.75-2.59-29.78-4.53-44.53l4.27-.92c1.89,14.66,3.35,30.54,4.4,44.09A22.76,22.76,0,0,0,96.49,570.2ZM105.31,545c-.72-7.23-1.52-14.56-2.43-21.61l4.08-.86c.81,6.29,1.54,12.82,2.19,19.31A13.21,13.21,0,0,0,105.31,545Zm10.44-5.18c-.64-6.28-1.35-12.6-2.13-18.68l3.32-.69c.78,6.25,1.46,12.78,2.08,19.3A18.79,18.79,0,0,0,115.75,539.77ZM126,541.56c-.68-7.59-1.46-15.24-2.36-22.53l4.29-.87c1.07,8.87,2,18.27,2.73,27.4A12.87,12.87,0,0,0,126,541.56Zm6.66,33.88c0-.36,0-.72,0-1.08,0,.36,0,.74.06,1.11Zm6.91,2.08c-.89-16.42-2.47-40-5-60.7l4.09-.82c2.58,21.32,4.17,45.9,5,62.38C142.31,578.15,140.92,577.86,139.54,577.52Zm13.72,1.14a26.73,26.73,0,0,1-2.81.2c-.85-16.68-2.45-42.17-5.11-64.17l5.82-1.14c2.69,23.21,4.22,49.88,5,65.68C155.18,579.08,154.23,578.9,153.26,578.66Zm9.61,1c-.12-2.6-.26-5.51-.43-8.67q.57,4.31,1.12,8.63Zm-1.62-28.77c-.83-12.38-1.95-26-3.4-38.59l4.29-.82c1.26,11.12,2.25,23,3,34.07A12.47,12.47,0,0,0,161.25,550.85Zm10.46-8.55c-.75-10.53-1.7-21.66-2.88-32.12l4.1-.77c1.19,10.49,2.14,21.69,2.88,32.29A19,19,0,0,0,171.71,542.3Zm10.95.49c-.77-11.3-1.76-23.37-3-34.61l5.39-1c.18,6.87.61,21.29,1.5,37.9A13.13,13.13,0,0,0,182.66,542.79Zm12.44,29.9c-2.26-27.57-3.09-57.11-3.32-66.72l4.13-.73c.22,9.79,1.05,39.67,3.33,67.53A26.07,26.07,0,0,0,195.1,572.69Zm11,1.86c-2.47-29.32-3.27-61.77-3.45-70.5l4.22-.74c.24,11.1,1.14,44.6,3.77,73.76A27.57,27.57,0,0,0,206.13,574.55Zm11.53,5.19c-2.91-30.58-3.79-67.36-4-77.59q2.84-.5,5.68-1c.12,5.92.38,16.17.88,28.28l-.6-.06-1.17,12.45,2.36.22c.58,11.28,1.37,23.32,2.43,34.55C221.62,578.31,219.9,579.62,217.66,579.74Zm10-37,4.16.39c.42,8.08.94,16.49,1.59,24.68l-.09,1a9.35,9.35,0,0,0-3.83,1.58C228.68,561.27,228.08,551.77,227.61,542.72Zm24.1,31.1c-.87-9.37-1.53-19.36-2-29l3.73.35c.5,9.67,1.16,19.68,2,29.08C254.2,574.14,253,574,251.71,573.82Zm10.44.22c-.83-9.11-1.47-18.83-2-28.26l4.16.39c.47,9.07,1.08,18.38,1.86,27.17A37.87,37.87,0,0,1,262.15,574Zm10.64-2.71c-2.7-31.56-3.2-69.49-3.28-78.07l4.24-.62c.11,11,.68,46.8,3.23,76.94C275.55,570.23,274.16,570.82,272.79,571.33Zm15.54-7.62c-1.69.95-3.3,1.84-4.87,2.66-2.39-30.22-2.84-65.24-2.92-74.71l5.7-.8c.12,12.42.66,44.65,2.87,72.76Zm5.74-114,.12.09c.45-.72,1.39-.91,2.84-.6q10.52,2.36,21,4.76l.16-.25q-3.31-5.13-6.64-10.26l11.14,2.47a95.79,95.79,0,0,0-13.34,34.54q-8.78,1.11-17.75,2.34C289.56,470.8,290.28,460,294.07,449.66Zm1.73,113.21c-2.2-28.52-2.67-61.33-2.77-72.95l4.15-.56c.09,11.8.55,44.51,2.73,73.1Zm10.82-1c-2.19-29.06-2.57-62.51-2.63-73.43l4.24-.55c.09,12.59.53,45.37,2.7,73.69Zm144.87-86.34c-.19,8.47-.57,17.39-1.06,26.28-1,18.7-2.53,37.24-3.77,51.18-15.73-1.31-31.33-3.28-45.36-10.35-15.26-1.76-26.36,10.54-37.41,20.77a250,250,0,0,0-46.23-2.18c-2.26-29.64-2.59-64.41-2.63-75.25l.6-1.19.08-.7c.27-2.32,7.12-58.8,62.42-62.82,51-3.55,68.14,26.77,73.37,52.52l.36,1.75Zm11.61,27c-1.07,18.8-2.62,37.45-3.89,51.4l-5.83-.45c1.27-14,2.78-32.55,3.83-51.28.48-8.53.86-17.09,1.07-25.28l5.9.52C464,485.62,463.58,494.12,463.1,502.59Zm14.81-2.4c-1.28,21.65-3.19,43.08-4.59,57.4-2.22-1.05-4.42-2.05-6.61-2.93l-.78-.08c1.29-14,2.86-32.73,4-51.61.49-8.39.88-16.82,1.11-24.88l7.94.71C478.69,485.78,478.34,493,477.91,500.19Zm13-.87c-.57,9.17-1.24,18.3-1.94,26.87l-2.91.9,2.23,7.16c-1,11.86-2,22.17-2.79,29.31-1.91-.93-3.8-1.87-5.69-2.81,1.42-14.32,3.52-37.07,4.91-60.09.43-7.14.79-14.3,1-21.24l6.14.56C491.62,486.32,491.28,492.83,490.89,499.32Zm6.68,69.42c-1.89-.66-3.76-1.41-5.62-2.21.8-7.56,2-19.67,3.24-33.75l6.05-1.88C499.83,547.28,498.38,561.2,497.57,568.74Zm5.93-67.59c-.46,7.12-1,14.19-1.53,21L495.92,524c.64-7.81,1.24-16,1.76-24.28.4-6.41.74-12.85,1-19.13l5.9.56c-.24,5.61-.55,11.36-.9,17.11l-1,.3Zm5.9,70.46a45.36,45.36,0,0,1-5.27-.91c.84-7.68,2.51-23.45,4.1-42l3.5-1.09,1.84,5.94C511.86,550.93,510.17,565.23,509.4,571.61Zm2-75.72-.72.23c.29-4.81.55-9.6.75-14.3l6.27.6c-.16,3-.34,6-.54,9.07-.41,6.15-.88,12.37-1.38,18.48Zm10.92,74.82a33.7,33.7,0,0,1-6.11,1c.55-4.52,1.47-12.2,2.51-21.79l4.39,14.15C522.75,566.78,522.48,569,522.27,570.71Zm3.32-29L521,527c.07-.77.15-1.55.22-2.33l6.25-1.94C526.86,529.42,526.21,535.82,525.59,541.7Zm4.53-50.89c-.53,7.72-1.16,15.55-1.83,23.15L522,515.91c.69-7.86,1.33-16,1.86-23.95.2-3,.39-5.94.55-8.87l6.12.6Q530.36,487.23,530.12,490.81Zm5.19,76.78c-.54.09-1.07.15-1.61.23l-3.11-10c1.15-9.86,2.58-23,3.92-37.26l6.09-1.89C538.7,539.1,536.54,557.53,535.31,567.59Zm0-55.8c.59-6.74,1.14-13.62,1.61-20.43q.24-3.51.45-7l5.89.6c-.14,2.28-.29,4.59-.45,6.9-.42,6-.9,12.05-1.42,18Zm6.94,54.6c1.87-15.25,5.32-45.25,7.35-73.94q.24-3.4.45-6.78l7.89.83c-.08,1.15-.16,2.31-.25,3.47-2.12,29.4-5.74,60.23-7.57,74.89Q546.15,565.67,542.24,566.39Zm14.85-3c1.93-15.54,5.34-44.85,7.39-72.88l.24-3.3,6.1.66-.12,1.59c-2.08,28-5.52,57.23-7.44,72.61Zm13.15-2.81c2-16,5.25-43.86,7.26-70.56,0-.47.07-.95.1-1.42l5.89.64c0,.45-.07.9-.1,1.35-2,25.77-5.1,52.64-7.11,68.76Zm13-2.56c2-16.37,5-42.07,6.93-66.79l.09-1.24,4.93.55c-2,24.17-5.09,49.7-7.32,66.68C586.34,557.47,584.8,557.74,583.25,558Zm11.57-1.82c2.24-17,5.22-41.56,7.16-64.89l6.1.69c-2,23-4.94,47-7.13,63.51Q597.91,555.8,594.82,556.2Zm13-1.17c2.19-16.52,5.06-39.84,7-62.25l5.88.69c-2,22.07-4.79,45-7,61.46C611.79,554.91,609.82,555,607.83,555Zm12.69.23c2.2-16.43,5-39.14,7-61l7.84.93c-2.11,22.4-5.06,45.36-7.23,61.11A72.75,72.75,0,0,0,620.52,555.26Zm14.17,2.85c2.2-15.83,5.25-39.24,7.44-62.09l6.07.74c-2.21,22.51-5.23,45.39-7.39,60.74A10.63,10.63,0,0,1,634.69,558.11Zm19.68-6.42a16.42,16.42,0,0,0-6.2,2c2.11-15.16,4.78-35.76,6.81-56.09l5.87.73C658.92,517.47,656.42,536.88,654.37,551.69Zm6.78.34c.64-4.57,1.31-9.56,2-14.83L665,551.8C663.75,551.86,662.45,551.94,661.15,552Zm9.49-30.66a14.31,14.31,0,0,0-6.15,5.29c1.1-8.86,2.18-18.2,3.13-27.49l6.16.78C672.78,506.45,671.71,513.7,670.64,521.37Zm13-1.1a17.64,17.64,0,0,0-5.86-.66c1-6.7,1.9-13.05,2.79-18.8l5.87.76C685.53,507.3,684.58,513.61,683.62,520.27Zm9.21,10.63a12.45,12.45,0,0,0-2.9-6.73c1.11-7.78,2.23-15.14,3.26-21.72l6,.79c-1.65,10.55-3.51,23.11-5.24,36.22C693.56,536.56,693.19,533.66,692.83,530.9ZM699,553.41c2.14-17.63,4.72-35.12,6.92-49.09l7.64,1.36c-2.17,13.8-4.71,31.18-6.8,48.62Zm14.48,1.7c2.09-17.29,4.63-34.53,6.79-48.22l5.82,1.07c-2.15,13.58-4.68,30.66-6.78,47.83Zm18.6,2q-3-.26-6.05-.56c2.11-17,4.62-33.87,6.77-47.32l6,1.11C736.63,523.58,734.15,540.29,732.08,557.08Zm12.13.72c-1.79,0-3.58-.13-5.37-.23,2.06-16.51,4.52-32.92,6.61-46l5.33,1C748.71,525.46,746.27,541.54,744.21,557.8Zm12.75-.1q-3,.15-5.94.18c2-15.83,4.43-31.44,6.46-44l5.81,1.13C761.3,527.21,759,542.3,757,557.7Zm13.13-1.41c-2.07.35-4.14.62-6.23.85,2-14.72,4.2-29.1,6.12-40.8l5.94,1.18C774.09,528.65,772,542.27,770.09,556.29Zm13.12-3.21c-2,.65-4.05,1.24-6.08,1.74,1.8-13,3.76-25.57,5.47-36l2.2.45Zm15.36-3.72a10,10,0,0,0-3.76-.29l1-20.29q.59-3.63,1.13-7l5.79,1.21Q800.4,536.87,798.57,549.36Zm12,7c-2-1.2-3.81-2.54-5.58-3.75,1.3-8.93,2.77-18.39,4.42-28.24l5.92,1.26Q812.58,542,810.53,556.41Zm12.78,3.51a20,20,0,0,1-6.34-.67q2.12-14.94,5-32.14l5.93,1.3C827.1,534.38,825.5,546.1,823.31,559.92ZM836.65,554c-1.74,1.32-3.56,2.74-5.46,4.29l-.8.25c2-12.42,3.4-22.89,4.17-28.65l5.37,1.2C839.36,535.35,838.22,543.67,836.65,554Zm13.63-9.05q-2.79,1.53-5.94,3.6c1-6.95,1.8-12.55,2.25-16l5.26,1.19C851.5,536.33,851,540.18,850.28,544.93Zm14.75-5a27.55,27.55,0,0,0-7.4,1.65c.36-2.5.65-4.63.88-6.29l6.93,1.61C865.34,537.64,865.2,538.66,865,539.93Zm12,2.89a24.87,24.87,0,0,0-5.22-2.21c.12-.83.21-1.55.29-2.14l5.35,1.28C877.37,540.25,877.23,541.31,877,542.82Zm8.46,5.78L883.29,547c.38-2.64.65-4.58.79-5.64l2.47.6C886.19,544.17,885.84,546.39,885.48,548.6Zm37.53,13-.33,0c-1.77,0-3.46-.07-5.07-.18.77-5,1.35-8.92,1.69-11.26l5.21,1.39C924.2,553.77,923.69,557.24,923,561.65Zm14.07-.19a61.76,61.76,0,0,0-7.13-.32c.5-3.22.9-5.86,1.17-7.72l6.87,1.89C937.86,556.26,937.54,558.41,937.08,561.46Zm12.79-2.73c0,.09-.27,1.9-.74,5q-2.64-.69-5.34-1.25c.36-2.37.63-4.2.8-5.32l5.07,1.45.69.2Zm11,8.7c-1.71-.6-3.42-1.18-5.15-1.74.38-2.42.64-4.18.77-5.09l5.19,1.54C961.5,563.12,961.23,564.94,960.84,567.43Zm12.5,4.28q-3-1-6-2c.39-2.43.68-4.34.87-5.58l6,1.85C974,567.38,973.72,569.34,973.34,571.71Zm11.9,3.11c-1.8-.35-3.58-.76-5.34-1.21.36-2.23.66-4.12.89-5.58,1.72.55,3.48,1.1,5.26,1.68C985.86,571,985.59,572.69,985.24,574.82Zm12.09,1.28c-1.83,0-3.62-.13-5.37-.3.25-1.55.46-2.89.63-4,1.71.55,3.42,1.12,5.15,1.7C997.62,574.27,997.48,575.14,997.33,576.1Zm6.87,0,.06-.41,1.36.47Z"/></g></svg>