<svg xmlns="http://www.w3.org/2000/svg" viewBox="0 0 200 200"><defs><style>.cls-1{fill:#5d5037;}.cls-2{fill:#7c6b49;}.cls-3{fill:#897a5b;}.cls-4{opacity:0.45;}.cls-17,.cls-18,.cls-5{fill:#443e2f;}.cls-6{fill:#887859;}.cls-7{fill:#37222b;}.cls-8{fill:#e6e6e6;}.cls-9{fill:#65573d;}.cls-10{fill:#d2f78b;}.cls-11,.cls-16{fill:#91fa00;}.cls-12{fill:#64a005;}.cls-13{fill:#c9d94e;}.cls-14{fill:#cff784;}.cls-15{fill:none;}.cls-16{stroke:#d2f78b;stroke-miterlimit:10;}.cls-17{opacity:0.49;}.cls-18{opacity:0.4;}</style></defs><g id="Zombie2"><g id="Zombie2_WIP_copy" data-name="Zombie2 WIP copy"><g id="LEGS_copy_3" data-name="LEGS copy 3"><ellipse class="cls-1" cx="120.06" cy="156.76" rx="24.36" ry="39.25" transform="translate(-25.64 23.5) rotate(-10.11)"/><ellipse class="cls-2" cx="118.19" cy="149.71" rx="24.36" ry="39.25" transform="translate(-24.43 23.06) rotate(-10.11)"/><ellipse class="cls-3" cx="107.34" cy="168.61" rx="3.64" ry="10.9" transform="translate(-38.6 32.03) rotate(-14.42)"/><g class="cls-4"><path class="cls-5" d="M130.27,171.68a.75.75,0,0,1-.57-.28,1.26,1.26,0,0,1-.06-1.51,5,5,0,0,1,3.65-1.95l.2,0a5.57,5.57,0,0,1,1.58,0c.25,0,.5,0,.75,0h0a8.73,8.73,0,0,0,3.55-1.15c1.85-.89,3.75-1.8,5.73-.84a1.16,1.16,0,0,1,.49,1.38.82.82,0,0,1-1.11.61c-1.36-.67-2.88.06-4.49.83a9.87,9.87,0,0,1-4.17,1.3h0a8.48,8.48,0,0,1-.88-.06,4.33,4.33,0,0,0-1.19,0l-.2,0c-1.19.22-2,.37-2.64,1.28A.8.8,0,0,1,130.27,171.68Z"/></g><g class="cls-4"><path class="cls-5" d="M110.42,188.36a.86.86,0,0,1-.76-.59,1.18,1.18,0,0,1,.37-1.43,45.4,45.4,0,0,0,7.41-5.84.76.76,0,0,1,1.21.18,1.26,1.26,0,0,1-.15,1.5,47.19,47.19,0,0,1-7.69,6.06A.74.74,0,0,1,110.42,188.36Z"/></g><ellipse class="cls-1" cx="70.08" cy="157.99" rx="43.16" ry="24.74" transform="translate(-101.94 174.69) rotate(-71.62)"/><ellipse class="cls-2" cx="71.9" cy="151.38" rx="43.16" ry="24.74" transform="translate(-94.43 171.9) rotate(-71.62)"/><ellipse class="cls-6" cx="56.39" cy="165.49" rx="9.44" ry="6.03" transform="translate(-114.22 203.71) rotate(-83.81)"/><g class="cls-4"><path class="cls-5" d="M80,174.88a.77.77,0,0,1-.74-.72A1.42,1.42,0,0,1,80,172.7l6.78-3a10,10,0,0,1,3.56-1.07c.5-.05.85.47.77,1.09a1.27,1.27,0,0,1-1.06,1.16,8.53,8.53,0,0,0-2.94.92l-6.78,3A.82.82,0,0,1,80,174.88Z"/></g><g class="cls-4"><path class="cls-5" d="M51.26,182.44a9.6,9.6,0,0,1-6.09-2.23,1.2,1.2,0,0,1-.12-1.53c.32-.54.9-.74,1.29-.44a8.52,8.52,0,0,0,7.94,1.61c.51-.12.93.28.93.89a1.36,1.36,0,0,1-.92,1.32A13.57,13.57,0,0,1,51.26,182.44Z"/></g></g><g id="ARMS_copy_3" data-name="ARMS copy 3"><path class="cls-2" d="M26,76.42c4.88,7,22.34,30.85,35.24,16.57s-.45-23.25-4.6-28.26S42.08,45.19,40.9,44c6.3-6.61,8.47-24-9.62-15,0,0-5.35-15.65-23-6.53-16,11.84-4.07,24.63-1.21,28.9S26,76.42,26,76.42Z"/><ellipse class="cls-6" cx="16.88" cy="27.47" rx="4.07" ry="6.48" transform="translate(-14.27 35.8) rotate(-73.39)"/><ellipse class="cls-6" cx="37.26" cy="30.41" rx="4.06" ry="2.43" transform="translate(-7.47 12.73) rotate(-17.65)"/><path class="cls-1" d="M61.52,92.61C49.23,99.21,34.6,79.21,30.2,72.89c0,0-16-20.79-18.91-25.07C8.7,44-1.38,33,8.77,22.2l-.51.25c-16,11.84-4.07,24.63-1.21,28.9S26,76.42,26,76.42c4.88,7,22.34,30.85,35.24,16.57C61.3,92.86,61.4,92.73,61.52,92.61Z"/><path class="cls-2" d="M169.41,98.34c-5.52,4.43-25,19.33-31.5,5.79S144,86.32,148.44,83.27s16.1-12.16,17.32-12.88c-3.27-6.33-.68-20.16,11.18-9.63,0,0,8-11,19.52-.47,9.55,12.28-2.9,19.77-6.17,22.49S169.41,98.34,169.41,98.34Z"/><path class="cls-1" d="M187.19,80.35c-3.27,2.73-20.88,15.56-20.88,15.56-4.54,3.65-18.52,14.38-27,10.5,7.57,9.36,24.91-3.93,30.07-8.07,0,0,17.61-12.83,20.88-15.56S206,72.57,196.46,60.29a22.72,22.72,0,0,0-3-2.35C202.85,70.17,190.46,77.64,187.19,80.35Z"/><ellipse class="cls-6" cx="151.04" cy="87.13" rx="18.58" ry="2.43" transform="translate(-22.87 99.81) rotate(-34.15)"/><ellipse class="cls-6" cx="168.54" cy="64.85" rx="2.16" ry="3.97" transform="translate(-6.07 18.78) rotate(-6.27)"/></g><g id="BODY_copy_3" data-name="BODY copy 3"><path class="cls-2" d="M142.82,121.66c2-23.07-13.7-54.7-42.69-57.57S48.69,87.55,46.45,110.6c-2.91,29.87-.8,33.07,47.24,37.11C135,151.18,140.4,150.25,142.82,121.66Z"/><path class="cls-1" d="M143.2,115.9c-2.83,33.95-8.25,35.15-49.57,31.79-37.1-3-46.78-5.95-47.74-23.45-1,23.74,6.21,27,47.74,30.38,41.32,3.36,46.74,2.16,49.57-31.79a70.55,70.55,0,0,0,.13-9C143.29,114.53,143.25,115.22,143.2,115.9Z"/><ellipse class="cls-6" cx="65.32" cy="99.85" rx="23.99" ry="10.36" transform="translate(-51.66 123.33) rotate(-68.16)"/></g><g id="HEAD_copy_3" data-name="HEAD copy 3"><path class="cls-7" d="M131.25,78l-.14-.14"/><path class="cls-7" d="M138.25,92.91c-15.7,8.57-57.17,8.45-78.74-7.18C83.63,70.33,115.61,71.16,138.25,92.91Z"/><path class="cls-8" d="M114.51,94.31,127,82.4a56.13,56.13,0,0,0-12.52-6.69Z"/><path class="cls-8" d="M72.65,77.54a51.16,51.16,0,0,0-10.44,6.27l8.19,9.28Z"/><path class="cls-8" d="M81,92.31,85.46,73.4a59.85,59.85,0,0,0-12.6,4Z"/><path class="cls-8" d="M85.91,73.32l6.83,18.34,6.83-19.27-.27,0A53.37,53.37,0,0,0,85.91,73.32Z"/><path class="cls-8" d="M103.23,92.31l11.12-16.65a51.81,51.81,0,0,0-14-3.2Z"/><path class="cls-8" d="M127.67,82.89,127,96.74l8.81-6.33A48.21,48.21,0,0,0,127.67,82.89Z"/><path class="cls-9" d="M163.82,52.77C161.49,20.44,138.41,5.53,100.4,4.46c-47.75.72-69.59,51.28-40.89,81.27C80.61,73,115,70.13,138.25,92.91,151,85.43,162.83,72.56,163.82,52.77Z"/><path class="cls-2" d="M163.84,49.5C161.51,17.16,138,1.31,100,.24,52.25,1,29.6,52,58.3,82,81,69.52,116.77,66.68,138.84,88.38,151.62,80.9,162.86,69.28,163.84,49.5Z"/><ellipse class="cls-6" cx="79.93" cy="19.09" rx="15.94" ry="10.04" transform="translate(-2.09 24.16) rotate(-16.97)"/><ellipse class="cls-1" cx="122.11" cy="56.39" rx="14.04" ry="8.97" transform="translate(28.59 153.05) rotate(-70.73)"/><ellipse class="cls-10" cx="122.12" cy="55.51" rx="12.34" ry="7.81" transform="translate(26.31 149.41) rotate(-68.87)"/><path class="cls-11" d="M119,65.05a4.27,4.27,0,0,1-.9-.34c-3.49-1.74-4.3-7.23-1.88-12.78,2.16-4.94,6.15-7.88,9.48-7a4.07,4.07,0,0,1,.9.34c1.82.9,3,2.95,3.22,5.6a15.23,15.23,0,0,1-1.34,7.17C126.32,63,122.33,65.94,119,65.05Z"/><path class="cls-12" d="M129.14,55.93c-2.16,4.94-6.14,7.87-9.48,7a4.89,4.89,0,0,1-.9-.34c-2.87-1.43-3.92-5.4-2.86-9.84-2,5.25-1.89,10.69,1.43,12.35a10.75,10.75,0,0,0,1.34.49c3.33.88,7.65-2.6,9.81-7.53a17.08,17.08,0,0,0,.94-2.86C129.32,55.44,129.25,55.69,129.14,55.93Z"/><path class="cls-13" d="M119.77,50.49c1.86-2.69,4.25-3.62,6.29-2.83"/><path class="cls-14" d="M119.43,51.59a1,1,0,0,1-.3-.17,1.21,1.21,0,0,1-.24-1.62c2.07-3,5-4.25,7.53-3.23a1.19,1.19,0,0,1,.67,1.48,1.06,1.06,0,0,1-1.4.7c-1.64-.66-3.54.27-5,2.43A1,1,0,0,1,119.43,51.59Z"/><ellipse class="cls-1" cx="79.74" cy="54.91" rx="11.85" ry="8.13" transform="translate(16.73 128.42) rotate(-83.95)"/><path class="cls-11" d="M79.68,63.82a4.73,4.73,0,0,1-.92,0c-3.72-.42-6.15-5-5.67-10.61.44-5,3.16-8.85,6.46-9.13a4.7,4.7,0,0,1,.92,0A6.09,6.09,0,0,1,85.13,48a13.67,13.67,0,0,1,1,6.71C85.7,59.7,83,63.54,79.68,63.82Z"/><path class="cls-12" d="M85.72,52.65c-.44,5-3.16,8.85-6.46,9.13a4.7,4.7,0,0,1-.92,0c-2.43-.28-4.31-2.33-5.19-5.28.51,4,2.34,7.87,5.29,8.21.31,0,1.51.07,1.81,0,3.31-.27,5.45-5,5.89-10a14.53,14.53,0,0,0-.5-5.33A15.63,15.63,0,0,1,85.72,52.65Z"/><path class="cls-14" d="M75.71,52.27a1.32,1.32,0,0,1-.34,0A1,1,0,0,1,74.55,51c.75-3.19,2.89-5.31,5.59-5.47a1.06,1.06,0,0,1,1.16.94,1,1,0,0,1-1,1.09c-1.73.11-3.1,1.57-3.64,3.88A1.07,1.07,0,0,1,75.71,52.27Z"/><path class="cls-15" d="M96.24,115.73v0"/><path class="cls-16" d="M120.45,97.14c.46.48.12,1.34-.39,1.77s-1.17.72-1.49,1.32a3.69,3.69,0,0,0,0,2.28,5.55,5.55,0,0,1-.85,4.41,2.67,2.67,0,0,1-3.91.39c-.38-.43-.6-1-1-1.42-1.43-1.62-4.23-.11-4.84,2s.12,4.36.5,6.53c.48,2.72.3,5.84-1.57,7.78s-5.76,1.55-6.44-1.12a6.73,6.73,0,0,1,.07-2.68l1.12-6.79a7.51,7.51,0,0,0,0-3.71c-.43-1.17-1.72-2.1-2.82-1.61s-1.39,2-1.45,3.3a70.4,70.4,0,0,0,.9,15.07,22.91,22.91,0,0,1,.58,5.94,6.18,6.18,0,0,1-2.78,4.94c-1.69.91-5.1.4-5.7-1.49a29.69,29.69,0,0,1-.56-4.71c.31-5.85,2-9.3,2.28-15.15a11.72,11.72,0,0,0-.45-4.94c-.62-1.53-2.15-2.81-3.71-2.49-2.44.49-3.48,4.28-6,4.33-1.54,0-2.74-1.56-3-3.15a13.19,13.19,0,0,1,.63-4.77A12.23,12.23,0,0,0,80,97.51,5.4,5.4,0,0,0,77.42,94,88.66,88.66,0,0,0,120.45,97.14Z"/><path class="cls-10" d="M82.13,101.64a10.49,10.49,0,0,1-.82,3.26,4.66,4.66,0,0,0-.64,2.18c.06.77.85,1.52,1.49,1.15s.58-.94.61-1.52a10.15,10.15,0,0,0-.52-4.85"/><path class="cls-10" d="M91.22,130.57a5,5,0,0,0,.91,2.58,1.93,1.93,0,0,0,2.38.6c-1.17-1.53-1.18-3.5-1.45-5.45a15.57,15.57,0,0,1-.25-5,27.29,27.29,0,0,0,.46-7.33C92.33,120.66,90.64,125.69,91.22,130.57Z"/><path class="cls-10" d="M103.32,114.58l-1,3.44a4.59,4.59,0,0,0-.25,2.19,1.49,1.49,0,0,0,1.49,1.29v-5.84c0-.3-.07-.69-.35-.74"/><path class="cls-10" d="M115.92,103.76c-.66-.16-1.52.18-1.56.88a.94.94,0,0,0,1.33.82,1.39,1.39,0,0,0,.52-1.69l-.46,0"/></g><g id="FOLDS_copy_3" data-name="FOLDS copy 3"><path class="cls-17" d="M53.22,63a3.27,3.27,0,0,1-1.85-.84L51.19,62c-1.3-1-2.35-1.64-3.18-1.14a.88.88,0,0,1-1.23-.36,1,1,0,0,1,.33-1.29c1.89-1.14,3.83.28,5.12,1.23l.2.16c.22.16.63.52.79.47s.12-.15.17-.23l1-1.31a2.27,2.27,0,0,0,.31-.48c0-.08,0-.17.05-.25s0-.26.07-.38a2.68,2.68,0,0,1,1.25-1.66,2.47,2.47,0,0,1,2-.27l.35.14.26.09a1.37,1.37,0,0,0,.43-.1l3.62-1.14a.9.9,0,0,1,1.13.64,1,1,0,0,1-.61,1.18l-3.62,1.14a2.7,2.7,0,0,1-1.17.17,3.25,3.25,0,0,1-.7-.21l-.21-.08a.69.69,0,0,0-.58.1.79.79,0,0,0-.39.48,2.07,2.07,0,0,1,0,.22,3.25,3.25,0,0,1-.12.54,3.43,3.43,0,0,1-.62,1.07l-1,1.31a2.52,2.52,0,0,1-.8.74A1.67,1.67,0,0,1,53.22,63Z"/><path class="cls-17" d="M58.49,41.86a.81.81,0,0,1-.45-.13.76.76,0,0,1-.3-.29l-.11,0a1.38,1.38,0,0,1-1,.09,1.52,1.52,0,0,1-.94-1.09c-.52-1.62-1.67-3.27-3.09-3.27h0a5,5,0,0,0-1.25.23,8.59,8.59,0,0,1-.84.21,1.72,1.72,0,0,1-2.1-.78,1,1,0,0,1,.06-1.37.85.85,0,0,1,1.25.06l0,.06.17.21.24,0a6.15,6.15,0,0,0,.71-.18,6.43,6.43,0,0,1,1.71-.29h0c2.36,0,4,2.22,4.7,4.25l1.72-.72.33.89a2,2,0,0,1-.12,1.65A.88.88,0,0,1,58.49,41.86Z"/><path class="cls-17" d="M111.59,17.57a1.26,1.26,0,0,1-1.06-.68,9.17,9.17,0,0,1-.9-2.29c-.29-1-.54-1.89-1.17-2.24l-.14-.07a1.87,1.87,0,0,1-1-.91,2.08,2.08,0,0,1,0-1.59,2.41,2.41,0,0,0,.08-.25c.1-.48-.77-1.32-1.46-2-1-1-2.2-2.15-2.1-3.6a3.41,3.41,0,0,1,1.64-2.49.88.88,0,0,1,1.26.24A1,1,0,0,1,106.55,3c-.54.39-.84.76-.86,1.05,0,.55.83,1.4,1.52,2.08,1.09,1.06,2.32,2.26,2,3.79,0,.16-.09.32-.14.49s0,.07,0,.11l.07,0,.2.1c1.3.72,1.71,2.13,2.07,3.37a12.8,12.8,0,0,0,.44,1.36.92.92,0,0,1,.36.13,1.15,1.15,0,0,1,.45,1.12,1.07,1.07,0,0,1-.75.88A1.33,1.33,0,0,1,111.59,17.57Z"/><path class="cls-17" d="M99.81,17.37a.9.9,0,0,1-.81-.53l-1.43-3.05a2.05,2.05,0,0,1-.26-1.12,2,2,0,0,1,1.1-1.51A12.88,12.88,0,0,1,101,10a15.57,15.57,0,0,1,2.29-3.8.87.87,0,0,1,1.28-.1,1,1,0,0,1,.1,1.34,13.4,13.4,0,0,0-2.16,3.69l-.16.43-.42.13a11.49,11.49,0,0,0-2.61,1.16l-.14.1a.08.08,0,0,0,0,0L100.62,16a1,1,0,0,1-.41,1.27A.82.82,0,0,1,99.81,17.37Z"/><path class="cls-17" d="M154.68,76a.86.86,0,0,1-.63-.27,8.23,8.23,0,0,0-2.77-2.17,3.5,3.5,0,0,0-3.49.06l-.13.1a2.07,2.07,0,0,1-1.64.58c-.9-.15-1.3-1-1.54-1.49l-.06-.13a3.31,3.31,0,0,0-2.88-1.8.65.65,0,0,1-.31.08l-.57,0-.28-1.87A5,5,0,0,1,146,71.79l.07.14c.06.12.15.31.22.42l.27-.19.16-.13A5.16,5.16,0,0,1,152,71.8a10,10,0,0,1,3.29,2.54,1,1,0,0,1,0,1.34A.89.89,0,0,1,154.68,76Z"/><path class="cls-17" d="M151.84,72.38a.91.91,0,0,1-.81-.53,12.68,12.68,0,0,1-1.18-5.33v0h-.58A4,4,0,0,1,146,64.34a11.17,11.17,0,0,1-1.13-3.42,1,1,0,0,1,.69-1.14.91.91,0,0,1,1.07.73,9.49,9.49,0,0,0,.91,2.83,2.29,2.29,0,0,0,1.78,1.25h.22a1.92,1.92,0,0,1,1.94.81,2.11,2.11,0,0,1,.23,1.1,10.6,10.6,0,0,0,1,4.5,1,1,0,0,1-.41,1.28A.91.91,0,0,1,151.84,72.38Z"/><path class="cls-17" d="M159.68,41.28a2.39,2.39,0,0,1-1.63-1,2.19,2.19,0,0,0-.45-.46,1.32,1.32,0,0,1-.25.26l-.39.32a4.48,4.48,0,0,1-3.49.4,1.56,1.56,0,0,1-1-.56,1.73,1.73,0,0,1-.28-1.23.86.86,0,0,0-.23-.69,1.64,1.64,0,0,0-1.16-.55,5.8,5.8,0,0,0-2.59.81l-.23.11a5.7,5.7,0,0,1-3.86.72,1,1,0,0,1-.67-1.14.91.91,0,0,1,1.09-.71,4.28,4.28,0,0,0,2.69-.6l.23-.11a7.35,7.35,0,0,1,3.4-1A3.47,3.47,0,0,1,153.27,37a2.82,2.82,0,0,1,.71,1.93,2.72,2.72,0,0,0,2-.13l.24-.2a2.91,2.91,0,0,1,.76-.54c1.22-.57,2.07.45,2.48.94a3.73,3.73,0,0,0,.26.3.9.9,0,0,1,1.12.3,1,1,0,0,1-.18,1.32A1.53,1.53,0,0,1,159.68,41.28Z"/><path class="cls-17" d="M9.21,55.69A1.21,1.21,0,0,1,9,55.31a2.84,2.84,0,0,1,.57-2.48,4.29,4.29,0,0,1,3.56-1.52,12.11,12.11,0,0,1,2.14.44,13.06,13.06,0,0,0,1.38.33,7.91,7.91,0,0,1,.77-3.68l.43-.91.86.46a1.69,1.69,0,0,0,2.06-.48.93.93,0,0,1,1.35-.17,1,1,0,0,1,.16,1.42,3.59,3.59,0,0,1-3.45,1.38,6.07,6.07,0,0,0-.17,2.84l.21,1.11-1.06.1a8.34,8.34,0,0,1-3-.43,9.67,9.67,0,0,0-1.8-.38,2.42,2.42,0,0,0-1.94.79.76.76,0,0,0-.19.68A1,1,0,0,1,10.2,56,.92.92,0,0,1,9.21,55.69Z"/><path class="cls-17" d="M31.63,56.39l0,0a1,1,0,0,1,.2-1.42l4-3.21L36.29,53a1.57,1.57,0,0,0,1.06.94,1.44,1.44,0,0,0,1.38-.22,4.53,4.53,0,0,0,.77-1l.36-.55.26-.38C41.06,50.44,42,49,44,48.74a1,1,0,0,1,1.08.87,1,1,0,0,1-.82,1.15c-1.12.16-1.66.88-2.59,2.23l-.27.4c-.11.15-.21.31-.31.47a6.34,6.34,0,0,1-1.17,1.48,3.3,3.3,0,0,1-3.09.59,3.58,3.58,0,0,1-1.71-1.09L33,56.57A.93.93,0,0,1,31.63,56.39Z"/><path class="cls-18" d="M196.08,77.71a.89.89,0,0,1-1,.61c-4.6-.65-6.63-1.87-6.69-7.47a10.33,10.33,0,0,1-2.85-.78A4.49,4.49,0,0,1,183,66.39a1,1,0,0,1,.87-1,.92.92,0,0,1,.94.91,2.64,2.64,0,0,0,1.57,2,10,10,0,0,0,2.74.69l1.18.19v.83c-.11,5.09.94,5.79,5.11,6.38a.94.94,0,0,1,.77,1.07A.65.65,0,0,1,196.08,77.71Z"/><path class="cls-18" d="M163.45,85.71l0,.05c1.12,1.23,2.52,3.1,1.74,5.08a5.82,5.82,0,0,1-.95,1.5c-.41.53-.7.93-.62,1.13a1.72,1.72,0,0,0,.36.39l.17.16a5.86,5.86,0,0,1,.38,7.65.89.89,0,0,1-1.28.09,1,1,0,0,1-.08-1.35,3.88,3.88,0,0,0-.25-5l-.14-.14a2.86,2.86,0,0,1-.8-1c-.57-1.3.26-2.36.87-3.13a4.89,4.89,0,0,0,.67-1c.28-.72-.17-1.72-1.38-3.05a1,1,0,0,1,0-1.35A.89.89,0,0,1,163.45,85.71Z"/><path class="cls-17" d="M135.81,131.59h-.23a2.33,2.33,0,0,1-1.68-1,4.54,4.54,0,0,1-.3-.53,1.65,1.65,0,0,0-.22-.36c-.1-.1-.45-.12-.56-.13a10.42,10.42,0,0,0-5.24,1.08l-.67.33-.4-.69a6.4,6.4,0,0,0-.87-1.22.47.47,0,0,1-.17,0,.9.9,0,0,1-.69-.8,1.19,1.19,0,0,1,.52-1.14.87.87,0,0,1,1.12.12,8.56,8.56,0,0,1,1.12,1.34,11.86,11.86,0,0,1,5.37-.94,2.42,2.42,0,0,1,1.56.56,3,3,0,0,1,.62.9,2.38,2.38,0,0,0,.17.31.65.65,0,0,0,.47.26.67.67,0,0,0,.51-.17,2.28,2.28,0,0,0,.3-.43,3.64,3.64,0,0,1,.78-.94,2.82,2.82,0,0,1,2.73-.16,2.12,2.12,0,0,0,1.35.15.82.82,0,0,1,1.15.45,1,1,0,0,1-.4,1.3,3.15,3.15,0,0,1-2.54,0c-.64-.19-1.08-.3-1.32-.11a2.17,2.17,0,0,0-.35.46,3.58,3.58,0,0,1-.55.75A2.21,2.21,0,0,1,135.81,131.59Z"/><path class="cls-17" d="M109.53,155.35a.86.86,0,0,1-.27,0c-3.32-1.24-3.93-3.1-3.86-4.44,0-.16,0-.33,0-.49a2.21,2.21,0,0,0,0-.37c0-.69-1.09-1.19-1.89-1.51-2-.78-3-2.29-2.64-3.85a.86.86,0,0,1,1.05-.7,1,1,0,0,1,.61,1.2c-.12.51.69,1.17,1.54,1.51s3,1.19,3,3.32a5.83,5.83,0,0,1-.06.71c0,.1,0,.2,0,.3-.06,1.25,1.65,2.09,2.69,2.47a1,1,0,0,1,.54,1.23A.86.86,0,0,1,109.53,155.35Z"/><path class="cls-5" d="M89.43,44.11a1.65,1.65,0,0,1-.74-.18A83.51,83.51,0,0,1,78,37.25a1.79,1.79,0,0,1-.41-2.41,1.6,1.6,0,0,1,2.3-.43,80.52,80.52,0,0,0,10.28,6.41,1.79,1.79,0,0,1,.75,2.33A1.67,1.67,0,0,1,89.43,44.11Z"/><path class="cls-5" d="M115.85,43.11a1.63,1.63,0,0,1-1.45-.91,1.77,1.77,0,0,1,.65-2.35,72.46,72.46,0,0,0,9.33-6.4,1.61,1.61,0,0,1,2.32.32,1.81,1.81,0,0,1-.31,2.44,75.5,75.5,0,0,1-9.75,6.68A1.52,1.52,0,0,1,115.85,43.11Z"/><path class="cls-17" d="M54.32,130.73l-.19-.12a2.49,2.49,0,0,1-1-1.72c0-.21,0-.42,0-.63a2.37,2.37,0,0,0,0-.42c-.05-.14-.35-.33-.44-.4a10.57,10.57,0,0,0-5.1-1.67l-.74,0,0-.81a7.63,7.63,0,0,0-.21-1.51.4.4,0,0,1-.15-.1,1,1,0,0,1-.25-1,1.14,1.14,0,0,1,1-.75.92.92,0,0,1,.92.67,9.14,9.14,0,0,1,.38,1.74,12.21,12.21,0,0,1,5.15,1.86,2.51,2.51,0,0,1,1.11,1.27,3.22,3.22,0,0,1,.14,1.1,2.17,2.17,0,0,0,0,.36.68.68,0,0,0,.3.47.64.64,0,0,0,.52.11,2.45,2.45,0,0,0,.46-.23,3.53,3.53,0,0,1,1.11-.44,2.88,2.88,0,0,1,2.47,1.23c.4.41.78.8,1.12.81a.86.86,0,0,1,.81,1,1,1,0,0,1-1,.94,3.3,3.3,0,0,1-2.22-1.29c-.47-.48-.81-.8-1.1-.76a1.92,1.92,0,0,0-.52.24,4.14,4.14,0,0,1-.82.37A2.16,2.16,0,0,1,54.32,130.73Z"/></g></g></g></svg>