<svg xmlns="http://www.w3.org/2000/svg" viewBox="0 0 100 100"><defs><style>.cls-1{fill:none;stroke:#000;stroke-miterlimit:10;stroke-width:5px;}.cls-2{fill:lime;}</style></defs><g id="Seetings"><path class="cls-1" d="M9.08,81.46c26-4,52.47.24,78.64,2.87a3.67,3.67,0,0,0,2.83-.5,2.93,2.93,0,0,0,.68-2.19q.92-32.25-.54-64.53c0-1.11-72.27-3.12-78.12,1.76S9.38,34.94,9.34,41.6Q9.21,61.54,9.08,81.46Z"/><path class="cls-2" d="M43.72,97.83H43c-6.39-.32-10.82-4.51-14.66-9C21.6,80.91,13.75,71.49,6.87,61.6c-.48-.69-.94-1.31-1.36-1.89C2.8,56,.66,53.11,4.26,47.41,5.09,46.1,13,40,16.29,40A2.87,2.87,0,0,1,19,41.6,111.72,111.72,0,0,0,39.67,72.55c7-21.12,14.56-42.38,22.45-63.25.67-1.78,2.23-5.92,6.56-6.92a8.25,8.25,0,0,1,1.87-.21,15.19,15.19,0,0,1,5.88,1.49l20,8.33a2.25,2.25,0,0,1,1.3,1.4,2,2,0,0,1-.34,1.81,250.15,250.15,0,0,0-36,66l-.18.51c-1.24,3.46-2.52,7-5.15,10.18a16.41,16.41,0,0,1-12.33,6Z"/><path d="M70.55,4.33a13.26,13.26,0,0,1,4.91,1.3l20,8.34a252.58,252.58,0,0,0-36.3,66.52c-1.25,3.48-2.46,7.05-5,10a14.11,14.11,0,0,1-10.46,5.14l-.57,0c-5.62-.27-9.68-4.37-12.92-8.16-7.51-8.77-14.9-17.74-21.38-27.06C5.4,55.46,3,53.77,6.3,48.49c.55-.86,7.87-6.33,10-6.33a.51.51,0,0,1,.52.26A115.36,115.36,0,0,0,40.7,76.88Q51.79,43.28,64.34,10c.86-2.28,2.12-4.89,4.91-5.53a5.76,5.76,0,0,1,1.3-.15m0-4.33h0A11,11,0,0,0,68.1.27c-5.56,1.29-7.48,6.39-8.21,8.32C52.48,28.23,45.36,48.21,38.7,68.08a108.15,108.15,0,0,1-17.53-27.3,5.24,5.24,0,0,0-4.88-3c-4.58,0-13.08,6.93-14.06,8.5C-2.12,53.2.76,57.12,3.55,60.92c.42.56.87,1.17,1.33,1.85,6.94,10,14.83,19.44,21.64,27.4,2.61,3,8.05,9.4,16.38,9.81l.82,0a18.84,18.84,0,0,0,14.19-6.82c2.88-3.43,4.28-7.35,5.53-10.82l.18-.51A247.69,247.69,0,0,1,99.31,16.44a4.09,4.09,0,0,0,.67-3.63A4.45,4.45,0,0,0,97.38,10l-20-8.33A17.67,17.67,0,0,0,70.55,0Z"/></g></svg>