<svg xmlns="http://www.w3.org/2000/svg" xmlns:xlink="http://www.w3.org/1999/xlink" viewBox="0 0 200 200"><defs><style>.cls-1{filter:url(#AI_GaussianBlur_7);}.cls-2{fill:#fff;}.cls-3{fill:#b3b3b3;}.cls-4{fill:#e6e6e6;}</style><filter id="AI_GaussianBlur_7" name="AI_GaussianBlur_7"><feGaussianBlur stdDeviation="7"/></filter></defs><g id="Layer_38" data-name="Layer 38"><g class="cls-1"><polygon class="cls-2" points="65.02 49.55 65.02 11.5 130.57 11.5 130.57 49.55 183.82 49.55 183.82 101.11 131.93 101.11 133.3 189.5 65.02 189.5 65.02 101.11 14.5 101.11 14.5 50.78 65.02 49.55"/></g><polygon class="cls-3" points="172.18 58.33 121.11 58.7 120.77 20.82 85.02 21.08 85.36 58.96 34.29 59.33 34.58 91.46 85.65 91.09 86.45 181.76 122.2 181.51 121.39 90.84 172.46 90.47 172.18 58.33"/><polygon class="cls-4" points="163.24 58.4 112.17 58.76 111.83 20.89 76.09 21.15 76.42 59.02 25.36 59.39 25.64 91.53 76.71 91.16 77.52 181.83 113.27 181.57 112.46 90.9 163.53 90.53 163.24 58.4"/></g></svg>