<svg xmlns="http://www.w3.org/2000/svg" xmlns:xlink="http://www.w3.org/1999/xlink" viewBox="0 0 236.75 236.75"><defs><style>.cls-1{fill:none;}.cls-2{filter:url(#AI_GaussianBlur_7);}.cls-3{fill:#fff;}.cls-4{clip-path:url(#clip-path);}.cls-5{fill:#feffff;}.cls-6{fill:#fdffff;}.cls-7{fill:#fcffff;}.cls-8{fill:#fbffff;}.cls-9{fill:#faffff;}.cls-10{fill:#f9ffff;}.cls-11{fill:#f8ffff;}.cls-12{fill:#f7ffff;}.cls-13{fill:#f6ffff;}.cls-14{fill:#f5ffff;}.cls-15{fill:#f4ffff;}.cls-16{fill:#f3ffff;}.cls-17{fill:#f2ffff;}.cls-18{fill:#f1ffff;}.cls-19{fill:azure;}.cls-20{fill:#efffff;}.cls-21{fill:#eff;}.cls-22{fill:#edffff;}.cls-23{fill:#ecffff;}.cls-24{fill:#ebffff;}.cls-25{fill:#eaffff;}.cls-26{fill:#e9ffff;}.cls-27{fill:#e8ffff;}.cls-28{fill:#e7ffff;}.cls-29{fill:#e6ffff;}.cls-30{fill:#e5ffff;}.cls-31{fill:#e4ffff;}.cls-32{fill:#e3ffff;}.cls-33{fill:#e2ffff;}.cls-34{fill:#e1ffff;}.cls-35{fill:#e0ffff;}.cls-36{fill:#dfffff;}.cls-37{fill:#deffff;}.cls-38{fill:#dff;}.cls-39{fill:#dcffff;}.cls-40{fill:#dbffff;}.cls-41{fill:#daffff;}.cls-42{fill:#d9ffff;}.cls-43{fill:#d8ffff;}.cls-44{fill:#d7ffff;}.cls-45{fill:#d6ffff;}.cls-46{fill:#d5ffff;}.cls-47{fill:#d4ffff;}.cls-48{fill:#d2ffff;}.cls-49{fill:#d1ffff;}.cls-50{fill:#d0ffff;}.cls-51{fill:#cfffff;}.cls-52{fill:#ceffff;}.cls-53{fill:#cdffff;}.cls-54{fill:#cbffff;}.cls-55{fill:#caffff;}.cls-56{fill:#c9ffff;}.cls-57{fill:#c8ffff;}.cls-58{fill:#c6ffff;}.cls-59{fill:#c5ffff;}.cls-60{fill:#c4ffff;}.cls-61{fill:#c2ffff;}.cls-62{fill:#c1ffff;}.cls-63{fill:#c0ffff;}.cls-64{fill:#beffff;}.cls-65{fill:#bdffff;}.cls-66{fill:#bff;}.cls-67{fill:#baffff;}.cls-68{fill:#b8ffff;}.cls-69{fill:#b7ffff;}.cls-70{fill:#b5ffff;}.cls-71{fill:#b4ffff;}.cls-72{fill:#b2ffff;}.cls-73{fill:#b1ffff;}.cls-74{fill:#afffff;}.cls-75{fill:#aeffff;}.cls-76{fill:#acffff;}.cls-77{fill:#aff;}.cls-78{fill:#a9ffff;}.cls-79{fill:#a7ffff;}.cls-80{fill:#a5ffff;}.cls-81{fill:#a3ffff;}.cls-82{fill:#a2ffff;}.cls-83{fill:#a0ffff;}.cls-84{fill:#9effff;}.cls-85{fill:#9cffff;}.cls-86{fill:#9affff;}.cls-87{fill:#98ffff;}.cls-88{fill:#96ffff;}.cls-89{fill:#95ffff;}.cls-90{fill:#93ffff;}.cls-91{fill:#91ffff;}.cls-92{fill:#8fffff;}.cls-93{fill:#8dffff;}.cls-94{fill:#8bffff;}.cls-95{fill:#89ffff;}.cls-96{fill:#86ffff;}.cls-97{fill:#84ffff;}.cls-98{fill:#82ffff;}.cls-99{fill:#80ffff;}.cls-100{fill:#7effff;}.cls-101{fill:#7cffff;}.cls-102{fill:#79ffff;}.cls-103{fill:#7ff;}.cls-104{fill:#75ffff;}.cls-105{fill:#73ffff;}.cls-106{fill:#70ffff;}.cls-107{fill:#6effff;}.cls-108{fill:#6cffff;}.cls-109{fill:#69ffff;}.cls-110{fill:#67ffff;}.cls-111{fill:#64ffff;}.cls-112{fill:#62ffff;}.cls-113{fill:#5fffff;}.cls-114{fill:#5dffff;}.cls-115{fill:#5affff;}.cls-116{fill:#58ffff;}.cls-117{fill:#5ff;}.cls-118{fill:#53ffff;}.cls-119{fill:#50ffff;}.cls-120{fill:#4dffff;}.cls-121{fill:#4bffff;}.cls-122{fill:#48ffff;}.cls-123{fill:#a1ffff;}.cls-124{fill:#1a1a1a;}.cls-125{fill:#d9e021;}.cls-126{fill:#ed1c24;}</style><filter id="AI_GaussianBlur_7" name="AI_GaussianBlur_7"><feGaussianBlur stdDeviation="7"/></filter><clipPath id="clip-path"><path class="cls-1" d="M206.26,98.17c-7.41-2.64-14.84,1.31-19.92,5.93-1.22-4-8.33-11.16-12.8-7.46-4.63,3.84,1.61,11.49,5.49,13.39-3.37,4.46-17.95,9-27,7.89,8.62-4.07,13.64-12.8,16.67-23.14,6.89-23.47-8.41-44.8-27.75-53.8l-.58-.26c-1.26-1.5-2.46-2.92-2-4.45s2.35-1.29,3.17-2.17c1.34-1.46.68-1.32,1-3,1-5.37,6.94-8.84,12-5.95-4.28-2.83-6.7-6-12.42-3.59-4.41,1.9-6.58,7.29-11.71,7.49-3.06.13-5.89-2.5-8.87-1.66-3.77,1.06-5.93,4.73-8.5,7.78A57.24,57.24,0,0,0,77.51,48.47c-10.8,9.09-16,22.21-12.93,36.35,1.94,9,4.83,18,12,24,1,.85,2.32,2,3.74,3-8.24-1.68-15.77-5.74-22.92-10.62s-2.28-3.84-3.27-10.77c-1.27-8.85-6.71-2.93-10.53-.7-4.57,2.67-9.75.62-15.45,3.42s-9.93,8.52-8,15.68c3,11.29,26.81,20.17,36.46,23.44a128.46,128.46,0,0,0,13.3,3.91,35.64,35.64,0,0,0-1.41,5.09c-1.64,8.18-1.15,14.47,1.5,19.9.8,12.74,6.16,24.52,11.72,36,2.33,4.8,4.4,10.62,10.16,11.6,6.05,1,9.18-4,10-8.26,1.12,5.42,5.36,11.34,10.16,13.81,7.93,4.08,11.13-1.64,14-8.81,7.16,13.11,25.92,15.1,23.81-5,2.13,5,10.31,11.15,14,2.91,4.08-9.22.21-27.35-1.32-36.65-.87-5.35-1.79-11.25-3-17a36.8,36.8,0,0,0,0-5.14,224.79,224.79,0,0,0,24.15-8c10.44-4,23.91-10.18,29.55-20.87A12.4,12.4,0,0,0,206.26,98.17Z"/></clipPath></defs><g id="friendly_ghost" data-name="friendly ghost"><g class="cls-2"><path class="cls-3" d="M56.77,81.51c.59-6.28-2.84-12.9-1.41-19.33,1-4.33,4.38-9.32,7.27-12.67C67.31,44.05,76.26,38.37,83,36c5.37-1.89,10.82-2.16,15.75-3.24,3.83-.83,10.24-4,13.82-6.19,3.75-2.25,5.31-5.25,10.12-5.88,1.91-.25,4.39.61,6.19-.05,3.65-1.33,6.34-4.94,10.47-6.1,7.08-2,26.83.22,24.16,11.6-1.08,4.65-8,4.81-7.24,10.27.94,6.5,9.34,12.64,12.88,18.11,4,6.19,8.88,14.24,9.67,21.6.64,6.07.07,12.26,7.69,14.18,7.15,1.8,14.64-1.39,21.74.92,6.94,2.25,10.8,5.92,13.26,12.92,6.49,18.44-18,33.65-31.25,40.8a45.31,45.31,0,0,1-12.28,4.25c-2.22.51-5.7,1-7.13,2.87-4.48,6-2.3,24.27-.08,30.82,3,8.76,5.23,20-.41,28.35-5,7.47-14.5,10.75-23,11.91a118.57,118.57,0,0,1-15.68,1.3h2.93c-11.38.31-23.64.26-34.75-2.4-9-2.15-14-5.38-19.6-12.84-2.82-3.76-4.71-7.9-7.19-12-2.76-4.55-6.88-8.51-9.33-13.21-4.47-8.55-6.56-19.79-7.12-29.38-.18-3.14.38-6.73-.19-9.81-.76-4-2.79-4.72-6.87-7.66-5.92-4.26-13.81-4.26-20.18-7.82-8-4.48-15.85-11-17.73-20.6-2.43-12.41,2.11-21,13.69-25.4,6.42-2.46,12.89-4,19.77-3.84C49.11,79.62,51.78,81.13,56.77,81.51Z"/></g><g class="cls-4"><polygon class="cls-3" points="64.17 19.1 18.24 101.5 18.24 19.1 64.17 19.1"/><polygon class="cls-3" points="65.5 19.1 18.24 103.89 18.24 101.5 64.17 19.1 65.5 19.1"/><polygon class="cls-3" points="66.83 19.1 18.24 106.28 18.24 103.89 65.5 19.1 66.83 19.1"/><polygon class="cls-3" points="68.17 19.1 18.24 108.68 18.24 106.28 66.83 19.1 68.17 19.1"/><polygon class="cls-3" points="69.5 19.1 18.24 111.07 18.24 108.68 68.17 19.1 69.5 19.1"/><polygon class="cls-3" points="70.83 19.1 18.24 113.46 18.24 111.07 69.5 19.1 70.83 19.1"/><polygon class="cls-3" points="72.17 19.1 18.24 115.85 18.24 113.46 70.83 19.1 72.17 19.1"/><polygon class="cls-3" points="73.5 19.1 18.24 118.25 18.24 115.85 72.17 19.1 73.5 19.1"/><polygon class="cls-3" points="74.83 19.1 18.24 120.64 18.24 118.25 73.5 19.1 74.83 19.1"/><polygon class="cls-3" points="76.17 19.1 18.24 123.03 18.24 120.64 74.83 19.1 76.17 19.1"/><polygon class="cls-3" points="77.5 19.1 18.24 125.42 18.24 123.03 76.17 19.1 77.5 19.1"/><polygon class="cls-3" points="78.83 19.1 18.24 127.81 18.24 125.42 77.5 19.1 78.83 19.1"/><polygon class="cls-3" points="80.17 19.1 18.24 130.21 18.24 127.81 78.83 19.1 80.17 19.1"/><polygon class="cls-3" points="81.5 19.1 18.24 132.6 18.24 130.21 80.17 19.1 81.5 19.1"/><polygon class="cls-3" points="82.83 19.1 18.24 134.99 18.24 132.6 81.5 19.1 82.83 19.1"/><polygon class="cls-3" points="84.17 19.1 18.24 137.38 18.24 134.99 82.83 19.1 84.17 19.1"/><polygon class="cls-3" points="85.5 19.1 18.24 139.78 18.24 137.38 84.17 19.1 85.5 19.1"/><polygon class="cls-3" points="86.83 19.1 18.24 142.17 18.24 139.78 85.5 19.1 86.83 19.1"/><polygon class="cls-3" points="88.17 19.1 18.24 144.56 18.24 142.17 86.83 19.1 88.17 19.1"/><polygon class="cls-3" points="89.5 19.1 18.24 146.96 18.24 144.56 88.17 19.1 89.5 19.1"/><polygon class="cls-3" points="90.83 19.1 18.24 149.35 18.24 146.96 89.5 19.1 90.83 19.1"/><polygon class="cls-3" points="92.17 19.1 18.24 151.74 18.24 149.35 90.83 19.1 92.17 19.1"/><polygon class="cls-5" points="93.5 19.1 18.24 154.13 18.24 151.74 92.17 19.1 93.5 19.1"/><polygon class="cls-5" points="94.83 19.1 18.24 156.53 18.24 154.13 93.5 19.1 94.83 19.1"/><polygon class="cls-5" points="96.17 19.1 18.24 158.92 18.24 156.53 94.83 19.1 96.17 19.1"/><polygon class="cls-5" points="97.5 19.1 18.24 161.31 18.24 158.92 96.17 19.1 97.5 19.1"/><polygon class="cls-5" points="98.83 19.1 18.24 163.7 18.24 161.31 97.5 19.1 98.83 19.1"/><polygon class="cls-5" points="100.17 19.1 18.24 166.09 18.24 163.7 98.83 19.1 100.17 19.1"/><polygon class="cls-5" points="101.5 19.1 18.24 168.49 18.24 166.09 100.17 19.1 101.5 19.1"/><polygon class="cls-5" points="102.83 19.1 18.98 169.55 18.24 169.1 18.24 168.49 101.5 19.1 102.83 19.1"/><polygon class="cls-5" points="104.17 19.1 19.98 170.15 18.98 169.55 102.83 19.1 104.17 19.1"/><polygon class="cls-5" points="105.5 19.1 20.98 170.75 19.98 170.15 104.17 19.1 105.5 19.1"/><polygon class="cls-6" points="106.83 19.1 21.98 171.35 20.98 170.75 105.5 19.1 106.83 19.1"/><polygon class="cls-6" points="108.17 19.1 22.98 171.96 21.98 171.35 106.83 19.1 108.17 19.1"/><polygon class="cls-6" points="109.5 19.1 23.97 172.56 22.98 171.96 108.17 19.1 109.5 19.1"/><polygon class="cls-6" points="110.83 19.1 24.97 173.16 23.97 172.56 109.5 19.1 110.83 19.1"/><polygon class="cls-6" points="112.17 19.1 25.97 173.77 24.97 173.16 110.83 19.1 112.17 19.1"/><polygon class="cls-6" points="113.5 19.1 26.96 174.37 25.97 173.77 112.17 19.1 113.5 19.1"/><polygon class="cls-6" points="114.84 19.1 27.96 174.97 26.96 174.37 113.5 19.1 114.84 19.1"/><polygon class="cls-7" points="116.17 19.1 28.96 175.57 27.96 174.97 114.84 19.1 116.17 19.1"/><polygon class="cls-7" points="117.5 19.1 29.96 176.18 28.96 175.57 116.17 19.1 117.5 19.1"/><polygon class="cls-7" points="118.84 19.1 30.95 176.78 29.96 176.18 117.5 19.1 118.84 19.1"/><polygon class="cls-7" points="120.17 19.1 31.95 177.38 30.95 176.78 118.84 19.1 120.17 19.1"/><polygon class="cls-7" points="121.5 19.1 32.95 177.99 31.95 177.38 120.17 19.1 121.5 19.1"/><polygon class="cls-8" points="122.84 19.1 33.95 178.59 32.95 177.99 121.5 19.1 122.84 19.1"/><polygon class="cls-8" points="124.17 19.1 34.95 179.19 33.95 178.59 122.84 19.1 124.17 19.1"/><polygon class="cls-8" points="125.5 19.1 35.94 179.79 34.95 179.19 124.17 19.1 125.5 19.1"/><polygon class="cls-8" points="126.84 19.1 36.94 180.4 35.94 179.79 125.5 19.1 126.84 19.1"/><polygon class="cls-9" points="128.17 19.1 37.94 181 36.94 180.4 126.84 19.1 128.17 19.1"/><polygon class="cls-9" points="129.5 19.1 38.94 181.6 37.94 181 128.17 19.1 129.5 19.1"/><polygon class="cls-9" points="130.84 19.1 39.93 182.2 38.94 181.6 129.5 19.1 130.84 19.1"/><polygon class="cls-10" points="132.17 19.1 40.93 182.81 39.93 182.2 130.84 19.1 132.17 19.1"/><polygon class="cls-10" points="133.5 19.1 41.93 183.41 40.93 182.81 132.17 19.1 133.5 19.1"/><polygon class="cls-10" points="134.84 19.1 42.92 184.01 41.93 183.41 133.5 19.1 134.84 19.1"/><polygon class="cls-10" points="136.17 19.1 43.92 184.61 42.92 184.01 134.84 19.1 136.17 19.1"/><polygon class="cls-11" points="137.5 19.1 44.92 185.22 43.92 184.61 136.17 19.1 137.5 19.1"/><polygon class="cls-11" points="138.84 19.1 45.92 185.82 44.92 185.22 137.5 19.1 138.84 19.1"/><polygon class="cls-12" points="140.17 19.1 46.91 186.42 45.92 185.82 138.84 19.1 140.17 19.1"/><polygon class="cls-12" points="141.5 19.1 47.91 187.03 46.91 186.42 140.17 19.1 141.5 19.1"/><polygon class="cls-12" points="142.84 19.1 48.91 187.63 47.91 187.03 141.5 19.1 142.84 19.1"/><polygon class="cls-13" points="144.17 19.1 49.91 188.23 48.91 187.63 142.84 19.1 144.17 19.1"/><polygon class="cls-13" points="145.5 19.1 50.91 188.83 49.91 188.23 144.17 19.1 145.5 19.1"/><polygon class="cls-13" points="146.84 19.1 51.9 189.44 50.91 188.83 145.5 19.1 146.84 19.1"/><polygon class="cls-14" points="148.17 19.1 52.9 190.04 51.9 189.44 146.84 19.1 148.17 19.1"/><polygon class="cls-14" points="149.5 19.1 53.9 190.64 52.9 190.04 148.17 19.1 149.5 19.1"/><polygon class="cls-15" points="150.84 19.1 54.9 191.24 53.9 190.64 149.5 19.1 150.84 19.1"/><polygon class="cls-15" points="151.63 19.1 152.04 19.34 55.89 191.85 54.9 191.24 150.84 19.1 151.63 19.1"/><polygon class="cls-16" points="152.04 19.34 153.03 19.95 56.89 192.45 55.89 191.85 152.04 19.34"/><polygon class="cls-16" points="153.03 19.95 154.03 20.55 57.89 193.05 56.89 192.45 153.03 19.95"/><polygon class="cls-17" points="154.03 20.55 155.03 21.15 58.88 193.66 57.89 193.05 154.03 20.55"/><polygon class="cls-17" points="155.03 21.15 156.03 21.75 59.88 194.26 58.88 193.66 155.03 21.15"/><polygon class="cls-18" points="156.03 21.75 157.02 22.36 60.88 194.86 59.88 194.26 156.03 21.75"/><polygon class="cls-18" points="157.02 22.36 158.02 22.96 61.88 195.46 60.88 194.86 157.02 22.36"/><polygon class="cls-19" points="158.02 22.96 159.02 23.56 62.88 196.06 61.88 195.46 158.02 22.96"/><polygon class="cls-19" points="159.02 23.56 160.02 24.16 63.87 196.67 62.88 196.06 159.02 23.56"/><polygon class="cls-20" points="160.02 24.16 161.01 24.77 64.87 197.27 63.87 196.67 160.02 24.16"/><polygon class="cls-21" points="161.01 24.77 162.01 25.37 65.87 197.87 64.87 197.27 161.01 24.77"/><polygon class="cls-21" points="162.01 25.37 163.01 25.97 66.87 198.48 65.87 197.87 162.01 25.37"/><polygon class="cls-22" points="163.01 25.97 164.01 26.58 67.86 199.08 66.87 198.48 163.01 25.97"/><polygon class="cls-22" points="164.01 26.58 165 27.18 68.86 199.68 67.86 199.08 164.01 26.58"/><polygon class="cls-23" points="165 27.18 166 27.78 69.86 200.28 68.86 199.68 165 27.18"/><polygon class="cls-24" points="166 27.78 167 28.38 70.86 200.89 69.86 200.28 166 27.78"/><polygon class="cls-24" points="167 28.38 168 28.99 71.85 201.49 70.86 200.89 167 28.38"/><polygon class="cls-25" points="168 28.99 168.99 29.59 72.85 202.09 71.85 201.49 168 28.99"/><polygon class="cls-26" points="168.99 29.59 169.99 30.19 73.85 202.69 72.85 202.09 168.99 29.59"/><polygon class="cls-27" points="169.99 30.19 170.99 30.79 74.85 203.3 73.85 202.69 169.99 30.19"/><polygon class="cls-27" points="170.99 30.79 171.99 31.4 75.84 203.9 74.85 203.3 170.99 30.79"/><polygon class="cls-28" points="171.99 31.4 172.98 32 76.84 204.5 75.84 203.9 171.99 31.4"/><polygon class="cls-29" points="172.98 32 173.98 32.6 77.84 205.11 76.84 204.5 172.98 32"/><polygon class="cls-30" points="173.98 32.6 174.98 33.2 78.84 205.71 77.84 205.11 173.98 32.6"/><polygon class="cls-30" points="174.98 33.2 175.98 33.81 79.83 206.31 78.84 205.71 174.98 33.2"/><polygon class="cls-31" points="175.98 33.81 176.97 34.41 80.83 206.91 79.83 206.31 175.98 33.81"/><polygon class="cls-32" points="176.97 34.41 177.97 35.01 81.83 207.52 80.83 206.91 176.97 34.41"/><polygon class="cls-33" points="177.97 35.01 178.97 35.62 82.83 208.12 81.83 207.52 177.97 35.01"/><polygon class="cls-34" points="178.97 35.62 179.97 36.22 83.82 208.72 82.83 208.12 178.97 35.62"/><polygon class="cls-35" points="179.97 36.22 180.96 36.82 84.82 209.32 83.82 208.72 179.97 36.22"/><polygon class="cls-35" points="180.96 36.82 181.96 37.42 85.82 209.93 84.82 209.32 180.96 36.82"/><polygon class="cls-36" points="181.96 37.42 182.96 38.03 86.82 210.53 85.82 209.93 181.96 37.42"/><polygon class="cls-37" points="182.96 38.03 183.96 38.63 87.81 211.13 86.82 210.53 182.96 38.03"/><polygon class="cls-38" points="183.96 38.63 184.95 39.23 88.81 211.74 87.81 211.13 183.96 38.63"/><polygon class="cls-39" points="184.95 39.23 185.95 39.84 89.81 212.34 88.81 211.74 184.95 39.23"/><polygon class="cls-40" points="185.95 39.84 186.95 40.44 90.81 212.94 89.81 212.34 185.95 39.84"/><polygon class="cls-41" points="186.95 40.44 187.95 41.04 91.8 213.54 90.81 212.94 186.95 40.44"/><polygon class="cls-42" points="187.95 41.04 188.94 41.64 92.8 214.15 91.8 213.54 187.95 41.04"/><polygon class="cls-43" points="188.94 41.64 189.94 42.24 93.8 214.75 92.8 214.15 188.94 41.64"/><polygon class="cls-44" points="189.94 42.24 190.94 42.85 94.8 215.35 93.8 214.75 189.94 42.24"/><polygon class="cls-45" points="190.94 42.85 191.94 43.45 95.79 215.95 94.8 215.35 190.94 42.85"/><polygon class="cls-46" points="191.94 43.45 192.94 44.05 96.79 216.56 95.79 215.95 191.94 43.45"/><polygon class="cls-47" points="192.94 44.05 193.93 44.66 97.79 217.16 96.79 216.56 192.94 44.05"/><polygon class="cls-48" points="193.93 44.66 194.93 45.26 98.79 217.76 97.79 217.16 193.93 44.66"/><polygon class="cls-49" points="194.93 45.26 195.93 45.86 99.78 218.37 98.79 217.76 194.93 45.26"/><polygon class="cls-50" points="195.93 45.86 196.93 46.46 100.78 218.97 99.78 218.37 195.93 45.86"/><polygon class="cls-51" points="196.93 46.46 197.92 47.07 101.78 219.57 100.78 218.97 196.93 46.46"/><polygon class="cls-52" points="197.92 47.07 198.92 47.67 102.78 220.17 101.78 219.57 197.92 47.07"/><polygon class="cls-53" points="198.92 47.67 199.92 48.27 103.86 220.61 103.5 220.61 102.78 220.17 198.92 47.67"/><polygon class="cls-54" points="199.92 48.27 200.91 48.88 105.2 220.61 103.86 220.61 199.92 48.27"/><polygon class="cls-55" points="200.91 48.88 201.91 49.48 106.53 220.61 105.2 220.61 200.91 48.88"/><polygon class="cls-56" points="201.91 49.48 202.91 50.08 107.87 220.61 106.53 220.61 201.91 49.48"/><polygon class="cls-57" points="202.91 50.08 203.91 50.68 109.2 220.61 107.87 220.61 202.91 50.08"/><polygon class="cls-58" points="203.91 50.68 204.91 51.29 110.53 220.61 109.2 220.61 203.91 50.68"/><polygon class="cls-59" points="204.91 51.29 205.9 51.89 111.87 220.61 110.53 220.61 204.91 51.29"/><polygon class="cls-60" points="205.9 51.89 206.9 52.49 113.2 220.61 111.87 220.61 205.9 51.89"/><polygon class="cls-61" points="206.9 52.49 207.9 53.09 114.53 220.61 113.2 220.61 206.9 52.49"/><polygon class="cls-62" points="207.9 53.09 208.9 53.7 115.87 220.61 114.53 220.61 207.9 53.09"/><polygon class="cls-63" points="208.9 53.7 209.89 54.3 117.2 220.61 115.87 220.61 208.9 53.7"/><polygon class="cls-64" points="209.89 54.3 210.89 54.9 118.53 220.61 117.2 220.61 209.89 54.3"/><polygon class="cls-65" points="210.89 54.9 211.89 55.51 119.87 220.61 118.53 220.61 210.89 54.9"/><polygon class="cls-66" points="211.89 55.51 212.88 56.11 121.2 220.61 119.87 220.61 211.89 55.51"/><polygon class="cls-67" points="212.88 56.11 213.88 56.71 122.53 220.61 121.2 220.61 212.88 56.11"/><polygon class="cls-68" points="213.88 56.71 214.88 57.31 123.87 220.61 122.53 220.61 213.88 56.71"/><polygon class="cls-69" points="214.88 57.31 215.88 57.91 125.2 220.61 123.87 220.61 214.88 57.31"/><polygon class="cls-70" points="215.88 57.91 216.72 58.43 216.72 58.79 126.53 220.61 125.2 220.61 215.88 57.91"/><polygon class="cls-71" points="216.72 61.18 127.87 220.61 126.53 220.61 216.72 58.79 216.72 61.18"/><polygon class="cls-72" points="216.72 63.57 129.2 220.61 127.87 220.61 216.72 61.18 216.72 63.57"/><polygon class="cls-73" points="216.72 65.97 130.53 220.61 129.2 220.61 216.72 63.57 216.72 65.97"/><polygon class="cls-74" points="216.72 68.36 131.87 220.61 130.53 220.61 216.72 65.97 216.72 68.36"/><polygon class="cls-75" points="216.72 70.75 133.2 220.61 131.87 220.61 216.72 68.36 216.72 70.75"/><polygon class="cls-76" points="216.72 73.14 134.53 220.61 133.2 220.61 216.72 70.75 216.72 73.14"/><polygon class="cls-77" points="216.72 75.53 135.87 220.61 134.53 220.61 216.72 73.14 216.72 75.53"/><polygon class="cls-78" points="216.72 77.93 137.2 220.61 135.87 220.61 216.72 75.53 216.72 77.93"/><polygon class="cls-79" points="216.72 80.32 138.53 220.61 137.2 220.61 216.72 77.93 216.72 80.32"/><polygon class="cls-80" points="216.72 82.71 139.87 220.61 138.53 220.61 216.72 80.32 216.72 82.71"/><polygon class="cls-81" points="216.72 85.11 141.2 220.61 139.87 220.61 216.72 82.71 216.72 85.11"/><polygon class="cls-82" points="216.72 87.5 142.53 220.61 141.2 220.61 216.72 85.11 216.72 87.5"/><polygon class="cls-83" points="216.72 89.89 143.87 220.61 142.53 220.61 216.72 87.5 216.72 89.89"/><polygon class="cls-84" points="216.72 92.28 145.2 220.61 143.87 220.61 216.72 89.89 216.72 92.28"/><polygon class="cls-85" points="216.72 94.67 146.53 220.61 145.2 220.61 216.72 92.28 216.72 94.67"/><polygon class="cls-86" points="216.72 97.07 147.87 220.61 146.53 220.61 216.72 94.67 216.72 97.07"/><polygon class="cls-87" points="216.72 99.46 149.2 220.61 147.87 220.61 216.72 97.07 216.72 99.46"/><polygon class="cls-88" points="216.72 101.85 150.53 220.61 149.2 220.61 216.72 99.46 216.72 101.85"/><polygon class="cls-89" points="216.72 104.25 151.87 220.61 150.53 220.61 216.72 101.85 216.72 104.25"/><polygon class="cls-90" points="216.72 106.64 153.2 220.61 151.87 220.61 216.72 104.25 216.72 106.64"/><polygon class="cls-91" points="216.72 109.03 154.54 220.61 153.2 220.61 216.72 106.64 216.72 109.03"/><polygon class="cls-92" points="216.72 111.42 155.87 220.61 154.54 220.61 216.72 109.03 216.72 111.42"/><polygon class="cls-93" points="216.72 113.81 157.2 220.61 155.87 220.61 216.72 111.42 216.72 113.81"/><polygon class="cls-94" points="216.72 116.21 158.54 220.61 157.2 220.61 216.72 113.81 216.72 116.21"/><polygon class="cls-95" points="216.72 118.6 159.87 220.61 158.54 220.61 216.72 116.21 216.72 118.6"/><polygon class="cls-96" points="216.72 120.99 161.2 220.61 159.87 220.61 216.72 118.6 216.72 120.99"/><polygon class="cls-97" points="216.72 123.39 162.54 220.61 161.2 220.61 216.72 120.99 216.72 123.39"/><polygon class="cls-98" points="216.72 125.78 163.87 220.61 162.54 220.61 216.72 123.39 216.72 125.78"/><polygon class="cls-99" points="216.72 128.17 165.2 220.61 163.87 220.61 216.72 125.78 216.72 128.17"/><polygon class="cls-100" points="216.72 130.56 166.54 220.61 165.2 220.61 216.72 128.17 216.72 130.56"/><polygon class="cls-101" points="216.72 132.96 167.87 220.61 166.54 220.61 216.72 130.56 216.72 132.96"/><polygon class="cls-102" points="216.72 135.35 169.2 220.61 167.87 220.61 216.72 132.96 216.72 135.35"/><polygon class="cls-103" points="216.72 137.74 170.54 220.61 169.2 220.61 216.72 135.35 216.72 137.74"/><polygon class="cls-104" points="216.72 140.13 171.87 220.61 170.54 220.61 216.72 137.74 216.72 140.13"/><polygon class="cls-105" points="216.72 142.53 173.2 220.61 171.87 220.61 216.72 140.13 216.72 142.53"/><polygon class="cls-106" points="216.72 144.92 174.54 220.61 173.2 220.61 216.72 142.53 216.72 144.92"/><polygon class="cls-107" points="216.72 147.31 175.87 220.61 174.54 220.61 216.72 144.92 216.72 147.31"/><polygon class="cls-108" points="216.72 149.7 177.2 220.61 175.87 220.61 216.72 147.31 216.72 149.7"/><polygon class="cls-109" points="216.72 152.09 178.54 220.61 177.2 220.61 216.72 149.7 216.72 152.09"/><polygon class="cls-110" points="216.72 154.49 179.87 220.61 178.54 220.61 216.72 152.09 216.72 154.49"/><polygon class="cls-111" points="216.72 156.88 181.2 220.61 179.87 220.61 216.72 154.49 216.72 156.88"/><polygon class="cls-112" points="216.72 159.27 182.54 220.61 181.2 220.61 216.72 156.88 216.72 159.27"/><polygon class="cls-113" points="216.72 161.66 183.87 220.61 182.54 220.61 216.72 159.27 216.72 161.66"/><polygon class="cls-114" points="216.72 164.06 185.2 220.61 183.87 220.61 216.72 161.66 216.72 164.06"/><polygon class="cls-115" points="216.72 166.45 186.54 220.61 185.2 220.61 216.72 164.06 216.72 166.45"/><polygon class="cls-116" points="216.72 168.84 187.87 220.61 186.54 220.61 216.72 166.45 216.72 168.84"/><polygon class="cls-117" points="216.72 171.23 189.21 220.61 187.87 220.61 216.72 168.84 216.72 171.23"/><polygon class="cls-118" points="216.72 173.63 190.54 220.61 189.21 220.61 216.72 171.23 216.72 173.63"/><polygon class="cls-119" points="216.72 176.02 191.87 220.61 190.54 220.61 216.72 173.63 216.72 176.02"/><polygon class="cls-120" points="216.72 178.41 193.21 220.61 191.87 220.61 216.72 176.02 216.72 178.41"/><polygon class="cls-121" points="216.72 180.8 194.54 220.61 193.21 220.61 216.72 178.41 216.72 180.8"/><polygon class="cls-122" points="216.72 183.2 195.87 220.61 194.54 220.61 216.72 180.8 216.72 183.2"/><polygon class="cls-122" points="195.87 220.61 216.72 183.2 216.72 220.61 195.87 220.61"/></g><path class="cls-123" d="M116.77,217.69a12.47,12.47,0,0,1-5.63-1.58A23.15,23.15,0,0,1,101.76,206a9.58,9.58,0,0,1-10.22,4.7c-6.11-1-8.72-6.63-10.82-11.11-.25-.53-.5-1-.74-1.57-5.76-11.88-11-23.61-11.9-36.36-2.71-5.78-3.18-12.41-1.49-20.84.22-1.09.49-2.17.8-3.22-4.41-1.1-8.54-2.5-11.4-3.47-15.63-5.3-34.85-13.9-37.72-24.81-1.91-7.29,1.66-14.36,9.09-18a22.29,22.29,0,0,1,8.89-1.95c2.44-.16,4.54-.3,6.43-1.41.61-.35,1.3-.83,2-1.34,2.52-1.77,5.37-3.77,8-2.56,1.76.81,2.85,2.79,3.31,6a12.45,12.45,0,0,1-.5,6.07,4.62,4.62,0,0,0-.21.77c.05.08.45.72,3.14,2.55a77.82,77.82,0,0,0,13.66,7.65c-5.43-6.28-7.82-14.49-9.42-21.92-3.13-14.46,1.83-28.44,13.6-38.34a58.67,58.67,0,0,1,35.81-13.74c.3-.37.6-.76.9-1.14,2.15-2.74,4.38-5.57,8-6.6,2.23-.63,4.24.12,6,.79a8.89,8.89,0,0,0,3.28.81c2.3-.09,3.92-1.64,5.79-3.43a18,18,0,0,1,5.27-3.91c5.67-2.43,9,0,12.12,2.3.65.47,1.32,1,2.05,1.44l-2,3.44a5.91,5.91,0,0,0-5.64-.15,6.56,6.56,0,0,0-3.57,4.72,3.07,3.07,0,0,0-.06.81,4.09,4.09,0,0,1-1.43,3.22,4.76,4.76,0,0,1-2.1,1.21,5.51,5.51,0,0,0-.63.25c0,.44.72,1.37,1.35,2.12l.21.1c19.8,9.22,36.05,31.49,28.79,56.21-2.72,9.28-6.61,16.06-11.81,20.54,6.51-.71,13.67-3.12,17.18-5.61-2.65-2.16-5.46-5.76-5.86-9.33a6.52,6.52,0,0,1,8.72-7c3.27,1,6.46,4.08,8.24,7,6.57-5.18,13.72-6.9,19.89-4.7a14.42,14.42,0,0,1,7.93,20.38c-6,11.42-20.34,17.9-30.57,21.78a238.34,238.34,0,0,1-22.81,7.68c0,1.16,0,2.31,0,3.45,1,5,1.84,9.88,2.61,14.64l.36,2.21c.17,1.05.37,2.21.59,3.45,1.77,10.21,4.45,25.62.58,34.37-2,4.56-5.21,5.18-6.92,5.2a10.84,10.84,0,0,1-6.86-3.11c-.89,7.46-5.3,9.85-7.47,10.58-5.83,2-13.17-1.19-17.91-7.34-1.61,3.4-3.61,6.38-6.7,7.58A7.94,7.94,0,0,1,116.77,217.69Zm-15-27.12,2,9.52c1,4.94,5,10.29,9.14,12.44,2.24,1.16,4,1.44,5.49.88,2.37-.92,4.09-4.13,5.93-8.67l1.51-3.73,1.92,3.51c3.93,7.19,11.06,10.06,15.41,8.59,3.82-1.28,5.53-5.68,4.83-12.4l-1.35-12.86,5,11.84c1.14,2.7,4.4,5.74,7,5.76.54,0,2.13,0,3.41-2.88,3.36-7.6.71-22.87-.87-32-.22-1.26-.42-2.43-.6-3.49l-.36-2.22c-.78-4.8-1.59-9.76-2.63-14.72l-.06-.28,0-.29a35.74,35.74,0,0,0,0-4.85L157.4,143l1.58-.4a221,221,0,0,0,24-7.95c9.65-3.66,23.12-9.71,28.52-20a10.2,10.2,0,0,0,.58-8.43,10.53,10.53,0,0,0-6.39-6.24c-7.74-2.76-15.2,3-18,5.55l-2.21,2-.88-2.9c-.64-2.1-3.81-5.92-6.88-6.89a2.8,2.8,0,0,0-2.9.38,2.39,2.39,0,0,0-.89,2.31c.33,2.93,3.81,6.64,6,7.72L182,109.3l-1.5,2c-4,5.24-19.28,9.84-28.74,8.63L145,119l6.21-2.93c7.19-3.4,12.3-10.57,15.63-21.91,6.6-22.51-8.43-42.89-26.7-51.4l-1-.43-.28-.34c-1.42-1.69-3.16-3.76-2.4-6.34a4.27,4.27,0,0,1,3.06-2.78,3.43,3.43,0,0,0,.61-.25,3.64,3.64,0,0,0,.3-.36,7.62,7.62,0,0,1,.13-1.58,10.58,10.58,0,0,1,5.69-7.6c.23-.11.47-.22.7-.31a6.37,6.37,0,0,0-4.18.58,14.75,14.75,0,0,0-4.12,3.15c-2.13,2-4.53,4.34-8.24,4.49a12,12,0,0,1-4.72-1c-1.43-.54-2.66-1-3.73-.7-2.43.69-4.18,2.92-6,5.28-.5.64-1,1.28-1.52,1.89l-.56.66-.84,0A55,55,0,0,0,78.72,50C68.13,58.94,63.66,71.46,66.45,84.38c1.84,8.52,4.48,17.2,11.35,22.9l.35.29c.92.77,2.08,1.74,3.29,2.61l7.49,5.42-9-1.82c-7.4-1.51-14.9-5-23.61-10.91-4.61-3.14-5.49-4.69-4.48-7.9a8.2,8.2,0,0,0,.36-4.25c-.38-2.63-1-3-1.06-3-.73-.33-3.08,1.32-4.35,2.21-.75.53-1.54,1.08-2.28,1.51-2.65,1.55-5.41,1.73-8.07,1.91A18.68,18.68,0,0,0,29,95c-4.5,2.21-8.71,6.89-7,13.35,1.86,7.07,14.69,15.11,35.21,22.06a125.43,125.43,0,0,0,13.1,3.86l2.18.48-.78,2.17a32.64,32.64,0,0,0-1.33,4.8c-1.54,7.67-1.12,13.57,1.33,18.58l.17.37,0,.41c.76,12.15,5.88,23.6,11.52,35.23.25.53.51,1.07.76,1.61,2,4.22,3.85,8.21,8,8.92,6.18,1,7.64-5.87,7.79-6.67Z"/><path d="M95.17,67.75c-2.67-2.18-7,1-7.07,4.18,0,3.88,3.56,7.77,7.36,6.23C99.52,76.52,99.74,68.93,95.17,67.75Z"/><path class="cls-97" d="M93.74,80.5a6.63,6.63,0,0,1-3.91-1.31,9.08,9.08,0,0,1-3.64-7.28,7.3,7.3,0,0,1,4.17-6.17,5.46,5.46,0,0,1,5.65.19,6.73,6.73,0,0,1,4.44,6.33c.21,3.46-1.55,6.65-4.3,7.76A6.32,6.32,0,0,1,93.74,80.5ZM93.14,69a2.7,2.7,0,0,0-1.12.3A3.51,3.51,0,0,0,90,72a5,5,0,0,0,2,4,2.76,2.76,0,0,0,2.75.39c1.35-.54,1.95-2.32,1.86-3.79,0-.71-.31-2.41-1.91-2.82l-.4-.1L94,69.32A1.33,1.33,0,0,0,93.14,69Z"/><path d="M137.57,69.6c-4.67-.58-8.21,3.05-7.08,8.27,1.09,5,7.5,5.51,9.93,1.63C143.17,75.09,140.9,71.85,137.57,69.6Z"/><path class="cls-97" d="M135.71,84.07a7.55,7.55,0,0,1-1.41-.13,7,7,0,0,1-5.68-5.63,9.12,9.12,0,0,1,1.76-8,8.24,8.24,0,0,1,7.42-2.67l.44,0,.37.26c2.71,1.83,4.33,3.95,4.81,6.3a8.54,8.54,0,0,1-1.4,6.35A7.4,7.4,0,0,1,135.71,84.07Zm.9-12.54A4.4,4.4,0,0,0,133.22,73a5,5,0,0,0-.86,4.47A3.2,3.2,0,0,0,135,80a3.71,3.71,0,0,0,3.83-1.6,4.62,4.62,0,0,0,.86-3.35,6.24,6.24,0,0,0-2.76-3.52Z"/><path class="cls-124" d="M132.05,109.05c-1.85-8.3-8.09-18.35-15.31-20.26-7.9-2.09-15-.25-19.36,8.59a62.44,62.44,0,0,0-4.52,13.29c3.27,1.87,4.61,1,7.73-.72a19.85,19.85,0,0,1,9.09-2c4.75,0,9,1.52,13.22,3.48,2.7,1.25,7.64,2.56,9-1.61C131.55,109.66,131.2,109.64,132.05,109.05Z"/><path class="cls-125" d="M99.55,94.13c.3,2.3,4.83,1.29,5.47-.4.32-.83.5-2.85-.39-3.39-1.19-.71-2.37,1.19-3.07,1.9C101.08,92.72,99.22,94.19,99.55,94.13Z"/><path d="M101.55,96a4.12,4.12,0,0,1-.51,0,2.07,2.07,0,0,1-1.93-1.55l0-.06c-.19-.43,0-.6,1.29-1.7.35-.3.69-.58.85-.75s.28-.31.44-.49c.76-.9,1.91-2.25,3.2-1.48s.94,3.13.61,4C105,95.16,103.1,96,101.55,96Zm-1.49-1.75c.12.4.48.65,1.09.73,1.32.16,3.11-.57,3.43-1.4s.34-2.45-.19-2.77-1.25.37-2,1.27l-.49.55c-.18.17-.53.48-.91.8S100.28,94,100.06,94.22Z"/><path class="cls-125" d="M105.58,90a5.47,5.47,0,0,0,2,4.63,2.77,2.77,0,0,0,4-1,5.6,5.6,0,0,0,.26-3.92c-.45-1.2-1.6-1.15-2.84-1C108.38,88.72,105.45,89.37,105.58,90Z"/><path d="M109.16,95.54a3.17,3.17,0,0,1-1.79-.54,6,6,0,0,1-2.28-5,.76.76,0,0,1,.14-.47c.58-.85,3.71-1.33,3.74-1.34,1.08-.11,2.72-.28,3.34,1.34a6.14,6.14,0,0,1-.28,4.33,3.09,3.09,0,0,1-2,1.6A3.33,3.33,0,0,1,109.16,95.54ZM106.05,90a5.08,5.08,0,0,0,1.84,4.14,2.34,2.34,0,0,0,1.91.28,2.16,2.16,0,0,0,1.38-1.09,5.12,5.12,0,0,0,.24-3.5c-.3-.79-1-.86-2.35-.71A10.22,10.22,0,0,0,106.05,90Z"/><path class="cls-125" d="M114.09,88.75c-1.35-.31-1.66,2.13-1.8,3.1-.21,1.43.11,2.93,1.4,3.59,3.73,1.91,6-3.29,3.79-6C116.79,88.53,114.55,87.77,114.09,88.75Z"/><path d="M115.26,96.35a3.93,3.93,0,0,1-1.78-.46c-1.32-.68-2-2.22-1.66-4.12v-.11c.13-.89.38-2.56,1.26-3.18a1.27,1.27,0,0,1,.77-.25,1.33,1.33,0,0,1,.88-.42,4,4,0,0,1,3.11,1.25,5,5,0,0,1,0,5.9A3.23,3.23,0,0,1,115.26,96.35Zm-1.4-7.13a.38.38,0,0,0-.23.08c-.54.38-.76,1.88-.85,2.51l0,.11c-.1.7-.2,2.39,1.15,3.08a2.38,2.38,0,0,0,3.22-.65,3.93,3.93,0,0,0,0-4.64,3.1,3.1,0,0,0-2.25-.91c-.18,0-.3.08-.34.17l-.17.35-.37-.08Z"/><path class="cls-125" d="M121.35,91c-1.1-2-3.06,1.17-3.15,2.21A3.19,3.19,0,0,0,121,96.79C124.28,97.26,124.29,90.88,121.35,91Z"/><path d="M121.31,97.32l-.4,0a3.73,3.73,0,0,1-3.19-4.09c.08-.92,1.25-3,2.46-3.25a1.32,1.32,0,0,1,1.43.59,2.31,2.31,0,0,1,1.9,1.31,4.53,4.53,0,0,1-.14,4.32A2.39,2.39,0,0,1,121.31,97.32Zm-.82-6.41h-.1c-.73.18-1.66,1.77-1.72,2.37a2.72,2.72,0,0,0,2.37,3,1.44,1.44,0,0,0,1.53-.69,3.5,3.5,0,0,0,.1-3.27,1.33,1.33,0,0,0-1.29-.8l-.29,0-.15-.26C120.76,91,120.6,90.91,120.49,90.91Z"/><path class="cls-126" d="M111.94,108c3.65-5,12.31-6.06,17.13-2.29,2.13,1.67,3.25,5.06.36,6.54s-5.28-.89-7.84-1.41C118.76,110.31,114.93,108.35,111.94,108Z"/><path d="M127.57,113.12a9.66,9.66,0,0,1-3.66-1,12,12,0,0,0-2.39-.85,32.94,32.94,0,0,1-4.13-1.29,25.21,25.21,0,0,0-5.48-1.54l-.65-.07.4-.53c3.74-5.08,12.63-6.27,17.63-2.36a5.47,5.47,0,0,1,2.23,4.48,3.28,3.28,0,0,1-1.93,2.69A4.38,4.38,0,0,1,127.57,113.12Zm-14.94-5.36a31.46,31.46,0,0,1,5,1.49,29.87,29.87,0,0,0,4,1.26,13.84,13.84,0,0,1,2.53.89c1.72.74,3.35,1.44,5.08.56a2.55,2.55,0,0,0,1.53-2.09,4.76,4.76,0,0,0-1.94-3.82C124.32,102.5,116.36,103.41,112.63,107.76Z"/><path d="M127.76,113.66a13.35,13.35,0,0,1-5.25-1.32c-3.63-1.68-8-3.37-12.83-3.39a19,19,0,0,0-8.65,1.88l-.48.26c-2.87,1.55-4.6,2.48-8.15.46l-.64-.37.17-.74a63.78,63.78,0,0,1,4.6-13.52c4.17-8.39,11.23-11.53,20.44-9.1,7.54,2,14.06,12.25,16,21l.09.39.06,0,0,.1,0,.16-.12.08-.18.56a4.81,4.81,0,0,1-2.6,3A6,6,0,0,1,127.76,113.66Zm-18-6.71c5.18,0,9.76,1.8,13.56,3.57.93.43,4.11,1.75,6.17.82a2.69,2.69,0,0,0,1.27-1.18,1.09,1.09,0,0,1-.15-.46,1.23,1.23,0,0,1,.39-1c-1.95-7.87-7.9-17.17-14.47-18.9-8.36-2.21-14.5.51-18.27,8.07A60.74,60.74,0,0,0,94,110.14c2.18,1.07,3.17.54,5.7-.82l.49-.26a20.71,20.71,0,0,1,9.52-2.11Z"/></g></svg>