<svg xmlns="http://www.w3.org/2000/svg" viewBox="0 0 1920 1080"><defs><style>.cls-1{fill:#7c6b49;}.cls-2{fill:#887859;}.cls-3{fill:#5d5037;}.cls-30,.cls-4{fill:#443e2f;}.cls-23,.cls-4{opacity:0.49;}.cls-5{fill:#37222b;}.cls-6{fill:#666;}.cls-7{fill:gray;}.cls-8{fill:#b3b3b3;}.cls-9{opacity:0.5;}.cls-10{fill:#1a1a1a;}.cls-11{fill:#e6e6e6;}.cls-12{fill:#656a44;}.cls-13{fill:#85903f;}.cls-14{fill:#9ca758;}.cls-15{fill:#d2f78b;}.cls-16{fill:#bcd638;}.cls-17{fill:#e8f1bb;}.cls-18{opacity:0.45;}.cls-19{fill:#68624f;}.cls-20{opacity:0.63;}.cls-21{fill:#6e676b;}.cls-22{opacity:0.48;}.cls-24{fill:#65573d;}.cls-25{fill:#91fa00;}.cls-26{fill:#64a005;}.cls-27{fill:#c9d94e;}.cls-28{fill:#cff784;}.cls-29{fill:none;}.cls-31{fill:red;}</style></defs><g id="gameover"><path class="cls-1" d="M649,692.18c28.76-21.86,126.52-99.9,63.86-151.93s-98.24,6-118.71,24.41-80.05,64.84-85.08,70c-29-25.44-103-31.57-61.64,43.37,0,0-65.26,25.35-23.54,98.5,52.87,65.63,104.89,12.84,122.45,0S649,692.18,649,692.18Z"/><ellipse class="cls-2" cx="443.63" cy="739.19" rx="27.45" ry="17.24" transform="translate(-381.87 987.71) rotate(-75.78)"/><ellipse class="cls-2" cx="452.48" cy="652.47" rx="10.27" ry="17.2" transform="translate(-196.18 194.55) rotate(-20.04)"/><path class="cls-3" d="M711.21,538.92c30.09,50.81-51.91,116.2-77.85,135.92,0,0-85.1,71.55-102.66,84.38-15.94,11.65-60.3,56.23-107.91,15.19.39.72.73,1.41,1.14,2.14,52.87,65.63,104.89,12.84,122.45,0S649,692.18,649,692.18c28.76-21.86,126.52-99.9,63.86-151.93C712.33,539.78,711.78,539.38,711.21,538.92Z"/><path class="cls-4" d="M564.32,766.66a4.37,4.37,0,0,1-1.56.81,12.08,12.08,0,0,1-10.6-2,18.08,18.08,0,0,1-7-14.77,47.92,47.92,0,0,1,1.48-9.14,54.5,54.5,0,0,0,1.14-5.87A34.3,34.3,0,0,1,532,733.1l-3.92-1.67,1.8-3.71a7.16,7.16,0,0,0-2.41-8.63,3.92,3.92,0,0,1-1-5.67,4.46,4.46,0,0,1,6-.94A15.21,15.21,0,0,1,539,726.84,25.35,25.35,0,0,0,551,727l4.64-1.07.62,4.48c.62,4.53-.35,8.76-1.29,12.84a41.92,41.92,0,0,0-1.3,7.69,10.32,10.32,0,0,0,3.7,8.07,3.11,3.11,0,0,0,2.9.66,4.31,4.31,0,0,1,5.34,2.71A3.94,3.94,0,0,1,564.32,766.66Z"/><path class="cls-4" d="M563.32,671.72l-.07.06a4.46,4.46,0,0,1-6-.56l-14.28-16.53,5.38-2.09a6.63,6.63,0,0,0,3.8-4.67,6.21,6.21,0,0,0-1.17-5.77,19.09,19.09,0,0,0-4.45-3.1c-.81-.47-1.62-.93-2.39-1.42l-1.66-1c-5.92-3.7-12-7.53-13.62-15.88a4.12,4.12,0,0,1,3.48-4.73,4.26,4.26,0,0,1,5,3.27c.89,4.72,4,6.86,9.92,10.56l1.71,1.07c.67.42,1.37.83,2.07,1.23a25.94,25.94,0,0,1,6.44,4.69,14,14,0,0,1,3.05,13,15.42,15.42,0,0,1-4.28,7.38l7.69,8.9A3.92,3.92,0,0,1,563.32,671.72Z"/><path class="cls-5" d="M1261.48,341.69c85,39,220.62,140,131.52,279.06C1242.69,659.12,1006,509,995,407,993.87,227.94,1185.07,306.65,1261.48,341.69Z"/><path class="cls-5" d="M770.81,360.66C762.45,455,666.37,568.09,607,591.28,601.57,480.07,673.65,391.16,770.81,360.66Z"/><path class="cls-6" d="M651.9,413c.91.67.8,1.84,1.54,2.54s1.15.35,2,.75c.66.33,1.26,1.12,1.8,1.37,1.35.64,3.16.1,4.62.25,1.17.12,3,0,3.87.95,1.17,1.17.7,2,2.42,3.35a13.08,13.08,0,0,0,5.62,2.51,11.75,11.75,0,0,1,5.49,2.74c4,3.11,8.81,5,12.55,8.49,2.22,2.09,2.83,2,2.68,5.31-.2,4.34-.93,8.49-.91,12.84,0,6.42-.65,13.21.47,19.54,2.6,14.64,3.46,29.46,6.42,44.05,2.5,12.36,4.88,23.69,5.18,36.39.22,9.17,0,18.33.58,27.5a710.16,710.16,0,0,1,.6,78c-.39,9.28-1.4,18.79-1,28.09.33,7.17.88,14.28.72,21.48-.31,13.38-2.3,26.64-2.58,40-.34,16.13-3.37,32.21-4.49,48.21-5.57.1-8.94,8.7-12.09,12-2.75,2.92-6.8,4-9.48,6.82-2.91,3-4.79,5.34-8.61,7.59a23.83,23.83,0,0,1-7.34,3.27,1.84,1.84,0,0,0-1.34,1.39c-1.86,1.65-4.39,4.46-6.87,5.07,1.18-1,.75-2.83.85-4.28.19-2.74.84-5.07.36-7.5-.41-2-1.35-2.47-2.45-4.34-.88-1.49-.71-3.52-.51-5.24a49.81,49.81,0,0,0,.8-6.77c0-2.93,0-5.86,0-8.79,0-3.17.72-6,.91-9.17.26-4.41,0-8.95,0-13.38a54.56,54.56,0,0,1,.9-7.82,56.9,56.9,0,0,0,0-7.15V742.36c0-2.79.57-6.18-.15-8.91-.63-2.4-1.63-3.81-1.65-6.44a18.94,18.94,0,0,0,.13-2.24c-.29-2.18-1.79-3.82-1.83-6.08-.06-3.54,3.09-6.41,4.09-9.75.66-2.19.23-4.55.28-6.82.09-4.22,1.05-8.38,1.69-12.57,1-6.31.07-12.35,0-18.76a80.8,80.8,0,0,1,.89-9.36c.24-2.21,1-4.25,1.36-6.39.6-3.58-2.3-2.89-4.81-4.66-1.19-.85-.94-1.25-.9-2.78.08-3.45-.73-6.1-1.32-9.46-.76-4.34-.42-8.82-.42-13.23s-.8-9.37.19-13.55a81.83,81.83,0,0,0,2.45-16c.24-7.5-.11-15,0-22.54,0-3-1-5.46-1.95-8.28-.84-2.45-.7-5.22-.65-8,0-2.66.88-4.94.87-7.69,0-3.54.69-6,.84-9.41.12-2.75,1.3-4.92.7-7.8-.52-2.47-2.46-4.33-2.41-7.13,0-1.45,0-2.89,0-4.33a7.39,7.39,0,0,0-.68-2.8,14.32,14.32,0,0,1-.19-3.71,10,10,0,0,1,.68-3.23,30.18,30.18,0,0,0,1.06-7.61,31.44,31.44,0,0,1,.67-7.8,21.52,21.52,0,0,1,1.29-4.33c.67-1.43.48-1.58,0-2.78a27.59,27.59,0,0,0-1.94-4.66c-1-1.49-1.52-1.18-1.78-2.95a25.18,25.18,0,0,1,.21-7.61,14.8,14.8,0,0,0,.71-1.91c.1-.73-.08-1.51,0-2.24.07-1.45.53-1.75.9-3,.42-1.37.55-3,.84-4.4.21-1,.69-1.59.91-2.54a12.3,12.3,0,0,0-1.13-7.86c-.75-1.37-1.31-1.93-1.53-3.43-.18-1.24.5-1.94.69-2.81.51-2.39.2-5.14.2-7.61,0-1.93.72-5.94-.18-7.63-.4-.76-1.59-1.14-2-1.88-.63-1.06-.43-2.24-.41-3.5,0-2.55-1.27-4-.67-6.74.05-.21.63-.63.72-1,.17-.71-.21-1.52-.08-2.24.19-1,1.25-1.86.9-3Z"/><path class="cls-7" d="M1325.7,433.89c.22,1.66,4.56-1.39,5.38-1.92a7.54,7.54,0,0,0,3.05-5,33.06,33.06,0,0,1,5-.75,13.13,13.13,0,0,0,2.58.05c1-.24,1.61-1.45,2.41-2a6.28,6.28,0,0,1,1.55-1.09c.77-.21,1.51,0,2.28-.27a17.31,17.31,0,0,0,2.43-1.31,1.71,1.71,0,0,0,.93-1.42c.17-.66-.34-1.7-.07-2.31s.89-.75,1.47-1c1.42-.74,3-1.12,4.37-1.92.59-.35.86-.93,1.39-1.32s1.27-.48,1.78-.78a10.58,10.58,0,0,0,2.59-2.34c.15,1.32-.59,2.35-.69,3.62s-.53,2.54-.66,3.86c-.3,3-.45,6.15-1.64,9-1.26,3-1.58,7.06-.07,10a4.86,4.86,0,0,1,.47,2.68c0,1.77.59,3.13.65,4.83,0,1.92.41,2.38,1.3,4.15s.61,3.44.61,5.32c0,4.29-.53,8.36-.58,12.63a18,18,0,0,1-.84,6.45c-.62,1.54-1,1.83-1.17,3.28a11.41,11.41,0,0,0,.67,4.49c.86,2.92.63,5.85.64,8.91,0,1.5.24,3-.45,4.36a23.9,23.9,0,0,0-2.66,8.69c-.45,4.23-.07,8.61-.12,12.87-.07,5.23,1.34,10.26,1.3,15.44a11.45,11.45,0,0,1,0,1.44c-.08.62-.41,1-.51,1.49a30.66,30.66,0,0,0-.16,6.64c.1,3.3.67,6.48.66,9.8,0,2.34,0,4.67,0,7,0,4-.89,8.86,1.14,12.3.9,1.54.78,1.85.78,3.93s0,4.44,0,6.65c0,2.58.62,5,.69,7.6.15,5.62-1.89,10.91-2,16.55,0,2.2.06,4.41,0,6.61,0,1.87.68,3.45.65,5.34,0,2.06,0,4.12,0,6.19,0,2.35-.21,4.75-.44,7.07-.3,2.86-1.28,5.57-1.56,8.39-.42,4.29.69,8.63.71,12.93a24.29,24.29,0,0,1-1.28,6.72,34.72,34.72,0,0,0-1.36,9.77c.06,2,.53,4,.72,6a61.66,61.66,0,0,1,.62,6.95c0,2.37.68,4.56.65,6.89,0,1.76-.62,3.33-.66,5.09,0,1.49,0,3,0,4.47,0,1.83-.58,4.69.11,6.35.31.75,1,1.21,1.35,1.94.58,1.19.64,2.84,1.06,4.09.63,1.83,2.06,3.3,2,5.26-.05,3-2.46,4-3.93,6.16-1.36,2-1,3.72-1.21,5.84-.34,3.23-5.21,4.5-5,8.08.06,1.33,1.84,3.51,2.29,4.65a53.31,53.31,0,0,0,2.27,5.78,32.15,32.15,0,0,1,2.22,3.73c.87,2.38.78,5.29.78,7.8a10.73,10.73,0,0,1-.24,3.87c-.57,1.56-1.68,2.65-1.75,4.38-.08,2.17,1.15,3.82,1.79,5.81a94.25,94.25,0,0,1,2.65,11.52c.6,3.17-.53,6.32-.54,9.5s0,6.47,0,9.71-.35,6.16-.17,9.47a26.32,26.32,0,0,1,.08,5.82c-.24,1.38-1,2.52-1.24,3.86a10.15,10.15,0,0,0,.19,3.11c.35,2,1.78,4.1,1.83,6.12,0,1.44-.39,2.93-1.8,2.75-.91-.11-2.81-1.78-3.4-2.42-1.07-1.16-1.35-2.42-2.5-3.37-2-1.67-4.61-2.43-6.87-3.83a33.71,33.71,0,0,0-2.89-1.76c-2-1-3.75-2.36-5.72-3.28-.15-.07-.48-.23-.66-.29a10.41,10.41,0,0,1-4.28-2,10.22,10.22,0,0,1-3-3.43c-2.13-2.32-5.65-2.49-8-4.31s-1.26-6.77-1.25-9.39c0-1.86,0-3.72,0-5.59A28.25,28.25,0,0,1,1323,788a7.48,7.48,0,0,0,0-1.77,41.84,41.84,0,0,1-.93-7.4,42.57,42.57,0,0,1,.55-5.85,264.41,264.41,0,0,0,.2-49.93c-.56-6.54-1.52-12.85-1.65-19.42-.11-6.07-.85-12-1.15-18.07-.38-7.45.06-14.91-.22-22.37-.42-11-1.09-21.94-1.35-32.93-1-42.27-3-84.75,2.26-126.83,1.88-15.23,2.72-30.51,4.88-45.72.6-4.24,1.11-8.68,1.37-12.95,0-.65,0-1.39,0-2.05,0-1.24-.31-1.08-.51-1.92A19.74,19.74,0,0,1,1325.7,433.89Z"/><path class="cls-7" d="M650.85,411.69a17.7,17.7,0,0,0,4.31-.16,12.15,12.15,0,0,1,3.59-.56,23.67,23.67,0,0,1,7.23,1.41,7.92,7.92,0,0,0,3.19.74,26.1,26.1,0,0,0,4,0c2.63-.46,4.5-1.49,7.19-1.47h3.58a11.62,11.62,0,0,1,2.76,0c.68.19.72.54,1.27.69,2.32.66,5.75.06,8.2.06s4.81.15,7.18,0c1.51-.08,2.7-.69,4.26-.73,2.21-.07,4.39-.78,6.53-.76a15.56,15.56,0,0,1,3.55.74c1.76.47,3.39.34,5.1.69,1.56.33,3,1,4.67,1.32a27.9,27.9,0,0,0,5,.16c2.83,0,5.66,0,8.49,0,2,0,3.6.63,5.54.76a100.15,100.15,0,0,0,15.1,0c1.09-.11,1.78-.61,2.8-.8,1.22-.22,3,0,4.19-.12,6.4-.59,12.75-.55,19.17-.56h12.56c5.83,0,12.4-.8,18.08.52,7.13,1.67,14.38,1.61,21.64,1.64,2.67,0,5-.62,7.54-.76,3.08-.16,6.59.68,9.59.07,1.28-.27,2.21-1,3.54-1.3a18.23,18.23,0,0,1,4.31-.17c3.75,0,7.24,1.29,10.95.21,5.1-1.48,10-3.21,15.3-3.65,3.31-.28,7.09-1.16,10.28-.71,1,.14,1.83.54,2.86.6,2.17.12,4.56-.48,6.7.09,1.84.48,3.8,1.42,5.63,2,3.08,1,6.08,1.68,9.24,2.38a18.21,18.21,0,0,0,7,.4c1.87-.26,3.23-1.1,4.95-1.36,2-.3,2.76.5,4.48,1.15,2.31.87,4,.05,6.26-.95,2-.88,4-1,6-1.78a17.11,17.11,0,0,1,3.11-1.35,16.28,16.28,0,0,1,4.78,0c1.86.45,3.82,1.78,5.74,2.43,2.41.81,5,.48,7.51.48,5.86,0,12.2-.8,18,.16,2.85.48,5.68.74,8.55,1.12,4.23.56,8-.23,12.17-.58a17.36,17.36,0,0,0,4.25-.87c2.73-.9,5.8-1.05,8.71-1.46A87.5,87.5,0,0,1,1040,411a70.58,70.58,0,0,1,8.85.06c14.4,1.8,28.84-.09,43.27-.06h15.85c4.83,0,9.42.18,14.22.57a50.05,50.05,0,0,0,8.57,0c3.79-.32,8-1.29,11.85-.46a36.69,36.69,0,0,1,3.67,1.36,18.46,18.46,0,0,0,6.26.68c4.13,0,8.1-.76,12.25-.73,5.93,0,12.18-.54,18.06.18,5,.61,10,1.41,15,1.86,7.68.69,15.51-.45,23-2.06,6.16-1.33,12.54-.44,18.8-.84s13-1.16,19.37-.51c1.54.16,3,.58,4.53.87,5.1.95,10.49.66,15.66,1.07,5.38.42,10.51-.22,15.85-.54,6.41-.38,12.66-2,19.11-2.21,8.56-.22,17.16,0,25.73,0a18.37,18.37,0,0,0,5.12-.56,20.08,20.08,0,0,1,4.65-.14,12.09,12.09,0,0,0,3-.58,23.08,23.08,0,0,1,4.48-.16c1.68,0,2.57.69,4.21.83a8.89,8.89,0,0,1-1.39,7,33.14,33.14,0,0,1-3.55,3.66c-1.12,1.16-1.42,2.33-2.29,3.61-1.79,2.64-6.35,3.8-9.07,5-3.52,1.56-6,4.57-9.46,6.29-5.23,2.59-11.38,3.48-17.13,3.77q-24.09,1.2-48.22,2.37c-26,1.27-51.79,1.27-77.8.52-24.39-.7-48.79-.94-73.17-1.87-19-.72-37.7-2.18-56.68-1.4-10.07.42-20.29.63-30.29,2-7.11,1-13.73,2.64-20.72,4.31-4.76,1.14-7.68,1.89-12.78,1l-6.18-1.38a43.33,43.33,0,0,0-14.53,2,158.19,158.19,0,0,1-25.5,2.54c-8.61.21-17.18,1.15-25.78,1.63-14.37.8-29.08,2.12-43.37-.19-2.89-.46-5.65-1.29-8.54-1.44-6.57-.35-13.18,0-19.77-.39-5.62-.32-11.21-.91-16.82-1.44-13.72-1.3-26.72-.79-40.45.39-19.81,1.72-39.77,2.24-59.58,0a127.62,127.62,0,0,0-14.76-.7c-6.21,0-12.71.68-18.84-.14-8-1.08-16.19-1.95-23.84-4.71-1.87-.67-4.09-1.09-5.73-2.22a39.92,39.92,0,0,1-6-5.71,102.26,102.26,0,0,0-9.51-9.57c-1.47-1.22-3.15-2.15-4.64-3.31C653.34,419.94,652.5,418.47,650.85,411.69Z"/><path class="cls-6" d="M655.16,832.74c.05,1.83,3.77-.31,4.47-.55a21.07,21.07,0,0,1,7-.89,9.8,9.8,0,0,1,2.71.16c.94.25,1.94,1.13,3,1.31a20.57,20.57,0,0,1,2.71.13c.33.09.76.47,1.21.58a10,10,0,0,0,2.18,0,25.17,25.17,0,0,0,7.93-1.52c2.3-.73,4.34-.6,6.79-.63,2.68,0,5.16.72,7.91.72H711.8c3.58,0,7.26.26,10.83,0,2-.13,3.9-1,5.84-1.33a39.46,39.46,0,0,1,7.13-.14c2.85,0,5.69,0,8.54,0a11.19,11.19,0,0,1,2.38,0c.33.09.55.55.77.6,5.61,1.27,11.74-.63,17.42-.58q6.6.06,13.21,0c2.53,0,4.9-.24,7.29.7a27.54,27.54,0,0,0,10.43,1.46c3.11,0,6.25.16,9.36,0,3.38-.13,6.55-.79,10-.75a42.44,42.44,0,0,0,6.86-.13c1.9-.29,3.76-.92,5.66-1.19,3.16-.44,6.23-.09,9.38-.68,3.48-.65,7.26-.24,10.81-.72a27,27,0,0,1,7.92,0c2.53.43,4.9,1.25,7.49,1.32,3,.07,6.1,0,9.13,0a13.13,13.13,0,0,1,5.09.68,21.9,21.9,0,0,0,13.3.81c3.08-1.11,5-2.06,8.2-2.27s6.09-1.31,9.23-1.39c2.91-.09,5.74-.62,8.64-.74,3.52-.15,7.09.05,10.62,0a46.28,46.28,0,0,1,10.1.87c1.09.26,2.08.92,3.17,1.18a19.29,19.29,0,0,0,4.16.1c2.27.06,4.2.89,6.39,1.32,2.7.52,5.4-.08,8.1.56a42.63,42.63,0,0,0,10.44,1c3.11,0,6.25.13,9.36,0,4.29-.11,8.29-1.48,12.62-1.53,3.69,0,7.47-.15,11.15,0,2.8.12,5.35,1.26,8.08,1.51,11.64,1.07,23.28-1.68,35-.59,10.36,1,20.8,1.28,31.21,1.27,3.93,0,7.88.2,11.8-.14,5.15-.45,9.88-1.36,15.1-1.29,4.6.05,9-.63,13.62-.76,3.83-.11,7.69,0,11.52,0,2.91,0,5.82,0,8.73,0,3.86,0,7.69,1.22,11.53.59,8.25-1.35,17-.57,25.37-.57,2.44,0,4.89,0,7.34,0,4.3,0,8.46-.63,12.73-.76,3.52-.1,7.5-.38,11,.16,2.57.4,5,1.16,7.61,1.28,3.39.17,6.78-.13,10.16.1,1.91.12,3.78.48,5.68.6,2.06.12,4.14-.14,6.18.09,1.89.21,3.63,1,5.52,1.28a46.65,46.65,0,0,0,6.69.12c5.44,0,10.77-.58,16.19-.75,5-.16,9.91.51,14.89.75,4.81.25,10.26-1.54,14.89-.25a28,28,0,0,0,12.26.72,146.55,146.55,0,0,1,22.44-1.31,15.8,15.8,0,0,0,6.49-1.31c5.34-1.88,10.8-1.44,16.36-1.44h-.94c1.85-.29,2.71,1.32,4.42,1.8,1.32.38,5.12,1.94,6.08.69,1.53-2-2.24-5.18-3.4-5.92a10.76,10.76,0,0,1-2.47-1.91c-1.36-1.49-2.12-3.26-3.46-4.83-3.8-4.48-7.45-9-12.35-12.26a26,26,0,0,1-5.8-4.89,15,15,0,0,0-6.26-4.51c-1.69-.77-3.48-1.09-5-1.92a20.63,20.63,0,0,1-3.42-2.77c-1.27-1.07-1.59-.76-3.12-.8-2.24-.07-4.26-.78-6.53-.74-6.31.11-12.64-.67-18.95-.81a85.9,85.9,0,0,0-11.78.32c-5.08.59-10.14,1.74-15.26,2.28a167.58,167.58,0,0,1-49.63-2.24c-9.12-1.78-18-4.36-27.19-5.92A177.85,177.85,0,0,0,1163,784.2c-11.65-.44-23.29-.6-35-.12-13.69.55-27.36,2.29-41,3.38-10.7.85-21.4,1.37-32.14,1.49-9.2.11-18.38.13-27.56-.49-6.64-.46-13.2-1.41-19.83-2-20.08-1.75-40.16-.07-60,3.23-7.15,1.2-13.7,2.37-21.07,2.12-7.81-.27-15.61-1.15-23.38-1.85-11.91-1.07-23.54-2.08-35.51-1.46-14,.72-27.88,0-41.84-.32-8.61-.16-17.23-.8-25.81-1.62-3.68-.35-7.42-1.05-11.1-1.18-7.19-.25-14.37.61-21.56.67-8.52.07-17.18-.6-25.69.12-4.35.37-9,0-13.28.7a67.66,67.66,0,0,1-8.1,1.29c-3.62.16-7.21.36-10.83.56-1.41.08-5.7-.29-7.62.11-2.35.5-6,4.13-7.66,5.47a50.56,50.56,0,0,0-6.72,5.93c-1.74,2-3,4.34-4.65,6.37-1.35,1.67-2.72,3.85-4.56,4.9a23.38,23.38,0,0,1-3.54,1.19c-1.06.41-1.91,1.08-2.92,1.56-1.64.78-3.43,1-5,1.92a27.24,27.24,0,0,0-4.87,3.62,25.7,25.7,0,0,0-3.79,4.28C657.46,824.92,655.88,827.48,655.16,832.74Z"/><path class="cls-8" d="M666.66,431.8a18.15,18.15,0,0,1-.56,5c-.24.94-.56,3.46,0,4.35s1.09.49,1.37,1.36a9.07,9.07,0,0,1,0,2.2,20.66,20.66,0,0,0,.36,4.67,22,22,0,0,1,.37,4.83c0,2-.94,2.92-1.63,4.71-1.09,2.84.76,4.48,1.45,7.35.64,2.63.31,6.25.17,9-.08,1.57-.84,2.29-.74,4s.82,2.12,1.65,3.39c1.77,2.75-1.61,6.14-.09,8.66a20.8,20.8,0,0,0,2,1.6,14.16,14.16,0,0,0,2.85,1.81c1,.46,5.46,1.27,5.74,2.34-2.06.77-4.39.8-6.43,1.76a4.47,4.47,0,0,0-2,1.42c-.25.47,0,.8-.14,1.29,0,.09-.54,1.52-.56,1.6-.47,2.12-.15,4.64-.18,6.83a22.62,22.62,0,0,0,1.46,8.46c2.38,5.28-2.94,9.51-2.87,14.72,0,1.92-.43,4.29,0,6.14.2,1,.61,1.42.76,2.43a28.4,28.4,0,0,1,0,4c0,2.18.78,4,.72,6.1-.09,2.76-.88,5.37-.76,8.18.08,1.76.72,3.35.77,5.1.07,2.51-.34,5.15.13,7.62.26,1.32,1.3,2.74,1.19,4.1,0-.23-1,1.52-.81,1a12.47,12.47,0,0,0-.52,3.56c-.11.93-.83,2-.81,2.82s1.21,2.16,1.71,2.87c2.61,3.74,2.72,9.4,1.61,13.72a27.8,27.8,0,0,1-.9,3.54,19.15,19.15,0,0,0-.93,2.11c-.52,2.25.05,5.5,0,7.79,0,1.43-.28,2.51.7,3.6.74.8,1.75,1.13,2.39,2.12,1.11,1.72.24,2.62-.94,4.29a7.54,7.54,0,0,0-1.43,5.22,4.21,4.21,0,0,0,.7,2.88c.73,1,1.94,1.7,2.17,3.19.47,3-1.86,4.07.75,6.51,1.28,1.2,6,2.71,6.39,4.51-3.29,1-5.67,1.56-6.38,5-.47,2.27-1.49,4.72-1.52,7,0,1.39.65,2.49.82,3.83.24,2-.57,3.47-1.16,5.16-.45,1.32-.6,2.82-1,4.2-.52,1.67-1.47,3.33-1.51,5.1a17.66,17.66,0,0,0,.42,3.15,41.2,41.2,0,0,1,.37,7,48.54,48.54,0,0,1-.3,8.27c-.6,3.38-1.4,6.73-2,10.12-.32,1.87-1.19,3.88-1.16,5.78,0,2.11,1.29,3.68,1.3,5.9s0,4.32,0,6.48c0,3.14-.71,7,.06,10a11.63,11.63,0,0,1,.66,3.5,13.69,13.69,0,0,1-.45,4.41c1.25.4,2.13-.87,3.16-1.42a8.51,8.51,0,0,1,2.36-.66c1.72-.44,3.51-1.31,5.48-1.52-2.93,2.84-6.2,5.55-8.4,9-1.41,2.23-2.2,5.2-3.17,7.76s-2.26,5.11-1.8,7.88c.63,3.79,1.39,5.52.72,9.64-.39,2.42-1.29,5.37-.88,7.88.25,1.6,1.56,2.67,2.08,4.19.74,2.19.33,4.2.17,6.49-.23,3.5.22,7,.05,10.5-.09,1.91-.56,3.79-.7,5.7-.18,2.63-.57,5.9,0,8.49,2.27.86,6.46.13,8.78-.08,3.22-.29,6.29-.51,9.52-.52,3.91,0,7.43-1.41,11.3-1.54a40.05,40.05,0,0,1,7.57.59c2,.3,4.68,1.26,6.67.77a11.48,11.48,0,0,1,2-.65,29.4,29.4,0,0,1,3.07.79,34.69,34.69,0,0,0,7.93.77c3.88,0,7.76-.06,11.64,0a105,105,0,0,0,14.94-.51c2.26-.32,4.24-1.37,6.46-1.56,5.06-.44,9.83,2.25,14.75,2.73,3.18.31,6.29-.24,9.45-.51,2.6-.22,5.23.07,7.82-.14,1.72-.14,1.59,0,2.39-2.09a36.49,36.49,0,0,1,2.66-5.57c1.88,1.83,2.39,5.73,5.3,6.34,4,.84,8.49-1.81,12.48-.73,2.13.58,3.49,1.7,5.9,1.25,2.68-.5,5.36-2.79,7-4.78.85-1,1.58-2.38,2.81-3,2.76-1.51,4.62.19,6.75,1.66s4.63,1.39,7.11,2.07c2.82.77,4.34,3.45,7.21,4.09,3.09.69,5.75-.77,8.61-1.76,2.57-.89,6.76-1.77,9.57-1,1.69.48,3,1.82,4.59,2.45,7.15,2.8,15.1-1.49,22.43-1,3.67.26,7.13,1.17,10.88,1.29,7.19.22,14.47-.37,21.65,0a35.61,35.61,0,0,0,6.38.23c3.87-.45,7.73-2.12,11.58-2.37,2.74-.18,5.37,1,8.11,1.22,5,.49,10.09-.25,15.14.17,4,.33,7.46,2.18,11.5,2.25,3,0,6.3-.39,9.24.65l1.88.89a1.3,1.3,0,0,0,2.17,0c3.25-1.11,3.74-5.32,7.67-6,2.57-.47,4.69.2,7,1.14,1.33-1,1.5-3,2.65-4s.57-.88,1.67.26,1.54,4.06,3,4.69c1.22.54,3.43.32,4.94.48,4.43.49,9,1.79,13.47,1,9.58-1.69,19.32-7.23,29-3.61,3.94,1.48,8.14.36,12.18.15,4.31-.23,8.63-.45,12.94-.61a60.54,60.54,0,0,1,12.83,1c6.94,1.13,13.8,0,20.75.15,5.78.14,9.94,1.63,15,3.81,3.23,1.38,3.61-.25,4.43-3.07a15.06,15.06,0,0,0,.75-4.36c1.66,1.65,3.85,8.3,6.84,7a3.86,3.86,0,0,1,3.58-2.5c1.7.36,3.41.7,5.11,1,4,.77,8,.46,12,.43a49.6,49.6,0,0,1,7.71.21,2.27,2.27,0,0,0,2.11.36,12.11,12.11,0,0,1,.53-3.89c1,1.37,1.41,2.75,2.84,3.85,2,1.57,3.63.72,5.94.38a43.75,43.75,0,0,1,8-.1,12.72,12.72,0,0,0,6.35-1.57,8.31,8.31,0,0,1,4.08-1.28,9.84,9.84,0,0,0,5,2c6.15,1.51,12.12.11,18.29-.15,5.07-.21,10.09.93,15.15,1.05,8.51.2,17.11-1,25.6-.57l7.46.57a26.52,26.52,0,0,1,6.64,2.12l.53-.24a2.32,2.32,0,0,1,2.06-1.8c2.73-1.52,6.65-.09,9.54.54a29.8,29.8,0,0,0,12.54.41c5.13-.93,9.83-4.13,15-4.68a48,48,0,0,1,9.44.07,45.55,45.55,0,0,1,10.58,2.31,4,4,0,0,0,2.55.47c.6-2.17,0-5,.24-7.29a30.41,30.41,0,0,0,.52-6.53,8.9,8.9,0,0,0-2-3.66c-2.47-4.84.51-10.68-1.29-15.64a12.74,12.74,0,0,1-2.3-6.09,44.31,44.31,0,0,1,1.92-8.5c.38-5-3.72-7.78-5-12.28-.49-1.64-1.08-2.84,0-4.31a9.77,9.77,0,0,0,2.55-1.67,6.27,6.27,0,0,0,.48-3.93c-.09-3.13-.25-6.18-.59-9.3-.18-1.65-.73-3.09-1-4.64-.43-2.72.7-6.28.81-9.11.1-2.57.44-4.29-1.31-6.44-2.41-3-3.8-2.59-7-2.61-1.39,0-2.5,0-1.34-1.64,1.34-1.91,4-.9,5.49-2.08.93-.17,1.23-.74.92-1.71a13.78,13.78,0,0,0-4.48-4.6c-1.12-.81-3.6-2.84-5.21-2.84a30.53,30.53,0,0,0,7.85-3.69c2-1.46,1.66-2.24,1.52-4.54-.13-2.07-.62-1.77,1.76-3.13,1.79-1,2.15-1.45,2.55-3.47.44-2.26.24-4.77.54-7.09a55.89,55.89,0,0,0,.39-10.5c-.16-2.69.37-7.93-.72-10.38-.63-1.43-1.11-1.85-1.77-3.57a50.94,50.94,0,0,1-2.81-8c-.51-2.64.09-4.47,1-7a11.87,11.87,0,0,0,.67-4.71,28.18,28.18,0,0,0-2.35-10.52l-1-1.39c-.66-1.6.23-3.2.69-4.9a32.12,32.12,0,0,0,1.12-7.36c.08-2.56,0-5.14,0-7.71,0-3.21-1-6.16-1-9.29q-.06-3.35.21-6.69l0-2.89a3,3,0,0,1,1.49-1.5,10.16,10.16,0,0,0,3.66-4.22c1.53-4.26-2-9.82-2.24-14-.13-2-.12-3.87-.36-5.82a57.33,57.33,0,0,0-2.06-8.31c-1.07-3.92-.93-8.31-1.22-12.4-.39-5.46-1.61-11.35-1.1-16.89.41-4.52,3.59-7.91,4.19-12.38.7-5.23-.88-10-1.44-15.08-.42-3.88.46-7.52,1.11-11.33,1-5.63,1.42-11.35,1.82-17a35.7,35.7,0,0,0-.88-9.24c-.52-2.92.28-6.4.45-9.24.11-1.92-.35-6.07.27-8.31.47-1.68,1.26-3,1.37-4.87.07-1.07.08-2.21.06-3.28-3.61-1.58-8.1,1-11.75,1.24a38.29,38.29,0,0,1-10.85-2.44,12.17,12.17,0,0,0-6.76-1.18c-2.13.61-2.24,1.58-4.61,1.4-3.89-.31-7.66-.91-11.54-.54a52.94,52.94,0,0,1-10.14.46q-3-.58-5.92-1.11c-3.5-.14-6.25,2.16-9.53,2.42-2.63.21-5.48-1.16-8.16-1.27-4.14-.16-7.81,0-12-.83-3.7-.7-9.2-2.59-12.68.29-1.88,1.56-1,2.8-3.83,3.85-3.48,1.31-4.58-.72-7.16-2.06-1.53-.8-3.74-.68-5.58-.28-2.85.62-4.5-.06-7.26-.89-7.7-2.31-14.64-1-22.48-.82a52.27,52.27,0,0,1-13.27-1,3.48,3.48,0,0,0-2.64-.35c-2.65.75-2.07,5.57-4.64,5.42a22.22,22.22,0,0,1-2-3.74l-2.93-.48a134,134,0,0,0-15.66-1.23c-11.72-.28-23.49.17-35.21.06a16,16,0,0,0-5,.33,16,16,0,0,1-6.94.8,194.37,194.37,0,0,0-20.59-1.69q-7.67,1.13-15.3,2.57l-9.85,1.39a40.45,40.45,0,0,1-9.07.09c-3.23-.39-6-1.93-9.13-2.53s-6.09.06-9.32.12c-4.49.09-9.17-.4-13.48.57-3.75.84-7.67.11-11.48-.1a33.32,33.32,0,0,0-10.35.42,8.27,8.27,0,0,1-5.6.66c-6.06-.65-11.42-1.89-17.56-.92a171,171,0,0,1-21.69,1.91c-1.89.05-4.19.4-6-.47-4.31-2.09-2.48-2.92-8.49-2.08-6.78.94-13.43,2.86-20.33,2.63-5.54-.19-11.81-1.67-17.22-.39-1.43.34-2,1.06-3.13,1.51a8.78,8.78,0,0,1-3.92-.47,16.07,16.07,0,0,0-7.06,1.37,26.5,26.5,0,0,1-11.34,1.44c-6.44-.35-13.74-.63-20-2.51-2.71-.81-4.8-1.69-7.66-1.8a50.62,50.62,0,0,1-8.69-1.36q-8.56-.07-17.11.55a91.56,91.56,0,0,0-14.22,1.38c-2.07.7-4.07,2.09-6.31,1.61-4.94-1.08-9.17-3.34-14.34-2.93,1.51,2.29,4.86,4.12,5.67,6.75-3.37-.21-7.21,0-10.33-1.34-1-.46-1.91-1.2-2.91-1.72a11.5,11.5,0,0,0-3.9-1,42.31,42.31,0,0,0-18.31,1.26c-5.65,1.58-11.5-.43-17.25-.39-10.09.06-20.31.53-30.38.14-7.86-.3-15-4.16-23-2.33C680.09,430.62,674.35,429.64,666.66,431.8Z"/><g id="green"><g class="cls-9"><path class="cls-10" d="M1117.86,436.69l-40.2-105.39c30.45-17.26,62-14.09,94.91-4.61Z"/><path class="cls-10" d="M1415.82,484.59c16.46,26.44,20.93,74.92,29.81,103.31l-110.34,3.87Z"/><path class="cls-10" d="M1314.42,532.31l40.4-122.21a368.45,368.45,0,0,1,60.11,73Z"/><path class="cls-10" d="M1352.47,408l-95,74,16.31-126.64c.56.25,1.13.44,1.69.69C1303.37,368.75,1329.23,386.69,1352.47,408Z"/><path class="cls-10" d="M1186.83,451.86l-14.26-125.17c33.36,1.93,65.55,13.53,96.31,26.59Z"/><path class="cls-10" d="M1074.68,329.3,1055.5,449.78l-44.18-56.84C1018.25,349.42,1047,336.52,1074.68,329.3Z"/></g><path class="cls-11" d="M1120.1,422.54l-40.2-105.4c30.44-17.25,62-14.08,94.91-4.61Z"/><path class="cls-11" d="M1418.06,470.43c16.46,26.44,20.93,74.92,29.81,103.32l-110.34,3.87Z"/><path class="cls-11" d="M1316.66,518.15l40.4-122.2a368.17,368.17,0,0,1,60.11,73Z"/><path class="cls-11" d="M1354.71,393.81l-95,74L1276,341.14c.56.25,1.13.44,1.69.7C1305.61,354.59,1331.47,372.53,1354.71,393.81Z"/><path class="cls-11" d="M1189.06,437.7l-14.25-125.17c33.36,1.93,65.54,13.53,96.31,26.59Z"/><path class="cls-11" d="M1076.92,315.14l-19.18,120.49-44.18-56.85C1020.48,335.26,1049.27,322.37,1076.92,315.14Z"/><path class="cls-12" d="M1015.87,229.54c87.76-125.12,217.85-131,381.81-39.08,201,123.83,182.32,384.21-11.75,433,98.07-150.59-46.1-244.9-118.65-279.14C1203.33,314.18,1060,257,997,400,994,315,992,299,1015.87,229.54Z"/><path class="cls-13" d="M1019.16,220.39c87.76-125.12,225.7-129.86,389.66-38,180,103.46,178.49,347.17,4.33,415.79,53.69-121.93-28.22-208.46-137.91-264C1169.48,280.58,1017,283,995,407,984,323,980,288,1019.16,220.39Z"/><ellipse class="cls-14" cx="1458.46" cy="269.77" rx="23.67" ry="81.26" transform="translate(179.19 1020.34) rotate(-40.88)"/><path class="cls-15" d="M1220,240.32c7.81-19.18,4.82-38.12-7.12-45a19.76,19.76,0,0,0-3.5-1.59c-7.72-2.64-16.8-.45-24.91,6-6.82,5.42-12.66,13.54-16.45,22.85a57.22,57.22,0,0,0-4.22,17.61l-5.55-1.33c.3-4,1.9-7.53,3-11.67,6.8-26,25.55-39,43.21-38.38,28.38,1,27,28.46,20.2,54.49a69.33,69.33,0,0,1-3.71,10.54l-7.22-1.73A63.79,63.79,0,0,0,1220,240.32Z"/><path class="cls-16" d="M1163.84,240.17l49.91,11.92a63.79,63.79,0,0,0,6.29-11.77c7.81-19.18,4.82-38.12-7.12-45a19.76,19.76,0,0,0-3.5-1.59c-7.72-2.64-16.8-.45-24.91,6-6.82,5.42-12.66,13.54-16.45,22.85A57.22,57.22,0,0,0,1163.84,240.17Z"/><path class="cls-17" d="M1210.42,198.35c7.63,4.17,10.82,13,8.36,23a3.35,3.35,0,0,1-4.15,2.27,3.89,3.89,0,0,1-1-.41,3.22,3.22,0,0,1-1.62-3.52c1.78-7.21-.09-13.15-5-15.84a3,3,0,0,1-1.33-4.41A3.55,3.55,0,0,1,1210.42,198.35Z"/><path class="cls-15" d="M1419.75,355.07c15.36-20.71,16.55-45.63,2.65-55.64s-37.61-1.35-53,19.36a69.91,69.91,0,0,0-4.92,7.63l-5.17-4.24c.64-.87,1.26-1.75,1.94-2.61,19.52-24.48,48-34.56,63.53-22.51s12.37,41.67-7.14,66.16c-1.1,1.38-2.24,2.7-3.39,4l-3.13-2.56A68.57,68.57,0,0,0,1419.75,355.07Z"/><path class="cls-16" d="M1422.4,299.43c13.9,10,12.71,34.93-2.65,55.64a68.57,68.57,0,0,1-8.6,9.57l-3.4-2.78a60.65,60.65,0,0,0,10.26-11c12-16.54,13.82-35.75,4.34-45.68a19.22,19.22,0,0,0-2.9-2.5c-6.58-4.64-15.61-5-24.79-.87-7.71,3.43-15.16,9.74-21,17.77a60.39,60.39,0,0,0-5.75,9.68l-3.42-2.8a69.91,69.91,0,0,1,4.92-7.63C1384.79,298.08,1408.51,289.41,1422.4,299.43Z"/><path class="cls-16" d="M1367.93,329.22l39.82,32.64a60.65,60.65,0,0,0,10.26-11c12-16.54,13.82-35.75,4.34-45.68a19.22,19.22,0,0,0-2.9-2.5c-6.58-4.64-15.61-5-24.79-.87-7.71,3.43-15.16,9.74-21,17.77A60.39,60.39,0,0,0,1367.93,329.22Z"/><path class="cls-17" d="M1415.87,305.26c8.09,3.91,11.81,12.67,9.76,22.74a3.44,3.44,0,0,1-4.18,2.42,4.28,4.28,0,0,1-1.06-.37,3.25,3.25,0,0,1-1.85-3.48c1.48-7.29-.74-13.19-5.91-15.71a3,3,0,0,1-1.6-4.38A3.73,3.73,0,0,1,1415.87,305.26Z"/><g class="cls-18"><path class="cls-19" d="M1492.27,489c3.34,1.39,7.16.48,9.92-.18l1.11-.26c7.62-1.7,13.68-2.68,16.55,1a4.48,4.48,0,1,0,7.08-5.49c-6.58-8.54-18-6-25.57-4.3l-1.23.29c-1.31.31-3.8,1.08-4.43.6,0-.13-.28-.91-.4-1.33l-2.27-7.62a9.79,9.79,0,0,1-.56-2.69,8.46,8.46,0,0,1,.23-1.2c.14-.59.27-1.19.35-1.79a13.13,13.13,0,0,0-11.33-14.51c-.61-.06-1.23-.08-1.84-.09a3.31,3.31,0,0,1-3.13-1.32l-14.47-11.82a4.48,4.48,0,0,0-5.66,7l14.47,11.82a13.93,13.93,0,0,0,5,2.92,13.25,13.25,0,0,0,3.59.41c.36,0,.72,0,1.08.05a3.86,3.86,0,0,1,2.5,1.54,3.9,3.9,0,0,1,.89,2.81c0,.35-.13.7-.21,1a16.67,16.67,0,0,0-.44,2.62,16.5,16.5,0,0,0,.92,5.83l2.26,7.61a11.91,11.91,0,0,0,2.33,4.74A8.51,8.51,0,0,0,1492.27,489Z"/></g><g class="cls-18"><path class="cls-19" d="M1486.36,386a4.48,4.48,0,0,0,4-1.38l.47.28a7.13,7.13,0,0,0,4.63,1.18c3.38-.4,4.91-3.39,5.42-4.37,3.7-7.15,10.55-13.89,17.51-12.82h.05a25.56,25.56,0,0,1,5.89,2.07c1.31.57,2.63,1.15,4,1.63,5.11,1.82,7,1.17,10.83-2a4.62,4.62,0,0,0,.72-6.41,4.32,4.32,0,0,0-6.17-.71l-.26.22c-.4.33-.72.62-1,.83l-1.12-.37c-1.14-.41-2.25-.9-3.37-1.39a32.72,32.72,0,0,0-8.09-2.72h-.08c-11.5-1.78-21,7.29-26,16.15l-7.9-4.69-2.27,3.91a9.19,9.19,0,0,0-.64,7.76A4.49,4.49,0,0,0,1486.36,386Z"/></g><g class="cls-18"><path class="cls-19" d="M1347.92,200.59a4.5,4.5,0,0,0,3.93-2.63l6.61-14.59a9.76,9.76,0,0,0,1.09-5.35c-.53-4.21-4.38-6.27-5.65-7a68.62,68.62,0,0,0-13-5.28,72.16,72.16,0,0,0-11.88-17.53,4.48,4.48,0,1,0-6.59,6.07,63.27,63.27,0,0,1,11.2,17.07l.88,2,2.09.54a58.88,58.88,0,0,1,13,5.08c.32.17.56.31.74.43l-.12.25-6.6,14.58a4.48,4.48,0,0,0,4.21,6.34Z"/></g><g class="cls-18"><path class="cls-19" d="M1002.59,295.32c3.78-.4,6.33-4,7.49-5.66a12,12,0,0,1,2-2.42,5.42,5.42,0,0,0,1.36,1.09,21.76,21.76,0,0,0,2.1,1.32c6.07,3.28,13.13,1.27,17.34.07a7.06,7.06,0,0,0,5.54-9.09,4.05,4.05,0,0,1,.79-3.35,8.52,8.52,0,0,1,5.45-3.18c4.06-.55,8.47.89,13.12,2.46l1.19.4c6.2,2.08,12.83,3.7,19.31,1.4a4.48,4.48,0,0,0-3-8.46c-3.94,1.38-8.82.13-13.51-1.44l-1.17-.39c-5.18-1.75-11.11-3.71-17.23-2.85a17.44,17.44,0,0,0-11.39,6.72,12.82,12.82,0,0,0-2.55,9.41c-3.85,1-7.33,1.68-9.69.41-.45-.25-.87-.54-1.29-.83a15.37,15.37,0,0,0-4-2.15c-6.25-2-9.94,3.2-11.71,5.71-.34.48-.79,1.12-1.16,1.57a4.52,4.52,0,0,0-5.36,1.95,4.46,4.46,0,0,0,1.56,6.12A7.64,7.64,0,0,0,1002.59,295.32Z"/></g><g class="cls-20"><path class="cls-21" d="M1392.8,281.06a4.76,4.76,0,0,0,1.07,0l58.6-6.08c3-.32,5.57-3.88,5.63-8s-2.33-7.15-5.4-6.81l-58.61,6.08c-3,.32-5.56,3.88-5.63,8C1388.41,277.86,1390.28,280.66,1392.8,281.06Z"/></g><g class="cls-20"><line class="cls-21" x1="1253.19" y1="204.59" x2="1212.95" y2="159.97"/><path class="cls-21" d="M1252.46,209.17a6.87,6.87,0,0,0,4.27-.65,4,4,0,0,0,1.14-6.46l-40.24-44.62a7.09,7.09,0,0,0-8.22-1.4,4,4,0,0,0-1.15,6.45l40.24,44.63A6.8,6.8,0,0,0,1252.46,209.17Z"/></g><g class="cls-18"><path class="cls-19" d="M1058.77,184.41a4.44,4.44,0,0,0,4.16.58l.29.46a7.17,7.17,0,0,0,3.59,3.16c3.19,1.18,5.91-.79,6.81-1.43,6.54-4.69,15.69-7.58,21.4-3.46l0,0a25.41,25.41,0,0,1,4.31,4.53c.91,1.11,1.82,2.22,2.8,3.26,3.72,4,5.7,4.22,10.55,3.13a4.63,4.63,0,0,0,3.55-5.39,4.33,4.33,0,0,0-5.18-3.43l-.32.07c-.51.12-.92.23-1.27.29-.19-.17-.45-.44-.83-.84-.83-.88-1.6-1.83-2.37-2.77a32.91,32.91,0,0,0-6-6.1l-.07-.05c-9.44-6.82-22-3.07-30.53,2.54l-4.9-7.78-3.8,2.46a9.13,9.13,0,0,0-4.08,6.62A4.49,4.49,0,0,0,1058.77,184.41Z"/></g><g class="cls-22"><path class="cls-21" d="M1163,266.17c.21,0,.43.05.65.06a298.09,298.09,0,0,1,54.51,6.19,4.7,4.7,0,0,0,1.92-9.21,309,309,0,0,0-56.24-6.39,4.71,4.71,0,0,0-.84,9.35Z"/></g><g class="cls-22"><path class="cls-21" d="M1398,382.45a4.7,4.7,0,0,0,4.44-7.54,240.87,240.87,0,0,0-42.79-42.58,4.7,4.7,0,0,0-5.72,7.45,231.83,231.83,0,0,1,41.12,40.92A4.65,4.65,0,0,0,1398,382.45Z"/></g></g><g id="brown_head" data-name="brown head"><path class="cls-5" d="M583.55,538.28l0-.7"/><g class="cls-23"><path class="cls-10" d="M662.79,535,602,541.82a200.41,200.41,0,0,1,11.21-49.32Z"/><path class="cls-10" d="M715.29,382.9a182.55,182.55,0,0,1,41-14.12L762,412.22Z"/><path class="cls-10" d="M735.25,439.38l-60.79-31.07a217.22,217.22,0,0,1,40.07-25.06Z"/><path class="cls-10" d="M673.2,409.33l33.11,60.41L639,444.37c.19-.25.36-.52.55-.77A195.32,195.32,0,0,1,673.2,409.33Z"/><path class="cls-10" d="M683.66,499.79l-70.29-7.73a188.55,188.55,0,0,1,24-45.44Z"/><path class="cls-10" d="M601.72,544.79l38.55,29.72-37.38,9.54A170.3,170.3,0,0,1,601.72,544.79Z"/></g><path class="cls-11" d="M665.94,529.88l-60.8,6.79a200.89,200.89,0,0,1,11.22-49.32Z"/><path class="cls-11" d="M718.43,377.75a182.67,182.67,0,0,1,41-14.13l5.7,43.45Z"/><path class="cls-11" d="M738.39,434.22l-60.78-31.06a216.36,216.36,0,0,1,40.07-25.06Z"/><path class="cls-11" d="M676.35,404.18l33.11,60.41-67.33-25.37c.19-.25.35-.52.55-.77A194.63,194.63,0,0,1,676.35,404.18Z"/><path class="cls-11" d="M686.8,494.63l-70.28-7.72a188.86,188.86,0,0,1,24-45.44Z"/><path class="cls-11" d="M604.86,539.64l38.56,29.72L606,578.9A171.43,171.43,0,0,1,604.86,539.64Z"/><path class="cls-24" d="M440.45,569.32c-80.92-80.07-67.11-176.86,18.36-282.73,112.89-128.27,298.63-72.41,312,74.07C687.67,388.94,600.21,476.1,607,591.28,557.35,609,495.58,611.75,440.45,569.32Z"/><path class="cls-1" d="M431.63,561.91c-80.91-80.07-68.63-180.16,16.84-286,112.89-128.26,301.75-73.55,315.12,72.93C677.73,382,586.91,473,593.57,582.55,543.9,600.27,486.76,604.34,431.63,561.91Z"/><ellipse class="cls-2" cx="545.45" cy="264.28" rx="56.96" ry="35.3" transform="translate(-55.66 341.87) rotate(-33.21)"/><ellipse class="cls-3" cx="547.01" cy="464.08" rx="32.02" ry="49.39" transform="translate(-78.65 815) rotate(-69.6)"/><ellipse class="cls-15" cx="544.66" cy="462.11" rx="27.88" ry="43.43" transform="translate(-66.32 832.12) rotate(-71.51)"/><path class="cls-25" d="M577.38,475.37a16.55,16.55,0,0,0,1.18-3.22c3.47-13.48-9.33-28.21-29.76-34.25-18.21-5.38-35.33-1.24-40.71,9.84A17.52,17.52,0,0,0,506.9,451c-1.8,7,.93,14.87,7.5,21.52,5.52,5.6,13.43,10.11,22.26,12.73C554.87,490.59,572,486.46,577.38,475.37Z"/><path class="cls-26" d="M529.47,482.16c18.18,5.38,35.29,1.24,40.67-9.85a16.55,16.55,0,0,0,1.18-3.22c2.85-11.08-5.29-23-19.6-30.23,18.67,6.52,32.94,19.23,29.65,32.06a38.48,38.48,0,0,1-1.83,4.75c-5.39,11.08-24.7,14.91-42.89,9.53a58.3,58.3,0,0,1-9.82-4C527.71,481.53,528.56,481.9,529.47,482.16Z"/><path class="cls-27" d="M536.7,444.27c-11.49-1.07-19.53,3.29-22.17,10.64"/><path class="cls-28" d="M540.43,445.84a3.88,3.88,0,0,0,.25-1.2,4.18,4.18,0,0,0-3.77-4.34c-12.79-1.2-22.91,3.84-26.14,13.12a4.14,4.14,0,0,0,2.43,5.19,3.75,3.75,0,0,0,5.08-2.21c2.06-6,9-9,18.22-8.16A3.79,3.79,0,0,0,540.43,445.84Z"/><ellipse class="cls-3" cx="641.52" cy="345.42" rx="29.07" ry="41.63" transform="translate(-4.27 682.79) rotate(-55.88)"/><path class="cls-25" d="M665.44,365.58a17.22,17.22,0,0,0,2.11-2.55c7.5-11.09,1-28.11-15.17-39.61-14.39-10.24-31-11.61-39.37-3.25a17.12,17.12,0,0,0-2.11,2.55c-3.91,5.78-4.06,13.64-.42,21.57,3.06,6.66,8.6,13.07,15.58,18C640.46,372.57,657,373.94,665.44,365.58Z"/><path class="cls-26" d="M621.61,356.52c14.39,10.25,30.95,11.62,39.37,3.25a17.14,17.14,0,0,0,2.11-2.54c4.9-7.25,3.78-17-2.06-26.14,9.56,10.56,15.57,24.28,9.6,33.1-.61.91-3.29,4.25-4.07,5-8.42,8.36-26.1,3.35-40.5-6.89A50,50,0,0,1,613,348.8,52,52,0,0,0,621.61,356.52Z"/><path class="cls-28" d="M643.83,328.43a4.35,4.35,0,0,0,.73-1,3.59,3.59,0,0,0-1.33-5c-10.26-5.26-20.89-4.25-27.61,2.72a3.77,3.77,0,0,0-.17,5.29,3.55,3.55,0,0,0,5.23-.23c4.32-4.45,11.38-4.85,18.82-1A3.77,3.77,0,0,0,643.83,328.43Z"/><path class="cls-29" d="M609.91,717.85v-.12"/><g class="cls-18"><path class="cls-30" d="M724.75,291.7c1.71-2,1.9-4.86,2-6.93l.06-.83c.46-5.69,1.09-10.13,4.33-11.24a3.19,3.19,0,0,0,1.93-4.17,3.38,3.38,0,0,0-4.24-2c-7.44,2.54-8.13,11.07-8.59,16.72l-.07.93c-.07,1-.07,2.89-.54,3.21l-1,0-5.84-.23a7.22,7.22,0,0,1-2-.25,5.62,5.62,0,0,1-.79-.44c-.39-.24-.78-.47-1.18-.67a9.51,9.51,0,0,0-7.32-.39,9,9,0,0,0-5.35,4.82c-.18.41-.32.83-.46,1.26a6.11,6.11,0,0,1-.36.91,5.46,5.46,0,0,1-1.26.95L682.6,300.5a3.25,3.25,0,0,0-.92,4.52,3.38,3.38,0,0,0,4.58,1.06l11.46-7.25a8.14,8.14,0,0,0,4.22-5.19,6.55,6.55,0,0,1,.27-.74,2.71,2.71,0,0,1,1.62-1.37,2.86,2.86,0,0,1,2.18.05c.23.12.45.25.68.39a13.16,13.16,0,0,0,1.74.92,12.47,12.47,0,0,0,4.3.75l5.84.23a8.75,8.75,0,0,0,3.84-.49A6.13,6.13,0,0,0,724.75,291.7Z"/></g><g class="cls-18"><path class="cls-30" d="M656.06,257.83a3.07,3.07,0,0,0,.71-1.51,3.24,3.24,0,0,0-.09-1.49l.36-.18a5,5,0,0,0,2.48-2.41c1-2.25-.3-4.37-.73-5.07-3.14-5.09-4.84-12-1.54-15.86l0,0a17.87,17.87,0,0,1,3.52-2.84c.86-.59,1.71-1.18,2.52-1.83,3.08-2.45,3.37-3.87,2.8-7.49a3.53,3.53,0,0,0-3.79-3,3.07,3.07,0,0,0-2.76,3.55l0,.25c.06.38.12.68.16.94-.14.13-.35.3-.66.55-.69.55-1.42,1-2.15,1.54a23.45,23.45,0,0,0-4.75,4l0,0c-5.45,6.44-3.27,15.88.44,22.47l-5.93,3.06,1.62,2.93a7,7,0,0,0,4.68,3.43A3.19,3.19,0,0,0,656.06,257.83Z"/></g><g class="cls-18"><path class="cls-30" d="M467.83,346.94a4.56,4.56,0,0,0,.65-4.44,31.21,31.21,0,0,0-4-7.65c-2-3.11-3.79-5.79-3.25-8.32l.13-.53a6.8,6.8,0,0,0-.12-4.78,7.2,7.2,0,0,0-4.33-3.52,8.3,8.3,0,0,1-.86-.38c-1.5-.81-1.74-5.08-1.94-8.52-.29-5.1-.62-10.88-4.74-13.93-2.59-1.92-6-2.31-10.46-1.2a3.18,3.18,0,0,0-2.28,4,3.41,3.41,0,0,0,4.07,2.39c2.3-.57,4-.55,4.84.06,1.55,1.14,1.79,5.43,2,8.88.31,5.37.65,11.45,5.49,14.09a15.88,15.88,0,0,0,1.62.72l.4.16c0,.09-.05.18-.07.26l-.19.78c-1.11,5.19,1.72,9.51,4.21,13.32a38.73,38.73,0,0,1,2.57,4.31,3.14,3.14,0,0,0-.45,1.26,4,4,0,0,0,1.93,3.79,3.73,3.73,0,0,0,4.07-.05A4.14,4.14,0,0,0,467.83,346.94Z"/></g><g class="cls-18"><path class="cls-30" d="M494.66,314.43a3.24,3.24,0,0,0,.47-3.42l-4.81-10.84a7.45,7.45,0,0,0-2.41-3.26c-2.58-1.83-5.6-.8-6.59-.46a49,49,0,0,0-9.24,4.27,54.2,54.2,0,0,0-15.46-2.44,3.19,3.19,0,0,0-3.24,3.25,3.41,3.41,0,0,0,3.36,3.32,47.62,47.62,0,0,1,14.88,2.56l1.51.52,1.32-.85a43.08,43.08,0,0,1,9.17-4.42l.6-.18.08.19,4.81,10.84a3.38,3.38,0,0,0,4.35,1.79A3.21,3.21,0,0,0,494.66,314.43Z"/></g><g class="cls-18"><path class="cls-30" d="M523.61,597.35a3.2,3.2,0,0,0,.75-2.34c-.46-5.45-.65-7.71.65-12.48s4.55-8.44,8.26-9.35l.58-.13c1.59-.36,4-.87,5.37-3.15,1.69-2.78.38-5.79-.41-7.59l-.2-.46a11.73,11.73,0,0,1,1.87-11.91,3.13,3.13,0,0,0,.95-.68l1.42-1.46-4.36-5a18,18,0,0,0-5.94,21.48l.22.51a12.91,12.91,0,0,1,.62,1.58c-.33.11-.81.21-1.16.29l-.71.16c-6,1.48-10.95,6.78-12.88,13.83-1.6,5.87-1.33,9-.86,14.73a3.42,3.42,0,0,0,3.56,3.1A3.2,3.2,0,0,0,523.61,597.35Z"/></g><g class="cls-18"><path class="cls-30" d="M520.61,581.43a3.2,3.2,0,0,0,.48-3.41,43.24,43.24,0,0,0-11.48-15.35l-.11-.09c.23-.29.52-.6.72-.83l.65-.72h0c2.94-3.45,3.7-8.79,2-13.95-1.41-4.23-4.13-7.77-6.51-10.89a3.35,3.35,0,0,0-4.63-.7,3.22,3.22,0,0,0-.57,4.58c2.16,2.83,4.4,5.76,5.46,8.91,1,3,.67,6-.81,7.71h0l-.52.58c-1.23,1.34-3.52,3.86-2.34,7.16a7.38,7.38,0,0,0,2.4,3.13,36.31,36.31,0,0,1,9.72,13,3.39,3.39,0,0,0,4.36,1.79A3.09,3.09,0,0,0,520.61,581.43Z"/></g><g class="cls-18"><path class="cls-30" d="M419.37,531.85c1.79-2.1,1.28-5.31,1-6.77a8.77,8.77,0,0,1-.19-2.3,3.64,3.64,0,0,0,1.27-.09,14.88,14.88,0,0,0,1.79-.33c4.88-1.25,7.57-5.84,9.17-8.58a5.6,5.6,0,0,0,.89-4.06,6,6,0,0,0-2.65-3.58,3.09,3.09,0,0,1-1.31-2.2,6.16,6.16,0,0,1,1.24-4.42c1.86-2.31,4.93-3.72,8.18-5.19l.84-.38c4.34-2,8.66-4.38,10.89-8.84a3.34,3.34,0,0,0-1.5-4.44,3.22,3.22,0,0,0-4.41,1.36c-1.37,2.7-4.58,4.45-7.86,5.94l-.82.37c-3.63,1.63-7.76,3.52-10.54,7a12.52,12.52,0,0,0-2.55,9.28,9.74,9.74,0,0,0,3.5,6.33c-1.49,2.48-3,4.55-4.9,5a10.11,10.11,0,0,1-1.1.19,10.9,10.9,0,0,0-3.22.84c-4.32,2-3.59,6.65-3.23,8.89.07.42.16,1,.2,1.42a3.21,3.21,0,0,0-1.83,3.71,3.4,3.4,0,0,0,4,2.52A5.53,5.53,0,0,0,419.37,531.85Z"/></g><g class="cls-18"><path class="cls-30" d="M590.17,347.14a5.68,5.68,0,0,0,1.22-2.41,299.82,299.82,0,0,0,7.05-44.32,6.2,6.2,0,0,0-5.49-6.62,5.81,5.81,0,0,0-6.5,5.28,289.69,289.69,0,0,1-6.77,42.58,6.18,6.18,0,0,0,4.49,7.33A5.88,5.88,0,0,0,590.17,347.14Z"/></g><g class="cls-18"><path class="cls-30" d="M526.1,416.75a5.87,5.87,0,0,0,1-6,6.18,6.18,0,0,0-7.81-3.59A257.73,257.73,0,0,1,480.51,418a5.8,5.8,0,0,0-4.53,7,6.21,6.21,0,0,0,7.2,4.71,270.81,270.81,0,0,0,40.51-11.28A5.78,5.78,0,0,0,526.1,416.75Z"/></g></g><path d="M721.27,698.7V671.45L697.55,634h15.33l15.23,25.61L743,634H758.1l-23.81,37.58V698.7Z"/><path d="M754.92,674.58a25.33,25.33,0,0,1,3-12,20.91,20.91,0,0,1,8.64-8.83,25.5,25.5,0,0,1,12.47-3q10.65,0,17.44,6.91t6.8,17.46q0,10.65-6.86,17.65a23.23,23.23,0,0,1-17.29,7,27.27,27.27,0,0,1-12.3-2.91,20,20,0,0,1-8.9-8.54A28.53,28.53,0,0,1,754.92,674.58Zm12.71.67q0,7,3.32,10.68a10.82,10.82,0,0,0,16.31,0q3.3-3.7,3.29-10.77,0-6.88-3.29-10.6a10.82,10.82,0,0,0-16.31,0Q767.64,668.27,767.63,675.25Z"/><path d="M843.9,698.7v-7a18,18,0,0,1-6.74,5.92,18.9,18.9,0,0,1-8.81,2.16,17.22,17.22,0,0,1-8.47-2.07,12.24,12.24,0,0,1-5.44-5.83q-1.68-3.75-1.67-10.38V651.8h12.4v21.55q0,9.89.69,12.12a6.59,6.59,0,0,0,2.49,3.53,7.68,7.68,0,0,0,4.6,1.31,9.77,9.77,0,0,0,5.69-1.75,8.84,8.84,0,0,0,3.45-4.33q.93-2.58.92-12.65V651.8h12.41v46.9Z"/><path d="M892.25,701.79l14.18,1.72a4.83,4.83,0,0,0,1.63,3.4q1.77,1.32,5.56,1.32,4.86,0,7.29-1.45a6,6,0,0,0,2.47-3.14,18.89,18.89,0,0,0,.58-5.7V691.1q-5.57,7.59-14.05,7.6a17.29,17.29,0,0,1-15-8q-4.32-6.32-4.32-15.72,0-11.79,5.67-18a18.29,18.29,0,0,1,14.11-6.23q8.7,0,14.35,7.64V651.8h11.62v42.08q0,8.31-1.37,12.41a15.44,15.44,0,0,1-3.85,6.45,17,17,0,0,1-6.6,3.66,34.48,34.48,0,0,1-10.44,1.33q-11.93,0-16.91-4.09a12.79,12.79,0,0,1-5-10.35C892.21,702.88,892.22,702.38,892.25,701.79Zm11.08-27.51q0,7.46,2.9,10.92a8.9,8.9,0,0,0,7.13,3.47,9.85,9.85,0,0,0,7.68-3.55q3.13-3.55,3.14-10.54,0-7.27-3-10.81a9.52,9.52,0,0,0-7.59-3.54,9.16,9.16,0,0,0-7.35,3.47Q903.33,667.17,903.33,674.28Z"/><path d="M945.77,674.58a25.35,25.35,0,0,1,3.05-12,20.89,20.89,0,0,1,8.63-8.83,25.51,25.51,0,0,1,12.48-3q10.64,0,17.44,6.91t6.8,17.46q0,10.65-6.87,17.65a23.23,23.23,0,0,1-17.29,7,27.26,27.26,0,0,1-12.29-2.91,20,20,0,0,1-8.9-8.54A28.53,28.53,0,0,1,945.77,674.58Zm12.72.67q0,7,3.31,10.68a10.83,10.83,0,0,0,16.32,0q3.28-3.7,3.29-10.77,0-6.88-3.29-10.6a10.83,10.83,0,0,0-16.32,0Q958.49,668.27,958.49,675.25Z"/><path d="M1025.39,651.8v9.89h-8.48v18.9a47.5,47.5,0,0,0,.24,6.69,2.75,2.75,0,0,0,1.11,1.57,3.5,3.5,0,0,0,2.1.62,15.92,15.92,0,0,0,5-1.2l1.07,9.63a24.66,24.66,0,0,1-9.81,1.85,15.57,15.57,0,0,1-6.05-1.12,8.81,8.81,0,0,1-3.95-2.92,11.41,11.41,0,0,1-1.74-4.83,59.26,59.26,0,0,1-.4-8.74V661.69h-5.7V651.8h5.7v-9.32l12.45-7.24V651.8Z"/><path d="M1086.29,683.77l12.36,2.08a20.28,20.28,0,0,1-7.53,10.35q-5.14,3.56-12.87,3.55-12.24,0-18.11-8-4.64-6.4-4.63-16.16,0-11.65,6.09-18.26a20.07,20.07,0,0,1,15.41-6.6q10.47,0,16.52,6.91t5.78,21.17h-31.09c.09,3.68,1.09,6.55,3,8.59a9.36,9.36,0,0,0,7.15,3.07,7.59,7.59,0,0,0,4.9-1.59A9.78,9.78,0,0,0,1086.29,683.77Zm.7-12.54c-.09-3.59-1-6.32-2.78-8.19a8.95,8.95,0,0,0-13.16.15c-1.77,2-2.63,4.65-2.61,8Z"/><path d="M1118.7,666.11l-11.26-2q1.89-6.8,6.53-10.06t13.78-3.27q8.3,0,12.36,2a12.34,12.34,0,0,1,5.72,5q1.67,3,1.66,11.11l-.13,14.48a50.07,50.07,0,0,0,.59,9.12,26.75,26.75,0,0,0,2.23,6.3h-12.27c-.33-.83-.73-2.05-1.2-3.67-.2-.74-.35-1.22-.44-1.46a22.44,22.44,0,0,1-6.8,4.64,19.47,19.47,0,0,1-7.73,1.54q-7.23,0-11.41-3.92a13.08,13.08,0,0,1-4.17-9.94,13.4,13.4,0,0,1,1.89-7.09,12.48,12.48,0,0,1,5.33-4.77,41.54,41.54,0,0,1,9.87-2.89q8.68-1.64,12-3v-1.23q0-3.58-1.77-5.1c-1.17-1-3.4-1.53-6.66-1.53a7.45,7.45,0,0,0-8.17,5.88Zm16.6,10.06a76,76,0,0,1-7.55,1.9q-5.18,1.11-6.76,2.17a5.17,5.17,0,0,0-2.43,4.37,6.05,6.05,0,0,0,2,4.5,6.75,6.75,0,0,0,4.94,1.9,10.73,10.73,0,0,0,6.41-2.21,7.71,7.71,0,0,0,3-4.1,24.15,24.15,0,0,0,.49-6.05Z"/><path d="M1181.23,651.8v9.89h-8.48v18.9a47.5,47.5,0,0,0,.24,6.69,2.74,2.74,0,0,0,1.1,1.57,3.55,3.55,0,0,0,2.1.62,16,16,0,0,0,5-1.2l1.06,9.63a24.57,24.57,0,0,1-9.8,1.85,15.53,15.53,0,0,1-6-1.12,8.7,8.7,0,0,1-4-2.92,11.41,11.41,0,0,1-1.75-4.83,60.75,60.75,0,0,1-.4-8.74V661.69h-5.69V651.8h5.69v-9.32l12.46-7.24V651.8Z"/><path d="M1217,683.77l12.37,2.08a20.28,20.28,0,0,1-7.53,10.35q-5.14,3.56-12.87,3.55-12.24,0-18.11-8-4.63-6.4-4.64-16.16,0-11.65,6.1-18.26a20.07,20.07,0,0,1,15.41-6.6q10.47,0,16.52,6.91t5.78,21.17h-31.09c.09,3.68,1.09,6.55,3,8.59a9.36,9.36,0,0,0,7.15,3.07,7.59,7.59,0,0,0,4.9-1.59A9.71,9.71,0,0,0,1217,683.77Zm.71-12.54q-.14-5.38-2.78-8.19a8.95,8.95,0,0,0-13.16.15,11.43,11.43,0,0,0-2.61,8Z"/><path d="M1282.79,698.7h-12.41V674.76c0-5.06-.26-8.34-.79-9.82a6.84,6.84,0,0,0-2.59-3.47,7.39,7.39,0,0,0-4.3-1.24,10,10,0,0,0-5.79,1.77,9,9,0,0,0-3.51,4.68c-.63,1.94-1,5.54-1,10.78V698.7H1240V651.8h11.53v6.89q6.14-8,15.46-8a18.52,18.52,0,0,1,7.5,1.48,12.66,12.66,0,0,1,5.15,3.77,13.79,13.79,0,0,1,2.43,5.21,39.32,39.32,0,0,1,.68,8.35Z"/><path d="M1300.23,682,1297,649.15V634h13.42v15.19L1307.25,682Zm-2.69,16.7V686.29H1310V698.7Z"/><path class="cls-31" d="M732.78,559V536.13H765V583q-9.24,10.28-16.34,14a35.87,35.87,0,0,1-16.85,3.72q-12,0-19.56-6.68t-11.73-19.89a101.08,101.08,0,0,1-4.16-30.32q0-18,4.55-31.33t13.34-20.23q6.84-5.32,18.43-5.33,11.18,0,16.71,3.31a25.08,25.08,0,0,1,9.2,10.24,59.59,59.59,0,0,1,5.49,17.6L744,524q-1.25-6.22-4.2-9.53a9.73,9.73,0,0,0-7.57-3.3q-6.85,0-10.92,7.77t-4.07,24.58q0,17.85,4.12,25.51t11.47,7.66a14.28,14.28,0,0,0,6.67-1.65,33,33,0,0,0,7.26-5.63V559Z"/><path d="M731.77,602.75c-8.47,0-15.5-2.42-20.89-7.18s-9.43-11.67-12.3-20.79a103.13,103.13,0,0,1-4.26-30.92c0-12.17,1.57-22.93,4.66-32,3.15-9.21,7.85-16.32,14-21.15,4.91-3.82,11.53-5.76,19.67-5.76,7.89,0,13.69,1.18,17.74,3.59a27.14,27.14,0,0,1,9.94,11A61.91,61.91,0,0,1,766,517.78l.31,1.76-23.9,7-.43-2.14c-.75-3.77-2-6.66-3.73-8.58a7.74,7.74,0,0,0-6.08-2.64c-3.79,0-6.79,2.19-9.15,6.7-2.54,4.86-3.84,12.82-3.84,23.65,0,11.51,1.31,19.78,3.88,24.56,2.39,4.45,5.56,6.61,9.71,6.61a12.26,12.26,0,0,0,5.74-1.43,29.14,29.14,0,0,0,6.19-4.71V561H730.78V534.13H767V583.8l-.51.57c-6.29,7-12,11.86-16.91,14.43A38,38,0,0,1,731.77,602.75ZM732.64,489c-7.23,0-13,1.65-17.21,4.91-5.51,4.33-9.77,10.83-12.66,19.29-2.95,8.64-4.45,19-4.45,30.69a99.43,99.43,0,0,0,4.07,29.72c2.65,8.41,6.4,14.8,11.14,19s10.78,6.18,18.24,6.18a34.13,34.13,0,0,0,15.92-3.49c4.38-2.29,9.51-6.66,15.27-13V538.13H734.78V557h13.93v13.2l-.61.59a34,34,0,0,1-7.73,6,16.36,16.36,0,0,1-7.59,1.88c-5.68,0-10.13-2.93-13.23-8.71-2.93-5.45-4.36-14.11-4.36-26.46,0-11.65,1.41-20,4.3-25.51,3.07-5.87,7.34-8.84,12.69-8.84a11.65,11.65,0,0,1,9.05,4,20.06,20.06,0,0,1,4.19,8.35l16.33-4.76a56,56,0,0,0-5-15.25,23.35,23.35,0,0,0-8.45-9.46C745,490,739.69,489,732.64,489Z"/><path class="cls-31" d="M818.76,580.71H795.12l-3.29,18.16H770.57l25.33-110h22.72l25.33,110H822.14Zm-4.31-23.79L807,517.37l-7.37,39.55Z"/><path d="M846.46,600.87h-26l-3.37-18.16H796.79l-3.28,18.16H768.06l26.25-114h25.9Zm-22.66-4h17.63l-24.4-106H797.49l-24.41,106h17.08l3.29-18.16h27Zm-6.94-38H797.24L807,506.5Zm-14.81-4h10l-5-26.68Z"/><path class="cls-31" d="M850.34,488.85h27.39l10.56,66.94,10.49-66.94h27.37v110H909.09V515L896,598.87H880.51L867.39,515v83.9h-17Z"/><path d="M928.15,600.87H907.09V540.66l-9.43,60.21H878.8l-9.41-60.16v60.16h-21v-114h31.1l8.84,56.07,8.79-56.07h31.08Zm-17.06-4h13.06v-106H900.49L888.3,568.67,876,490.85H852.34v106h13V515l4-.31,12.85,82.21h12l12.88-82.21,4,.31Z"/><path class="cls-31" d="M939.39,488.85H995.2v23.49H960.26v17.49h32.41v22.44H960.26V574h36v24.92H939.39Z"/><path d="M998.21,600.87H937.39v-114H997.2v27.49H962.26v13.49h32.41v26.44H962.26V572h36Zm-56.82-4h52.82V576h-36V550.27h32.41V531.83H958.26V510.34H993.2V490.85H941.39Z"/><path class="cls-31" d="M1036.21,543.94q0-27,9.2-42T1071,487q16.82,0,25.93,14.75t9.1,41.32q0,19.28-4,31.63t-11.49,19.21q-7.51,6.87-18.74,6.87-11.4,0-18.87-5.93t-12.11-18.76Q1036.21,563.22,1036.21,543.94Zm20.83.15q0,16.65,3.79,23.94t10.32,7.28q6.72,0,10.39-7.13t3.68-25.6q0-15.52-3.84-22.7T1071,512.72q-6.3,0-10.11,7.28T1057,544.09Z"/><path d="M1071.84,602.75c-8,0-14.79-2.14-20.11-6.37s-9.54-10.77-12.75-19.64-4.77-19.77-4.77-32.8c0-18.26,3.2-32.72,9.49-43,6.49-10.59,15.68-16,27.32-16,11.9,0,21.2,5.29,27.63,15.7,6.24,10.11,9.4,24.36,9.4,42.37,0,13-1.37,23.85-4.07,32.24s-6.81,15.28-12,20.08S1079.8,602.75,1071.84,602.75ZM1071,489c-10.29,0-18.11,4.6-23.91,14.06-5.9,9.64-8.9,23.4-8.9,40.91,0,12.56,1.53,23.14,4.53,31.44s6.81,14.17,11.47,17.87,10.53,5.5,17.63,5.5,12.72-2.08,17.39-6.35,8.41-10.49,10.94-18.35,3.88-18.43,3.88-31c0-17.26-3-30.8-8.81-40.27C1089.51,493.49,1081.59,489,1071,489Zm.13,88.34c-5.13,0-9.2-2.82-12.09-8.36-2.71-5.19-4-13.32-4-24.86s1.32-19.83,4-25c2.91-5.54,6.91-8.35,11.89-8.35,5.16,0,9.25,2.76,12.18,8.22,2.74,5.12,4.07,12.86,4.07,23.64,0,12.75-1.27,21.42-3.9,26.51C1080.51,574.54,1076.42,577.31,1071.15,577.31Zm-.18-62.59c-3.42,0-6.15,2-8.34,6.2-2.38,4.54-3.59,12.34-3.59,23.17s1.2,18.47,3.57,23c2.17,4.18,5,6.21,8.54,6.21s6.52-2,8.62-6c2.29-4.45,3.45-12.75,3.45-24.68,0-10-1.21-17.29-3.6-21.75C1077.42,516.71,1074.59,514.72,1071,514.72Z"/><path class="cls-31" d="M1106.6,488.85h21.77L1143.54,568l15-79.18h21.14l-25,110h-22.57Z"/><path d="M1156.22,600.87h-25.75l-26.39-114h26l13.5,70.48,13.33-70.48h25.3Zm-22.57-4H1153l24.12-106h-17l-16.62,87.87-16.83-87.87h-17.6Z"/><path class="cls-31" d="M1186.41,488.85h55.82v23.49h-34.94v17.49h32.41v22.44h-32.41V574h36v24.92h-56.83Z"/><path d="M1245.24,600.87h-60.83v-114h59.82v27.49h-34.94v13.49h32.41v26.44h-32.41V572h36Zm-56.83-4h52.83V576h-36V550.27h32.41V531.83h-32.41V510.34h34.94V490.85h-51.82Z"/><path class="cls-31" d="M1254.73,598.87v-110h34.71q9.66,0,14.76,2.7t8.23,10q3.12,7.32,3.13,17.83a46.54,46.54,0,0,1-2.4,15.79,28.23,28.23,0,0,1-6.57,10.77,20.42,20.42,0,0,1-7.32,4.35,19,19,0,0,1,5.42,4.06,32.14,32.14,0,0,1,3.33,5.79,49.62,49.62,0,0,1,2.92,6.83L1321,598.87H1297.5l-11.14-33.62q-2.11-6.53-3.77-8.48a6.68,6.68,0,0,0-5.1-2.55h-1.84v44.65Zm20.92-65.44h8.78a20.52,20.52,0,0,0,5.52-1.5,6,6,0,0,0,3.38-3.45,14.84,14.84,0,0,0,1.31-6.38c0-3.56-.69-6.28-2.07-8.18s-4-2.86-7.77-2.86h-9.15Z"/><path d="M1323.76,600.87h-27.71l-11.59-35c-1.73-5.37-2.87-7.2-3.39-7.82a4.8,4.8,0,0,0-3.42-1.84v44.65h-24.92v-114h36.71c6.83,0,12,1,15.7,2.93s6.87,5.72,9.13,11c2.18,5.1,3.29,11.36,3.29,18.61a49,49,0,0,1-2.51,16.47,30.48,30.48,0,0,1-7.06,11.52,19.35,19.35,0,0,1-4.48,3.22,15.46,15.46,0,0,1,2.72,2.47,34.14,34.14,0,0,1,3.59,6.19,50.29,50.29,0,0,1,3,7.14Zm-24.82-4h19.36L1309,567.59a48.74,48.74,0,0,0-2.8-6.55,29.7,29.7,0,0,0-3.06-5.37,17.07,17.07,0,0,0-4.86-3.6l-3.85-2.1,4.12-1.53a18.6,18.6,0,0,0,6.6-3.9,26.45,26.45,0,0,0,6.1-10,44.87,44.87,0,0,0,2.28-15.11c0-6.7-1-12.44-3-17-1.89-4.43-4.35-7.47-7.33-9s-7.74-2.47-13.82-2.47h-32.71v106h16.92V552.22h3.84a8.62,8.62,0,0,1,6.6,3.22c1.33,1.57,2.65,4.48,4.17,9.19Zm-14.51-61.44h-10.78V509.06h11.15c4.46,0,7.62,1.24,9.39,3.68,1.62,2.24,2.45,5.39,2.45,9.36a16.9,16.9,0,0,1-1.5,7.23,7.94,7.94,0,0,1-4.57,4.5C1286.72,535.24,1285.26,535.43,1284.43,535.43Zm-6.78-4h6.78c.25,0,1.34-.1,4.83-1.38a4.16,4.16,0,0,0,2.26-2.43,12.89,12.89,0,0,0,1.12-5.52c0-3.11-.57-5.47-1.69-7-1-1.34-3-2-6.15-2h-7.15Z"/></g></svg>