<svg xmlns="http://www.w3.org/2000/svg" viewBox="0 0 200 200"><defs><style>.cls-1{fill:#4a5023;}.cls-2{fill:#5a6037;}.cls-3{fill:#5c6139;}.cls-4{fill:#85903f;}.cls-5{fill:#97a15c;}.cls-6{fill:#a9b178;}.cls-7{fill:#60653d;}.cls-8{fill:#37222b;}.cls-9{fill:#e6e6e6;}.cls-10{fill:#816274;}.cls-11{fill:#725466;}.cls-12{fill:#937c8a;}.cls-13{fill:#656a44;}.cls-14{fill:#9ca758;}.cls-15{fill:#d2f78b;}.cls-16{fill:#bcd638;}.cls-17{fill:#e8f1bb;}.cls-18{opacity:0.45;}.cls-19{fill:#68624f;}.cls-20{opacity:0.63;}.cls-21{fill:#6e676b;}.cls-22{opacity:0.48;}</style></defs><g id="Zombie3"><g id="Zombie3_WIP_copy_2" data-name="Zombie3 WIP copy 2"><g id="LEGS_copy_4" data-name="LEGS copy 4"><ellipse class="cls-1" cx="128.57" cy="160.83" rx="40.53" ry="21.91" transform="translate(-71.7 208.7) rotate(-64.8)"/><ellipse class="cls-2" cx="131.8" cy="153.98" rx="40.53" ry="21.91" transform="translate(-63.64 207.68) rotate(-64.8)"/><ellipse class="cls-3" cx="114.29" cy="164.73" rx="21.38" ry="40.31" transform="translate(-86.16 160.62) rotate(-54.07)"/><ellipse class="cls-4" cx="110.15" cy="158.5" rx="21.23" ry="40.59" transform="translate(-82.05 176.26) rotate(-60.48)"/><ellipse class="cls-5" cx="123.27" cy="177.47" rx="3.86" ry="10.12" transform="translate(-80.82 248.45) rotate(-74.39)"/></g><g id="ARMS_copy_4" data-name="ARMS copy 4"><path class="cls-4" d="M54.9,136.93c7.81-2.19,34.69-10.46,26.73-27.1s-20.44-7.26-26.26-5.09-22.1,7-23.59,7.65c-3.57-8-18-15.76-16.42,4,0,0-15.52-.23-13.72,19.13,4.75,18.71,20.08,11.89,24.8,10.66S54.9,136.93,54.9,136.93Z"/><ellipse class="cls-6" cx="9.91" cy="127.61" rx="6.33" ry="3.79" transform="translate(-99.93 61.9) rotate(-54.67)"/><ellipse class="cls-6" cx="19.5" cy="109.87" rx="3.97" ry="2.25" transform="translate(-91.62 120.09) rotate(-85.19)"/><path class="cls-7" d="M81.41,109.39c1.48,13.55-21.07,20.47-28.11,22.45,0,0-23.74,8-28.46,9.21-4.29,1.11-17.32,6.84-23.23-6.13l0,.56c4.75,18.71,20.08,11.89,24.8,10.66s28.46-9.21,28.46-9.21c7.81-2.19,34.69-10.46,26.73-27.1C81.56,109.68,81.48,109.54,81.41,109.39Z"/><path class="cls-4" d="M164.36,91.24c-6.32,5-28.6,21.62-36.49,7s6.65-19.52,11.77-22.94,18.44-13.61,19.85-14.43c-4-6.81-1.25-21.92,12.77-10.73,0,0,9.07-12.15,22.69-1,11.38,13.14-2.92,21.58-6.67,24.62S164.36,91.24,164.36,91.24Z"/><path class="cls-7" d="M184.63,71.25c-3.75,3-23.93,17.42-23.93,17.42-5.2,4.07-21.21,16.07-31.12,12,9,10,28.87-4.86,34.78-9.48,0,0,20.18-14.38,23.92-17.42S206.33,62.34,195,49.2a25.3,25.3,0,0,0-3.59-2.48C202.61,59.81,188.36,68.22,184.63,71.25Z"/><ellipse class="cls-5" cx="141.51" cy="79.31" rx="21.01" ry="2.68" transform="translate(-20.26 91.32) rotate(-33.51)"/><ellipse class="cls-5" cx="162.59" cy="54.81" rx="2.51" ry="4.33" transform="translate(-6.22 24.08) rotate(-8.31)"/></g><g id="BODY_copy_4" data-name="BODY copy 4"><path class="cls-4" d="M156.76,107.19c-6.15-21.4-31.92-43.39-60.35-34.34s-40.55,41.57-34.69,63.06c7.6,27.85,17.66,31.91,57.42,10.25C161.16,137.37,164.38,133.71,156.76,107.19Z"/><path class="cls-7" d="M154.61,101.33c4.41,15.1,6.82,22.33,3.3,29.7-3.92,8.25-19.55,5.16-36.72,10.92-19.8,7.12-31.17,19.37-41.53,17-5-1.13-10.64-6.46-12.94-11.49,3.9,11.44,7.9,16.95,16.5,17.71,7.89.7,21-11,40.17-17.43s28.9-2.14,34.08-8.27c5.51-6.53,4.41-15.37-.41-31.85A65.21,65.21,0,0,0,154,99.41C154.21,100.05,154.42,100.7,154.61,101.33Z"/><ellipse class="cls-5" cx="74.35" cy="114.58" rx="19.37" ry="7.43" transform="translate(-49.8 171.51) rotate(-81.65)"/></g><g id="HEAD_copy_4" data-name="HEAD copy 4"><path class="cls-8" d="M139.75,74.78C127.85,94.13,83.57,113,53.43,100c-14-32,17.72-48.64,36.78-54C107.35,41.21,146,37.39,139.75,74.78Z"/><path class="cls-9" d="M117.07,67.6,129,46.91c-5.79-4.62-12.5-5-19.68-4.13Z"/><path class="cls-9" d="M53.2,67.69c-4.32,5-6.87,15-9.67,20.6l22.93,4.49Z"/><path class="cls-9" d="M72.8,81,68.43,54.15a78,78,0,0,0-15,13.27Z"/><path class="cls-9" d="M69,53.78,86.38,72.41l.81-27-.38.08A63.5,63.5,0,0,0,69,53.78Z"/><path class="cls-9" d="M102.15,68.47l7.15-25.69c-7-.7-14.16.65-21,2.36Z"/><path class="cls-9" d="M129.67,46.59V72.41L140.79,62C140.79,52.67,135.21,49,129.67,46.59Z"/><path class="cls-10" d="M101.92,79.62c0,.06.14.58.16.67,3.15,13.06,3.26,16.4,2.5,16.61s-2.18-3.16-5.33-16.23c0-.14-.06-.28-.1-.43-6.48-.91-10.77,4.86-8.39,16.31,2.62,12.64,10.71,21.63,18.06,20.09s11.2-13,8.58-25.7C114.87,78.73,105.09,75.73,101.92,79.62Z"/><path class="cls-11" d="M107.68,112.45c-6.32,1.33-13.17-5.12-16.64-15C93.78,109.84,101.73,118.57,109,117s11.2-13.05,8.58-25.69a28.7,28.7,0,0,0-1.3-4.54C118.86,99.43,115,110.91,107.68,112.45Z"/><ellipse class="cls-12" cx="94.25" cy="90.05" rx="5.67" ry="2.89" transform="translate(-1.55 178.45) rotate(-86.4)"/><ellipse class="cls-12" cx="107.48" cy="84.93" rx="2.86" ry="3.96" transform="translate(-2.32 3.02) rotate(-1.59)"/><path class="cls-13" d="M145.28,30.73C131.1,1.65,104.1-3.9,66.77,9.85c-46.12,19.2-50.89,74.24-11.95,90.91C39.33,66,72.6,51.1,88.91,46.36c14.37-4.18,58.63-11.78,49.85,29.69C148.42,64.15,151.61,49.45,145.28,30.73Z"/><path class="cls-4" d="M144.89,28.7C130.72-.37,102-5.95,64.71,7.8,23.64,23.44,15.85,74.43,50,94.56,42.81,67.29,62.81,51.93,87.58,44c23.89-7.68,58.57-4.33,51.28,31.22C150.49,61.76,151.22,47.43,144.89,28.7Z"/><ellipse class="cls-14" cx="51.43" cy="24.41" rx="17.2" ry="5.01" transform="translate(-3.64 38.84) rotate(-40.07)"/><path class="cls-15" d="M102.24,26.18c-1-4.26.27-8.12,3-9.17a4.2,4.2,0,0,1,.79-.22,5.62,5.62,0,0,1,5,2.09,11.92,11.92,0,0,1,2.68,5.32A12.41,12.41,0,0,1,114,28l1.2-.09a14.06,14.06,0,0,0-.24-2.54c-.55-5.66-4-9-7.75-9.46-6-.74-6.59,5.05-6,10.72A14.21,14.21,0,0,0,101.6,29l1.57-.12A13.11,13.11,0,0,1,102.24,26.18Z"/><path class="cls-16" d="M113.7,24.2A11.92,11.92,0,0,0,111,18.88a5.62,5.62,0,0,0-5-2.09,4.2,4.2,0,0,0-.79.22c-2.72,1-4,4.91-3,9.17a13.11,13.11,0,0,0,.93,2.67L114,28A12.41,12.41,0,0,0,113.7,24.2Z"/><path class="cls-17" d="M105.65,17.73a4.13,4.13,0,0,0-2.51,4.52.71.71,0,0,0,.79.62.86.86,0,0,0,.23-.06.68.68,0,0,0,.45-.68c-.13-1.56.46-2.74,1.57-3.14a.64.64,0,0,0,.42-.88A.74.74,0,0,0,105.65,17.73Z"/><path class="cls-15" d="M56.68,43.52C54.16,38.68,54.74,33.44,58,31.8s7.91,1,10.43,5.81a15.69,15.69,0,0,1,.77,1.76l1.22-.71c-.1-.2-.2-.41-.32-.61-3.26-5.77-8.87-8.82-12.52-6.82s-4,8.3-.71,14.07c.18.32.38.63.57.94l.74-.43A15,15,0,0,1,56.68,43.52Z"/><path class="cls-16" d="M58,31.8c-3.24,1.64-3.82,6.88-1.3,11.72a15,15,0,0,0,1.48,2.29l.8-.47a12.62,12.62,0,0,1-1.77-2.65c-2-3.85-1.7-7.93.61-9.69a5,5,0,0,1,.69-.43,5.26,5.26,0,0,1,5.21.65,11.4,11.4,0,0,1,3.79,4.41,12.25,12.25,0,0,1,.88,2.21l.81-.47a15.69,15.69,0,0,0-.77-1.76C65.89,32.77,61.22,30.17,58,31.8Z"/><path class="cls-16" d="M67.49,37.63a11.4,11.4,0,0,0-3.79-4.41,5.26,5.26,0,0,0-5.21-.65,5,5,0,0,0-.69.43c-2.31,1.76-2.57,5.84-.61,9.69A12.62,12.62,0,0,0,59,45.34l9.41-5.5A12.25,12.25,0,0,0,67.49,37.63Z"/><path class="cls-17" d="M59.15,33.24a4.13,4.13,0,0,0-2.79,4.43.72.72,0,0,0,.79.64.59.59,0,0,0,.23,0,.67.67,0,0,0,.5-.66c-.06-1.58.6-2.74,1.76-3.09a.64.64,0,0,0,.48-.86A.78.78,0,0,0,59.15,33.24Z"/></g><g id="FOLDS_copy_4" data-name="FOLDS copy 4"><g class="cls-18"><path class="cls-19" d="M37.07,69.11A3.52,3.52,0,0,1,35,68.74l-.22-.09c-1.54-.61-2.77-1-3.5-.34A.94.94,0,1,1,30,66.93c1.66-1.57,4-.65,5.48-.05l.25.1c.26.11.76.36.91.28l.13-.27.72-1.52a1.86,1.86,0,0,0,.21-.54,1.15,1.15,0,0,0,0-.26c0-.13,0-.26,0-.38a2.77,2.77,0,0,1,2.85-2.66l.39,0a1.06,1.06,0,0,0,.28,0,1.71,1.71,0,0,0,.42-.2l3.41-2a1,1,0,0,1,1.3.35A.94.94,0,0,1,46,61.15l-3.41,2a3,3,0,0,1-1.15.45,3.06,3.06,0,0,1-.77,0l-.23,0a.79.79,0,0,0-.57.23.82.82,0,0,0-.28.56c0,.08,0,.15,0,.23a2.94,2.94,0,0,1-.38,1.75l-.73,1.51a2.48,2.48,0,0,1-.64.92A1.84,1.84,0,0,1,37.07,69.11Z"/></g><g class="cls-18"><path class="cls-19" d="M41.73,47.76a.89.89,0,0,1-.78-.42l-.11,0a1.39,1.39,0,0,1-2-1c-.54-1.62-1.75-3.26-3.24-3.27h0a5.45,5.45,0,0,0-1.3.24c-.29.08-.59.15-.88.21a1.87,1.87,0,0,1-2.2-.78,1,1,0,0,1,.06-1.37.93.93,0,0,1,1.32.06l0,.06c.08.08.13.15.19.2l.24,0a6.8,6.8,0,0,0,.75-.18,7,7,0,0,1,1.78-.29h0c2.47,0,4.15,2.22,4.91,4.24l1.81-.72.34.89a2,2,0,0,1-.12,1.65A1,1,0,0,1,41.73,47.76Z"/></g><g class="cls-18"><path class="cls-19" d="M146.35,168.57a1,1,0,0,1-.86.34,5.46,5.46,0,0,1-1.63-.45,2.33,2.33,0,0,0-1.73-.26l-.1.05a1.34,1.34,0,0,1-.95.2,1.25,1.25,0,0,1-.82-.69l-.09-.16c-.2-.26-1.06-.11-1.74,0-1,.19-2.18.39-2.89-.29a2.28,2.28,0,0,1-.5-2,.72.72,0,0,1,.73-.64.61.61,0,0,1,.58.7,1.25,1.25,0,0,0,.13,1c.27.26,1.12.1,1.81,0,1.08-.19,2.3-.4,2.94.44a2.9,2.9,0,0,1,.19.29l0,.07,0,0,.15-.07a3.31,3.31,0,0,1,2.75.21,5.54,5.54,0,0,0,.92.31,1.58,1.58,0,0,1,.24-.15.73.73,0,0,1,.8.21.76.76,0,0,1,.1.82A.71.71,0,0,1,146.35,168.57Z"/></g><g class="cls-18"><path class="cls-19" d="M76.84,13.62a.94.94,0,0,1-.74-.68l-.89-3.27a2,2,0,0,1,0-1.15,2.06,2.06,0,0,1,1.41-1.26,14.36,14.36,0,0,1,2.88-.68,15.61,15.61,0,0,1,3.07-3.27A.95.95,0,0,1,83.69,4.8,13.86,13.86,0,0,0,80.78,8l-.24.38-.46,0a13,13,0,0,0-2.89.63L77,9.12a.43.43,0,0,0,0,.05l.9,3.27a1,1,0,0,1-.66,1.17A.9.9,0,0,1,76.84,13.62Z"/></g><g class="cls-18"><path class="cls-19" d="M146.91,45.08c-.78-.21-1.19-1-1.38-1.43a2.37,2.37,0,0,0-.34-.57,1,1,0,0,1-.32.18,3.48,3.48,0,0,1-.48.21,4.87,4.87,0,0,1-3.63-.57,1.69,1.69,0,0,1-.89-.81,1.71,1.71,0,0,1,0-1.27.91.91,0,0,0,0-.73,1.82,1.82,0,0,0-1-.84,6.31,6.31,0,0,0-2.82.08l-.26,0a6.19,6.19,0,0,1-4.09-.35,1,1,0,0,1-.38-1.29.94.94,0,0,1,1.28-.38,4.7,4.7,0,0,0,2.88.15l.25,0a8.1,8.1,0,0,1,3.7,0,3.73,3.73,0,0,1,2.16,1.79,2.74,2.74,0,0,1,.22,2.05,3,3,0,0,0,2,.41l.29-.13a3.34,3.34,0,0,1,.91-.32c1.38-.21,2,1,2.26,1.58.05.11.13.26.19.37a1,1,0,0,1,1.06.59A.94.94,0,0,1,148,45,1.62,1.62,0,0,1,146.91,45.08Z"/></g><g class="cls-18"><path class="cls-19" d="M63.16,139a.53.53,0,0,1-.06-.4,5.29,5.29,0,0,1,2.28-3,13.44,13.44,0,0,1,6.35-2.5,18,18,0,0,1,3.06.06c.66.05,1.29.1,1.94.09A15,15,0,0,1,80,128.82l1.18-1.15,1.07.36a4.54,4.54,0,0,0,3.45-1,2.15,2.15,0,0,1,2.18-.49c.45.32.2,1-.55,1.62a11,11,0,0,1-6.11,2.32,8.55,8.55,0,0,0-1.86,3.34l-.31,1.24-1.7.34a14.88,14.88,0,0,1-4.42.13,15.64,15.64,0,0,0-2.56-.06,7.63,7.63,0,0,0-3.45,1.32c-.54.4-.64.66-.67.83a2.54,2.54,0,0,1-1.76,1.57C63.84,139.4,63.33,139.31,63.16,139Z"/></g><g class="cls-18"><path class="cls-19" d="M183.29,59.56h0a1,1,0,0,1-.92-1l.11-5,1.21.4a1.67,1.67,0,0,0,2-1.47,4.58,4.58,0,0,0-.28-1.2c-.06-.19-.13-.39-.18-.59l-.12-.43c-.43-1.51-.88-3.07.12-4.78a1,1,0,0,1,1.64,1c-.57,1-.37,1.8.06,3.3l.12.44c0,.17.11.34.16.52a5.55,5.55,0,0,1,.37,1.76,3.4,3.4,0,0,1-1.45,2.74,3.57,3.57,0,0,1-1.83.7l-.06,2.69A1,1,0,0,1,183.29,59.56Z"/></g><g class="cls-18"><path class="cls-19" d="M158.64,95.45a.93.93,0,0,1-1.08-.46c-2.34-4.26-2.62-6.69,1.82-10.06a11.42,11.42,0,0,1-1.15-2.87,4.51,4.51,0,0,1,1.33-4.39.95.95,0,1,1,1.19,1.47,2.66,2.66,0,0,0-.66,2.53,10.93,10.93,0,0,0,1.16,2.73l.58,1.11-.68.48c-4.14,2.92-4.05,4.22-1.93,8.09a1,1,0,0,1-.37,1.29Z"/></g><g class="cls-18"><path class="cls-19" d="M148.87,112.26h-.24a2.62,2.62,0,0,1-1.85-1,4.32,4.32,0,0,1-.34-.53,1.39,1.39,0,0,0-.24-.35,1.63,1.63,0,0,0-.62-.12,12.76,12.76,0,0,0-5.78,1l-.74.32-.43-.68a7.28,7.28,0,0,0-1-1.18.58.58,0,0,1-.19,0,1,1,0,0,1-.77-.77,1.13,1.13,0,0,1,.59-1.12,1,1,0,0,1,1.22.12,8.46,8.46,0,0,1,1.24,1.3,15,15,0,0,1,5.92-.92,2.46,2.46,0,0,1,2.4,1.43c.06.1.12.2.19.3a.82.82,0,0,0,1.08.09,2.27,2.27,0,0,0,.34-.42,3.56,3.56,0,0,1,.85-.91,3.45,3.45,0,0,1,3-.16,2.47,2.47,0,0,0,1.49.14,1,1,0,0,1,.83,1.71,3.9,3.9,0,0,1-2.8,0c-.71-.18-1.19-.29-1.46-.11a2.37,2.37,0,0,0-.38.45,4.29,4.29,0,0,1-.61.73A2.59,2.59,0,0,1,148.87,112.26Z"/></g><g class="cls-18"><path class="cls-19" d="M27,131.46a.76.76,0,0,1-.06-.61,1,1,0,0,1,1.14-.71,5,5,0,0,1,3.24,2.23l.13.15a5.71,5.71,0,0,1,.75,1.33c.1.22.2.44.32.65h0A9.19,9.19,0,0,0,35.1,137c1.56,1.16,3.18,2.37,3.37,4.46a1,1,0,0,1-.83,1,.79.79,0,0,1-1-.67c-.14-1.43-1.42-2.39-2.78-3.41a10.13,10.13,0,0,1-3-2.95h0a7.76,7.76,0,0,1-.37-.77,4.34,4.34,0,0,0-.56-1l-.12-.15c-.74-.91-1.23-1.51-2.25-1.67A.79.79,0,0,1,27,131.46Z"/></g><g class="cls-18"><path class="cls-19" d="M138.31,139.2a1.51,1.51,0,0,1-.41-.06c-5.06-1.39-6-3.47-5.88-5a3.31,3.31,0,0,1,.08-.55,2,2,0,0,0,.05-.42c0-.77-1.65-1.34-2.88-1.69-3-.87-4.58-2.57-4-4.32a1.37,1.37,0,0,1,1.61-.78,1.1,1.1,0,0,1,.93,1.34c-.19.58,1.05,1.32,2.35,1.7s4.59,1.33,4.64,3.71a3.62,3.62,0,0,1-.08.8,2,2,0,0,0-.06.34c-.1,1.4,2.52,2.34,4.09,2.77a1.06,1.06,0,0,1,.84,1.37A1.33,1.33,0,0,1,138.31,139.2Z"/></g><g class="cls-18"><path class="cls-19" d="M96.09,175.34a1,1,0,0,1-.89-.61,1,1,0,0,1,.55-1.23l6.62-2.54a11,11,0,0,1,3.55-.9.93.93,0,0,1,1,.92,1,1,0,0,1-.92,1,9.31,9.31,0,0,0-2.93.78l-6.62,2.53A.78.78,0,0,1,96.09,175.34Z"/></g><g class="cls-18"><path class="cls-19" d="M77.51,155.79a13.44,13.44,0,0,1-6.72-1.87,1,1,0,0,1-.37-1.29.93.93,0,0,1,1.28-.37,11.52,11.52,0,0,0,8.56,1.35,1,1,0,0,1,1.11.75.94.94,0,0,1-.75,1.11A16.59,16.59,0,0,1,77.51,155.79Z"/></g><g class="cls-20"><path class="cls-21" d="M64.78,29a.91.91,0,0,1-.23,0l-12-3.22a1.62,1.62,0,0,1-.91-1.85c.12-.85.72-1.42,1.35-1.24l12,3.22a1.61,1.61,0,0,1,.91,1.85C65.8,28.43,65.32,29,64.78,29Z"/></g><g class="cls-20"><line class="cls-21" x1="96.5" y1="17.61" x2="106.4" y2="9.63"/><path class="cls-21" d="M96.5,18.59a1.49,1.49,0,0,1-.87-.27.85.85,0,0,1,0-1.39l9.9-8a1.5,1.5,0,0,1,1.76,0,.84.84,0,0,1,0,1.39l-9.9,8A1.43,1.43,0,0,1,96.5,18.59Z"/></g><g class="cls-18"><path class="cls-19" d="M137.81,19.86a.84.84,0,0,1-.47.11,1,1,0,0,1-.42-.12l-.07.08a1.52,1.52,0,0,1-.86.55,1.55,1.55,0,0,1-1.37-.53c-1.21-1.2-3-2.11-4.36-1.43h0a5,5,0,0,0-1.05.8c-.23.2-.46.41-.7.59a1.88,1.88,0,0,1-2.31.31,1,1,0,0,1-.56-1.25.91.91,0,0,1,1.2-.54l.06,0,.26.1.2-.14c.2-.16.39-.33.59-.51a6.9,6.9,0,0,1,1.45-1.07h0c2.2-1.11,4.7.09,6.29,1.55L137,16.9l.71.64a2,2,0,0,1,.63,1.53A.92.92,0,0,1,137.81,19.86Z"/></g><g class="cls-18"><path class="cls-19" d="M43.82,120.24a.88.88,0,0,1-.21-.12c-2.5-2-2.52-3.51-2.09-4.46,0-.11.12-.22.18-.34a1.19,1.19,0,0,0,.13-.25c.18-.5-.6-1.21-1.2-1.71-1.47-1.2-1.94-2.62-1.2-3.64a.81.81,0,0,1,1.09-.16.75.75,0,0,1,.19,1.06c-.24.34.27,1.08.91,1.6s2.24,1.83,1.69,3.38a2.88,2.88,0,0,1-.24.5,2,2,0,0,0-.12.21c-.4.88.84,2,1.62,2.65A.74.74,0,0,1,44.7,120,.77.77,0,0,1,43.82,120.24Z"/></g><g class="cls-22"><path class="cls-21" d="M113.3,33.48h-.14a64.28,64.28,0,0,0-11.6-.52,1,1,0,1,1-.09-2,65.53,65.53,0,0,1,12,.53,1,1,0,0,1,.85,1.12A1,1,0,0,1,113.3,33.48Z"/></g><g class="cls-22"><path class="cls-21" d="M60.31,50a1,1,0,0,1-.68-1.73A51.1,51.1,0,0,1,70,40.77a1,1,0,0,1,1,1.75A48.81,48.81,0,0,0,61,49.7,1,1,0,0,1,60.31,50Z"/></g></g></g></g></svg>