<svg xmlns="http://www.w3.org/2000/svg" viewBox="0 0 200 200"><defs><style>.cls-1{fill:#706957;}.cls-2{fill:#827a65;}.cls-3{fill:#7d765f;}.cls-4{fill:#8c846a;}.cls-5{fill:#9c967f;}.cls-6{fill:#d2f78b;}.cls-7{fill:#37222b;}.cls-8{fill:#e6e6e6;}.cls-9{fill:#91fa00;}.cls-10{fill:#816274;}.cls-11{fill:#725466;}.cls-12{fill:#937c8a;}.cls-13{fill:#64a005;}.cls-14{fill:#c9d94e;}.cls-15{fill:#cff784;}.cls-16{fill:none;}.cls-17{opacity:0.45;}.cls-18{fill:#68624f;}</style></defs><g id="Zombie1"><ellipse class="cls-1" cx="81.01" cy="157.23" rx="28.03" ry="37.22" transform="translate(-45.22 33.34) rotate(-18.28)"/><ellipse class="cls-2" cx="78.83" cy="150.62" rx="28.03" ry="37.22" transform="translate(-43.26 32.32) rotate(-18.28)"/><ellipse class="cls-3" cx="121.9" cy="161.7" rx="37.22" ry="28.03" transform="translate(-59.62 251.46) rotate(-79.3)"/><ellipse class="cls-4" cx="122.81" cy="155.85" rx="37.22" ry="28.03" transform="translate(-53.13 247.58) rotate(-79.3)"/><ellipse class="cls-5" cx="114.52" cy="181.44" rx="5.16" ry="11.22" transform="translate(-97.43 214.79) rotate(-66.68)"/><ellipse class="cls-5" cx="65.14" cy="171.61" rx="4.06" ry="10.67" transform="matrix(0.85, -0.53, 0.53, 0.85, -81.32, 60.96)"/><path class="cls-4" d="M53.51,107.84c8.55.27,38.2.49,35.45-18.73S70.7,75.35,64.16,75.69s-24.43,0-26.15.2C37,66.74,24.9,54.38,20.25,74.66c0,0-15.54-5.14-19.84,14.86C-.73,109.8,16.84,107.81,22,108.07S53.51,107.84,53.51,107.84Z"/><ellipse class="cls-5" cx="11.21" cy="84.24" rx="6.66" ry="3.99" transform="translate(-48.51 23.78) rotate(-37.07)"/><ellipse class="cls-5" cx="26.46" cy="69.47" rx="4.17" ry="2.38" transform="translate(-47.86 67.58) rotate(-67.69)"/><path class="cls-3" d="M88.87,88.6c-2.79,14.06-27.65,13.87-35.36,13.63,0,0-26.39.48-31.53.22C17.31,102.22,2.4,103.83.55,89c-.05.19-.1.37-.14.57C-.73,109.8,16.84,107.81,22,108.07s31.53-.23,31.53-.23c8.55.27,38.2.49,35.45-18.73C88.93,88.93,88.9,88.77,88.87,88.6Z"/><path class="cls-4" d="M150.63,120.64c-6.51-4-28.76-18.52-18-30.3s19.86-.4,24.59,3.06,18.26,12.06,19.44,13c4.93-5.73,19.52-8.23,13.83,7.93,0,0,13.93,4.15,8.12,19.94-8.3,14.43-20.53,4.4-24.49,2S150.63,120.64,150.63,120.64Z"/><path class="cls-3" d="M175.26,132.25c-4-2.35-23.46-15.71-23.46-15.71-5.35-3.32-21.37-13.72-20.88-23.87-6.22,11.29,13.63,24.2,19.71,28,0,0,19.5,13.35,23.46,15.71s16.19,12.39,24.49-2a24,24,0,0,0,1.12-4C191.39,144.59,179.21,134.6,175.26,132.25Z"/><ellipse class="cls-5" cx="154.18" cy="96.37" rx="2.57" ry="20.03" transform="translate(-14.83 163.42) rotate(-53.65)"/><ellipse class="cls-5" cx="183.16" cy="107.23" rx="4.17" ry="2.38" transform="translate(-28.86 97.46) rotate(-27.71)"/><path class="cls-4" d="M157.2,123.71c2.27-23.65-15.92-56.07-49.61-59s-59.8,24-62.41,47.66c-3.38,30.62-.92,33.91,54.92,38C148.12,154,154.39,153,157.2,123.71Z"/><path class="cls-3" d="M158.86,117.8c-3.29,34.8-9.59,36-57.62,32.59-43.12-3.09-54.38-6.1-55.49-24C44.62,150.68,53,154,101.24,157.49c48,3.44,54.33,2.21,57.62-32.59a62.57,62.57,0,0,0,.15-9.21C159,116.39,158.93,117.1,158.86,117.8Z"/><ellipse class="cls-5" cx="70.12" cy="101.9" rx="25.18" ry="11.25" transform="translate(-51.21 125.95) rotate(-66.68)"/><path class="cls-6" d="M88.8,118.05a4.06,4.06,0,0,0,.89,2.38.4.4,0,0,0,.28.14c.23,0,.27-.33.25-.56-.11-1-.21-2-.32-2.94-.05-.46,0-2.54-.47-2.66C88.16,114.08,88.75,117.67,88.8,118.05Z"/><path class="cls-7" d="M141.27,79.27l-.16-.14"/><path class="cls-7" d="M153.05,92.76C133.86,107,84.73,108.13,60.27,83.64,89.91,58.12,127.74,58.47,153.05,92.76Z"/><path class="cls-8" d="M124.25,91.87,140.48,79a58.82,58.82,0,0,0-13.58-9.17Z"/><path class="cls-8" d="M79.65,70.31A58.31,58.31,0,0,0,67.4,77.93L79.51,90.37Z"/><path class="cls-8" d="M91.2,85.92l3.21-20.38A62.89,62.89,0,0,0,79.9,70.2Z"/><path class="cls-8" d="M94.91,65.45,102.43,84l7.94-19.12-.29,0A53.74,53.74,0,0,0,94.91,65.45Z"/><path class="cls-8" d="M114.32,86.55l12.45-16.83A51.77,51.77,0,0,0,111.23,65Z"/><path class="cls-8" d="M141.21,79.62l-5.16,17.67,13.73-7.63A56,56,0,0,0,141.21,79.62Z"/><path class="cls-9" d="M77.12,132.64a2.76,2.76,0,0,1-.57-.06c-1.86-.44-2.87-2.91-3.17-4.89a25.54,25.54,0,0,1,.07-6.19l1-10a38.3,38.3,0,0,0-.47-10.59,12.78,12.78,0,0,0-2.82-5.92c-.47-.64-1-1.31-1.43-2.07l-2.23-3.48L71,91.47c12.6,7.32,25.8,10.72,41.54,10.72a153.23,153.23,0,0,0,26.29-2.57l2-.34-.95,1.79c-.53,1-1.73,2.81-3.12,4.88-2.15,3.23-4.83,7.25-5.41,9a18.42,18.42,0,0,0-.65,4.6,32.09,32.09,0,0,1-.35,3.51c-.62,3.51-2.5,6.36-4.8,7.25a2.47,2.47,0,0,1-.93.2,1.84,1.84,0,0,1-.77-.17c-1.1-.51-1.49-2-1.63-3.16a23.19,23.19,0,0,1,.37-6c.12-.76.23-1.52.31-2.27.29-2.63-.25-5-1.32-5.77l-.21,0a1.28,1.28,0,0,0-.3,0l-.4.06a33.79,33.79,0,0,1-4.16.24c-2.47,0-4.94-.22-7.34-.43-2-.18-4.17-.36-6.22-.4h-.51l-1.28,0c-2.88,0-4.79.48-6.1,2.94a17.74,17.74,0,0,0-.9,2.17,19.55,19.55,0,0,1-1.05,2.49,3.83,3.83,0,0,1-3.08,2.33,2.29,2.29,0,0,1-1.54-.62c-1.61-1.47-1.42-4.76-1.32-5.73.06-.58.14-1.17.23-1.75a19.2,19.2,0,0,0,.28-3,.79.79,0,0,0-.3,0c-.91,0-2.09,1.21-2.79,2.88a30.17,30.17,0,0,0-1.59,7c-.09.54-.17,1.07-.25,1.61-.46,2.87-1.23,6.43-3.1,8.47A3.53,3.53,0,0,1,77.12,132.64Z"/><path class="cls-6" d="M77.12,133.25a3.36,3.36,0,0,1-.71-.08c-2.15-.51-3.28-3.12-3.63-5.39a26.26,26.26,0,0,1,.06-6.34l1-10A37.9,37.9,0,0,0,73.34,101a12.27,12.27,0,0,0-2.72-5.66c-.47-.66-1-1.34-1.46-2.1l-3.58-5.6,5.74,3.34c12.51,7.26,25.61,10.65,41.24,10.65A152.89,152.89,0,0,0,138.74,99l3.22-.55-1.52,2.88c-.55,1-1.76,2.85-3.15,4.94-2,3-4.79,7.18-5.34,8.82a17.86,17.86,0,0,0-.63,4.44,31.2,31.2,0,0,1-.35,3.58c-.65,3.72-2.69,6.75-5.18,7.72a2.68,2.68,0,0,1-2.17,0c-1.08-.5-1.76-1.76-2-3.64A23.44,23.44,0,0,1,122,121c.11-.75.23-1.5.31-2.25.27-2.52-.27-4.45-.95-5.11l-.15,0c-.18,0-.31.06-.45.07a33.36,33.36,0,0,1-4.24.25c-2.5,0-5-.22-7.39-.43-2-.18-4.14-.37-6.18-.41h-.51l-1.27,0c-2.71,0-4.4.42-5.57,2.63a16.38,16.38,0,0,0-.86,2.07,18.42,18.42,0,0,1-1.09,2.59,4.42,4.42,0,0,1-3.61,2.65,2.82,2.82,0,0,1-2-.79c-1.77-1.61-1.65-4.89-1.52-6.23.06-.59.15-1.18.24-1.78.11-.76.22-1.49.26-2.2a4.65,4.65,0,0,0-1.91,2.39,30.16,30.16,0,0,0-1.55,6.86l0,.12c-.08.5-.15,1-.23,1.5-.48,3-1.28,6.62-3.26,8.78A4.08,4.08,0,0,1,77.12,133.25ZM69.31,91.18l.88,1.36c.48.75,1,1.41,1.41,2a13.45,13.45,0,0,1,2.93,6.18A38.66,38.66,0,0,1,75,111.51l-1,10a24.83,24.83,0,0,0-.07,6c.29,1.94,1.25,4,2.71,4.39a2.7,2.7,0,0,0,2.53-1.07c1.76-1.92,2.5-5.37,3-8.16.08-.49.15-1,.23-1.48l0-.12A30.7,30.7,0,0,1,84.05,114c.68-1.63,2-3.26,3.35-3.26a1.57,1.57,0,0,1,.49.08l.41.14v.43a20.15,20.15,0,0,1-.29,3c-.09.58-.17,1.16-.23,1.73-.18,1.86,0,4.2,1.13,5.22s2.68.28,3.68-1.55a18.5,18.5,0,0,0,1-2.41,17.36,17.36,0,0,1,.93-2.24c1.45-2.72,3.61-3.27,6.64-3.27l1.3,0h.5c2.09,0,4.21.23,6.27.41,2.37.21,4.83.42,7.28.42a32.82,32.82,0,0,0,4.09-.23l.35-.06a2.06,2.06,0,0,1,.71,0l.15,0,.13.09c1.25.91,1.88,3.45,1.57,6.32-.09.77-.2,1.53-.32,2.3a22.08,22.08,0,0,0-.36,5.86c.09.82.38,2.27,1.28,2.68a1.74,1.74,0,0,0,1.22,0c2.1-.82,3.84-3.49,4.42-6.8a30.35,30.35,0,0,0,.34-3.44,18.88,18.88,0,0,1,.69-4.75c.6-1.8,3.31-5.86,5.48-9.11,1.37-2.07,2.56-3.85,3.08-4.83l.37-.71-.78.14a154.32,154.32,0,0,1-26.39,2.58c-15.85,0-29.15-3.43-41.85-10.81Z"/><path class="cls-6" d="M76,118.55l1-8.21a1.26,1.26,0,0,1,.36-.88,1.73,1.73,0,0,1,.36,1.43l-.61,13.41c0,.53,0,4.63-.43,4.58-.65-.08-1.07-2.76-1.13-3.24A29.08,29.08,0,0,1,76,118.55Z"/><path class="cls-10" d="M109.37,88.88c-.06,0,0,.42,0,.49-.58,9.49-1.43,11.73-2.25,11.68s-1.3-2.67-.72-12.16a3,3,0,0,0,0-.31c-6.28-2.27-12.27.46-13.17,8.68-1,9.08,4.59,17.13,12.47,18s15.07-5.8,16.06-14.88C122.71,91.61,113.7,87.11,109.37,88.88Z"/><path class="cls-11" d="M105.73,112.18C99,111.44,93.91,105.39,93.24,98c-.8,8.91,4.73,16.76,12.49,17.61s15.08-5.8,16.07-14.88a13.81,13.81,0,0,0,0-3.35C120.79,106.4,113.6,113,105.73,112.18Z"/><ellipse class="cls-12" cx="98.62" cy="93.84" rx="4.26" ry="2.87" transform="translate(-36.36 111.54) rotate(-51.05)"/><ellipse class="cls-12" cx="113.47" cy="93.84" rx="3.13" ry="2.7" transform="translate(-23.71 40.32) rotate(-18.28)"/><path class="cls-3" d="M177.18,52.76c-2.56-33.95-28-49.6-69.93-50.73-52.66.76-78.76,52.7-47.11,84.18C86,61.94,128.72,58.63,152,94.82,166.08,87,176.09,73.53,177.18,52.76Z"/><path class="cls-4" d="M176,51.74C173.43,17.8,147.51,1.15,105.59,0,52.94.79,26.83,52.73,58.48,84.21,84.35,59.94,127.93,54.85,151.2,91,165.3,83.18,174.91,72.52,176,51.74Z"/><ellipse class="cls-5" cx="87.15" cy="17.78" rx="17.38" ry="10.5" transform="translate(-1.6 23.62) rotate(-15.3)"/><ellipse class="cls-3" cx="89.55" cy="42.26" rx="16.29" ry="10.83" transform="translate(41.07 128.61) rotate(-85.95)"/><ellipse class="cls-3" cx="136.05" cy="44.76" rx="15.48" ry="10.02" transform="translate(66.8 170.13) rotate(-79.3)"/><ellipse class="cls-6" cx="89.25" cy="41.31" rx="14.34" ry="9.42" transform="translate(38.81 125.73) rotate(-83.98)"/><path class="cls-9" d="M89.07,52.94a6.41,6.41,0,0,1-1.16,0c-4.67-.55-7.57-6.23-6.76-13.22.72-6.23,4.27-11,8.44-11.34a6.41,6.41,0,0,1,1.16,0c2.43.28,4.52,2.06,5.73,4.87a16.72,16.72,0,0,1,1,8.35C96.79,47.83,93.24,52.6,89.07,52.94Z"/><path class="cls-13" d="M97.51,39c-.72,6.23-4.27,11-8.44,11.33a6.41,6.41,0,0,1-1.16,0c-3.84-.45-6.48-4.36-6.85-9.62-.43,6.51,1.66,12.41,6.09,12.92a14.27,14.27,0,0,0,1.73,0c4.17-.33,7.91-5.81,8.63-12a18.55,18.55,0,0,0,0-3.49C97.54,38.41,97.55,38.71,97.51,39Z"/><path class="cls-9" d="M134.86,56.34a5.35,5.35,0,0,1-1.13-.12c-4.51-1-6.93-7.22-5.62-14.48,1.16-6.47,5-11.14,9.06-11.11a4.78,4.78,0,0,1,1.13.13c2.35.51,4.26,2.56,5.23,5.62a18.73,18.73,0,0,1,.39,8.85C142.76,51.7,139,56.37,134.86,56.34Z"/><path class="cls-13" d="M143.66,42.53c-1.16,6.47-5,11.14-9.07,11.11a4.78,4.78,0,0,1-1.13-.13c-2.94-.65-5-3.54-5.69-7.48.12,5.29,1.88,10.51,5.46,11.3a20.51,20.51,0,0,0,2.21.27c4.09,0,7.32-5.9,8.48-12.37a19.86,19.86,0,0,0,.05-7A21,21,0,0,1,143.66,42.53Z"/><path class="cls-14" d="M84.73,36.74c1.18-3.66,3.6-5.61,6.25-5.54"/><path class="cls-15" d="M84.73,38.07a1.51,1.51,0,0,1-.41-.06,1.34,1.34,0,0,1-.86-1.68c1.32-4.07,4.22-6.58,7.55-6.47a1.35,1.35,0,0,1,1.3,1.37,1.31,1.31,0,0,1-1.37,1.3c-2.13-.08-4,1.67-4.94,4.62A1.34,1.34,0,0,1,84.73,38.07Z"/><path class="cls-15" d="M131.43,40.85a1.22,1.22,0,0,1-.41-.07,1.33,1.33,0,0,1-.86-1.67c1.32-4.07,4.21-6.57,7.55-6.47A1.34,1.34,0,0,1,139,34a1.28,1.28,0,0,1-1.36,1.3c-2.14-.06-4,1.68-5,4.62A1.33,1.33,0,0,1,131.43,40.85Z"/><path class="cls-6" d="M90,120.3c-.34,0-.6-.31-.74-.62a7.24,7.24,0,0,1-.16-4.08l.18-1.15c0-.22.1-.57.31-.62a4.36,4.36,0,0,1,0,1.25,16.53,16.53,0,0,0,.42,5C90,120.17,90,120.21,90,120.3Z"/><path class="cls-16" d="M102.66,118.85v0"/><path class="cls-6" d="M123.81,125.21a3,3,0,0,0,.8,2.63,1,1,0,0,0,.63.24.45.45,0,0,0,.47-.35,4.37,4.37,0,0,1-.89-2.57c-.18-1.88.7-4.24.14-6A17.56,17.56,0,0,0,123.81,125.21Z"/><g class="cls-17"><path class="cls-18" d="M53.14,64.13a3.64,3.64,0,0,1-2-.88l-.21-.15c-1.43-1-2.59-1.71-3.5-1.19a1,1,0,0,1-1-1.74c2.08-1.19,4.22.31,5.64,1.3l.23.16c.24.18.69.55.86.5l.2-.24,1.11-1.37A2.22,2.22,0,0,0,54.8,60a2,2,0,0,0,.05-.26c0-.14,0-.27.08-.4a2.88,2.88,0,0,1,1.37-1.74,2.85,2.85,0,0,1,2.2-.28c.14,0,.26.09.39.14a1.29,1.29,0,0,0,.29.09,1.73,1.73,0,0,0,.47-.1l4-1.2a1,1,0,1,1,.57,1.91l-4,1.2a2.9,2.9,0,0,1-1.28.17,2.58,2.58,0,0,1-.78-.22l-.23-.08a.94.94,0,0,0-1.07.61,1.85,1.85,0,0,0,0,.23,4,4,0,0,1-.13.58A3.78,3.78,0,0,1,56,61.78l-1.11,1.37a2.69,2.69,0,0,1-.89.78A2,2,0,0,1,53.14,64.13Z"/></g><g class="cls-17"><path class="cls-18" d="M59.44,41a1,1,0,0,1-.49-.13,1,1,0,0,1-.34-.31l-.11.05a1.67,1.67,0,0,1-1.06.1,1.64,1.64,0,0,1-1-1.16c-.57-1.7-1.84-3.42-3.41-3.43h0a5.53,5.53,0,0,0-1.37.25c-.31.08-.62.16-.94.22a2,2,0,0,1-2.31-.82,1,1,0,0,1,.06-1.44,1,1,0,0,1,1.39.07l0,0,.19.22.26,0c.26,0,.53-.12.79-.19A7.25,7.25,0,0,1,53,34.12h0c2.6,0,4.37,2.33,5.17,4.46l1.91-.76.36.94a2,2,0,0,1-.13,1.73A1,1,0,0,1,59.44,41Z"/></g><g class="cls-17"><path class="cls-18" d="M120.65,18.17a1.41,1.41,0,0,1-1.17-.71,9.22,9.22,0,0,1-1-2.4c-.32-1.07-.6-2-1.3-2.36l-.15-.07a2.11,2.11,0,0,1-1.09-1A2.05,2.05,0,0,1,116,10a2.76,2.76,0,0,0,.08-.27c.11-.49-.84-1.38-1.61-2.09-1.13-1.06-2.42-2.25-2.31-3.78A3.56,3.56,0,0,1,114,1.25a1,1,0,1,1,1.14,1.64c-.6.41-.94.8-1,1.11,0,.57.91,1.46,1.68,2.18,1.2,1.11,2.56,2.37,2.2,4a3.28,3.28,0,0,1-.15.51l0,.12.07,0,.22.11c1.44.75,1.89,2.23,2.28,3.54a11.17,11.17,0,0,0,.5,1.42,1.07,1.07,0,0,1,.39.14,1.19,1.19,0,0,1,.5,1.18,1.14,1.14,0,0,1-.83.91A1.1,1.1,0,0,1,120.65,18.17Z"/></g><g class="cls-17"><path class="cls-18" d="M108.29,16.71a1,1,0,0,1-.89-.56L105.82,13a2.09,2.09,0,0,1-.28-1.18,2.16,2.16,0,0,1,1.21-1.59,15.48,15.48,0,0,1,2.85-1.27,16.49,16.49,0,0,1,2.52-4,1,1,0,1,1,1.51,1.31,14.29,14.29,0,0,0-2.37,3.88l-.18.44-.47.14a13.39,13.39,0,0,0-2.87,1.22l-.16.11,0,.05,1.58,3.2a1,1,0,0,1-.9,1.44Z"/></g><g class="cls-17"><path class="cls-18" d="M169.05,77.93a1,1,0,0,1-.7-.28,9,9,0,0,0-3.06-2.28,4,4,0,0,0-3.84.06l-.15.11a2.38,2.38,0,0,1-1.81.61,2.47,2.47,0,0,1-1.7-1.57l-.06-.13a3.64,3.64,0,0,0-3.17-1.89.85.85,0,0,1-.35.08l-.63,0-.3-2a5.59,5.59,0,0,1,6.22,2.82l.08.15a3.09,3.09,0,0,0,.24.44l.31-.2.18-.13a5.9,5.9,0,0,1,5.81-.24,10.85,10.85,0,0,1,3.63,2.66,1,1,0,0,1-.7,1.71Z"/></g><g class="cls-17"><path class="cls-18" d="M165,73.34a1,1,0,0,1-.9-.56,12.74,12.74,0,0,1-1.3-5.59v0h-.65a4.49,4.49,0,0,1-3.66-2.26,11.08,11.08,0,0,1-1.25-3.59,1,1,0,1,1,2-.43,9.8,9.8,0,0,0,1,3,2.53,2.53,0,0,0,2,1.31h.24a1.88,1.88,0,0,1,2.4,2,10.83,10.83,0,0,0,1.09,4.73,1,1,0,0,1-.89,1.44Z"/></g><g class="cls-17"><path class="cls-18" d="M172.37,40.69a2.64,2.64,0,0,1-1.8-1.08,2.5,2.5,0,0,0-.5-.49c0,.05-.14.16-.27.27l-.44.35a5.25,5.25,0,0,1-3.85.42,1.57,1.57,0,0,1-1.44-1.89.9.9,0,0,0-.25-.72,1.89,1.89,0,0,0-1.28-.58,6.85,6.85,0,0,0-2.86.85l-.25.12a6.59,6.59,0,0,1-4.26.76,1,1,0,0,1-.73-1.2,1,1,0,0,1,1.2-.74,4.93,4.93,0,0,0,3-.64l.25-.11a8.53,8.53,0,0,1,3.76-1,3.91,3.91,0,0,1,2.68,1.23,2.87,2.87,0,0,1,.79,2,3.16,3.16,0,0,0,2.16-.13,2.75,2.75,0,0,0,.26-.22,3.83,3.83,0,0,1,.84-.57c1.34-.59,2.28.48,2.73,1l.3.33a1,1,0,0,1,1,1.69A1.75,1.75,0,0,1,172.37,40.69Z"/></g><g class="cls-17"><path class="cls-18" d="M26.89,108.71a1,1,0,0,1-.4-.08,2.68,2.68,0,0,1-1.55-2,4.55,4.55,0,0,1,1.11-3.82,12.57,12.57,0,0,1,1.72-1.49c.4-.31.79-.61,1.13-.92a7.7,7.7,0,0,1-2.35-2.87l-.42-.91.9-.42a1.81,1.81,0,0,0,.95-2A1,1,0,0,1,28.72,93a1,1,0,0,1,1.2.74,3.84,3.84,0,0,1-1.15,3.66,5.62,5.62,0,0,0,2.1,1.86l1,.5-.61.93A9,9,0,0,1,29,102.93a10.68,10.68,0,0,0-1.46,1.24,2.62,2.62,0,0,0-.63,2.07.7.7,0,0,0,.4.56,1,1,0,0,1-.4,1.91Z"/></g><g class="cls-17"><path class="cls-18" d="M41.84,90.81h0a1,1,0,0,1-1-1L41,84.53l1.28.43a1.6,1.6,0,0,0,1.41-.3,1.58,1.58,0,0,0,.71-1.26,4.52,4.52,0,0,0-.28-1.25c-.07-.21-.14-.42-.2-.63l-.13-.45c-.45-1.59-.92-3.23.14-5a1,1,0,1,1,1.72,1c-.6,1-.39,1.89.06,3.48l.13.45c.05.19.11.37.17.55a6.2,6.2,0,0,1,.39,1.85,3.59,3.59,0,0,1-1.53,2.89A3.77,3.77,0,0,1,42.9,87l-.06,2.83A1,1,0,0,1,41.84,90.81Z"/></g><g class="cls-17"><path class="cls-18" d="M181.34,140.43a1,1,0,0,1-1-.77c-1.17-5-.77-7.53,4.7-9.68a11.67,11.67,0,0,1-.35-3.24,4.69,4.69,0,0,1,2.59-4.06,1,1,0,0,1,.79,1.83,2.78,2.78,0,0,0-1.39,2.37,11.56,11.56,0,0,0,.4,3.09l.28,1.29-.83.29c-5,1.79-5.31,3.13-4.25,7.65a1,1,0,0,1-.74,1.2Z"/></g><g class="cls-17"><path class="cls-18" d="M182,134.63h-.07c-1.78-.12-4.24-.52-5-2.63a6.57,6.57,0,0,1-.3-1.87c0-.72-.08-1.24-.3-1.34a1.85,1.85,0,0,0-.56,0h-.26a5.92,5.92,0,0,1-5.74-5.62,1,1,0,0,1,1-1,1,1,0,0,1,1,1,3.94,3.94,0,0,0,3.75,3.68h.22a3.37,3.37,0,0,1,1.38.19c1.38.59,1.46,2,1.52,3.07a4.72,4.72,0,0,0,.17,1.28c.29.77,1.36,1.21,3.29,1.33a1,1,0,0,1-.07,2Z"/></g><g class="cls-17"><path class="cls-18" d="M150.27,133.88H150a2.76,2.76,0,0,1-1.95-1,4,4,0,0,1-.36-.55,1.56,1.56,0,0,0-.25-.37,1.64,1.64,0,0,0-.65-.13,13.57,13.57,0,0,0-6.1,1.11l-.78.34-.46-.72a7.57,7.57,0,0,0-1-1.25.67.67,0,0,1-.2,0,1,1,0,0,1-.8-.82,1.19,1.19,0,0,1,.61-1.18,1.15,1.15,0,0,1,1.3.13,9.37,9.37,0,0,1,1.3,1.37,15.64,15.64,0,0,1,6.24-1,2.59,2.59,0,0,1,2.53,1.49,2.14,2.14,0,0,0,.2.32.79.79,0,0,0,.55.27.85.85,0,0,0,.59-.17,2.93,2.93,0,0,0,.36-.44,3.58,3.58,0,0,1,.89-1,3.65,3.65,0,0,1,3.18-.17,2.66,2.66,0,0,0,1.57.15,1,1,0,1,1,.87,1.8,4.15,4.15,0,0,1-2.95,0c-.74-.2-1.25-.31-1.53-.12a2.34,2.34,0,0,0-.41.48,4.23,4.23,0,0,1-.64.76A2.76,2.76,0,0,1,150.27,133.88Z"/></g><g class="cls-17"><path class="cls-18" d="M49.72,144.85a1,1,0,0,1-.67-.26,1,1,0,0,1-.07-1.41c1.25-1.37,2.71-1.59,4.26-1.83l.23,0a8.1,8.1,0,0,1,1.84,0c.29,0,.58.05.87.05h0a12.11,12.11,0,0,0,4.14-1.08c2.14-.83,4.37-1.68,6.67-.78a1,1,0,0,1,.57,1.29,1,1,0,0,1-1.3.57c-1.58-.62-3.35.06-5.22.78a13.81,13.81,0,0,1-4.86,1.22h0c-.34,0-.69,0-1-.06a6.39,6.39,0,0,0-1.38,0l-.24,0c-1.38.21-2.3.35-3.07,1.19A1,1,0,0,1,49.72,144.85Z"/></g><g class="cls-17"><path class="cls-18" d="M119.72,158.23a.87.87,0,0,1-.31,0c-3.86-1.27-4.57-3.17-4.49-4.54a4.46,4.46,0,0,1,.07-.51,2.33,2.33,0,0,0,0-.38c0-.7-1.26-1.22-2.2-1.55-2.29-.79-3.49-2.34-3.07-3.95a1,1,0,1,1,1.93.51c-.14.54.8,1.21,1.79,1.56s3.5,1.22,3.54,3.4a3.5,3.5,0,0,1-.06.72,1.75,1.75,0,0,0,0,.32c-.08,1.28,1.92,2.13,3.12,2.53a1,1,0,0,1-.32,1.94Z"/></g><g class="cls-17"><path class="cls-18" d="M135.67,176.67a1,1,0,0,1-.36-1.94l7-2.67a11.36,11.36,0,0,1,3.74-.94,1,1,0,1,1,.06,2,9.71,9.71,0,0,0-3.09.82l-7,2.67A1.15,1.15,0,0,1,135.67,176.67Z"/></g><g class="cls-17"><path class="cls-18" d="M83.69,174.09a1,1,0,0,1-.45-1.89,51.74,51.74,0,0,0,8.63-5.47,1,1,0,1,1,1.23,1.57,54.71,54.71,0,0,1-9,5.69A1,1,0,0,1,83.69,174.09Z"/></g><g class="cls-17"><path class="cls-18" d="M101.52,163.67a14.2,14.2,0,0,1-7.09-2,1,1,0,0,1-.39-1.35,1,1,0,0,1,1.36-.4,12.13,12.13,0,0,0,9,1.43,1,1,0,0,1,.38,2A17.53,17.53,0,0,1,101.52,163.67Z"/></g><g class="cls-17"><path class="cls-18" d="M87.83,63.75a8.46,8.46,0,0,1-.87,0c-4.91-.47-7.45-4.72-7.91-5.56A1.22,1.22,0,1,1,81.19,57c.35.65,2.32,4,6,4.31,4,.39,6.72-3.07,7-3.46a1.21,1.21,0,1,1,1.94,1.44C95.8,59.75,92.68,63.75,87.83,63.75Z"/></g><g class="cls-17"><path class="cls-18" d="M132.52,66.69a8.81,8.81,0,0,1-1.81-.18c-4.83-1-6.89-5.5-7.26-6.39a1.22,1.22,0,1,1,2.25-.92c.28.69,1.88,4.18,5.51,4.93,3.95.82,7-2.33,7.34-2.69a1.21,1.21,0,0,1,1.78,1.65A11.54,11.54,0,0,1,132.52,66.69Z"/></g></g></svg>