<svg id="Layer_1" data-name="Layer 1" xmlns="http://www.w3.org/2000/svg" viewBox="0 0 200 200"><defs><style>.cls-1{fill:red;}.cls-2{fill:#9c0000;}.cls-3{fill:#ff7078;}</style></defs><path class="cls-1" d="M200,64.78C200,29.5,173.71.9,141.27.9,125.18.9,110.62,8,100,19.34h0C89.38,8,74.82.9,58.73.9,26.29.9,0,29.5,0,64.78a66.6,66.6,0,0,0,17,44.87h0L100,200l83.06-90.34h0A66.6,66.6,0,0,0,200,64.78Z"/><path class="cls-2" d="M200,64.78a67.74,67.74,0,0,0-8.09-32.24,68.48,68.48,0,0,1,3.86,22.63,66.59,66.59,0,0,1-17,44.87h0L95.77,190.39l-83-90.34h0A63.7,63.7,0,0,1,3.85,87.35,64.9,64.9,0,0,0,17,109.65h0L100,200l83.06-90.34h0A66.6,66.6,0,0,0,200,64.78Z"/><path class="cls-3" d="M99.14,175.59,30.87,100C23,92.67,13.6,77.14,13.72,61.5,13.94,34.81,34,13.36,58.56,13.59a40.92,40.92,0,0,1,6.09.57A55.6,55.6,0,0,0,42.32,58.48c-.12,15.17,6.1,31,12.36,41.4Z"/></svg>