<svg xmlns="http://www.w3.org/2000/svg" viewBox="0 0 400 100"><defs><style>.cls-1{fill:gray;}.cls-2{fill:#ccc;}</style></defs><g id="Seetings"><rect class="cls-1" x="5.34" y="4.63" width="393.8" height="95.37" rx="32.16"/><rect class="cls-2" x="0.15" width="393.8" height="95.37" rx="32.16"/><path d="M152.08,37.54c1.11.83,1.37,2.79.78,5.9q-.54,2.7-1.53,6.05Q149.8,59,148.12,67.62c-.65,3.29-1.27,4.87-1.88,4.74a2.71,2.71,0,0,1-1.18-.53q-.59-.14-4,2.7l-.32-.08c-1.84-.36-2.57-1.55-2.17-3.59-.18,0-.5-.52-1-1.47l.89-3,.48-2.46c.09-.47-1.37-1.17-4.37-2.12q.19-.95-5-2.22L125,58.68c-.3-.06-.67.19-1.1.75l-.88,4.6c-.07.36-1.1.68-3.08,1,0,.3-.42.55-1.1.75l-1.23-.24c-.27-.06-.67-1.2-1.21-3.43l.3-1.53.88-3-.8-.77-5.52-1.07c-.43-.09-.71-1.32-.86-3.67a.29.29,0,0,1-.26-.38Q111,47.4,117.56,48c1.23.25,1.91.06,2-.56l.67-3.38c.4-2,2.27-2.94,5.63-2.73.48.8.44,2.61-.11,5.41l-.29,1.53c-.13.62.21,1,1,1.15q16,3,16.4,1l1.74-8.89c.48-2.53,2.75-3.88,6.83-4Z"/><path d="M169.35,31.41h2.81q8.91,0,15,7.8,2.49,4.6,2.49,12.5,0,7.6-11.87,12.48c-1.64,1.06-4,1.58-7.17,1.58q-10.67-.48-13.13-6.26a19.56,19.56,0,0,1-2.19-7.8q0-4.47,5.62-12.18v-.62q-3.1-1.33-3.11-3.45Q162.17,31.41,169.35,31.41Zm-7.18,19.66q2.12,5.94,9.67,6,6.15,0,7.5-5.31V49.19q0-4-7.18-6.53h-1.88Q164.27,42.66,162.17,51.07Z"/><path d="M225.53,22.44l.32,0c1.75.73,2.64,1.27,2.68,1.61l.29,3.13.83,2.09a2.35,2.35,0,0,1-.21,1q.93,9.48,8.35,21.48.61-.09.78,1.5l-.43,1.92,1.07,1.45.22,2.2.45,1.52q-5.56.54-5.25,3.94a3.54,3.54,0,0,1-1.79.83c-1.06.11-1.6,0-1.64-.48l-.58.37L230,65c-.54,0-1.07-1.15-1.61-3.62-.25,0-.84-.64-1.77-2l-.18-1.85a48.45,48.45,0,0,0-4.69-15.86l-.32,0c-.88.09-2,2.6-3.32,7.52l-.62.41-1.63-.81c-1.14.49-2.15,1.94-3,4.37l-2.11.86c-2.56-.36-3.87-1-3.94-1.83q-5.62-7-6.62-6.88-1.12,4.83-3.61,21c-.82,1.34-1.7,2.06-2.63,2.15a5.56,5.56,0,0,1-.91-2.74q-.15-1.74,1.32-22.41c0-1.84,0-3-.06-3.43a22.68,22.68,0,0,1-.94-3.38c.84-3.85,3.46-6,7.85-6.42q1.19,0,9.16,7a2.15,2.15,0,0,0,1,.24q.83-.18,6.5-10.36a6.43,6.43,0,0,1,2.9-2.5Q220.62,23.65,225.53,22.44Z"/><path d="M252,31.57l1.52-.29c7.38-.23,11.13,0,11.28.67l.35,1.84q0,.3-2.28,3-10.5.75-11.89,1c-2.25.45-3,2.81-2.12,7.1l.4.56c2.74-.73,4.77-1.23,6.11-1.5l2.76-.53c2.5-.2,3.86.27,4.1,1.42l-.41,1.36,1.24,1.34L263,48.85a2.25,2.25,0,0,1,.46.85c-.39.15-.56.39-.48.73l-1.29-.06c-1.12.22-1.78,1.2-2,3l-1.18.51q-4.05.51-6.48,1a.56.56,0,0,1-.51.73c.68,3.48,2,5,4.1,4.6l.61-.1A160.08,160.08,0,0,0,274.1,55.3a4,4,0,0,1,2.52,1.42l.05.3-.61,1.71,1.66,1.9c.43,2.25.12,3.48-.91,3.7-2.45.46-3.49,1.61-3.14,3.45a3.41,3.41,0,0,1-1.42.91l-7.28.14-4.9,1q-2.93.57-9.4,4c-2.66.52-4.11.17-4.34-1.07l0-1.28-2.73-2.63-.08-.32q2.06-.41-1.13-23.94-.21-5.52,1.34-7.9A12.52,12.52,0,0,1,252,31.57Z"/></g></svg>