<svg xmlns="http://www.w3.org/2000/svg" viewBox="0 0 1000 600"><defs><style>.cls-1{fill:#666;}.cls-2{fill:gray;}.cls-3{fill:#b3b3b3;}</style></defs><g id="text_tablet" data-name="text tablet"><path class="cls-1" d="M7,10.26c1.27.92,1.11,2.55,2.14,3.52s1.59.48,2.75,1.05c.93.44,1.75,1.55,2.5,1.9,1.87.88,4.39.13,6.42.34,1.62.16,4.11.05,5.37,1.32,1.61,1.63,1,2.78,3.35,4.65a18.28,18.28,0,0,0,7.79,3.48A16.35,16.35,0,0,1,45,30.31c5.58,4.32,12.22,6.89,17.4,11.78,3.08,2.9,3.93,2.75,3.72,7.37-.28,6-1.29,11.76-1.26,17.81,0,8.9-.91,18.32.65,27.1,3.6,20.3,4.8,40.85,8.9,61.09,3.47,17.14,6.76,32.86,7.18,50.46.31,12.73-.06,25.43.81,38.15,2.48,36,2.31,72.16.83,108.22-.53,12.86-1.94,26-1.33,38.95.46,9.95,1.22,19.81,1,29.79-.42,18.57-3.18,37-3.57,55.53-.46,22.37-4.67,44.67-6.22,66.86-7.73.14-12.4,12.06-16.78,16.71-3.8,4-9.42,5.55-13.14,9.45-4,4.24-6.64,7.42-11.94,10.54A33.32,33.32,0,0,1,21,584.65a2.53,2.53,0,0,0-1.86,1.93c-2.59,2.28-6.09,6.18-9.53,7,1.64-1.42,1-3.92,1.18-5.93.26-3.81,1.16-7,.5-10.4-.57-2.83-1.88-3.44-3.4-6-1.22-2.07-1-4.89-.7-7.28.39-3.27,1.13-6.07,1.1-9.38,0-4.06,0-8.13,0-12.19,0-4.41,1-8.37,1.26-12.72.37-6.12,0-12.42-.06-18.56,0-3.86.78-7.12,1.26-10.84.41-3.13-.06-6.75-.06-9.92V467c0-3.87.79-8.57-.2-12.35-.88-3.34-2.27-5.29-2.3-8.94a27.32,27.32,0,0,0,.19-3.11c-.4-3-2.49-5.3-2.54-8.43-.08-4.91,4.28-8.89,5.67-13.51.91-3.05.32-6.31.39-9.47.13-5.85,1.45-11.62,2.34-17.43,1.33-8.75.1-17.13.06-26,0-4.55.75-8.53,1.23-13,.34-3.07,1.4-5.9,1.89-8.87.84-4.95-3.2-4-6.68-6.46-1.65-1.17-1.3-1.73-1.25-3.85.12-4.79-1-8.46-1.82-13.12-1-6-.59-12.23-.59-18.35,0-5.95-1.11-13,.27-18.79a113.77,113.77,0,0,0,3.4-22.15c.33-10.4-.15-20.85-.06-31.26,0-4.15-1.36-7.58-2.7-11.49-1.17-3.4-1-7.23-.9-11.15.07-3.69,1.22-6.85,1.2-10.67,0-4.9,1-8.31,1.17-13.05.17-3.8,1.8-6.82,1-10.82-.71-3.41-3.4-6-3.33-9.89,0-2,0-4,0-6s-.52-2.42-.93-3.88a19.14,19.14,0,0,1-.27-5.14c0-2.06.56-3,.94-4.48A41.33,41.33,0,0,0,8.3,134.8,43.11,43.11,0,0,1,9.24,124,28.51,28.51,0,0,1,11,118c.92-2,.66-2.19,0-3.85s-1.58-4.88-2.69-6.47c-1.44-2.06-2.11-1.64-2.46-4.09A34.82,34.82,0,0,1,6.16,93a21,21,0,0,0,1-2.66c.14-1-.11-2.09-.06-3.11.1-2,.74-2.42,1.25-4.08.58-1.9.77-4.14,1.17-6.11.28-1.39.95-2.21,1.26-3.51A17.12,17.12,0,0,0,9.2,62.63c-1-1.9-1.83-2.67-2.13-4.75-.25-1.72.7-2.7,1-3.91.71-3.31.27-7.12.27-10.56,0-2.66,1-8.22-.24-10.58-.56-1-2.21-1.58-2.81-2.6-.87-1.46-.6-3.11-.57-4.85.07-3.54-1.75-5.56-.93-9.35.07-.29.88-.88,1-1.41.23-1-.29-2.12-.11-3.12.27-1.43,1.74-2.57,1.25-4.16Z"/><path class="cls-2" d="M941.51,39.19c.32,2.3,6.32-1.93,7.47-2.66,2-1.27,4.15-4.56,4.23-7,2.43-.32,4.41-1.06,6.94-1a17.2,17.2,0,0,0,3.58.06c1.39-.33,2.24-2,3.35-2.79a8.59,8.59,0,0,1,2.15-1.51c1.07-.3,2.09,0,3.15-.38a22.47,22.47,0,0,0,3.37-1.82,2.35,2.35,0,0,0,1.3-2c.23-.93-.47-2.36-.1-3.21s1.24-1,2-1.46c2-1,4.18-1.54,6.06-2.66.81-.49,1.19-1.28,1.93-1.83s1.76-.66,2.46-1.08A14.47,14.47,0,0,0,993,6.66c.21,1.82-.8,3.26-.95,5s-.73,3.52-.91,5.35c-.42,4.18-.63,8.53-2.28,12.51-1.74,4.21-2.19,9.79-.09,13.89a6.89,6.89,0,0,1,.65,3.7c-.05,2.47.82,4.35.89,6.71.08,2.66.58,3.3,1.81,5.75S993,64.36,993,67c0,6-.73,11.59-.79,17.52,0,3-.07,6.14-1.18,8.94-.85,2.13-1.41,2.54-1.61,4.55a15.82,15.82,0,0,0,.92,6.22c1.2,4.06.88,8.12.89,12.36,0,2.09.33,4.15-.63,6a33.46,33.46,0,0,0-3.68,12.06c-.62,5.86-.1,11.94-.17,17.84-.09,7.25,1.87,14.24,1.81,21.42a16.39,16.39,0,0,1,0,2c-.12.86-.57,1.35-.71,2.07-.59,2.92-.31,6.23-.22,9.22.13,4.57.92,9,.9,13.59,0,3.24,0,6.48,0,9.72,0,5.47-1.24,12.28,1.57,17.06,1.25,2.12,1.09,2.56,1.09,5.45,0,3.08,0,6.15,0,9.23,0,3.57.86,7,.95,10.54.21,7.78-2.62,15.12-2.74,22.94,0,3.06.08,6.11,0,9.17,0,2.6.93,4.79.9,7.4,0,2.86,0,5.73,0,8.59,0,3.26-.29,6.58-.62,9.81-.4,4-1.76,7.73-2.15,11.63-.59,6,.95,12,1,17.94,0,3.41-.89,6-1.77,9.31a48.21,48.21,0,0,0-1.88,13.56c.08,2.79.73,5.55,1,8.33.31,3.32.92,6.25.87,9.64s.93,6.32.9,9.56c0,2.44-.86,4.62-.91,7.06,0,2.06,0,4.14,0,6.19,0,2.54-.8,6.51.16,8.81.43,1,1.37,1.68,1.86,2.69.82,1.66.89,3.94,1.48,5.68.87,2.53,2.85,4.57,2.8,7.3-.07,4.11-3.41,5.56-5.45,8.53-1.89,2.76-1.36,5.16-1.68,8.11-.47,4.47-7.22,6.23-7,11.2.08,1.84,2.55,4.87,3.18,6.45a75.57,75.57,0,0,0,3.14,8c.93,1.77,2.4,3.31,3.08,5.18,1.21,3.3,1.08,7.33,1.08,10.82,0,1.88.33,3.52-.34,5.36-.78,2.17-2.32,3.68-2.41,6.08-.12,3,1.58,5.29,2.47,8.05a132.28,132.28,0,0,1,3.68,16c.83,4.39-.73,8.76-.74,13.16s0,9,0,13.48-.48,8.55-.22,13.13c.15,2.58.55,5.45.1,8.07-.33,1.92-1.4,3.5-1.72,5.36a13.89,13.89,0,0,0,.27,4.31c.49,2.81,2.47,5.69,2.54,8.48,0,2-.55,4.07-2.5,3.83-1.26-.16-3.9-2.48-4.72-3.37-1.48-1.61-1.86-3.35-3.47-4.67-2.81-2.32-6.38-3.37-9.52-5.32-1.36-.84-2.55-1.71-4-2.43-2.76-1.37-5.2-3.28-7.94-4.55-.21-.1-.67-.32-.91-.41a14.34,14.34,0,0,1-5.94-2.74,14.18,14.18,0,0,1-4.1-4.76c-2.94-3.21-7.83-3.45-11.16-6s-1.74-9.39-1.73-13c0-2.58,0-5.16,0-7.74a40.81,40.81,0,0,1,.7-6.74,10.55,10.55,0,0,0,0-2.45,59,59,0,0,1-1.29-10.27,61.14,61.14,0,0,1,.76-8.1,365.8,365.8,0,0,0,.28-69.25c-.77-9.08-2.11-17.83-2.28-26.95-.16-8.42-1.18-16.64-1.61-25.05-.52-10.34.1-20.68-.3-31-.58-15.24-1.5-30.44-1.86-45.68-1.4-58.62-4.09-117.53,3.12-175.91,2.61-21.11,3.77-42.31,6.77-63.4.84-5.88,1.54-12,1.91-18,.05-.91,0-1.93,0-2.84,0-1.72-.44-1.5-.72-2.66C942.15,46.89,941.47,45.59,941.51,39.19Z"/><path class="cls-2" d="M5.56,8.4c2,0,4.08.27,6-.23a17,17,0,0,1,5-.77,33.13,33.13,0,0,1,10,2c1.72.54,2.36,1.05,4.43,1,1.73,0,3.79.35,5.48,0,3.63-.64,6.24-2.07,10-2h5a17.09,17.09,0,0,1,3.84-.06c.95.26,1,.75,1.76,1,3.22.91,8,.08,11.37.08s6.67.2,10,0c2.1-.12,3.75-1,5.91-1,3.06-.1,6.08-1.09,9.06-1.05a21.3,21.3,0,0,1,4.92,1c2.45.66,4.7.48,7.07,1,2.16.45,4.23,1.41,6.48,1.82a39.2,39.2,0,0,0,6.94.22c3.93,0,7.86,0,11.78,0,2.73,0,5,.87,7.69,1a135.54,135.54,0,0,0,20.94,0c1.52-.14,2.47-.85,3.88-1.1,1.69-.3,4.17,0,5.82-.17,8.87-.81,17.68-.77,26.59-.77h17.41c8.09,0,17.2-1.12,25.08.72,9.88,2.31,19.94,2.22,30,2.26,3.7,0,6.87-.85,10.46-1,4.26-.22,9.13.94,13.29.09,1.78-.36,3.07-1.36,4.91-1.81a25.93,25.93,0,0,1,6-.22c5.21,0,10,1.78,15.19.29,7.07-2.06,13.8-4.46,21.22-5.07,4.58-.38,9.83-1.61,14.26-1,1.35.2,2.53.75,4,.83,3,.16,6.33-.67,9.29.12,2.55.68,5.27,2,7.82,2.79,4.26,1.37,8.43,2.34,12.81,3.3a25.25,25.25,0,0,0,9.74.56c2.6-.36,4.49-1.53,6.88-1.89,2.78-.42,3.82.7,6.21,1.6,3.2,1.2,5.59.06,8.68-1.31,2.75-1.23,5.54-1.38,8.35-2.47,1.41-.55,2.79-1.63,4.31-1.88a22.38,22.38,0,0,1,6.64.07c2.57.62,5.29,2.47,7.95,3.37,3.34,1.12,6.93.67,10.42.67,8.12,0,16.91-1.12,24.89.22,3.95.66,7.89,1,11.86,1.55,5.87.77,11.15-.32,16.89-.8a24.13,24.13,0,0,0,5.89-1.22c3.78-1.24,8-1.44,12.08-2,5.8-.83,11.55-.72,17.38-.72,4,0,8.28-.41,12.26.08,20,2.51,40-.12,60-.08h22c6.69,0,13.06.26,19.71.8a71.52,71.52,0,0,0,11.89,0c5.25-.45,11.16-1.79,16.43-.65a51.1,51.1,0,0,1,5.1,1.89,25.53,25.53,0,0,0,8.68.94c5.72,0,11.23-1.05,17-1,8.23.05,16.9-.75,25.05.25,6.92.84,13.92,2,20.86,2.59,10.65.95,21.52-.63,31.9-2.87,8.55-1.84,17.39-.61,26.07-1.17,8.83-.56,18-1.6,26.87-.7,2.13.22,4.17.81,6.28,1.2,7.07,1.33,14.55.93,21.72,1.49,7.47.59,14.58-.3,22-.74,8.9-.54,17.56-2.83,26.51-3.07,11.87-.31,23.8.06,35.68.05a25.17,25.17,0,0,0,7.1-.77c2.12-.54,4.3-.16,6.46-.2a16.84,16.84,0,0,0,4.15-.8,31.25,31.25,0,0,1,6.2-.22c2.33,0,3.57,1,5.84,1.14A12.33,12.33,0,0,1,989,15.29c-1.34,1.91-3.3,3.38-4.93,5.06s-2,3.23-3.16,5c-2.49,3.67-8.81,5.27-12.58,7-4.88,2.17-8.36,6.35-13.13,8.72-7.25,3.6-15.77,4.83-23.75,5.23q-33.42,1.68-66.88,3.29c-36,1.76-71.83,1.76-107.9.72C722.89,49.3,689,49,655.23,47.68c-26.28-1-52.29-3-78.61-1.94-14,.58-28.15.87-42,2.81-9.87,1.38-19,3.67-28.74,6-6.6,1.58-10.66,2.62-17.72,1.35L479.57,54a60.33,60.33,0,0,0-20.15,2.73,218.52,218.52,0,0,1-35.36,3.52c-11.94.29-23.83,1.6-35.76,2.27-19.93,1.1-40.33,2.94-60.15-.26-4-.65-7.83-1.8-11.84-2-9.11-.47-18.29,0-27.42-.53-7.8-.45-15.55-1.27-23.32-2-19-1.8-37.06-1.1-56.11.54-27.48,2.38-55.15,3.11-82.64,0a174.75,174.75,0,0,0-20.46-1c-8.61,0-17.63.94-26.14-.19-11.15-1.49-22.45-2.71-33.06-6.53-2.59-.94-5.67-1.51-7.95-3.09-3-2.06-5.87-5.29-8.28-7.92-4.12-4.48-8.49-9.36-13.2-13.27-2-1.69-4.37-3-6.43-4.59C9,19.84,7.85,17.8,5.56,8.4Z"/><path class="cls-1" d="M11.54,592.35c.07,2.55,5.22-.42,6.2-.75a29,29,0,0,1,9.74-1.24,13.46,13.46,0,0,1,3.76.23c1.31.34,2.69,1.57,4.21,1.82,1.28.21,2.49-.2,3.77.17.46.13,1.05.66,1.68.81a14.55,14.55,0,0,0,3,0,35,35,0,0,0,11-2.11c3.19-1,6-.83,9.41-.87,3.73,0,7.16,1,11,1H90.09c5,0,10.07.37,15,0,2.75-.18,5.41-1.34,8.1-1.85,3.19-.6,6.65-.19,9.89-.19,4,0,7.9,0,11.84,0a15.24,15.24,0,0,1,3.3-.06c.46.13.76.76,1.07.83,7.78,1.76,16.28-.87,24.16-.8,6.1.06,12.21,0,18.32,0,3.52,0,6.8-.34,10.12,1,4.65,1.83,9.52,2,14.46,2,4.31,0,8.67.22,13,0,4.7-.19,9.1-1.11,13.87-1a59.19,59.19,0,0,0,9.51-.17c2.64-.41,5.22-1.28,7.85-1.65,4.38-.62,8.64-.14,13-.95,4.83-.9,10.07-.33,15-1a37.48,37.48,0,0,1,11,0c3.5.61,6.79,1.74,10.38,1.83,4.21.1,8.46,0,12.67,0a18,18,0,0,1,7.05.94,23.75,23.75,0,0,0,10,2c3,0,5.64.1,8.47-.92,4.27-1.54,6.9-2.86,11.36-3.14s8.45-1.82,12.8-1.94c4.05-.11,8-.86,12-1,4.88-.2,9.84.07,14.72,0a63.29,63.29,0,0,1,14,1.21c1.51.35,2.88,1.27,4.4,1.63,1.93.46,3.83.09,5.77.14,3.14.08,5.82,1.23,8.86,1.82,3.75.73,7.49-.1,11.24.79a58.72,58.72,0,0,0,14.48,1.4c4.32,0,8.67.19,13,.08,5.95-.15,11.49-2.06,17.5-2.12,5.12,0,10.36-.21,15.47,0,3.87.16,7.41,1.74,11.21,2.09,16.14,1.49,32.28-2.33,48.47-.82,14.37,1.34,28.86,1.77,43.29,1.77,5.46,0,10.94.28,16.37-.2,7.14-.62,13.7-1.88,20.94-1.79,6.38.08,12.55-.87,18.89-1.05,5.31-.15,10.67.05,16,.05,4,0,8.07,0,12.11,0,5.35-.06,10.66,1.69,16,.82,11.44-1.88,23.57-.8,35.18-.8,3.39,0,6.79,0,10.18,0,6,0,11.73-.88,17.66-1.05,4.88-.14,10.4-.52,15.23.23,3.57.55,6.91,1.6,10.56,1.77,4.7.23,9.4-.18,14.1.13,2.64.18,5.23.67,7.87.83,2.86.18,5.75-.18,8.58.13,2.61.29,5,1.4,7.65,1.78a63.83,63.83,0,0,0,9.28.16c7.54,0,14.94-.8,22.45-1,6.93-.22,13.75.71,20.65,1.05,6.68.33,14.23-2.14,20.66-.35a38.82,38.82,0,0,0,17,1,203.33,203.33,0,0,1,31.12-1.83c3.71.05,5.38-.54,9-1.81,7.41-2.6,15-2,22.7-2h-1.31c2.57-.41,3.76,1.82,6.13,2.5,1.83.52,7.1,2.68,8.43.94,2.12-2.76-3.1-7.18-4.71-8.2a15.08,15.08,0,0,1-3.44-2.64c-1.87-2.08-2.93-4.53-4.79-6.72-5.27-6.2-10.33-12.45-17.13-17a35.57,35.57,0,0,1-8-6.77c-2.66-3.21-4.85-4.52-8.68-6.26-2.35-1.07-4.83-1.52-7-2.67-1.85-1-3.17-2.5-4.75-3.83-1.77-1.49-2.21-1.06-4.32-1.12-3.1-.09-5.91-1.08-9.07-1-8.74.16-17.52-.93-26.28-1.12a118.87,118.87,0,0,0-16.33.44c-7,.82-14.06,2.42-21.16,3.17A233.06,233.06,0,0,1,785.54,536c-12.64-2.48-25-6.05-37.7-8.21-10.61-1.81-21.24-2.29-32-2.71-16.16-.61-32.31-.83-48.47-.17-19,.77-38,3.19-56.89,4.69-14.85,1.18-29.69,1.9-44.58,2.07-12.76.14-25.49.18-38.22-.69-9.21-.62-18.31-1.94-27.5-2.74-27.85-2.42-55.7-.09-83.19,4.49-9.92,1.65-19,3.28-29.23,2.93-10.82-.37-21.64-1.6-32.42-2.56-16.52-1.48-32.64-2.89-49.25-2-19.38,1-38.66-.06-58-.44-11.94-.23-23.9-1.12-35.79-2.25-5.1-.49-10.29-1.45-15.4-1.63-10-.35-19.92.85-29.9.93-11.82.09-23.83-.84-35.63.16-6,.52-12.46,0-18.42,1-3.85.62-7.24,1.62-11.23,1.8-5,.22-10,.48-15,.77-2,.11-7.91-.41-10.57.16-3.27.68-8.29,5.71-10.62,7.58-3.21,2.57-6.62,5.1-9.32,8.22-2.41,2.78-4.16,6-6.45,8.84-1.88,2.31-3.78,5.33-6.33,6.8-1.55.89-3.27,1-4.91,1.64-1.47.57-2.65,1.5-4,2.16-2.28,1.08-4.77,1.39-7,2.67a38.22,38.22,0,0,0-6.75,5,35.42,35.42,0,0,0-5.26,6C14.72,581.52,12.54,585.06,11.54,592.35Z"/><path class="cls-3" d="M27.48,36.3a25.11,25.11,0,0,1-.77,7c-.34,1.3-.78,4.8-.06,6s1.51.67,1.9,1.89a12.57,12.57,0,0,1-.07,3.05,28.82,28.82,0,0,0,.5,6.47,30.38,30.38,0,0,1,.51,6.7c0,2.75-1.29,4-2.25,6.53-1.52,4,1,6.23,2,10.19.89,3.66.43,8.67.23,12.47-.11,2.17-1.16,3.18-1,5.47s1.14,2.94,2.28,4.71c2.46,3.8-2.24,8.51-.12,12A29.43,29.43,0,0,0,33.44,121a20,20,0,0,0,4,2.52c1.34.63,7.59,1.76,8,3.24-2.86,1.07-6.09,1.11-8.91,2.44a6.29,6.29,0,0,0-2.79,2c-.36.65,0,1.11-.2,1.79,0,.13-.75,2.11-.78,2.21-.65,2.94-.2,6.44-.24,9.48,0,3.63.6,8.6,2,11.73,3.3,7.33-4.07,13.2-4,20.43,0,2.65-.58,5.93,0,8.5.28,1.33.85,2,1.06,3.38a39.84,39.84,0,0,1,0,5.57c0,3,1.08,5.53,1,8.46-.12,3.83-1.22,7.44-1,11.35.11,2.44,1,4.64,1,7.07.1,3.48-.47,7.14.19,10.57.35,1.83,1.8,3.79,1.65,5.69,0-.33-1.44,2.11-1.13,1.31-.68,1.76-.51,3.16-.72,4.94-.15,1.29-1.15,2.7-1.12,3.91s1.67,3,2.36,4c3.63,5.17,3.78,13,2.25,19a39.24,39.24,0,0,1-1.25,4.91,26.19,26.19,0,0,0-1.29,2.91c-.73,3.12.07,7.64.05,10.81,0,2-.39,3.49,1,5,1,1.12,2.42,1.57,3.3,2.94,1.54,2.39.33,3.63-1.29,5.95-1.81,2.58-2,4.26-2,7.24a5.88,5.88,0,0,0,1,4c1,1.44,2.69,2.35,3,4.43.65,4.13-2.59,5.64,1,9,1.77,1.65,8.38,3.74,8.86,6.24-4.56,1.36-7.86,2.16-8.85,7-.65,3.16-2.06,6.56-2.1,9.76,0,1.93.9,3.46,1.13,5.32.33,2.69-.79,4.81-1.6,7.15-.63,1.83-.84,3.91-1.44,5.82-.74,2.32-2,4.61-2.1,7.08a24,24,0,0,0,.58,4.37,58.21,58.21,0,0,1,.52,9.63c0,3.87.25,7.66-.42,11.47-.84,4.7-2,9.34-2.76,14-.45,2.59-1.65,5.38-1.61,8,0,2.93,1.79,5.1,1.8,8.18s0,6,0,9c0,4.35-1,9.7.08,13.9a16.44,16.44,0,0,1,.91,4.85,18.58,18.58,0,0,1-.62,6.12c1.73.56,2.95-1.21,4.39-2a11.35,11.35,0,0,1,3.26-.91c2.39-.61,4.87-1.81,7.61-2.12-4.06,3.94-8.6,7.7-11.66,12.55-1.94,3.1-3,7.22-4.39,10.78s-3.13,7.09-2.5,10.92c.88,5.25,1.93,7.65,1,13.38-.55,3.35-1.79,7.44-1.23,10.92.36,2.22,2.18,3.71,2.89,5.81,1,3,.46,5.83.24,9-.32,4.85.3,9.72.07,14.56-.13,2.65-.77,5.26-1,7.91-.27,3.66-.8,8.19,0,11.77,3.15,1.2,9,.19,12.18-.1,4.46-.41,8.73-.72,13.2-.73,5.42,0,10.31-2,15.67-2.14a57.9,57.9,0,0,1,10.51.82c2.78.42,6.48,1.76,9.24,1.07a16.37,16.37,0,0,1,2.75-.89,36.94,36.94,0,0,1,4.26,1.09,49,49,0,0,0,11,1.07c5.38.06,10.76-.09,16.14-.06,6.91,0,13.85.25,20.71-.71,3.15-.44,5.89-1.9,9-2.16,7-.61,13.63,3.12,20.46,3.79,4.41.43,8.72-.34,13.1-.71,3.62-.3,7.26.1,10.84-.2,2.39-.19,2.21,0,3.32-2.89a51.24,51.24,0,0,1,3.69-7.73c2.61,2.54,3.32,7.94,7.35,8.79,5.55,1.16,11.78-2.51,17.31-1,2.95.8,4.84,2.36,8.19,1.73,3.71-.69,7.43-3.87,9.67-6.62,1.18-1.44,2.19-3.3,3.9-4.23,3.83-2.1,6.41.25,9.36,2.29s6.42,1.93,9.86,2.87c3.91,1.08,6,4.8,10,5.68,4.3.95,8-1.07,11.95-2.44,3.56-1.23,9.37-2.46,13.27-1.36,2.35.66,4.12,2.52,6.37,3.4,9.91,3.89,20.93-2.07,31.11-1.37,5.08.35,9.88,1.62,15.09,1.78,10,.31,20.06-.5,30,.06,3.05.17,5.7.68,8.85.31,5.36-.62,10.72-2.93,16.06-3.28,3.8-.25,7.45,1.33,11.24,1.7,7,.67,14-.35,21,.23,5.56.45,10.35,3,15.95,3.12,4.2.07,8.73-.54,12.8.9l2.62,1.24q1.62,1.59,3,0c4.51-1.54,5.18-7.38,10.63-8.37,3.57-.65,6.5.28,9.77,1.59,1.85-1.43,2.08-4.12,3.68-5.48,1.41-1.21.78-1.23,2.31.36s2.13,5.63,4.11,6.51c1.68.75,4.74.43,6.84.66,6.15.68,12.52,2.48,18.68,1.39,13.29-2.35,26.8-10,40.17-5,5.47,2,11.29.5,16.9.21,6-.32,12-.63,17.94-.85a84.59,84.59,0,0,1,17.8,1.39c9.63,1.57,19.13,0,28.78.21,8,.19,13.78,2.26,20.82,5.27,4.49,1.92,5-.34,6.14-4.25a20.44,20.44,0,0,0,1-6c2.3,2.28,5.34,11.51,9.49,9.68a5.37,5.37,0,0,1,5-3.47q3.54.75,7.09,1.42c5.48,1.06,11,.63,16.59.6a68.13,68.13,0,0,1,10.69.28,3.15,3.15,0,0,0,2.93.5c.1-1.74,0-3.76.73-5.39,1.34,1.89,2,3.81,3.94,5.34,2.8,2.17,5,1,8.24.52a60.64,60.64,0,0,1,11.11-.14,17.57,17.57,0,0,0,8.8-2.18,11.6,11.6,0,0,1,5.66-1.77,13.59,13.59,0,0,0,6.87,2.72c8.52,2.09,16.81.16,25.36-.2,7-.3,14,1.28,21,1.45,11.8.28,23.73-1.36,35.5-.79l10.34.79a36.13,36.13,0,0,1,9.21,2.94l.74-.33a3.23,3.23,0,0,1,2.85-2.51c3.79-2.09,9.23-.12,13.24.75a41.12,41.12,0,0,0,17.39.57c7.12-1.28,13.63-5.72,20.85-6.48a66.63,66.63,0,0,1,13.1.09,62.72,62.72,0,0,1,14.67,3.21c1.21.43,2.17,1,3.54.64.83-3,0-7,.34-10.1a42.26,42.26,0,0,0,.71-9.05,12.24,12.24,0,0,0-2.78-5.08c-3.42-6.72.71-14.81-1.79-21.7a17.6,17.6,0,0,1-3.18-8.44A59.54,59.54,0,0,1,968,501.27c.53-6.89-5.17-10.79-7-17-.68-2.28-1.51-3.95,0-6a13.92,13.92,0,0,0,3.54-2.33,8.64,8.64,0,0,0,.66-5.44c-.12-4.35-.35-8.57-.82-12.91-.24-2.28-1-4.28-1.34-6.43-.6-3.78,1-8.71,1.12-12.64.14-3.56.61-5.95-1.82-8.93-3.34-4.11-5.27-3.59-9.77-3.62-1.93,0-3.46,0-1.86-2.28,1.86-2.64,5.52-1.24,7.62-2.87,1.28-.24,1.7-1,1.27-2.38a19.16,19.16,0,0,0-6.22-6.38c-1.55-1.12-5-3.94-7.22-3.93A42.82,42.82,0,0,0,957.12,403c2.76-2,2.3-3.11,2.1-6.29-.17-2.87-.86-2.45,2.45-4.34,2.48-1.41,3-2,3.53-4.82.61-3.12.33-6.62.75-9.83a76.25,76.25,0,0,0,.54-14.56c-.22-3.73.51-11-1-14.4-.88-2-1.54-2.57-2.46-4.94-1.34-3.48-3.2-7.44-3.9-11.05s.13-6.19,1.37-9.7a16.68,16.68,0,0,0,.93-6.53A39.38,39.38,0,0,0,958.18,302L956.76,300c-.91-2.22.32-4.44,1-6.79A44.74,44.74,0,0,0,959.27,283c.1-3.56,0-7.13,0-10.69,0-4.46-1.38-8.55-1.4-12.9q-.07-4.63.29-9.27l.08-4a4.13,4.13,0,0,1,2.06-2.08,14.25,14.25,0,0,0,5.08-5.85c2.12-5.91-2.75-13.62-3.11-19.48-.17-2.71-.17-5.37-.5-8.07-.5-4.14-1.79-7.6-2.86-11.52-1.47-5.44-1.28-11.53-1.69-17.2-.54-7.57-2.23-15.74-1.52-23.43.57-6.26,5-11,5.8-17.17,1-7.25-1.22-13.83-2-20.9-.59-5.39.62-10.44,1.52-15.73a236.93,236.93,0,0,0,2.53-23.63c.32-4.53-.43-8.44-1.21-12.82-.72-4,.38-8.87.62-12.81.16-2.65-.49-8.42.38-11.52.65-2.33,1.74-4.21,1.89-6.76.1-1.48.12-3.06.09-4.54-5-2.2-11.23,1.41-16.3,1.71A53.15,53.15,0,0,1,934,31a16.74,16.74,0,0,0-9.37-1.63c-2.95.83-3.11,2.18-6.4,1.93-5.39-.42-10.62-1.25-16-.74a74.25,74.25,0,0,1-14.06.64q-4.09-.83-8.21-1.54c-4.85-.2-8.66,3-13.21,3.35-3.66.29-7.61-1.61-11.31-1.76-5.75-.23-10.85-.06-16.63-1.15-5.12-1-12.76-3.6-17.58.4-2.61,2.16-1.44,3.89-5.32,5.34-4.82,1.82-6.34-1-9.92-2.86-2.13-1.11-5.19-.94-7.74-.38-4,.86-6.25-.09-10.07-1.24C777.5,28.14,767.88,30,757,30.21a72.86,72.86,0,0,1-18.41-1.43,4.81,4.81,0,0,0-3.66-.5c-3.67,1-2.87,7.73-6.43,7.53a31.15,31.15,0,0,1-2.83-5.2L721.6,30a189.22,189.22,0,0,0-21.71-1.7c-16.26-.38-32.58.23-48.84.08-2.47,0-4.6-.25-7,.46a22.21,22.21,0,0,1-9.62,1.11c-9.43-1.08-19.06-2.27-28.56-2.35q-10.65,1.57-21.22,3.57L571,33a55.79,55.79,0,0,1-12.59.14c-4.47-.56-8.25-2.68-12.66-3.52s-8.44.08-12.92.17c-6.23.13-12.72-.55-18.69.79-5.21,1.17-10.65.16-15.93-.14a45.82,45.82,0,0,0-14.35.58,11.51,11.51,0,0,1-7.78.92c-8.39-.9-15.83-2.63-24.34-1.27a236.65,236.65,0,0,1-30.08,2.64c-2.63.08-5.81.56-8.28-.64-6-2.91-3.43-4.05-11.78-2.89-9.39,1.3-18.61,4-28.18,3.64-7.68-.26-16.38-2.31-23.89-.53-2,.47-2.84,1.46-4.34,2.09a12.18,12.18,0,0,1-5.43-.65A22.38,22.38,0,0,0,330,36.26c-5.59,2-9.86,2.31-15.73,2-8.94-.48-19.06-.87-27.76-3.48-3.77-1.13-6.66-2.34-10.63-2.49-4.82-.18-7.48-1-12.06-1.89q-11.88-.12-23.73.76a128,128,0,0,0-19.72,1.92c-2.88,1-5.65,2.9-8.75,2.22-6.85-1.49-12.72-4.62-19.89-4.06,2.1,3.18,6.74,5.72,7.86,9.36-4.67-.29-10,.06-14.32-1.86-1.45-.64-2.65-1.66-4-2.38-1.85-1-3.41-1-5.41-1.32a58.67,58.67,0,0,0-25.39,1.75c-7.83,2.19-15.95-.59-23.93-.54-14,.09-28.16.74-42.13.2-10.9-.43-20.8-5.77-31.94-3.23C46.11,34.65,38.14,33.3,27.48,36.3Z"/></g></svg>