<svg xmlns="http://www.w3.org/2000/svg" viewBox="0 0 1920 1080"><defs><style>.cls-1,.cls-4{fill:#1a1a1a;}.cls-1,.cls-3{opacity:0.5;}.cls-2,.cls-6,.cls-9{fill:#fff;}.cls-2,.cls-9{stroke:#000;stroke-width:5px;}.cls-2{stroke-miterlimit:10;}.cls-5{opacity:0.49;}.cls-7{fill:#00fa00;}.cls-8{fill:#ed1c24;}.cls-9{stroke-linejoin:round;}</style></defs><g id="Layer_22" data-name="Layer 22"><path class="cls-1" d="M1513.41,122.6l9.21,18L1472,166.52a29.7,29.7,0,0,0-20.89-8.6H1149.7a29.87,29.87,0,0,0-29.78,29.78V332.11L637.75,597.91a41,41,0,0,0-29-12H304A41.24,41.24,0,0,0,262.92,627v99.75A41.24,41.24,0,0,0,304,767.92H608.79a41.25,41.25,0,0,0,41.13-41.13V630L1138.48,360.7a29.58,29.58,0,0,0,11.22,2.22h301.43a29.88,29.88,0,0,0,29.79-29.79V206.9l59.95-30.73,9.67,18.87,50.5-71.62Z"/><path class="cls-2" d="M1506,111.18l9.21,18-50.6,25.94a29.7,29.7,0,0,0-20.88-8.6H1142.28a29.87,29.87,0,0,0-29.78,29.78V320.69L630.33,586.5a41,41,0,0,0-29-12H296.62a41.25,41.25,0,0,0-41.12,41.12v99.76a41.25,41.25,0,0,0,41.12,41.12H601.38a41.25,41.25,0,0,0,41.12-41.12V618.62l488.56-269.33a29.57,29.57,0,0,0,11.22,2.21h301.44a29.87,29.87,0,0,0,29.78-29.78V195.49l60-30.73,9.67,18.87,50.5-71.63Z"/><g class="cls-3"><path class="cls-4" d="M1770.75,428.06l-2-60.43-54.82,25.5,14.1,8.67L1677.34,483H1426.42A33.52,33.52,0,0,0,1393,516.42V620.58A33.52,33.52,0,0,0,1426.42,654h263.16A33.52,33.52,0,0,0,1723,620.58V516.42a33.35,33.35,0,0,0-11.94-25.54L1756,419Z"/></g><path class="cls-1" d="M976.07,212H936.79l7.65-28.59,16.79,4.49L942,130.57l-45.25,40.09,16,4.28L902.87,212H744.93A33,33,0,0,0,712,244.93v99.14A33,33,0,0,0,744.93,377H976.07A33,33,0,0,0,1009,344.07V244.93A33,33,0,0,0,976.07,212Z"/><g class="cls-5"><path class="cls-4" d="M523.76,271.39H313.12l-25.18-51.47,16-8L245.69,171l-3.18,71.69,15.25-7.64,17.78,36.34h-43.3c-19.93,0-36.24,16.51-36.24,36.68V475.49c0,20.17,16.31,36.68,36.24,36.68H523.76c19.93,0,36.24-16.51,36.24-36.68V308.07C560,287.9,543.69,271.39,523.76,271.39Z"/></g><path class="cls-6" d="M219.94,499.74A38.48,38.48,0,0,1,181.5,461.3v-164a38.48,38.48,0,0,1,38.44-38.44h38.91l-14.73-29.76-16.68,8.26,3.55-79,65,45.06L278.54,212l23.17,46.8H509.06a38.48,38.48,0,0,1,38.44,38.44v164a38.48,38.48,0,0,1-38.44,38.44Z"/><path d="M233.28,163l57.78,40.07-15.87,7.86,25,50.43h208.9A36,36,0,0,1,545,297.28v164a36,36,0,0,1-35.94,35.94H219.94A36,36,0,0,1,184,461.3v-164a36,36,0,0,1,35.94-35.94h42.94l-17.63-35.61-15.12,7.49L233.28,163m-4.59-9.27-.4,9L225.13,233l-.38,8.47,7.6-3.76L243,232.43l11.83,23.91H219.94A41,41,0,0,0,179,297.28v164a41,41,0,0,0,40.94,40.94H509.06A41,41,0,0,0,550,461.3v-164a41,41,0,0,0-40.94-40.94H303.26l-21.37-43.17,11.38-5.64,7.6-3.76-7-4.83-57.77-40.07-7.44-5.16Z"/><path d="M208.46,299.42l4.78-.46A5.89,5.89,0,0,0,215,302.5a5.31,5.31,0,0,0,3.56,1.12,5.48,5.48,0,0,0,3.58-1,3,3,0,0,0,1.2-2.35,2.28,2.28,0,0,0-.5-1.47,4.13,4.13,0,0,0-1.77-1.05c-.58-.2-1.89-.56-3.94-1.06a13.44,13.44,0,0,1-5.54-2.41,6.4,6.4,0,0,1-1.19-8.38,6.56,6.56,0,0,1,3-2.46,12.07,12.07,0,0,1,4.79-.85q4.58,0,6.9,2a7.12,7.12,0,0,1,2.43,5.36l-4.91.22a4.2,4.2,0,0,0-1.36-2.7,4.94,4.94,0,0,0-3.11-.82,5.56,5.56,0,0,0-3.35.88,1.77,1.77,0,0,0-.78,1.51,1.87,1.87,0,0,0,.73,1.48,12.83,12.83,0,0,0,4.51,1.62,24.48,24.48,0,0,1,5.31,1.75,6.93,6.93,0,0,1,2.69,2.48,7.28,7.28,0,0,1,1,3.87,7.11,7.11,0,0,1-1.17,3.92,7,7,0,0,1-3.28,2.72,13.84,13.84,0,0,1-5.3.89c-3.08,0-5.44-.72-7.09-2.14A9.25,9.25,0,0,1,208.46,299.42Z"/><path d="M240.43,289.71v3.72h-3.18v7.11a17.84,17.84,0,0,0,.09,2.51,1,1,0,0,0,.41.59,1.29,1.29,0,0,0,.79.23,6.27,6.27,0,0,0,1.88-.44l.39,3.61a9.15,9.15,0,0,1-3.68.7,5.94,5.94,0,0,1-2.28-.42,3.28,3.28,0,0,1-1.48-1.1,4.18,4.18,0,0,1-.66-1.81,22.64,22.64,0,0,1-.15-3.29v-7.69h-2.14v-3.72h2.14v-3.5l4.69-2.72v6.22Z"/><path d="M247.16,295.09l-4.24-.76a6.62,6.62,0,0,1,2.46-3.79,9,9,0,0,1,5.18-1.23,11.22,11.22,0,0,1,4.65.74,4.69,4.69,0,0,1,2.15,1.88,9.7,9.7,0,0,1,.62,4.17l-.05,5.45a17.91,17.91,0,0,0,.23,3.43,9.57,9.57,0,0,0,.83,2.36h-4.61c-.12-.31-.27-.77-.45-1.37-.08-.28-.13-.46-.17-.55a8.51,8.51,0,0,1-2.55,1.74,7.31,7.31,0,0,1-2.91.58,6,6,0,0,1-4.29-1.48,5.24,5.24,0,0,1-.85-6.39,4.6,4.6,0,0,1,2-1.8,15.68,15.68,0,0,1,3.71-1.09,25,25,0,0,0,4.53-1.14v-.47a2.38,2.38,0,0,0-.67-1.91,3.89,3.89,0,0,0-2.5-.58,2.8,2.8,0,0,0-3.07,2.21Zm6.24,3.79c-.6.2-1.55.43-2.84.71a8.82,8.82,0,0,0-2.54.81,2,2,0,0,0-.91,1.65,2.26,2.26,0,0,0,.73,1.69,2.52,2.52,0,0,0,1.86.72,4,4,0,0,0,2.4-.84,2.91,2.91,0,0,0,1.12-1.54,9.35,9.35,0,0,0,.18-2.27Z"/><path d="M260.37,289.71h5l4.22,12.52,4.12-12.52h4.83l-6.23,17-1.11,3.07a12.54,12.54,0,0,1-1.17,2.36,5,5,0,0,1-1.28,1.32,5.55,5.55,0,0,1-1.77.79,9.22,9.22,0,0,1-2.39.28,12.17,12.17,0,0,1-2.63-.28l-.42-3.66a9.89,9.89,0,0,0,2,.22,2.94,2.94,0,0,0,2.4-.95,6.71,6.71,0,0,0,1.2-2.44Z"/><path d="M294.42,295.09l-4.23-.76a6.56,6.56,0,0,1,2.45-3.79,9,9,0,0,1,5.18-1.23,11.19,11.19,0,0,1,4.65.74,4.64,4.64,0,0,1,2.15,1.88,9.51,9.51,0,0,1,.63,4.17l-.05,5.45a19,19,0,0,0,.22,3.43,10.06,10.06,0,0,0,.84,2.36h-4.62c-.12-.31-.27-.77-.45-1.37-.07-.28-.13-.46-.16-.55a8.55,8.55,0,0,1-2.56,1.74,7.26,7.26,0,0,1-2.9.58,6,6,0,0,1-4.29-1.48,5.26,5.26,0,0,1-.86-6.39,4.66,4.66,0,0,1,2-1.8,15.83,15.83,0,0,1,3.71-1.09,25,25,0,0,0,4.53-1.14v-.47a2.41,2.41,0,0,0-.66-1.91,3.92,3.92,0,0,0-2.51-.58,2.8,2.8,0,0,0-3.07,2.21Zm6.24,3.79a29.22,29.22,0,0,1-2.84.71,8.93,8.93,0,0,0-2.54.81,2,2,0,0,0-.91,1.65,2.26,2.26,0,0,0,.73,1.69,2.55,2.55,0,0,0,1.86.72,4,4,0,0,0,2.41-.84,2.94,2.94,0,0,0,1.11-1.54,9.35,9.35,0,0,0,.18-2.27Z"/><path d="M309.84,307.34V283h4.67v24.33Z"/><path d="M319.29,287.32V283H324v4.31Zm0,20V289.71H324v17.63Z"/><path d="M333.58,307.34l-7.1-17.63h4.9l3.32,9,1,3c.25-.77.41-1.27.48-1.51.16-.5.32-1,.5-1.5l3.35-9h4.8l-7,17.63Z"/><path d="M357.86,301.73l4.64.78a7.61,7.61,0,0,1-2.83,3.9,8.32,8.32,0,0,1-4.84,1.33q-4.59,0-6.8-3a10.13,10.13,0,0,1-1.75-6.08,9.71,9.71,0,0,1,2.3-6.86,7.51,7.51,0,0,1,5.79-2.49,7.85,7.85,0,0,1,6.21,2.6c1.51,1.73,2.24,4.39,2.17,8H351.07a4.69,4.69,0,0,0,1.12,3.23,3.54,3.54,0,0,0,2.69,1.16,2.87,2.87,0,0,0,1.85-.6A3.78,3.78,0,0,0,357.86,301.73Zm.26-4.71a4.49,4.49,0,0,0-1-3.08,3.25,3.25,0,0,0-2.43-1.06,3.2,3.2,0,0,0-2.52,1.12,4.28,4.28,0,0,0-1,3Z"/><path d="M387.61,307.34V304.7a6.85,6.85,0,0,1-2.54,2.23,7.1,7.1,0,0,1-3.31.81,6.5,6.5,0,0,1-3.19-.78,4.6,4.6,0,0,1-2-2.19,9.78,9.78,0,0,1-.63-3.9V289.71h4.67v8.1a22.87,22.87,0,0,0,.25,4.56,2.57,2.57,0,0,0,.94,1.33,2.88,2.88,0,0,0,1.73.49,3.64,3.64,0,0,0,2.14-.66,3.3,3.3,0,0,0,1.29-1.62,18.55,18.55,0,0,0,.35-4.76v-7.44h4.67v17.63Z"/><path d="M412.81,307.34h-4.67v-9a13.88,13.88,0,0,0-.3-3.7,2.57,2.57,0,0,0-1-1.3,2.79,2.79,0,0,0-1.62-.47,3.76,3.76,0,0,0-2.17.67,3.36,3.36,0,0,0-1.32,1.76,15.08,15.08,0,0,0-.36,4.05v8h-4.66V289.71h4.33v2.59a7.21,7.21,0,0,1,8.63-2.43,4.74,4.74,0,0,1,1.94,1.42,5.26,5.26,0,0,1,.91,2,14.67,14.67,0,0,1,.26,3.14Z"/><path d="M425.62,289.71v3.72h-3.18v7.11a17.84,17.84,0,0,0,.09,2.51,1,1,0,0,0,.41.59,1.29,1.29,0,0,0,.79.23,6.27,6.27,0,0,0,1.88-.44L426,307a9.15,9.15,0,0,1-3.68.7,5.94,5.94,0,0,1-2.28-.42,3.33,3.33,0,0,1-1.48-1.1,4.31,4.31,0,0,1-.66-1.81,22.64,22.64,0,0,1-.15-3.29v-7.69h-2.14v-3.72h2.14v-3.5l4.69-2.72v6.22Z"/><path d="M428.86,287.32V283h4.67v4.31Zm0,20V289.71h4.67v17.63Z"/><path d="M438.31,307.34V283H443v24.33Z"/><path d="M465.28,289.71v3.72H462.1v7.11a17.84,17.84,0,0,0,.09,2.51,1,1,0,0,0,.41.59,1.29,1.29,0,0,0,.79.23,6.27,6.27,0,0,0,1.88-.44l.4,3.61a9.23,9.23,0,0,1-3.69.7,5.85,5.85,0,0,1-2.27-.42,3.31,3.31,0,0,1-1.49-1.1,4.45,4.45,0,0,1-.66-1.81,23.14,23.14,0,0,1-.14-3.29v-7.69h-2.15v-3.72h2.15v-3.5l4.68-2.72v6.22Z"/><path d="M473.17,283V292a7,7,0,0,1,8.3-2,4.8,4.8,0,0,1,1.95,1.53,5.52,5.52,0,0,1,.9,2.06,18.42,18.42,0,0,1,.24,3.5v10.34h-4.67V298a14.26,14.26,0,0,0-.26-3.52,2.35,2.35,0,0,0-.94-1.19,3.05,3.05,0,0,0-1.69-.44,3.83,3.83,0,0,0-2.07.57,3.26,3.26,0,0,0-1.34,1.7,10.25,10.25,0,0,0-.42,3.36v8.83H468.5V283Z"/><path d="M499.5,301.73l4.65.78a7.67,7.67,0,0,1-2.83,3.9,8.32,8.32,0,0,1-4.84,1.33q-4.61,0-6.81-3a10.12,10.12,0,0,1-1.74-6.08,9.71,9.71,0,0,1,2.29-6.86,7.54,7.54,0,0,1,5.79-2.49,7.82,7.82,0,0,1,6.21,2.6c1.52,1.73,2.24,4.39,2.18,8H492.71a4.69,4.69,0,0,0,1.13,3.23,3.54,3.54,0,0,0,2.69,1.16,2.85,2.85,0,0,0,1.84-.6A3.65,3.65,0,0,0,499.5,301.73Zm.27-4.71a4.54,4.54,0,0,0-1-3.08,3.36,3.36,0,0,0-5,.06,4.33,4.33,0,0,0-1,3Z"/><path d="M207.79,348.14v-3.63l6.61-7.59c1.09-1.24,1.89-2.12,2.41-2.64-.54,0-1.26.06-2.14.07l-6.23,0v-3.87H223v3.31l-6.74,7.77-2.38,2.57c1.3-.08,2.1-.12,2.41-.12h7.22v4.1Z"/><path d="M225.59,339.08a9.47,9.47,0,0,1,1.15-4.5,7.81,7.81,0,0,1,3.24-3.32,9.69,9.69,0,0,1,4.69-1.15,8.81,8.81,0,0,1,6.56,2.6,9.75,9.75,0,0,1,0,13.2,8.68,8.68,0,0,1-6.49,2.63,10.26,10.26,0,0,1-4.63-1.09,7.49,7.49,0,0,1-3.34-3.22A10.62,10.62,0,0,1,225.59,339.08Zm4.78.25a5.85,5.85,0,0,0,1.25,4,4.07,4.07,0,0,0,6.13,0,5.91,5.91,0,0,0,1.24-4.06,5.79,5.79,0,0,0-1.24-4,4.07,4.07,0,0,0-6.13,0A5.85,5.85,0,0,0,230.37,339.33Z"/><path d="M247.09,330.51h4.3v2.41a6.92,6.92,0,0,1,5.49-2.81,6,6,0,0,1,2.94.7,5.48,5.48,0,0,1,2.05,2.11,8.23,8.23,0,0,1,2.5-2.11,6.24,6.24,0,0,1,2.87-.7,6.46,6.46,0,0,1,3.29.79,4.82,4.82,0,0,1,2,2.32,10.06,10.06,0,0,1,.48,3.65v11.27h-4.66V338.07a7.53,7.53,0,0,0-.48-3.39,2.24,2.24,0,0,0-2-1,3.18,3.18,0,0,0-1.84.6,3.33,3.33,0,0,0-1.25,1.75,12.83,12.83,0,0,0-.38,3.65v8.46h-4.66v-9.66a13.22,13.22,0,0,0-.25-3.32,2.1,2.1,0,0,0-.77-1.11,2.47,2.47,0,0,0-1.42-.37,3.43,3.43,0,0,0-1.94.58,3.19,3.19,0,0,0-1.24,1.68,12.38,12.38,0,0,0-.38,3.64v8.56h-4.66Z"/><path d="M277.47,348.14V323.81h4.67v8.76a6.58,6.58,0,0,1,5.11-2.46,6.87,6.87,0,0,1,5.33,2.34c1.4,1.55,2.11,3.78,2.11,6.7s-.72,5.32-2.15,7a6.72,6.72,0,0,1-5.22,2.44,6.55,6.55,0,0,1-3-.75,7.25,7.25,0,0,1-2.53-2.24v2.59ZM282.1,339A7.48,7.48,0,0,0,283,343a3.68,3.68,0,0,0,3.22,1.86,3.3,3.3,0,0,0,2.63-1.32,6.53,6.53,0,0,0,1.09-4.16,6.88,6.88,0,0,0-1.1-4.36,3.48,3.48,0,0,0-2.81-1.34,3.54,3.54,0,0,0-2.79,1.31A6,6,0,0,0,282.1,339Z"/><path d="M298.44,328.12v-4.31h4.66v4.31Zm0,20V330.51h4.66v17.63Z"/><path d="M318.09,342.53l4.65.78a7.61,7.61,0,0,1-2.83,3.9,8.32,8.32,0,0,1-4.84,1.33q-4.59,0-6.8-3a10.06,10.06,0,0,1-1.75-6.08,9.75,9.75,0,0,1,2.29-6.86,7.54,7.54,0,0,1,5.8-2.49,7.85,7.85,0,0,1,6.21,2.6c1.51,1.73,2.24,4.39,2.17,8H311.3a4.74,4.74,0,0,0,1.13,3.23,3.54,3.54,0,0,0,2.69,1.16,2.87,2.87,0,0,0,1.85-.6A3.71,3.71,0,0,0,318.09,342.53Zm.27-4.71a4.45,4.45,0,0,0-1.05-3.08,3.34,3.34,0,0,0-4.94.06,4.26,4.26,0,0,0-1,3Z"/><path d="M325.15,343.11l4.68-.71a3.47,3.47,0,0,0,1.21,2.07,4.1,4.1,0,0,0,2.56.7,4.62,4.62,0,0,0,2.72-.66,1.5,1.5,0,0,0,.62-1.25,1.25,1.25,0,0,0-.33-.88,3.87,3.87,0,0,0-1.57-.61q-5.64-1.25-7.15-2.28a4.54,4.54,0,0,1-2.09-4,4.89,4.89,0,0,1,1.81-3.86q1.8-1.56,5.61-1.56a9.87,9.87,0,0,1,5.38,1.18,6,6,0,0,1,2.42,3.49l-4.4.81a2.69,2.69,0,0,0-1.07-1.57,3.85,3.85,0,0,0-2.25-.55,5.1,5.1,0,0,0-2.64.51,1.12,1.12,0,0,0-.53.95,1.06,1.06,0,0,0,.47.85,18.24,18.24,0,0,0,4.35,1.31,12.93,12.93,0,0,1,5.21,2.07,4.33,4.33,0,0,1,1.46,3.47,5.33,5.33,0,0,1-2,4.17c-1.35,1.16-3.34,1.74-6,1.74a9.86,9.86,0,0,1-5.7-1.46A6.72,6.72,0,0,1,325.15,343.11Z"/><path d="M359.62,348.14H355V330.51h4.33V333a7.39,7.39,0,0,1,2-2.34,3.69,3.69,0,0,1,2-.57,6,6,0,0,1,3.07.88l-1.44,4.07a4.1,4.1,0,0,0-2.19-.76,2.57,2.57,0,0,0-1.66.54,3.65,3.65,0,0,0-1.07,2,27.71,27.71,0,0,0-.39,5.91Z"/><path d="M380,348.14V345.5a6.85,6.85,0,0,1-2.54,2.23,7.1,7.1,0,0,1-3.31.81,6.5,6.5,0,0,1-3.19-.78,4.6,4.6,0,0,1-2-2.19,9.78,9.78,0,0,1-.63-3.9V330.51H373v8.1a22.87,22.87,0,0,0,.25,4.56,2.57,2.57,0,0,0,.94,1.33,2.88,2.88,0,0,0,1.73.49,3.64,3.64,0,0,0,2.14-.66,3.3,3.3,0,0,0,1.29-1.62,18.55,18.55,0,0,0,.35-4.76v-7.44h4.67v17.63Z"/><path d="M405.19,348.14h-4.67v-9a13.88,13.88,0,0,0-.3-3.7,2.57,2.57,0,0,0-1-1.3,2.79,2.79,0,0,0-1.62-.47,3.76,3.76,0,0,0-2.17.67,3.36,3.36,0,0,0-1.32,1.76,15.08,15.08,0,0,0-.36,4.05v8h-4.66V330.51h4.33v2.59a7.21,7.21,0,0,1,8.63-2.43,4.74,4.74,0,0,1,1.94,1.42,5.26,5.26,0,0,1,.91,2,14.67,14.67,0,0,1,.26,3.14Z"/><path d="M418.29,339.08a9.58,9.58,0,0,1,1.14-4.5,7.83,7.83,0,0,1,3.25-3.32,9.67,9.67,0,0,1,4.69-1.15,8.8,8.8,0,0,1,6.55,2.6,9,9,0,0,1,2.56,6.57,9.07,9.07,0,0,1-2.58,6.63,8.71,8.71,0,0,1-6.5,2.63,10.19,10.19,0,0,1-4.62-1.09,7.46,7.46,0,0,1-3.35-3.22A10.74,10.74,0,0,1,418.29,339.08Zm4.78.25a5.85,5.85,0,0,0,1.24,4,4.09,4.09,0,0,0,6.14,0,6,6,0,0,0,1.23-4.06,5.83,5.83,0,0,0-1.23-4,4.09,4.09,0,0,0-6.14,0A5.85,5.85,0,0,0,423.07,339.33Z"/><path d="M451.74,348.14V345.5a6.82,6.82,0,0,1-2.53,2.23,7.14,7.14,0,0,1-3.32.81,6.46,6.46,0,0,1-3.18-.78,4.62,4.62,0,0,1-2-2.19,9.78,9.78,0,0,1-.63-3.9V330.51h4.67v8.1a21.77,21.77,0,0,0,.26,4.56,2.5,2.5,0,0,0,.93,1.33,2.88,2.88,0,0,0,1.73.49,3.64,3.64,0,0,0,2.14-.66,3.38,3.38,0,0,0,1.3-1.62,19.05,19.05,0,0,0,.35-4.76v-7.44h4.66v17.63Z"/><path d="M469,330.51v3.72H465.8v7.11a17.84,17.84,0,0,0,.09,2.51,1,1,0,0,0,.41.59,1.29,1.29,0,0,0,.79.23,6.2,6.2,0,0,0,1.88-.44l.4,3.61a9.23,9.23,0,0,1-3.69.7,5.85,5.85,0,0,1-2.27-.42,3.31,3.31,0,0,1-1.49-1.1,4.31,4.31,0,0,1-.65-1.81,22.64,22.64,0,0,1-.15-3.29v-7.69H459v-3.72h2.14V327l4.68-2.72v6.22Z"/><path d="M480.59,339.08a9.47,9.47,0,0,1,1.15-4.5,7.81,7.81,0,0,1,3.24-3.32,9.69,9.69,0,0,1,4.69-1.15,8.81,8.81,0,0,1,6.56,2.6,9.75,9.75,0,0,1,0,13.2,8.68,8.68,0,0,1-6.49,2.63,10.26,10.26,0,0,1-4.63-1.09,7.49,7.49,0,0,1-3.34-3.22A10.62,10.62,0,0,1,480.59,339.08Zm4.78.25a5.85,5.85,0,0,0,1.25,4,4.07,4.07,0,0,0,6.13,0,5.91,5.91,0,0,0,1.24-4.06,5.79,5.79,0,0,0-1.24-4,4.07,4.07,0,0,0-6.13,0A5.85,5.85,0,0,0,485.37,339.33Z"/><path d="M500.4,330.51H503v-1.33a8.75,8.75,0,0,1,.47-3.32,3.78,3.78,0,0,1,1.74-1.78,6.71,6.71,0,0,1,3.22-.69,13,13,0,0,1,3.9.6l-.63,3.25a9.7,9.7,0,0,0-2.15-.26,1.89,1.89,0,0,0-1.45.47,2.75,2.75,0,0,0-.44,1.82v1.24h3.49v3.67h-3.49v14H503v-14H500.4Z"/><path d="M214.14,388.94h-4.67V371.31h4.33v2.51a7.39,7.39,0,0,1,2-2.34,3.69,3.69,0,0,1,2-.57,6,6,0,0,1,3.07.88l-1.44,4.07a4.1,4.1,0,0,0-2.19-.76,2.57,2.57,0,0,0-1.66.54,3.65,3.65,0,0,0-1.07,1.95,27.71,27.71,0,0,0-.39,5.91Z"/><path d="M226.39,376.69l-4.24-.76a6.62,6.62,0,0,1,2.46-3.79,9,9,0,0,1,5.18-1.23,11.22,11.22,0,0,1,4.65.74,4.69,4.69,0,0,1,2.15,1.88,9.7,9.7,0,0,1,.62,4.17l-.05,5.45a18.78,18.78,0,0,0,.23,3.43,10.47,10.47,0,0,0,.83,2.36h-4.61c-.12-.31-.27-.77-.45-1.37-.08-.28-.13-.46-.16-.55a8.55,8.55,0,0,1-2.56,1.74,7.31,7.31,0,0,1-2.91.58,6,6,0,0,1-4.29-1.48,4.92,4.92,0,0,1-1.57-3.73,5,5,0,0,1,.72-2.67,4.64,4.64,0,0,1,2-1.79,15.83,15.83,0,0,1,3.71-1.09,25.91,25.91,0,0,0,4.53-1.14V377a2.41,2.41,0,0,0-.66-1.91,3.94,3.94,0,0,0-2.51-.58,2.8,2.8,0,0,0-3.07,2.21Zm6.24,3.79c-.6.2-1.54.43-2.84.71a8.93,8.93,0,0,0-2.54.81,2,2,0,0,0-.91,1.65,2.26,2.26,0,0,0,.73,1.69,2.53,2.53,0,0,0,1.86.71,4,4,0,0,0,2.4-.83,2.91,2.91,0,0,0,1.12-1.54,9.35,9.35,0,0,0,.18-2.27Z"/><path d="M258,388.94h-4.33v-2.59a7,7,0,0,1-2.55,2.25,6.45,6.45,0,0,1-3,.74,6.7,6.7,0,0,1-5.21-2.45,10,10,0,0,1-2.17-6.83c0-3,.71-5.26,2.11-6.81a6.87,6.87,0,0,1,5.33-2.34,6.61,6.61,0,0,1,5.12,2.46v-8.76H258Zm-12.45-9.19a8.06,8.06,0,0,0,.78,4.08,3.51,3.51,0,0,0,3.15,1.83,3.43,3.43,0,0,0,2.74-1.37,6.31,6.31,0,0,0,1.13-4.1,6.92,6.92,0,0,0-1.09-4.37,3.6,3.6,0,0,0-5.59,0A6,6,0,0,0,245.53,379.75Z"/><path d="M262.58,368.92v-4.31h4.66v4.31Zm0,20V371.31h4.66v17.63Z"/><path d="M271,379.88a9.58,9.58,0,0,1,1.14-4.5,7.89,7.89,0,0,1,3.25-3.32,9.67,9.67,0,0,1,4.69-1.15,8.8,8.8,0,0,1,6.55,2.6,9,9,0,0,1,2.56,6.57,9.07,9.07,0,0,1-2.58,6.63,8.74,8.74,0,0,1-6.5,2.63,10.19,10.19,0,0,1-4.62-1.09,7.51,7.51,0,0,1-3.35-3.22A10.74,10.74,0,0,1,271,379.88Zm4.78.25a5.85,5.85,0,0,0,1.24,4,4.09,4.09,0,0,0,6.14,0,6,6,0,0,0,1.23-4.06,5.83,5.83,0,0,0-1.23-4,4.09,4.09,0,0,0-6.14,0A5.85,5.85,0,0,0,275.73,380.13Z"/><path d="M296.28,376.69l-4.23-.76a6.56,6.56,0,0,1,2.45-3.79,9,9,0,0,1,5.18-1.23,11.22,11.22,0,0,1,4.65.74,4.64,4.64,0,0,1,2.15,1.88,9.55,9.55,0,0,1,.62,4.17l-.05,5.45a18.78,18.78,0,0,0,.23,3.43,10.06,10.06,0,0,0,.84,2.36H303.5c-.12-.31-.27-.77-.45-1.37-.07-.28-.13-.46-.16-.55a8.55,8.55,0,0,1-2.56,1.74,7.26,7.26,0,0,1-2.9.58,6,6,0,0,1-4.3-1.48,4.91,4.91,0,0,1-1.56-3.73,5,5,0,0,1,.71-2.67,4.64,4.64,0,0,1,2-1.79,15.83,15.83,0,0,1,3.71-1.09,25.91,25.91,0,0,0,4.53-1.14V377a2.41,2.41,0,0,0-.66-1.91,3.92,3.92,0,0,0-2.51-.58,2.8,2.8,0,0,0-3.07,2.21Zm6.24,3.79c-.6.2-1.54.43-2.84.71a8.93,8.93,0,0,0-2.54.81,2,2,0,0,0-.91,1.65,2.26,2.26,0,0,0,.73,1.69,2.54,2.54,0,0,0,1.86.71,4,4,0,0,0,2.41-.83,2.94,2.94,0,0,0,1.11-1.54,9.35,9.35,0,0,0,.18-2.27Z"/><path d="M327.08,376.53l-4.6.83a3.38,3.38,0,0,0-1.06-2.08,3.19,3.19,0,0,0-2.13-.7,3.47,3.47,0,0,0-2.78,1.21,6.16,6.16,0,0,0-1,4c0,2.09.35,3.57,1.06,4.44a3.45,3.45,0,0,0,2.83,1.29,3.15,3.15,0,0,0,2.17-.75,4.58,4.58,0,0,0,1.2-2.6l4.58.78a8.14,8.14,0,0,1-2.74,4.76,8.5,8.5,0,0,1-5.43,1.61A8.07,8.07,0,0,1,313,386.9a11.11,11.11,0,0,1,0-13.55,8.17,8.17,0,0,1,6.24-2.44,8.52,8.52,0,0,1,5.12,1.39A7.68,7.68,0,0,1,327.08,376.53Z"/><path d="M338.7,371.31V375h-3.19v7.11a17.84,17.84,0,0,0,.09,2.51,1,1,0,0,0,.42.59,1.26,1.26,0,0,0,.78.23,6.2,6.2,0,0,0,1.88-.44l.4,3.61a9.2,9.2,0,0,1-3.69.7,5.85,5.85,0,0,1-2.27-.42,3.31,3.31,0,0,1-1.49-1.1A4.31,4.31,0,0,1,331,386a22.38,22.38,0,0,1-.15-3.28V375h-2.14v-3.72h2.14v-3.5l4.68-2.72v6.22Z"/><path d="M341.93,368.92v-4.31h4.67v4.31Zm0,20V371.31h4.67v17.63Z"/><path d="M356.23,388.94l-7.11-17.63H354l3.32,9,1,3c.26-.77.42-1.27.49-1.52.15-.49.32-1,.49-1.49l3.36-9h4.79l-7,17.63Z"/><path d="M380.5,383.33l4.65.78a7.67,7.67,0,0,1-2.83,3.9,8.32,8.32,0,0,1-4.84,1.33q-4.61,0-6.81-3a10.12,10.12,0,0,1-1.74-6.08,9.71,9.71,0,0,1,2.29-6.86,7.54,7.54,0,0,1,5.79-2.49,7.82,7.82,0,0,1,6.21,2.6c1.52,1.73,2.24,4.39,2.18,8H373.71a4.69,4.69,0,0,0,1.13,3.23,3.54,3.54,0,0,0,2.69,1.16,2.85,2.85,0,0,0,1.84-.6A3.65,3.65,0,0,0,380.5,383.33Zm.27-4.71a4.54,4.54,0,0,0-1-3.08,3.18,3.18,0,0,0-2.42-1.06,3.24,3.24,0,0,0-2.53,1.12,4.31,4.31,0,0,0-1,3Z"/><path d="M398.21,390.11l5.33.64a1.83,1.83,0,0,0,.62,1.28,3.51,3.51,0,0,0,2.09.5A5.38,5.38,0,0,0,409,392a2.25,2.25,0,0,0,.93-1.18,7.22,7.22,0,0,0,.21-2.14v-2.57a6.3,6.3,0,0,1-5.28,2.85,6.49,6.49,0,0,1-5.62-3A10.16,10.16,0,0,1,397.6,380c0-3,.71-5.21,2.13-6.78a6.9,6.9,0,0,1,5.31-2.34,6.44,6.44,0,0,1,5.39,2.88v-2.48h4.37v15.82a15.54,15.54,0,0,1-.52,4.67,5.68,5.68,0,0,1-1.44,2.42,6.35,6.35,0,0,1-2.48,1.38,13.19,13.19,0,0,1-3.93.5q-4.49,0-6.36-1.54a4.81,4.81,0,0,1-1.87-3.89C398.2,390.51,398.2,390.33,398.21,390.11Zm4.17-10.35a6.33,6.33,0,0,0,1.09,4.11,3.35,3.35,0,0,0,2.68,1.3,3.71,3.71,0,0,0,2.89-1.33,5.85,5.85,0,0,0,1.18-4,6.2,6.2,0,0,0-1.13-4.07,3.63,3.63,0,0,0-2.86-1.33,3.43,3.43,0,0,0-2.76,1.31A6.07,6.07,0,0,0,402.38,379.76Z"/><path d="M431,388.94V386.3a6.82,6.82,0,0,1-2.53,2.23,7.14,7.14,0,0,1-3.32.81,6.46,6.46,0,0,1-3.18-.78,4.6,4.6,0,0,1-2-2.19,9.59,9.59,0,0,1-.64-3.9V371.31H424v8.1a22.54,22.54,0,0,0,.26,4.56,2.5,2.5,0,0,0,.93,1.33,2.88,2.88,0,0,0,1.73.49,3.64,3.64,0,0,0,2.14-.66,3.32,3.32,0,0,0,1.3-1.62,19.05,19.05,0,0,0,.35-4.76v-7.44h4.66v17.63Z"/><path d="M438.54,383.91l4.68-.71a3.43,3.43,0,0,0,1.21,2.07,4.1,4.1,0,0,0,2.56.7,4.62,4.62,0,0,0,2.72-.66,1.5,1.5,0,0,0,.62-1.25,1.21,1.21,0,0,0-.34-.88,3.74,3.74,0,0,0-1.56-.61q-5.64-1.24-7.15-2.28a4.52,4.52,0,0,1-2.09-4,4.89,4.89,0,0,1,1.81-3.86q1.8-1.56,5.61-1.56a9.87,9.87,0,0,1,5.38,1.18,6,6,0,0,1,2.42,3.49l-4.4.81a2.69,2.69,0,0,0-1.07-1.57,3.9,3.9,0,0,0-2.25-.55,5.1,5.1,0,0,0-2.64.51,1.12,1.12,0,0,0-.53,1,1,1,0,0,0,.46.85,18.57,18.57,0,0,0,4.36,1.31,12.93,12.93,0,0,1,5.21,2.07,4.33,4.33,0,0,1,1.46,3.47,5.33,5.33,0,0,1-2,4.17q-2,1.74-6,1.74a9.86,9.86,0,0,1-5.7-1.46A6.72,6.72,0,0,1,438.54,383.91Z"/><path d="M467.18,371.31V375H464v7.11a17.84,17.84,0,0,0,.09,2.51,1,1,0,0,0,.42.59,1.24,1.24,0,0,0,.78.23,6.2,6.2,0,0,0,1.88-.44l.4,3.61a9.2,9.2,0,0,1-3.69.7,5.85,5.85,0,0,1-2.27-.42,3.31,3.31,0,0,1-1.49-1.1,4.31,4.31,0,0,1-.65-1.82,22.38,22.38,0,0,1-.15-3.28V375h-2.14v-3.72h2.14v-3.5l4.68-2.72v6.22Z"/><path d="M469.33,379.88a9.59,9.59,0,0,1,1.15-4.5,7.83,7.83,0,0,1,3.25-3.32,9.67,9.67,0,0,1,4.69-1.15,8.8,8.8,0,0,1,6.55,2.6,9,9,0,0,1,2.56,6.57,9.07,9.07,0,0,1-2.58,6.63,8.74,8.74,0,0,1-6.5,2.63,10.19,10.19,0,0,1-4.62-1.09,7.46,7.46,0,0,1-3.35-3.22A10.74,10.74,0,0,1,469.33,379.88Zm4.79.25a5.85,5.85,0,0,0,1.24,4,4.09,4.09,0,0,0,6.14,0,6,6,0,0,0,1.23-4.06,5.83,5.83,0,0,0-1.23-4,4.09,4.09,0,0,0-6.14,0A5.85,5.85,0,0,0,474.12,380.13Z"/><path d="M491.07,384.28h4.66v3.34a11.29,11.29,0,0,1-.35,3.19,4.73,4.73,0,0,1-1.32,2.1,6.7,6.7,0,0,1-2.46,1.46l-.92-1.92a4,4,0,0,0,2-1.28,3.83,3.83,0,0,0,.63-2.23h-2.25Z"/><path d="M213.16,417.49l-4.24-.76a6.62,6.62,0,0,1,2.46-3.79,9,9,0,0,1,5.18-1.23,11.22,11.22,0,0,1,4.65.74,4.69,4.69,0,0,1,2.15,1.88,9.7,9.7,0,0,1,.62,4.17l0,5.45a17.91,17.91,0,0,0,.23,3.43,9.57,9.57,0,0,0,.83,2.36h-4.61c-.12-.31-.27-.77-.45-1.37-.08-.28-.13-.46-.17-.55a8.51,8.51,0,0,1-2.55,1.74,7.31,7.31,0,0,1-2.91.58,6,6,0,0,1-4.29-1.48,4.89,4.89,0,0,1-1.57-3.73,5,5,0,0,1,.72-2.67,4.64,4.64,0,0,1,2-1.79,15.68,15.68,0,0,1,3.71-1.09,25.91,25.91,0,0,0,4.53-1.14v-.47a2.38,2.38,0,0,0-.67-1.91,3.89,3.89,0,0,0-2.5-.58,2.8,2.8,0,0,0-3.07,2.21Zm6.24,3.79c-.6.2-1.55.43-2.84.71a8.82,8.82,0,0,0-2.54.81,2,2,0,0,0-.91,1.65,2.26,2.26,0,0,0,.73,1.69,2.51,2.51,0,0,0,1.86.71,4,4,0,0,0,2.4-.83,2.91,2.91,0,0,0,1.12-1.54,9.35,9.35,0,0,0,.18-2.27Z"/><path d="M244.62,429.74H240v-9a13.88,13.88,0,0,0-.3-3.7,2.57,2.57,0,0,0-1-1.3,2.79,2.79,0,0,0-1.62-.47,3.67,3.67,0,0,0-2.17.67,3.36,3.36,0,0,0-1.32,1.76,15.08,15.08,0,0,0-.36,4.05v8h-4.66V412.11h4.33v2.59a7.21,7.21,0,0,1,8.63-2.43,4.74,4.74,0,0,1,1.94,1.42,5.19,5.19,0,0,1,.91,2,14.61,14.61,0,0,1,.26,3.14Z"/><path d="M265.52,429.74h-4.34v-2.59a6.93,6.93,0,0,1-2.54,2.25,6.46,6.46,0,0,1-3,.74,6.69,6.69,0,0,1-5.2-2.45,9.93,9.93,0,0,1-2.17-6.83q0-4.49,2.11-6.81a6.87,6.87,0,0,1,5.33-2.34,6.59,6.59,0,0,1,5.11,2.46v-8.76h4.67Zm-12.45-9.19a8.06,8.06,0,0,0,.78,4.08,3.51,3.51,0,0,0,3.15,1.83,3.45,3.45,0,0,0,2.74-1.37,6.36,6.36,0,0,0,1.13-4.1,6.91,6.91,0,0,0-1.1-4.37,3.59,3.59,0,0,0-5.58,0A6,6,0,0,0,253.07,420.55Z"/><path d="M277.35,412.11h5l4.22,12.52,4.11-12.52h4.83l-6.22,17-1.11,3.07a12.54,12.54,0,0,1-1.17,2.36,5.38,5.38,0,0,1-1.28,1.32,5.61,5.61,0,0,1-1.78.79,9.6,9.6,0,0,1-2.38.28,12.86,12.86,0,0,1-2.64-.28l-.42-3.66a9.89,9.89,0,0,0,2,.22,3,3,0,0,0,2.41-.95,6.55,6.55,0,0,0,1.19-2.44Z"/><path d="M297.39,420.68a9.47,9.47,0,0,1,1.15-4.5,7.81,7.81,0,0,1,3.24-3.32,9.69,9.69,0,0,1,4.69-1.15,8.81,8.81,0,0,1,6.56,2.6,9,9,0,0,1,2.56,6.57,9.09,9.09,0,0,1-2.58,6.63,8.74,8.74,0,0,1-6.5,2.63,10.26,10.26,0,0,1-4.63-1.09,7.49,7.49,0,0,1-3.34-3.22A10.62,10.62,0,0,1,297.39,420.68Zm4.78.25a5.85,5.85,0,0,0,1.25,4,4.07,4.07,0,0,0,6.13,0,5.91,5.91,0,0,0,1.24-4.06,5.79,5.79,0,0,0-1.24-4,4.07,4.07,0,0,0-6.13,0A5.85,5.85,0,0,0,302.17,420.93Z"/><path d="M330.84,429.74V427.1a6.74,6.74,0,0,1-2.53,2.23,7.1,7.1,0,0,1-3.31.81,6.5,6.5,0,0,1-3.19-.78,4.6,4.6,0,0,1-2-2.19,9.78,9.78,0,0,1-.63-3.9V412.11h4.67v8.1a22.87,22.87,0,0,0,.25,4.56,2.51,2.51,0,0,0,.94,1.33,2.88,2.88,0,0,0,1.73.49,3.66,3.66,0,0,0,2.14-.66,3.3,3.3,0,0,0,1.29-1.62,18.55,18.55,0,0,0,.35-4.76v-7.44h4.67v17.63Z"/><polygon class="cls-7" points="395.85 469.28 386.04 432.46 376.27 469.28 361.87 469.28 348.01 411.23 362.5 411.23 369.73 444.19 378.5 411.23 394.05 411.23 402.43 444.63 409.77 411.23 424.08 411.23 409.98 469.28 395.85 469.28"/><path d="M422.17,412.73l-13.37,55H397l-11-41.16-10.93,41.16H363.06l-13.15-55h11.38l8.3,37.82,10.07-37.82h13.22l9.65,38.45L411,412.73h11.19m3.81-3H408.56l-.51,2.35-5.72,26L395.79,412l-.57-2.27H377.35l-.59,2.23-6.89,25.87-5.65-25.75-.52-2.35H346.11l.88,3.69,13.15,55.06.55,2.3h16.73l.59-2.23,8-30.26,8.06,30.27.59,2.22h16.46l.55-2.29,13.37-55.06.9-3.7Z"/><rect class="cls-7" x="426" y="411.23" width="14.12" height="58.06"/><path d="M438.62,412.73v55H427.5v-55h11.12m3-3H424.5v61h17.12v-61Z"/><polygon class="cls-7" points="481.01 469.28 461.15 437.16 461.15 469.28 447.82 469.28 447.82 411.23 460.98 411.23 481.17 444.18 481.17 411.23 494.5 411.23 494.5 469.28 481.01 469.28"/><path d="M493,412.73v55H481.84l-22.19-35.9v35.9H449.32v-55h10.82l22.53,36.76V412.73H493m3-3H479.67v29.13l-17-27.7-.88-1.43h-15.5v61h16.33V442.44l16.64,26.92.88,1.42H496v-61Z"/><path class="cls-8" d="M1142.71,314.75a2,2,0,0,1-2-2v-52.9a2,2,0,0,1,2-2h10.77a2,2,0,0,1,2,2v41.92h24.78a2,2,0,0,1,2,2v9a2,2,0,0,1-2,2Z"/><path d="M1153.48,259.85v43.92h26.78v9h-37.55v-52.9h10.77m0-4h-10.77a4,4,0,0,0-4,4v52.9a4,4,0,0,0,4,4h37.55a4,4,0,0,0,4-4v-9a4,4,0,0,0-4-4h-22.78V259.85a4,4,0,0,0-4-4Z"/><path class="cls-8" d="M1211.69,315.66c-8.46,0-15.31-2.65-20.36-7.87s-7.58-12.39-7.58-21.38a36,36,0,0,1,2.61-14.48,27,27,0,0,1,5.36-7.9,22.88,22.88,0,0,1,7.56-5.26,31.39,31.39,0,0,1,12.26-2.26c8.39,0,15.22,2.66,20.3,7.92s7.64,12.55,7.64,21.73-2.55,16.37-7.58,21.59S1220.05,315.66,1211.69,315.66Zm0-46a11.7,11.7,0,0,0-9.24,3.9c-2.36,2.65-3.56,6.84-3.56,12.44s1.23,9.67,3.67,12.4a12.38,12.38,0,0,0,18.21,0c2.4-2.7,3.62-6.94,3.62-12.59s-1.18-9.73-3.51-12.34A11.6,11.6,0,0,0,1211.65,269.71Z"/><path d="M1211.54,258.51q11.79,0,18.87,7.31t7.07,20.34q0,12.91-7,20.21t-18.77,7.29q-11.89,0-18.92-7.26t-7-20a33.86,33.86,0,0,1,2.44-13.68,25.08,25.08,0,0,1,5-7.31,20.72,20.72,0,0,1,6.9-4.8,29.18,29.18,0,0,1,11.49-2.11m.11,45.95a13.51,13.51,0,0,0,10.57-4.64q4.13-4.63,4.13-13.92t-4-13.68a14.89,14.89,0,0,0-21.41.06q-4.08,4.56-4.07,13.77,0,9.06,4.18,13.73a13.62,13.62,0,0,0,10.62,4.68m-.11-49.95a33.37,33.37,0,0,0-13,2.43,24.82,24.82,0,0,0-8.21,5.69,29.46,29.46,0,0,0-5.75,8.47,38,38,0,0,0-2.78,15.31c0,9.53,2.74,17.19,8.15,22.77s12.77,8.48,21.79,8.48,16.21-2.87,21.65-8.52,8.14-13.34,8.14-23-2.76-17.5-8.2-23.12-12.79-8.53-21.74-8.53Zm.11,45.95a9.57,9.57,0,0,1-7.64-3.35c-2.1-2.34-3.16-6.06-3.16-11.06s1-8.83,3.05-11.11a9.68,9.68,0,0,1,7.75-3.23,9.55,9.55,0,0,1,7.69,3.18c2,2.23,3,5.94,3,11s-1,8.94-3.12,11.26a9.48,9.48,0,0,1-7.58,3.3Z"/><path class="cls-8" d="M1269.64,315.66c-8.46,0-15.3-2.65-20.35-7.87s-7.59-12.39-7.59-21.38a36,36,0,0,1,2.61-14.48,27.19,27.19,0,0,1,5.36-7.9,22.88,22.88,0,0,1,7.56-5.26,31.44,31.44,0,0,1,12.27-2.26c8.38,0,15.21,2.66,20.3,7.92s7.64,12.55,7.64,21.73-2.55,16.37-7.58,21.59S1278,315.66,1269.64,315.66Zm0-46a11.69,11.69,0,0,0-9.24,3.9c-2.37,2.65-3.57,6.84-3.57,12.44s1.24,9.67,3.67,12.4a11.62,11.62,0,0,0,9.14,4,11.5,11.5,0,0,0,9.07-4c2.41-2.7,3.62-6.94,3.62-12.59s-1.18-9.73-3.51-12.34A11.58,11.58,0,0,0,1269.61,269.71Z"/><path d="M1269.5,258.51q11.79,0,18.86,7.31t7.08,20.34q0,12.91-7,20.21t-18.78,7.29q-11.9,0-18.91-7.26t-7-20a34,34,0,0,1,2.44-13.68,25.11,25.11,0,0,1,5-7.31,20.68,20.68,0,0,1,6.89-4.8,29.24,29.24,0,0,1,11.5-2.11m.11,45.95a13.51,13.51,0,0,0,10.56-4.64q4.14-4.63,4.13-13.92t-4-13.68a14.89,14.89,0,0,0-21.41.06q-4.06,4.56-4.07,13.77,0,9.06,4.18,13.73a13.63,13.63,0,0,0,10.63,4.68m-.11-49.95a33.42,33.42,0,0,0-13.06,2.43,24.78,24.78,0,0,0-8.2,5.69,29.26,29.26,0,0,0-5.75,8.47,38,38,0,0,0-2.79,15.31c0,9.53,2.75,17.19,8.15,22.77s12.77,8.48,21.79,8.48,16.22-2.87,21.66-8.52,8.14-13.34,8.14-23-2.76-17.5-8.21-23.12-12.79-8.53-21.73-8.53Zm.11,45.95a9.58,9.58,0,0,1-7.65-3.35c-2.1-2.34-3.16-6.06-3.16-11.06s1-8.83,3.06-11.11a9.67,9.67,0,0,1,7.75-3.23,9.56,9.56,0,0,1,7.69,3.18c2,2.23,3,5.94,3,11s-1,8.94-3.11,11.26a9.49,9.49,0,0,1-7.58,3.3Z"/><path class="cls-8" d="M1323.12,315.7c-7.2,0-12.87-1.74-16.84-5.16s-6.39-8.46-7.15-14.91a2,2,0,0,1,1.79-2.22l10.48-1h.19a2,2,0,0,1,2,1.65c.54,3,1.61,5.24,3.17,6.58a9.73,9.73,0,0,0,6.5,2c3,0,5.18-.58,6.56-1.73a4.57,4.57,0,0,0,1.92-3.62,2.84,2.84,0,0,0-.65-1.93,6.77,6.77,0,0,0-3-1.71c-1.17-.41-4-1.18-8.43-2.27-6.15-1.53-10.4-3.4-13-5.73a16,16,0,0,1-2.95-20.94,16.57,16.57,0,0,1,7.55-6.15,28.93,28.93,0,0,1,11.28-2c7.16,0,12.69,1.64,16.43,4.89a17.55,17.55,0,0,1,6,13.19,2,2,0,0,1-1.91,2.07l-10.86.47a2,2,0,0,1-2-1.66c-.38-2.23-1.13-3.8-2.24-4.68s-3-1.37-5.58-1.37a10.42,10.42,0,0,0-6.17,1.55,1.9,1.9,0,0,0-.88,1.69,2.09,2.09,0,0,0,.88,1.71c.63.52,2.63,1.63,9.07,3.15a53.89,53.89,0,0,1,12.1,4,17,17,0,0,1,6.66,6.14,18.78,18.78,0,0,1-.43,19.21,17.38,17.38,0,0,1-8.12,6.72A32.4,32.4,0,0,1,1323.12,315.7Z"/><path d="M1322.5,258.51q10.05,0,15.12,4.4a15.56,15.56,0,0,1,5.33,11.75l-10.77.47q-.69-4.11-3-5.91c-1.52-1.2-3.79-1.8-6.83-1.8a12.26,12.26,0,0,0-7.34,1.93,3.88,3.88,0,0,0-1.71,3.31,4.1,4.1,0,0,0,1.6,3.24q2,1.71,9.89,3.56a52.51,52.51,0,0,1,11.63,3.84,15,15,0,0,1,5.89,5.42,15.86,15.86,0,0,1,2.13,8.5,15.67,15.67,0,0,1-2.55,8.58,15.29,15.29,0,0,1-7.2,5.95,30.21,30.21,0,0,1-11.61,1.95q-10.11,0-15.53-4.68t-6.48-13.62l10.48-1q.95,5.28,3.84,7.75a11.6,11.6,0,0,0,7.8,2.47q5.2,0,7.84-2.2a6.55,6.55,0,0,0,2.64-5.15,4.87,4.87,0,0,0-1.11-3.22,9,9,0,0,0-3.88-2.31c-1.26-.43-4.13-1.21-8.62-2.32-5.77-1.44-9.82-3.19-12.15-5.28a13.88,13.88,0,0,1-4.91-10.73,13.69,13.69,0,0,1,2.31-7.62,14.46,14.46,0,0,1,6.66-5.41,26.78,26.78,0,0,1,10.49-1.85m0-4a30.6,30.6,0,0,0-12.06,2.18,18.36,18.36,0,0,0-8.44,6.89,18,18,0,0,0,3.28,23.52,20.79,20.79,0,0,0,5.37,3.35l-9.92,1a4,4,0,0,0-3.59,4.45c.82,7,3.46,12.41,7.84,16.18s10.44,5.65,18.14,5.65a34.21,34.21,0,0,0,13.15-2.26,19.25,19.25,0,0,0,9-7.49,20.77,20.77,0,0,0,.44-21.33,19,19,0,0,0-7.43-6.86c-.53-.27-1.1-.55-1.71-.82l6.51-.28a4,4,0,0,0,3.83-4.14,19.46,19.46,0,0,0-6.71-14.63c-4.12-3.57-10.08-5.38-17.74-5.38Zm-5.16,18.12.05,0a8.7,8.7,0,0,1,5-1.17c2.75,0,3.9.59,4.34.94a5.61,5.61,0,0,1,1.51,3.44,2.71,2.71,0,0,0,.09.41c-.82-.21-1.68-.43-2.58-.64-6.71-1.59-8.1-2.62-8.24-2.74a.84.84,0,0,1-.17-.17v0Zm5.89,28a7.72,7.72,0,0,1-5.2-1.51c-1.2-1-2-2.85-2.5-5.42a4.13,4.13,0,0,0-.68-1.61c1.32.43,2.75.84,4.29,1.22,5.42,1.35,7.5,2,8.28,2.22a5.41,5.41,0,0,1,2.11,1.1c.07.08.18.21.18.65a2.56,2.56,0,0,1-1.2,2.08c-1,.83-2.82,1.27-5.28,1.27Z"/><path class="cls-8" d="M1353.54,314.75a2,2,0,0,1-2-2V259.42a2,2,0,0,1,2-2h39.54a2,2,0,0,1,2,2v9a2,2,0,0,1-2,2h-26.77v7.82h24.77a2,2,0,0,1,2,2v9a2,2,0,0,1-2,2h-24.77v10.52h27.79a2,2,0,0,1,2,2v9a2,2,0,0,1-2,2Z"/><path d="M1393.08,259.42v9h-28.77v11.82h26.77v9h-26.77v14.52h29.79v9h-40.56V259.42h39.54m0-4h-39.54a4,4,0,0,0-4,4v53.33a4,4,0,0,0,4,4h40.56a4,4,0,0,0,4-4v-9a4,4,0,0,0-4-4h-25.79v-6.52h22.77a4,4,0,0,0,4-4v-9a4,4,0,0,0-4-4h-22.77v-3.82h24.77a4,4,0,0,0,4-4v-9a4,4,0,0,0-4-4Z"/><path d="M1141.84,193.34V169.21h4.91v20H1159v4.1Z"/><path d="M1161.36,184.28a9.58,9.58,0,0,1,1.14-4.5,7.89,7.89,0,0,1,3.25-3.32,9.67,9.67,0,0,1,4.69-1.15,8.82,8.82,0,0,1,6.56,2.6,9.77,9.77,0,0,1,0,13.2,8.69,8.69,0,0,1-6.5,2.63,10.25,10.25,0,0,1-4.62-1.09,7.51,7.51,0,0,1-3.35-3.22A10.74,10.74,0,0,1,1161.36,184.28Zm4.78.25a5.85,5.85,0,0,0,1.25,4,4.07,4.07,0,0,0,6.13,0,6,6,0,0,0,1.24-4.05,5.85,5.85,0,0,0-1.24-4,4.07,4.07,0,0,0-6.13,0A5.85,5.85,0,0,0,1166.14,184.53Z"/><path d="M1182.13,184.28a9.58,9.58,0,0,1,1.14-4.5,7.89,7.89,0,0,1,3.25-3.32,9.67,9.67,0,0,1,4.69-1.15,8.82,8.82,0,0,1,6.56,2.6,9.77,9.77,0,0,1,0,13.2,8.71,8.71,0,0,1-6.5,2.63,10.22,10.22,0,0,1-4.62-1.09,7.51,7.51,0,0,1-3.35-3.22A10.74,10.74,0,0,1,1182.13,184.28Zm4.78.25a5.85,5.85,0,0,0,1.24,4,4.09,4.09,0,0,0,6.14,0,6,6,0,0,0,1.24-4.05,5.85,5.85,0,0,0-1.24-4,4.09,4.09,0,0,0-6.14,0A5.85,5.85,0,0,0,1186.91,184.53Z"/><path d="M1202.33,188.31l4.68-.71a3.44,3.44,0,0,0,1.22,2.07,4.07,4.07,0,0,0,2.55.7,4.6,4.6,0,0,0,2.72-.66,1.5,1.5,0,0,0,.62-1.25,1.25,1.25,0,0,0-.33-.88,3.87,3.87,0,0,0-1.56-.61c-3.77-.83-6.15-1.59-7.16-2.28a4.54,4.54,0,0,1-2.09-4,4.87,4.87,0,0,1,1.81-3.85q1.82-1.57,5.61-1.57a9.84,9.84,0,0,1,5.38,1.18,6,6,0,0,1,2.42,3.49l-4.4.81a2.65,2.65,0,0,0-1.07-1.57,3.85,3.85,0,0,0-2.25-.55,5.13,5.13,0,0,0-2.64.51,1.12,1.12,0,0,0-.53.95,1.06,1.06,0,0,0,.47.85,17.74,17.74,0,0,0,4.35,1.31,12.93,12.93,0,0,1,5.21,2.07,4.33,4.33,0,0,1,1.46,3.47,5.32,5.32,0,0,1-2,4.17c-1.36,1.16-3.35,1.74-6,1.74a9.86,9.86,0,0,1-5.7-1.46A6.72,6.72,0,0,1,1202.33,188.31Z"/><path d="M1233.09,187.73l4.65.78a7.61,7.61,0,0,1-2.83,3.9,8.32,8.32,0,0,1-4.84,1.33q-4.59,0-6.8-3a10.06,10.06,0,0,1-1.75-6.08,9.75,9.75,0,0,1,2.29-6.86,7.54,7.54,0,0,1,5.8-2.49,7.85,7.85,0,0,1,6.21,2.6c1.51,1.73,2.24,4.39,2.17,8H1226.3a4.74,4.74,0,0,0,1.13,3.23,3.54,3.54,0,0,0,2.69,1.16,2.87,2.87,0,0,0,1.85-.6A3.71,3.71,0,0,0,1233.09,187.73Zm.27-4.71a4.45,4.45,0,0,0-1-3.08,3.34,3.34,0,0,0-4.94.06,4.28,4.28,0,0,0-1,3Z"/><path d="M1249,175.71h5l4.21,12.52,4.12-12.52h4.83l-6.22,17-1.12,3.07a12.54,12.54,0,0,1-1.17,2.36,5,5,0,0,1-1.28,1.32,5.55,5.55,0,0,1-1.77.79,9.14,9.14,0,0,1-2.38.28,12.2,12.2,0,0,1-2.64-.28l-.42-3.66a9.89,9.89,0,0,0,2,.22,2.94,2.94,0,0,0,2.4-.95,6.71,6.71,0,0,0,1.2-2.44Z"/><path d="M1269.07,184.28a9.47,9.47,0,0,1,1.15-4.5,7.81,7.81,0,0,1,3.24-3.32,9.67,9.67,0,0,1,4.69-1.15,8.82,8.82,0,0,1,6.56,2.6,9.75,9.75,0,0,1,0,13.2,8.69,8.69,0,0,1-6.5,2.63,10.25,10.25,0,0,1-4.62-1.09,7.44,7.44,0,0,1-3.34-3.22A10.62,10.62,0,0,1,1269.07,184.28Zm4.78.25a5.85,5.85,0,0,0,1.25,4,4.07,4.07,0,0,0,6.13,0,5.89,5.89,0,0,0,1.24-4.05,5.8,5.8,0,0,0-1.24-4,4.07,4.07,0,0,0-6.13,0A5.85,5.85,0,0,0,1273.85,184.53Z"/><path d="M1302.52,193.34V190.7a6.74,6.74,0,0,1-2.53,2.23,7.13,7.13,0,0,1-3.31.81,6.47,6.47,0,0,1-3.19-.78,4.6,4.6,0,0,1-2-2.19,9.78,9.78,0,0,1-.63-3.9V175.71h4.66v8.1a22.54,22.54,0,0,0,.26,4.56,2.46,2.46,0,0,0,.94,1.33,2.86,2.86,0,0,0,1.73.49,3.66,3.66,0,0,0,2.14-.66,3.3,3.3,0,0,0,1.29-1.62,19.05,19.05,0,0,0,.35-4.76v-7.44h4.67v17.63Z"/><path d="M1316.15,193.34h-4.66V175.71h4.33v2.51a7.51,7.51,0,0,1,2-2.34,3.64,3.64,0,0,1,2-.57,6,6,0,0,1,3.07.88l-1.45,4.07a4,4,0,0,0-2.19-.76,2.61,2.61,0,0,0-1.66.54,3.71,3.71,0,0,0-1.07,2,27.71,27.71,0,0,0-.39,5.91Z"/><path d="M1334.36,193.34V169H1339v24.33Z"/><path d="M1347.3,181.09l-4.24-.76a6.62,6.62,0,0,1,2.46-3.79,9,9,0,0,1,5.18-1.23,11.22,11.22,0,0,1,4.65.74,4.69,4.69,0,0,1,2.15,1.88,9.7,9.7,0,0,1,.62,4.17l0,5.45a18.78,18.78,0,0,0,.23,3.43,9.57,9.57,0,0,0,.83,2.36h-4.61c-.12-.31-.27-.77-.45-1.37-.08-.28-.13-.46-.17-.55a8.51,8.51,0,0,1-2.55,1.74,7.31,7.31,0,0,1-2.91.58,6,6,0,0,1-4.29-1.48,5.24,5.24,0,0,1-.85-6.39,4.6,4.6,0,0,1,2-1.8A15.68,15.68,0,0,1,1349,183a25,25,0,0,0,4.53-1.14v-.47a2.41,2.41,0,0,0-.66-1.91,3.94,3.94,0,0,0-2.51-.58,2.8,2.8,0,0,0-3.07,2.21Zm6.24,3.79c-.6.2-1.54.43-2.84.71a8.93,8.93,0,0,0-2.54.81,2,2,0,0,0-.91,1.65,2.26,2.26,0,0,0,.73,1.69,2.52,2.52,0,0,0,1.86.72,4,4,0,0,0,2.4-.84,2.91,2.91,0,0,0,1.12-1.54,9.35,9.35,0,0,0,.18-2.27Z"/><path d="M1361.08,188.31l4.68-.71a3.43,3.43,0,0,0,1.21,2.07,4.1,4.1,0,0,0,2.56.7,4.64,4.64,0,0,0,2.72-.66,1.49,1.49,0,0,0,.61-1.25,1.25,1.25,0,0,0-.33-.88A3.74,3.74,0,0,0,1371,187c-3.76-.83-6.15-1.59-7.15-2.28a4.53,4.53,0,0,1-2.1-4,4.9,4.9,0,0,1,1.81-3.85q1.82-1.57,5.61-1.57a9.82,9.82,0,0,1,5.38,1.18A6.05,6.05,0,0,1,1377,180l-4.4.81a2.74,2.74,0,0,0-1.07-1.57,3.9,3.9,0,0,0-2.25-.55,5.1,5.1,0,0,0-2.64.51,1.1,1.1,0,0,0-.53.95,1,1,0,0,0,.46.85,17.72,17.72,0,0,0,4.36,1.31,12.87,12.87,0,0,1,5.2,2.07,4.3,4.3,0,0,1,1.46,3.47,5.32,5.32,0,0,1-2,4.17q-2,1.74-6,1.74a9.87,9.87,0,0,1-5.71-1.46A6.71,6.71,0,0,1,1361.08,188.31Z"/><path d="M1389.71,175.71v3.72h-3.18v7.11a17.84,17.84,0,0,0,.09,2.51,1,1,0,0,0,.41.59,1.29,1.29,0,0,0,.79.23,6.27,6.27,0,0,0,1.88-.44l.4,3.61a9.23,9.23,0,0,1-3.69.7,5.85,5.85,0,0,1-2.27-.42,3.31,3.31,0,0,1-1.49-1.1,4.31,4.31,0,0,1-.66-1.81,22.64,22.64,0,0,1-.15-3.29v-7.69h-2.14v-3.72h2.14v-3.5l4.69-2.72v6.22Z"/><path d="M1402.4,193.34V169h4.66v24.33Z"/><path d="M1411.84,173.32V169h4.67v4.31Zm0,20V175.71h4.67v17.63Z"/><path d="M1419.25,175.71h2.59v-1.33a9,9,0,0,1,.47-3.32,3.78,3.78,0,0,1,1.74-1.78,6.71,6.71,0,0,1,3.22-.69,13,13,0,0,1,3.9.6l-.63,3.25a9.61,9.61,0,0,0-2.14-.26,1.91,1.91,0,0,0-1.46.47,2.75,2.75,0,0,0-.44,1.82v1.24H1430v3.67h-3.49v14h-4.66v-14h-2.59Z"/><path d="M1442.82,187.73l4.65.78a7.67,7.67,0,0,1-2.83,3.9,8.32,8.32,0,0,1-4.84,1.33q-4.59,0-6.81-3a10.12,10.12,0,0,1-1.74-6.08,9.71,9.71,0,0,1,2.29-6.86,7.54,7.54,0,0,1,5.8-2.49,7.81,7.81,0,0,1,6.2,2.6c1.52,1.73,2.25,4.39,2.18,8H1436a4.74,4.74,0,0,0,1.13,3.23,3.54,3.54,0,0,0,2.69,1.16,2.83,2.83,0,0,0,1.84-.6A3.65,3.65,0,0,0,1442.82,187.73Zm.27-4.71a4.49,4.49,0,0,0-1-3.08,3.36,3.36,0,0,0-5,.06,4.28,4.28,0,0,0-1,3Z"/><path d="M1141.54,216.51h4.35v2.59a6.52,6.52,0,0,1,2.29-2.16,6.33,6.33,0,0,1,3.2-.83,6.72,6.72,0,0,1,5.21,2.41,9.75,9.75,0,0,1,2.15,6.71,10,10,0,0,1-2.16,6.86,6.7,6.7,0,0,1-5.23,2.45,5.92,5.92,0,0,1-2.65-.58,9.08,9.08,0,0,1-2.5-2v8.88h-4.66Zm4.61,8.52a6.77,6.77,0,0,0,1.18,4.39,3.6,3.6,0,0,0,2.87,1.42,3.37,3.37,0,0,0,2.71-1.3,6.73,6.73,0,0,0,1.08-4.28,6.39,6.39,0,0,0-1.11-4.12,3.47,3.47,0,0,0-2.76-1.34,3.58,3.58,0,0,0-2.84,1.32A5.88,5.88,0,0,0,1146.15,225Z"/><path d="M1161.36,225.08a9.58,9.58,0,0,1,1.14-4.5,7.89,7.89,0,0,1,3.25-3.32,9.67,9.67,0,0,1,4.69-1.15,8.82,8.82,0,0,1,6.56,2.6,9.77,9.77,0,0,1,0,13.2,8.69,8.69,0,0,1-6.5,2.63,10.25,10.25,0,0,1-4.62-1.09,7.51,7.51,0,0,1-3.35-3.22A10.74,10.74,0,0,1,1161.36,225.08Zm4.78.25a5.85,5.85,0,0,0,1.25,4,4.07,4.07,0,0,0,6.13,0,6,6,0,0,0,1.24-4.06,5.84,5.84,0,0,0-1.24-4,4.07,4.07,0,0,0-6.13,0A5.85,5.85,0,0,0,1166.14,225.33Z"/><path d="M1183.21,214.12v-4.31h4.66v4.31Zm0,20V216.51h4.66v17.63Z"/><path d="M1208.69,234.14H1204v-9a13.88,13.88,0,0,0-.3-3.7,2.63,2.63,0,0,0-1-1.3,2.79,2.79,0,0,0-1.62-.47,3.77,3.77,0,0,0-2.18.67,3.36,3.36,0,0,0-1.32,1.76,15.2,15.2,0,0,0-.35,4v8h-4.67V216.51H1197v2.59a7.22,7.22,0,0,1,8.64-2.43,4.7,4.7,0,0,1,1.93,1.42,5.11,5.11,0,0,1,.91,2,14.67,14.67,0,0,1,.26,3.14Z"/><path d="M1221.51,216.51v3.72h-3.19v7.11a17.84,17.84,0,0,0,.09,2.51,1,1,0,0,0,.42.59,1.24,1.24,0,0,0,.78.23,6.2,6.2,0,0,0,1.88-.44l.4,3.61a9.2,9.2,0,0,1-3.69.7,5.85,5.85,0,0,1-2.27-.42,3.31,3.31,0,0,1-1.49-1.1,4.31,4.31,0,0,1-.65-1.81,22.64,22.64,0,0,1-.15-3.29v-7.69h-2.14v-3.72h2.14V213l4.68-2.72v6.22Z"/><path d="M1224.63,229.48h4.66v3.34a11.29,11.29,0,0,1-.35,3.19,4.73,4.73,0,0,1-1.32,2.1,6.62,6.62,0,0,1-2.46,1.46l-.91-1.92a3.32,3.32,0,0,0,2.64-3.51h-2.26Z"/><path d="M1247.12,221.89l-4.23-.76a6.58,6.58,0,0,1,2.46-3.79,9,9,0,0,1,5.18-1.23,11.13,11.13,0,0,1,4.64.74,4.72,4.72,0,0,1,2.16,1.88,9.7,9.7,0,0,1,.62,4.17l0,5.45a19,19,0,0,0,.22,3.43,10.06,10.06,0,0,0,.84,2.36h-4.62c-.12-.31-.27-.77-.44-1.37-.08-.28-.14-.46-.17-.55a8.55,8.55,0,0,1-2.56,1.74,7.22,7.22,0,0,1-2.9.58,6,6,0,0,1-4.29-1.48,4.89,4.89,0,0,1-1.57-3.73,5,5,0,0,1,.71-2.66,4.66,4.66,0,0,1,2-1.8,16,16,0,0,1,3.71-1.09,25.42,25.42,0,0,0,4.54-1.14v-.47a2.42,2.42,0,0,0-.67-1.91,3.92,3.92,0,0,0-2.51-.58,3.39,3.39,0,0,0-1.94.49A3.47,3.47,0,0,0,1247.12,221.89Zm6.25,3.79c-.6.2-1.55.43-2.84.71a8.7,8.7,0,0,0-2.54.81,2,2,0,0,0-.92,1.65,2.3,2.3,0,0,0,.73,1.69,2.54,2.54,0,0,0,1.86.71,4,4,0,0,0,2.41-.83,2.89,2.89,0,0,0,1.11-1.54,9.2,9.2,0,0,0,.19-2.27Z"/><path d="M1278.58,234.14h-4.66v-9a13.88,13.88,0,0,0-.3-3.7,2.57,2.57,0,0,0-1-1.3,2.79,2.79,0,0,0-1.62-.47,3.8,3.8,0,0,0-2.18.67,3.29,3.29,0,0,0-1.31,1.76,15.08,15.08,0,0,0-.36,4v8h-4.67V216.51h4.34v2.59a7.21,7.21,0,0,1,8.63-2.43,4.64,4.64,0,0,1,1.93,1.42,5.28,5.28,0,0,1,.92,2,14.79,14.79,0,0,1,.25,3.14Z"/><path d="M1299.48,234.14h-4.33v-2.59a7,7,0,0,1-2.55,2.25,6.42,6.42,0,0,1-3,.74,6.7,6.7,0,0,1-5.21-2.45,10,10,0,0,1-2.16-6.83q0-4.48,2.11-6.81a6.85,6.85,0,0,1,5.33-2.34,6.59,6.59,0,0,1,5.11,2.46v-8.76h4.66ZM1287,225a8.06,8.06,0,0,0,.78,4.08,3.54,3.54,0,0,0,3.16,1.83,3.46,3.46,0,0,0,2.74-1.37,6.36,6.36,0,0,0,1.13-4.1,6.91,6.91,0,0,0-1.1-4.37,3.48,3.48,0,0,0-2.81-1.34,3.52,3.52,0,0,0-2.78,1.32A6,6,0,0,0,1287,225Z"/><path d="M1311.32,216.51h5L1320.5,229l4.12-12.52h4.83l-6.23,17-1.11,3.07a12.54,12.54,0,0,1-1.17,2.36,5,5,0,0,1-1.28,1.32,5.55,5.55,0,0,1-1.77.79,9.22,9.22,0,0,1-2.39.28,12.17,12.17,0,0,1-2.63-.28l-.42-3.66a9.89,9.89,0,0,0,2,.22,2.94,2.94,0,0,0,2.4-1,6.71,6.71,0,0,0,1.2-2.44Z"/><path d="M1331.36,225.08a9.58,9.58,0,0,1,1.14-4.5,7.89,7.89,0,0,1,3.25-3.32,9.67,9.67,0,0,1,4.69-1.15,8.82,8.82,0,0,1,6.56,2.6,9.77,9.77,0,0,1,0,13.2,8.69,8.69,0,0,1-6.5,2.63,10.25,10.25,0,0,1-4.62-1.09,7.51,7.51,0,0,1-3.35-3.22A10.74,10.74,0,0,1,1331.36,225.08Zm4.78.25a5.85,5.85,0,0,0,1.25,4,4.07,4.07,0,0,0,6.13,0,6,6,0,0,0,1.24-4.06,5.84,5.84,0,0,0-1.24-4,4.07,4.07,0,0,0-6.13,0A5.85,5.85,0,0,0,1336.14,225.33Z"/><path d="M1364.81,234.14V231.5a6.74,6.74,0,0,1-2.53,2.23,7.13,7.13,0,0,1-3.31.81,6.47,6.47,0,0,1-3.19-.78,4.6,4.6,0,0,1-2-2.19,9.78,9.78,0,0,1-.63-3.9V216.51h4.66v8.1a22.54,22.54,0,0,0,.26,4.56,2.46,2.46,0,0,0,.94,1.33,2.85,2.85,0,0,0,1.72.49,3.67,3.67,0,0,0,2.15-.66,3.3,3.3,0,0,0,1.29-1.62,19.05,19.05,0,0,0,.35-4.76v-7.44h4.66v17.63Z"/><path d="M1386.71,234.14l-5.58-17.63h4.53l3.31,11.56,3-11.56h4.5l2.94,11.56,3.37-11.56h4.6l-5.66,17.63h-4.48l-3-11.34-3,11.34Z"/><path d="M1409.87,214.12v-4.31h4.66v4.31Zm0,20V216.51h4.66v17.63Z"/><path d="M1419.31,234.14V209.81H1424v24.33Z"/><path d="M1428.76,234.14V209.81h4.67v24.33Z"/><path class="cls-9" d="M963.57,199.5H924.29l7.65-28.59,16.79,4.49-19.19-57.33-45.25,40.09,16,4.28-9.91,37.06H732.43a33,33,0,0,0-32.93,32.93v99.14a33,33,0,0,0,32.93,32.93H963.57a33,33,0,0,0,32.93-32.93V232.43A33,33,0,0,0,963.57,199.5Z"/><path d="M734.18,250.34V230.12H727V226H746.3v4.11h-7.2v20.22Z"/><path d="M752,250.34h-4.67V232.71h4.34v2.51a7.38,7.38,0,0,1,2-2.34,3.63,3.63,0,0,1,2-.57,6,6,0,0,1,3.08.88l-1.45,4.07a4.1,4.1,0,0,0-2.19-.76,2.59,2.59,0,0,0-1.66.54,3.71,3.71,0,0,0-1.07,2,27.71,27.71,0,0,0-.39,5.91Z"/><path d="M758.59,232.71h5l4.22,12.52,4.11-12.52h4.83l-6.22,17-1.11,3.07a12.54,12.54,0,0,1-1.17,2.36,5.2,5.2,0,0,1-1.28,1.32,5.61,5.61,0,0,1-1.78.79,9.09,9.09,0,0,1-2.38.28,12.2,12.2,0,0,1-2.64-.28l-.42-3.66a10,10,0,0,0,2,.22,2.94,2.94,0,0,0,2.41-.95,6.55,6.55,0,0,0,1.19-2.44Z"/><path d="M797.23,232.71v3.72h-3.18v7.11a17.84,17.84,0,0,0,.09,2.51,1,1,0,0,0,.41.59,1.29,1.29,0,0,0,.79.23,6.27,6.27,0,0,0,1.88-.44l.4,3.61a9.23,9.23,0,0,1-3.69.7,5.85,5.85,0,0,1-2.27-.42,3.31,3.31,0,0,1-1.49-1.1,4.45,4.45,0,0,1-.66-1.81,24.83,24.83,0,0,1-.14-3.29v-7.69h-2.15v-3.72h2.15v-3.5l4.68-2.72v6.22Z"/><path d="M799.39,241.28a9.47,9.47,0,0,1,1.15-4.5,7.81,7.81,0,0,1,3.24-3.32,9.69,9.69,0,0,1,4.69-1.15,8.81,8.81,0,0,1,6.56,2.6,9,9,0,0,1,2.56,6.57,9.07,9.07,0,0,1-2.58,6.63,8.71,8.71,0,0,1-6.5,2.63,10.26,10.26,0,0,1-4.63-1.09,7.49,7.49,0,0,1-3.34-3.22A10.62,10.62,0,0,1,799.39,241.28Zm4.78.25a5.85,5.85,0,0,0,1.25,4,4.07,4.07,0,0,0,6.13,0,5.89,5.89,0,0,0,1.24-4.05,5.8,5.8,0,0,0-1.24-4,4.07,4.07,0,0,0-6.13,0A5.85,5.85,0,0,0,804.17,241.53Z"/><path d="M829,245.31l4.68-.71a3.44,3.44,0,0,0,1.22,2.07,4.07,4.07,0,0,0,2.55.7,4.66,4.66,0,0,0,2.73-.66,1.51,1.51,0,0,0,.61-1.25,1.25,1.25,0,0,0-.33-.88,3.74,3.74,0,0,0-1.56-.61c-3.77-.83-6.15-1.59-7.16-2.28a4.54,4.54,0,0,1-2.09-4,4.87,4.87,0,0,1,1.81-3.85q1.82-1.57,5.61-1.57a9.84,9.84,0,0,1,5.38,1.18,6,6,0,0,1,2.42,3.49l-4.4.81a2.65,2.65,0,0,0-1.07-1.57,3.85,3.85,0,0,0-2.25-.55,5.15,5.15,0,0,0-2.64.51,1.12,1.12,0,0,0-.53.95,1.06,1.06,0,0,0,.47.85,17.72,17.72,0,0,0,4.36,1.31,12.87,12.87,0,0,1,5.2,2.07,4.33,4.33,0,0,1,1.46,3.47,5.32,5.32,0,0,1-2,4.17q-2,1.74-6,1.74a9.86,9.86,0,0,1-5.7-1.46A6.72,6.72,0,0,1,829,245.31Z"/><path d="M854.24,226V235a6.9,6.9,0,0,1,5.4-2.64,6.81,6.81,0,0,1,2.9.6,4.77,4.77,0,0,1,2,1.53,5.66,5.66,0,0,1,.89,2.06,18.42,18.42,0,0,1,.24,3.5v10.34H861V241a13.58,13.58,0,0,0-.27-3.52,2.29,2.29,0,0,0-.94-1.19,3,3,0,0,0-1.68-.44,3.84,3.84,0,0,0-2.08.57,3.24,3.24,0,0,0-1.33,1.7,10.2,10.2,0,0,0-.43,3.36v8.83h-4.66V226Z"/><path d="M869.29,241.28a9.58,9.58,0,0,1,1.14-4.5,7.83,7.83,0,0,1,3.25-3.32,9.67,9.67,0,0,1,4.69-1.15,8.8,8.8,0,0,1,6.55,2.6,9,9,0,0,1,2.56,6.57,9.07,9.07,0,0,1-2.58,6.63,8.71,8.71,0,0,1-6.5,2.63,10.19,10.19,0,0,1-4.62-1.09,7.46,7.46,0,0,1-3.35-3.22A10.74,10.74,0,0,1,869.29,241.28Zm4.78.25a5.85,5.85,0,0,0,1.24,4,4.09,4.09,0,0,0,6.14,0,5.94,5.94,0,0,0,1.23-4.05,5.85,5.85,0,0,0-1.23-4,4.09,4.09,0,0,0-6.14,0A5.85,5.85,0,0,0,874.07,241.53Z"/><path d="M890.05,241.28a9.59,9.59,0,0,1,1.15-4.5,7.81,7.81,0,0,1,3.24-3.32,9.69,9.69,0,0,1,4.69-1.15,8.81,8.81,0,0,1,6.56,2.6,9,9,0,0,1,2.56,6.57,9.07,9.07,0,0,1-2.58,6.63,8.71,8.71,0,0,1-6.5,2.63,10.26,10.26,0,0,1-4.63-1.09,7.49,7.49,0,0,1-3.34-3.22A10.74,10.74,0,0,1,890.05,241.28Zm4.78.25a5.85,5.85,0,0,0,1.25,4,4.07,4.07,0,0,0,6.13,0,5.89,5.89,0,0,0,1.24-4.05,5.8,5.8,0,0,0-1.24-4,4.07,4.07,0,0,0-6.13,0A5.85,5.85,0,0,0,894.83,241.53Z"/><path d="M920,232.71v3.72H916.8v7.11a17.84,17.84,0,0,0,.09,2.51,1,1,0,0,0,.41.59,1.29,1.29,0,0,0,.79.23,6.2,6.2,0,0,0,1.88-.44l.4,3.61a9.23,9.23,0,0,1-3.69.7,5.85,5.85,0,0,1-2.27-.42,3.31,3.31,0,0,1-1.49-1.1,4.31,4.31,0,0,1-.65-1.81,22.64,22.64,0,0,1-.15-3.29v-7.69H910v-3.72h2.14v-3.5l4.68-2.72v6.22Z"/><path d="M936.16,238.09l-4.24-.76a6.62,6.62,0,0,1,2.46-3.79,9,9,0,0,1,5.18-1.23,11.22,11.22,0,0,1,4.65.74,4.69,4.69,0,0,1,2.15,1.88,9.7,9.7,0,0,1,.62,4.17l-.05,5.45a17.91,17.91,0,0,0,.23,3.43,9.57,9.57,0,0,0,.83,2.36h-4.61c-.12-.31-.27-.77-.45-1.37-.08-.28-.13-.46-.17-.55a8.51,8.51,0,0,1-2.55,1.74,7.31,7.31,0,0,1-2.91.58,6,6,0,0,1-4.29-1.48,5.24,5.24,0,0,1-.85-6.39,4.6,4.6,0,0,1,2-1.8,15.68,15.68,0,0,1,3.71-1.09,25,25,0,0,0,4.53-1.14v-.47a2.38,2.38,0,0,0-.67-1.91,3.89,3.89,0,0,0-2.5-.58,2.8,2.8,0,0,0-3.07,2.21Zm6.24,3.79c-.6.2-1.55.43-2.84.71a8.82,8.82,0,0,0-2.54.81,2,2,0,0,0-.91,1.65,2.26,2.26,0,0,0,.73,1.69,2.52,2.52,0,0,0,1.86.72,4,4,0,0,0,2.4-.84,2.91,2.91,0,0,0,1.12-1.54,9.35,9.35,0,0,0,.18-2.27Z"/><path d="M949.94,245.31l4.68-.71a3.43,3.43,0,0,0,1.21,2.07,4.1,4.1,0,0,0,2.56.7,4.64,4.64,0,0,0,2.72-.66,1.49,1.49,0,0,0,.61-1.25,1.25,1.25,0,0,0-.33-.88,3.74,3.74,0,0,0-1.56-.61q-5.64-1.25-7.16-2.28a4.54,4.54,0,0,1-2.09-4,4.9,4.9,0,0,1,1.81-3.85q1.82-1.57,5.61-1.57a9.82,9.82,0,0,1,5.38,1.18,6.05,6.05,0,0,1,2.43,3.49l-4.4.81a2.74,2.74,0,0,0-1.07-1.57,3.9,3.9,0,0,0-2.25-.55,5.1,5.1,0,0,0-2.64.51,1.1,1.1,0,0,0-.53.95,1,1,0,0,0,.46.85,17.72,17.72,0,0,0,4.36,1.31,12.87,12.87,0,0,1,5.2,2.07,4.3,4.3,0,0,1,1.46,3.47,5.32,5.32,0,0,1-2,4.17q-2,1.74-6,1.74a9.87,9.87,0,0,1-5.71-1.46A6.71,6.71,0,0,1,949.94,245.31Z"/><path d="M728.32,273.51h4.3v2.41a6.93,6.93,0,0,1,5.5-2.81,5.93,5.93,0,0,1,2.93.7,5.41,5.41,0,0,1,2.05,2.11,8.23,8.23,0,0,1,2.5-2.11,6.25,6.25,0,0,1,2.88-.7,6.42,6.42,0,0,1,3.28.79,4.82,4.82,0,0,1,2,2.32,10.06,10.06,0,0,1,.48,3.65v11.27h-4.66V281.07a7.53,7.53,0,0,0-.48-3.39,2.24,2.24,0,0,0-2-1,3.18,3.18,0,0,0-1.84.6A3.31,3.31,0,0,0,744,279a12.4,12.4,0,0,0-.39,3.65v8.46H739v-9.66a13.22,13.22,0,0,0-.25-3.32,2.1,2.1,0,0,0-.77-1.11,2.47,2.47,0,0,0-1.42-.37,3.43,3.43,0,0,0-1.94.58,3.19,3.19,0,0,0-1.24,1.68,12.46,12.46,0,0,0-.37,3.64v8.56h-4.67Z"/><path d="M762.39,278.89l-4.24-.76a6.62,6.62,0,0,1,2.46-3.79,9,9,0,0,1,5.18-1.23,11.22,11.22,0,0,1,4.65.74,4.69,4.69,0,0,1,2.15,1.88,9.7,9.7,0,0,1,.62,4.17l-.05,5.45a18.78,18.78,0,0,0,.23,3.43,10.47,10.47,0,0,0,.83,2.36h-4.61c-.12-.31-.27-.77-.45-1.37-.08-.28-.13-.46-.16-.55a8.55,8.55,0,0,1-2.56,1.74,7.31,7.31,0,0,1-2.91.58,6,6,0,0,1-4.29-1.48,5.24,5.24,0,0,1-.85-6.39,4.6,4.6,0,0,1,2-1.8,15.83,15.83,0,0,1,3.71-1.09,25,25,0,0,0,4.53-1.14v-.47a2.41,2.41,0,0,0-.66-1.91,3.94,3.94,0,0,0-2.51-.58,2.8,2.8,0,0,0-3.07,2.21Zm6.24,3.79c-.6.2-1.54.43-2.84.71a8.93,8.93,0,0,0-2.54.81,2,2,0,0,0-.91,1.65,2.26,2.26,0,0,0,.73,1.69,2.53,2.53,0,0,0,1.86.71,4,4,0,0,0,2.4-.83,2.91,2.91,0,0,0,1.12-1.54,9.35,9.35,0,0,0,.18-2.27Z"/><path d="M793.85,291.14h-4.67v-9a13.88,13.88,0,0,0-.3-3.7,2.57,2.57,0,0,0-1-1.3,2.79,2.79,0,0,0-1.62-.47,3.76,3.76,0,0,0-2.17.67,3.36,3.36,0,0,0-1.32,1.76,15.08,15.08,0,0,0-.36,4.05v8h-4.66V273.51h4.33v2.59a7.07,7.07,0,0,1,5.81-3,7,7,0,0,1,2.82.56,4.67,4.67,0,0,1,1.94,1.42,5.26,5.26,0,0,1,.91,2,14.67,14.67,0,0,1,.26,3.14Z"/><path d="M796.37,273.51h5L805.55,286l4.12-12.52h4.83l-6.23,17-1.11,3.07a12.54,12.54,0,0,1-1.17,2.36,5,5,0,0,1-1.28,1.32,5.55,5.55,0,0,1-1.77.79,9.22,9.22,0,0,1-2.39.28,12.17,12.17,0,0,1-2.63-.28l-.42-3.66a9.89,9.89,0,0,0,2,.22,2.94,2.94,0,0,0,2.4-.95,6.71,6.71,0,0,0,1.2-2.44Z"/><path d="M825.06,291.14v-3.63l6.61-7.59q1.62-1.86,2.4-2.64c-.54,0-1.25.06-2.14.07l-6.22,0v-3.87h14.57v3.31l-6.74,7.77-2.37,2.57c1.29-.08,2.1-.12,2.41-.12h7.22v4.1Z"/><path d="M842.86,282.08a9.58,9.58,0,0,1,1.14-4.5,7.83,7.83,0,0,1,3.25-3.32,9.67,9.67,0,0,1,4.69-1.15,8.8,8.8,0,0,1,6.55,2.6,9,9,0,0,1,2.56,6.57,9.07,9.07,0,0,1-2.58,6.63,8.71,8.71,0,0,1-6.5,2.63,10.19,10.19,0,0,1-4.62-1.09,7.46,7.46,0,0,1-3.35-3.22A10.74,10.74,0,0,1,842.86,282.08Zm4.78.25a5.85,5.85,0,0,0,1.24,4,4.09,4.09,0,0,0,6.14,0,6,6,0,0,0,1.23-4.06,5.83,5.83,0,0,0-1.23-4,4.09,4.09,0,0,0-6.14,0A5.85,5.85,0,0,0,847.64,282.33Z"/><path d="M864.35,273.51h4.3v2.41a6.93,6.93,0,0,1,5.5-2.81,6,6,0,0,1,2.94.7,5.39,5.39,0,0,1,2,2.11,8.15,8.15,0,0,1,2.51-2.11,6.18,6.18,0,0,1,2.87-.7,6.49,6.49,0,0,1,3.29.79,4.86,4.86,0,0,1,2,2.32,9.8,9.8,0,0,1,.49,3.65v11.27h-4.67V281.07a7.53,7.53,0,0,0-.48-3.39,2.22,2.22,0,0,0-2-1,3.19,3.19,0,0,0-1.85.6,3.31,3.31,0,0,0-1.24,1.75,12.47,12.47,0,0,0-.38,3.65v8.46H875v-9.66a13.22,13.22,0,0,0-.25-3.32,2,2,0,0,0-.77-1.11,2.47,2.47,0,0,0-1.42-.37,3.46,3.46,0,0,0-1.94.58,3.19,3.19,0,0,0-1.24,1.68,12.46,12.46,0,0,0-.37,3.64v8.56h-4.67Z"/><path d="M894.74,291.14V266.81h4.66v8.76a6.59,6.59,0,0,1,5.11-2.46,6.85,6.85,0,0,1,5.33,2.34q2.11,2.32,2.11,6.7c0,3-.72,5.32-2.15,7a6.69,6.69,0,0,1-5.22,2.44,6.48,6.48,0,0,1-3-.75,7.17,7.17,0,0,1-2.53-2.24v2.59Zm4.63-9.19a7.58,7.58,0,0,0,.86,4.05,3.69,3.69,0,0,0,3.22,1.86,3.29,3.29,0,0,0,2.63-1.32,6.47,6.47,0,0,0,1.09-4.16,6.88,6.88,0,0,0-1.1-4.36,3.46,3.46,0,0,0-2.8-1.34,3.51,3.51,0,0,0-2.79,1.31A6,6,0,0,0,899.37,282Z"/><path d="M915.7,271.12v-4.31h4.67v4.31Zm0,20V273.51h4.67v17.63Z"/><path d="M935.36,285.53l4.65.78a7.67,7.67,0,0,1-2.83,3.9,8.34,8.34,0,0,1-4.84,1.33q-4.61,0-6.81-3a10.12,10.12,0,0,1-1.74-6.08,9.71,9.71,0,0,1,2.29-6.86,7.54,7.54,0,0,1,5.79-2.49,7.82,7.82,0,0,1,6.21,2.6c1.52,1.73,2.24,4.39,2.18,8H928.57a4.69,4.69,0,0,0,1.13,3.23,3.53,3.53,0,0,0,2.69,1.16,2.85,2.85,0,0,0,1.84-.6A3.72,3.72,0,0,0,935.36,285.53Zm.26-4.71a4.49,4.49,0,0,0-1-3.08,3.36,3.36,0,0,0-5,.06,4.31,4.31,0,0,0-1,3Z"/><path d="M942.42,286.11l4.68-.71a3.43,3.43,0,0,0,1.21,2.07,4.1,4.1,0,0,0,2.56.7,4.64,4.64,0,0,0,2.72-.66,1.49,1.49,0,0,0,.61-1.25,1.25,1.25,0,0,0-.33-.88,3.74,3.74,0,0,0-1.56-.61q-5.64-1.25-7.16-2.28a4.54,4.54,0,0,1-2.09-4,4.92,4.92,0,0,1,1.81-3.86q1.82-1.56,5.61-1.56a9.82,9.82,0,0,1,5.38,1.18,6.05,6.05,0,0,1,2.43,3.49l-4.4.81a2.74,2.74,0,0,0-1.07-1.57,3.9,3.9,0,0,0-2.25-.55,5.1,5.1,0,0,0-2.64.51,1.1,1.1,0,0,0-.53.95,1,1,0,0,0,.46.85,18.21,18.21,0,0,0,4.36,1.31,12.87,12.87,0,0,1,5.2,2.07,4.3,4.3,0,0,1,1.46,3.47,5.32,5.32,0,0,1-2,4.17q-2,1.74-6,1.74a9.87,9.87,0,0,1-5.71-1.46A6.71,6.71,0,0,1,942.42,286.11Z"/><path d="M732.16,319.69l-4.24-.76a6.62,6.62,0,0,1,2.46-3.79,9,9,0,0,1,5.18-1.23,11.22,11.22,0,0,1,4.65.74,4.69,4.69,0,0,1,2.15,1.88,9.7,9.7,0,0,1,.62,4.17l-.05,5.45a17.91,17.91,0,0,0,.23,3.43,9.57,9.57,0,0,0,.83,2.36h-4.61c-.12-.31-.27-.77-.45-1.37-.08-.28-.13-.46-.17-.55a8.51,8.51,0,0,1-2.55,1.74,7.31,7.31,0,0,1-2.91.58,6,6,0,0,1-4.29-1.48,4.89,4.89,0,0,1-1.57-3.73,5,5,0,0,1,.72-2.67,4.64,4.64,0,0,1,2-1.79,15.68,15.68,0,0,1,3.71-1.09,25.91,25.91,0,0,0,4.53-1.14V320a2.38,2.38,0,0,0-.67-1.91,3.89,3.89,0,0,0-2.5-.58,2.8,2.8,0,0,0-3.07,2.21Zm6.24,3.79c-.6.2-1.55.43-2.84.71A8.82,8.82,0,0,0,733,325a2,2,0,0,0-.91,1.65,2.26,2.26,0,0,0,.73,1.69,2.51,2.51,0,0,0,1.86.71,4,4,0,0,0,2.4-.83,2.91,2.91,0,0,0,1.12-1.54,9.35,9.35,0,0,0,.18-2.27Z"/><path d="M745.94,326.91l4.68-.71a3.43,3.43,0,0,0,1.21,2.07,4.1,4.1,0,0,0,2.56.7,4.64,4.64,0,0,0,2.72-.66,1.49,1.49,0,0,0,.61-1.25,1.25,1.25,0,0,0-.33-.88,3.74,3.74,0,0,0-1.56-.61q-5.64-1.24-7.16-2.28a4.54,4.54,0,0,1-2.09-4,4.92,4.92,0,0,1,1.81-3.86q1.82-1.56,5.61-1.56a9.82,9.82,0,0,1,5.38,1.18,6.05,6.05,0,0,1,2.43,3.49l-4.4.81a2.74,2.74,0,0,0-1.07-1.57,3.9,3.9,0,0,0-2.25-.55,5.1,5.1,0,0,0-2.64.51,1.1,1.1,0,0,0-.53,1,1,1,0,0,0,.46.85,18.21,18.21,0,0,0,4.36,1.31,12.87,12.87,0,0,1,5.2,2.07,4.3,4.3,0,0,1,1.46,3.47,5.32,5.32,0,0,1-2,4.17q-2,1.74-6,1.74a9.87,9.87,0,0,1-5.71-1.46A6.71,6.71,0,0,1,745.94,326.91Z"/><path d="M775.8,314.31h4.35v2.59a6.69,6.69,0,0,1,2.29-2.16,6.37,6.37,0,0,1,3.21-.83,6.75,6.75,0,0,1,5.21,2.41A9.74,9.74,0,0,1,793,323a10,10,0,0,1-2.16,6.86,6.7,6.7,0,0,1-5.23,2.45,6,6,0,0,1-2.65-.58,8.91,8.91,0,0,1-2.49-2v8.88H775.8Zm4.62,8.52a6.77,6.77,0,0,0,1.18,4.39,3.58,3.58,0,0,0,2.87,1.42,3.36,3.36,0,0,0,2.7-1.3,6.73,6.73,0,0,0,1.08-4.28,6.39,6.39,0,0,0-1.11-4.12,3.45,3.45,0,0,0-2.76-1.34,3.57,3.57,0,0,0-2.83,1.32A5.83,5.83,0,0,0,780.42,322.83Z"/><path d="M795.62,322.88a9.59,9.59,0,0,1,1.15-4.5,7.86,7.86,0,0,1,3.24-3.32,9.73,9.73,0,0,1,4.7-1.15,8.8,8.8,0,0,1,6.55,2.6,9,9,0,0,1,2.56,6.57,9.07,9.07,0,0,1-2.58,6.63,8.74,8.74,0,0,1-6.5,2.63,10.26,10.26,0,0,1-4.63-1.09,7.49,7.49,0,0,1-3.34-3.22A10.74,10.74,0,0,1,795.62,322.88Zm4.79.25a5.85,5.85,0,0,0,1.24,4,4.07,4.07,0,0,0,6.13,0,5.91,5.91,0,0,0,1.24-4.06,5.79,5.79,0,0,0-1.24-4,4.07,4.07,0,0,0-6.13,0A5.85,5.85,0,0,0,800.41,323.13Z"/><path d="M815.83,326.91l4.68-.71a3.43,3.43,0,0,0,1.21,2.07,4.1,4.1,0,0,0,2.56.7,4.64,4.64,0,0,0,2.72-.66,1.5,1.5,0,0,0,.62-1.25,1.26,1.26,0,0,0-.34-.88,3.74,3.74,0,0,0-1.56-.61c-3.76-.83-6.15-1.59-7.15-2.28a4.52,4.52,0,0,1-2.09-4,4.89,4.89,0,0,1,1.81-3.86q1.8-1.56,5.61-1.56a9.87,9.87,0,0,1,5.38,1.18,6,6,0,0,1,2.42,3.49l-4.4.81a2.74,2.74,0,0,0-1.07-1.57,3.9,3.9,0,0,0-2.25-.55,5.1,5.1,0,0,0-2.64.51,1.12,1.12,0,0,0-.53,1,1,1,0,0,0,.46.85,18.39,18.39,0,0,0,4.36,1.31,12.93,12.93,0,0,1,5.21,2.07,4.33,4.33,0,0,1,1.46,3.47,5.33,5.33,0,0,1-2,4.17q-2,1.74-6,1.74a9.86,9.86,0,0,1-5.7-1.46A6.72,6.72,0,0,1,815.83,326.91Z"/><path d="M834.74,326.91l4.68-.71a3.43,3.43,0,0,0,1.21,2.07,4.1,4.1,0,0,0,2.56.7,4.64,4.64,0,0,0,2.72-.66,1.49,1.49,0,0,0,.61-1.25,1.25,1.25,0,0,0-.33-.88,3.74,3.74,0,0,0-1.56-.61c-3.76-.83-6.15-1.59-7.15-2.28a4.53,4.53,0,0,1-2.1-4,4.92,4.92,0,0,1,1.81-3.86q1.81-1.56,5.62-1.56a9.8,9.8,0,0,1,5.37,1.18,6,6,0,0,1,2.43,3.49l-4.4.81a2.74,2.74,0,0,0-1.07-1.57,3.9,3.9,0,0,0-2.25-.55,5.1,5.1,0,0,0-2.64.51,1.1,1.1,0,0,0-.53,1,1,1,0,0,0,.46.85,18.39,18.39,0,0,0,4.36,1.31,12.93,12.93,0,0,1,5.21,2.07,4.33,4.33,0,0,1,1.46,3.47,5.33,5.33,0,0,1-2,4.17q-2,1.74-6,1.74a9.84,9.84,0,0,1-5.7-1.46A6.68,6.68,0,0,1,834.74,326.91Z"/><path d="M855.29,311.92v-4.31H860v4.31Zm0,20V314.31H860v17.63Z"/><path d="M864.54,331.94V307.61h4.66v8.76a6.61,6.61,0,0,1,5.12-2.46,6.85,6.85,0,0,1,5.32,2.34q2.11,2.33,2.11,6.7c0,3-.71,5.32-2.15,6.95a6.69,6.69,0,0,1-5.22,2.44,6.51,6.51,0,0,1-3-.75,7.17,7.17,0,0,1-2.53-2.24v2.59Zm4.63-9.19a7.58,7.58,0,0,0,.86,4.05,3.69,3.69,0,0,0,3.22,1.86,3.29,3.29,0,0,0,2.63-1.32,6.47,6.47,0,0,0,1.09-4.16,6.89,6.89,0,0,0-1.09-4.36,3.62,3.62,0,0,0-5.6,0A6,6,0,0,0,869.17,322.75Z"/><path d="M885.5,331.94V307.61h4.67v24.33Z"/><path d="M905.16,326.33l4.65.78A7.67,7.67,0,0,1,907,331a8.32,8.32,0,0,1-4.84,1.33q-4.6,0-6.81-3a10.12,10.12,0,0,1-1.74-6.08,9.71,9.71,0,0,1,2.29-6.86,7.54,7.54,0,0,1,5.79-2.49,7.82,7.82,0,0,1,6.21,2.6c1.52,1.73,2.24,4.39,2.18,8H898.37a4.69,4.69,0,0,0,1.13,3.23,3.54,3.54,0,0,0,2.69,1.16,2.85,2.85,0,0,0,1.84-.6A3.65,3.65,0,0,0,905.16,326.33Zm.27-4.71a4.54,4.54,0,0,0-1-3.08,3.18,3.18,0,0,0-2.42-1.06,3.24,3.24,0,0,0-2.53,1.12,4.31,4.31,0,0,0-1,3Z"/><path d="M915.69,325.67l-1.22-12.35v-5.71h5v5.71l-1.19,12.35Zm-1,6.27v-4.66h4.67v4.66Z"/><path class="cls-6" d="M1419.42,641.5a36,36,0,0,1-35.92-35.92V501.42a36,36,0,0,1,35.92-35.92H1669l48.62-77.89-15.92-9.78,62.46-29.06,2.29,68.85-16.65-10.23-42.46,68a35.82,35.82,0,0,1,11.21,26V605.58a36,36,0,0,1-35.92,35.92Z"/><path d="M1761.74,352.63l2,60.43L1749,404l-44.89,71.92A33.35,33.35,0,0,1,1716,501.42V605.58A33.52,33.52,0,0,1,1682.58,639H1419.42A33.52,33.52,0,0,1,1386,605.58V501.42A33.52,33.52,0,0,1,1419.42,468h250.92L1721,386.8l-14.1-8.67,54.82-25.5m4.74-7.72-6.85,3.19-54.82,25.5-8.43,3.92,7.92,4.87,9.82,6L1667.57,463H1419.42A38.47,38.47,0,0,0,1381,501.42V605.58A38.47,38.47,0,0,0,1419.42,644h263.16A38.47,38.47,0,0,0,1721,605.58V501.42a38.24,38.24,0,0,0-10.54-26.36l40.1-64.24,10.57,6.5,7.93,4.87-.31-9.3-2-60.43-.26-7.55Z"/><path d="M1416.59,521.82V497.48h7.88a29.08,29.08,0,0,1,5.85.36,6.39,6.39,0,0,1,3.5,2.39,7.55,7.55,0,0,1,1.41,4.74,8,8,0,0,1-.81,3.77,6.65,6.65,0,0,1-2.07,2.39,6.94,6.94,0,0,1-2.55,1.16,28.18,28.18,0,0,1-5.09.35h-3.21v9.18Zm4.91-20.22v6.9h2.69a12.61,12.61,0,0,0,3.89-.38,3.2,3.2,0,0,0,1.53-1.19,3.32,3.32,0,0,0,.56-1.9,3.16,3.16,0,0,0-.78-2.19,3.47,3.47,0,0,0-2-1.08,23.85,23.85,0,0,0-3.53-.16Z"/><path d="M1442.72,509.57l-4.23-.77a6.57,6.57,0,0,1,2.45-3.78,9,9,0,0,1,5.18-1.23,11.05,11.05,0,0,1,4.65.74,4.57,4.57,0,0,1,2.15,1.87,9.57,9.57,0,0,1,.62,4.18l0,5.44a18.7,18.7,0,0,0,.23,3.43,10,10,0,0,0,.84,2.37h-4.62q-.18-.47-.45-1.38c-.07-.28-.13-.46-.16-.55a8.2,8.2,0,0,1-2.56,1.74,7.3,7.3,0,0,1-2.9.59,6.05,6.05,0,0,1-4.3-1.48,5.25,5.25,0,0,1-.85-6.4,4.58,4.58,0,0,1,2-1.79,15.36,15.36,0,0,1,3.71-1.09,24.8,24.8,0,0,0,4.53-1.15v-.46a2.42,2.42,0,0,0-.66-1.92,4,4,0,0,0-2.51-.57,3.29,3.29,0,0,0-1.94.49A3.36,3.36,0,0,0,1442.72,509.57Zm6.24,3.78a27.17,27.17,0,0,1-2.84.71,8.54,8.54,0,0,0-2.54.82,1.94,1.94,0,0,0-.91,1.64,2.26,2.26,0,0,0,.73,1.69,2.55,2.55,0,0,0,1.86.72,4.09,4.09,0,0,0,2.41-.83,3,3,0,0,0,1.11-1.55,9.24,9.24,0,0,0,.18-2.27Z"/><path d="M1469.75,521.82v-2.64a6.8,6.8,0,0,1-2.53,2.22,7.15,7.15,0,0,1-3.32.82,6.46,6.46,0,0,1-3.18-.78,4.65,4.65,0,0,1-2-2.2,9.78,9.78,0,0,1-.63-3.9V504.19h4.67v8.1a21.58,21.58,0,0,0,.26,4.55,2.46,2.46,0,0,0,.93,1.33,2.88,2.88,0,0,0,1.73.49,3.7,3.7,0,0,0,2.14-.65,3.4,3.4,0,0,0,1.3-1.63,19,19,0,0,0,.35-4.76v-7.43h4.66v17.63Z"/><path d="M1477.27,516.79l4.68-.72a3.43,3.43,0,0,0,1.21,2.07,4.1,4.1,0,0,0,2.56.71,4.64,4.64,0,0,0,2.72-.67,1.47,1.47,0,0,0,.61-1.24,1.22,1.22,0,0,0-.33-.88,3.58,3.58,0,0,0-1.56-.62c-3.76-.83-6.15-1.59-7.15-2.27a4.53,4.53,0,0,1-2.09-4,4.89,4.89,0,0,1,1.8-3.85q1.82-1.56,5.62-1.56a9.72,9.72,0,0,1,5.37,1.18,6,6,0,0,1,2.43,3.48l-4.4.82a2.73,2.73,0,0,0-1.07-1.58,3.9,3.9,0,0,0-2.25-.55,5,5,0,0,0-2.64.52,1.07,1.07,0,0,0-.53.94,1,1,0,0,0,.46.85,17.42,17.42,0,0,0,4.36,1.31,13.06,13.06,0,0,1,5.21,2.08,4.32,4.32,0,0,1,1.46,3.47,5.32,5.32,0,0,1-2,4.16c-1.35,1.16-3.35,1.75-6,1.75a9.78,9.78,0,0,1-5.7-1.47A6.7,6.7,0,0,1,1477.27,516.79Z"/><path d="M1508,516.21l4.65.78a7.64,7.64,0,0,1-2.83,3.89,8.32,8.32,0,0,1-4.84,1.34c-3.07,0-5.34-1-6.81-3a10.1,10.1,0,0,1-1.74-6.08,9.71,9.71,0,0,1,2.29-6.86,7.56,7.56,0,0,1,5.79-2.48,7.79,7.79,0,0,1,6.21,2.6c1.52,1.73,2.24,4.38,2.18,8h-11.69a4.71,4.71,0,0,0,1.13,3.23,3.57,3.57,0,0,0,2.69,1.15,2.85,2.85,0,0,0,1.84-.6A3.66,3.66,0,0,0,1508,516.21Zm.27-4.72a4.54,4.54,0,0,0-1-3.08,3.2,3.2,0,0,0-2.42-1.05,3.26,3.26,0,0,0-2.53,1.11,4.33,4.33,0,0,0-1,3Z"/><path d="M1534.26,504.19v3.72h-3.19V515a15.78,15.78,0,0,0,.1,2.52,1,1,0,0,0,.41.59,1.36,1.36,0,0,0,.79.23,6,6,0,0,0,1.87-.45l.4,3.62a9.32,9.32,0,0,1-3.68.7,5.76,5.76,0,0,1-2.28-.43,3.26,3.26,0,0,1-1.48-1.09,4.28,4.28,0,0,1-.66-1.82,22.54,22.54,0,0,1-.15-3.29v-7.68h-2.14v-3.72h2.14v-3.51l4.68-2.72v6.23Z"/><path d="M1542.15,497.48v8.95a7,7,0,0,1,8.3-2,4.7,4.7,0,0,1,2,1.52,5.66,5.66,0,0,1,.89,2.06,17.45,17.45,0,0,1,.25,3.5v10.35h-4.67V512.5a13.63,13.63,0,0,0-.27-3.52,2.3,2.3,0,0,0-.93-1.18,3,3,0,0,0-1.69-.44,3.89,3.89,0,0,0-2.07.56,3.29,3.29,0,0,0-1.34,1.7,10.27,10.27,0,0,0-.42,3.37v8.83h-4.67V497.48Z"/><path d="M1568.48,516.21l4.64.78a7.58,7.58,0,0,1-2.83,3.89,8.31,8.31,0,0,1-4.83,1.34c-3.07,0-5.34-1-6.81-3a10.1,10.1,0,0,1-1.74-6.08,9.71,9.71,0,0,1,2.29-6.86,7.55,7.55,0,0,1,5.79-2.48,7.81,7.81,0,0,1,6.21,2.6q2.28,2.6,2.17,8h-11.68a4.71,4.71,0,0,0,1.13,3.23,3.55,3.55,0,0,0,2.68,1.15,2.85,2.85,0,0,0,1.85-.6A3.72,3.72,0,0,0,1568.48,516.21Zm.26-4.72a4.49,4.49,0,0,0-1-3.08,3.38,3.38,0,0,0-5,.06,4.28,4.28,0,0,0-1,3Z"/><path d="M1586.19,523l5.33.65a1.85,1.85,0,0,0,.61,1.28,3.55,3.55,0,0,0,2.1.49,5.46,5.46,0,0,0,2.73-.54,2.29,2.29,0,0,0,.93-1.18,6.85,6.85,0,0,0,.22-2.14V519a6.29,6.29,0,0,1-5.28,2.86,6.5,6.5,0,0,1-5.63-3,10.23,10.23,0,0,1-1.62-5.91q0-4.42,2.13-6.77a6.88,6.88,0,0,1,5.3-2.34,6.48,6.48,0,0,1,5.4,2.87v-2.47h4.37V520a15.8,15.8,0,0,1-.52,4.66,5.78,5.78,0,0,1-1.44,2.43,6.44,6.44,0,0,1-2.49,1.37,12.76,12.76,0,0,1-3.92.5q-4.48,0-6.36-1.53a4.83,4.83,0,0,1-1.88-3.9C1586.17,523.39,1586.18,523.2,1586.19,523Zm4.17-10.34a6.33,6.33,0,0,0,1.09,4.11,3.37,3.37,0,0,0,2.68,1.3,3.69,3.69,0,0,0,2.88-1.34,5.8,5.8,0,0,0,1.18-4,6.11,6.11,0,0,0-1.13-4.06,3.56,3.56,0,0,0-2.85-1.33,3.42,3.42,0,0,0-2.76,1.3A6.08,6.08,0,0,0,1590.36,512.64Z"/><path d="M1610.88,509.57l-4.24-.77a6.63,6.63,0,0,1,2.46-3.78,9,9,0,0,1,5.18-1.23,11.05,11.05,0,0,1,4.65.74,4.62,4.62,0,0,1,2.15,1.87,9.72,9.72,0,0,1,.62,4.18l0,5.44a18.7,18.7,0,0,0,.23,3.43,9.49,9.49,0,0,0,.83,2.37h-4.61q-.18-.47-.45-1.38c-.08-.28-.13-.46-.17-.55a8.16,8.16,0,0,1-2.55,1.74,7.31,7.31,0,0,1-2.91.59,6,6,0,0,1-4.29-1.48,4.91,4.91,0,0,1-1.57-3.74,5,5,0,0,1,.72-2.66,4.58,4.58,0,0,1,2-1.79,15.22,15.22,0,0,1,3.71-1.09,24.8,24.8,0,0,0,4.53-1.15v-.46a2.42,2.42,0,0,0-.66-1.92,4,4,0,0,0-2.51-.57,3.29,3.29,0,0,0-1.94.49A3.36,3.36,0,0,0,1610.88,509.57Zm6.24,3.78a27.17,27.17,0,0,1-2.84.71,8.54,8.54,0,0,0-2.54.82,1.94,1.94,0,0,0-.91,1.64,2.26,2.26,0,0,0,.73,1.69,2.52,2.52,0,0,0,1.86.72,4,4,0,0,0,2.4-.83,2.93,2.93,0,0,0,1.12-1.55,9.24,9.24,0,0,0,.18-2.27Z"/><path d="M1626,504.19h4.3v2.4a6.92,6.92,0,0,1,5.5-2.8,5.83,5.83,0,0,1,2.93.7,5.32,5.32,0,0,1,2,2.1,8.05,8.05,0,0,1,2.5-2.1,6.13,6.13,0,0,1,2.88-.7,6.32,6.32,0,0,1,3.28.79,4.75,4.75,0,0,1,2,2.31,10.09,10.09,0,0,1,.48,3.65v11.28h-4.66V511.74a7.53,7.53,0,0,0-.48-3.39,2.23,2.23,0,0,0-2-1,3.18,3.18,0,0,0-1.84.6,3.27,3.27,0,0,0-1.24,1.75,12.32,12.32,0,0,0-.39,3.64v8.47h-4.66v-9.66a13.26,13.26,0,0,0-.25-3.33,2.18,2.18,0,0,0-.77-1.11,2.47,2.47,0,0,0-1.42-.36,3.36,3.36,0,0,0-1.94.58,3.16,3.16,0,0,0-1.24,1.68,12.43,12.43,0,0,0-.37,3.63v8.57H1626Z"/><path d="M1666.74,516.21l4.65.78a7.64,7.64,0,0,1-2.83,3.89,8.32,8.32,0,0,1-4.84,1.34c-3.07,0-5.34-1-6.81-3a10.1,10.1,0,0,1-1.74-6.08,9.71,9.71,0,0,1,2.29-6.86,7.56,7.56,0,0,1,5.79-2.48,7.79,7.79,0,0,1,6.21,2.6q2.28,2.6,2.18,8H1660a4.71,4.71,0,0,0,1.13,3.23,3.57,3.57,0,0,0,2.69,1.15,2.85,2.85,0,0,0,1.84-.6A3.66,3.66,0,0,0,1666.74,516.21Zm.27-4.72a4.54,4.54,0,0,0-1-3.08,3.2,3.2,0,0,0-2.42-1.05,3.26,3.26,0,0,0-2.53,1.11,4.33,4.33,0,0,0-1,3Z"/><path d="M1415.48,553.55a9.58,9.58,0,0,1,1.14-4.5,7.94,7.94,0,0,1,3.25-3.32,9.66,9.66,0,0,1,4.69-1.14,8.8,8.8,0,0,1,6.56,2.6,9.76,9.76,0,0,1,0,13.19,8.71,8.71,0,0,1-6.5,2.64,10.2,10.2,0,0,1-4.62-1.1,7.54,7.54,0,0,1-3.35-3.21A10.75,10.75,0,0,1,1415.48,553.55Zm4.78.25a5.85,5.85,0,0,0,1.24,4,4.09,4.09,0,0,0,6.14,0,5.94,5.94,0,0,0,1.23-4.05,5.85,5.85,0,0,0-1.23-4,4.09,4.09,0,0,0-6.14,0A5.85,5.85,0,0,0,1420.26,553.8Z"/><path d="M1441.79,562.62h-4.67V545h4.34v2.5a7.64,7.64,0,0,1,2-2.34,3.72,3.72,0,0,1,2-.56,5.9,5.9,0,0,1,3.07.88l-1.45,4.07a4.07,4.07,0,0,0-2.19-.77,2.61,2.61,0,0,0-1.66.54,3.71,3.71,0,0,0-1.07,2,27.71,27.71,0,0,0-.39,5.91Z"/><path d="M1475.38,550.2l-4.6.83a3.38,3.38,0,0,0-1.06-2.08,3.21,3.21,0,0,0-2.13-.69,3.49,3.49,0,0,0-2.78,1.2,6.17,6.17,0,0,0-1,4c0,2.09.35,3.57,1.06,4.43a3.45,3.45,0,0,0,2.83,1.29,3.15,3.15,0,0,0,2.17-.75,4.61,4.61,0,0,0,1.2-2.6l4.58.78a8.2,8.2,0,0,1-2.74,4.77,8.5,8.5,0,0,1-5.43,1.61,8.1,8.1,0,0,1-6.17-2.44,11.12,11.12,0,0,1,0-13.56,8.2,8.2,0,0,1,6.24-2.43,8.52,8.52,0,0,1,5.12,1.38A7.76,7.76,0,0,1,1475.38,550.2Z"/><path d="M1483.56,538.28v9a7,7,0,0,1,8.3-2,4.7,4.7,0,0,1,2,1.52,5.52,5.52,0,0,1,.9,2.06,18.42,18.42,0,0,1,.24,3.5v10.35h-4.67V553.3a14.31,14.31,0,0,0-.26-3.52,2.32,2.32,0,0,0-.94-1.18,3,3,0,0,0-1.69-.44,3.92,3.92,0,0,0-2.07.56,3.34,3.34,0,0,0-1.34,1.7,10.27,10.27,0,0,0-.42,3.37v8.83h-4.67V538.28Z"/><path d="M1503.17,550.37l-4.24-.77a6.63,6.63,0,0,1,2.46-3.78,9,9,0,0,1,5.18-1.23,11.05,11.05,0,0,1,4.65.74,4.62,4.62,0,0,1,2.15,1.87,9.72,9.72,0,0,1,.62,4.18l0,5.44a17.84,17.84,0,0,0,.23,3.43,9.49,9.49,0,0,0,.83,2.37h-4.61q-.18-.47-.45-1.38c-.08-.28-.13-.46-.17-.55a8.16,8.16,0,0,1-2.55,1.74,7.31,7.31,0,0,1-2.91.59,6,6,0,0,1-4.29-1.48,4.91,4.91,0,0,1-1.57-3.74,5,5,0,0,1,.72-2.66,4.58,4.58,0,0,1,2-1.79,15.22,15.22,0,0,1,3.71-1.09,24.8,24.8,0,0,0,4.53-1.15v-.46a2.39,2.39,0,0,0-.67-1.92,4,4,0,0,0-2.5-.57,2.78,2.78,0,0,0-3.07,2.21Zm6.24,3.78a27.86,27.86,0,0,1-2.84.71,8.43,8.43,0,0,0-2.54.82,1.94,1.94,0,0,0-.91,1.64,2.26,2.26,0,0,0,.73,1.69,2.52,2.52,0,0,0,1.86.72,4,4,0,0,0,2.4-.83,2.93,2.93,0,0,0,1.12-1.55,9.24,9.24,0,0,0,.18-2.27Z"/><path d="M1534.63,562.62H1530v-9a13.79,13.79,0,0,0-.3-3.69,2.6,2.6,0,0,0-1-1.31,2.78,2.78,0,0,0-1.62-.46,3.73,3.73,0,0,0-2.17.66,3.36,3.36,0,0,0-1.32,1.76,15.08,15.08,0,0,0-.36,4v8h-4.66V545h4.33v2.59a7.24,7.24,0,0,1,8.63-2.44,4.83,4.83,0,0,1,1.94,1.42,5.26,5.26,0,0,1,.91,2,14.67,14.67,0,0,1,.26,3.14Z"/><path d="M1538.93,563.78l5.32.65a1.85,1.85,0,0,0,.62,1.28,3.52,3.52,0,0,0,2.09.49,5.5,5.5,0,0,0,2.74-.54,2.29,2.29,0,0,0,.93-1.18,7.21,7.21,0,0,0,.22-2.15v-2.57a6.32,6.32,0,0,1-5.28,2.86,6.49,6.49,0,0,1-5.63-3,10.16,10.16,0,0,1-1.63-5.91q0-4.43,2.13-6.77a6.9,6.9,0,0,1,5.31-2.34,6.43,6.43,0,0,1,5.39,2.87V545h4.37v15.82a15.87,15.87,0,0,1-.51,4.66,5.9,5.9,0,0,1-1.45,2.43,6.47,6.47,0,0,1-2.48,1.37,12.78,12.78,0,0,1-3.93.5q-4.47,0-6.35-1.53a4.81,4.81,0,0,1-1.88-3.9C1538.91,564.19,1538.92,564,1538.93,563.78Zm4.16-10.34a6.34,6.34,0,0,0,1.09,4.1,3.37,3.37,0,0,0,2.68,1.31,3.72,3.72,0,0,0,2.89-1.34,5.8,5.8,0,0,0,1.18-4,6.17,6.17,0,0,0-1.13-4.06,3.57,3.57,0,0,0-2.86-1.33,3.45,3.45,0,0,0-2.76,1.3A6.14,6.14,0,0,0,1543.09,553.44Z"/><path d="M1570.34,557l4.64.78a7.58,7.58,0,0,1-2.83,3.89,8.32,8.32,0,0,1-4.84,1.34c-3.06,0-5.33-1-6.8-3a10.11,10.11,0,0,1-1.75-6.08,9.71,9.71,0,0,1,2.3-6.86,7.53,7.53,0,0,1,5.79-2.48,7.81,7.81,0,0,1,6.21,2.6q2.28,2.59,2.17,8h-11.68a4.76,4.76,0,0,0,1.12,3.23,3.57,3.57,0,0,0,2.69,1.15,2.87,2.87,0,0,0,1.85-.6A3.72,3.72,0,0,0,1570.34,557Zm.26-4.72a4.49,4.49,0,0,0-1-3.08,3.38,3.38,0,0,0-5,.06,4.28,4.28,0,0,0-1,3Z"/><path d="M1588.13,545h4.3v2.4a6.92,6.92,0,0,1,5.5-2.8,5.87,5.87,0,0,1,2.94.7,5.3,5.3,0,0,1,2,2.1,8,8,0,0,1,2.51-2.1,6.06,6.06,0,0,1,2.87-.7,6.32,6.32,0,0,1,3.28.79,4.75,4.75,0,0,1,2,2.31,10.09,10.09,0,0,1,.48,3.65v11.28h-4.66V552.54a7.53,7.53,0,0,0-.48-3.39,2.22,2.22,0,0,0-2-1,3.25,3.25,0,0,0-1.85.59,3.34,3.34,0,0,0-1.24,1.76,12.4,12.4,0,0,0-.38,3.64v8.47h-4.67V553a13.26,13.26,0,0,0-.25-3.33,2.13,2.13,0,0,0-.77-1.11,2.47,2.47,0,0,0-1.42-.36,3.36,3.36,0,0,0-1.94.58,3.16,3.16,0,0,0-1.24,1.68,12.43,12.43,0,0,0-.37,3.63v8.57h-4.67Z"/><path d="M1630.32,562.62V560a6.8,6.8,0,0,1-2.53,2.22,7.15,7.15,0,0,1-3.32.82,6.46,6.46,0,0,1-3.18-.78,4.74,4.74,0,0,1-2-2.2,9.78,9.78,0,0,1-.63-3.9V545h4.67v8.1a21.58,21.58,0,0,0,.26,4.55,2.46,2.46,0,0,0,.93,1.33,2.88,2.88,0,0,0,1.73.49,3.7,3.7,0,0,0,2.14-.65,3.4,3.4,0,0,0,1.3-1.63,19,19,0,0,0,.35-4.76V545h4.66v17.63Z"/><path d="M1637.84,557.59l4.68-.72a3.43,3.43,0,0,0,1.21,2.07,4.1,4.1,0,0,0,2.56.71A4.64,4.64,0,0,0,1649,559a1.47,1.47,0,0,0,.61-1.24,1.22,1.22,0,0,0-.33-.88,3.58,3.58,0,0,0-1.56-.62c-3.76-.83-6.15-1.59-7.15-2.27a4.53,4.53,0,0,1-2.09-4,4.89,4.89,0,0,1,1.8-3.85q1.82-1.56,5.62-1.56a9.78,9.78,0,0,1,5.38,1.18,6,6,0,0,1,2.42,3.48l-4.4.82a2.73,2.73,0,0,0-1.07-1.58,3.9,3.9,0,0,0-2.25-.55,5,5,0,0,0-2.64.52,1.1,1.1,0,0,0-.53.94,1,1,0,0,0,.46.85,17.42,17.42,0,0,0,4.36,1.31,12.92,12.92,0,0,1,5.21,2.08,4.32,4.32,0,0,1,1.46,3.47,5.32,5.32,0,0,1-2,4.16c-1.35,1.16-3.35,1.75-6,1.75a9.78,9.78,0,0,1-5.7-1.47A6.7,6.7,0,0,1,1637.84,557.59Z"/><path d="M1658.39,542.6v-4.32h4.67v4.32Zm0,20V545h4.67v17.63Z"/><path d="M1683.21,550.2l-4.6.83a3.32,3.32,0,0,0-1-2.08,3.22,3.22,0,0,0-2.14-.69,3.49,3.49,0,0,0-2.78,1.2,6.17,6.17,0,0,0-1,4c0,2.09.35,3.57,1.05,4.43a3.47,3.47,0,0,0,2.83,1.29,3.17,3.17,0,0,0,2.18-.75,4.54,4.54,0,0,0,1.19-2.6l4.58.78a8.15,8.15,0,0,1-2.74,4.77,8.5,8.5,0,0,1-5.43,1.61,8.09,8.09,0,0,1-6.16-2.44,11.12,11.12,0,0,1,0-13.56,8.17,8.17,0,0,1,6.24-2.43,8.56,8.56,0,0,1,5.12,1.38A7.69,7.69,0,0,1,1683.21,550.2Z"/><path d="M1420,591.17l-4.23-.77a6.54,6.54,0,0,1,2.46-3.78,9,9,0,0,1,5.18-1.23,11,11,0,0,1,4.64.74,4.57,4.57,0,0,1,2.15,1.87,9.53,9.53,0,0,1,.63,4.18l0,5.44a18.91,18.91,0,0,0,.22,3.43,10,10,0,0,0,.84,2.37h-4.62c-.12-.31-.27-.77-.44-1.38-.08-.28-.14-.46-.17-.55a8.2,8.2,0,0,1-2.56,1.74,7.23,7.23,0,0,1-2.9.59,6,6,0,0,1-4.29-1.48,4.91,4.91,0,0,1-1.57-3.74,5.06,5.06,0,0,1,.71-2.66,4.64,4.64,0,0,1,2-1.79,15.51,15.51,0,0,1,3.71-1.09,24.8,24.8,0,0,0,4.53-1.15v-.46a2.42,2.42,0,0,0-.66-1.92,4,4,0,0,0-2.51-.57,3.32,3.32,0,0,0-1.94.49A3.42,3.42,0,0,0,1420,591.17Zm6.24,3.78a26.83,26.83,0,0,1-2.83.71,8.33,8.33,0,0,0-2.54.82,2,2,0,0,0-.92,1.64,2.3,2.3,0,0,0,.73,1.69,2.55,2.55,0,0,0,1.86.72,4.06,4.06,0,0,0,2.41-.83,3,3,0,0,0,1.11-1.55,9.24,9.24,0,0,0,.18-2.27Z"/><path d="M1451.5,603.42h-4.66v-9a13.79,13.79,0,0,0-.3-3.69,2.65,2.65,0,0,0-1-1.31A2.78,2.78,0,0,0,1444,589a3.79,3.79,0,0,0-2.18.66,3.36,3.36,0,0,0-1.32,1.76,15.64,15.64,0,0,0-.35,4v8h-4.67V585.79h4.33v2.59a7.25,7.25,0,0,1,8.64-2.44,4.79,4.79,0,0,1,1.93,1.42,5.28,5.28,0,0,1,.92,2,14.79,14.79,0,0,1,.25,3.14Z"/><path d="M1472.4,603.42h-4.33v-2.59a7.14,7.14,0,0,1-2.55,2.25,6.58,6.58,0,0,1-3,.74,6.74,6.74,0,0,1-5.21-2.45,10,10,0,0,1-2.16-6.83q0-4.49,2.11-6.82a6.87,6.87,0,0,1,5.32-2.33,6.63,6.63,0,0,1,5.12,2.45v-8.76h4.66Zm-12.45-9.2a8.06,8.06,0,0,0,.78,4.08,3.54,3.54,0,0,0,3.16,1.83,3.46,3.46,0,0,0,2.74-1.37,6.33,6.33,0,0,0,1.12-4.09,6.93,6.93,0,0,0-1.09-4.38,3.47,3.47,0,0,0-2.81-1.33,3.52,3.52,0,0,0-2.78,1.32A6,6,0,0,0,1460,594.22Z"/><path d="M1484.41,585.79H1487v-1.33a8.71,8.71,0,0,1,.47-3.32,3.8,3.8,0,0,1,1.74-1.79,6.69,6.69,0,0,1,3.21-.69,13,13,0,0,1,3.91.6l-.63,3.26a9.17,9.17,0,0,0-2.15-.27,1.93,1.93,0,0,0-1.45.47,2.77,2.77,0,0,0-.44,1.82v1.25h3.49v3.67h-3.49v14H1487v-14h-2.59Z"/><path d="M1495.53,603.42l6.36-9.08-6.1-8.55h5.7l3.12,4.84,3.29-4.84h5.48l-6,8.35,6.52,9.28h-5.72l-3.59-5.46-3.62,5.46Z"/><path d="M1531,603.42l-7.1-17.63h4.9l3.32,9,1,3c.25-.76.41-1.27.48-1.51.16-.5.32-1,.5-1.5l3.35-9h4.8l-7,17.63Z"/><path d="M1544,594.35a9.58,9.58,0,0,1,1.14-4.5,7.94,7.94,0,0,1,3.25-3.32,9.66,9.66,0,0,1,4.69-1.14,8.76,8.76,0,0,1,6.55,2.6,9,9,0,0,1,2.56,6.56,9.07,9.07,0,0,1-2.58,6.63,8.71,8.71,0,0,1-6.5,2.64,10.2,10.2,0,0,1-4.62-1.1,7.54,7.54,0,0,1-3.35-3.21A10.75,10.75,0,0,1,1544,594.35Zm4.78.25a5.85,5.85,0,0,0,1.24,4,4.09,4.09,0,0,0,6.14,0,5.94,5.94,0,0,0,1.23-4,5.85,5.85,0,0,0-1.23-4,4.09,4.09,0,0,0-6.14,0A5.85,5.85,0,0,0,1548.74,594.6Z"/><path d="M1565.8,603.42V579.08h4.67v24.34Z"/><path d="M1586.85,603.42v-2.64a6.72,6.72,0,0,1-2.53,2.22,7.11,7.11,0,0,1-3.31.82,6.5,6.5,0,0,1-3.19-.78,4.67,4.67,0,0,1-2-2.2,9.78,9.78,0,0,1-.63-3.9V585.79h4.67v8.1a22.67,22.67,0,0,0,.25,4.55,2.48,2.48,0,0,0,.94,1.33,2.86,2.86,0,0,0,1.73.49,3.73,3.73,0,0,0,2.14-.65,3.32,3.32,0,0,0,1.29-1.63,18.5,18.5,0,0,0,.35-4.76v-7.43h4.67v17.63Z"/><path d="M1595.67,585.79h4.3v2.4a6.91,6.91,0,0,1,5.49-2.8,6,6,0,0,1,2.94.69,5.48,5.48,0,0,1,2,2.11,8.23,8.23,0,0,1,2.5-2.11,6.23,6.23,0,0,1,2.87-.69,6.36,6.36,0,0,1,3.29.79,4.75,4.75,0,0,1,2,2.31,10.09,10.09,0,0,1,.48,3.65v11.28h-4.66V593.34a7.53,7.53,0,0,0-.48-3.39,2.23,2.23,0,0,0-2-1,3.24,3.24,0,0,0-1.84.59,3.29,3.29,0,0,0-1.24,1.76A12.32,12.32,0,0,0,1611,595v8.47h-4.66v-9.67a13.22,13.22,0,0,0-.25-3.32,2.18,2.18,0,0,0-.77-1.11,2.47,2.47,0,0,0-1.42-.36,3.36,3.36,0,0,0-1.94.58,3.17,3.17,0,0,0-1.24,1.67,12.47,12.47,0,0,0-.38,3.64v8.57h-4.66Z"/><path d="M1636.46,597.81l4.65.78a7.64,7.64,0,0,1-2.83,3.89,8.32,8.32,0,0,1-4.84,1.34c-3.07,0-5.34-1-6.81-3a10.1,10.1,0,0,1-1.74-6.08,9.71,9.71,0,0,1,2.29-6.86,7.53,7.53,0,0,1,5.79-2.48,7.79,7.79,0,0,1,6.21,2.6c1.52,1.73,2.24,4.38,2.18,8h-11.69a4.67,4.67,0,0,0,1.13,3.22,3.54,3.54,0,0,0,2.69,1.16,2.85,2.85,0,0,0,1.84-.6A3.66,3.66,0,0,0,1636.46,597.81Zm.27-4.72a4.54,4.54,0,0,0-1-3.08,3.2,3.2,0,0,0-2.42-1,3.26,3.26,0,0,0-2.53,1.11,4.33,4.33,0,0,0-1,3Z"/><path d="M1645.16,603.42v-4.67h4.66v4.67Z"/><path d="M290.68,631.79V607.46h4.91v24.33Z"/><path d="M298.2,614.16h2.59v-1.33a9,9,0,0,1,.47-3.32,3.76,3.76,0,0,1,1.75-1.78,6.64,6.64,0,0,1,3.21-.69,12.91,12.91,0,0,1,3.9.6l-.63,3.25a9.54,9.54,0,0,0-2.14-.26,1.87,1.87,0,0,0-1.45.47,2.71,2.71,0,0,0-.44,1.82v1.24h3.48v3.67h-3.48v14h-4.67v-14H298.2Z"/><path d="M324.5,619.54l-4.24-.76a6.62,6.62,0,0,1,2.46-3.79,9,9,0,0,1,5.18-1.23,11.22,11.22,0,0,1,4.65.74,4.69,4.69,0,0,1,2.15,1.88,9.7,9.7,0,0,1,.62,4.17l-.05,5.45a18.78,18.78,0,0,0,.23,3.43,10.47,10.47,0,0,0,.83,2.36h-4.61c-.12-.31-.27-.77-.45-1.37-.08-.28-.13-.46-.16-.55a8.55,8.55,0,0,1-2.56,1.74,7.31,7.31,0,0,1-2.91.58,6,6,0,0,1-4.29-1.48,5.24,5.24,0,0,1-.85-6.39,4.6,4.6,0,0,1,2-1.8,15.83,15.83,0,0,1,3.71-1.09,25,25,0,0,0,4.53-1.14v-.47a2.41,2.41,0,0,0-.66-1.91,3.94,3.94,0,0,0-2.51-.58,2.8,2.8,0,0,0-3.07,2.21Zm6.24,3.79c-.6.2-1.54.43-2.84.71a8.93,8.93,0,0,0-2.54.81,2,2,0,0,0-.91,1.65,2.26,2.26,0,0,0,.73,1.69,2.55,2.55,0,0,0,1.86.72,4.09,4.09,0,0,0,2.41-.83,3,3,0,0,0,1.11-1.55,9.29,9.29,0,0,0,.18-2.27Z"/><path d="M347.49,631.79v-3.63l6.61-7.59c1.08-1.24,1.89-2.12,2.41-2.64-.55,0-1.26.06-2.15.07l-6.22,0v-3.87h14.57v3.31L356,625.24l-2.37,2.57c1.3-.08,2.1-.12,2.41-.12h7.22v4.1Z"/><path d="M365.29,622.73a9.58,9.58,0,0,1,1.14-4.5,7.89,7.89,0,0,1,3.25-3.32,9.67,9.67,0,0,1,4.69-1.15,8.82,8.82,0,0,1,6.56,2.6,9.77,9.77,0,0,1,0,13.2,8.71,8.71,0,0,1-6.5,2.63,10.25,10.25,0,0,1-4.62-1.09,7.51,7.51,0,0,1-3.35-3.22A10.74,10.74,0,0,1,365.29,622.73Zm4.78.25a5.85,5.85,0,0,0,1.24,4,4.09,4.09,0,0,0,6.14,0,6,6,0,0,0,1.24-4,5.85,5.85,0,0,0-1.24-4,4.09,4.09,0,0,0-6.14,0A5.85,5.85,0,0,0,370.07,623Z"/><path d="M386.79,614.16h4.3v2.41a6.91,6.91,0,0,1,5.49-2.81,6,6,0,0,1,2.94.7,5.39,5.39,0,0,1,2,2.11,8.27,8.27,0,0,1,2.51-2.11,6.21,6.21,0,0,1,2.87-.7,6.46,6.46,0,0,1,3.29.79,4.93,4.93,0,0,1,2,2.32,10.06,10.06,0,0,1,.48,3.65v11.27h-4.67V621.72a7.53,7.53,0,0,0-.48-3.39,2.21,2.21,0,0,0-2-1,3.16,3.16,0,0,0-1.84.6,3.33,3.33,0,0,0-1.25,1.75,12.83,12.83,0,0,0-.38,3.65v8.46h-4.66v-9.66a13.74,13.74,0,0,0-.25-3.32,2.12,2.12,0,0,0-.78-1.11,2.44,2.44,0,0,0-1.42-.37,3.41,3.41,0,0,0-1.94.59,3.12,3.12,0,0,0-1.23,1.67,12.38,12.38,0,0,0-.38,3.64v8.56h-4.66Z"/><path d="M417.17,631.79V607.46h4.66v8.76a6.61,6.61,0,0,1,5.12-2.46,6.88,6.88,0,0,1,5.33,2.34q2.1,2.32,2.1,6.7c0,3-.71,5.32-2.15,7a6.69,6.69,0,0,1-5.22,2.44,6.51,6.51,0,0,1-3-.75,7.17,7.17,0,0,1-2.53-2.24v2.59Zm4.63-9.19a7.58,7.58,0,0,0,.86,4,3.69,3.69,0,0,0,3.22,1.86,3.29,3.29,0,0,0,2.63-1.32A6.47,6.47,0,0,0,429.6,623a6.89,6.89,0,0,0-1.09-4.36,3.62,3.62,0,0,0-5.6,0A6,6,0,0,0,421.8,622.6Z"/><path d="M438.14,611.77v-4.31h4.66v4.31Zm0,20V614.16h4.66v17.63Z"/><path d="M457.79,626.18l4.65.78a7.67,7.67,0,0,1-2.83,3.9,8.32,8.32,0,0,1-4.84,1.33q-4.59,0-6.81-3a10.12,10.12,0,0,1-1.74-6.08,9.71,9.71,0,0,1,2.29-6.86,7.54,7.54,0,0,1,5.8-2.49,7.81,7.81,0,0,1,6.2,2.6c1.52,1.73,2.25,4.39,2.18,8H451a4.74,4.74,0,0,0,1.13,3.23,3.54,3.54,0,0,0,2.69,1.16,2.83,2.83,0,0,0,1.84-.6A3.65,3.65,0,0,0,457.79,626.18Zm.27-4.71a4.49,4.49,0,0,0-1.05-3.08,3.21,3.21,0,0,0-2.42-1.06,3.27,3.27,0,0,0-2.53,1.12,4.33,4.33,0,0,0-1,3Z"/><path d="M475.51,633l5.32.64a1.83,1.83,0,0,0,.62,1.28,3.51,3.51,0,0,0,2.09.5,5.38,5.38,0,0,0,2.74-.55,2.21,2.21,0,0,0,.93-1.18,7.13,7.13,0,0,0,.22-2.14v-2.57a6.33,6.33,0,0,1-5.28,2.85,6.5,6.5,0,0,1-5.63-3,10.16,10.16,0,0,1-1.63-5.91c0-3,.71-5.21,2.13-6.77a6.88,6.88,0,0,1,5.31-2.35,6.44,6.44,0,0,1,5.39,2.88v-2.48h4.37V630a15.9,15.9,0,0,1-.51,4.67,5.79,5.79,0,0,1-1.45,2.42,6.35,6.35,0,0,1-2.48,1.38,13.1,13.1,0,0,1-3.93.5q-4.47,0-6.35-1.54a4.79,4.79,0,0,1-1.88-3.89C475.49,633.37,475.5,633.18,475.51,633Zm4.16-10.35a6.39,6.39,0,0,0,1.09,4.11,3.37,3.37,0,0,0,2.68,1.31,3.72,3.72,0,0,0,2.89-1.34,5.8,5.8,0,0,0,1.18-4,6.2,6.2,0,0,0-1.13-4.07,3.6,3.6,0,0,0-2.86-1.33,3.46,3.46,0,0,0-2.76,1.31A6.13,6.13,0,0,0,479.67,622.61Z"/><path d="M506.92,626.18l4.64.78a7.61,7.61,0,0,1-2.83,3.9,8.32,8.32,0,0,1-4.84,1.33q-4.59,0-6.8-3a10.13,10.13,0,0,1-1.75-6.08,9.71,9.71,0,0,1,2.3-6.86,7.51,7.51,0,0,1,5.79-2.49,7.85,7.85,0,0,1,6.21,2.6c1.52,1.73,2.24,4.39,2.17,8H500.13a4.74,4.74,0,0,0,1.12,3.23,3.54,3.54,0,0,0,2.69,1.16,2.87,2.87,0,0,0,1.85-.6A3.72,3.72,0,0,0,506.92,626.18Zm.26-4.71a4.49,4.49,0,0,0-1-3.08,3.36,3.36,0,0,0-4.95.06,4.28,4.28,0,0,0-1,3Z"/><path d="M523.7,614.16v3.72h-3.19V625a17.84,17.84,0,0,0,.09,2.51,1,1,0,0,0,.42.59,1.29,1.29,0,0,0,.79.23,6.22,6.22,0,0,0,1.87-.44l.4,3.62a9.32,9.32,0,0,1-3.68.69,5.94,5.94,0,0,1-2.28-.42,3.28,3.28,0,0,1-1.48-1.1,4.18,4.18,0,0,1-.66-1.81,22.64,22.64,0,0,1-.15-3.29v-7.69h-2.14v-3.72h2.14v-3.5l4.68-2.72v6.22Z"/><path d="M525.29,626.76l4.69-.71a3.38,3.38,0,0,0,1.21,2.07,4.09,4.09,0,0,0,2.55.7,4.66,4.66,0,0,0,2.73-.66,1.49,1.49,0,0,0,.61-1.25,1.25,1.25,0,0,0-.33-.88,3.74,3.74,0,0,0-1.56-.61q-5.64-1.24-7.16-2.28a4.54,4.54,0,0,1-2.09-4,4.87,4.87,0,0,1,1.81-3.85c1.21-1,3.08-1.57,5.61-1.57a9.82,9.82,0,0,1,5.38,1.18,6.1,6.1,0,0,1,2.43,3.49l-4.4.81a2.71,2.71,0,0,0-1.08-1.57,3.84,3.84,0,0,0-2.24-.55,5.1,5.1,0,0,0-2.64.51,1.11,1.11,0,0,0-.54,1,1.06,1.06,0,0,0,.47.85,17.72,17.72,0,0,0,4.36,1.31,12.87,12.87,0,0,1,5.2,2.07,4.3,4.3,0,0,1,1.46,3.47,5.32,5.32,0,0,1-2,4.17q-2,1.74-6,1.74a9.78,9.78,0,0,1-5.7-1.46A6.77,6.77,0,0,1,525.29,626.76Z"/><path d="M306.17,660.18l-4.6.83a3.32,3.32,0,0,0-1.05-2.08,3.22,3.22,0,0,0-2.14-.7,3.47,3.47,0,0,0-2.78,1.21,6.16,6.16,0,0,0-1,4q0,3.13,1.05,4.44a3.47,3.47,0,0,0,2.83,1.29,3.13,3.13,0,0,0,2.17-.75,4.52,4.52,0,0,0,1.2-2.6l4.58.78a8.09,8.09,0,0,1-2.74,4.76,8.44,8.44,0,0,1-5.43,1.61,8.05,8.05,0,0,1-6.16-2.44,11.11,11.11,0,0,1,0-13.55,8.18,8.18,0,0,1,6.24-2.44,8.56,8.56,0,0,1,5.12,1.39A7.65,7.65,0,0,1,306.17,660.18Z"/><path d="M309.71,672.59V648.26h4.66v24.33Z"/><path d="M318.07,663.53a9.59,9.59,0,0,1,1.15-4.5,7.81,7.81,0,0,1,3.24-3.32,9.69,9.69,0,0,1,4.69-1.15,8.81,8.81,0,0,1,6.56,2.6,9,9,0,0,1,2.56,6.57,9.07,9.07,0,0,1-2.58,6.63,8.71,8.71,0,0,1-6.5,2.63,10.26,10.26,0,0,1-4.63-1.09,7.49,7.49,0,0,1-3.34-3.22A10.74,10.74,0,0,1,318.07,663.53Zm4.78.25a5.85,5.85,0,0,0,1.25,4,4.07,4.07,0,0,0,6.13,0,5.89,5.89,0,0,0,1.24-4,5.8,5.8,0,0,0-1.24-4,4.07,4.07,0,0,0-6.13,0A5.85,5.85,0,0,0,322.85,663.78Z"/><path d="M338.28,667.56l4.68-.71a3.43,3.43,0,0,0,1.21,2.07,4.1,4.1,0,0,0,2.56.7,4.64,4.64,0,0,0,2.72-.66,1.49,1.49,0,0,0,.61-1.25,1.25,1.25,0,0,0-.33-.88,3.74,3.74,0,0,0-1.56-.61c-3.76-.83-6.15-1.59-7.15-2.28a4.53,4.53,0,0,1-2.1-4,4.94,4.94,0,0,1,1.81-3.86q1.81-1.56,5.62-1.56a9.8,9.8,0,0,1,5.37,1.18,6,6,0,0,1,2.43,3.49l-4.4.81a2.74,2.74,0,0,0-1.07-1.57,3.9,3.9,0,0,0-2.25-.55,5.1,5.1,0,0,0-2.64.51,1.1,1.1,0,0,0-.53,1,1,1,0,0,0,.46.85,17.89,17.89,0,0,0,4.36,1.31,12.93,12.93,0,0,1,5.21,2.07,4.33,4.33,0,0,1,1.46,3.47,5.33,5.33,0,0,1-2,4.17q-2,1.74-6,1.74a9.84,9.84,0,0,1-5.7-1.46A6.68,6.68,0,0,1,338.28,667.56Z"/><path d="M369,667l4.65.78a7.67,7.67,0,0,1-2.83,3.9A8.32,8.32,0,0,1,366,673q-4.61,0-6.81-3a10.12,10.12,0,0,1-1.74-6.08,9.71,9.71,0,0,1,2.29-6.86,7.54,7.54,0,0,1,5.79-2.49,7.82,7.82,0,0,1,6.21,2.6c1.52,1.73,2.24,4.39,2.18,8H362.25a4.69,4.69,0,0,0,1.13,3.23,3.54,3.54,0,0,0,2.69,1.16,2.85,2.85,0,0,0,1.84-.6A3.65,3.65,0,0,0,369,667Zm.27-4.71a4.54,4.54,0,0,0-1.05-3.08,3.36,3.36,0,0,0-4.95.06,4.33,4.33,0,0,0-1,3Z"/><path d="M377.62,667.93h4.67v3.34a11.67,11.67,0,0,1-.35,3.19,4.73,4.73,0,0,1-1.32,2.1,6.75,6.75,0,0,1-2.47,1.46l-.91-1.92a4,4,0,0,0,2-1.28,3.83,3.83,0,0,0,.63-2.23h-2.26Z"/><path d="M396.63,652.57v-4.31h4.67v4.31Zm0,20V655h4.67v17.63Z"/><path d="M414.16,655v3.72H411v7.11a17.84,17.84,0,0,0,.09,2.51,1,1,0,0,0,.41.59,1.29,1.29,0,0,0,.79.23,6.27,6.27,0,0,0,1.88-.44l.39,3.61a9.15,9.15,0,0,1-3.68.7,5.94,5.94,0,0,1-2.28-.42,3.33,3.33,0,0,1-1.48-1.1,4.31,4.31,0,0,1-.66-1.81,22.64,22.64,0,0,1-.15-3.29v-7.69h-2.14V655h2.14v-3.5l4.69-2.72V655Z"/><path d="M430.33,660.34l-4.23-.76a6.58,6.58,0,0,1,2.46-3.79,9,9,0,0,1,5.18-1.23,11.13,11.13,0,0,1,4.64.74,4.72,4.72,0,0,1,2.16,1.88,9.7,9.7,0,0,1,.62,4.17l-.05,5.45a19,19,0,0,0,.22,3.43,10.06,10.06,0,0,0,.84,2.36h-4.62c-.12-.31-.27-.77-.44-1.37-.08-.28-.14-.46-.17-.55a8.55,8.55,0,0,1-2.56,1.74,7.22,7.22,0,0,1-2.9.58,6,6,0,0,1-4.29-1.48,4.89,4.89,0,0,1-1.57-3.73,5,5,0,0,1,.71-2.66,4.66,4.66,0,0,1,2-1.8,16,16,0,0,1,3.71-1.09,25.42,25.42,0,0,0,4.54-1.14v-.47a2.42,2.42,0,0,0-.67-1.91,3.92,3.92,0,0,0-2.51-.58,3.39,3.39,0,0,0-1.94.49A3.47,3.47,0,0,0,430.33,660.34Zm6.25,3.79c-.6.2-1.55.43-2.84.71a8.7,8.7,0,0,0-2.54.81,2,2,0,0,0-.92,1.65A2.3,2.3,0,0,0,431,669a2.55,2.55,0,0,0,1.86.72,4.06,4.06,0,0,0,2.41-.83,3,3,0,0,0,1.11-1.55,9.2,9.2,0,0,0,.19-2.27Z"/><path d="M453.84,655v3.72h-3.19v7.11a15.62,15.62,0,0,0,.1,2.51,1,1,0,0,0,.41.59,1.29,1.29,0,0,0,.79.23,6.22,6.22,0,0,0,1.87-.44l.4,3.61a9.15,9.15,0,0,1-3.68.7,5.94,5.94,0,0,1-2.28-.42,3.28,3.28,0,0,1-1.48-1.1,4.18,4.18,0,0,1-.66-1.81,22.64,22.64,0,0,1-.15-3.29v-7.69h-2.14V655H446v-3.5l4.68-2.72V655Z"/><path d="M465.16,655v3.72H462v7.11a17.84,17.84,0,0,0,.09,2.51,1,1,0,0,0,.41.59,1.29,1.29,0,0,0,.79.23,6.27,6.27,0,0,0,1.88-.44l.39,3.61a9.15,9.15,0,0,1-3.68.7,5.94,5.94,0,0,1-2.28-.42,3.33,3.33,0,0,1-1.48-1.1,4.31,4.31,0,0,1-.66-1.81,22.64,22.64,0,0,1-.15-3.29v-7.69h-2.14V655h2.14v-3.5l4.69-2.72V655Z"/><path d="M471.89,660.34l-4.24-.76a6.62,6.62,0,0,1,2.46-3.79,9,9,0,0,1,5.18-1.23,11.22,11.22,0,0,1,4.65.74,4.69,4.69,0,0,1,2.15,1.88,9.7,9.7,0,0,1,.62,4.17l0,5.45a18.78,18.78,0,0,0,.23,3.43,9.57,9.57,0,0,0,.83,2.36h-4.61c-.12-.31-.27-.77-.45-1.37-.08-.28-.13-.46-.17-.55a8.51,8.51,0,0,1-2.55,1.74A7.31,7.31,0,0,1,473,673a6,6,0,0,1-4.29-1.48,5.24,5.24,0,0,1-.85-6.39,4.6,4.6,0,0,1,2-1.8,15.68,15.68,0,0,1,3.71-1.09,25,25,0,0,0,4.53-1.14v-.47a2.38,2.38,0,0,0-.67-1.91,3.89,3.89,0,0,0-2.5-.58,2.8,2.8,0,0,0-3.07,2.21Zm6.24,3.79c-.6.2-1.55.43-2.84.71a8.93,8.93,0,0,0-2.54.81,2,2,0,0,0-.91,1.65,2.26,2.26,0,0,0,.73,1.69,2.52,2.52,0,0,0,1.86.72,4,4,0,0,0,2.4-.83,3,3,0,0,0,1.12-1.55,9.35,9.35,0,0,0,.18-2.27Z"/><path d="M502.68,660.18l-4.6.83a3.32,3.32,0,0,0-1.05-2.08,3.21,3.21,0,0,0-2.13-.7,3.45,3.45,0,0,0-2.78,1.21,6.1,6.1,0,0,0-1,4q0,3.13,1.05,4.44a3.47,3.47,0,0,0,2.83,1.29,3.17,3.17,0,0,0,2.18-.75,4.58,4.58,0,0,0,1.19-2.6l4.59.78a8.14,8.14,0,0,1-2.74,4.76,8.44,8.44,0,0,1-5.43,1.61,8.06,8.06,0,0,1-6.17-2.44,11.11,11.11,0,0,1,0-13.55,8.21,8.21,0,0,1,6.24-2.44A8.54,8.54,0,0,1,500,656,7.65,7.65,0,0,1,502.68,660.18Z"/><path d="M506.05,672.59V648.26h4.67v12.91l5.46-6.21h5.74l-6,6.44,6.46,11.19h-5l-4.44-7.92L510.72,667v5.64Z"/><path d="M523.48,667.56l4.69-.71a3.43,3.43,0,0,0,1.21,2.07,4.09,4.09,0,0,0,2.55.7,4.66,4.66,0,0,0,2.73-.66,1.49,1.49,0,0,0,.61-1.25,1.25,1.25,0,0,0-.33-.88,3.74,3.74,0,0,0-1.56-.61q-5.64-1.25-7.16-2.28a4.54,4.54,0,0,1-2.09-4,4.94,4.94,0,0,1,1.81-3.86q1.81-1.56,5.61-1.56a9.82,9.82,0,0,1,5.38,1.18,6.1,6.1,0,0,1,2.43,3.49L535,660a2.71,2.71,0,0,0-1.08-1.57,3.84,3.84,0,0,0-2.24-.55,5.1,5.1,0,0,0-2.64.51,1.11,1.11,0,0,0-.54,1,1.06,1.06,0,0,0,.47.85,17.72,17.72,0,0,0,4.36,1.31,12.87,12.87,0,0,1,5.2,2.07,4.3,4.3,0,0,1,1.46,3.47,5.32,5.32,0,0,1-2,4.17q-2,1.74-6,1.74a9.86,9.86,0,0,1-5.7-1.46A6.77,6.77,0,0,1,523.48,667.56Z"/><path d="M543.92,667.93h4.67v3.34a11.67,11.67,0,0,1-.35,3.19,4.82,4.82,0,0,1-1.32,2.1,6.75,6.75,0,0,1-2.47,1.46l-.91-1.92a4,4,0,0,0,2-1.28,3.83,3.83,0,0,0,.63-2.23h-2.26Z"/><path d="M566.42,660.34l-4.24-.76a6.62,6.62,0,0,1,2.46-3.79,9,9,0,0,1,5.18-1.23,11.22,11.22,0,0,1,4.65.74,4.69,4.69,0,0,1,2.15,1.88,9.7,9.7,0,0,1,.62,4.17l0,5.45a17.91,17.91,0,0,0,.23,3.43,9.57,9.57,0,0,0,.83,2.36h-4.61c-.12-.31-.27-.77-.45-1.37-.08-.28-.13-.46-.17-.55a8.51,8.51,0,0,1-2.55,1.74,7.31,7.31,0,0,1-2.91.58,6,6,0,0,1-4.29-1.48,5.24,5.24,0,0,1-.85-6.39,4.6,4.6,0,0,1,2-1.8,15.68,15.68,0,0,1,3.71-1.09,25,25,0,0,0,4.53-1.14v-.47a2.38,2.38,0,0,0-.67-1.91,3.89,3.89,0,0,0-2.5-.58,2.78,2.78,0,0,0-3.07,2.21Zm6.24,3.79c-.6.2-1.55.43-2.84.71a8.82,8.82,0,0,0-2.54.81,2,2,0,0,0-.91,1.65,2.26,2.26,0,0,0,.73,1.69,2.52,2.52,0,0,0,1.86.72,4,4,0,0,0,2.4-.83,3,3,0,0,0,1.12-1.55,9.35,9.35,0,0,0,.18-2.27Z"/><path d="M597.88,672.59h-4.67v-9a13.88,13.88,0,0,0-.3-3.7,2.57,2.57,0,0,0-1-1.3,2.79,2.79,0,0,0-1.62-.47,3.74,3.74,0,0,0-2.17.67,3.36,3.36,0,0,0-1.32,1.76,15.08,15.08,0,0,0-.36,4.05v8h-4.66V655h4.33v2.59a7.21,7.21,0,0,1,8.63-2.43,4.74,4.74,0,0,1,1.94,1.42,5.26,5.26,0,0,1,.91,2,14.67,14.67,0,0,1,.26,3.14Z"/><path d="M618.78,672.59h-4.34V670a6.93,6.93,0,0,1-2.54,2.25,6.46,6.46,0,0,1-3,.74,6.69,6.69,0,0,1-5.2-2.45,9.93,9.93,0,0,1-2.17-6.83q0-4.49,2.11-6.81a6.87,6.87,0,0,1,5.33-2.34,6.59,6.59,0,0,1,5.11,2.46v-8.76h4.67Zm-12.45-9.19a8.06,8.06,0,0,0,.78,4.08,3.51,3.51,0,0,0,3.15,1.83,3.45,3.45,0,0,0,2.74-1.37,6.36,6.36,0,0,0,1.13-4.1,6.91,6.91,0,0,0-1.1-4.37,3.59,3.59,0,0,0-5.58,0A6,6,0,0,0,606.33,663.4Z"/><path d="M288.59,695.76h5l4.22,12.52,4.12-12.52h4.83l-6.23,17-1.11,3.07a12.54,12.54,0,0,1-1.17,2.36,5.2,5.2,0,0,1-1.28,1.32,5.55,5.55,0,0,1-1.77.79,9.22,9.22,0,0,1-2.39.28,12.33,12.33,0,0,1-2.64-.28l-.41-3.66a9.88,9.88,0,0,0,2,.22,2.94,2.94,0,0,0,2.41-1,6.71,6.71,0,0,0,1.2-2.44Z"/><path d="M308.63,704.33a9.58,9.58,0,0,1,1.14-4.5,7.89,7.89,0,0,1,3.25-3.32,9.67,9.67,0,0,1,4.69-1.15,8.82,8.82,0,0,1,6.56,2.6,9.77,9.77,0,0,1,0,13.2,8.71,8.71,0,0,1-6.5,2.63,10.19,10.19,0,0,1-4.62-1.09,7.51,7.51,0,0,1-3.35-3.22A10.74,10.74,0,0,1,308.63,704.33Zm4.78.25a5.85,5.85,0,0,0,1.24,4,4.09,4.09,0,0,0,6.14,0,6,6,0,0,0,1.23-4.06,5.83,5.83,0,0,0-1.23-4,4.09,4.09,0,0,0-6.14,0A5.85,5.85,0,0,0,313.41,704.58Z"/><path d="M342.08,713.39v-2.64a6.82,6.82,0,0,1-2.53,2.23,7.13,7.13,0,0,1-3.31.81,6.47,6.47,0,0,1-3.19-.78,4.6,4.6,0,0,1-2-2.19,9.61,9.61,0,0,1-.63-3.9V695.76H335v8.1a22.54,22.54,0,0,0,.26,4.56,2.46,2.46,0,0,0,.94,1.33,2.83,2.83,0,0,0,1.72.49,3.64,3.64,0,0,0,2.14-.66,3.32,3.32,0,0,0,1.3-1.62,19.05,19.05,0,0,0,.35-4.76v-7.44h4.66v17.63Z"/><path d="M351.13,689.12h4.66v3.34a11.42,11.42,0,0,1-.35,3.2,4.76,4.76,0,0,1-1.32,2.09,6.72,6.72,0,0,1-2.46,1.47l-.91-1.93a3.88,3.88,0,0,0,2-1.28,3.8,3.8,0,0,0,.63-2.22h-2.25Z"/><path d="M360.69,713.39V689.06h4.66v24.33Z"/><path d="M370.14,713.39V689.06h4.66v24.33Z"/><path d="M389,713.39V689.06h4.66v24.33Z"/><path d="M397.4,704.33a9.58,9.58,0,0,1,1.14-4.5,7.83,7.83,0,0,1,3.25-3.32,9.67,9.67,0,0,1,4.69-1.15A8.8,8.8,0,0,1,413,698a9,9,0,0,1,2.56,6.57,9.07,9.07,0,0,1-2.58,6.63,8.71,8.71,0,0,1-6.5,2.63,10.19,10.19,0,0,1-4.62-1.09,7.46,7.46,0,0,1-3.35-3.22A10.74,10.74,0,0,1,397.4,704.33Zm4.78.25a5.85,5.85,0,0,0,1.24,4,4.09,4.09,0,0,0,6.14,0,6,6,0,0,0,1.23-4.06,5.83,5.83,0,0,0-1.23-4,4.09,4.09,0,0,0-6.14,0A5.85,5.85,0,0,0,402.18,704.58Z"/><path d="M418.16,704.33a9.59,9.59,0,0,1,1.15-4.5,7.86,7.86,0,0,1,3.24-3.32,9.73,9.73,0,0,1,4.7-1.15,8.8,8.8,0,0,1,6.55,2.6,9,9,0,0,1,2.56,6.57,9.07,9.07,0,0,1-2.58,6.63,8.71,8.71,0,0,1-6.5,2.63,10.26,10.26,0,0,1-4.63-1.09,7.49,7.49,0,0,1-3.34-3.22A10.74,10.74,0,0,1,418.16,704.33Zm4.79.25a5.85,5.85,0,0,0,1.24,4,4.07,4.07,0,0,0,6.13,0,5.91,5.91,0,0,0,1.24-4.06,5.79,5.79,0,0,0-1.24-4,4.07,4.07,0,0,0-6.13,0A5.85,5.85,0,0,0,423,704.58Z"/><path d="M438.37,708.36l4.68-.71a3.43,3.43,0,0,0,1.21,2.07,4.1,4.1,0,0,0,2.56.7,4.64,4.64,0,0,0,2.72-.66,1.5,1.5,0,0,0,.62-1.25,1.26,1.26,0,0,0-.34-.88,3.74,3.74,0,0,0-1.56-.61c-3.76-.83-6.15-1.59-7.15-2.28a4.52,4.52,0,0,1-2.09-4,4.89,4.89,0,0,1,1.81-3.86q1.8-1.56,5.61-1.56a9.87,9.87,0,0,1,5.38,1.18,6,6,0,0,1,2.42,3.49l-4.4.81a2.74,2.74,0,0,0-1.07-1.57,3.9,3.9,0,0,0-2.25-.55,5.1,5.1,0,0,0-2.64.51,1.12,1.12,0,0,0-.53.95,1,1,0,0,0,.46.85,18.39,18.39,0,0,0,4.36,1.31,12.93,12.93,0,0,1,5.21,2.07,4.33,4.33,0,0,1,1.46,3.47,5.33,5.33,0,0,1-2,4.17q-2,1.74-6,1.74a9.86,9.86,0,0,1-5.7-1.46A6.72,6.72,0,0,1,438.37,708.36Z"/><path d="M469.13,707.78l4.65.78a7.67,7.67,0,0,1-2.83,3.9,8.32,8.32,0,0,1-4.84,1.33q-4.61,0-6.81-3a10.12,10.12,0,0,1-1.74-6.08,9.71,9.71,0,0,1,2.29-6.86,7.54,7.54,0,0,1,5.79-2.49,7.82,7.82,0,0,1,6.21,2.6c1.52,1.73,2.24,4.39,2.18,8H462.34a4.69,4.69,0,0,0,1.13,3.23,3.54,3.54,0,0,0,2.69,1.16,2.85,2.85,0,0,0,1.84-.6A3.65,3.65,0,0,0,469.13,707.78Zm.27-4.71a4.54,4.54,0,0,0-1-3.08,3.36,3.36,0,0,0-5,.06,4.31,4.31,0,0,0-1,3Z"/><path d="M490.76,701.14l-4.23-.76a6.53,6.53,0,0,1,2.46-3.79,9,9,0,0,1,5.18-1.23,11.13,11.13,0,0,1,4.64.74A4.64,4.64,0,0,1,501,698a9.51,9.51,0,0,1,.63,4.17l0,5.45a19,19,0,0,0,.22,3.43,10.06,10.06,0,0,0,.84,2.36H498c-.12-.31-.27-.77-.44-1.37-.08-.28-.14-.46-.17-.55a8.55,8.55,0,0,1-2.56,1.74,7.22,7.22,0,0,1-2.9.58,6,6,0,0,1-4.29-1.48,4.89,4.89,0,0,1-1.57-3.73,5,5,0,0,1,.71-2.66,4.66,4.66,0,0,1,2-1.8,16,16,0,0,1,3.71-1.09,25.91,25.91,0,0,0,4.53-1.14v-.47a2.41,2.41,0,0,0-.66-1.91,3.92,3.92,0,0,0-2.51-.58,3.39,3.39,0,0,0-1.94.49A3.47,3.47,0,0,0,490.76,701.14Zm6.24,3.79c-.59.2-1.54.43-2.83.71a8.7,8.7,0,0,0-2.54.81,2,2,0,0,0-.92,1.65,2.3,2.3,0,0,0,.73,1.69,2.54,2.54,0,0,0,1.86.71,4,4,0,0,0,2.41-.83,2.89,2.89,0,0,0,1.11-1.54,9.35,9.35,0,0,0,.18-2.27Z"/><path d="M515.63,713.39V689.06h4.67v24.33Z"/><path d="M525.08,693.37v-4.31h4.66v4.31Zm0,20V695.76h4.66v17.63Z"/><path d="M532.48,695.76h2.59v-1.33a9,9,0,0,1,.47-3.32,3.76,3.76,0,0,1,1.75-1.78,6.66,6.66,0,0,1,3.21-.69,12.91,12.91,0,0,1,3.9.6l-.63,3.25a9.54,9.54,0,0,0-2.14-.26,1.89,1.89,0,0,0-1.45.47,2.69,2.69,0,0,0-.44,1.82v1.24h3.48v3.67h-3.48v14h-4.67v-14h-2.59Z"/><path d="M556.06,707.78l4.65.78a7.72,7.72,0,0,1-2.83,3.9,8.36,8.36,0,0,1-4.84,1.33q-4.6,0-6.81-3a10.12,10.12,0,0,1-1.74-6.08,9.71,9.71,0,0,1,2.29-6.86,7.52,7.52,0,0,1,5.79-2.49,7.85,7.85,0,0,1,6.21,2.6c1.52,1.73,2.24,4.39,2.17,8H549.27a4.69,4.69,0,0,0,1.13,3.23,3.52,3.52,0,0,0,2.68,1.16,2.85,2.85,0,0,0,1.85-.6A3.72,3.72,0,0,0,556.06,707.78Zm.26-4.71a4.49,4.49,0,0,0-1-3.08,3.25,3.25,0,0,0-2.43-1.06,3.2,3.2,0,0,0-2.52,1.12,4.31,4.31,0,0,0-1,3Z"/><path d="M566.58,707.12l-1.21-12.35v-5.71h5v5.71l-1.2,12.35Zm-1,6.27v-4.66h4.66v4.66Z"/></g></svg>