<svg xmlns="http://www.w3.org/2000/svg" xmlns:xlink="http://www.w3.org/1999/xlink" viewBox="0 0 500 200"><defs><style>.cls-1{fill:#666;}.cls-2{fill:#999;}.cls-3{fill:#4d4d4d;}.cls-4{fill:#b3b3b3;}.cls-5{filter:url(#AI_Shadow_1);}.cls-6{fill:#00fa00;}.cls-7{fill:#d2f78b;}</style><filter id="AI_Shadow_1" name="AI_Shadow_1"><feGaussianBlur result="blur" stdDeviation="2" in="SourceAlpha"/><feOffset result="offsetBlurredAlpha" dx="4" dy="4" in="blur"/><feMerge><feMergeNode in="offsetBlurredAlpha"/><feMergeNode in="SourceGraphic"/></feMerge></filter></defs><g id="lets_go_" data-name="lets go!"><path class="cls-1" d="M7.84,11c2.44,2.59,5.47,4.55,8,7A21.47,21.47,0,0,0,21,22.21a9.51,9.51,0,0,1,3.63,4,4.94,4.94,0,0,1,.91,2,24.52,24.52,0,0,1,0,3.09c0,1.17-.35,2.11-.41,3.25s0,2.35,0,3.51v7.66a56.17,56.17,0,0,0,.37,9.37A40.53,40.53,0,0,1,25.9,62a25.66,25.66,0,0,1,0,3.28c-.24,1.83-2.08,2.66-1.61,4.75a14.34,14.34,0,0,0,.89,1.91c.28.72.4,1.48.7,2.2a8.16,8.16,0,0,1,.4,3.42c0,1-.08,2.12,0,3.16s.4,1.71.43,2.64c.06,1.84.39,3.57.39,5.43,0,3.28.48,7-.2,10.23-.48,2.29.62,4.19.6,6.52,0,.81,0,1.64,0,2.45,0,1,.36,1.86.43,2.81.13,1.78,0,3.68,0,5.46s-.42,3.5-.42,5.31a26.81,26.81,0,0,1-.5,5.72c-.58,2.74-1,5.6-1.52,8.39a43.86,43.86,0,0,0-.39,7.77c0,1,0,2.09,0,3.13,0,1.42-.34,2.73-.43,4.12-.13,2.18,0,4.42,0,6.6a16.35,16.35,0,0,0,.5,4.19c.19.76.51,1.56.65,2.35.07.4,0,.95.05,1.33s.36.6.43,1.12a32.37,32.37,0,0,1,0,3.94,17,17,0,0,1-.4,4.12c-.28,1.15-.21,2.23-1,3.08a7,7,0,0,1-.8.83c-.48.38-.66.24-1.21.39s-.74.33-1.18.44-1.18-.11-1.75.06c0,.22-.09.45-.15.67-1.27.08-3.12,1.41-4,2.11s-.94,1.07-1.91,1.25a10.5,10.5,0,0,0-2.44.83c-1.24.56-2.68,1.09-4,1.65-.56.25-1.21.32-1.81.64s-1.31.87-1.93,1.25a5.08,5.08,0,0,1-.8-3.62,24.05,24.05,0,0,0,.54-7.24,27.8,27.8,0,0,0-1.64-7.29c-.89-2.66-.09-4.78.65-7.36a6.41,6.41,0,0,0,.1-3.08c-.28-1.1-.94-2-.76-3.22a47.44,47.44,0,0,0,.83-6.95,26,26,0,0,1,0-2.79c.11-.84.6-1.51.74-2.38.47-3,0-6.31.06-9.38,0-1.8.6-3.29.06-5A38.22,38.22,0,0,1,2,123.59a27.24,27.24,0,0,1,1-11.45,25.57,25.57,0,0,0,.82-3.09,10.66,10.66,0,0,0-.51-3.75,33.78,33.78,0,0,1-1.14-7.19c0-1.24,0-2.48,0-3.71a9.37,9.37,0,0,1,.16-3.22c.29-.76.81-1.07,1-2A22.32,22.32,0,0,0,3.44,85c0-4.26.32-8.61-.38-12.81-.39-2.33-1.23-4.66-1.25-7a21.56,21.56,0,0,0-.18-2.89c-.51-3.61.47-6.2,1.43-9.58.77-2.73.08-5.89,0-8.7s-.35-5.73-.72-8.53a57.78,57.78,0,0,1-.09-7.21c0-.79-.07-1.61,0-2.39a16.69,16.69,0,0,1,.85-3.13c.67-2.76.42-5.8.38-8.63,0-1-.16-1.07.58-1.51A30.26,30.26,0,0,0,7.84,11Z"/><path class="cls-2" d="M475.72,23.28c.59.13,1-.6,1.47-1,.81-.83,1.64-1.61,2.44-2.48.59-.64,1.05-1.43,1.6-2.14s1.32-1.81,2-2.61,1.53-1.33,2.25-2a27.66,27.66,0,0,0,2.58-3.81c.32-.43.77-1.14,1.24-1.24s.45.21.78.32.73-.21,1.1-.28c.17,2,.49,4,.48,6.06v4a23.91,23.91,0,0,0,.1,4.32,24.07,24.07,0,0,0,1,3.21c.49,1.38.33,3.15.6,4.61.34,1.88.33,3.81.65,5.7a52.57,52.57,0,0,1,.74,6c.06.93-.07,1.89.07,2.8.08.58.27,1.13.35,1.71.2,1.39.44,2.74.68,4.11a14.1,14.1,0,0,1-.18,4.15c-.24,1.95-.43,3.84-.62,5.8-.11,1.22-.2,2.41-.29,3.63-.12,1.42-.44,2.68-.44,4.13,0,2.27,0,4.53,0,6.8a12.3,12.3,0,0,0,.29,2.51c.17.92.15,1.88.27,2.82s.31,2,.46,3c.12.79.08,1.57.16,2.37.31,3.48.17,7,.17,10.55v-.18a40.36,40.36,0,0,0,0,4.4,48.77,48.77,0,0,0,.68,5.59c.34,1.36,0,2.73,0,4.15a39.17,39.17,0,0,1,0,4.47,21,21,0,0,0-.5,4.78c.11.79.44,1.42.53,2.22a18.11,18.11,0,0,1,0,3.53c-.24,2-1,3.9-1,6a38.41,38.41,0,0,0,.18,5.37,31.26,31.26,0,0,1,0,3.75,34.41,34.41,0,0,1,0,3.52,42.87,42.87,0,0,0-.37,4.94,15.5,15.5,0,0,0,.23,3c.09.51.16,1,.22,1.53.09.86.61,1.54.6,2.36s-.22,1.53-.23,2.32c0,.54,0,1.07,0,1.61a5.35,5.35,0,0,0,0,1.06c0,.17.16.3.18.46a5.63,5.63,0,0,1-.2,1.4c-.49,3.9,0,7.82,0,11.75a57.38,57.38,0,0,1,0,6c-.09.84-.11,1.58-.15,2.42s-.26,1.91-.23,2.92a9,9,0,0,1,.12,2.53,4.05,4.05,0,0,1-.77,1.65c-.37.43-.68.87-1,1.33-.22.28-.46.55-.66.86-.31.5-.17.8-.36,1.28a.86.86,0,0,1-1.15.53,3.37,3.37,0,0,1-.68-.68c-.21-.29-.28-.65-.48-1a12.46,12.46,0,0,0-.74-1.51c-.59-.78-1.12-1.57-1.7-2.37-.46-.63-.8-1.35-1.3-1.94s-.95-1-1.41-1.58-.84-.5-1.28-.84-.91-.79-1.35-1.17a13.23,13.23,0,0,1-2.2-2.92,4,4,0,0,1-.52-1,6.46,6.46,0,0,1-.2-1.39,47.84,47.84,0,0,1-.16-5.36c0-2.64,0-5.27,0-7.9,0-2.83,0-5.61.2-8.42.23-3,.44-6,.43-9,0-5.57.45-11.4-.62-16.83a40.8,40.8,0,0,1-.9-5.65c-.15-2.69-.47-5.35-.61-8-.14-2.51-.12-5-.25-7.51a67.86,67.86,0,0,1-.08-7.94A34.66,34.66,0,0,1,479,94.28a22.47,22.47,0,0,0,.54-2.26,44.17,44.17,0,0,0,.61-6.92,45.88,45.88,0,0,0-1.22-9.52c-1.27-6.27-1.48-12.7-2.11-19.09-.27-2.7-.35-5.35-.41-8.06,0-1.57-.22-3.11-.21-4.68,0-.94,0-1.87,0-2.81v.17a23.63,23.63,0,0,0-.25-2.92c-.11-.72,0-1.43-.15-2.13,0-.26-.18-.42-.23-.71a10.44,10.44,0,0,1,0-1.12c0-.72.06-1.47,0-2.19a23.25,23.25,0,0,0-.47-2.6,4,4,0,0,1,0-1.86A30.88,30.88,0,0,0,475.72,23.28Z"/><path class="cls-2" d="M489.55,9.59A6.48,6.48,0,0,1,489.27,8a2.27,2.27,0,0,0-.4-1.43c0-.14-.06-.28-.1-.42L488.41,6c-.11-.11-.2-.35-.32-.43s-.4-.06-.59-.11-.25-.19-.49-.22-.49.08-.7,0-.24-.23-.43-.3a5.78,5.78,0,0,0-2.11-.26c-.61,0-1.23,0-1.84,0s-1.31.27-2,.3c-1.29.06-2.52.5-3.81.55-2.26.08-4.53,0-6.79,0a23,23,0,0,1-3.7-.28,32.41,32.41,0,0,0-3.9-.56c-1.64,0-3.3,0-4.94,0a13.39,13.39,0,0,1-3.63-.2,13.1,13.1,0,0,0-7.33.4,12.63,12.63,0,0,1-3.67.34A10.4,10.4,0,0,1,438.76,5a10.52,10.52,0,0,0-3.49-.27H431c-2.81,0-5.62,0-8.42,0-1.31,0-2.58-.28-3.89-.28h-3.6c-.84,0-1.7,0-2.55,0a13.63,13.63,0,0,0-2.24.5c-1.63.37-3.08-1-4.66-1.06a12.94,12.94,0,0,0-3.35.08,22,22,0,0,1-3.12.5c-1.24.06-2.5.29-3.74.26-1.48,0-2.73.71-4.23.55-.41,0-.76-.24-1.17-.3s-.68.08-1,0c-1.86-.23-3.64-1-5.54-.84-.92,0-1.78.3-2.71.29a5.74,5.74,0,0,0-1.55,0,8.81,8.81,0,0,1-2.08.52c-.61,0-1.23-.06-1.84,0a13.58,13.58,0,0,0-2.25.52,8.54,8.54,0,0,1-1.75,0,14.49,14.49,0,0,1-2.55-.06,20,20,0,0,0-3.47-.21c-1.23,0-2.4.22-3.62.29s-2.66,0-4,0a3.18,3.18,0,0,1-1.77-.26,2.55,2.55,0,0,0-1.21-.57,31.55,31.55,0,0,0-3.18-.55,5.9,5.9,0,0,0-3.22.62,10.12,10.12,0,0,1-4.78,1,41.2,41.2,0,0,0-6.48.06,6.79,6.79,0,0,1-3,0,4.63,4.63,0,0,1-1.54-.41,7.85,7.85,0,0,0-4.1-.74c-1.05,0-1.94-.28-3-.28a8.64,8.64,0,0,0-4.11.83c-.16.08-.63.32-1.1.51A19.64,19.64,0,0,1,317,5.19a28.61,28.61,0,0,0-4.48-1.06c-.67-.1-1.31,0-2-.18a7.55,7.55,0,0,0-1.79-.33c-4.27.06-8.52.85-12.77.83h-2.07c-2,0-3.88.37-5.85.42-3.1.09-6.14.74-9.23.84-2.05.06-3.95-.63-6-.85-1.81-.2-3.6-.74-5.4-1-1.56-.25-3.15-.34-4.71-.52a8.39,8.39,0,0,0-2.5,0c-3.37.58-6.5,2.58-9.86,3.18-1.86.33-3.86,1.27-5.71,1.34s-3.6,0-5.4,0A41.81,41.81,0,0,1,233.69,7c-1.35-.17-2.67-.06-4-.34-.74-.14-1.49-.34-2.24-.44a48.5,48.5,0,0,0-6.15-.08,41.13,41.13,0,0,0-6.66.07,30.72,30.72,0,0,1-4.55.79c-.94,0-1.87-.08-2.81-.06-2.56.07-5.09.43-7.66.43-1.77,0-3.56.1-5.33,0s-3.31-.77-5-.4c-2.24.49-4.32,2.91-6.72,2.37A22,22,0,0,0,178.52,9a18.63,18.63,0,0,1-2.22-.35,7.54,7.54,0,0,0-2.79.24c-1.86.32-3.75-.11-5.61.08-1.32.13-2.58,1.2-3.87,1.66a14.29,14.29,0,0,1-4.95.82,30.29,30.29,0,0,1-5.13-.21c-3.56-.65-7.16.79-10.71-.19-.6-.16-1.05-.71-1.65-.86-1.22-.31-2.46.13-3.71-.37a12.14,12.14,0,0,0-4.65-1.26h-3c-2.72,0-5.33.42-8,.41a22.67,22.67,0,0,1-4,0c-.53-.11-1-.58-1.44-.75A5.56,5.56,0,0,1,113.9,6.5c-1.81-2.11-5.21-1.11-7.41-.72a62.26,62.26,0,0,0-7,1.46,10.19,10.19,0,0,1-2.49.5,16.24,16.24,0,0,0-2.73.75c-.67.16-1.35-.09-2,0-.3.07-.54.27-.83.35-1.5.39-3.1-.05-4.62.18a34.84,34.84,0,0,1-5.3.32c-1.55,0-3,.35-4.56.43-1.77.1-3.57,0-5.35,0-1.3,0-2.5.45-3.79.43-2.44,0-4.76.41-7.19.4-1.8,0-3.62.09-5.42,0a13.61,13.61,0,0,1-3.73-.93c-.76-.25-1.66-.9-2.36-1.06a6.4,6.4,0,0,0-1.58-.09,22.39,22.39,0,0,1-4.7-.32,16.8,16.8,0,0,0-3.25-.08,17.33,17.33,0,0,1-2-.43,6.31,6.31,0,0,0-2.39.38,7.16,7.16,0,0,1-3.28-.34c-.65-.14-1.3.06-1.93-.13-.22-.06-.41-.27-.72-.33a4.84,4.84,0,0,0-.76,0H24.55a14.78,14.78,0,0,0-4.05.93,21.21,21.21,0,0,1-5.68,1.13c-1.42,0-2.84,0-4.27,0a4.33,4.33,0,0,0-3.09,1.54c-.84.84-.57,2.14-.57,3.39,1.2,1.65,1.58,2.31,2.65,3,1.4,1,3,1.53,4.31,2.7s2.6,2.62,4,3.73a11.81,11.81,0,0,0,3.71,2.05,16,16,0,0,0,4,0c1.12,0,2.11.45,3.24.43a6.39,6.39,0,0,1,3.1.49,3.85,3.85,0,0,0,2,.73,38.86,38.86,0,0,0,4.31-.31,16.73,16.73,0,0,1,4.79.22c2.45.35,4.93.17,7.4.5,3.07.42,6.06.28,9.13.43s5.92,1.08,8.91,1.34c5,.42,10-.18,15,.42s9.73,2,14.65,2.68c4.36.58,8.8.56,13.18.9,2.93.23,5.76.38,8.7.33a144.3,144.3,0,0,0,19.37-1.17,32.28,32.28,0,0,1,9-.64c2.18.26,4.35.59,6.53.85,5.49.63,11,1.13,16.46,1.85,4.05.53,8,1.46,12.08,2,1.92.29,3.85.46,5.76.81s3.53.87,5.29,1.1c6.62.87,12.52-1.76,18.66-4.39,4.59-2,9.48-2.8,14.22-4a142.89,142.89,0,0,1,20.9-3.22c8.47-.86,16.89-1.91,25.3-3.35a160.09,160.09,0,0,1,20-2.5,36.9,36.9,0,0,0,6.8-.45c1-.23,2.05-.55,3.09-.76s2-.3,2.93-.48a10.35,10.35,0,0,1,1.32-.1,2.89,2.89,0,0,0,.3,1.19c.33.4,1.13.44,1.54.52a15.62,15.62,0,0,0,1.62.35c1.55.16,3-.12,4.57.3a73.62,73.62,0,0,0,14.77,2.39c4.18.21,8.38.23,12.57.29,4.37.07,8.73.78,13.1,1.06,5.47.34,11-.51,16.5-.72A115.33,115.33,0,0,1,393,26.18c4.45.62,8.92,1.08,13.38,1.66a64.53,64.53,0,0,0,8.44.64c4.61,0,9.19-.58,13.8-.61,2.6,0,5.2.06,7.8,0,3.86,0,7.7-.37,11.56-.32a34.38,34.38,0,0,1,6.38.81,27.63,27.63,0,0,0,9-.23,39.09,39.09,0,0,0,5.78-.93,67.9,67.9,0,0,0,12-5.13c.69-.35,1.77-.67,2.46-1A7.8,7.8,0,0,0,485,19.92c.73-.66,1.32-1.45,2-2.15a13.9,13.9,0,0,0,2.32-3.26A6.63,6.63,0,0,0,489.55,9.59Z"/><path class="cls-3" d="M491.6,187.73c-1.06-3.5-7.82-4.7-9.24-7.81-.56-1.22-3.41-4.92-4.16-6-.62-.9,2.49-1.4,1.66-2-1.47-1.07-.38.16-2.08-.19a63.29,63.29,0,0,0-13.58-1.24,78,78,0,0,1-15.07-1.39,67.15,67.15,0,0,0-17-.71c-6.48.5-13.06.71-19.52,1.56a22.7,22.7,0,0,1-7.88.14,33.85,33.85,0,0,0-10.86-.3,59.26,59.26,0,0,1-8.07.7c-5.55,0-11.19.42-16.73.06-5.72-.38-11.35-2.12-17.13-1.65-5,.42-9.92,2.13-15,2.19-4.56.06-9.08-.66-13.63-.6-2.28,0-4.46-.4-6.69-.56a15.51,15.51,0,0,0-6.34.79c-1.25-.16-2.5-.34-3.76-.56-4.87-.87-9.44-1.95-14.39-1.92-5.55,0-11.14-.27-16.68.4-5.72.7-11.9,1.65-17.54-.09a38.11,38.11,0,0,0-9.3-1.92c-3.53-.16-7.07,0-10.59,0-10.49,0-20.95.48-31.43.56a57.86,57.86,0,0,1-11.38-.8c-3.11-.6-6.17-1.5-9.3-1.86-2.72-.3-5.49,0-8.22-.06-2.21,0-4.38-.29-6.58-.44-4.18-.28-8.31,0-12.46-.66A50.77,50.77,0,0,1,150,161.6a48,48,0,0,0-8.73-2.3,94,94,0,0,0-11.72-.92c-5.07-.09-10.18,1.41-15.15,2.47-2.79.59-5.6,1.49-8.42,1.87a65.61,65.61,0,0,1-8.53.08,129.07,129.07,0,0,1-15-.82c-5.43-.63-11.68-1-17,.85-2.78,1-5.93.53-8.81.52s-5.91-.12-8.3,2.05c-.88.8-1.21,2-2.25,2.71a15.83,15.83,0,0,1-6.26,2.3c-2.66.58-4.9,2.19-7.44,3.16-2.26.87-4.29,2.8-6.72,2.86-1.67,0-3.33,0-5,0a12.07,12.07,0,0,0-4.2.41,33.83,33.83,0,0,0-4.22,1.7,25.42,25.42,0,0,1-2.76,1.28,5.44,5.44,0,0,1-1.43.41c-.66.08-1,.62-1.67.66,0,.15-.83.61-.83.76a4,4,0,0,1-.24,1.25c-.11.47,0,.92-.15,1.39a9.33,9.33,0,0,1-.79,2.43c-.51,1-.37,1.15.47,1.64.57.33.88,1,1.4,1.38s1.45.25,2.17.44,1.16.93,1.75,1.15a12.12,12.12,0,0,0,4.41.82,5.48,5.48,0,0,1,3,.79,6,6,0,0,0,3.59.34,8.71,8.71,0,0,1,2.06-.36h1.84c2.19,0,4.34-.41,6.53-.39h2.68c1.81,0,3.9-.37,5.67.06,2.26.56,4.43,1.65,6.75,1.85,2.76.24,5.58,0,8.35,0,3.18,0,6.37,0,9.55,0a67.47,67.47,0,0,0,8.27-.79,22.79,22.79,0,0,0,3.72-.78,27.11,27.11,0,0,1,4.11-.58,17.31,17.31,0,0,1,4.66,0,28.91,28.91,0,0,0,8.46-.17c2.92-.53,5.52-1.35,8.34,0,1.26.6,2.57,1.1,3.85,1.66a6.59,6.59,0,0,0,2.79.28,24.53,24.53,0,0,0,3,0,16.91,16.91,0,0,0,1.94-.53,8.37,8.37,0,0,1,3.19-.17c.92.12,1.8.48,2.71.66a14.22,14.22,0,0,0,2.26,0c1.4,0,2.66.77,4,.82,1.55.06,3,.35,4.62.37a13.15,13.15,0,0,0,2.86-.28c1.35-.27,2.58-1,3.93-1.22,2.7-.44,5.64-.08,8.37-.05,1.31,0,2.56-.35,3.86-.42,1.86-.09,3.72.32,5.57-.16,2.61-.67,4.79-3.17,7.5-3.32,1.86-.1,3.24.92,5,1.35s3.35.13,5,.29a37.38,37.38,0,0,1,4.06.81,15.47,15.47,0,0,0,5.79-.25c1.57-.24,3.08.42,4.64.53a32.81,32.81,0,0,0,4.2.41c2.12-.09,4.19-.6,6.3-.79a6.24,6.24,0,0,1,3.92.95c.47.3.75.75,1.31.94a10.18,10.18,0,0,0,2.28.07c3.31.35,6.62,1.23,9.95,1.5,2.75.22,5.43.4,8.21.42a33.93,33.93,0,0,0,7.24-.59c1-.21,2.07-.4,3.12-.53a5.6,5.6,0,0,1,2.38.34c1.54.42,3,.2,4.51.47a36.81,36.81,0,0,0,5.84.29c1.64,0,3.25.45,4.9.42a24,24,0,0,1,3.07.36,9.67,9.67,0,0,0,3.71-.77,7.75,7.75,0,0,1,2.44-.73l0,.23a11.44,11.44,0,0,0,2.2,0h8.63c1.28,0,2.56,0,3.83,0s2.42-.5,3.66-.59a37.33,37.33,0,0,0,4.22-.25,29.3,29.3,0,0,1,5.21-.25,29.3,29.3,0,0,0,5.1-1,16.5,16.5,0,0,1,3-.09c1.27,0,1.81-1,3-1.15a8.52,8.52,0,0,1,2,0,10.52,10.52,0,0,1,1.53.43c.52.2,1,.62,1.47.83.62.29,1.28.89,1.83,1.13,1.05.45,2.65.1,3.78.11,2,0,3.76-.88,5.74-1.13a14.3,14.3,0,0,1,5,.45c1.26.31,2.53.12,3.81.4a19.19,19.19,0,0,0,4.15.28c.72,0,1.45,0,2.17,0a11.11,11.11,0,0,1,2.18.59,7,7,0,0,0,1.83,0c1.22-.12,1.94-1.25,3.12-1.58,1.63-.47,3.41-.09,5.09-.51,1.49-.37,2.81.09,4.3.3a39.37,39.37,0,0,0,7.12.16c1.39-.07,2.73-.56,4.12-.6a10.73,10.73,0,0,0,4.07-.74c2.92-1.15,6.06-1.08,9.12-.92,1.7.09,3.4.95,5.1,1.29,1.24.26,2.49.56,3.71.81s2.26-.07,3.36.17a20.12,20.12,0,0,0,4.78.51c3.69,0,7.34.55,11,.55a45.82,45.82,0,0,0,6.31-.13,19.15,19.15,0,0,1,6.49-.3,14.07,14.07,0,0,0,5.78.15c1.86-.35,3.72-.21,5.59-.55a7.18,7.18,0,0,1,5.41.67c2.31,1.26,4.36,1.26,6.84,1.25,1.84,0,3.67,0,5.5,0,1.53,0,3.33-.81,4.77-.56a16.39,16.39,0,0,1,1.87.77,10.08,10.08,0,0,0,3.13.35c2.35,0,4.51.26,6.84.48,3.06.28,6-.52,9-.51a20.42,20.42,0,0,0,9.56-2.22,16.55,16.55,0,0,1,6.79-1.62c1.34-.06,3.27-.39,4.59,0,1,.27,1.72,1.71,2.91,1.08C493.27,192.46,492.16,189.57,491.6,187.73Z"/><path class="cls-4" d="M482.93,178.13a30.74,30.74,0,0,1,0-4.07c0-1.59-.51-2.29-.89-3.76a13.13,13.13,0,0,1-.1-3.14,26.06,26.06,0,0,0-.5-5.48c-.46-2.34-.29-4.49-.55-6.82-.11-1-.42-2-.47-3-.12-2.26.18-4.51-.09-6.76a53,53,0,0,1-.39-6.33c0-2,0-4,0-6.06,0-3.28.9-6.38,1-9.63.08-1.71-.07-3.45,0-5.17.05-3.54,1.05-7,1.41-10.55.27-2.58-.32-4.73-.4-7.25s-.1-5.15-.38-7.75c-.16-1.46,0-3-.15-4.46a61.9,61.9,0,0,1-.46-6.25,40.6,40.6,0,0,1,.11-5.52c.3-2.15.14-4.39.5-6.51a32,32,0,0,0,.39-5.37,31.11,31.11,0,0,0-.91-5.85c-.56-3.29-.09-7.29-.09-10.65,0-4.64.39-9.68-.39-14.13a47.33,47.33,0,0,1-.64-4.76c-.16-2.4.89-3.74,1.44-5.92.51-2,1.05-3.46-.29-5a6.62,6.62,0,0,0-3.1-2.27,4.79,4.79,0,0,0-2.64.48,8.84,8.84,0,0,1-2.47.14,9.1,9.1,0,0,0-3.34.45,19.18,19.18,0,0,1-4.65,1.39c-2.18.12-4.41,0-6.6,0-6.3,0-12.55,0-18.73,1.2-1.38.26-2.56,1.16-4,1.21a15.79,15.79,0,0,1-3.5-.62,10.16,10.16,0,0,1-3.17-1.18c-1-.59-1.33-1.17-2.54-1.22-2.89-.13-5.8,0-8.69,0-3.54,0-6.95.6-10.49.6a23,23,0,0,1-3.52,0c-.69-.11-1.05-.48-1.71-.64-1-.24-2.07.18-3.06,0s-2.18-.38-3.21-.68-1.89-1-3-1.08a17.24,17.24,0,0,0-2.49,0c-1.21.11-2.18.65-3.46.63-1.85,0-3.7,0-5.55,0s-3.68.62-5.7.6c-1.7,0-3,.76-4.74.61a34.65,34.65,0,0,0-3.6-.61,20.7,20.7,0,0,0-3.87.63c-3.42.59-7.34,0-10.8,0a22,22,0,0,1-5.41-.9,19.17,19.17,0,0,0-4.74-.3,28.88,28.88,0,0,1-6.38-.47c-.88-.19-1.73,0-2.61-.12s-1.17-.57-2-.64c-1.46-.13-3.21,1.19-4.48,1.84a10.16,10.16,0,0,1-4.51,1.19,7.43,7.43,0,0,1-1.7-.06c-.34-.07-.38-.46-.76-.58a10.63,10.63,0,0,0-2.52,0,13.08,13.08,0,0,0-2.5,0,7.41,7.41,0,0,0-.83.26c0-.27,0-.54-.06-.8-1.4-.59-4.45-.09-5.59-.09-3.18,0-6.36,0-9.55,0-3.94,0-7.89,0-11.83,0-5.42.05-11.11-1.86-16.5-.88-4.56.83-8.95,2.88-13.63,3.46-3.84.48-7.53-.87-11.38-.82-4.56.07-9.12,0-13.68,0a162.53,162.53,0,0,0-17.23.71,9.21,9.21,0,0,0-3.48.63c-2.84,1.5-2.31,5.31-2.61,8.63-2.71,1-3.78,4.33-4.44,7.29-2.32-3.25-.14-13.46-3.56-13.79-2.7-.27-6.2,1.61-8.85,2.23-5.94,1.39-13.44,3.16-19.37.7-6.15-2.55-12.72-2.46-19.21-2.86-3.19-.19-6.11-1.19-9.32-.66-4.66.77-9.38,4.08-14,2-2.36-1.09-4.21-3.16-6.7-4.07-3-1.11-7.11-.94-10.24-.83-8.2.29-16.21,2.7-24.41,2.85-3.64.08-7.44-.49-11,.73a43.22,43.22,0,0,0-7.3,3.71c-2.24,1.28-4.77,2.66-7.32,2.57-3.3-.11-7.14-2.49-10.29-3.49-4.1-1.3-7.85-2.31-12.11-1.54-3.87.7-7.7.5-11.54,1.36-2.46.55-4.23-1.95-6.71-1.92l-4.21-.38c-.06.93-.66,1.42-.82,2.18A15.15,15.15,0,0,0,17,27.68c0,2.27,0,4.55,0,6.82a20.42,20.42,0,0,1,0,3.22c-.15.74-.67,1-.82,1.72-.48,2.49.45,4.38,1.17,6.41.63,1.76.27,3.91.34,5.9.08,2.39.74,4.32.74,6.81,0,4.25-2.12,7.49-1.51,11.81.31,2.21,1.43,4.07,1.53,6.35.13,2.84,0,5.75,0,8.59a32.38,32.38,0,0,1-.34,7.31A31.89,31.89,0,0,0,17,100.54a19.62,19.62,0,0,0,1.08,6.61,19,19,0,0,1,1.13,7c0,2.74-.79,4-1.31,6.31s-.17,5.15-.17,7.56a44.72,44.72,0,0,0,0,5.9c.33,2.41,1.47,4.31,1.52,6.82,0,2.11,0,4.23,0,6.35,0,2.47-.76,4.38-.74,6.81,0,3.78.81,9.52-.72,12.72s-3.49,9.16-1.88,12.74,6.82,2.7,9.6,2.69c2,0,3.36.68,5.22.95,2.26.33,4.76,0,7.05,0,4.52,0,11.08,1.4,15.31-.86,4.88-2.6,9.21-2.77,14.43-2.77a27.55,27.55,0,0,1,6.63.45c2.1.53,4.59-.19,6.66.42,1.49.45,3.4,1.84,5.16.91s2-4.78,4.42-5.37c1.82-.46,5,2.77,6.64,4a9.05,9.05,0,0,0,5.87,2.29c1.15,0,1.88-.59,2.94-.85.88-.21,2.09.35,2.89-.11s1.64-2,2.26-2.76c1.45-1.75,2.22-4.24,3.79-5.87,1.83,3.3-1.72,7.1,2.51,8.91,5,2.14,10.94.53,16-.43,4.4-.84,8.71-2.65,13.08-3.41,2.74-.48,5.93,0,8.68,0,4.66,0,9,.61,13.61.88a23.22,23.22,0,0,1,6,.88c1.85.59,4.42,1,6.17,1.88,3.52,1.77,7.8,1.83,11.82,1.81a44.77,44.77,0,0,1,8,.19c6.18,1.11,12.37.69,18.62.71a151.58,151.58,0,0,0,17.18-.71,38,38,0,0,1,11.47.51,27,27,0,0,0,15.7-1.86,6.33,6.33,0,0,1,3.24-.67c1.86,0,2.31-.23,3.75-1.89,1.7-2,2.24-2.54,4.36-2.64,1.85-.08,3.72,0,5.58,0,3,0,6.29-.65,9,.91a20.15,20.15,0,0,0,2.79,1.73c1.5.48,3.86.25,5.45.13a115.4,115.4,0,0,0,11.7-1.47,10,10,0,0,0,5-2c1.6-.4,3.31.38,5,0a16.61,16.61,0,0,1,10,1c1.22.46,2.2-1.08,3.49-1,1.65.09,3.26-.13,4.92.07,1.17.14,2.34.41,3.5.66a13.12,13.12,0,0,0,5.11,0,35.4,35.4,0,0,1,6.09-.18c2.43.07,4.76,1.25,7.15,1.82,5.14,1.22,9.77,2.81,15,2.29a80.54,80.54,0,0,0,11-1.69,15.72,15.72,0,0,1,3.89-.68c1.75,0,3.27.89,5,1.19a27.81,27.81,0,0,0,5.08.1c5.1,0,9.95,1.4,15,1.82,3.79.31,7.5-1.14,11.3-.5,4.13.71,8.65,1.12,12.55,2.93a15.54,15.54,0,0,0,6.19,1.18,55.94,55.94,0,0,0,7.55-.58c2.07-.22,4.19.27,6.23-.17,1.22-.26,2-1.12,3.15-1.56a10.84,10.84,0,0,1,1.85-.26,31.47,31.47,0,0,1,6.5-.46h8.58c1.51,0,3.46.45,4.88-.09C483.6,180.33,483.13,179.47,482.93,178.13Z"/><g class="cls-5"><path class="cls-6" d="M165.27,81.07c-5.51,0-10.16-1-13.81-3a21,21,0,0,1-8.78-9.1,28.37,28.37,0,0,1-3-13.13A27.55,27.55,0,0,1,143,42.23a21.91,21.91,0,0,1,9.87-9.2c3.37-1.61,7.6-2.38,13-2.38,5.05,0,8.82.48,11.54,1.47a17.3,17.3,0,0,1,7.26,5,20.92,20.92,0,0,1,4.16,8.08,4,4,0,0,1-.46,3.21,4.24,4.24,0,0,1-1,1.06A4,4,0,0,1,189.48,53V70.46a4,4,0,0,1-1.75,3.31,43.56,43.56,0,0,1-11,5.72A37.74,37.74,0,0,1,165.27,81.07Zm.26-33.41a4.3,4.3,0,0,0-3.61,1.49c-1,1.15-1.52,3.48-1.52,6.57,0,4.48.95,6.23,1.52,6.87a1.62,1.62,0,0,0,.18.2,3.86,3.86,0,0,1-.21-1.28V53a4,4,0,0,1,4-4h2.69a2.2,2.2,0,0,0-.71-.78A4.24,4.24,0,0,0,165.53,47.66Z"/><path class="cls-7" d="M165.81,34.65q6.8,0,10.17,1.23a13.11,13.11,0,0,1,5.59,3.82,16.88,16.88,0,0,1,3.35,6.56l-12.23,2.18a6.6,6.6,0,0,0-2.56-3.55,8,8,0,0,0-4.6-1.23,8.3,8.3,0,0,0-6.65,2.89q-2.48,2.89-2.48,9.17,0,6.66,2.51,9.51a8.81,8.81,0,0,0,7,2.85,13.31,13.31,0,0,0,4.06-.61,22,22,0,0,0,4.42-2.1V61.51h-8.48V53h19.59V70.46a39.93,39.93,0,0,1-9.95,5.22,33.86,33.86,0,0,1-10.26,1.39q-7.29,0-11.9-2.49a17.08,17.08,0,0,1-7.14-7.42,24.33,24.33,0,0,1-2.53-11.3,23.61,23.61,0,0,1,2.77-11.69,18,18,0,0,1,8.12-7.54q4.16-2,11.22-2m0-8c-6,0-10.76.9-14.67,2.76a25.88,25.88,0,0,0-11.66,10.87,31.58,31.58,0,0,0-3.78,15.58,32.34,32.34,0,0,0,3.42,15,24.92,24.92,0,0,0,10.44,10.79c4.24,2.29,9.52,3.46,15.71,3.46A41.9,41.9,0,0,0,178,83.3a47.45,47.45,0,0,0,12-6.23,8,8,0,0,0,3.5-6.61V53a7.94,7.94,0,0,0-1-4,8,8,0,0,0,.19-4.92,25,25,0,0,0-5-9.61,21.23,21.23,0,0,0-8.92-6.12c-3.16-1.15-7.39-1.71-12.91-1.71Z"/><path class="cls-6" d="M212.16,81c-5.7,0-10.46-1.53-14.13-4.55a18.52,18.52,0,0,1-6.88-14.9A18.76,18.76,0,0,1,197,47.5c3.81-3.66,8.91-5.52,15.16-5.52,7.12,0,12.67,2.2,16.49,6.53a18.93,18.93,0,0,1,4.66,12.91,18.84,18.84,0,0,1-5.77,14.12C223.72,79.19,218.56,81,212.16,81Zm.14-23.23a1.21,1.21,0,0,0-1.06.5c-.16.19-.68,1-.68,3.25s.51,3.11.67,3.3a1.1,1.1,0,0,0,1,.48,1.07,1.07,0,0,0,1-.45c.07-.08.64-.83.64-3.44,0-2.22-.5-3-.65-3.17A1,1,0,0,0,212.3,57.81Z"/><path class="cls-7" d="M212.13,46q8.93,0,13.49,5.18a15,15,0,0,1,3.66,10.26,14.91,14.91,0,0,1-4.54,11.24Q220.2,77,212.16,77,205,77,200.58,73.4a14.6,14.6,0,0,1-5.43-11.81,14.84,14.84,0,0,1,4.59-11.2Q204.33,46,212.13,46m.09,23.36a5,5,0,0,0,4-1.87q1.58-1.87,1.58-6,0-3.86-1.59-5.75a5,5,0,0,0-3.95-1.89,5.15,5.15,0,0,0-4.11,1.92q-1.63,1.92-1.63,5.83t1.61,5.88a5.08,5.08,0,0,0,4.05,1.9M212.13,38c-7.31,0-13.35,2.23-17.94,6.64a22.92,22.92,0,0,0-7,17,22.61,22.61,0,0,0,8.32,18c4.43,3.64,10,5.48,16.69,5.48,7.47,0,13.57-2.23,18.13-6.62a23,23,0,0,0,7-17,22.87,22.87,0,0,0-5.65-15.55C227,40.63,220.45,38,212.13,38Z"/><path class="cls-6" d="M251.6,81c-3.54,0-6.21-.52-8.17-1.57a10.59,10.59,0,0,1-4.74-5.24c-.89-2-1.3-4.83-1.3-8.79V59h-.2a4,4,0,0,1-4-4V46.65a4,4,0,0,1,4-4h.2V41.19a4,4,0,0,1,2.18-3.56L251,31.79a4,4,0,0,1,3.91.14,4,4,0,0,1,1.92,3.42v7.3h2.26a4,4,0,0,1,4,4V55a4,4,0,0,1-4,4h-2.26v5.65l.62-.2a4.25,4.25,0,0,1,1.22-.19,4,4,0,0,1,4,3.58l.84,7.86A4,4,0,0,1,260.35,80,41,41,0,0,1,251.6,81Z"/><path class="cls-7" d="M252.81,35.35v11.3h6.26V55h-6.26V65.52a5.72,5.72,0,0,0,.36,2.51,2.09,2.09,0,0,0,2,1,12.29,12.29,0,0,0,3.52-.73l.84,7.86a36.73,36.73,0,0,1-7.89.93A13.86,13.86,0,0,1,245.33,76a6.71,6.71,0,0,1-3-3.31,19.57,19.57,0,0,1-1-7.2V55h-4.2V46.65h4.2V41.19l11.42-5.84m0-8a8,8,0,0,0-3.65.88l-11.42,5.84a8,8,0,0,0-4.17,5.45,8,8,0,0,0-4.38,7.13V55a8,8,0,0,0,4.2,7v3.41c0,4.53.52,7.83,1.63,10.39A14.68,14.68,0,0,0,241.53,83c2.59,1.41,5.79,2.06,10.07,2.06a44.88,44.88,0,0,0,9.6-1.11,8,8,0,0,0,6.25-8.66l-.84-7.87a8,8,0,0,0-3.28-5.64A8,8,0,0,0,267.07,55V46.65a8,8,0,0,0-6.26-7.81V35.35a8,8,0,0,0-8-8Z"/><path class="cls-6" d="M292.63,80.37a4,4,0,0,1-4-4V46.65a4.08,4.08,0,0,1,.41-1.78,4,4,0,0,1-.41-1.77V35.35a4,4,0,0,1,4-4H304a4,4,0,0,1,4,4V43.1a3.91,3.91,0,0,1-.42,1.77,4,4,0,0,1,.42,1.78V76.37a4,4,0,0,1-4,4Z"/><path class="cls-7" d="M304,35.35V43.1H292.63V35.35H304m0,11.3V76.37H292.63V46.65H304m0-19.3H292.63a8,8,0,0,0-8,8V43.1a7.94,7.94,0,0,0,.2,1.77,8.09,8.09,0,0,0-.2,1.78V76.37a8,8,0,0,0,8,8H304a8,8,0,0,0,8-8V46.65a8.09,8.09,0,0,0-.2-1.78,7.94,7.94,0,0,0,.2-1.77V35.35a8,8,0,0,0-8-8Z"/><path class="cls-6" d="M328.13,81c-3.55,0-6.22-.52-8.17-1.57a10.61,10.61,0,0,1-4.75-5.24c-.88-2-1.3-4.83-1.3-8.79V59h-.19a4,4,0,0,1-4-4V46.65a4,4,0,0,1,4-4h.19V41.19a4,4,0,0,1,2.18-3.56l11.42-5.84a3.91,3.91,0,0,1,1.82-.44,4,4,0,0,1,4,4v7.3h2.27a4,4,0,0,1,4,4V55a4,4,0,0,1-4,4h-2.27v5.65l.63-.2a4.25,4.25,0,0,1,1.22-.19,4,4,0,0,1,4,3.58l.83,7.86A4,4,0,0,1,336.87,80,40.79,40.79,0,0,1,328.13,81Z"/><path class="cls-7" d="M329.33,35.35v11.3h6.27V55h-6.27V65.52a5.72,5.72,0,0,0,.36,2.51,2.1,2.1,0,0,0,2,1,12.34,12.34,0,0,0,3.53-.73l.84,7.86a36.87,36.87,0,0,1-7.89.93A13.81,13.81,0,0,1,321.86,76a6.66,6.66,0,0,1-3-3.31q-1-2.22-1-7.2V55h-4.19V46.65h4.19V41.19l11.42-5.84m0-8a8,8,0,0,0-3.65.88l-11.41,5.84a8,8,0,0,0-4.18,5.45,8,8,0,0,0-4.37,7.13V55a8,8,0,0,0,4.19,7v3.41c0,4.53.52,7.83,1.63,10.39A14.68,14.68,0,0,0,318.05,83c2.59,1.41,5.79,2.06,10.08,2.06a45,45,0,0,0,9.6-1.11A8,8,0,0,0,344,75.27l-.84-7.87a8,8,0,0,0-3.28-5.64A8,8,0,0,0,343.6,55V46.65a8,8,0,0,0-6.27-7.81V35.35a8,8,0,0,0-8-8Z"/><rect class="cls-6" x="341.35" y="60.95" width="20.17" height="19.42" rx="4"/><path class="cls-7" d="M357.52,65V76.37H345.35V65h12.17m0-8H345.35a8,8,0,0,0-8,8V76.37a8,8,0,0,0,8,8h12.17a8,8,0,0,0,8-8V65a8,8,0,0,0-8-8Z"/><path class="cls-6" d="M82.9,150.37a4,4,0,0,1-4-4V99.12a4,4,0,0,1,4-4H97.49a4,4,0,0,1,4,4v31.61h18.79a4,4,0,0,1,4,4v11.64a4,4,0,0,1-4,4Z"/><path class="cls-7" d="M97.49,99.12v35.61h22.79v11.64H82.9V99.12H97.49m0-8H82.9a8,8,0,0,0-8,8v47.25a8,8,0,0,0,8,8h37.38a8,8,0,0,0,8-8V134.73a8,8,0,0,0-8-8H105.49V99.12a8,8,0,0,0-8-8Z"/><path class="cls-6" d="M149.08,151.14c-5.2,0-9.28-.76-12.47-2.33a19.69,19.69,0,0,1-8.1-7.59,22.29,22.29,0,0,1-3.16-11.9c0-6.45,2.14-11.79,6.37-15.87s9.89-6.08,17-6.08c5.6,0,10,.87,13.45,2.68a19,19,0,0,1,8.17,8.12A27.6,27.6,0,0,1,173,131v1.48a4,4,0,0,1-1.3,3,2,2,0,0,1,.11.2,4,4,0,0,1-.08,3.84,22.57,22.57,0,0,1-8.74,8.93C159.57,150.25,155,151.14,149.08,151.14Z"/><path class="cls-7" d="M148.69,111.37q7.35,0,11.6,2.22a15,15,0,0,1,6.48,6.45q2.22,4.21,2.22,11v1.48H142.7a8.42,8.42,0,0,0,1.7,4.7,6.21,6.21,0,0,0,5,2.23,7.38,7.38,0,0,0,3.67-1,8.74,8.74,0,0,0,2.29-2.16l12.92,1.19a18.51,18.51,0,0,1-7.15,7.4q-4.2,2.23-12,2.24-6.81,0-10.7-1.92a15.68,15.68,0,0,1-6.46-6.09,18.35,18.35,0,0,1-2.57-9.81q0-8,5.14-13t14.2-5m-6,14.86h12.92q-.39-3.81-2.05-5.45a6.43,6.43,0,0,0-9.36.84,9.06,9.06,0,0,0-1.51,4.61m6-22.86c-8.15,0-14.8,2.42-19.75,7.21a25.36,25.36,0,0,0-7.59,18.74,26.3,26.3,0,0,0,3.75,14,23.58,23.58,0,0,0,9.75,9.08c3.75,1.84,8.4,2.74,14.23,2.74,6.61,0,11.78-1,15.79-3.18a26.52,26.52,0,0,0,10.32-10.47,8,8,0,0,0,.94-5.37,7.94,7.94,0,0,0,.86-3.61V131a31.51,31.51,0,0,0-3.14-14.72A22.92,22.92,0,0,0,164,106.5c-4-2.11-9-3.13-15.31-3.13Z"/><path class="cls-6" d="M194.41,151.14c-4,0-7-.57-9.13-1.74a11.6,11.6,0,0,1-5.19-5.74c-1-2.26-1.45-5.4-1.45-9.88v-8h-.83a4,4,0,0,1-4-4v-9.61a4,4,0,0,1,4-4h.83v-2.28a4,4,0,0,1,2.18-3.56L194,95.56a4,4,0,0,1,5.82,3.56v9H203a4,4,0,0,1,4,4v9.61a4,4,0,0,1-4,4h-3.22v7.89c.4-.09.9-.23,1.52-.43a4.2,4.2,0,0,1,1.22-.19,4,4,0,0,1,4,3.58l1,9.05a4,4,0,0,1-3.12,4.33A46.76,46.76,0,0,1,194.41,151.14Z"/><path class="cls-7" d="M195.79,99.12v13H203v9.61h-7.22v12.12a6.55,6.55,0,0,0,.42,2.9,2.42,2.42,0,0,0,2.26,1.09,14.39,14.39,0,0,0,4.06-.84l1,9.06a42.56,42.56,0,0,1-9.08,1.06q-4.91,0-7.22-1.26a7.64,7.64,0,0,1-3.44-3.81c-.74-1.7-1.11-4.47-1.11-8.29v-12h-4.83v-9.61h4.83v-6.28l13.15-6.74m0-8a8,8,0,0,0-3.65.88L179,98.74a8,8,0,0,0-4.28,6,8,8,0,0,0-4.91,7.38v9.61a8,8,0,0,0,4.83,7.34v4.69c0,5.05.57,8.69,1.78,11.48a15.66,15.66,0,0,0,7,7.66c2.8,1.51,6.3,2.22,11,2.22a50.75,50.75,0,0,0,10.79-1.25,8,8,0,0,0,6.25-8.66l-1-9.06a8,8,0,0,0-5.34-6.71,8,8,0,0,0,5.87-7.71v-9.61a8,8,0,0,0-7.22-8V99.12a8,8,0,0,0-8-8Z"/><path class="cls-6" d="M215.57,128.61A4,4,0,0,1,212,126.5L209,120.76a4,4,0,0,1,1.84-5.51l.32-.15a4,4,0,0,1-2.64-3.76v-13a4,4,0,0,1,4-4h14a4,4,0,0,1,4,4v10.79c0,4.81-1.08,8.77-3.23,11.76s-5.41,5.36-10.13,7.41A3.91,3.91,0,0,1,215.57,128.61Z"/><path class="cls-7" d="M226.52,98.32v10.79c0,4-.82,7.12-2.48,9.43s-4.48,4.33-8.47,6.07l-3.07-5.73a14.54,14.54,0,0,0,5.14-3.47,7.05,7.05,0,0,0,1.57-4.07H212.5v-13h14m0-8h-14a8,8,0,0,0-8,8v13a8,8,0,0,0,.95,3.77,7.48,7.48,0,0,0-.53,1.23,8,8,0,0,0,.53,6.3l3.06,5.74A8,8,0,0,0,218.76,132c5.39-2.35,9.25-5.21,11.78-8.75,2.64-3.69,4-8.43,4-14.09V98.32a8,8,0,0,0-8-8Z"/><path class="cls-6" d="M251.94,151.14c-7.14,0-12.23-1.1-15.59-3.35a16,16,0,0,1-6.78-10,4,4,0,0,1,3.53-4.87l3-.28a14.7,14.7,0,0,1-2.53-2.63,12.81,12.81,0,0,1-2.63-7.91,13,13,0,0,1,2.85-8.34A15.67,15.67,0,0,1,241,108.8a32.37,32.37,0,0,1,10.57-1.43,35.52,35.52,0,0,1,10.26,1.12,15.77,15.77,0,0,1,6.48,3.9,19.2,19.2,0,0,1,4.14,6.69,4,4,0,0,1-3.34,5.42l-.55.06a13.36,13.36,0,0,1,2.91,3,13.16,13.16,0,0,1,2.4,7.65,14.59,14.59,0,0,1-2.41,7.92,16.18,16.18,0,0,1-7.43,6C260.91,150.49,257,151.14,251.94,151.14Z"/><path class="cls-7" d="M251.55,111.37a32.2,32.2,0,0,1,9,.93,11.91,11.91,0,0,1,4.87,2.9,15.22,15.22,0,0,1,3.23,5.32l-12.44,1.23a4.18,4.18,0,0,0-1.61-2.42,6.54,6.54,0,0,0-3.73-1,5.25,5.25,0,0,0-3.24.79,2.34,2.34,0,0,0-1,1.91,2,2,0,0,0,1.29,1.9,21.07,21.07,0,0,0,5.61,1.16,38.28,38.28,0,0,1,9.73,2.06,10.71,10.71,0,0,1,4.88,3.76,9.27,9.27,0,0,1,1.69,5.38,10.55,10.55,0,0,1-1.78,5.76,12.13,12.13,0,0,1-5.64,4.46q-3.85,1.67-10.49,1.66-9.39,0-13.36-2.67a12,12,0,0,1-5.11-7.61l13-1.22a6.4,6.4,0,0,0,2.26,3.31,8,8,0,0,0,8-.12,2.52,2.52,0,0,0,1.12-2.09,2.38,2.38,0,0,0-1.48-2.19,26.32,26.32,0,0,0-5.64-1.35,59,59,0,0,1-9.49-2.21,10,10,0,0,1-4.48-3.43,8.91,8.91,0,0,1-1.82-5.5,9,9,0,0,1,2-5.83,11.65,11.65,0,0,1,5.41-3.65,28.61,28.61,0,0,1,9.25-1.21m0-8A35.91,35.91,0,0,0,239.66,105a19.56,19.56,0,0,0-9,6.19,17.47,17.47,0,0,0-1.67,19,7.93,7.93,0,0,0-2,1.93,8,8,0,0,0-1.32,6.47,20.11,20.11,0,0,0,8.45,12.47c4,2.71,9.86,4,17.82,4,5.57,0,10-.76,13.65-2.31a20,20,0,0,0,9.22-7.5,18.48,18.48,0,0,0,3-10.07,17.09,17.09,0,0,0-3-9.69,7.23,7.23,0,0,0,.6-.85,8,8,0,0,0,.66-7.07,23.16,23.16,0,0,0-5-8.08,19.67,19.67,0,0,0-8.11-4.88c-2.8-.9-6.45-1.32-11.48-1.32Z"/><path class="cls-6" d="M325.36,164.26c-7.89,0-13.34-1.3-16.67-4a14.12,14.12,0,0,1-5.35-11.4c0-.49,0-1.15.07-2a4,4,0,0,1,4-3.76h.19a21.33,21.33,0,0,1-1.47-1.85c-2.47-3.51-3.72-8.07-3.72-13.55,0-6.34,1.65-11.35,4.92-14.89a17,17,0,0,1,13.06-5.48,18.15,18.15,0,0,1,8.44,1.81l.21.1a4,4,0,0,1,2.79-1.14h12.28a4,4,0,0,1,4,4v32.33l0,1.43a18.26,18.26,0,0,1-1.75,7.92,16.88,16.88,0,0,1-4.77,6.15,18.32,18.32,0,0,1-7.36,3.38A40.14,40.14,0,0,1,325.36,164.26ZM325,124.88c-.62,0-.78.18-.92.36,0,0-.59.74-.59,3.5,0,2.09.48,2.74.58,2.85a1.29,1.29,0,0,0,1.16.43,1.33,1.33,0,0,0,1.13-.52c.15-.17.64-.87.64-2.92a4.91,4.91,0,0,0-.75-3.08A1.47,1.47,0,0,0,325,124.88Z"/><path class="cls-7" d="M320.39,111.37a12.41,12.41,0,0,1,11.44,5.83v-5.06h12.28v32.33l0,1.51a14.19,14.19,0,0,1-1.37,6.14,12.83,12.83,0,0,1-3.64,4.72,14.36,14.36,0,0,1-5.77,2.61,35.64,35.64,0,0,1-8,.81q-10.32,0-14.17-3.1a10.06,10.06,0,0,1-3.85-8.28c0-.43,0-1,.07-1.74l12.72,1.45a4.16,4.16,0,0,0,1.49,2.45,6.23,6.23,0,0,0,3.64,1,5.52,5.52,0,0,0,4.24-1.52q1.39-1.52,1.4-5.28v-5.19a13.63,13.63,0,0,1-3.87,3.32,13.76,13.76,0,0,1-6.54,1.61,13,13,0,0,1-11.09-6q-3-4.26-3-11.25,0-8,3.86-12.18a13.14,13.14,0,0,1,10.12-4.19M325.23,136a5.32,5.32,0,0,0,4.11-1.85,8.2,8.2,0,0,0,1.66-5.59,8.36,8.36,0,0,0-1.75-5.72,5.44,5.44,0,0,0-4.25-2,4.92,4.92,0,0,0-4,1.82q-1.5,1.81-1.5,6,0,3.7,1.58,5.49a5.25,5.25,0,0,0,4.16,1.79m-4.84-32.65a21.15,21.15,0,0,0-16,6.76c-4,4.31-6,10.23-6,17.61a28.32,28.32,0,0,0,3.21,13.87,8,8,0,0,0-2.2,5c-.05.89-.08,1.62-.08,2.22a18,18,0,0,0,6.84,14.52c4.13,3.31,10.22,4.86,19.18,4.86a44,44,0,0,0,9.8-1,22.29,22.29,0,0,0,8.95-4.15,20.8,20.8,0,0,0,5.9-7.58,22.19,22.19,0,0,0,2.13-9.54v-.17l0-1.43V112.14a8,8,0,0,0-8-8H331.83a8,8,0,0,0-3.09.62,23.7,23.7,0,0,0-8.35-1.39Z"/><path class="cls-6" d="M375,151.14c-6.42,0-11.77-1.72-15.88-5.1a20.74,20.74,0,0,1-7.71-16.69,21.05,21.05,0,0,1,6.51-15.79c4.28-4.11,10-6.19,17.05-6.19,8,0,14.26,2.46,18.53,7.32A22.63,22.63,0,0,1,392.23,145C388,149.07,382.18,151.14,375,151.14Zm.16-26.75a2,2,0,0,0-1.68.79c-.35.41-.92,1.49-.92,4.14,0,2.81.63,3.86.9,4.18a1.87,1.87,0,0,0,1.61.78,1.82,1.82,0,0,0,1.59-.74c.21-.24.88-1.28.88-4.35a6.85,6.85,0,0,0-.89-4A1.74,1.74,0,0,0,375.13,124.39Z"/><path class="cls-7" d="M374.94,111.37q10.28,0,15.53,6a18.66,18.66,0,0,1-1,24.77q-5.23,5-14.49,5-8.25,0-13.34-4.19a16.81,16.81,0,0,1-6.25-13.6,17.15,17.15,0,0,1,5.28-12.91q5.29-5.07,14.28-5.07m.1,26.91a5.8,5.8,0,0,0,4.65-2.16c1.22-1.44,1.82-3.75,1.82-6.93q0-4.44-1.83-6.62a5.74,5.74,0,0,0-4.55-2.18,5.93,5.93,0,0,0-4.73,2.21q-1.87,2.2-1.87,6.72c0,3.05.61,5.31,1.85,6.77a5.84,5.84,0,0,0,4.66,2.19m-.1-34.91c-8.1,0-14.77,2.46-19.82,7.3a25.28,25.28,0,0,0-7.74,18.68,24.89,24.89,0,0,0,9.14,19.76c4.87,4,11.07,6,18.45,6,8.28,0,15-2.45,20-7.28a26.64,26.64,0,0,0,1.47-35.81c-5.08-5.76-12.32-8.68-21.54-8.68Z"/><path class="cls-6" d="M406.48,150.37a4,4,0,0,1-4-4V134.8a4,4,0,0,1,2.1-3.52L402,110.37a3.87,3.87,0,0,1,0-.48V99.12a4,4,0,0,1,4-4h14a4,4,0,0,1,4,4v10.77a4,4,0,0,1,0,.49l-2.61,20.85a4,4,0,0,1,2.19,3.57v11.57a4,4,0,0,1-4,4Z"/><path class="cls-7" d="M420,99.12v10.77l-2.71,21.62h-8.66L406,109.89V99.12h14m-.45,35.68v11.57H406.48V134.8h13.08M420,91.12H406a8,8,0,0,0-8,8v10.77a8,8,0,0,0,.06,1l2.3,18.79a8,8,0,0,0-1.87,5.15v11.57a8,8,0,0,0,8,8h13.08a8,8,0,0,0,8-8V134.8a8,8,0,0,0-1.95-5.24L428,110.88a8.22,8.22,0,0,0,.06-1V99.12a8,8,0,0,0-8-8Z"/></g></g></svg>