<svg id="levelcomplete" xmlns="http://www.w3.org/2000/svg" viewBox="0 0 1920 1080"><defs><style>.cls-1{fill:#91fa00;}.cls-2{fill:#d2f78b;}.cls-3{fill:#666;}.cls-4{fill:gray;}.cls-5{fill:#b3b3b3;}.cls-6{fill:lime;}.cls-7{fill:none;}</style></defs><path class="cls-1" d="M420.1,643.63C404,648,393,664.76,376.49,667.3c-10.12,1.55-20.12-2.64-30.19-4.47-13.55-2.46-27.47-.62-41.12,1.22L234,673.68c-3.44.46-7.2,1.08-9.52,3.67-3.78,4.21-1.34,11.44,3.38,14.56s10.73,3.28,16.39,3.34l49,.53c8.15.08,17.35.62,22.73,6.75,9,10.29-.8,27.25-13.51,32.34s-27.17,3.55-40.32,7.4-25.73,17.69-20,30.13c4,8.56,15.09,11.8,24.3,9.74s16.95-8.09,24.34-14l41.33-32.85c9.84-7.81,20.55-16,33.1-16.69s26.38,10.08,23.67,22.35c-1.72,7.79-9,12.88-13.75,19.28s-5.75,17.72,1.73,20.52c3,1.13,6.45.34,9.26-1.21,8.72-4.83,12-15.44,17.1-24s16.58-15.86,24.51-9.83c3.15,2.39,4.72,6.3,5.77,10.11a59.78,59.78,0,0,1-4.07,42c-5.73,11.49-14.27,27.5-3.63,34.69,7.58,5.12,17.87-.89,23.53-8.08,13.56-17.21,20.53-44.45,42.24-47.35,6.1-.81,12.28.69,18.42.34,20.31-1.18,32.13-24.26,26.18-42.25-3.74-11.29-15.5-17.41-16.75-30-1.06-10.58,6.73-22.58,6.89-33.75.27-18.51-6.84-37.11-27.6-38.27-12.33-.69-21.89,8.24-33.46,10.44C450.28,646.53,435,639.59,420.1,643.63Z"/><path class="cls-2" d="M445.84,648c-4.17-.63-8.35-1.46-12.56-1.38-6.09.12-12,2.15-17.5,4.72a91.66,91.66,0,0,0-24.59,16.72c12.77-6.05,26.07-12.23,40.2-12.27,8.05,0,16,2,24.07,1.54,5.75-.31,22.75-3.31,22.46-11.14C466.83,647.74,457.33,649.77,445.84,648Z"/><path class="cls-2" d="M237.2,677.2q30.46-4.91,61.24-7.41c-6.79.24-13,3.81-19.6,5.33-4.5,1-9.16,1.12-13.77,1.46a111.09,111.09,0,0,0-27.14,5.27c-2,.67-6.21,3.63-7.62,1.11C228.26,679.31,235.15,677.53,237.2,677.2Z"/><path class="cls-2" d="M251.14,752.38c2.76-2.35,6.29-3.57,9.79-4.48a72.18,72.18,0,0,1,22.58-2.16,56.15,56.15,0,0,0-18.1,8.12,13.86,13.86,0,0,0-4.09,3.83,15.88,15.88,0,0,0-1.79,5.24,26.08,26.08,0,0,0-.87,7.8,10.23,10.23,0,0,0,3.27,6.65C247.44,779.9,240.2,761.72,251.14,752.38Z"/><path class="cls-2" d="M378.87,764.19c-1.76,2-3.27,4.6-2.88,7.26a5.68,5.68,0,0,0,11.27-.38c.2-2.43-1.14-4.69-1.52-7.09-.54-3.35.93-6.55,2.52-9.36C385.19,757.83,381.79,760.84,378.87,764.19Z"/><path class="cls-2" d="M432.63,803.6c-2.95,5.5-6.45,11-6.76,17.29a9.39,9.39,0,0,0,1.93,6.74,7,7,0,0,0,8,1.52,8.67,8.67,0,0,0,4.82-6.76c.5-3.74-1.19-7.39-1.67-11.13-.59-4.55,5.1-18.58,2.66-21.72C439.27,786.57,433.76,801.48,432.63,803.6Z"/><path class="cls-2" d="M378.39,695.57c-2.1-2.1-5.08-3-8-3.64-3.38-.7-34.71-1.5-28.36,7.05,2,2.71,12.53-1.24,15.48-1.75A93.72,93.72,0,0,1,378.39,695.57Z"/><path class="cls-2" d="M415.48,697.46c-2.28,3.44-2.8,7.75-4.69,11.43C406.94,716.38,398,720.3,394.47,728q7.65-3.4,15.07-7.31a58.25,58.25,0,0,0,9.79-6.13c5.6-4.56,9.53-10.78,14-16.47,2.92-3.75,7.38-6.88,9.93-10.45C437.17,684,419.15,691.92,415.48,697.46Z"/><path class="cls-3" d="M464.47,251.66c1.27.92,1.11,2.55,2.14,3.52s1.59.48,2.75,1.05c.93.44,1.75,1.55,2.5,1.9,1.87.88,4.39.13,6.42.34,1.62.16,4.11,0,5.37,1.32,1.61,1.63,1,2.78,3.35,4.65a18.28,18.28,0,0,0,7.79,3.48,16.35,16.35,0,0,1,7.62,3.79c5.58,4.32,12.22,6.89,17.4,11.78,3.08,2.9,3.93,2.75,3.72,7.37-.28,6-1.29,11.76-1.26,17.81.05,8.9-.91,18.32.65,27.1,3.6,20.3,4.8,40.85,8.9,61.09,3.47,17.14,6.76,32.86,7.19,50.46.3,12.73-.07,25.43.8,38.15,2.48,36,2.31,72.16.83,108.22-.53,12.86-1.94,26-1.33,38.95.46,10,1.23,19.81,1,29.79-.43,18.57-3.19,37-3.58,55.53-.46,22.37-4.67,44.67-6.22,66.86-7.73.14-12.4,12.06-16.78,16.71-3.8,4-9.42,5.55-13.14,9.45-4,4.24-6.64,7.42-11.94,10.54a33.32,33.32,0,0,1-10.18,4.53,2.53,2.53,0,0,0-1.86,1.93c-2.58,2.28-6.08,6.18-9.53,7,1.64-1.42,1-3.92,1.18-5.93.27-3.81,1.16-7,.5-10.4-.57-2.83-1.88-3.44-3.4-6-1.22-2.07-1-4.89-.7-7.28.39-3.27,1.13-6.07,1.1-9.38,0-4.06,0-8.13,0-12.19,0-4.41,1-8.37,1.26-12.72.37-6.12,0-12.42-.06-18.56,0-3.86.78-7.13,1.26-10.84.41-3.13-.06-6.75-.06-9.92V708.41c0-3.87.79-8.57-.2-12.35-.88-3.34-2.26-5.29-2.3-8.94a27.32,27.32,0,0,0,.19-3.11c-.4-3-2.49-5.3-2.54-8.43-.08-4.91,4.28-8.89,5.67-13.51.91-3.05.32-6.31.39-9.47.13-5.85,1.45-11.62,2.34-17.43,1.34-8.75.1-17.13.06-26,0-4.55.75-8.53,1.24-13,.33-3.07,1.39-5.9,1.89-8.87.83-4.95-3.21-4-6.69-6.46-1.65-1.17-1.3-1.73-1.25-3.85.12-4.79-1-8.46-1.82-13.13-1.05-6-.59-12.22-.59-18.34,0-5.95-1.11-13,.27-18.79a113.77,113.77,0,0,0,3.4-22.15c.33-10.4-.15-20.85-.06-31.26,0-4.15-1.36-7.58-2.7-11.49-1.17-3.4-1-7.23-.9-11.15.07-3.69,1.22-6.85,1.2-10.67,0-4.9,1-8.31,1.17-13.05.17-3.8,1.8-6.82,1-10.82-.71-3.41-3.4-6-3.33-9.89,0-2,0-4,0-6s-.52-2.42-.93-3.88a19.14,19.14,0,0,1-.27-5.14c0-2.06.56-3,.94-4.48a41.34,41.34,0,0,0,1.47-10.56,43.07,43.07,0,0,1,.94-10.82,28.33,28.33,0,0,1,1.79-6c.93-2,.66-2.19,0-3.86s-1.58-4.87-2.69-6.46c-1.44-2.06-2.11-1.64-2.46-4.09a34.82,34.82,0,0,1,.29-10.55,21,21,0,0,0,1-2.66c.14-1-.11-2.09-.06-3.11.1-2,.74-2.42,1.25-4.08.58-1.9.77-4.14,1.17-6.11.28-1.39,1-2.21,1.26-3.51A17.09,17.09,0,0,0,466.66,304c-1.05-1.89-1.83-2.66-2.13-4.74-.25-1.72.7-2.7,1-3.91.71-3.31.27-7.12.27-10.56,0-2.66,1-8.22-.24-10.58-.56-1-2.2-1.58-2.81-2.6-.87-1.46-.6-3.11-.56-4.85.06-3.54-1.76-5.56-.94-9.35.07-.29.88-.88,1-1.41.24-1-.29-2.12-.11-3.12.27-1.43,1.74-2.57,1.25-4.16Z"/><path class="cls-4" d="M1399,280.59c.32,2.3,6.32-1.93,7.47-2.66,2-1.27,4.15-4.56,4.23-6.95,2.43-.32,4.41-1.06,6.94-1a17.2,17.2,0,0,0,3.58.06c1.39-.33,2.24-2,3.35-2.79a8.59,8.59,0,0,1,2.15-1.51c1.07-.3,2.09,0,3.16-.38a23.48,23.48,0,0,0,3.37-1.82,2.36,2.36,0,0,0,1.29-2c.23-.93-.47-2.36-.1-3.21s1.24-1,2-1.46c2-1,4.18-1.54,6.06-2.67.82-.48,1.2-1.27,1.93-1.82s1.76-.66,2.46-1.08a14.47,14.47,0,0,0,3.59-3.24c.21,1.82-.8,3.26-1,5s-.73,3.52-.91,5.34c-.42,4.19-.63,8.53-2.28,12.52-1.74,4.21-2.19,9.79-.09,13.89a6.88,6.88,0,0,1,.65,3.7c0,2.47.82,4.35.89,6.71.08,2.66.58,3.3,1.81,5.75s.85,4.77.84,7.38c0,5.95-.73,11.59-.79,17.52,0,3-.07,6.14-1.18,8.94-.84,2.13-1.41,2.54-1.61,4.55a15.82,15.82,0,0,0,.92,6.22c1.2,4.06.88,8.12.89,12.36,0,2.09.33,4.15-.63,6.05a33.25,33.25,0,0,0-3.67,12.06c-.63,5.86-.11,11.94-.18,17.84-.09,7.25,1.87,14.24,1.81,21.42a16.39,16.39,0,0,1,0,2c-.12.86-.57,1.35-.71,2.07-.59,2.92-.31,6.23-.22,9.22.13,4.57.92,9,.9,13.59,0,3.24,0,6.48,0,9.72,0,5.47-1.23,12.28,1.57,17.06,1.25,2.12,1.09,2.56,1.09,5.45,0,3.08,0,6.15,0,9.23,0,3.57.86,7,.95,10.54.21,7.78-2.62,15.12-2.74,22.94,0,3.06.08,6.11,0,9.17,0,2.6.93,4.79.9,7.4,0,2.86,0,5.73,0,8.59,0,3.26-.29,6.58-.62,9.81-.4,4-1.76,7.73-2.15,11.63-.59,6,1,12,1,17.94,0,3.41-.89,6-1.77,9.31a48.21,48.21,0,0,0-1.88,13.56c.08,2.79.73,5.55,1,8.33.31,3.32.92,6.25.87,9.64s.93,6.32.9,9.56c0,2.44-.86,4.62-.91,7.06,0,2.06,0,4.13,0,6.19,0,2.54-.8,6.51.16,8.81.43,1,1.37,1.68,1.86,2.69.82,1.66.89,3.94,1.49,5.68.86,2.53,2.84,4.57,2.79,7.3-.07,4.11-3.41,5.56-5.45,8.53-1.89,2.75-1.36,5.16-1.68,8.11-.47,4.47-7.22,6.23-7,11.2.09,1.84,2.55,4.87,3.18,6.45a75.57,75.57,0,0,0,3.14,8c.93,1.77,2.4,3.31,3.08,5.18,1.21,3.3,1.08,7.33,1.08,10.82,0,1.88.33,3.52-.34,5.36-.78,2.17-2.32,3.68-2.41,6.08-.12,3,1.59,5.29,2.47,8.05a130.41,130.41,0,0,1,3.68,16c.83,4.39-.73,8.76-.74,13.16s0,9,0,13.48-.49,8.55-.23,13.13c.15,2.58.55,5.45.1,8.07-.33,1.92-1.4,3.5-1.71,5.36a13.59,13.59,0,0,0,.26,4.31c.49,2.81,2.47,5.69,2.54,8.48,0,2-.55,4.07-2.5,3.83-1.26-.16-3.9-2.48-4.72-3.37-1.48-1.61-1.86-3.35-3.47-4.67-2.81-2.32-6.38-3.37-9.52-5.32-1.36-.84-2.55-1.71-4-2.43-2.76-1.37-5.2-3.28-7.94-4.55-.21-.1-.67-.32-.91-.41a14.4,14.4,0,0,1-5.94-2.74,14,14,0,0,1-4.09-4.76c-3-3.22-7.84-3.45-11.17-6s-1.74-9.39-1.73-13c0-2.58,0-5.16,0-7.74a40.81,40.81,0,0,1,.7-6.74,10.55,10.55,0,0,0,0-2.45A59,59,0,0,1,1394,759a61,61,0,0,1,.76-8.1,365.8,365.8,0,0,0,.28-69.25c-.77-9.08-2.1-17.83-2.28-27-.16-8.42-1.18-16.65-1.61-25-.52-10.34.1-20.68-.3-31-.58-15.24-1.5-30.44-1.86-45.68-1.4-58.62-4.09-117.53,3.12-175.91,2.61-21.11,3.78-42.31,6.78-63.4.83-5.88,1.54-12,1.9-18,0-.91,0-1.93,0-2.84,0-1.72-.44-1.5-.71-2.66C1399.62,288.29,1398.93,287,1399,280.59Z"/><path class="cls-4" d="M463,249.8c2,0,4.09.27,6-.23a17,17,0,0,1,5-.77,33.07,33.07,0,0,1,10,2c1.72.54,2.36,1.05,4.43,1,1.73,0,3.79.35,5.48.05,3.64-.64,6.24-2.07,10-2h4.95a17.09,17.09,0,0,1,3.84-.06c1,.26,1,.75,1.76,1,3.22.91,8,.08,11.37.08s6.67.2,10,0c2.1-.11,3.75-.95,5.91-1,3.06-.1,6.08-1.09,9.06-1.05a21.3,21.3,0,0,1,4.92,1c2.45.66,4.7.48,7.07,1,2.16.45,4.23,1.41,6.48,1.82a39.2,39.2,0,0,0,6.94.22c3.93,0,7.86.05,11.79,0,2.72,0,5,.87,7.68,1a135.54,135.54,0,0,0,20.94,0c1.52-.14,2.47-.85,3.88-1.1,1.69-.3,4.17,0,5.82-.17,8.87-.81,17.68-.77,26.59-.77h17.41c8.09,0,17.2-1.12,25.08.72,9.88,2.31,19.94,2.22,30,2.26,3.7,0,6.88-.85,10.46-1,4.26-.22,9.13.94,13.29.09,1.78-.36,3.07-1.36,4.91-1.81a26,26,0,0,1,6-.22c5.21,0,10,1.78,15.19.29,7.07-2.06,13.8-4.46,21.22-5.07,4.59-.38,9.83-1.61,14.26-1,1.36.2,2.53.75,4,.83,3,.16,6.33-.67,9.29.12,2.55.68,5.28,2,7.82,2.79,4.26,1.37,8.43,2.34,12.81,3.3a25.25,25.25,0,0,0,9.74.56c2.6-.36,4.49-1.53,6.88-1.89,2.78-.42,3.82.7,6.21,1.6,3.2,1.2,5.59.06,8.68-1.31,2.75-1.23,5.54-1.38,8.35-2.47,1.41-.55,2.79-1.63,4.31-1.88a22.38,22.38,0,0,1,6.64.07c2.57.62,5.29,2.47,7.95,3.37,3.34,1.12,6.93.67,10.42.67,8.12,0,16.92-1.12,24.89.22,3.95.66,7.89,1,11.87,1.55,5.86.77,11.14-.32,16.88-.8a24.13,24.13,0,0,0,5.89-1.22c3.78-1.24,8-1.44,12.08-2,5.8-.83,11.55-.72,17.38-.72,4,0,8.28-.42,12.26.08,20,2.51,40-.12,60-.08h22c6.7,0,13.06.26,19.71.8a71.52,71.52,0,0,0,11.89,0c5.25-.45,11.16-1.79,16.43-.65a51.1,51.1,0,0,1,5.1,1.89,25.78,25.78,0,0,0,8.68.94c5.72,0,11.23-1.05,17-1,8.23,0,16.9-.75,25.06.25,6.91.84,13.91,2,20.85,2.59,10.65.95,21.52-.63,31.9-2.87,8.55-1.84,17.39-.61,26.07-1.17s18-1.6,26.87-.7c2.14.22,4.17.81,6.28,1.2,7.07,1.33,14.55.93,21.72,1.49,7.47.59,14.58-.3,22-.75,8.9-.53,17.57-2.82,26.51-3.06,11.88-.31,23.8.06,35.68.05a25.13,25.13,0,0,0,7.1-.77c2.12-.54,4.3-.16,6.46-.2a16.84,16.84,0,0,0,4.15-.8,31.25,31.25,0,0,1,6.2-.22c2.33,0,3.57.95,5.84,1.14a12.33,12.33,0,0,1-1.93,9.74c-1.34,1.91-3.3,3.38-4.92,5.06s-2,3.23-3.17,5c-2.49,3.67-8.81,5.27-12.58,6.95-4.88,2.17-8.36,6.35-13.13,8.72-7.25,3.6-15.77,4.83-23.75,5.23q-33.42,1.68-66.88,3.29c-36,1.76-71.83,1.76-107.9.72-33.82-1-67.67-1.31-101.48-2.59-26.28-1-52.29-3-78.6-1.94-14,.58-28.15.87-42,2.81-9.87,1.38-19.05,3.67-28.75,6-6.6,1.58-10.65,2.62-17.72,1.35L937,295.36a60.33,60.33,0,0,0-20.15,2.73,218.52,218.52,0,0,1-35.36,3.52c-11.94.29-23.83,1.6-35.76,2.26-19.93,1.11-40.33,2.95-60.15-.25-4-.65-7.83-1.8-11.84-2-9.11-.47-18.28,0-27.42-.53-7.8-.45-15.55-1.27-23.32-2-19-1.8-37.06-1.1-56.11.54-27.48,2.38-55.15,3.11-82.63,0a175,175,0,0,0-20.47-1c-8.61,0-17.63.94-26.13-.19-11.16-1.49-22.45-2.71-33.07-6.53-2.58-.94-5.67-1.51-7.95-3.09-3-2.06-5.87-5.29-8.28-7.92-4.12-4.48-8.49-9.36-13.2-13.27-2-1.69-4.37-3-6.43-4.59C466.47,261.24,465.31,259.2,463,249.8Z"/><path class="cls-3" d="M469,833.75c.07,2.55,5.23-.42,6.2-.75a29,29,0,0,1,9.74-1.24,13.54,13.54,0,0,1,3.77.23c1.3.34,2.68,1.56,4.2,1.82,1.28.21,2.5-.2,3.77.17.46.13,1.05.65,1.68.81a14.55,14.55,0,0,0,3,0,35,35,0,0,0,11-2.11c3.19-1,6-.83,9.41-.88,3.73,0,7.16,1,11,1h14.78c5,0,10.07.37,15,0,2.75-.18,5.41-1.34,8.1-1.85,3.2-.6,6.65-.19,9.89-.2,4,0,7.9,0,11.85,0a15.14,15.14,0,0,1,3.29-.06c.46.13.77.76,1.07.83,7.78,1.76,16.28-.87,24.16-.8,6.1.06,12.21,0,18.32,0,3.52,0,6.81-.34,10.12,1,4.65,1.83,9.52,2,14.46,2,4.31,0,8.67.22,13,0,4.7-.19,9.1-1.11,13.87-1a59.32,59.32,0,0,0,9.52-.17c2.63-.41,5.21-1.28,7.84-1.65,4.38-.62,8.64-.14,13-1,4.83-.9,10.07-.33,15-1a37.48,37.48,0,0,1,11,0c3.5.61,6.8,1.74,10.39,1.83,4.2.1,8.45,0,12.66,0a17.77,17.77,0,0,1,7,.94,23.75,23.75,0,0,0,10,2c2.95,0,5.64.1,8.47-.92,4.27-1.54,6.9-2.86,11.36-3.15s8.45-1.81,12.8-1.93c4-.11,8-.86,12-1,4.88-.2,9.84.07,14.73,0a63.25,63.25,0,0,1,14,1.21c1.51.35,2.89,1.27,4.4,1.63,1.93.46,3.83.09,5.77.14,3.14.08,5.82,1.23,8.86,1.82,3.75.73,7.49-.1,11.24.78a58.25,58.25,0,0,0,14.48,1.41c4.32,0,8.67.19,13,.08,5.95-.15,11.49-2.06,17.51-2.12,5.11-.05,10.35-.21,15.46,0,3.87.16,7.41,1.74,11.21,2.09,16.14,1.49,32.28-2.33,48.47-.82,14.37,1.34,28.86,1.77,43.3,1.77,5.45,0,10.93.28,16.37-.2,7.13-.62,13.69-1.88,20.93-1.79,6.38.08,12.55-.87,18.89-1,5.31-.15,10.67,0,16,0,4,0,8.07,0,12.11,0,5.35-.06,10.66,1.69,16,.82,11.44-1.88,23.57-.8,35.18-.8,3.39,0,6.79,0,10.18,0,6,0,11.73-.88,17.66-1,4.88-.14,10.4-.52,15.23.23,3.57.55,6.92,1.6,10.56,1.77,4.7.23,9.4-.18,14.1.13,2.64.18,5.23.67,7.87.83,2.86.18,5.75-.18,8.58.13,2.61.29,5,1.4,7.65,1.78a63.86,63.86,0,0,0,9.28.16c7.55,0,14.94-.8,22.45-1,6.93-.22,13.75.71,20.65,1,6.68.33,14.23-2.14,20.66-.35a38.82,38.82,0,0,0,17,1,203.33,203.33,0,0,1,31.12-1.83c3.71,0,5.38-.54,9-1.81,7.41-2.6,15-2,22.7-2H1433c2.57-.41,3.76,1.82,6.13,2.5,1.84.52,7.1,2.68,8.44.94,2.11-2.76-3.11-7.18-4.72-8.2a15.08,15.08,0,0,1-3.44-2.64c-1.87-2.08-2.93-4.53-4.79-6.72-5.27-6.2-10.32-12.45-17.13-17a35.57,35.57,0,0,1-8-6.77c-2.66-3.21-4.85-4.52-8.68-6.26-2.35-1.07-4.83-1.52-7-2.67-1.85-1-3.16-2.5-4.75-3.83-1.76-1.49-2.21-1.06-4.32-1.12-3.1-.09-5.91-1.08-9.07-1-8.74.16-17.52-.93-26.27-1.12a118.79,118.79,0,0,0-16.33.44c-7.06.82-14.07,2.42-21.17,3.17a233.06,233.06,0,0,1-68.84-3.11c-12.64-2.48-25-6.05-37.7-8.21-10.61-1.81-21.24-2.3-32-2.71-16.17-.61-32.32-.83-48.48-.17-19,.77-37.94,3.19-56.89,4.69-14.85,1.18-29.69,1.9-44.58,2.07-12.76.14-25.49.18-38.22-.69-9.21-.63-18.31-1.94-27.5-2.74-27.85-2.42-55.7-.09-83.18,4.49-9.93,1.65-19,3.28-29.24,2.93-10.82-.37-21.64-1.6-32.42-2.56-16.52-1.48-32.64-2.89-49.25-2-19.38,1-38.66-.07-58-.44-11.94-.23-23.9-1.12-35.79-2.25-5.1-.49-10.29-1.46-15.4-1.63-10-.35-19.92.85-29.9.93-11.82.09-23.83-.84-35.63.16-6,.51-12.46,0-18.42,1-3.85.62-7.24,1.62-11.23,1.8-5,.22-10,.48-15,.77-1.95.11-7.91-.41-10.57.16-3.27.68-8.28,5.71-10.62,7.58-3.21,2.57-6.62,5.1-9.32,8.22-2.41,2.78-4.16,6-6.45,8.84-1.88,2.31-3.78,5.33-6.33,6.8-1.55.89-3.27,1-4.91,1.64-1.47.57-2.65,1.5-4,2.16-2.28,1.08-4.77,1.39-7,2.67a38.22,38.22,0,0,0-6.75,5,35,35,0,0,0-5.26,5.95C472.18,822.92,470,826.46,469,833.75Z"/><path class="cls-5" d="M484.94,277.7a24.74,24.74,0,0,1-.77,7c-.34,1.3-.78,4.8-.05,6s1.5.67,1.89,1.89a12.47,12.47,0,0,1-.07,3,28.86,28.86,0,0,0,.5,6.48,30.33,30.33,0,0,1,.51,6.7c0,2.75-1.29,4.05-2.25,6.53-1.52,4,1,6.22,2,10.19.89,3.66.43,8.67.23,12.47-.11,2.17-1.16,3.18-1,5.47s1.14,2.94,2.28,4.71c2.46,3.8-2.24,8.51-.12,12a29.43,29.43,0,0,0,2.82,2.21,19.81,19.81,0,0,0,4,2.52c1.33.63,7.58,1.76,8,3.24-2.87,1.07-6.09,1.11-8.92,2.44a6.29,6.29,0,0,0-2.79,2c-.36.65,0,1.11-.2,1.79,0,.13-.75,2.11-.77,2.21-.65,2.94-.21,6.44-.25,9.48,0,3.63.61,8.59,2,11.73,3.3,7.33-4.07,13.2-4,20.43,0,2.65-.58,5.93,0,8.5.29,1.33.85,2,1.06,3.38a39.84,39.84,0,0,1,0,5.57c0,3,1.08,5.53,1,8.46-.12,3.83-1.22,7.44-1,11.35.11,2.44,1,4.64,1.05,7.07.1,3.48-.47,7.14.19,10.57.36,1.83,1.8,3.79,1.65,5.69,0-.33-1.44,2.11-1.13,1.31-.68,1.76-.51,3.16-.72,4.94-.15,1.29-1.15,2.7-1.12,3.91s1.68,3,2.37,4c3.62,5.17,3.77,13,2.24,19a38.65,38.65,0,0,1-1.25,4.9,27.17,27.17,0,0,0-1.29,2.92c-.73,3.12.07,7.64.05,10.81,0,2-.39,3.49,1,5,1,1.12,2.42,1.57,3.3,2.94,1.54,2.39.33,3.63-1.29,6-1.8,2.58-2,4.26-2,7.24a5.88,5.88,0,0,0,1,4c1,1.44,2.69,2.35,3,4.43.65,4.13-2.58,5.64,1,9,1.78,1.65,8.38,3.74,8.86,6.24-4.56,1.36-7.86,2.16-8.85,7-.64,3.16-2.06,6.56-2.1,9.76,0,1.93.9,3.46,1.13,5.32.33,2.69-.79,4.8-1.6,7.15-.63,1.83-.84,3.91-1.44,5.82-.73,2.32-2.05,4.61-2.1,7.08a24.93,24.93,0,0,0,.58,4.37,58.21,58.21,0,0,1,.52,9.63c0,3.87.26,7.66-.42,11.47-.84,4.7-1.95,9.34-2.76,14-.45,2.59-1.65,5.38-1.61,8,0,2.93,1.79,5.1,1.8,8.18s0,6,0,9c0,4.35-1,9.7.08,13.9a16.44,16.44,0,0,1,.91,4.85,18.58,18.58,0,0,1-.62,6.12c1.73.56,2.95-1.21,4.39-2a11.35,11.35,0,0,1,3.26-.91c2.39-.61,4.87-1.81,7.61-2.12-4.06,3.94-8.6,7.7-11.66,12.55-1.94,3.1-3,7.22-4.39,10.78s-3.13,7.09-2.5,10.92c.88,5.25,1.93,7.65,1,13.38-.55,3.35-1.78,7.44-1.22,10.92.35,2.22,2.17,3.71,2.88,5.81,1,3,.46,5.83.25,9-.33,4.85.29,9.72.06,14.56-.13,2.65-.77,5.26-1,7.91-.27,3.66-.8,8.19,0,11.77,3.15,1.2,9,.19,12.18-.1,4.46-.41,8.73-.72,13.2-.73,5.42,0,10.31-1.95,15.67-2.14a57,57,0,0,1,10.51.82c2.78.42,6.48,1.76,9.24,1.07a16.37,16.37,0,0,1,2.75-.89,36.94,36.94,0,0,1,4.26,1.09,49,49,0,0,0,11,1.07c5.38.06,10.76-.09,16.14-.06,6.91,0,13.85.25,20.71-.71,3.15-.44,5.89-1.9,9-2.16,7-.61,13.62,3.12,20.45,3.79,4.41.43,8.72-.34,13.11-.71,3.61-.3,7.25.1,10.83-.2,2.39-.19,2.22,0,3.32-2.89a51.24,51.24,0,0,1,3.69-7.73c2.61,2.54,3.32,7.94,7.35,8.79,5.55,1.16,11.78-2.51,17.31-1,3,.8,4.84,2.36,8.19,1.73,3.71-.69,7.43-3.87,9.67-6.62,1.18-1.45,2.19-3.3,3.9-4.23,3.83-2.1,6.41.25,9.37,2.29s6.41,1.93,9.85,2.87c3.92,1.08,6,4.8,10,5.68,4.3,1,8-1.07,12-2.44,3.56-1.23,9.37-2.46,13.27-1.36,2.35.66,4.12,2.52,6.37,3.4,9.91,3.89,20.93-2.07,31.11-1.37,5.08.35,9.89,1.62,15.09,1.78,10,.31,20.06-.5,30,.06,3,.17,5.7.68,8.85.31,5.36-.62,10.73-2.93,16.06-3.28,3.8-.25,7.45,1.33,11.24,1.7,7,.67,14-.35,21,.23,5.56.45,10.35,3,16,3.12,4.2.07,8.73-.54,12.81.9L936,813q1.62,1.59,3,0c4.51-1.54,5.18-7.38,10.63-8.37,3.57-.65,6.5.28,9.77,1.59,1.85-1.43,2.08-4.12,3.68-5.48,1.41-1.21.78-1.23,2.31.36s2.13,5.63,4.11,6.51c1.68.75,4.74.43,6.84.66,6.15.68,12.52,2.48,18.68,1.39,13.29-2.35,26.8-10,40.17-5,5.47,2.05,11.29.5,16.9.21,6-.32,12-.63,17.94-.85a84.59,84.59,0,0,1,17.8,1.39c9.63,1.57,19.13,0,28.78.21,8,.19,13.78,2.26,20.82,5.27,4.49,1.92,5-.34,6.14-4.25a20.44,20.44,0,0,0,1.05-6c2.3,2.28,5.34,11.51,9.49,9.68a5.37,5.37,0,0,1,5-3.47q3.54.75,7.09,1.42c5.48,1.06,11,.63,16.59.59a69.37,69.37,0,0,1,10.69.29,3.15,3.15,0,0,0,2.93.5c.1-1.74,0-3.76.73-5.39,1.35,1.89,2,3.81,3.94,5.34,2.81,2.17,5,1,8.24.52a60.64,60.64,0,0,1,11.11-.14,17.57,17.57,0,0,0,8.8-2.18,11.6,11.6,0,0,1,5.67-1.77,13.52,13.52,0,0,0,6.86,2.72c8.52,2.09,16.81.16,25.36-.2,7-.3,14,1.28,21,1.45,11.8.28,23.73-1.36,35.5-.79L1334,810a36.32,36.32,0,0,1,9.22,2.94l.73-.33a3.24,3.24,0,0,1,2.85-2.51c3.8-2.1,9.23-.12,13.24.75a41.12,41.12,0,0,0,17.39.57c7.12-1.28,13.63-5.72,20.85-6.48a66.63,66.63,0,0,1,13.1.09,62.72,62.72,0,0,1,14.67,3.21c1.21.43,2.17,1,3.54.64.84-3,0-7,.34-10.1a42.26,42.26,0,0,0,.71-9.05,12.24,12.24,0,0,0-2.78-5.08c-3.42-6.72.71-14.81-1.79-21.7a17.6,17.6,0,0,1-3.18-8.44,60.25,60.25,0,0,1,2.66-11.79c.53-6.89-5.17-10.79-7-17-.68-2.28-1.5-3.95,0-6a13.92,13.92,0,0,0,3.54-2.33,8.64,8.64,0,0,0,.66-5.44c-.12-4.35-.35-8.57-.82-12.91-.24-2.28-1-4.28-1.34-6.43-.6-3.78,1-8.71,1.12-12.64.14-3.56.61-5.95-1.82-8.93-3.34-4.11-5.27-3.59-9.77-3.62-1.93,0-3.46,0-1.85-2.28,1.85-2.64,5.51-1.24,7.61-2.87,1.28-.24,1.71-1,1.27-2.38a19.23,19.23,0,0,0-6.21-6.38c-1.56-1.12-5-3.94-7.23-3.94a42.3,42.3,0,0,0,10.89-5.12c2.76-2,2.3-3.11,2.1-6.29-.17-2.87-.85-2.45,2.45-4.34,2.48-1.41,3-2,3.53-4.82.61-3.12.33-6.62.75-9.83a76.25,76.25,0,0,0,.54-14.56c-.22-3.73.51-11-1-14.4-.88-2-1.54-2.57-2.46-4.94-1.34-3.48-3.2-7.44-3.9-11.05s.13-6.19,1.37-9.7a16.68,16.68,0,0,0,.93-6.53,39.38,39.38,0,0,0-3.26-14.59l-1.42-1.92c-.91-2.22.32-4.44,1-6.8a44.57,44.57,0,0,0,1.56-10.2c.1-3.56,0-7.13,0-10.69,0-4.46-1.38-8.56-1.4-12.9q-.07-4.63.29-9.27l.08-4a4.17,4.17,0,0,1,2.06-2.08,14.25,14.25,0,0,0,5.08-5.85c2.12-5.91-2.75-13.62-3.11-19.48-.17-2.71-.17-5.37-.5-8.07-.5-4.14-1.79-7.6-2.86-11.52-1.47-5.44-1.28-11.53-1.69-17.2-.54-7.57-2.23-15.74-1.52-23.43.57-6.26,5-11,5.81-17.17,1-7.25-1.23-13.83-2-20.91-.58-5.38.63-10.43,1.52-15.72a236.93,236.93,0,0,0,2.53-23.63c.32-4.53-.43-8.44-1.21-12.82-.72-4.05.38-8.87.62-12.81.16-2.65-.49-8.42.38-11.52.65-2.33,1.74-4.21,1.9-6.76.09-1.48.11-3.06.08-4.55-5-2.19-11.23,1.42-16.3,1.72a53.15,53.15,0,0,1-15-3.38,16.74,16.74,0,0,0-9.37-1.63c-2.95.83-3.11,2.18-6.4,1.93-5.39-.42-10.62-1.25-16-.74a74.25,74.25,0,0,1-14.06.64q-4.1-.82-8.21-1.54c-4.85-.2-8.66,3-13.21,3.35-3.66.29-7.61-1.61-11.31-1.76-5.75-.23-10.85-.06-16.63-1.15-5.12-1-12.76-3.6-17.58.4-2.61,2.16-1.44,3.89-5.32,5.34-4.81,1.82-6.34-1-9.92-2.86-2.13-1.11-5.19-.94-7.74-.38-4,.86-6.25-.09-10.07-1.24-10.68-3.2-20.3-1.37-31.18-1.13a72.9,72.9,0,0,1-18.41-1.43,4.81,4.81,0,0,0-3.66-.5c-3.67,1.05-2.87,7.73-6.43,7.53a31.55,31.55,0,0,1-2.83-5.2l-4.07-.66a187,187,0,0,0-21.71-1.7c-16.26-.38-32.57.23-48.84.08-2.47,0-4.6-.25-7,.46a22.19,22.19,0,0,1-9.62,1.11c-9.43-1.08-19.05-2.27-28.56-2.35q-10.65,1.57-21.22,3.57l-13.66,1.92a55.79,55.79,0,0,1-12.59.14c-4.47-.56-8.25-2.68-12.66-3.52s-8.44.08-12.92.17c-6.23.13-12.72-.55-18.69.79-5.21,1.17-10.65.16-15.93-.14a45.82,45.82,0,0,0-14.35.58,11.51,11.51,0,0,1-7.78.92c-8.39-.9-15.83-2.63-24.34-1.28a234.85,234.85,0,0,1-30.08,2.65c-2.63.08-5.81.56-8.28-.65-6-2.9-3.43-4-11.77-2.89-9.39,1.31-18.62,4-28.19,3.65-7.68-.26-16.38-2.31-23.89-.53-2,.47-2.84,1.46-4.34,2.09a12.18,12.18,0,0,1-5.43-.65,22.4,22.4,0,0,0-9.79,1.89c-5.59,2-9.86,2.31-15.73,2-8.94-.48-19.06-.87-27.76-3.48-3.77-1.13-6.66-2.34-10.63-2.49-4.82-.18-7.48-1-12.06-1.89q-11.88-.12-23.73.76a128,128,0,0,0-19.72,1.92c-2.87,1-5.64,2.9-8.75,2.22-6.85-1.49-12.71-4.62-19.89-4.06,2.1,3.18,6.74,5.72,7.86,9.36-4.66-.29-10,.06-14.32-1.86-1.45-.64-2.65-1.66-4-2.38-1.85-1-3.41-1-5.41-1.32a58.67,58.67,0,0,0-25.39,1.75c-7.83,2.19-16-.59-23.93-.54-14,.09-28.16.74-42.13.2-10.9-.43-20.8-5.78-31.94-3.23C503.57,276.05,495.61,274.7,484.94,277.7Z"/><polygon class="cls-6" points="748.16 431.12 748.16 321.19 774.98 321.19 774.98 399.53 807.49 399.53 807.49 431.12 748.16 431.12"/><path d="M772,324.19v78.34h32.51v25.59H751.16V324.19H772m6-6H745.16V434.12h65.33V396.53H778V318.19Z"/><polygon class="cls-6" points="810.91 431.12 810.91 321.19 872.73 321.19 872.73 349.38 837.78 349.38 837.78 359.9 870.2 359.9 870.2 387.1 837.78 387.1 837.78 401.58 873.74 401.58 873.74 431.12 810.91 431.12"/><path d="M869.73,324.19v22.19h-35V362.9H867.2v21.19H834.78v20.49h36v23.54H813.91V324.19h55.82m6-6H807.91V434.12h68.83V398.58h-36v-8.49H873.2V356.9H840.78v-4.52h35V318.19Z"/><polygon class="cls-6" points="898.43 431.12 871.51 321.19 899.56 321.19 912.26 383.8 924.79 321.19 952.2 321.19 925.73 431.12 898.43 431.12"/><path d="M948.39,324.19l-25,103.93H900.79L875.33,324.19h21.78L912.28,399l15-74.79h21.14m7.62-6H922.33l-1,4.82-9.13,45.6L903,323l-1-4.81H867.69l1.82,7.43L895,429.55l1.12,4.57h32l1.11-4.6,25-103.93,1.79-7.4Z"/><polygon class="cls-6" points="952.15 431.12 952.15 321.19 1013.96 321.19 1013.96 349.38 979.02 349.38 979.02 359.9 1011.43 359.9 1011.43 387.1 979.02 387.1 979.02 401.58 1014.97 401.58 1014.97 431.12 952.15 431.12"/><path d="M1011,324.19v22.19H976V362.9h32.41v21.19H976v20.49h36v23.54H955.15V324.19H1011m6-6H949.15V434.12H1018V398.58H982v-8.49h32.41V356.9H982v-4.52H1017V318.19Z"/><polygon class="cls-6" points="1020.19 431.12 1020.19 321.19 1047.02 321.19 1047.02 399.53 1079.52 399.53 1079.52 431.12 1020.19 431.12"/><path d="M1044,324.19v78.34h32.5v25.59h-53.33V324.19H1044m6-6h-32.83V434.12h65.33V396.53H1050V318.19Z"/><path class="cls-6" d="M1134.85,431.12V366.43a51.91,51.91,0,0,1-4.06,3.52,61.28,61.28,0,0,1-11.34,6.72l-4.28,2V348.42l1.67-.83A40.09,40.09,0,0,0,1130.67,337a46.52,46.52,0,0,0,7.76-15.46l.65-2.12h20.71v111.7Z"/><path d="M1156.79,322.42v105.7h-18.94V358.86a61.09,61.09,0,0,1-8.9,8.72,57.77,57.77,0,0,1-10.78,6.38V350.28q9.57-4.75,14.85-11.42a49.2,49.2,0,0,0,8.28-16.44h15.49m6-6h-25.93l-1.3,4.24a43.66,43.66,0,0,1-7.24,14.48,37.14,37.14,0,0,1-12.82,9.76l-3.33,1.66v36.85l8.56-4a66.22,66.22,0,0,0,11.12-6.48v61.21h30.94V316.42Z"/><path class="cls-6" d="M694.93,563.25c-7.92,0-14.55-1.84-19.69-5.47s-9.49-9.87-13.06-18.64c-3.51-8.59-5.28-19.65-5.28-32.87,0-17.7,3.15-31.58,9.37-41.26,6.49-10.11,15.81-15.23,27.69-15.23,9.33,0,16.81,3,22.24,8.91,5.2,5.67,9.08,14.34,11.55,25.78l.56,2.61-24.14,8.28-.69-3.35a28.6,28.6,0,0,0-1.78-6.24,12.57,12.57,0,0,0-3.43-4.61,5.92,5.92,0,0,0-3.8-1.35c-2.19,0-5.41.72-8.09,7-1.74,4-2.61,10.44-2.61,19.28,0,13.67,1.66,19.66,3.05,22.28,2.29,4.32,5,4.82,6.91,4.82a6.94,6.94,0,0,0,6.46-3.7c1.82-3.09,3.18-7.78,4-13.92l.57-4,24,11.17-.35,2.23a71.41,71.41,0,0,1-6.07,20.66,33.82,33.82,0,0,1-10.8,13.11C707.15,561.71,701.56,563.25,694.93,563.25Z"/><path d="M694,452.78q12.74,0,20,7.94t10.82,24.38l-18.39,6.31a31.88,31.88,0,0,0-2-6.94,15.42,15.42,0,0,0-4.28-5.67,8.88,8.88,0,0,0-5.65-2q-7.08,0-10.85,8.78-2.85,6.51-2.85,20.46,0,17.28,3.4,23.69t9.56,6.41a9.87,9.87,0,0,0,9-5.18q3.06-5.18,4.43-15l18.26,8.51a67.94,67.94,0,0,1-5.8,19.78,30.7,30.7,0,0,1-9.81,12q-5.86,4-14.92,4-11,0-17.95-4.92T665,538q-5.06-12.4-5.05-31.74,0-25.78,8.89-39.64T694,452.78m0-6c-13,0-23.14,5.58-30.22,16.61-6.53,10.17-9.84,24.6-9.84,42.88,0,13.61,1.85,25.05,5.5,34,3.85,9.44,8.46,16,14.11,20s12.86,6,21.42,6c7.25,0,13.41-1.71,18.32-5.1A36.72,36.72,0,0,0,725,546.9a74.2,74.2,0,0,0,6.36-21.53l.69-4.45L728,519l-18.25-8.5-7.35-3.43-1.13,8c-1,7.17-2.54,10.92-3.66,12.81a3.94,3.94,0,0,1-3.87,2.23c-.89,0-2.55,0-4.26-3.22-1-1.9-2.7-7.14-2.7-20.88,0-10.49,1.28-15.61,2.35-18.05,2.22-5.19,4.41-5.19,5.35-5.19a2.92,2.92,0,0,1,1.95.71A9.63,9.63,0,0,1,699,487a25.29,25.29,0,0,1,1.56,5.57l1.37,6.7,6.46-2.22,18.39-6.31,5-1.73-1.12-5.21c-2.61-12.14-6.63-21-12.27-27.18-6-6.56-14.25-9.88-24.45-9.88Z"/><path class="cls-6" d="M768.58,563.25c-8.23,0-15.18-2.08-20.67-6.2s-9.83-10.47-13.12-19c-3.21-8.39-4.84-19-4.84-31.41,0-17.48,3.26-31.36,9.68-41.27,6.69-10.31,16.15-15.54,28.12-15.54,12.25,0,21.82,5.14,28.44,15.29,6.37,9.74,9.6,23.42,9.6,40.67,0,12.41-1.4,22.79-4.14,30.84-2.81,8.25-7,14.8-12.37,19.46C783.73,560.82,776.77,563.25,768.58,563.25Zm-.87-83.16c-2,0-4.84.56-7.49,5.34-2.29,4.11-3.44,11.28-3.44,21.3s1.15,17,3.42,21.16c2.63,4.78,5.65,5.33,7.69,5.33,3.37,0,5.83-1.64,7.76-5.17,2.2-4,3.31-11.68,3.31-22.74,0-9.21-1.16-15.93-3.45-20C773.48,481.76,771,480.09,767.71,480.09Z"/><path d="M767.75,452.78q16.83,0,25.93,13.93t9.11,39q0,18.21-4,29.88t-11.49,18.14q-7.53,6.5-18.74,6.49-11.4,0-18.87-5.6t-12.12-17.72Q733,524.81,733,506.59q0-25.45,9.2-39.63t25.6-14.18m.14,83.44q6.72,0,10.39-6.74T782,505.31q0-14.67-3.84-21.45t-10.41-6.77q-6.3,0-10.12,6.88t-3.81,22.76q0,15.74,3.79,22.61t10.32,6.88m-.14-89.44c-13,0-23.36,5.69-30.64,16.91-6.74,10.4-10.16,24.83-10.16,42.9,0,12.82,1.7,23.75,5,32.48,3.49,9.12,8.24,16,14.12,20.38s13.58,6.8,22.47,6.8,16.55-2.67,22.66-7.94c5.8-5,10.26-12,13.25-20.76,2.85-8.36,4.3-19.07,4.3-31.81,0-17.84-3.4-32.08-10.08-42.31-7.22-11.05-17.64-16.65-31-16.65Zm.14,83.44c-1,0-3,0-5.07-3.78-1.39-2.52-3-8-3-19.71s1.66-17.33,3.06-19.85c2.1-3.79,4-3.79,4.87-3.79,1.52,0,3.33.45,5.19,3.73,1.4,2.46,3.06,7.67,3.06,18.49,0,13.84-1.85,19.29-2.94,21.3-1.74,3.17-3.49,3.61-5.13,3.61Z"/><polygon class="cls-6" points="869.53 561.48 869.53 515.65 861.93 561.48 841.4 561.48 833.83 515.72 833.83 561.48 810.77 561.48 810.77 451.55 843.7 451.55 851.72 499.51 859.67 451.55 892.59 451.55 892.59 561.48 869.53 561.48"/><path d="M889.59,454.55V558.48H872.53V479.22l-13.14,79.26H844l-13.12-79.26v79.26H813.77V454.55h27.39l10.57,63.24,10.48-63.24h27.38m6-6H857.13l-.84,5-4.58,27.67-4.63-27.68-.84-5H807.77V564.48h29.06V552.22l1.2,7.24.83,5h25.61l.84-5,1.22-7.38v12.4h29.06V448.55Z"/><path class="cls-6" d="M899.78,561.48V451.55H937.4c8.56,0,15.1,3.23,19.42,9.61,4.09,6,6.15,14.52,6.15,25.29,0,11.07-2.24,19.92-6.67,26.31-4.66,6.74-11.8,10.15-21.2,10.15h-8.4v38.57Zm29-65.62c3,0,5.05-.69,6.07-2a10.36,10.36,0,0,0,1.83-6.45,12.62,12.62,0,0,0-1.66-6.71c-.31-.49-1.24-2-5.41-2H926.7v17.18Z"/><path d="M937.4,454.55q11.31,0,16.94,8.29T960,486.45q0,15.74-6.13,24.6t-18.74,8.86H923.7v38.57H902.78V454.55H937.4m-13.7,44.31h5.1q6,0,8.46-3.23a13.29,13.29,0,0,0,2.44-8.26,15.41,15.41,0,0,0-2.12-8.29q-2.12-3.4-8-3.4H923.7v23.18m13.7-50.31H896.78V564.48H929.7V525.91h5.4c10.3,0,18.48-3.95,23.67-11.44,4.78-6.9,7.2-16.33,7.2-28,0-11.38-2.24-20.46-6.66-27-4.86-7.14-12.43-10.92-21.91-10.92Zm-7.7,44.28V481.68c1.84,0,2.67.38,2.79.57a9.65,9.65,0,0,1,1.21,5.12,7.56,7.56,0,0,1-1.22,4.65c-.26.33-1.13.71-2.78.81Z"/><polygon class="cls-6" points="967.87 561.48 967.87 451.55 994.7 451.55 994.7 529.89 1027.2 529.89 1027.2 561.48 967.87 561.48"/><path d="M991.7,454.55v78.34h32.5v25.59H970.87V454.55H991.7m6-6H964.87V564.48h65.33V526.89H997.7V448.55Z"/><polygon class="cls-6" points="1030.63 561.48 1030.63 451.55 1092.44 451.55 1092.44 479.74 1057.5 479.74 1057.5 490.26 1089.91 490.26 1089.91 517.46 1057.5 517.46 1057.5 531.94 1093.45 531.94 1093.45 561.48 1030.63 561.48"/><path d="M1089.44,454.55v22.19H1054.5v16.52h32.41v21.2H1054.5v20.48h36v23.54h-56.82V454.55h55.81m6-6h-67.81V564.48h68.82V528.94h-36v-8.48h32.41v-33.2H1060.5v-4.52h34.94V448.55Z"/><polygon class="cls-6" points="1115.17 561.48 1115.17 483.21 1093.93 483.21 1093.93 451.55 1163.24 451.55 1163.24 483.21 1142 483.21 1142 561.48 1115.17 561.48"/><path d="M1160.24,454.55v25.66H1139v78.27h-20.83V480.21h-21.24V454.55h63.31m6-6h-75.31v37.66h21.24v78.27H1145V486.21h21.24V448.55Z"/><polygon class="cls-6" points="1166.62 561.48 1166.62 451.55 1228.43 451.55 1228.43 479.74 1193.49 479.74 1193.49 490.26 1225.9 490.26 1225.9 517.46 1193.49 517.46 1193.49 531.94 1229.44 531.94 1229.44 561.48 1166.62 561.48"/><path d="M1225.43,454.55v22.19h-34.94v16.52h32.41v21.2h-32.41v20.48h36v23.54h-56.82V454.55h55.81m6-6h-67.81V564.48h68.82V528.94h-36v-8.48h32.41v-33.2h-32.41v-4.52h34.94V448.55Z"/><path class="cls-6" d="M1234.16,561.48V530h24.66v31.45Zm3.31-32.68-4-50.45v-26.8h26v26.8l-4.1,50.45Z"/><path d="M1256.47,454.55v23.68l-3.87,47.57h-12.36l-3.77-47.57V454.55h20m-.65,78.48v25.45h-18.66V533h18.66m6.65-84.48h-32v29.92l0,.23,3.77,47.57.06.76h-3.16v37.45h30.66V527h-3.3l.06-.75,3.87-47.57,0-.24V448.55Z"/><path class="cls-1" d="M1667.06,819.77c-22.83,14.87-52.06-6.06-79.31-6.21-14.46-.08-30.18,5.64-42.6-1.75-9.22-5.49-13.49-16.65-21.79-23.43-17.52-14.29-46.75-5-63.64-20-6.31-5.6-10-14-17-18.57-15.32-10-35.18,2.88-47.59,16.34s-27.3,29.66-45.31,26.37c-16-2.91-27.36-20.83-43.56-19.93-7.13.4-13.43,4.51-20,7.17a52.37,52.37,0,0,1-49.24-6c-13.91-10-28.28-28.11-43.79-20.79-7.55,3.56-11.16,12-16.17,18.71-11.64,15.54-33.89,22.12-52.11,15.41-15.33-5.64-30.35-19.68-45.49-13.54-10.51,4.27-17.14,17.6-28.49,17.36-5.23-.11-9.83-3.25-14.64-5.3-24.53-10.45-51.38,7.7-70.63,26.16-12.73,12.2-26.19,26.08-42.82,32.88-2.71,1.11-40.75,9.88-39.61,15.14,2.9,13.4,21.2,15.81,34.55,12.67s28.53-8.45,39.75-.56a47.77,47.77,0,0,1,6.33,5.83l-21,15.17a12.14,12.14,0,0,0-4,4c-2.61,5.17,3.76,11.07,9.55,10.7s10.59-4.36,15.48-7.47a58.47,58.47,0,0,1,38.44-8.54,23.07,23.07,0,0,1-2.38,24.27c-1.44,1.83-3.23,3.53-3.81,5.79-1.48,5.74,5.83,10.18,11.72,9.5,15.32-1.78,21.71-20.22,33.16-30.55,11.88-10.72,29.2-12.36,45.2-12.52,12.19-.13,27,2,31.75,13.18,3.17,7.49.32,16,.16,24.16s5.28,18.1,13.28,16.61c8.83-1.65,9.24-13.78,11.72-22.42,2.3-8.05,7.77-14.21,14.57-19.19,17.27.09,34-7.22,50.11-14,5.94-2.49,12.26-5,18.63-4.06,5.5.8,10.27,4,15.1,6.77,2.28,1.3,4.61,2.48,7,3.57a40.81,40.81,0,0,1-14.9,25.19c7.71,12,26.45,4.63,37.34-4.61,5.2-4.41,11.51-9.1,17.89-11.83a99.25,99.25,0,0,0,16-1.2,15.32,15.32,0,0,1,3.9,2.33c7.58,6.2,7.63,18.62,15.34,24.65,7.91,6.21,21.11,1.39,24.68-8s-1.58-20.68-10.22-25.83c7.24-7.06,16.09-13,26.09-14.46,16.12-2.33,31.25,7.11,45.77,14.48s33.09,12.62,46.25,3a9.18,9.18,0,0,0,3.38-3.86c2.36-6-5.61-10.5-11.84-12-2.67-6.86,8.23-10.31,15.54-9.48q36.32,4.08,72.44,9.77c8,1.26,16.53,2.52,23.93-.78s12.43-13.13,7.82-19.79a12.93,12.93,0,0,0-4.74-4c18-1.84,35.78-4.74,52.82-10.55C1634.13,839.56,1651,830.22,1667.06,819.77Z"/><path class="cls-1" d="M1266.12,240.51c15.74-1.37,31.58-1.15,47.39-.92l124,1.77c2.92,0,6,.11,8.54,1.54,5.13,2.87,6.25,9.79,6.32,15.75.26,22.3-5.61,46.26,4.85,65.87,2.62,4.91,6.25,9.48,7.13,15s-2.65,12.32-8.14,12c-1.21-.07-2.54-.44-3.53.27s-1.12,2.21-1.1,3.49a375.86,375.86,0,0,0,14.49,97.19c1.16,4.05,2.41,8.26,1.71,12.42s-4,8.2-8.18,8.09c-3.86-.11-6.78-3.56-8.65-7-13.14-24,.2-55.71-10.81-80.81-1.3-2.95-3.39-6.08-6.55-6.39-4.51-.44-7.23,4.92-8.28,9.4a84.57,84.57,0,0,0-1.7,28.28c.77,7.11,2.11,15.34-2.72,20.53-5.8,6.22-17,2.84-21.5-4.42s-4.08-16.51-3-25a229.24,229.24,0,0,1,6-31.19c-7.55-7.07-18.08-11.32-28.2-9.6S1354.92,377,1354,387.4c-.81,8.64,3.68,16.74,6.62,24.88s3.93,18.51-2.33,24.42a15.77,15.77,0,0,1-8.76,3.95c-8.84,1.18-17.71-3.88-23-11.18s-7.41-16.5-8-25.53c-1.62-23.32,6-46.64,3.51-69.88-.23-2.21-.71-4.68-2.52-5.91a7,7,0,0,0-4.75-.72c-18.25,2-32.32,22.33-28.06,40.48,1.5,6.41,4.61,14,.16,18.86-3.27,3.53-9.32,3-13-.09s-5.3-8.08-5.89-12.89c-1.71-13.94,3.9-27.65,5.14-41.64.14-1.51.15-3.23-.89-4.31-1.24-1.28-3.3-1-5-.61a45.9,45.9,0,0,0-17.49,8.74c-4,3.24-8.34,7.44-13.4,6.61-6.16-1-8.72-9.37-6.33-15.23s7.88-9.69,13-13.33,10.43-7.87,12.18-14c2.15-7.49-2.22-15.89-8.91-19.7s-15.07-3.61-22.32-1c-2.17.76-4.44,1.74-6.69,1.27-3.67-.79-5.57-5.39-4.64-9.09s3.86-6.52,7-8.69c2.91-2,6.33-4,7.34-7.46s-3-7.88-5.73-5.62l-.56-7.1c9.45-5,10.34-4,20-2C1249.27,242.48,1257.45,240.51,1266.12,240.51Z"/><path class="cls-1" d="M1202.47,358.53a7,7,0,0,0,.08,2.66,6.39,6.39,0,0,0,1.32,2.41c2.92,3.59,8.42,5.18,12.29,2.7a11.85,11.85,0,0,0,2.81-2.71,16.3,16.3,0,0,0,3.45-7.72,10.51,10.51,0,0,0-2.14-8C1213.82,340.22,1203.35,351.92,1202.47,358.53Z"/><path class="cls-1" d="M1166.49,283.66c-6.7,1-13.87,2.17-18.76,6.94-1.7,1.66-3.1,4.13-2.28,6.38.65,1.78,2.48,2.81,4.24,3.44a21.63,21.63,0,0,0,13.45.34c1.41,1.88.56,4.6-.61,6.65-3.24,5.72-8.65,10.75-8.78,17.35a2.56,2.56,0,0,0,.5,1.86,2.35,2.35,0,0,0,1.37.6c4,.64,7.71-2.24,10.54-5.2,9.6-10.07,15.68-23,21.55-35.66.74-1.61,1.14-4.12-.53-4.65C1181.24,279.84,1172.47,282.79,1166.49,283.66Z"/><path class="cls-2" d="M1152.59,291.42a16.2,16.2,0,0,1,5.6-1.4,71.6,71.6,0,0,0,17.58-4.8,36.11,36.11,0,0,1-14,7.7c-1.79.51-8.38,4.67-9.69,4.45C1148.63,296.78,1149.44,293.14,1152.59,291.42Z"/><path class="cls-2" d="M1214.31,351a12.14,12.14,0,0,0-6.77,3.82,7.19,7.19,0,0,0-1.21,7.47c1.16,2.4,4.37,3.69,6.63,2.33a7.36,7.36,0,0,1,1.21-12.4"/><path class="cls-2" d="M1243,317.57l9.49-8.61,1.5-1.36c-1.53,6.75-6.16,12.3-10.24,17.9-1.31,1.79-5.76,5-8.06,2.6C1232.94,325.17,1241,319.43,1243,317.57Z"/><path class="cls-2" d="M1215.28,276.5c.89,2.75,5,4.06,6.69,1.71.57-.8-.16-6.85.94-9,1.24-2.38,3.54-4,4.52-6.46C1223.26,265.81,1213,269.43,1215.28,276.5Z"/><path class="cls-2" d="M1283.43,373.12c1.36,3.33,3.55,7,2,10.24a6.25,6.25,0,0,1-3.08,2.81,19.2,19.2,0,0,1-4.4,1.3c1-2.55.69-5.38.64-8.12S1280.84,366.78,1283.43,373.12Z"/><path class="cls-2" d="M1349.28,400.29c1.66,4.2,4.25,7.95,6.14,12s3.07,8.83,1.7,13.13a16.87,16.87,0,0,1-3.37,5.73c-1.87,2.22-4.23,4.25-7.07,4.7-2.61.41-5.22-.57-7.66-1.62-2.66-1.14-5.28-2.39-7.85-3.73,5,1.94,10.83-1.49,13.23-6.35s2.14-10.61,1.21-16c-.71-4.1-1.79-8.18-1.77-12.35,0-3,.55-6.19,2.54-8.31C1348.18,391.11,1347.68,396.25,1349.28,400.29Z"/><path class="cls-2" d="M1415.27,436.07a8.17,8.17,0,0,1-3.1,2.48c-2.21.85-4.78-.1-6.5-1.75a19.59,19.59,0,0,1-3.8-6c2.5,5.31,10.59-5.25,11.27-7.09,1.63-4.4.59-9.67,3.61-13.49C1419.09,419.09,1422,428.27,1415.27,436.07Z"/><path class="cls-2" d="M1464.07,456.46c.37,3.08.3,6.4-1.33,9s-5.26,4.16-7.89,2.58a44.1,44.1,0,0,0,2.89-21.05c-.51-4.82-4.3-11.39-1.83-15.9C1459.5,438.72,1463.05,448,1464.07,456.46Z"/><path class="cls-2" d="M1458.84,346.31a7.75,7.75,0,0,1-7,2.64c2.47.39.19-17.73,2.24-19.67C1457.65,333.62,1463.65,340.6,1458.84,346.31Z"/><path class="cls-7" d="M1201.17,543.45h-.72"/><path class="cls-2" d="M1351.68,268.39c-8.14.93-14.37,7.62-19.34,14.24s-9.86,13.93-17.39,17.2c-3.7,1.61-7.76,2.1-11.62,3.27-4.13,1.26-7.6,3.95-11.4,5.5-3.88-6.6,19.08-21.53,23.89-24.67A114.32,114.32,0,0,1,1351.68,268.39Z"/><path class="cls-2" d="M1272.23,250.84c-5.26-.19-23.58,14.06-27,10.3C1237.89,252.88,1269.54,250.74,1272.23,250.84Z"/><path class="cls-2" d="M1415.89,281.88a55.92,55.92,0,0,1,8.79,38.28c-.43,3.13-1.13,6.26-.94,9.41.27,4.6,4.33,20.4,9.71,17.58,5.68-3,3.79-17.24,3.28-22.21a72,72,0,0,0-6.71-23.72C1426.34,293.58,1420.42,288.65,1415.89,281.88Z"/><path class="cls-2" d="M1385.45,310.75c-9.33,2.95-18.1,8.27-24.2,16a37.27,37.27,0,0,0-8,20.2c-.64,9.26,2.37,11.63,6.08,2.44C1365.27,334.73,1373.84,321.48,1385.45,310.75Z"/><path class="cls-2" d="M1438.36,246.71c1.88,0,3.93,0,5.37,1.26,1.68,1.44,1.93,3.93,2,6.16a218.49,218.49,0,0,1-2.29,41.36l-.49-17.57c-.22-7.71-.92-16.47-6.88-21.25-6.64-5.32-15-2-22-4.76C1417.74,245.32,1432.1,246.81,1438.36,246.71Z"/><path class="cls-2" d="M1028.81,798c4.85,1.41,9.59,3.6,14.65,3.72,10.19.26,18.48-7.61,27.6-12.17,13.87-6.92,33.81-4.34,40.76,9.52-8-1.19-15.59-5.2-23.7-5.21-14.84,0-26.57,13.09-41.12,16-11.43,2.26-23.26-2-34.83-.71-17.26,2-31,16.62-48.44,17C980.1,807,1001.74,790.11,1028.81,798Z"/><path class="cls-2" d="M898.58,867.57c-2.89.3-4.64-3.66-3.45-6.3s4-4.11,6.61-5.37c9.73-4.71,19.7-9.49,30.44-10.76-7.9,2.57-15,7-22.07,11.46-5.56,3.49-11.7,7.9-12.29,14.43-.07.76,1.37-.19.66-.43"/><path class="cls-2" d="M984.59,868.77c13.86-6.59,28.66-11.26,41.91-19a222.57,222.57,0,0,1-36.73,24.34c-7.69,4.07-15.72,7.75-22.29,13.45-6,5.24-12.41,14.52-21.07,14.12C952.46,887.11,970.87,875.3,984.59,868.77Z"/><path class="cls-2" d="M1186.86,780.13c1-3.89,1.94-7.89,4.21-11.19s6.16-5.8,10.13-5.28c2.54.33,4.76,1.81,6.86,3.27,8.21,5.71,16.91,13.12,17.35,23.12-6-4.29-12.3-8.68-19.53-10.31s-15.77.16-20,6.25a29.59,29.59,0,0,1,6.4-11"/><path class="cls-2" d="M1360.52,797.6c-14.68,3.45-27.29,11.94-42.88,8.55-9.69-2.11-24-6.73-32.54-11.14,5-6.42,19.65-7.27,27.24-5.69C1330.67,793.12,1340.25,802.36,1360.52,797.6Z"/><path class="cls-2" d="M1446.17,776.68c9.17,9.8,24.72,8.7,38,7.09s29.12-2,37.54,8.43c4.79,5.95,5.82,14,6.68,21.59-4.4-14-19.67-23.71-34.22-21.72-8.41,1.15-16.35,5.69-24.82,5.15-9-.58-16.57-6.74-24.78-10.56-11.74-5.46-24.14-5.28-36.42-2.08-8.89,2.31-12,6.2-8.81-4.08,2.19-7,12-16,18.62-18.75C1433.38,755.46,1437.44,767.35,1446.17,776.68Z"/><path class="cls-2" d="M1591.24,819.72c6,.73,11.37,4.09,17,6.42a52.12,52.12,0,0,0,21.36,3.93c-4.63,2.87-10.44,2.85-15.89,2.74-9.35-.19-27.38,2-35.63-2.89C1566.64,823.08,1582.85,818.7,1591.24,819.72Z"/><path class="cls-2" d="M1500.34,846.54c15.25,3.42,30.53,6.84,45.38,11.72,3.3,1.08,6.72,2.33,9,4.91a10.43,10.43,0,0,1-11,16.9,25.39,25.39,0,0,0-11.22-17.9c-8-5.21-18.2-5.36-27.68-6.74-7.88-1.14-19.57-4.22-22.13-12.33C1488.65,843.44,1494.56,845.25,1500.34,846.54Z"/><path class="cls-2" d="M1444.47,882.14a78.37,78.37,0,0,0-31-19.39c-4.54-1.52-9.32-2.67-13.25-5.41a52.78,52.78,0,0,1-6.71-6.24,68.64,68.64,0,0,0-17.76-12.8,44.4,44.4,0,0,0,24.32,28.43c9,4,20.16,5.55,25.82,13.68,2.92,4.2,9.72,14.23,15.38,14.5C1449.38,895.29,1450.71,888.52,1444.47,882.14Z"/><path class="cls-2" d="M1264.32,859.82c-5.16,12.12-1.78,26.67-7.31,38.63-1.48,3.21-3.62,6.75-2.23,10,.55,1.31,1.66,2.43,1.77,3.84a5.63,5.63,0,0,1-1.24,3.39c-1.83,2.81-4.2,5.78-7.54,6.11C1235.62,923,1261.38,866.72,1264.32,859.82Z"/><path class="cls-2" d="M1343.08,908.57a38.07,38.07,0,0,0-8.93-17.92c-3.6-4-8-7.1-12-10.74s-7.52-8-8.62-13.28a55.88,55.88,0,0,0,10.15,22.2c3.4,4.48,7.54,8.54,9.61,13.77,3.27,8.26.33,16.61-4.3,23.6,3.17,2.22,9.9-.26,12-3C1344.13,919.17,1344,913.29,1343.08,908.57Z"/><path class="cls-2" d="M1010.11,901c1.5-4.93,5.34-8.73,9-12.32,4.9-4.74,10.07-9.65,16.62-11.54-8.62,9.67-17,20.19-20.27,32.71-1.48,5.56-2.53,14.33-9.47,15.44C1005.92,919.07,1008.25,907.1,1010.11,901Z"/><path class="cls-2" d="M1141.19,855c-4.67,2.61-6.33,8.4-7.57,13.61l-8.71,36.59c-1.59,6.67-3.19,13.57-2,20.33.86,4.8,3.52,9.67,8.08,11.39,1.16-9.14-2.76-18.15-3.23-27.36-.36-7.22,1.41-14.36,3.17-21.38l5.19-20.73"/><path d="M681.14,640V623.41l-14.46-22.85H676l9.29,15.61,9.1-15.61h9.18l-14.51,22.91V640Z"/><path d="M701.65,625.33a15.44,15.44,0,0,1,1.86-7.3,12.78,12.78,0,0,1,5.26-5.39,15.72,15.72,0,0,1,7.61-1.85A14.25,14.25,0,0,1,727,615a14.54,14.54,0,0,1,4.15,10.65A14.73,14.73,0,0,1,727,636.41a14.15,14.15,0,0,1-10.54,4.26,16.6,16.6,0,0,1-7.49-1.77,12.27,12.27,0,0,1-5.43-5.21A17.36,17.36,0,0,1,701.65,625.33Zm7.76.4q0,4.26,2,6.52a6.59,6.59,0,0,0,9.94,0q2-2.26,2-6.57a9.44,9.44,0,0,0-2-6.47,6.59,6.59,0,0,0-9.94,0Q709.41,621.48,709.41,625.73Z"/><path d="M755.9,640v-4.28a11.08,11.08,0,0,1-4.1,3.6,11.52,11.52,0,0,1-5.37,1.32,10.53,10.53,0,0,1-5.17-1.26,7.46,7.46,0,0,1-3.31-3.56,15.66,15.66,0,0,1-1-6.32v-18.1h7.57v13.14c0,4,.14,6.49.42,7.39a4,4,0,0,0,1.52,2.16,4.66,4.66,0,0,0,2.8.79,5.93,5.93,0,0,0,3.47-1.06,5.45,5.45,0,0,0,2.1-2.64q.57-1.58.57-7.71V611.43h7.56V640Z"/><path d="M783.42,631.87l7.59-1.16a5.58,5.58,0,0,0,2,3.35,6.6,6.6,0,0,0,4.14,1.15,7.48,7.48,0,0,0,4.42-1.08,2.42,2.42,0,0,0,1-2,2,2,0,0,0-.54-1.43,6.11,6.11,0,0,0-2.53-1c-6.11-1.35-10-2.58-11.61-3.69a7.37,7.37,0,0,1-3.39-6.44,7.91,7.91,0,0,1,2.94-6.24c2-1.69,5-2.53,9.1-2.53,3.91,0,6.82.63,8.72,1.91a9.78,9.78,0,0,1,3.93,5.65L802,619.67a4.49,4.49,0,0,0-1.74-2.56,6.37,6.37,0,0,0-3.65-.88,8.19,8.19,0,0,0-4.28.83,1.81,1.81,0,0,0-.86,1.53,1.69,1.69,0,0,0,.75,1.38q1,.75,7.07,2.12t8.44,3.37a7,7,0,0,1,2.37,5.63,8.65,8.65,0,0,1-3.29,6.76c-2.19,1.88-5.42,2.82-9.72,2.82q-5.83,0-9.24-2.37A10.92,10.92,0,0,1,783.42,631.87Z"/><path d="M833.31,630.93l7.54,1.26a12.32,12.32,0,0,1-4.59,6.31,13.45,13.45,0,0,1-7.85,2.17q-7.45,0-11-4.87a16.4,16.4,0,0,1-2.83-9.85q0-7.11,3.72-11.14a12.25,12.25,0,0,1,9.4-4A12.69,12.69,0,0,1,837.73,615q3.69,4.21,3.52,12.91h-19a7.64,7.64,0,0,0,1.83,5.24,5.75,5.75,0,0,0,4.36,1.87,4.61,4.61,0,0,0,3-1A6,6,0,0,0,833.31,630.93Zm.43-7.65a7.27,7.27,0,0,0-1.69-5,5.47,5.47,0,0,0-8,.09,7.05,7.05,0,0,0-1.59,4.9Z"/><path d="M873.43,640h-7.57v-14.6a22.82,22.82,0,0,0-.48-6,4.24,4.24,0,0,0-1.58-2.11,4.49,4.49,0,0,0-2.62-.75,6.05,6.05,0,0,0-3.53,1.07,5.45,5.45,0,0,0-2.14,2.86,24.44,24.44,0,0,0-.58,6.57V640h-7.56v-28.6h7v4.2a11.46,11.46,0,0,1,9.43-4.84,11.33,11.33,0,0,1,4.57.9,7.72,7.72,0,0,1,3.14,2.3,8.3,8.3,0,0,1,1.48,3.18,23.46,23.46,0,0,1,.42,5.09Z"/><path d="M894.21,611.43v6H889V629a28.39,28.39,0,0,0,.15,4.08,1.68,1.68,0,0,0,.68.95,2.12,2.12,0,0,0,1.27.38,9.7,9.7,0,0,0,3.05-.73l.64,5.87a14.92,14.92,0,0,1-6,1.13,9.59,9.59,0,0,1-3.69-.68,5.35,5.35,0,0,1-2.41-1.78,7.09,7.09,0,0,1-1.07-3,37.05,37.05,0,0,1-.24-5.33V617.46H878v-6h3.47v-5.68l7.59-4.41v10.09Z"/><path d="M1034.3,640v-5.9l10.72-12.3c1.75-2,3.06-3.44,3.9-4.29-.88.06-2,.09-3.47.11l-10.1.06v-6.28H1059v5.36l-10.93,12.6-3.85,4.17q3.15-.18,3.9-.18h11.71V640Z"/><path d="M1063.16,625.33A15.44,15.44,0,0,1,1065,618a12.78,12.78,0,0,1,5.26-5.39,15.72,15.72,0,0,1,7.61-1.85,14.25,14.25,0,0,1,10.63,4.21,14.54,14.54,0,0,1,4.15,10.65,14.73,14.73,0,0,1-4.19,10.76,14.15,14.15,0,0,1-10.54,4.26,16.6,16.6,0,0,1-7.49-1.77,12.27,12.27,0,0,1-5.43-5.21A17.36,17.36,0,0,1,1063.16,625.33Zm7.76.4q0,4.26,2,6.52a6.59,6.59,0,0,0,9.94,0q2-2.26,2-6.57a9.44,9.44,0,0,0-2-6.47,6.59,6.59,0,0,0-9.94,0Q1070.92,621.48,1070.92,625.73Z"/><path d="M1098,611.43h7v3.91a11.21,11.21,0,0,1,8.91-4.55,9.54,9.54,0,0,1,4.77,1.13,8.6,8.6,0,0,1,3.31,3.42,13.08,13.08,0,0,1,4.07-3.42,9.86,9.86,0,0,1,4.65-1.13,10.35,10.35,0,0,1,5.34,1.28,7.78,7.78,0,0,1,3.25,3.75,16.34,16.34,0,0,1,.78,5.93V640h-7.56V623.68q0-4.24-.78-5.49a3.58,3.58,0,0,0-3.23-1.61,5.18,5.18,0,0,0-3,1,5.37,5.37,0,0,0-2,2.84,20.56,20.56,0,0,0-.62,5.91V640h-7.57V624.36a21.79,21.79,0,0,0-.4-5.39,3.43,3.43,0,0,0-1.25-1.8,3.92,3.92,0,0,0-2.3-.59,5.48,5.48,0,0,0-3.15.94,5.11,5.11,0,0,0-2,2.72,20.27,20.27,0,0,0-.61,5.89V640H1098Z"/><path d="M1147.3,640V600.56h7.57v14.21a10.7,10.7,0,0,1,8.29-4,11.15,11.15,0,0,1,8.64,3.78q3.42,3.78,3.42,10.86,0,7.34-3.49,11.28a10.86,10.86,0,0,1-8.46,4,10.56,10.56,0,0,1-4.84-1.22,11.64,11.64,0,0,1-4.1-3.62V640Zm7.51-14.92q0,4.44,1.4,6.57a6,6,0,0,0,5.23,3,5.34,5.34,0,0,0,4.26-2.15q1.77-2.13,1.77-6.74c0-3.27-.6-5.62-1.78-7.07a5.88,5.88,0,0,0-9.07,0Q1154.81,620.81,1154.81,625.11Z"/><path d="M1181.31,607.56v-7h7.56v7Zm0,32.47v-28.6h7.56V640Z"/><path d="M1213.18,630.93l7.54,1.26a12.32,12.32,0,0,1-4.59,6.31,13.45,13.45,0,0,1-7.85,2.17q-7.46,0-11-4.87a16.4,16.4,0,0,1-2.82-9.85q0-7.11,3.71-11.14a12.25,12.25,0,0,1,9.4-4A12.69,12.69,0,0,1,1217.6,615q3.69,4.21,3.53,12.91h-19a7.69,7.69,0,0,0,1.83,5.24,5.75,5.75,0,0,0,4.36,1.87,4.61,4.61,0,0,0,3-1A6,6,0,0,0,1213.18,630.93Zm.43-7.65a7.27,7.27,0,0,0-1.69-5,5.21,5.21,0,0,0-3.93-1.71,5.27,5.27,0,0,0-4.1,1.8,7,7,0,0,0-1.58,4.9Z"/><path d="M1224.63,631.87l7.59-1.16a5.57,5.57,0,0,0,2,3.35,6.61,6.61,0,0,0,4.15,1.15,7.48,7.48,0,0,0,4.42-1.08,2.41,2.41,0,0,0,1-2,2,2,0,0,0-.54-1.43,6.05,6.05,0,0,0-2.53-1q-9.15-2-11.6-3.69a7.37,7.37,0,0,1-3.39-6.44,7.9,7.9,0,0,1,2.93-6.24q2.94-2.54,9.1-2.53c3.91,0,6.82.63,8.73,1.91a9.78,9.78,0,0,1,3.93,5.65l-7.14,1.32a4.4,4.4,0,0,0-1.74-2.56,6.34,6.34,0,0,0-3.64-.88,8.23,8.23,0,0,0-4.29.83,1.81,1.81,0,0,0-.86,1.53,1.67,1.67,0,0,0,.76,1.38c.68.5,3,1.21,7.06,2.12s6.85,2,8.45,3.37a7,7,0,0,1,2.36,5.63,8.64,8.64,0,0,1-3.28,6.76q-3.29,2.82-9.72,2.82c-3.89,0-7-.79-9.25-2.37A10.9,10.9,0,0,1,1224.63,631.87Z"/><path d="M694.34,706.2V666.72h7.57v14.22a10.69,10.69,0,0,1,8.29-4,11.15,11.15,0,0,1,8.64,3.78q3.42,3.78,3.42,10.86,0,7.33-3.48,11.28a10.89,10.89,0,0,1-8.47,4,10.49,10.49,0,0,1-4.83-1.22,11.67,11.67,0,0,1-4.11-3.62v4.2Zm7.51-14.92q0,4.44,1.4,6.57a6,6,0,0,0,5.23,3,5.35,5.35,0,0,0,4.27-2.14q1.75-2.13,1.76-6.74c0-3.27-.59-5.62-1.78-7.07a5.63,5.63,0,0,0-4.55-2.17,5.7,5.7,0,0,0-4.52,2.12C702.46,686.27,701.85,688.41,701.85,691.28Z"/><path d="M734,686.33l-6.86-1.24a10.69,10.69,0,0,1,4-6.14q2.83-2,8.4-2,5.07,0,7.54,1.19a7.59,7.59,0,0,1,3.49,3.05c.67,1.23,1,3.48,1,6.77l-.08,8.83a31,31,0,0,0,.36,5.56,16,16,0,0,0,1.36,3.84h-7.49c-.19-.51-.44-1.25-.72-2.24-.13-.45-.22-.74-.27-.89a13.75,13.75,0,0,1-4.15,2.83,11.83,11.83,0,0,1-4.71.94,9.79,9.79,0,0,1-7-2.39,8,8,0,0,1-2.55-6.06,8.12,8.12,0,0,1,1.16-4.32,7.53,7.53,0,0,1,3.25-2.91,25.73,25.73,0,0,1,6-1.77,41.21,41.21,0,0,0,7.35-1.85v-.76a3.92,3.92,0,0,0-1.07-3.11c-.72-.62-2.07-.93-4.07-.93a5.44,5.44,0,0,0-3.15.8A5.57,5.57,0,0,0,734,686.33Zm10.12,6.13a44.74,44.74,0,0,1-4.6,1.16,14,14,0,0,0-4.12,1.32,3.15,3.15,0,0,0-1.48,2.67,3.7,3.7,0,0,0,1.19,2.74,4.13,4.13,0,0,0,3,1.16,6.52,6.52,0,0,0,3.9-1.35,4.71,4.71,0,0,0,1.81-2.5,14.9,14.9,0,0,0,.29-3.69Z"/><path d="M784,686.06l-7.46,1.34a5.37,5.37,0,0,0-1.71-3.36,5.13,5.13,0,0,0-3.46-1.13,5.65,5.65,0,0,0-4.51,2q-1.68,1.95-1.68,6.53,0,5.08,1.71,7.19a5.61,5.61,0,0,0,4.59,2.1,5.07,5.07,0,0,0,3.52-1.23,7.36,7.36,0,0,0,1.94-4.21l7.43,1.26a13.18,13.18,0,0,1-4.44,7.73q-3.28,2.61-8.8,2.61a13.1,13.1,0,0,1-10-4c-2.48-2.63-3.73-6.29-3.73-11s1.25-8.4,3.75-11S767,677,771.21,677a13.9,13.9,0,0,1,8.31,2.24A12.52,12.52,0,0,1,784,686.06Z"/><path d="M789.41,706.2V666.72H797v20.95l8.85-10.07h9.32l-9.77,10.45,10.47,18.15h-8.16l-7.19-12.85L797,697v9.16Z"/><path d="M848.78,677.6v6h-5.17v11.53a28.39,28.39,0,0,0,.15,4.08,1.66,1.66,0,0,0,.67,1,2.15,2.15,0,0,0,1.28.38,9.66,9.66,0,0,0,3-.73l.65,5.87a15.11,15.11,0,0,1-6,1.13,9.66,9.66,0,0,1-3.69-.68,5.48,5.48,0,0,1-2.41-1.78,7.09,7.09,0,0,1-1.06-3,37.05,37.05,0,0,1-.24-5.33V683.63h-3.48v-6H836v-5.68l7.59-4.42v10.1Z"/><path d="M852.28,691.5a15.44,15.44,0,0,1,1.86-7.3,12.78,12.78,0,0,1,5.26-5.39A15.72,15.72,0,0,1,867,677a14.26,14.26,0,0,1,10.63,4.21,14.54,14.54,0,0,1,4.15,10.65,14.73,14.73,0,0,1-4.19,10.75,14.12,14.12,0,0,1-10.54,4.27,16.55,16.55,0,0,1-7.5-1.78,12.15,12.15,0,0,1-5.42-5.21A17.29,17.29,0,0,1,852.28,691.5Zm7.75.4c0,2.84.68,5,2,6.51a6.59,6.59,0,0,0,10,0q2-2.25,2-6.57a9.41,9.41,0,0,0-2-6.46,6.61,6.61,0,0,0-10,0C860.71,686.89,860,689.06,860,691.9Z"/><path d="M916.14,677.6v6H911v11.53a28.39,28.39,0,0,0,.15,4.08,1.66,1.66,0,0,0,.67,1,2.18,2.18,0,0,0,1.28.38,9.7,9.7,0,0,0,3-.73l.64,5.87a15.09,15.09,0,0,1-6,1.13,9.59,9.59,0,0,1-3.69-.68,5.42,5.42,0,0,1-2.41-1.78,7.09,7.09,0,0,1-1.07-3,37.05,37.05,0,0,1-.24-5.33V683.63h-3.47v-6h3.47v-5.68L911,667.5v10.1Z"/><path d="M928.93,666.72v14.52a11.36,11.36,0,0,1,13.46-3.32,7.81,7.81,0,0,1,3.17,2.48,9,9,0,0,1,1.45,3.34,29.84,29.84,0,0,1,.39,5.68V706.2h-7.56V691.09a22.76,22.76,0,0,0-.43-5.71,3.76,3.76,0,0,0-1.53-1.92,4.82,4.82,0,0,0-2.73-.72,6.25,6.25,0,0,0-3.36.92,5.28,5.28,0,0,0-2.17,2.76,16.41,16.41,0,0,0-.69,5.45V706.2h-7.56V666.72Z"/><path d="M971.63,697.09l7.54,1.27a12.36,12.36,0,0,1-4.59,6.31,13.45,13.45,0,0,1-7.85,2.17q-7.46,0-11-4.87a16.41,16.41,0,0,1-2.82-9.86c0-4.73,1.24-8.45,3.71-11.13a12.25,12.25,0,0,1,9.4-4,12.69,12.69,0,0,1,10.07,4.21q3.69,4.22,3.53,12.91h-19a7.74,7.74,0,0,0,1.83,5.24,5.75,5.75,0,0,0,4.36,1.87,4.65,4.65,0,0,0,3-1A6,6,0,0,0,971.63,697.09Zm.43-7.64a7.26,7.26,0,0,0-1.69-5,5.45,5.45,0,0,0-8,.1,6.94,6.94,0,0,0-1.59,4.9Z"/><path d="M985.74,673.72v-7h7.57v7Zm0,32.48V677.6h7.57v28.6Z"/><path d="M1008.3,706.2h-7.56V677.6h7v4.07a12.22,12.22,0,0,1,3.24-3.8,6,6,0,0,1,3.27-.91,9.62,9.62,0,0,1,5,1.42l-2.34,6.6a6.6,6.6,0,0,0-3.55-1.24,4.19,4.19,0,0,0-2.7.88,6,6,0,0,0-1.73,3.16c-.42,1.52-.64,4.72-.64,9.58Z"/><path d="M1037.14,708.08l8.64,1a3,3,0,0,0,1,2.07,5.68,5.68,0,0,0,3.39.81,8.79,8.79,0,0,0,4.44-.89,3.61,3.61,0,0,0,1.51-1.91,11.61,11.61,0,0,0,.35-3.47v-4.18a10.23,10.23,0,0,1-8.56,4.64,10.56,10.56,0,0,1-9.13-4.88,16.53,16.53,0,0,1-2.64-9.58q0-7.2,3.46-11a11.18,11.18,0,0,1,8.61-3.79,10.49,10.49,0,0,1,8.75,4.65v-4H1064v25.66a25.47,25.47,0,0,1-.84,7.57,9.24,9.24,0,0,1-2.34,3.93,10.44,10.44,0,0,1-4,2.23,21.07,21.07,0,0,1-6.36.81q-7.28,0-10.31-2.49a7.82,7.82,0,0,1-3.05-6.31C1037.11,708.74,1037.12,708.44,1037.14,708.08Zm6.76-16.77q0,4.55,1.76,6.66a5.46,5.46,0,0,0,4.35,2.11,6,6,0,0,0,4.68-2.16q1.92-2.17,1.92-6.42,0-4.46-1.83-6.6a5.84,5.84,0,0,0-4.64-2.16,5.59,5.59,0,0,0-4.48,2.12Q1043.91,687,1043.9,691.31Z"/><path d="M1078.76,706.2h-7.56V677.6h7v4.07a12.22,12.22,0,0,1,3.24-3.8,6,6,0,0,1,3.27-.91,9.59,9.59,0,0,1,5,1.42l-2.34,6.6a6.6,6.6,0,0,0-3.55-1.24,4.19,4.19,0,0,0-2.7.88,6,6,0,0,0-1.73,3.16c-.42,1.52-.64,4.72-.64,9.58Z"/><path d="M1098.63,686.33l-6.86-1.24a10.69,10.69,0,0,1,4-6.14q2.84-2,8.4-2,5.07,0,7.54,1.19a7.54,7.54,0,0,1,3.49,3.05c.67,1.23,1,3.48,1,6.77l-.08,8.83a31,31,0,0,0,.36,5.56,16.48,16.48,0,0,0,1.36,3.84h-7.48c-.2-.51-.44-1.25-.73-2.24-.13-.45-.22-.74-.27-.89a13.51,13.51,0,0,1-4.15,2.83,11.83,11.83,0,0,1-4.71.94,9.79,9.79,0,0,1-7-2.39,8.55,8.55,0,0,1-1.38-10.38,7.51,7.51,0,0,1,3.24-2.91,25.84,25.84,0,0,1,6-1.77,41.7,41.7,0,0,0,7.35-1.85v-.76a3.92,3.92,0,0,0-1.08-3.11c-.72-.62-2.07-.93-4.06-.93a5.39,5.39,0,0,0-3.15.8A5.52,5.52,0,0,0,1098.63,686.33Zm10.13,6.13a45.81,45.81,0,0,1-4.61,1.16,13.77,13.77,0,0,0-4.11,1.32,3.16,3.16,0,0,0-1.49,2.67,3.7,3.7,0,0,0,1.19,2.74,4.13,4.13,0,0,0,3,1.16,6.55,6.55,0,0,0,3.91-1.35,4.75,4.75,0,0,0,1.8-2.5,14.75,14.75,0,0,0,.3-3.69Z"/><path d="M1131.51,706.2,1120,677.6h7.94l5.38,14.59,1.56,4.88c.42-1.24.68-2.06.79-2.45.25-.81.52-1.62.8-2.43l5.44-14.59h7.78l-11.36,28.6Z"/><path d="M1170.87,697.09l7.54,1.27a12.36,12.36,0,0,1-4.59,6.31,13.45,13.45,0,0,1-7.85,2.17q-7.46,0-11-4.87a16.41,16.41,0,0,1-2.82-9.86c0-4.73,1.24-8.45,3.71-11.13a12.25,12.25,0,0,1,9.4-4,12.69,12.69,0,0,1,10.07,4.21q3.69,4.22,3.53,12.91h-19a7.64,7.64,0,0,0,1.83,5.24,5.75,5.75,0,0,0,4.36,1.87,4.67,4.67,0,0,0,3-1A6,6,0,0,0,1170.87,697.09Zm.43-7.64a7.31,7.31,0,0,0-1.69-5,5.21,5.21,0,0,0-3.93-1.71,5.28,5.28,0,0,0-4.1,1.81,7,7,0,0,0-1.58,4.9Z"/><path d="M1182.32,698l7.59-1.16a5.57,5.57,0,0,0,2,3.35,6.61,6.61,0,0,0,4.15,1.15,7.48,7.48,0,0,0,4.42-1.08,2.41,2.41,0,0,0,1-2,2,2,0,0,0-.54-1.43,5.92,5.92,0,0,0-2.53-1q-9.15-2-11.6-3.69a7.38,7.38,0,0,1-3.39-6.44,7.9,7.9,0,0,1,2.93-6.24q2.94-2.54,9.1-2.53c3.91,0,6.82.63,8.72,1.91a9.69,9.69,0,0,1,3.93,5.65l-7.13,1.32a4.44,4.44,0,0,0-1.74-2.56,6.35,6.35,0,0,0-3.64-.89,8.22,8.22,0,0,0-4.29.84,1.8,1.8,0,0,0-.86,1.53,1.67,1.67,0,0,0,.76,1.38q1,.75,7.06,2.12c4,.92,6.85,2,8.44,3.37a7,7,0,0,1,2.37,5.63,8.61,8.61,0,0,1-3.28,6.75q-3.29,2.84-9.72,2.83-5.85,0-9.25-2.37A10.9,10.9,0,0,1,1182.32,698Z"/><path d="M1218.61,696l-2-20v-9.27h8.19V676l-1.94,20ZM1217,706.2v-7.57h7.56v7.57Z"/><path class="cls-2" d="M1220,831.27a17.07,17.07,0,0,0,14.17,2c2.93-.9,5.66-2.62,8.72-2.81,6.07-.38,10.7,5.12,14.25,10.07l-39.24-1.16a111.17,111.17,0,0,0-13.66.16c-6.82.65-46.37,7.61-28.17-6.89,5.39-4.29,12.78-8.35,19.53-9.87C1206.72,820.23,1211.44,825.72,1220,831.27Z"/></svg>