<svg xmlns="http://www.w3.org/2000/svg" xmlns:xlink="http://www.w3.org/1999/xlink" viewBox="0 0 500 200"><defs><style>.cls-1{filter:url(#AI_Shadow_2);}.cls-2{fill:#666;}.cls-3{fill:#999;}.cls-4{fill:#4d4d4d;}.cls-5{fill:#b3b3b3;}.cls-6{filter:url(#AI_Shadow_1);}.cls-7{fill:#91fa00;}.cls-8{fill:#d2f78b;}</style><filter id="AI_Shadow_2" x="-15%" y="-15%" width="140%" height="130%" name="AI_Shadow_2"><feGaussianBlur result="blur" stdDeviation="6" in="SourceAlpha"/><feOffset result="offsetBlurredAlpha" dx="8" dy="8" in="blur"/><feMerge><feMergeNode in="offsetBlurredAlpha"/><feMergeNode in="SourceGraphic"/></feMerge></filter><filter id="AI_Shadow_1" name="AI_Shadow_1"><feGaussianBlur result="blur" stdDeviation="2" in="SourceAlpha"/><feOffset result="offsetBlurredAlpha" dx="4" dy="4" in="blur"/><feMerge><feMergeNode in="offsetBlurredAlpha"/><feMergeNode in="SourceGraphic"/></feMerge></filter></defs><g id="LOAD"><g class="cls-1"><path class="cls-2" d="M6.33,7.64c2.4,2.53,5.39,4.44,7.92,6.83,1.59,1.5,3,3.11,5,4.07a9.35,9.35,0,0,1,3.57,3.92,4.85,4.85,0,0,1,.9,2,25.2,25.2,0,0,1,0,3c0,1.14-.35,2.06-.41,3.16s0,2.3,0,3.43v7.46a53.33,53.33,0,0,0,.36,9.13,38.48,38.48,0,0,1,.43,6.63,26.3,26.3,0,0,1,0,3.2c-.24,1.78-2.06,2.59-1.6,4.62A13.87,13.87,0,0,0,23.45,67c.27.7.38,1.44.68,2.14a7.76,7.76,0,0,1,.39,3.33c0,1-.08,2.07,0,3.08s.39,1.67.42,2.58c.06,1.79.39,3.48.38,5.29,0,3.2.47,6.83-.19,10-.48,2.23.6,4.09.59,6.35,0,.8,0,1.6,0,2.4s.37,1.8.44,2.73c.12,1.73,0,3.59,0,5.32s-.41,3.41-.41,5.17a26,26,0,0,1-.49,5.57c-.58,2.68-1,5.46-1.51,8.18a42.55,42.55,0,0,0-.37,7.57c0,1,0,2,0,3.05,0,1.38-.35,2.66-.43,4-.13,2.12,0,4.3,0,6.43a15.16,15.16,0,0,0,.5,4.08c.18.74.49,1.52.63,2.28.07.4,0,.93.06,1.3s.34.58.41,1.1a28.8,28.8,0,0,1,0,3.83,16.19,16.19,0,0,1-.39,4c-.27,1.12-.2,2.17-1,3a8.65,8.65,0,0,1-.79.81c-.48.36-.66.23-1.2.38s-.72.32-1.16.43-1.16-.11-1.73,0a5.18,5.18,0,0,1-.14.66c-1.26.08-3.07,1.37-4,2.05s-.93,1-1.89,1.22a11.28,11.28,0,0,0-2.4.8c-1.23.55-2.64,1.07-3.92,1.62-.56.24-1.2.31-1.79.62s-1.29.84-1.9,1.22a4.85,4.85,0,0,1-.79-3.53A23.13,23.13,0,0,0,2,169a26.33,26.33,0,0,0-1.62-7.1c-.87-2.6-.08-4.67.64-7.17a6.25,6.25,0,0,0,.11-3c-.28-1.07-.93-2-.76-3.13a45.35,45.35,0,0,0,.82-6.77,22.44,22.44,0,0,1,0-2.72c.1-.83.59-1.47.72-2.33.47-2.95,0-6.14.06-9.13.06-1.76.6-3.2.06-4.92a37.64,37.64,0,0,1-1.44-5.42,26.16,26.16,0,0,1,1-11.15,24.8,24.8,0,0,0,.81-3A10.37,10.37,0,0,0,1.9,99.5a32.74,32.74,0,0,1-1.12-7c0-1.2,0-2.41,0-3.61A9.17,9.17,0,0,1,1,85.74c.29-.74.81-1,1-1.93a22,22,0,0,0,.05-4c0-4.14.32-8.38-.37-12.48C1.23,65,.4,62.74.38,60.42A19.12,19.12,0,0,0,.2,57.59c-.49-3.52.47-6,1.42-9.33.76-2.65.07-5.74,0-8.48s-.35-5.58-.71-8.3a55,55,0,0,1-.09-7c0-.77-.07-1.57,0-2.33a15.6,15.6,0,0,1,.84-3c.66-2.69.41-5.66.37-8.42,0-1-.15-1,.58-1.46A30.87,30.87,0,0,0,6.33,7.64Z"/><path class="cls-3" d="M467.54,19.59c.57.13,1-.59,1.44-1,.8-.81,1.62-1.57,2.41-2.41.58-.63,1-1.39,1.58-2.09s1.3-1.76,2-2.54,1.51-1.3,2.22-2a26.44,26.44,0,0,0,2.55-3.71c.31-.42.76-1.11,1.22-1.21s.45.21.77.31.72-.2,1.08-.27c.18,2,.49,3.9.48,5.91,0,1.3,0,2.61,0,3.91a21.89,21.89,0,0,0,.1,4.21,21.61,21.61,0,0,0,1,3.13c.48,1.34.33,3.07.59,4.49.34,1.84.33,3.72.64,5.56a51.76,51.76,0,0,1,.73,5.84c.06.9-.07,1.84.07,2.73.08.56.26,1.1.35,1.67.2,1.35.43,2.66.67,4a13.75,13.75,0,0,1-.18,4.05c-.24,1.9-.43,3.74-.61,5.65-.12,1.19-.2,2.36-.29,3.54-.11,1.39-.44,2.61-.43,4q0,3.32,0,6.63a12.33,12.33,0,0,0,.29,2.44c.17.9.15,1.84.27,2.75s.3,2,.46,3c.11.77.08,1.53.15,2.31.31,3.4.17,6.87.17,10.29v-.19a38.36,38.36,0,0,0,0,4.29,46.36,46.36,0,0,0,.67,5.45c.33,1.32,0,2.66,0,4.05a39.43,39.43,0,0,1,0,4.35,20,20,0,0,0-.49,4.65c.1.78.43,1.39.52,2.17a16.4,16.4,0,0,1,0,3.43c-.23,2-1,3.8-1,5.86a36.29,36.29,0,0,0,.18,5.22,29.78,29.78,0,0,1,0,3.66,32.49,32.49,0,0,1,0,3.42,43.24,43.24,0,0,0-.36,4.82,14.68,14.68,0,0,0,.22,2.9c.1.5.16,1,.22,1.49.09.84.6,1.51.59,2.31s-.22,1.49-.23,2.26c0,.52,0,1,0,1.56a5.17,5.17,0,0,0,0,1c0,.16.15.29.17.45a5.86,5.86,0,0,1-.19,1.36c-.49,3.8,0,7.62,0,11.44a57.23,57.23,0,0,1-.05,5.86c-.08.82-.11,1.54-.14,2.36s-.26,1.86-.23,2.84a8.55,8.55,0,0,1,.12,2.47,4,4,0,0,1-.76,1.61c-.36.41-.67.85-1,1.29a10.46,10.46,0,0,0-.65.84c-.31.49-.18.78-.36,1.25a.84.84,0,0,1-1.14.51,3.48,3.48,0,0,1-.67-.66c-.2-.28-.27-.63-.47-1a12.56,12.56,0,0,0-.72-1.47c-.59-.76-1.11-1.53-1.68-2.31-.45-.62-.79-1.32-1.28-1.89s-.94-1-1.4-1.54-.82-.49-1.26-.82-.89-.77-1.32-1.14a13,13,0,0,1-2.18-2.85,4.07,4.07,0,0,1-.51-1,6.19,6.19,0,0,1-.19-1.35,43.39,43.39,0,0,1-.16-5.23v-7.7c0-2.75,0-5.46.2-8.2.22-2.91.42-5.85.42-8.78,0-5.42.44-11.11-.62-16.4a40.14,40.14,0,0,1-.88-5.5c-.15-2.62-.46-5.21-.61-7.83-.13-2.43-.11-4.87-.24-7.31a64.32,64.32,0,0,1-.08-7.73,33,33,0,0,1,1.11-6.38c.19-.74.41-1.43.53-2.2a41.91,41.91,0,0,0,.6-6.74,44.34,44.34,0,0,0-1.2-9.28c-1.26-6.11-1.46-12.37-2.08-18.6-.27-2.63-.35-5.2-.4-7.85,0-1.53-.22-3-.21-4.55V37a22.68,22.68,0,0,0-.25-2.85c-.11-.7,0-1.39-.15-2.07,0-.25-.18-.41-.22-.69a8.08,8.08,0,0,1,0-1.1c0-.69,0-1.43,0-2.12a22.23,22.23,0,0,0-.47-2.54,3.82,3.82,0,0,1,0-1.81A31,31,0,0,0,467.54,19.59Z"/><path class="cls-3" d="M481.17,6.25a6.17,6.17,0,0,1-.28-1.59,2.16,2.16,0,0,0-.4-1.4,2.71,2.71,0,0,0-.09-.41,2.42,2.42,0,0,0-.35-.12c-.11-.11-.2-.33-.32-.42s-.4-.05-.58-.11S478.9,2,478.66,2s-.48.08-.69,0-.23-.22-.42-.29a6.07,6.07,0,0,0-2.08-.26c-.6,0-1.21,0-1.81,0s-1.29.26-2,.29c-1.27.05-2.48.49-3.75.53-2.23.08-4.47,0-6.7,0A23.38,23.38,0,0,1,457.62,2a33.32,33.32,0,0,0-3.85-.54c-1.62-.05-3.24,0-4.87,0a13,13,0,0,1-3.57-.19,13.11,13.11,0,0,0-7.23.39,12.26,12.26,0,0,1-3.62.33,10.39,10.39,0,0,1-3.38-.26,10.46,10.46,0,0,0-3.44-.27h-4.22c-2.76,0-5.53,0-8.3,0-1.29,0-2.54-.27-3.83-.27h-3.55c-.83,0-1.68,0-2.51,0a12.4,12.4,0,0,0-2.22.48c-1.6.36-3-.94-4.58-1a14.08,14.08,0,0,0-3.31.08,21.55,21.55,0,0,1-3.07.49c-1.23.06-2.47.29-3.69.25-1.46,0-2.69.7-4.17.55-.41,0-.75-.24-1.15-.3s-.67.07-1,0c-1.83-.23-3.59-.94-5.46-.82-.91,0-1.76.3-2.67.28a6,6,0,0,0-1.53,0,8.55,8.55,0,0,1-2,.51c-.6,0-1.21-.06-1.81,0a14,14,0,0,0-2.22.5,9.08,9.08,0,0,1-1.73,0,15,15,0,0,1-2.51-.06A19.52,19.52,0,0,0,358.66,2c-1.21,0-2.37.22-3.57.28s-2.62,0-3.92,0A3.2,3.2,0,0,1,349.42,2a2.5,2.5,0,0,0-1.19-.55A31,31,0,0,0,345.1.92a6,6,0,0,0-3.18.6,10.18,10.18,0,0,1-4.71,1,40.07,40.07,0,0,0-6.39.06,6.87,6.87,0,0,1-3,0,5,5,0,0,1-1.52-.4,7.84,7.84,0,0,0-4-.73c-1,0-1.92-.26-2.95-.26a8.62,8.62,0,0,0-4.05.8c-.16.08-.63.32-1.09.5A19.21,19.21,0,0,1,311,2a29.09,29.09,0,0,0-4.41-1c-.66-.09-1.3-.05-1.94-.18a7.91,7.91,0,0,0-1.77-.32c-4.2.06-8.39.83-12.58.81h-2c-2,0-3.83.36-5.76.41-3.06.09-6.06.73-9.11.82-2,.06-3.89-.61-5.88-.83-1.78-.2-3.55-.72-5.33-1-1.53-.25-3.09-.33-4.64-.51a8.83,8.83,0,0,0-2.46,0c-3.33.57-6.4,2.51-9.72,3.1-1.83.33-3.81,1.24-5.63,1.3s-3.55,0-5.32,0A42,42,0,0,1,229,3.68c-1.34-.16-2.64-.06-4-.33-.73-.14-1.47-.33-2.21-.43a47.27,47.27,0,0,0-6.07-.08,41,41,0,0,0-6.56.07,29.65,29.65,0,0,1-4.49.76c-.92,0-1.84-.07-2.76,0-2.53.07-5,.42-7.56.42-1.74,0-3.51.09-5.25,0s-3.26-.74-4.89-.39C183,4.15,181,6.51,178.57,6a22,22,0,0,0-4-.33,18.11,18.11,0,0,1-2.19-.34,7.52,7.52,0,0,0-2.75.24c-1.84.31-3.7-.11-5.54.08-1.29.13-2.54,1.17-3.81,1.61a13.84,13.84,0,0,1-4.88.8,30.56,30.56,0,0,1-5.06-.2c-3.5-.64-7,.77-10.55-.18-.59-.17-1-.69-1.63-.85-1.2-.3-2.42.13-3.65-.36a12.35,12.35,0,0,0-4.59-1.23H127c-2.67,0-5.25.41-7.92.4a21.08,21.08,0,0,1-3.89,0c-.53-.1-1-.56-1.43-.73a5.5,5.5,0,0,1-2.89-1.69c-1.78-2.06-5.13-1.08-7.3-.7A62.66,62.66,0,0,0,96.69,4a10.32,10.32,0,0,1-2.46.49,16.84,16.84,0,0,0-2.68.72c-.66.16-1.33-.08-2,0-.3.06-.54.26-.83.33-1.47.39-3,0-4.55.18A33.79,33.79,0,0,1,79,6c-1.53,0-3,.34-4.5.42-1.74.1-3.52,0-5.27,0-1.28,0-2.46.44-3.74.42-2.4,0-4.69.4-7.08.39-1.78,0-3.57.09-5.35,0a13.3,13.3,0,0,1-3.68-.9c-.75-.25-1.63-.88-2.32-1a7.32,7.32,0,0,0-1.56-.09,21.77,21.77,0,0,1-4.63-.31,18.08,18.08,0,0,0-3.21-.08,14.22,14.22,0,0,1-2-.42,6.51,6.51,0,0,0-2.35.38A7.26,7.26,0,0,1,30,4.48c-.63-.14-1.28.06-1.9-.13-.22-.06-.4-.26-.71-.32a4.57,4.57,0,0,0-.74,0H22.81a14.75,14.75,0,0,0-4,.9A20.59,20.59,0,0,1,13.21,6c-1.4,0-2.8,0-4.2,0A4.26,4.26,0,0,0,6,7.55c-.83.82-.57,2.09-.57,3.3a10.67,10.67,0,0,0,2.61,3c1.38,1,3,1.49,4.25,2.63s2.56,2.55,4,3.63a11.43,11.43,0,0,0,3.66,2,16,16,0,0,0,3.91,0c1.1,0,2.08.45,3.19.42a6.29,6.29,0,0,1,3.05.48,3.88,3.88,0,0,0,2,.71,33.61,33.61,0,0,0,4.25-.31,16.63,16.63,0,0,1,4.72.23c2.41.33,4.86.16,7.29.48,3,.41,6,.28,9,.42s5.83,1.06,8.77,1.3c4.9.41,9.87-.17,14.75.41s9.59,2,14.44,2.62c4.3.56,8.68.55,13,.87,2.9.22,5.68.38,8.58.33a145,145,0,0,0,19.09-1.15,32.12,32.12,0,0,1,8.84-.61c2.15.25,4.29.57,6.44.82,5.41.61,10.83,1.1,16.23,1.8,4,.52,7.92,1.42,11.91,2,1.88.28,3.79.45,5.67.79s3.48.85,5.22,1.07c6.52.84,12.34-1.72,18.39-4.28,4.52-1.91,9.34-2.72,14-3.89a142.81,142.81,0,0,1,20.6-3.15c8.35-.83,16.65-1.85,24.94-3.26a159.12,159.12,0,0,1,19.76-2.43,36.63,36.63,0,0,0,6.7-.44c1-.23,2-.53,3.06-.74s1.94-.29,2.88-.47a8.79,8.79,0,0,1,1.3-.09,2.78,2.78,0,0,0,.3,1.16c.32.38,1.11.42,1.51.5s1.08.29,1.61.34c1.52.16,3-.11,4.5.29a72.11,72.11,0,0,0,14.55,2.33c4.13.21,8.27.22,12.39.28,4.32.07,8.61.76,12.92,1,5.4.34,10.87-.49,16.27-.69A113.82,113.82,0,0,1,386,22.41c4.39.61,8.8,1.06,13.19,1.62a64.43,64.43,0,0,0,8.32.62c4.54,0,9.06-.56,13.61-.59,2.56,0,5.12.06,7.68,0,3.81,0,7.59-.35,11.4-.31a35.14,35.14,0,0,1,6.29.79,27.18,27.18,0,0,0,8.86-.22,39.38,39.38,0,0,0,5.69-.9,67.53,67.53,0,0,0,11.84-5c.68-.35,1.74-.65,2.42-1a7.94,7.94,0,0,0,1.36-1.12c.72-.65,1.3-1.42,2-2.1A13.52,13.52,0,0,0,481,11,6.39,6.39,0,0,0,481.17,6.25Z"/><path class="cls-4" d="M483.19,179.81c-1.05-3.41-7.71-4.58-9.11-7.6-.55-1.19-3.37-4.8-4.1-5.85-.61-.88,2.45-1.36,1.64-2-1.46-1-.38.15-2.06-.19a62.68,62.68,0,0,0-13.38-1.2,78.08,78.08,0,0,1-14.85-1.36,67.12,67.12,0,0,0-16.75-.69c-6.39.49-12.88.69-19.24,1.52a22.57,22.57,0,0,1-7.77.14,33.49,33.49,0,0,0-10.71-.29,62.55,62.55,0,0,1-7.95.68c-5.48,0-11,.41-16.49,0-5.64-.37-11.19-2.07-16.89-1.6-5,.4-9.78,2.07-14.77,2.13-4.5.06-8.95-.64-13.44-.58-2.25,0-4.4-.4-6.6-.55a15.34,15.34,0,0,0-6.24.77c-1.24-.15-2.47-.33-3.71-.55-4.8-.84-9.31-1.89-14.18-1.87-5.48,0-11-.26-16.45.4-5.64.67-11.73,1.6-17.29-.1a37.92,37.92,0,0,0-9.17-1.86c-3.47-.17-7,0-10.44,0-10.33,0-20.64.46-31,.54a57.66,57.66,0,0,1-11.21-.78c-3.07-.58-6.08-1.46-9.18-1.81-2.68-.29-5.4,0-8.09-.06-2.18,0-4.32-.28-6.49-.43-4.12-.28-8.19,0-12.28-.64a50.29,50.29,0,0,1-8.56-1.71,48,48,0,0,0-8.61-2.24,94.93,94.93,0,0,0-11.54-.9c-5-.08-10,1.38-14.94,2.41-2.75.58-5.52,1.46-8.3,1.82a65.55,65.55,0,0,1-8.41.08,127.36,127.36,0,0,1-14.74-.8c-5.36-.61-11.51-1-16.72.83-2.75.95-5.85.51-8.69.5s-5.82-.11-8.18,2c-.87.77-1.19,1.9-2.22,2.64a15.79,15.79,0,0,1-6.17,2.24c-2.62.56-4.83,2.13-7.33,3.08-2.23.84-4.23,2.73-6.63,2.78-1.64,0-3.28,0-4.92,0a12.19,12.19,0,0,0-4.14.4,33.07,33.07,0,0,0-4.16,1.66A23.55,23.55,0,0,1,8,172.09a5,5,0,0,1-1.42.4c-.64.08-1,.61-1.64.65,0,.14-.82.59-.82.74a3.88,3.88,0,0,1-.24,1.22c-.1.45,0,.89-.14,1.35A9.21,9.21,0,0,1,3,178.81c-.51,1-.37,1.12.46,1.6.57.33.87,1,1.39,1.35s1.42.24,2.13.43,1.14.91,1.72,1.12a12,12,0,0,0,4.35.8,5.58,5.58,0,0,1,2.93.76,5.87,5.87,0,0,0,3.54.34,9,9,0,0,1,2-.35h1.81c2.17,0,4.29-.39,6.44-.37h2.64c1.79,0,3.84-.36,5.59.06,2.23.54,4.37,1.6,6.66,1.8,2.71.24,5.5,0,8.22,0,3.14,0,6.28,0,9.42,0a65.83,65.83,0,0,0,8.16-.76,21,21,0,0,0,3.65-.77,29.36,29.36,0,0,1,4.06-.56,17.2,17.2,0,0,1,4.59,0,28.79,28.79,0,0,0,8.34-.17c2.88-.51,5.45-1.32,8.22,0,1.25.58,2.54,1.07,3.8,1.62a6.73,6.73,0,0,0,2.75.27,23.69,23.69,0,0,0,2.92,0,16.54,16.54,0,0,0,1.92-.52,8.31,8.31,0,0,1,3.14-.16c.91.12,1.77.47,2.67.64a13.84,13.84,0,0,0,2.23,0c1.38,0,2.63.75,4,.8,1.53.05,3,.34,4.56.36a13.47,13.47,0,0,0,2.82-.27c1.33-.26,2.55-1,3.87-1.19,2.67-.44,5.56-.08,8.25-.05,1.29,0,2.52-.34,3.81-.41,1.83-.09,3.67.31,5.49-.15,2.57-.66,4.72-3.09,7.39-3.24,1.84-.1,3.2.89,4.93,1.32s3.3.12,4.95.27a36.29,36.29,0,0,1,4,.8,15.4,15.4,0,0,0,5.7-.25c1.56-.23,3,.41,4.58.52a35.81,35.81,0,0,0,4.14.4c2.09-.09,4.14-.58,6.21-.77a6.23,6.23,0,0,1,3.86.92c.47.3.75.73,1.29.92a10,10,0,0,0,2.25.07c3.27.34,6.53,1.2,9.81,1.46,2.71.22,5.36.39,8.09.4a33.62,33.62,0,0,0,7.14-.56c1-.21,2.05-.39,3.07-.52a5.56,5.56,0,0,1,2.35.32c1.53.42,2.94.2,4.45.47a35.68,35.68,0,0,0,5.75.28c1.63,0,3.2.43,4.83.4a27.53,27.53,0,0,1,3,.35,9.57,9.57,0,0,0,3.66-.74,7.74,7.74,0,0,1,2.4-.71l0,.22a11.25,11.25,0,0,0,2.18,0h8.5c1.26,0,2.52,0,3.78,0s2.38-.48,3.6-.57a36.14,36.14,0,0,0,4.16-.25,30.47,30.47,0,0,1,5.14-.24,27.51,27.51,0,0,0,5-1,17.09,17.09,0,0,1,3-.08c1.24,0,1.78-.94,2.93-1.13a10.16,10.16,0,0,1,2,0,13,13,0,0,1,1.51.43c.51.19,1,.6,1.45.81.61.28,1.26.86,1.8,1.09,1,.45,2.62.1,3.72.11,2,0,3.71-.85,5.66-1.1a14.36,14.36,0,0,1,4.93.44c1.25.3,2.5.12,3.76.39a18.64,18.64,0,0,0,4.09.27c.71,0,1.43,0,2.14,0a10.31,10.31,0,0,1,2.15.57,7.23,7.23,0,0,0,1.8,0c1.21-.12,1.92-1.22,3.08-1.54,1.61-.45,3.36-.09,5-.5,1.47-.36,2.77.09,4.23.3a39.2,39.2,0,0,0,7,.15c1.38-.07,2.69-.55,4.06-.58a10.81,10.81,0,0,0,4-.72c2.87-1.12,6-1,9-.9,1.68.09,3.35.92,5,1.26,1.22.25,2.46.54,3.66.79s2.23-.07,3.32.16a19.48,19.48,0,0,0,4.71.49c3.63,0,7.23.54,10.88.54a46.1,46.1,0,0,0,6.22-.12c2.14-.29,4.24-.73,6.39-.3a14.07,14.07,0,0,0,5.71.15c1.82-.34,3.66-.2,5.5-.53a7,7,0,0,1,5.33.65c2.28,1.22,4.31,1.23,6.75,1.22,1.81,0,3.62,0,5.42,0,1.51,0,3.28-.79,4.7-.54a15.94,15.94,0,0,1,1.85.75,10,10,0,0,0,3.08.34c2.31,0,4.45.26,6.74.46,3,.28,5.9-.5,8.9-.49a20.29,20.29,0,0,0,9.42-2.16A25.41,25.41,0,0,1,480,184.4c1,.26,1.7,1.66,2.87,1.06C484.84,184.42,483.74,181.6,483.19,179.81Z"/><path class="cls-5" d="M474.64,170.46a32.74,32.74,0,0,1,0-4c0-1.55-.5-2.24-.88-3.67a13,13,0,0,1-.1-3.06,24.14,24.14,0,0,0-.49-5.34c-.45-2.28-.28-4.37-.54-6.64-.11-1-.41-1.91-.47-2.92-.11-2.2.18-4.39-.08-6.58a50.47,50.47,0,0,1-.38-6.17c0-2,0-3.94,0-5.91,0-3.19.88-6.21,1-9.38.07-1.66-.07-3.36,0-5,.05-3.45,1-6.84,1.39-10.28.27-2.52-.32-4.62-.4-7.06s-.09-5-.37-7.56c-.15-1.42,0-2.9-.15-4.34a59,59,0,0,1-.45-6.09,38.57,38.57,0,0,1,.11-5.38c.3-2.1.14-4.28.49-6.34a30.51,30.51,0,0,0,.38-5.24,28.93,28.93,0,0,0-.9-5.7c-.55-3.2-.08-7.1-.08-10.37,0-4.52.39-9.43-.38-13.76a45.2,45.2,0,0,1-.64-4.65c-.15-2.33.89-3.64,1.43-5.77.5-2,1-3.37-.29-4.91a6.49,6.49,0,0,0-3.06-2.2,4.75,4.75,0,0,0-2.6.46,8.23,8.23,0,0,1-2.43.13,9.32,9.32,0,0,0-3.3.45,19.31,19.31,0,0,1-4.58,1.35c-2.15.12-4.35,0-6.51,0-6.21,0-12.36,0-18.46,1.17-1.36.25-2.52,1.13-3.92,1.18a16,16,0,0,1-3.46-.6,10.52,10.52,0,0,1-3.12-1.15c-1-.58-1.31-1.14-2.5-1.19-2.85-.13-5.72,0-8.57,0-3.49,0-6.85.58-10.34.58a23.65,23.65,0,0,1-3.47,0,15.25,15.25,0,0,1-1.68-.62c-1-.23-2,.18-3,0s-2.15-.37-3.16-.66-1.87-1-2.94-1a16.83,16.83,0,0,0-2.46,0c-1.18.1-2.15.63-3.4.61-1.83,0-3.65,0-5.48,0s-3.62.61-5.61.59c-1.68,0-3,.74-4.68.6a36,36,0,0,0-3.55-.6,20.88,20.88,0,0,0-3.81.61c-3.38.59-7.24,0-10.65,0a21.9,21.9,0,0,1-5.33-.87,19.09,19.09,0,0,0-4.67-.3,28.8,28.8,0,0,1-6.3-.45c-.86-.19-1.7,0-2.56-.12s-1.16-.55-1.95-.62c-1.44-.13-3.17,1.16-4.42,1.8a10.19,10.19,0,0,1-4.43,1.15,7.83,7.83,0,0,1-1.68-.05c-.34-.08-.38-.46-.76-.57a10.3,10.3,0,0,0-2.48,0,13.5,13.5,0,0,0-2.46,0,7.26,7.26,0,0,0-.82.25q0-.39-.06-.78c-1.38-.57-4.38-.09-5.51-.08h-9.41c-3.89,0-7.78,0-11.67,0-5.34,0-10.94-1.81-16.26-.86-4.49.8-8.82,2.8-13.43,3.37-3.79.46-7.43-.85-11.22-.8-4.5.07-9,0-13.49,0a163.07,163.07,0,0,0-17,.69,9.13,9.13,0,0,0-3.43.61c-2.8,1.47-2.27,5.18-2.57,8.42-2.67,1-3.73,4.21-4.38,7.1-2.29-3.17-.14-13.12-3.51-13.44-2.66-.26-6.11,1.57-8.72,2.17-5.86,1.36-13.25,3.08-19.09.69-6.07-2.49-12.54-2.4-18.95-2.79-3.14-.19-6-1.16-9.18-.64-4.59.75-9.25,4-13.83,1.9-2.32-1-4.15-3.07-6.6-4-3-1.08-7-.92-10.1-.81-8.08.29-16,2.63-24.06,2.78-3.59.07-7.33-.48-10.85.71a43.27,43.27,0,0,0-7.2,3.61c-2.21,1.25-4.7,2.59-7.21,2.51-3.25-.11-7-2.43-10.15-3.4-4-1.27-7.74-2.25-11.94-1.5-3.81.67-7.58.48-11.37,1.32-2.42.54-4.17-1.9-6.62-1.87l-4.15-.37c-.06.91-.65,1.38-.8,2.12a14.47,14.47,0,0,0-.06,3c0,2.21,0,4.42,0,6.64a18.33,18.33,0,0,1,0,3.14c-.14.72-.65,1-.8,1.68-.48,2.42.45,4.26,1.16,6.24.62,1.71.26,3.81.33,5.75.08,2.33.73,4.21.73,6.63,0,4.14-2.09,7.29-1.49,11.5.3,2.16,1.41,4,1.51,6.2.12,2.76,0,5.6,0,8.36a31.25,31.25,0,0,1-.34,7.12,31.29,31.29,0,0,0-1.11,7.72,18.61,18.61,0,0,0,1.07,6.44,18.28,18.28,0,0,1,1.1,6.83c0,2.68-.78,3.9-1.28,6.15s-.17,5-.17,7.37a42.47,42.47,0,0,0,0,5.75c.33,2.34,1.45,4.2,1.49,6.64,0,2.06,0,4.13,0,6.19,0,2.4-.74,4.26-.72,6.63,0,3.69.8,9.28-.71,12.39s-3.44,8.93-1.86,12.42,6.73,2.63,9.47,2.62c1.95,0,3.31.66,5.14.92a50.4,50.4,0,0,0,7,0c4.45,0,10.93,1.36,15.1-.84,4.81-2.54,9.07-2.7,14.22-2.7a27.23,27.23,0,0,1,6.53.44c2.07.51,4.52-.19,6.57.41,1.47.43,3.35,1.79,5.09.88s2-4.65,4.35-5.23c1.8-.44,4.94,2.7,6.54,3.94a9.1,9.1,0,0,0,5.8,2.23c1.13,0,1.85-.58,2.89-.83.87-.2,2.06.34,2.85-.11s1.61-2,2.23-2.69c1.43-1.7,2.18-4.12,3.73-5.72,1.8,3.22-1.69,6.92,2.48,8.69,4.9,2.08,10.78.51,15.72-.42,4.34-.82,8.59-2.58,12.89-3.33,2.7-.46,5.85,0,8.56,0,4.6,0,8.87.6,13.42.87a22.93,22.93,0,0,1,5.95.85c1.82.57,4.35,1,6.08,1.84,3.47,1.72,7.69,1.77,11.65,1.76a44.34,44.34,0,0,1,7.9.18c6.1,1.08,12.21.67,18.37.69a152,152,0,0,0,16.93-.69,37.62,37.62,0,0,1,11.31.5,26.85,26.85,0,0,0,15.47-1.82,6.33,6.33,0,0,1,3.19-.65c1.84,0,2.29-.22,3.7-1.84,1.68-1.92,2.21-2.48,4.3-2.57,1.82-.08,3.67,0,5.5,0,2.94,0,6.2-.63,8.87.89a20,20,0,0,0,2.75,1.69,16.15,16.15,0,0,0,5.38.12c4-.32,7.6-.73,11.53-1.42a10.06,10.06,0,0,0,4.91-1.95c1.58-.39,3.27.37,4.92,0a16.53,16.53,0,0,1,9.83,1c1.21.45,2.17-1.06,3.44-1,1.63.09,3.21-.12,4.85.08,1.15.14,2.3.4,3.45.64a13.15,13.15,0,0,0,5,0,35.37,35.37,0,0,1,6-.17c2.4.06,4.69,1.21,7.05,1.76,5.06,1.2,9.63,2.74,14.81,2.24a81.31,81.31,0,0,0,10.84-1.65,15.69,15.69,0,0,1,3.84-.66c1.72,0,3.21.86,4.89,1.16a28.9,28.9,0,0,0,5,.1c5,0,9.81,1.36,14.77,1.76,3.73.31,7.39-1.11,11.13-.48,4.08.69,8.53,1.09,12.38,2.85a15.26,15.26,0,0,0,6.1,1.16,56.08,56.08,0,0,0,7.44-.57c2-.21,4.13.26,6.14-.16,1.2-.26,2-1.09,3.1-1.52a10.75,10.75,0,0,1,1.83-.26,31.24,31.24,0,0,1,6.41-.44h8.46c1.49,0,3.41.43,4.8-.09C475.3,172.6,474.84,171.76,474.64,170.46Z"/></g><g class="cls-6"><path class="cls-7" d="M44.75,125.27a26.91,26.91,0,0,0-1.57-8.14l-.26-.78.27-1.74.22-.46c3-6.1,4.92-14.76,5.83-25.72V88.3l0-.12A31.39,31.39,0,0,0,49.43,84c0-3.61-.18-9.16-.54-16.49l0-.7.25-.66c2.32-6.05,6.49-7,8.78-7a13.49,13.49,0,0,1,6.38,1.85h.07a11.94,11.94,0,0,1,1.9.19l1.1.18.79.78c1.76,1.75,2.62,4.37,2.62,8a33.36,33.36,0,0,1-.47,5.21c-.65,5.77-1.5,12-2.53,18.57l-1.54,9.71c2.71-.72,6.29-1.69,10.71-2.93l.76-.21.78.14a8.45,8.45,0,0,1,6.41,5.17l.42.92-.3,1.88-.21.45,2,1.23-1,6.31a4.11,4.11,0,0,1-4.12,3.61,4,4,0,0,1-1.36-.24l-1.23-.44-.11.06-.3,2-2,.72c-7.3,2.5-9.2,2.86-10.23,2.9l-21.61,4.05Z"/><path class="cls-8" d="M57.89,62.64a11.48,11.48,0,0,1,5.81,2.07c0-.15.24-.22.64-.22a8.54,8.54,0,0,1,1.34.15q1.62,1.6,1.62,5.59A30.13,30.13,0,0,1,66.86,75q-1,8.65-2.52,18.5L62,108.28q3.58-.78,15.86-4.21a5.12,5.12,0,0,1,3.87,3.21l-.07.43-1.24,2.75,2.59,1.6-.64,4.1c-.07.48-.31.72-.71.72a.48.48,0,0,1-.2,0L79.2,116q-3.3.65-3.67,3.14-7.94,2.72-9.31,2.71h-.13L48.2,125.22a30.25,30.25,0,0,0-1.74-9.16l.06-.43q4.74-9.76,6.16-26.92a36.69,36.69,0,0,0,.2-4.68q0-5.52-.54-16.65,1.81-4.74,5.55-4.74m0-6.82c-7.67,0-11,6.4-12,9.15l-.51,1.32.07,1.42C45.8,75,46,80.48,46,84a30.8,30.8,0,0,1-.12,3.63l0,.23,0,.26c-.87,10.55-2.72,18.8-5.5,24.53l-.44.91-.16,1-.06.42-.26,1.63.53,1.56a23.94,23.94,0,0,1,1.39,7.12l.13,8.1,8.06-1.51,17.34-3.25c1.42-.09,3.71-.59,11-3.06l4-1.36.08-.56a7.56,7.56,0,0,0,7.34-6.52l.64-4.07.69-4.43-1.85-1.14.19-1.19L88,104.49a12,12,0,0,0-9-7.13l-1.56-.27L76,97.51c-2,.57-3.87,1.08-5.54,1.53l.72-4.5C72.19,88,73,81.7,73.7,75.89a35.21,35.21,0,0,0,.5-5.66c0-4.51-1.22-8-3.62-10.4L69,58.26l-2.2-.36c-.61-.09-1.14-.16-1.61-.19a16.28,16.28,0,0,0-7.3-1.89Z"/><path class="cls-7" d="M94.56,120.39c-10.32-.5-16.88-4-19.49-10.44-2-4.64-3-8.46-3-11.69,0-4.2,2-9.38,6.08-15.77a7.43,7.43,0,0,1-2.92-5.87V75.2l1-1c4.3-4.23,10-6.38,16.92-6.38h3.53c8.59,0,15.86,4,21.61,11.79l.17.22.12.25c2.36,4.61,3.5,10.56,3.5,18.18,0,8.13-5.61,14.73-16.67,19.62-2.65,1.69-6.15,2.51-10.68,2.51ZM87.74,97.21c1,2.35,3,4.7,8.53,4.7,3.42,0,5.17-1.18,6-4.07V94.91c0-2.32-3.25-4.13-6.21-5.29H94.32C93.06,89.62,89.77,89.62,87.74,97.21Z"/><path class="cls-8" d="M96.68,71.23q11.19,0,18.82,10.38,3.14,6.14,3.13,16.65,0,10.13-14.89,16.62-3.1,2.1-9,2.1-13.38-.63-16.47-8.34-2.76-6.27-2.76-10.38,0-6,7.06-16.22v-.82q-3.9-1.78-3.9-4.6,5.48-5.39,14.49-5.39h3.53m-.41,34.09q7.74,0,9.42-7.06V94.91q0-5.35-9-8.7H94.32q-7.56,0-10.18,11.2,2.65,7.91,12.13,7.91m.41-40.91H93.15c-7.87,0-14.38,2.48-19.36,7.37l-2,2v2.84a10.58,10.58,0,0,0,2.07,6.29c-3.55,6-5.23,11-5.23,15.35,0,3.69,1.08,7.95,3.29,13,3.94,9.66,14.41,12.15,22.5,12.54h.34c5.1,0,9.14-1,12.32-2.91,8.55-3.83,18.48-10.82,18.48-22.63,0-8.17-1.27-14.62-3.87-19.72l-.25-.49-.33-.45C114.74,69,106.3,64.41,96.68,64.41ZM91.45,96.85C92.05,95,93,93,94.32,93h1a9.35,9.35,0,0,1,3.44,2.1v2.26c-.26.78-.71,1.11-2.52,1.11-2.8,0-4.1-.67-4.82-1.65Z"/><path class="cls-7" d="M113.93,136.48c-2.31,0-3.88-1.78-6.14-5.29l-.41-.63-.27-1.95c-.16-1.11-.25-1.72,7.6-24a291.13,291.13,0,0,1,12.47-39.2l.71-1.78,1.41-.24a19.9,19.9,0,0,0,1.83-1.73l1.18-1.22,2,.22a7.3,7.3,0,0,1,2.61-1,7.19,7.19,0,0,1,1.1-.09c5.78,0,8.6,7,9.63,9.73,7.85,13.3,14.11,22.28,18.59,26.67l.85.84.24,1.88a7.09,7.09,0,0,1-.17,2.4,27.94,27.94,0,0,1,2.2,6.75l.51,2.21-4.18,3-1.9-.84a6.45,6.45,0,0,0-.48.55,5.49,5.49,0,0,1-5,6,14.09,14.09,0,0,1-2.27.19c-4.15,0-6.12-2.38-6.63-4.76a6.67,6.67,0,0,0-1.84-.19,25.13,25.13,0,0,0-3.7.33l-5.84.93a48.5,48.5,0,0,0-5,1.13l-.19,0-.19,0a11.47,11.47,0,0,1-1.79.15,6.94,6.94,0,0,1-4.08-1.2c0,.12-.08.25-.13.38a146.77,146.77,0,0,0-3.77,15l-.59,2.9-3.06-.18a1.42,1.42,0,0,0-.33,0h-.11c-.37.06-.72.61-1,1.06l-.81,1.59-2.5.34-.23,0Zm22.2-44.58c.68.11,1.32.21,1.92.28-.77-1.31-1.4-2.32-1.92-3.1-.47,1.12-.84,2-1.13,2.82l.56-.09Z"/><path class="cls-8" d="M138,63q3.59,0,6.5,7.78,12.17,20.64,19.29,27.64l.1.82a13.06,13.06,0,0,1-.4,2.6q1.22,1.22,2.49,6.77l-.71.5a4.89,4.89,0,0,0-1.93-.47,2.63,2.63,0,0,0-.49.05l-.4,0q-2.82,2.46-2.66,3.78.38,2.46-2,2.82a11.49,11.49,0,0,1-1.75.15c-2,0-3.08-.75-3.29-2.26-.25-1.79-2-2.69-5.18-2.69a27.15,27.15,0,0,0-4.24.38l-5.84.92a49,49,0,0,0-5.38,1.22,8.16,8.16,0,0,1-1.25.1c-1.79,0-2.8-.78-3-2.35s-.57-2.33-1.06-2.33h-.08l-.74.11q-.64.11-2.59,6.11A148.34,148.34,0,0,0,119.5,130h-.3a5.59,5.59,0,0,0-.91.08,4.77,4.77,0,0,0-3.53,2.89l-.77.11h-.06q-.84,0-3.24-3.71l-.16-1.21q-.14-.93,7.49-22.58a287.12,287.12,0,0,1,12.37-38.9c.54-.1,1.62-1,3.23-2.64l1.61.18A4.61,4.61,0,0,1,137.45,63a3.15,3.15,0,0,1,.53,0m-6.76,33.39h.15c2.24-.64,3.64-1,4.2-1.1a40,40,0,0,0,6,.6,10.79,10.79,0,0,0,1.62-.1l.27-.89Q137.7,84,135.54,83.54l-.78.1q-4.53,10-4.27,12c.12.51.37.76.73.76M138,56.17a10.77,10.77,0,0,0-1.6.12h-.07a10.41,10.41,0,0,0-2.73.85L131,56.88l-2.36,2.43c-.38.39-.68.68-.9.9l-2.36.41L124,64.18a295.43,295.43,0,0,0-12.58,39.48c-8.07,22.89-8,23.39-7.69,25.45l.16,1.18.2,1.48.82,1.26c1.87,2.89,4.43,6.86,9.05,6.86a6.11,6.11,0,0,0,1-.08l.73-.1,3.58-.49,1.19-2.33,4.59.27,1.19-5.8c.92-4.45,1.84-8.32,2.76-11.55a12.25,12.25,0,0,0,1.84.14,14.72,14.72,0,0,0,2.33-.19l.38-.06.38-.1a44.81,44.81,0,0,1,4.58-1l5.9-.93a25.25,25.25,0,0,1,2.51-.28c1.65,3.09,4.95,4.94,9.1,4.94a18,18,0,0,0,2.84-.24,9,9,0,0,0,7.05-5.17l.11,0,3.23-2.27.7-.5,3.73-2.64-1-4.42a36.06,36.06,0,0,0-2-6.51,7.65,7.65,0,0,0,0-2.34l-.08-.66-.29-2.35-1.7-1.67c-2.92-2.87-8.4-9.66-17.9-25.74a26.05,26.05,0,0,0-4-7.23A11.2,11.2,0,0,0,138,56.17Z"/><path class="cls-7" d="M175.3,125.39c-7.21,0-11.93-2-14-6l-.22-.42c-.27-.42-1-1.41-2.65-3.69L157.5,114l.31-1.48c.42-2,1.68-2.89,8.56-5.35l0,0c.26-10.94.39-19.25.39-24.7V80.79a23.5,23.5,0,0,0-1-7.27l-1.43-4.45h2.73c.05-.2.11-.43.17-.7l.19-.81.54-.63c3.17-3.71,6-5.55,8.76-5.76a16.72,16.72,0,0,1,4.06-.44h.9l.79.43c27.82,15.41,32.17,21.67,32.35,26A109.49,109.49,0,0,1,216,102.83c0,4.65-1.79,11-10.22,15-6.52,5.11-16.24,7.6-29.7,7.6Zm6.53-40a75.53,75.53,0,0,0-1.13,15v5.07c13.4-1.4,14.28-4.22,14.28-4.25V95.34C195,94.67,194.3,91.23,181.83,85.36Z"/><path class="cls-8" d="M180.78,64.14q30.6,16.94,30.59,23.32a104.2,104.2,0,0,1,1.18,15.37q0,8.16-8.61,12-8.73,7.09-27.86,7.1h-.78q-8.78,0-11-4.18a35,35,0,0,0-3.16-4.56c.08-.43,2.71-1.55,7.86-3.35l.77-2.07q.41-16.93.41-25.35V80.79a26.85,26.85,0,0,0-1.18-8.31c.52,0,1-1.12,1.55-3.35,2.6-3,4.82-4.57,6.65-4.57a13.09,13.09,0,0,1,3.53-.42m-2.72,44.93q20.37-1.6,20.37-7.92V95.34q0-6.57-18.42-14.55h-.4q-2.36,5.52-2.36,19.54v7.49l.81,1.25m4.52-51.75h-1.8a20.77,20.77,0,0,0-4.63.48c-4.79.5-8.44,4.14-10.82,6.93l-.8.93H159.6l2.88,8.9a20.49,20.49,0,0,1,.85,6.23v1.68c0,5-.12,12.54-.34,22.33-5.12,1.91-7.82,3.46-8.56,7.07l-.62,3,1.82,2.44c1.53,2.06,2.18,3,2.45,3.39l.14.27c2.73,5.21,8.48,7.86,17.08,7.86h.78c14.06,0,24.4-2.65,31.54-8.1,7.64-3.74,11.83-10,11.83-17.87a111,111,0,0,0-1.2-16c-.36-6.26-6.59-13.43-34.09-28.66l-1.58-.87Zm1.57,44.2v-1.19c0-4.13.16-7.31.4-9.77,5.23,2.87,6.65,4.65,7,5.18v3.9a27.55,27.55,0,0,1-7.38,1.88Z"/><path class="cls-7" d="M285.12,134.26c-7.56,0-8.15-4.84-8.15-6.33,0,0-.11-.93-2-3.32l-.32-.42-.19-.49c-1.36-3.6-2.22-6-2.76-7.57a23.42,23.42,0,0,1-6.14.91h-2.72c-8.43,0-14.82-3.33-19-9.9l-.19-.31-.13-.33c-1.5-4-2.19-6.93-2.19-9.09,0-8.31,5.66-16.26,16.82-23.63l.28-.18.3-.13a44.37,44.37,0,0,1,17-3.15h1.55c5.9,0,9.95,1.84,12,5.47l.45.78v.9a5,5,0,0,1-.3,1.65l.3,1.83v2.3l-3.25,2.56.37.16c3.47,1.49,5.23,3.53,5.23,6v.18l-.41,3.85-.32,5.29c.25,4.38,1.28,7.42,3,8.78a21.23,21.23,0,0,1,6.31,7.57l.6,1.32-1.85,4.56a4.12,4.12,0,0,1-3.23,3.32,17.53,17.53,0,0,1-4.49,1.47,7.09,7.09,0,0,0-.87.7A5.49,5.49,0,0,1,285.12,134.26Zm-26.9-38.65c1.11,1.78,3.23,3.68,8,3.8,4.49-1.36,4.49-3.25,4.49-4.07V94.12l.78-.94a18.7,18.7,0,0,1,4.92-4.44,4.61,4.61,0,0,1,.4-.69l-5.3-.92c-6.47.07-10.69,2.62-13.24,8Z"/><path class="cls-8" d="M277.33,73.73q6.89,0,9,3.74a3.16,3.16,0,0,1-.41,1.25l.41,2.5v.39l-3.16,2.5c0,.4-.39.82-1.18,1.24h-.77l-9.41-1.64q-12.18,0-16.85,10.38l-.4,2.07q3.22,6.66,12.14,6.67,7.45-2.07,7.46-7.49,2.9-3.5,5.11-4.14c.13-1.12.52-1.67,1.18-1.67L282,90a6.81,6.81,0,0,1,3.53-.85c2.11.9,3.16,1.88,3.16,2.92l-.4,3.75c-.07,1.11-.18,3-.34,5.56q.43,8.39,4.29,11.45a17.84,17.84,0,0,1,5.33,6.31l-1.48,3.63c0,.58-.27.86-.81.86A14.24,14.24,0,0,1,291,125h-.37q-3.17,2-3.16,3.35c0,1.66-.79,2.49-2.36,2.49q-4.69,0-4.7-2.92c0-1.31-.91-3.11-2.73-5.42q-3.49-9.27-3.49-10.13l-.77-.39a23.59,23.59,0,0,1-7.87,1.64h-2.72q-10.8,0-16.07-8.31-2-5.34-2-7.91,0-10.71,15.29-20.79a40.53,40.53,0,0,1,15.7-2.89h1.55m0-6.82h-1.55a47.71,47.71,0,0,0-18.37,3.42l-.61.25-.55.37c-12.19,8-18.36,16.94-18.36,26.46,0,2.58.76,5.84,2.4,10.26l.25.67.39.61c4.77,7.52,12.35,11.5,21.91,11.5h2.72a23.09,23.09,0,0,0,3.89-.34c.48,1.32,1.07,2.89,1.78,4.78l.37,1,.65.83a12.32,12.32,0,0,1,1.29,1.89,9.16,9.16,0,0,0,4.38,7.31,13.37,13.37,0,0,0,7.2,1.78,8.9,8.9,0,0,0,8.81-6.29,30,30,0,0,0,3.45-1.26,7.54,7.54,0,0,0,5.42-5.55l1.2-3,1.09-2.7-1.2-2.64a24.7,24.7,0,0,0-7.29-8.82c-.52-.42-1.45-2.17-1.71-6.13l.31-5,.38-3.59,0-.36V92a8.59,8.59,0,0,0-3.06-6.57l.71-.56V80.68l-.09-.54-.13-.81a7.94,7.94,0,0,0,.22-1.86v-1.8l-.9-1.57c-1.89-3.28-6-7.19-15-7.19ZM262.3,95a9.22,9.22,0,0,1,6.8-4.28l-.24.29L267.3,92.9v2.34a6,6,0,0,1-1.53.74,7,7,0,0,1-3.47-1Z"/><path class="cls-7" d="M299.12,136.48c-2.31,0-3.88-1.78-6.15-5.29l-.4-.63-.28-1.95c-.16-1.11-.25-1.72,7.6-24a291.19,291.19,0,0,1,12.48-39.2l.7-1.78,1.41-.24a18.58,18.58,0,0,0,1.83-1.73l1.18-1.22,2,.22a7.3,7.3,0,0,1,2.61-1,7,7,0,0,1,1.09-.09c5.78,0,8.61,7,9.63,9.73,7.86,13.3,14.11,22.28,18.6,26.67l.85.84.23,1.88a6.76,6.76,0,0,1-.16,2.4,27.94,27.94,0,0,1,2.2,6.75l.51,2.21-4.18,3-1.91-.84c-.23.24-.38.43-.48.55a5.49,5.49,0,0,1-4.95,6,14.18,14.18,0,0,1-2.27.19c-4.16,0-6.13-2.38-6.64-4.76a6.52,6.52,0,0,0-1.83-.19,25,25,0,0,0-3.7.33l-5.84.93a48.59,48.59,0,0,0-5,1.13l-.18,0-.2,0a11.37,11.37,0,0,1-1.79.15,6.88,6.88,0,0,1-4.07-1.2c-.05.12-.09.25-.13.38a144.17,144.17,0,0,0-3.77,15l-.6,2.9-3.06-.18a1.33,1.33,0,0,0-.32,0H304c-.37.06-.72.61-1,1.06l-.82,1.59-2.49.34-.24,0ZM321.31,91.9c.68.11,1.32.21,1.92.28-.76-1.31-1.4-2.32-1.91-3.1-.47,1.12-.85,2-1.14,2.82l.56-.09Z"/><path class="cls-8" d="M323.16,63q3.58,0,6.5,7.78Q341.84,91.41,349,98.41l.1.82a14,14,0,0,1-.4,2.6q1.2,1.22,2.48,6.77l-.7.5a4.93,4.93,0,0,0-1.93-.47,2.63,2.63,0,0,0-.49.05l-.41,0q-2.82,2.46-2.65,3.78.36,2.46-2,2.82a11.59,11.59,0,0,1-1.75.15c-2,0-3.08-.75-3.3-2.26-.24-1.79-2-2.69-5.17-2.69a27.05,27.05,0,0,0-4.24.38l-5.85.92a50,50,0,0,0-5.38,1.22,8.06,8.06,0,0,1-1.25.1c-1.79,0-2.79-.78-3-2.35s-.56-2.33-1-2.33h-.09l-.74.11c-.42.07-1.29,2.11-2.59,6.11A148.65,148.65,0,0,0,304.69,130h-.3a5.5,5.5,0,0,0-.91.08A4.75,4.75,0,0,0,300,133l-.78.11h-.05q-.84,0-3.24-3.71l-.17-1.21q-.13-.93,7.5-22.58a285.71,285.71,0,0,1,12.37-38.9c.54-.1,1.61-1,3.23-2.64l1.61.18A4.57,4.57,0,0,1,322.64,63a3,3,0,0,1,.52,0m-6.75,33.39h.14c2.24-.64,3.65-1,4.21-1.1a40,40,0,0,0,6,.6,11,11,0,0,0,1.63-.1l.27-.89Q322.87,84,320.72,83.54l-.77.1q-4.54,10-4.27,12c.12.51.36.76.73.76m6.75-40.21a10.64,10.64,0,0,0-1.59.12h-.07a10.29,10.29,0,0,0-2.73.85l-2.59-.28-2.36,2.43-.9.9-2.35.41-1.41,3.56a292.56,292.56,0,0,0-12.58,39.48c-8.07,22.89-8,23.39-7.7,25.45l.16,1.18.21,1.48.81,1.26c1.87,2.89,4.44,6.86,9.06,6.86a6.19,6.19,0,0,0,1.05-.08l.73-.1,3.58-.49,1.19-2.33,4.59.27,1.19-5.8c.91-4.45,1.84-8.32,2.75-11.55A12.35,12.35,0,0,0,316,120a14.84,14.84,0,0,0,2.34-.19l.38-.06.37-.1a45.5,45.5,0,0,1,4.59-1l5.89-.93c.95-.15,1.8-.24,2.52-.28,1.64,3.09,4.94,4.94,9.1,4.94a18,18,0,0,0,2.83-.24,9,9,0,0,0,7.05-5.17l.12,0,3.22-2.27.71-.5,3.73-2.64-1-4.42a37,37,0,0,0-2-6.51,8.34,8.34,0,0,0,0-2.34l-.08-.66-.29-2.35-1.7-1.67c-2.93-2.87-8.4-9.66-17.91-25.74a25.8,25.8,0,0,0-4-7.23,11.19,11.19,0,0,0-8.74-4.42Z"/><path class="cls-7" d="M350.13,122.52a11.07,11.07,0,0,1-1.72-5.23c-.06-.78-.22-2.58,1.64-30.28,0-2.35,0-3.37,0-3.8a25.65,25.65,0,0,1-1.2-4.8l-.05-.51.1-.5c1.36-6.64,5.82-10.54,12.87-11.27l.23,0h.22c1.4,0,2.62.07,11.8,8.39,1.05-1.73,2.84-4.89,5.86-10.64a10.24,10.24,0,0,1,4.06-4.22c1.49-2,4.94-2.89,7.87-3.65l.28-.07,1.6-.14.82.36c2.8,1.24,5.13,2.47,5.38,4.92l.33,3.75,1.05,2.81,0,.48a5.74,5.74,0,0,1-.21,1.88c.83,7.49,4,16.09,9.43,25.61.91.68,1.74,2,2,4.31l.05.51-.34,1.64,1,1.47.32,3.51,1.58,5.62-4.06.42c-2.4.24-3.57.76-3.51,1.55l.16,1.77-1.38,1.14a7.68,7.68,0,0,1-4.11,1.88,10.45,10.45,0,0,1-1.07.06,6,6,0,0,1-1.65-.21l-1,.1h-.2c-3.32,0-4.45-3.44-5.1-6.32a18.45,18.45,0,0,1-2-2.81l-.43-.69-.31-3.25A58,58,0,0,0,387.43,93c-.23.79-.47,1.7-.74,2.73L386.38,97l-3.55,2.45-1.68-.87a16.3,16.3,0,0,0-1.15,2.71l-.49,1.44-5,2.14-1-.15c-1.68-.25-6.43-1-7.62-4.31-1.16-1.52-2.12-2.74-2.91-3.71-.87,5-2,12.26-3.33,21.57l-.09.64-.33.57c-1.61,2.78-3.6,4.32-5.93,4.55l-2.07.21Z"/><path class="cls-8" d="M393.06,59.25c2.2,1,3.32,1.69,3.36,2.14l.37,4.17,1,2.78a3.43,3.43,0,0,1-.27,1.29q1.17,12.62,10.48,28.6h.08c.47,0,.77.67.9,2l-.54,2.57,1.35,1.93.27,2.92.57,2q-7,.72-6.59,5.25a4.42,4.42,0,0,1-2.25,1.1,6.49,6.49,0,0,1-.72,0c-.85,0-1.3-.22-1.33-.68l-.74.5-.78.07h0q-1,0-2-4.81h0c-.33,0-1.06-.91-2.19-2.71L393.8,106a67.3,67.3,0,0,0-5.88-21.12l-.4,0q-1.65.18-4.17,10l-.78.54-2.05-1.07c-1.43.64-2.7,2.58-3.79,5.81l-2.66,1.14c-3.21-.48-4.85-1.28-4.94-2.43q-7-9.16-8.27-9.16h0q-1.43,6.42-4.54,28-1.55,2.67-3.3,2.85a7.57,7.57,0,0,1-1.14-3.64q-.19-2.31,1.65-29.84c0-2.45,0-4-.07-4.57a30.25,30.25,0,0,1-1.18-4.49q1.59-7.71,9.85-8.56,1.48,0,11.5,9.27a2.85,2.85,0,0,0,1.12.33h.09q1-.24,8.17-13.8c.42-1,1.63-2.15,3.63-3.31q-.11-1.11,6.05-2.71l.4,0m1.19-7-1.8.16-.4,0-.58,0-.57.15c-2.69.71-6.9,1.8-9.32,4.39a13.18,13.18,0,0,0-4.84,5.3c-1.51,2.88-2.7,5.07-3.63,6.74-6.53-5.7-8.41-6.36-10.84-6.42h-.44l-.44.05c-8.46.87-14.26,6-15.9,14l-.2,1,.09,1a27.11,27.11,0,0,0,1.21,5c0,.49,0,1.41,0,3.1-1.87,27.87-1.72,29.63-1.62,30.69a14.26,14.26,0,0,0,2.28,6.84l2.31,3.42,4.13-.42c2.41-.25,5.85-1.53,8.58-6.26l.65-1.13.19-1.29q1.14-7.86,2-13.69a16.38,16.38,0,0,0,7.89,3l1.95.29,1.82-.78,2.66-1.14,2.81-1.21.64-1.89.15.08,3.06-2.11a48.73,48.73,0,0,1,.79,5.27l.24,2.49.15,1.59.86,1.36a26.88,26.88,0,0,0,1.8,2.63c.91,3.43,2.9,8.12,8.25,8.12h.37l.33,0,.29,0a10.33,10.33,0,0,0,1.9.17,12.47,12.47,0,0,0,1.46-.08,11.1,11.1,0,0,0,5.93-2.65l2.77-2.28-.13-1.39.24,0,8.12-.83-2.18-7.78-.41-1.44-.21-2.31-.17-1.78-.69-1,.15-.72-.1-1A11.23,11.23,0,0,0,415,96a7.85,7.85,0,0,0-1.77-2.51c-4.91-8.69-7.82-16.5-8.67-23.28a9,9,0,0,0,.15-2.3l-.07-1-.34-.91-.72-1.93-.29-3.25v-.08c-.46-4.61-4.81-6.54-7.4-7.69l-1.64-.73Zm15.38,64.51Z"/><path class="cls-7" d="M417.86,131.43c-5.07,0-6.09-3.48-6.28-4.55l-.06-.36,0-.61-3.07-3.13L407.36,118l1.67-.34c.2-2.41.11-9.25-2.35-28.49l0-.15V88.9c-.21-5.63.5-9.69,2.18-12.41l.06-.11a19,19,0,0,1,12.51-8.27l2.2-.45h.3c2.38-.08,4.5-.12,6.3-.12,6.6,0,10.65.25,11.35,3.76l.45,2.53c.3,1.74-.41,2.83-3.57,6.71l-.93,1.16L436,81.8c-11.7.89-14,1.2-14.5,1.3h0a4.7,4.7,0,0,0-.31,2.61c1.82-.49,3.28-.85,4.41-1.09l3.69-.76h.2c.56,0,1.09-.07,1.58-.07,5.72,0,7,3.3,7.25,4.72l.15.77-.24.84,1.24,1.42-.08,2a5.14,5.14,0,0,1,.49,1.48l.43,2.7-.63.25.43,2.14-4.77-.21a5.87,5.87,0,0,0-.14.82l-.21,1.92-3.72,1.71-.52.07c-1.95.26-3.68.51-5.17.76a3.69,3.69,0,0,0,.47.88l.75-.14a188.61,188.61,0,0,0,21.9-6.14l.8-.28.84.13a8.36,8.36,0,0,1,5.35,3.15l.54.69.36,2.09-.44,1.31,1.45,1.76.15.87c1.21,6.71-1.85,8.42-3.79,8.85a4.06,4.06,0,0,0-1.31.43,1.31,1.31,0,0,0,0,.23l.32,1.78-1.31,1.27a7.31,7.31,0,0,1-3.47,2.11l-.32.06-9.15.18-5.83,1.22c-1.44.29-4.47,1.4-10.79,5l-.48.27-.54.11A15.8,15.8,0,0,1,417.86,131.43Z"/><path class="cls-8" d="M430.21,70.94c5.18,0,7.83.33,8,1l.44,2.46c.05.26-.91,1.59-2.86,4q-13.17,1-14.92,1.36-4.24.88-2.66,9.45l.51.74c3.43-1,6-1.64,7.66-2l3.46-.72c.46,0,.89,0,1.29,0,2.32,0,3.61.65,3.86,1.94L434.44,91,436,92.74l-.07,1.71a2.83,2.83,0,0,1,.57,1.14.79.79,0,0,0-.6,1l-1.61-.07q-2.13.42-2.49,3.92l-1.48.68q-5.08.67-8.14,1.28a.74.74,0,0,1-.64,1c.77,4.14,2.22,6.22,4.36,6.22a3.68,3.68,0,0,0,.79-.09l.77-.14A190.77,190.77,0,0,0,449.84,103a4.88,4.88,0,0,1,3.16,1.89l.07.39-.78,2.29,2.09,2.53q.8,4.48-1.15,4.92-4.61.93-3.93,4.6a4.3,4.3,0,0,1-1.78,1.21l-9.14.18-6.16,1.28q-3.66.75-11.8,5.39a13.1,13.1,0,0,1-2.56.3c-1.72,0-2.68-.57-2.88-1.73l.07-1.71-3.43-3.5-.1-.42q2.58-.54-1.41-31.88-.27-7.35,1.68-10.52a15.58,15.58,0,0,1,10.32-6.81l1.91-.4q3.54-.1,6.19-.11m0-6.82c-1.84,0-4,0-6.42.12l-.59,0-.58.12-1.92.39A22.62,22.62,0,0,0,406,74.51l-.07.1-.06.11c-2.06,3.36-2.92,7.9-2.68,14.3v.31l0,.3c1.86,14.59,2.32,21.79,2.38,25.28l-2.44.5,1.6,6.79.1.42.43,1.85,1.33,1.36,1.5,1.53,0,.11c.61,3.4,3.51,7.37,9.68,7.37a19.17,19.17,0,0,0,4-.45l1.08-.22.95-.54c6.66-3.8,9.15-4.49,9.75-4.62l5.54-1.15,8.49-.17h.67l.65-.14a10.77,10.77,0,0,0,5.15-3l2.62-2.53-.17-1c2.45-1.19,6-4.29,4.6-12.11l-.31-1.75-.82-1,.12-.34-.29-1.69-.07-.39-.29-1.71-1.09-1.37a11.77,11.77,0,0,0-7.53-4.41L449.21,96l-1.61.55c-1.27.43-2.53.85-3.77,1.24l-.52-3.3a8.5,8.5,0,0,0-.42-1.59l.1-2.61-1-1.17-.24-1.3a8.54,8.54,0,0,0-1.72-3.8l1.12-1.39c3-3.74,4.87-6,4.28-9.41L445,70.77V70.7l0-.07c-.48-2.43-2.25-5.48-8-6.21a58.17,58.17,0,0,0-6.75-.3Zm24.06,57.71Z"/></g></g></svg>