<svg xmlns="http://www.w3.org/2000/svg" xmlns:xlink="http://www.w3.org/1999/xlink" viewBox="0 0 961 333"><defs><style>.cls-1{fill:url(#linear-gradient);}.cls-2{fill:url(#linear-gradient-2);}.cls-3{fill:url(#linear-gradient-3);}.cls-4{fill:url(#linear-gradient-4);}.cls-5{fill:url(#linear-gradient-5);}.cls-6{fill:url(#linear-gradient-6);}.cls-7{fill:url(#linear-gradient-7);}.cls-8{fill:url(#linear-gradient-8);}.cls-9{fill:url(#linear-gradient-9);}.cls-10{fill:url(#linear-gradient-10);}.cls-11{fill:url(#linear-gradient-11);}.cls-12{stroke:#000;stroke-miterlimit:10;stroke-width:6px;fill:url(#linear-gradient-12);}.cls-13{fill:url(#linear-gradient-13);}</style><linearGradient id="linear-gradient" x1="300.8" y1="328.62" x2="320.33" y2="13.54" gradientUnits="userSpaceOnUse"><stop offset="0.03" stop-color="#00fa00"/><stop offset="0.06" stop-color="#15f903"/><stop offset="0.16" stop-color="#4af60a"/><stop offset="0.27" stop-color="#7af410"/><stop offset="0.38" stop-color="#a2f215"/><stop offset="0.48" stop-color="#c3f119"/><stop offset="0.59" stop-color="#dcf01d"/><stop offset="0.71" stop-color="#eeef1f"/><stop offset="0.83" stop-color="#f9ee21"/><stop offset="0.97" stop-color="#fcee21"/></linearGradient><linearGradient id="linear-gradient-2" x1="679.01" y1="352.65" x2="698.54" y2="37.52" xlink:href="#linear-gradient"/><linearGradient id="linear-gradient-3" x1="546.18" y1="344.45" x2="565.73" y2="29.19" xlink:href="#linear-gradient"/><linearGradient id="linear-gradient-4" x1="57.73" y1="313.14" x2="77.31" y2="-2.66" xlink:href="#linear-gradient"/><linearGradient id="linear-gradient-5" x1="171.98" y1="321.73" x2="191.69" y2="3.79" xlink:href="#linear-gradient"/><linearGradient id="linear-gradient-6" x1="425.12" y1="336.64" x2="444.67" y2="21.21" xlink:href="#linear-gradient"/><linearGradient id="linear-gradient-7" x1="781.54" y1="359.62" x2="801.08" y2="44.33" xlink:href="#linear-gradient"/><linearGradient id="linear-gradient-8" x1="882.7" y1="366" x2="902.24" y2="50.8" xlink:href="#linear-gradient"/><linearGradient id="linear-gradient-9" x1="424.76" y1="151.22" x2="427.08" y2="-21.49" gradientUnits="userSpaceOnUse"><stop offset="0.14" stop-color="#f15a24"/><stop offset="0.19" stop-color="#f26d24"/><stop offset="0.31" stop-color="#f59423"/><stop offset="0.43" stop-color="#f8b522"/><stop offset="0.55" stop-color="#face22"/><stop offset="0.68" stop-color="#fbe021"/><stop offset="0.82" stop-color="#fceb21"/><stop offset="0.97" stop-color="#fcee21"/></linearGradient><linearGradient id="linear-gradient-10" x1="849.81" y1="165.96" x2="852.27" y2="-17.21" xlink:href="#linear-gradient-9"/><linearGradient id="linear-gradient-11" x1="770.66" y1="164.82" x2="773.12" y2="-18.37" xlink:href="#linear-gradient-9"/><linearGradient id="linear-gradient-12" x1="810.31" y1="164.34" x2="813.05" y2="-39.88" xlink:href="#linear-gradient-9"/><linearGradient id="linear-gradient-13" x1="810.49" y1="171.42" x2="813.18" y2="-28.52" xlink:href="#linear-gradient-9"/></defs><g id="logo-2" data-name="logo"><path class="cls-1" d="M248.91,320.23c-4.76,0-7-3.89-7.83-5.36-3-5.27-3-10.95-2.48-16.29.76-8.13,3.83-15.64,6.72-21.91a64.15,64.15,0,0,0,6.15-25.7c.14-5.07-1.12-10.09-2.45-15.39l-.3-1.19c-2.59-10.38-2.59-20.75-2.36-31.35.07-2.78-.45-4.13-2.06-5.36-6.81-5.25-4.89-10.92-3.14-13.83.51-.85.45-1.29-1.39-3.72-5.2-6.88-5.9-13.69-2.14-20.33l.2-.37a5.81,5.81,0,0,1,3.31-3.2c5.65-1.93,11.5-3.94,17.68-3.94a25.52,25.52,0,0,1,11.4,2.62c7.4,3.59,6.88,11.28,6.72,13.81-.08,1.14-.14,2.3-.2,3.45-.1,2-.21,4-.4,6-.26,2.84,1,4.36,4,7.4,3.91,3.86,7.36,6.31,12.45,6.59,2.92.16,4.37,2.45,5.24,3.81l.29.46.57.86A64,64,0,0,0,303,203c.64.79,1.11,1.3,1.45,1.65.24-.39.57-1,1-1.79,3.23-6.14,8.77-9.33,14.27-11.87,4.35-2,7.71-8.54,6.53-12.71a34.71,34.71,0,0,0-2-5c-1.53-3.37-3.27-7.18-3-11.86.42-7.47,4.67-10,8.15-10.83a78.46,78.46,0,0,1,18.07-2.26,57.12,57.12,0,0,1,17.95,2.8,13.39,13.39,0,0,1,8.8,9.34,12.88,12.88,0,0,1-3,12,4.56,4.56,0,0,0-.57.73,2.74,2.74,0,0,0,.23.59,18.59,18.59,0,0,1-2.38,20.24c-2.86,3.67-2.78,7.8-1.73,13.28,1.14,5.94.47,11-2.05,15.51-3.74,6.66-4.66,13.55-2.9,21.69.81,3.77.22,7.6-.35,11.31-.21,1.36-.4,2.65-.53,3.91-.42,4.12-.95,8.34-1.62,12.91-.59,4,1,8.13,3.69,9.59s3.85,3.73,4.87,5.61c1.34,2.49,1.81,3.08,3.3,3.08h.12c2.71,0,4.56,2.57,5,5.11.1.59.24,1.17.37,1.75a17.05,17.05,0,0,1,.63,4.72,14.9,14.9,0,0,0,.12,2.11c.25,2.8.69,7.5-4.35,9.89a8,8,0,0,1-3.38.81c-3.43,0-5.57-2.46-7.14-4.25-.35-.4-.7-.81-1.06-1.16a3.25,3.25,0,0,0-2.39-1,5,5,0,0,0-1.75.36,10.06,10.06,0,0,1-3.81.78,10.65,10.65,0,0,1-6.36-2.37,8,8,0,0,0-4.71-1.55,7.77,7.77,0,0,0-6.61,3.61,13.88,13.88,0,0,1-4.7,5c-.3.16-.62.38-1,.59a9,9,0,0,1-5,1.94,5.6,5.6,0,0,1-4.4-2.2c-2-2.39-5.57-6.71-2-12,3.23-4.79,4.73-8.82,2.16-14.08-2-4.1-.6-9.21,3.4-12.42,5.1-4.11,5.85-10.39,6.63-17,.12-1,.23-2,.36-3s.36-2.16.57-3.18a26.85,26.85,0,0,0,.65-4.72c0-4.1-.06-6.5-2.44-8.25-2.7-2-3-4.9-3.24-6.83-.05-.43-.1-.85-.18-1.25-.64-3.23-1.49-3.23-2.67-3.23h-.28c-1.16.05-2.07.09-2.35,3.82-.18,2.52-.14,5-.09,7.74,0,1.17,0,2.35,0,3.52,0,1,0,1.91,0,2.85,0,6.07,0,12.35-2.92,18.49-.4.85-.11,1.63.76,3.48a15.82,15.82,0,0,1,1.34,3.65c1,5.2-.55,8.51-4.72,9.85a11.28,11.28,0,0,1-3.49.6c-2.28,0-5.42-.9-7.41-5.24-1.77-3.85-4.46-7.17-7.31-10.69a76.84,76.84,0,0,1-6.42-8.76,21,21,0,0,0-2.61-3.23c-.5-.54-1-1.08-1.46-1.63-4.9-5.78-2.31-11.84-.41-16.27.16-.39.33-.78.49-1.16,2.25-5.41,2.75-7.74-.91-10.84-3.17-2.69-5.37-6.25-7.5-9.69l-1-1.64c-.24.43-.49.85-.75,1.27-1.92,3.21-3,5.14-1.93,7.62,1.65,4,1.28,8,.95,11.49a21.36,21.36,0,0,0,.14,7.47c.2.74.41,1.48.62,2.22a39.32,39.32,0,0,1,1.84,9c.08,1.56.09,3.11.11,4.61.07,6.5.12,12.11,4.58,17,2,2.2,1.6,5.52,1.25,8.44-.11.9-.21,1.76-.23,2.47-.08,2.33.32,4,1.16,5,4.35,5.19,3,10.64,1.92,15-.14.59-.29,1.19-.42,1.78-1,4.36-5,4.67-7,4.81a8,8,0,0,0-1.7.24,6.45,6.45,0,0,1-2.26.42c-1.42,0-4.1-.54-6.14-4.19a16.55,16.55,0,0,0-2.84-4.09c-.25-.23-.44-.38-.57-.48-5.28,2.94-8.57,6.12-10.32,10q-.17.34-.3.69c-.85,2-2.14,4.93-6.21,5.33A8.71,8.71,0,0,1,248.91,320.23Z"/><path d="M347.51,151.4a53.78,53.78,0,0,1,17,2.65,10.18,10.18,0,0,1,4.57,16.48c-1.62,1.77-1.7,2.78-.86,4.6a15.66,15.66,0,0,1-2,17.14c-3.82,4.89-3.33,10.41-2.32,15.68.94,4.89.58,9.38-1.72,13.48-4.26,7.6-5.06,15.24-3.21,23.8,1,4.48-.46,9.51-.94,14.28q-.64,6.39-1.6,12.77c-.79,5.33,1.45,10.63,5.24,12.67,4.28,2.31,3.7,9.05,9.59,9.05h.12c.94,0,1.81,1.34,2,2.61.32,1.95,1,3.91.95,5.84-.14,3.29,1.64,7.44-2.52,9.41a4.79,4.79,0,0,1-2.09.52c-2.67,0-4.31-2.76-6.09-4.53a6.24,6.24,0,0,0-4.5-1.91,7.65,7.65,0,0,0-2.86.58,7.25,7.25,0,0,1-2.7.56,7.71,7.71,0,0,1-4.59-1.79,11,11,0,0,0-6.48-2.13,10.76,10.76,0,0,0-9.14,5,11.34,11.34,0,0,1-3.62,4c-1.34.74-2.92,2.16-4.47,2.16a2.64,2.64,0,0,1-2.09-1.12c-1.85-2.22-4.16-4.94-1.83-8.39,3.57-5.28,5.58-10.51,2.38-17.07-1.23-2.53-.67-6.17,2.57-8.77,6.92-5.56,7.05-14.08,8.1-21.93.36-2.74,1.21-5.42,1.24-8.28,0-4.1,0-8-3.66-10.69-2.14-1.58-1.84-4.18-2.25-6.24-.7-3.5-2.05-5.65-5.62-5.65h-.42c-4.2.18-5,3.41-5.2,6.6-.28,3.81-.06,7.65-.06,11.48-.09,6.8.4,13.62-2.65,20.06-1.57,3.32,1.27,6,1.87,9,.63,3.16.3,5.44-2.69,6.4a8.53,8.53,0,0,1-2.58.46c-1.88,0-3.5-.91-4.68-3.49-3.39-7.37-9.74-12.79-13.88-19.74a42.63,42.63,0,0,0-4.36-5.27c-4.05-4.76-1.36-9.72.56-14.33,2.18-5.23,3.69-9.69-1.74-14.28-3.4-2.88-5.7-7.15-8.16-11-.83-1.3-1.67-1.94-2.45-1.94s-1.42.56-2,1.64c-2.05,3.78-5.3,7.46-3.3,12.31,2.54,6.11-.68,12.45,1,18.59.94,3.49,2.19,7,2.37,10.58.4,8.18-.93,16.46,5.46,23.49,1.5,1.65.34,5.8.24,8.79-.08,2.58.29,5.18,1.86,7,3.88,4.63,1.91,9.54.87,14.22-.72,3.24-4.48,2-6.81,2.9a3.34,3.34,0,0,1-1.19.23c-1.54,0-2.71-1.21-3.53-2.66a18.83,18.83,0,0,0-3.41-4.82,4.34,4.34,0,0,0-2.64-1.43,1.79,1.79,0,0,0-.9.24c-5.1,2.75-9.68,6.28-12.12,11.66-1,2.1-1.45,4-4.07,4.27l-.58,0c-2.6,0-4.07-1.83-5.23-3.85-2.6-4.53-2.55-9.63-2.09-14.52.69-7.36,3.43-14.38,6.46-20.93a67.61,67.61,0,0,0,6.42-26.88c.16-5.89-1.42-11.68-2.84-17.38-2.51-10.07-2.49-20.32-2.27-30.56.07-3.21-.51-5.72-3.23-7.81-3.28-2.53-4.89-5.75-2.39-9.9,1.69-2.82,0-5-1.63-7.16-4-5.26-5.32-10.86-1.87-17,.48-.85.79-1.83,1.87-2.2,5.54-1.9,11.06-3.78,16.71-3.78a22.71,22.71,0,0,1,10.09,2.31c4.81,2.35,5.31,6.82,5,10.92-.2,3.09-.29,6.25-.58,9.37-.4,4.27,1.76,6.69,4.91,9.8,4.32,4.27,8.4,7.12,14.4,7.45,1.58.09,2.35,1.66,3.19,2.93a80.81,80.81,0,0,0,4.83,6.88c1.78,2.16,2.95,3.28,4,3.28s2.06-1.29,3.46-3.94c2.84-5.4,7.79-8.2,12.86-10.53,5.47-2.52,9.8-10.46,8.17-16.25-1.5-5.31-5.22-9.77-4.88-15.85.25-4.39,2.06-7.19,5.85-8.08a75.83,75.83,0,0,1,17.38-2.18m0-6a81.07,81.07,0,0,0-18.76,2.34c-6.24,1.46-10.05,6.41-10.46,13.58-.31,5.42,1.68,9.77,3.27,13.28a33.2,33.2,0,0,1,1.82,4.53c.78,2.75-1.92,7.81-4.9,9.18-5.36,2.47-10.76,5.54-14.45,11.14-.87-1.2-1.72-2.48-2.6-3.82l-.57-.87-.26-.4c-.94-1.49-3.14-5-7.61-5.21-3.67-.2-6.42-1.7-10.5-5.73-3.16-3.12-3.28-3.72-3.16-5,.19-2.07.3-4.13.4-6.12.06-1.14.12-2.27.2-3.4.54-8.12-2.28-13.74-8.4-16.71a28.47,28.47,0,0,0-12.71-2.92c-6.68,0-12.77,2.09-18.65,4.11a8.75,8.75,0,0,0-5,4.66c0,.08-.09.17-.14.26-3,5.35-5.08,13.77,2.3,23.54l.06.08c.24.32.56.74.8,1.09-3.27,6.1-1.7,12.41,4.29,17,.61.47.94.73.89,2.92-.24,10.81-.23,21.4,2.45,32.15l.3,1.19c1.28,5.1,2.49,9.92,2.36,14.58a61.31,61.31,0,0,1-5.87,24.52c-3,6.51-6.18,14.31-7,22.89-.52,5.56-.59,12.05,2.87,18.06,2.61,4.56,6.12,6.87,10.43,6.87a11.61,11.61,0,0,0,1.17-.06c5.83-.57,7.74-5,8.66-7.12.09-.21.18-.43.28-.64,1.27-2.81,3.49-5.16,7.05-7.43.43.63.85,1.38,1.31,2.2l0,0c2,3.64,5.24,5.72,8.76,5.72a9.3,9.3,0,0,0,3.19-.57c.22,0,.68-.07,1-.09,2-.16,8.22-.62,9.68-7.16.12-.57.27-1.14.41-1.71,1.11-4.51,2.79-11.31-2.54-17.67-.05-.07-.54-.71-.46-3,0-.59.11-1.38.21-2.21.38-3.21.91-7.61-2-10.82-3.51-3.85-3.73-8.22-3.8-15,0-1.53,0-3.11-.11-4.72a42.66,42.66,0,0,0-2-9.68c-.21-.72-.42-1.45-.62-2.17a19.5,19.5,0,0,1,0-6.42c.34-3.66.77-8.23-1.17-12.91A2.19,2.19,0,0,1,278,220a34.16,34.16,0,0,0,6.41,7.7c1.89,1.6,2.34,2,.08,7.4L284,236.2c-1.95,4.56-5.22,12.2.88,19.39.52.61,1,1.17,1.54,1.72a19.51,19.51,0,0,1,2.25,2.74,77.7,77.7,0,0,0,6.66,9.11c2.73,3.36,5.3,6.55,6.92,10.06,2.79,6.08,7.54,7,10.13,7a14.45,14.45,0,0,0,4.41-.74l.34-.12a12,12,0,0,0,1.21,5c1.73,3.56,1.24,6.35-2,11.08-4.83,7.14.22,13.23,2.12,15.52l.06.06a8.66,8.66,0,0,0,6.71,3.29,11.88,11.88,0,0,0,6.62-2.43c.27-.18.58-.39.74-.47a16.76,16.76,0,0,0,5.8-6.07,4.77,4.77,0,0,1,4.07-2.21,5.06,5.06,0,0,1,3,1,13.59,13.59,0,0,0,8.12,2.95,13.25,13.25,0,0,0,4.92-1,1.93,1.93,0,0,1,.64-.15c.07,0,.11,0,.28.17s.57.62.92,1c1.72,2,4.6,5.26,9.39,5.26a10.83,10.83,0,0,0,4.66-1.09c6.94-3.29,6.32-10,6-12.88a14.54,14.54,0,0,1-.1-1.7,20.28,20.28,0,0,0-.7-5.53c-.14-.57-.26-1.11-.34-1.56-.62-3.76-3.52-7.57-7.86-7.62-.26-.37-.61-1-.87-1.49-1.14-2.12-2.7-5-6.07-6.83-1.21-.66-2.63-3.28-2.15-6.52.68-4.61,1.21-8.87,1.63-13,.12-1.18.31-2.43.52-3.75.58-3.79,1.24-8.09.31-12.4-1.62-7.48-.82-13.53,2.58-19.59,2.88-5.14,3.66-10.88,2.38-17.55-.91-4.77-1-8.07,1.16-10.86a21.61,21.61,0,0,0,3.24-22.17,15.84,15.84,0,0,0,3-14,16.37,16.37,0,0,0-10.76-11.44,60.1,60.1,0,0,0-18.89-2.95ZM321.42,266.51c3-6.63,3-13.39,3-19.38,0-.92,0-1.85,0-2.77v-.08c0-1.19,0-2.38,0-3.57,0-1.47-.05-2.88,0-4.26a10.58,10.58,0,0,0,4.07,6.46c1.05.78,1.26,1.75,1.22,5.81a24.42,24.42,0,0,1-.59,4.16c-.22,1.07-.44,2.18-.6,3.38-.13,1-.25,2-.37,3-.66,5.64-1.25,10.59-4.37,14,0-.34-.11-.69-.18-1a18.65,18.65,0,0,0-1.56-4.33c-.19-.4-.45-.95-.58-1.32Z"/><path class="cls-2" d="M649.46,328.2c-5.07,0-6.26-4-6.65-5.31a86,86,0,0,1-3.35-25.66,42.6,42.6,0,0,0-1.77-10.79c-.36-1.43-.73-2.9-1-4.38a111.58,111.58,0,0,0-5.82-18.39c-1.74-4.35.19-8.71,1.73-12.21.21-.46.41-.91.59-1.35s-.2-1.3-.49-2c-2-5.19.86-6.63,1.81-7.1s.92-.46.88-2a10,10,0,0,1,.32-3.27c.16-.56.2-.66-.76-1.44-3.61-3-4.42-6.64-2.42-11a11.53,11.53,0,0,0,1.06-4.9c0-4.45,2-8.76,5.77-12.46,4.81-4.67,5.7-10.92,6.64-17.54.13-.92.26-1.85.4-2.76.95-6.13,2.45-12.41,9.39-15.93,2.68-1.36,3.87-3.33,4-6.6.17-5.14,3-8.74,7.08-9.18a13.49,13.49,0,0,0,2.33-.57,15.66,15.66,0,0,1,4.58-.88,8.44,8.44,0,0,1,6.26,2.8c2.58,2.69,5.88,4.64,9.38,6.71a13.6,13.6,0,0,0,7.1,2.1c2.91,0,6.07-1,9.65-3.16a7,7,0,0,1,3.6-1.23,4.55,4.55,0,0,1,3.91,2.27,26.38,26.38,0,0,0,2.09,2.71c1.88,2.24,4,4.78,4.51,8.49,2.24,16.84,6.83,34.14,14.88,56.11a20.15,20.15,0,0,1,1.32,8.54c-.1,1.29-.09,1.94.23,2.4,7.15,10.36,3,20.15-.8,26.62a5.69,5.69,0,0,0-.45,2.84v.54c0,1.29,0,2.59,0,3.89,0,6.27-.09,12.76-2.11,19.11-.31,1-.65,1.95-1,2.91-1.16,3.32-2.25,6.45-2.19,9.85a7.14,7.14,0,0,1-2.34,5c-2.07,2.1-5.84,4.23-9,4.23a6.13,6.13,0,0,1-.62,0l-.21,0a4.82,4.82,0,0,1-4.4-2.67c-.85-1.88-1.89-3.7-3-5.62-3.22-5.64-6.86-12-5.22-20.47.54-2.74.33-3.39.28-3.49-.48-.45-3.49-.91-4.47-1.06a5.55,5.55,0,0,1-4.32-3.67l-.16-.35-.39-.8c-1.18-2.44-2.39-5-3.74-7.29a7.81,7.81,0,0,0-6.83-3.92,9,9,0,0,0-2.4.34c-2.39.68-3.34,2.39-3.76,6.75a18.13,18.13,0,0,0,.46,5.5c1.36,6.51-.07,11.63-4.26,15.2a6.06,6.06,0,0,1-3.82,1.74,3.83,3.83,0,0,1-3.29-1.82c-.83,6.24-4.56,10.92-7.93,15.16-.19.24-.39.47-.59.7a8.5,8.5,0,0,0-.65.81c.64,3.87-.59,7.16-1.66,10.06-.35.94-.69,1.83-1,2.71-1.31,4.38-4.19,5.09-6.84,5.21Zm12.91-106.3a.65.65,0,0,0,0,.22c1,4.58-.57,8.42-2.21,11.57-1.53,2.92-1.28,5.7.78,8.74.81,1.2,1.65,1.74,2.11,1.74s.9-.45,1.37-1.17c4.36-6.8,11.08-7.42,16-7.88a29.78,29.78,0,0,1,3-.14c7.67,0,14.44,2.71,20.62,5.65.3.14.6.3.91.47l.76.39c2.75-5,5.21-10.45,4.56-16.69a4.35,4.35,0,0,0-.36-1.43,2.94,2.94,0,0,0-.42.22,9.48,9.48,0,0,1-4.88,1.62c-4.22,0-5.83-3.77-7-6.52A70.73,70.73,0,0,1,694,206.15c-.63-2.76-1.21-5.35-2-7.91,0-.05,0-.1,0-.15s0,.08,0,.12a104.59,104.59,0,0,1-.15,21,11.63,11.63,0,0,1-1.91,5c-.68,1.16-1.08,1.89-1,2.35.26,1,1,3.92-.62,6.07a5,5,0,0,1-4.21,1.85,15.32,15.32,0,0,1-2.65-.3l-.55-.09c-4-.64-6.9-3.56-8.2-8.22a20,20,0,0,0-.81-2.19c-1-2.33-2.19-5.37-.92-8.77a7.81,7.81,0,0,1-2.62-3.55C667.76,215.08,666.56,219.08,662.37,221.9Z"/><path d="M673.73,155.45a5.43,5.43,0,0,1,4.1,1.88c2.84,3,6.42,5.09,10,7.22a16.72,16.72,0,0,0,8.63,2.51c3.81,0,7.5-1.4,11.18-3.58a4.48,4.48,0,0,1,2.07-.81,1.59,1.59,0,0,1,1.38.87c2.1,3.31,5.59,5.8,6.15,10,2.61,19.55,8.28,38.29,15,56.74a17.19,17.19,0,0,1,1.15,7.29,6.33,6.33,0,0,0,.75,4.32c5.54,8,3.52,15.79-.92,23.41-.91,1.56-.83,3.17-.86,4.82-.16,7.44.27,15-2,22.16C729,296.8,727,301,727.08,306c0,2.84-5.32,6.22-8.39,6.22l-.35,0c-.84-.07-1.75-.06-2.15-.93-3.51-7.79-9.91-14.37-8-24.29,1.23-6.32-.12-7.08-6.69-8.08-1.42-.22-1.72-1.3-2.23-2.36-1.35-2.79-2.68-5.61-4.23-8.29a10.8,10.8,0,0,0-9.43-5.42,11.72,11.72,0,0,0-3.23.46c-4.61,1.32-5.53,5.31-5.92,9.34A20.85,20.85,0,0,0,677,279c.94,4.51.6,9-3.28,12.31a3.43,3.43,0,0,1-1.87,1c-.64,0-1.11-.61-1.33-2.23-.52-3.8-2.92-7.21-2.39-11.36a14.34,14.34,0,0,0-2.56,9.83c1,7.64-3.06,12.9-7.29,18.22-.94,1.19-2.14,2.13-1.85,3.84.7,4.17-1.4,7.67-2.52,11.45-.72,2.41-1.79,3-4.11,3.08h-.34c-2.29,0-3.16-1.12-3.77-3.16a83.15,83.15,0,0,1-3.23-24.78c0-5.53-1.76-10.57-2.88-15.83a115.6,115.6,0,0,0-6-18.87c-1.47-3.68.88-7.91,2.3-11.29,1.32-3.15-2.74-6.3-.11-7.6,3.81-1.9,2-4.7,2.73-7.12s-.35-3.5-1.73-4.63c-2.57-2.1-3-4.29-1.6-7.39a14.62,14.62,0,0,0,1.34-6.18c0-4,2.08-7.59,4.86-10.28,6.29-6.11,6.73-14.31,7.92-22,.9-5.88,2.14-10.85,7.78-13.72,3.76-1.9,5.48-4.92,5.62-9.17.1-2.85,1.28-6,4.41-6.29,2.15-.23,4.36-1.44,6.59-1.44m-10.65,91.72a4.74,4.74,0,0,0,3.89-2.55c3.38-5.26,8.34-6,13.76-6.52.91-.08,1.82-.12,2.71-.12,6.89,0,13.14,2.42,19.33,5.36,1,.49,2.19,1.31,3.3,1.31.8,0,1.57-.42,2.25-1.66,3.19-5.75,5.66-11.69,4.95-18.5-.26-2.51-1.37-4.18-3.13-4.18a4.27,4.27,0,0,0-2.2.72,6.66,6.66,0,0,1-3.31,1.18c-2.24,0-3.2-2.26-4.25-4.7-2.77-6.48-3.48-13.52-5.58-20.17-.42-1.35.21-4-2-4a3.2,3.2,0,0,0-.59.05c-2.5.42-3.62,2.06-3.29,5.1a103.34,103.34,0,0,1-.16,20.43c-.28,3.13-3.58,5.33-2.78,8.36.9,3.4-.31,4.15-1.93,4.15a19,19,0,0,1-2.73-.35c-3.18-.51-4.92-3-5.78-6.07-1-3.43-3.63-6.66-1.08-10.5.15-.23-.44-1.27-.9-1.52-3.07-1.62-2.91-4.62-3.19-7.37-.42-4.12-.67-8.26-1.06-13.24-1.87,4-2,7.45-2.86,10.73-1.59,5.8.19,13-6.61,16.79-.52.29-.58,1.91-.39,2.81.75,3.51-.35,6.53-1.93,9.56-2.13,4.08-1.57,8.07,1,11.8,1.36,2,3,3.06,4.6,3.06m10.65-97.72a18.26,18.26,0,0,0-5.45,1,13.8,13.8,0,0,1-1.77.46c-5.7.6-9.54,5.34-9.77,12.06-.09,2.44-.86,3.27-2.34,4-8.9,4.52-10.22,13.05-11,18.15-.15.93-.28,1.86-.41,2.8-.9,6.36-1.68,11.85-5.76,15.81-4.41,4.28-6.72,9.34-6.68,14.63a8.41,8.41,0,0,1-.79,3.62c-2.47,5.36-1.5,10.35,2.74,14.11a13.27,13.27,0,0,0-.15,2.62,7.33,7.33,0,0,0-3.45,6.46,11.55,11.55,0,0,0,1,4l.2.52c-.08.19-.17.37-.25.56-1.58,3.59-4,9-1.78,14.53a109.15,109.15,0,0,1,5.67,17.9c.33,1.54.71,3,1.07,4.49a40.39,40.39,0,0,1,1.68,10,88.63,88.63,0,0,0,3.48,26.55c1.93,6.48,6.79,7.45,9.52,7.45h.61c1.85-.08,7.49-.34,9.58-7.35.24-.79.55-1.63.89-2.53,1-2.78,2.29-6.16,2-10.2.15-.17.31-.36.45-.54,2.74-3.43,5.88-7.39,7.56-12.34a6.62,6.62,0,0,0,1.32.13,9,9,0,0,0,5.77-2.45c3.5-3,7.24-8.56,5.25-18.11a15.2,15.2,0,0,1-.42-4.59c.37-3.8.94-4,1.6-4.15a5.81,5.81,0,0,1,1.58-.23,4.8,4.8,0,0,1,4.24,2.43c1.29,2.22,2.42,4.58,3.62,7.08l.39.81.14.28a8.46,8.46,0,0,0,6.59,5.4c.77.11,1.37.22,1.84.3,0,.21-.08.45-.13.71-1.85,9.53,2.25,16.74,5.55,22.52,1.06,1.86,2.06,3.62,2.85,5.38,1.21,2.66,3.53,4.15,6.9,4.42l.18,0a8.7,8.7,0,0,0,.89,0c4.22,0,8.76-2.66,11.18-5.12a9.91,9.91,0,0,0,3.21-7.2c-.05-2.86.91-5.62,2-8.81.33-1,.68-2,1-3,2.16-6.79,2.21-13.51,2.25-20,0-1.29,0-2.57,0-3.85v-.56a13,13,0,0,1,.07-1.43c2.42-4.15,9.53-16.48.9-29.41,0-.27,0-.66,0-.83a23,23,0,0,0-1.5-9.8c-8-21.76-12.5-38.87-14.72-55.47-.61-4.58-3.14-7.6-5.18-10a23,23,0,0,1-1.85-2.39,7.59,7.59,0,0,0-6.45-3.66,10,10,0,0,0-5.13,1.65c-3.11,1.84-5.76,2.74-8.12,2.74a10.77,10.77,0,0,1-5.57-1.68c-3.32-2-6.45-3.81-8.74-6.2a11.5,11.5,0,0,0-8.43-3.73ZM692,226.54l.47-.81a14.66,14.66,0,0,0,2.3-6.15c0,.09.08.19.13.28,1.24,2.92,3.56,8.35,9.76,8.35a10,10,0,0,0,2.73-.39,25.17,25.17,0,0,1-2.92,9.68,61.46,61.46,0,0,0-12.86-4.62,10.11,10.11,0,0,0,.39-6.34ZM665.6,223.2a14.25,14.25,0,0,0,2.15-2.27,27.18,27.18,0,0,0,1.32,3.87,19.42,19.42,0,0,1,.7,1.87,15.65,15.65,0,0,0,3.46,6.54A18.56,18.56,0,0,0,663,239.92a4.62,4.62,0,0,1-.11-4.84c1.6-3.05,3.28-7.09,2.76-11.88Zm-32.37,15Z"/><path class="cls-3" d="M579.39,323.23a11.78,11.78,0,0,1-3.95-.66,62.11,62.11,0,0,1-20.54-12.28,7,7,0,0,0-1.51-1.11,5.13,5.13,0,0,0-.72.93c-2,3.09-4.32,4.65-7,4.65l-.49,0c-4.23-.32-5-4.19-5.39-5.85-.06-.32-.13-.64-.21-.93-.76-2.57-1.3-5.18-1.82-7.71l0-.12c-.1-.51-.2-1-.29-1.54-.6-3.28-1-5-3.31-6.28-5.1-2.76-3.64-8.56-3-11,1-4,2.39-8,3.71-11.8a116.09,116.09,0,0,0,4.08-13.55,29.78,29.78,0,0,0,.61-5.81c0-.86,0-1.73,0-2.59-.06-4.12-.14-8.76,3.12-12.91l0-.37a72,72,0,0,1,1.71-8.68c1-4,1.88-7.85,1.66-11.36-.43-7-2.79-14.25-5.07-21.24q-.87-2.66-1.7-5.29c-.22-.72-2-1.12-3.65-1.47l-1.15-.26a9,9,0,0,0-2-.24c-2.83,0-5.4,1.51-8.11,3.12a42.44,42.44,0,0,1-4.48,2.4c-.38.48-.29,2.79-.24,3.9,0,.72.06,1.41,0,2-.13,6.14-2.38,11.28-4.57,16.26-.58,1.32-1.18,2.69-1.71,4-1.38,3.45-3.68,4-4.93,4-2.46,0-4.32-1.93-5.43-3.08l-.26-.26c-5.32-5.39-5.6-12.38-5.22-17.92-.27-7-1.4-14.29-7.53-19.78-5-4.48-5.85-16.13-1.56-21.5,3.37-4.21,8.4-5.09,12.45-5.8.74-.13,1.48-.26,2.19-.4l.71-.15a25.58,25.58,0,0,1,5.31-.73,9.47,9.47,0,0,1,8.49,4.53H519a171.06,171.06,0,0,1,19.25,1.44,169.84,169.84,0,0,0,18.6,1.4H558c6.73-.1,12.85-2.4,19.32-4.84l2.69-1c1-.36,2-.78,3-1.23,3.41-1.45,7.27-3.09,11.8-3.09.45,0,.89,0,1.35,0a76.34,76.34,0,0,1,9.07,1.4,54.6,54.6,0,0,0,10.41,1.37h.48a7.25,7.25,0,0,1,7.1,5.77c.06.22.11.44.15.67l0,.1a8.71,8.71,0,0,1,4.81,4.83c1.44,3.86-.68,8-1.38,9.35-1.71,3.32-2.1,6.88-1.27,11.52,2.76,15.57-1.37,30.21-5.45,42.71a6.53,6.53,0,0,1-6.4,4.42,7.9,7.9,0,0,1-6.58-3.49c-3.29-4.88-3.46-10.62-3.59-14.81,0-.56,0-1.12,0-1.68a28.9,28.9,0,0,0-.86-7.83c-.71-2.37-1.4-3.78-3.23-4.94a53.48,53.48,0,0,1-7.55-6.16c-.63-.59-1.27-1.18-1.91-1.75a7,7,0,0,0-4.25-2.12c-1.36,0-2.51,1-3.4,3-5.74,12.78-6.13,24.11-1.23,34.64.76,1.61,2.33,5-.07,8.56-1.72,2.56-1.45,5.33-.84,9.26.81,5.19.18,10.31-.43,15.26-.23,1.82-.44,3.53-.58,5.26-.43,5.05.65,9.82,1.8,14.86.65,2.85,1.32,5.79,1.7,8.8a9.71,9.71,0,0,0,1.2,1.47c.32.36.63.71.91,1.05,2.79,3.44,5.53,7.75,4.68,13.64a2.67,2.67,0,0,0,1.06,2.29,6.86,6.86,0,0,1,1.75,8.18,16,16,0,0,0-.56,2c-.5,2.19-1.07,4.67-3.63,5a26.47,26.47,0,0,0-2.95.62A24,24,0,0,1,579.39,323.23Z"/><path d="M594.8,152c.38,0,.75,0,1.13,0,6.67.48,13,2.77,19.7,2.77h.48a4.32,4.32,0,0,1,4.2,3.51c.24,1,.27,2.12,1.3,2.54,5.63,2.26,4.34,6.77,2.53,10.3-2.3,4.48-2.36,8.91-1.56,13.42,2.55,14.35-1,27.86-5.35,41.25a3.53,3.53,0,0,1-3.54,2.35,5,5,0,0,1-4.1-2.17c-2.67-4-2.93-8.66-3.07-13.22-.11-3.47,0-6.89-1-10.29-.83-2.73-1.85-4.92-4.5-6.6-3.31-2.09-6.12-5-9.06-7.61a9.68,9.68,0,0,0-6.26-2.89c-2.49,0-4.69,1.56-6.14,4.79-5.43,12.1-7.07,24.56-1.2,37.13.88,1.89,1.46,3.66.14,5.62-2.38,3.57-1.94,7.27-1.3,11.39,1,6.55-.49,13.25-1,19.8-.73,8.56,2.48,16.2,3.52,24.3.18,1.44,1.72,2.76,2.75,4,2.69,3.31,4.7,6.8,4,11.32a5.63,5.63,0,0,0,2,4.91,3.86,3.86,0,0,1,1,4.83c-.74,1.77-1,5.14-1.82,5.25-2.73.36-5.45,1.48-8.25,1.48a8.87,8.87,0,0,1-3-.49A58.91,58.91,0,0,1,556.88,308c-1.4-1.23-2.55-1.94-3.61-1.94s-2.07.74-3.13,2.4-2.53,3.26-4.45,3.26h-.26c-2.49-.19-2.42-2.84-3-4.64-.73-2.49-1.26-5-1.78-7.58-.78-3.77-.9-7.58-5.12-9.86-2.84-1.54-2.25-4.79-1.52-7.66,2.18-8.61,6-16.73,7.82-25.45a33.87,33.87,0,0,0,.67-6.37c.11-4.89-.8-10,2.83-14.16.28-.32.23-.95.29-1.44.79-7,3.8-14,3.39-20.57-.57-9.19-4.12-18.26-6.9-27.23-.85-2.73-4.1-3.07-7-3.76a12.07,12.07,0,0,0-2.73-.32c-5.34,0-9.3,3.8-13.8,5.78-2.83,1.24-1.93,5.79-2,8.61-.15,7.13-3.58,13-6.07,19.24-.61,1.54-1.37,2.08-2.14,2.08-1.33,0-2.71-1.6-3.56-2.45-3.92-4-4.82-9.15-4.35-15.76-.27-7.52-1.44-15.72-8.53-22.07-3.88-3.47-4.44-13.35-1.21-17.39s8.45-4.22,12.89-5.13a27.36,27.36,0,0,1,5.42-.82,6.63,6.63,0,0,1,6.44,4c.19.38,1.12.54,1.74.54h.07l1.59,0c12.68,0,25.16,2.84,37.85,2.84H558c8.23-.12,15.43-3.23,23-6,4.22-1.56,8.58-4.14,13.79-4.14m0-6c-5.14,0-9.48,1.84-13,3.33-1,.44-2,.85-2.89,1.18l-2.72,1c-6.22,2.35-12.09,4.56-18.3,4.65H556.8a163,163,0,0,1-18.26-1.38,175.58,175.58,0,0,0-19.44-1.46,12.6,12.6,0,0,0-10-4.52,28.5,28.5,0,0,0-5.93.79l-.69.15-2.11.39c-4.3.75-10.19,1.78-14.27,6.88-5.31,6.64-4.32,20,1.9,25.6,5,4.46,6.23,10.23,6.52,17.51-.4,6.14,0,13.88,6.1,20.06l.23.25c1.35,1.39,3.86,4,7.59,4,1.62,0,5.6-.57,7.71-5.86.52-1.29,1.08-2.58,1.68-3.94,2.19-5,4.68-10.66,4.82-17.4,0-.75,0-1.5,0-2.22,0-.49-.05-1.17-.05-1.74,1.16-.59,2.24-1.23,3.29-1.85,2.46-1.45,4.58-2.7,6.59-2.7a5.84,5.84,0,0,1,1.35.16c.39.1.79.18,1.19.27s1.23.27,1.75.42c.46,1.46.93,2.92,1.4,4.34,2.32,7.12,4.52,13.85,4.93,20.5.19,3.06-.68,6.66-1.59,10.47a79.36,79.36,0,0,0-1.72,8.63c-3.36,4.81-3.28,10.11-3.22,14.07,0,.88,0,1.7,0,2.48a28.11,28.11,0,0,1-.54,5.25,112.18,112.18,0,0,1-4,13.2c-1.34,3.87-2.72,7.88-3.78,12-.66,2.61-2.66,10.54,4.49,14.41.95.51,1.18.89,1.79,4.18.09.53.19,1.07.3,1.61l0,.11c.53,2.59,1.08,5.27,1.88,8,0,.13.11.44.16.7,1.07,5.13,3.8,7.9,8.1,8.22l.71,0c2.25,0,5.39-.8,8.27-4.32a64.59,64.59,0,0,0,20.5,12,15,15,0,0,0,4.93.82,26.24,26.24,0,0,0,6.41-1c1-.23,1.87-.45,2.64-.56,4.61-.62,5.62-5,6.15-7.31.12-.48.3-1.3.41-1.57a9.76,9.76,0,0,0-2.47-11.52l-.08-.08c.83-6.87-2.42-11.91-5.38-15.55-.35-.42-.7-.82-1-1.16s-.39-.43-.56-.64c-.41-2.87-1-5.62-1.64-8.29-1.1-4.82-2.13-9.36-1.74-13.95.14-1.67.34-3.36.56-5.14.64-5.16,1.3-10.49.43-16.09-.61-3.95-.65-5.62.36-7.13,3.34-5,1.13-9.72.3-11.5-4.58-9.82-4.18-20,1.24-32.14a3.92,3.92,0,0,1,.78-1.23,5.4,5.4,0,0,1,2.14,1.34c.63.56,1.25,1.14,1.87,1.72a56.28,56.28,0,0,0,8,6.5c.83.52,1.3,1,2,3.26a27,27,0,0,1,.73,7c0,.57,0,1.14,0,1.71.14,4.56.33,10.8,4.1,16.39a10.92,10.92,0,0,0,9.07,4.82,9.48,9.48,0,0,0,9.25-6.49c4.2-12.85,8.43-27.92,5.55-44.16-.71-4-.42-6.89,1-9.63.85-1.65,3.42-6.67,1.52-11.77a11.32,11.32,0,0,0-5-5.8,10.27,10.27,0,0,0-9.87-7.52h-.48a52.46,52.46,0,0,1-9.83-1.31,75.64,75.64,0,0,0-9.43-1.45c-.52,0-1-.05-1.57-.05Z"/><path class="cls-4" d="M66,320.22a8.52,8.52,0,0,1-6.33-2.89c-.47-.41-2.65-.62-3.69-.73l-1-.1c-3.72-.42-7.83-2.81-8.12-6.43-.17-2.11-1.17-2.77-4-4.13a14.08,14.08,0,0,1-5.39-3.76c-.11-.14-.16-.14-.21-.14a1,1,0,0,0-.6.27c-.82,5.79-5.3,6.33-7.47,6.6l-1,.13a15.36,15.36,0,0,1-2.89.28,9.71,9.71,0,0,1-9-5,39.16,39.16,0,0,1-4.21-27.43c1.07-4.88.25-8.81-2.74-13.13-.1-.14-.2-.26-.3-.39a6,6,0,0,1-1.6-3.68c-.31-5.89-1.13-11.9-1.92-17.71-1-7.64-2.13-15.54-2.11-23.52,0-3.29,1.38-5.8,2.59-8a23.11,23.11,0,0,0,1.37-2.8,30.64,30.64,0,0,1,5.48-8.72c2.14-2.67,4.16-5.19,4.87-8.32,1.55-6.91,5.08-12.9,8.48-18.69l.74-1.26c2.18-3.71,5.91-6,8.63-7.6l.57-.34c1.46-.89,3-1.87,4.4-2.82,5.47-3.59,11.12-7.31,17.07-7.31a13.84,13.84,0,0,1,3,.32c2.73.21,5.32.38,7.81.53,9.23.59,17.19,1.09,25,3.62a7.33,7.33,0,0,0,2,.41h.2a14,14,0,0,1,1.68-.1c4.85,0,8.3,2.56,10.53,7.83.21.49.4,1,.59,1.5,1.22,3.19,1.77,4,3.6,4.07l3.11.12-.23,3.1c-.13,1.73.62,3.41,1.48,5.36a19.92,19.92,0,0,1,1.94,6.36c.43,5.13.71,11.11-1.48,17a3.1,3.1,0,0,0-.1.36c-.71,2.67-2.25,4.05-4.6,4.11H112c-2.37,0-4.1-1.34-5.15-4l-.28-.44-.22-.34a9.74,9.74,0,0,1-.82-1.65,7,7,0,0,1-.77,1.26,8.15,8.15,0,0,1-5.2,3c-7.56,1.35-9.76,6.39-11.16,15.2a14.92,14.92,0,0,0-.13,1.52c-.12,2.42-.35,6.91-5.48,8.31a10.07,10.07,0,0,1-2.63.38c-2.22,0-7.39-1-7.51-9.94a67.44,67.44,0,0,0-1.13-9.93c-.33-2.06-.68-4.19-.91-6.34-.35-3.21-3.12-5.92-4.68-5.92-2.13,0-3.6.85-4.82,5-.48,1.6-1,3.21-1.47,4.81-2.3,7.35-4.46,14.29-4.15,21.72a9.38,9.38,0,0,1-.56,3.63l-.17.47c-.79,2.16-2.28,6.2-6.92,6.2a8,8,0,0,1-1-.06c-4-.49-6.18-3.33-6.33-8.46-.07-2.65,0-5.5.12-8.72,0-.15,0-.28,0-.39l-.32.38c-3.32,4.05-5.2,9.51-5.59,16.25a95.72,95.72,0,0,1-3,17.18c-.33,1.38-.67,2.77-1,4.15-1.68,7.35,1.95,12.4,6.19,18.21a36.2,36.2,0,0,1,14.5-2.53c1,0,1.93,0,2.9.05A16.51,16.51,0,0,1,66.93,282c2.31,2.64,3.5,3,4.29,3,1.48,0,3.68-1.28,5.84-2.68,7.29-4.69,7.8-11.74,8.4-19.9.25-3.48.68-9.3,7.77-11.3a20,20,0,0,1,5.42-.9c3.68,0,6.71,1.69,9.28,5.15,1,1.41,2,2.88,2.89,4.3,2,3.17,3.92,6.16,6.78,8.18a6.07,6.07,0,0,1,2.43,7.07,35.26,35.26,0,0,0-1.62,7.23,36.59,36.59,0,0,1-1.85,8c-1,2.42-1.66,4.87-2.4,7.47-.64,2.23-1.3,4.54-2.14,6.81a11.28,11.28,0,0,0-.6,3c-.35,4.62-3.69,8-8,8a9.07,9.07,0,0,1-4.39-1.18,28.1,28.1,0,0,1-5.26-4c-1.45-1.32-2.17-1.36-2.25-1.36s-.67.41-1.23,1.66c-1.64,3.68-4.22,4.23-6.49,4.71a51.65,51.65,0,0,0-6,1.8c-1.84.63-3.74,1.28-5.71,1.77-.51.12-1,.29-1.54.45A14.8,14.8,0,0,1,66,320.22Z"/><path d="M57.65,155.54a10.25,10.25,0,0,1,2.51.3c12.82,1,22.78.93,32.35,4a9.86,9.86,0,0,0,2.88.55,5.07,5.07,0,0,0,.55,0,10.19,10.19,0,0,1,1.33-.08c3.9,0,6.17,2.23,7.77,6,1.34,3.17,2.11,7.22,6.84,7.4-.33,4.48,3.06,7.94,3.42,12.19.45,5.29.59,10.63-1.3,15.74-.36,1-.35,2.47-2,2.51H112c-1.36,0-1.92-1-2.37-2.1a7.92,7.92,0,0,0-.75-1.28c-1.12-1.76-1.24-4.89-3.28-5.11h-.19c-1.84,0-1.89,3-3,4.5A5.18,5.18,0,0,1,99,202.08c-9.92,1.78-12.25,9.25-13.6,17.69-.42,2.68.44,6.35-3.43,7.41a7,7,0,0,1-1.84.27c-2.83,0-4.45-2.27-4.51-7-.08-5.63-1.46-11-2.06-16.55-.48-4.45-4.24-8.6-7.66-8.6h0c-4.61.05-6.5,3.23-7.66,7.17-2.65,9-6.14,17.85-5.74,27.5a6.51,6.51,0,0,1-.36,2.45c-.82,2.18-1.54,4.73-4.29,4.73a4.22,4.22,0,0,1-.6,0c-3.14-.38-3.62-3-3.69-5.56-.08-2.83,0-5.67.12-8.49.08-1.65-.24-3-1.83-3.72a2.68,2.68,0,0,0-1-.22c-1.19,0-2,1-2.78,1.88-4.28,5.21-5.9,11.67-6.27,18-.41,7.21-2.39,14-3.95,20.84-2.07,9.06,2.65,15.07,7.29,21.45a1.51,1.51,0,0,0,1.26.75,5,5,0,0,0,1.75-.57,32.85,32.85,0,0,1,13.31-2.29c.94,0,1.88,0,2.82.05A13.5,13.5,0,0,1,64.67,284c2.44,2.8,4.4,4,6.55,4s4.38-1.17,7.47-3.15c8.52-5.49,9.14-13.71,9.76-22.22.29-4,.86-7.29,5.59-8.62a17.49,17.49,0,0,1,4.61-.79c2.52,0,4.7,1,6.87,3.94,3.3,4.44,5.59,9.79,10.35,13.14a3.11,3.11,0,0,1,1.36,3.54c-1.91,5-1.65,10.66-3.46,15.23-1.87,4.74-2.84,9.64-4.56,14.35a13.88,13.88,0,0,0-.78,3.85c-.24,3.19-2.34,5.2-5,5.2a6.17,6.17,0,0,1-3-.81A24.88,24.88,0,0,1,95.84,308c-1.55-1.4-3-2.13-4.27-2.13-1.58,0-2.93,1.11-4,3.44s-2.27,2.55-4.38,3c-4,.85-7.82,2.61-11.82,3.59-1.79.45-3.6,1.3-5.43,1.3a5.51,5.51,0,0,1-4.15-2c-1.33-1.41-4.27-1.5-6.53-1.75-2.62-.3-5.33-1.93-5.47-3.69-.51-6.45-7.13-5.87-10-9.51A3.2,3.2,0,0,0,37.23,299a3.6,3.6,0,0,0-3.55,2.73c-.55,4.29-3.67,3.89-6,4.32a12.48,12.48,0,0,1-2.35.23A6.73,6.73,0,0,1,19,302.84a36.14,36.14,0,0,1-3.91-25.35c1.33-6,0-10.79-3.2-15.48-.56-.8-1.32-1.37-1.38-2.51-.71-13.75-4.05-27.24-4-41.07,0-3.86,2.6-6.59,3.78-9.8,2.41-6.6,8.88-10.4,10.45-17.41s5.32-13,8.89-19.09c1.93-3.29,5.48-5.26,8.17-6.9,6.78-4.11,13.42-9.69,19.91-9.69m0-6h0c-6.85,0-12.88,4-18.72,7.81-1.49,1-2.89,1.9-4.3,2.75l-.56.34c-3,1.81-7.11,4.28-9.67,8.65l-.74,1.26c-3.53,6-7.17,12.19-8.83,19.56-.55,2.44-2.28,4.6-4.28,7.09a33.52,33.52,0,0,0-6,9.57A19.54,19.54,0,0,1,3.4,209a19.26,19.26,0,0,0-2.95,9.45c0,8.19,1.08,16.19,2.13,23.93.82,6,1.6,11.69,1.9,17.46a9,9,0,0,0,2.27,5.41l.17.22c2.5,3.61,3.16,6.73,2.27,10.77a42.13,42.13,0,0,0,4.51,29.51,12.6,12.6,0,0,0,11.6,6.6,18.78,18.78,0,0,0,3.44-.33l.79-.1c1.75-.22,6.33-.78,8.72-5a28.21,28.21,0,0,0,3.28,1.76,10.74,10.74,0,0,1,2.25,1.26,2,2,0,0,1,.06.4c.32,4,4.13,8.42,10.78,9.17l1,.11a22.13,22.13,0,0,1,2.3.3,11.26,11.26,0,0,0,8,3.33,17.5,17.5,0,0,0,5.52-1.07c.5-.16,1-.31,1.35-.4,2.1-.52,4.06-1.19,6-1.84a52.32,52.32,0,0,1,5.66-1.71c2.31-.48,5.69-1.2,8-5.15a28.44,28.44,0,0,0,5.2,3.83,12.23,12.23,0,0,0,5.83,1.55c5.87,0,10.47-4.52,11-10.74a8.28,8.28,0,0,1,.42-2.25c.87-2.37,1.55-4.73,2.2-7,.73-2.53,1.41-4.91,2.31-7.2a39.34,39.34,0,0,0,2-8.66,33,33,0,0,1,1.45-6.61,9.07,9.07,0,0,0-3.51-10.61c-2.37-1.67-4-4.29-6-7.33-.94-1.47-1.9-3-3-4.48-3.13-4.22-7.06-6.36-11.69-6.36a23,23,0,0,0-6.23,1c-9.12,2.56-9.71,10.55-10,14-.64,8.76-1.28,13.9-7,17.6-2.74,1.77-3.78,2.13-4.14,2.19A8.67,8.67,0,0,1,69.19,280a19.38,19.38,0,0,0-14.81-6.78c-1.1,0-2.08-.05-3-.05a41.34,41.34,0,0,0-13.4,1.9c-3.66-5.15-5.54-8.75-4.36-13.91.31-1.37.65-2.74,1-4.12a98.42,98.42,0,0,0,3.11-17.7c.07-1.21.19-2.37.36-3.47a11.43,11.43,0,0,0,.77,2,9.54,9.54,0,0,0,7.63,5.21,11.83,11.83,0,0,0,1.32.08c6.73,0,8.92-5.93,9.74-8.17l.16-.44a12.24,12.24,0,0,0,.74-4.81c-.28-6.91,1.81-13.61,4-20.71.49-1.58,1-3.22,1.49-4.86.71-2.43,1.18-2.79,1.69-2.85a4.94,4.94,0,0,1,2,3.23c.24,2.23.59,4.4.93,6.5a65.94,65.94,0,0,1,1.09,9.49c.13,9.51,5.51,12.9,10.51,12.9a13,13,0,0,0,3.42-.49c7.23-2,7.56-8.56,7.69-11.05,0-.46,0-.94.09-1.2C92.73,211.8,94.69,209,100,208a11.55,11.55,0,0,0,4.81-2,8,8,0,0,0,7.1,4.16h.23c1.75-.05,5.95-.76,7.43-6.34,0-.06,0-.11,0-.17,2.26-6.16,2.12-12.41,1.63-18.25a22.36,22.36,0,0,0-2.19-7.31,10.06,10.06,0,0,1-1.23-3.93l.46-6.2-6.2-.24a17.13,17.13,0,0,1-.92-2.14c-.21-.54-.42-1.08-.64-1.6-1.86-4.41-5.69-9.66-13.29-9.66a15.63,15.63,0,0,0-1.91.11,7.29,7.29,0,0,1-1-.26C86.18,151.51,78,151,68.61,150.4c-2.43-.15-4.94-.31-7.56-.51a16.76,16.76,0,0,0-3.4-.35Z"/><path class="cls-5" d="M127.89,320c-5.73-6.34-7.13-14.09-3.93-21.83.78-1.9,1.38-3.9,2-6,1.37-4.52,2.77-9.19,6.1-13.22-.39-3.73,1.18-6.87,2.47-9.45,1.07-2.15,2-4,1.83-5.82-.12-1.31-.23-2.61-.33-3.92-.55-6.93-1.07-13.46-4.17-19.38-2.69-5.13-3.23-9.78-1.63-14.22a2,2,0,0,0,.06-.22,3.41,3.41,0,0,0-.43-.81c-3.46-5.53-4.3-11.56-2.58-18.44a46.56,46.56,0,0,0,1-8.85c.08-1.31.15-2.63.26-3.93a4.79,4.79,0,0,0,0-1.41h0s-.09-.06-.25-.13c-2.23-1-3.06-3.64-3.26-4.42-2.73-10.62-1.71-20.44,3-29.18a8.84,8.84,0,0,1,7.6-4.66,7.4,7.4,0,0,1,3.79,1,24.17,24.17,0,0,0,6.95,2.43c1.33.32,2.69.65,4.07,1.09.6.2,1.21.38,1.82.57,4.1,1.24,8.75,2.65,12,7.13a1.56,1.56,0,0,0,1.43.67,6.28,6.28,0,0,0,1.93-.37,54.23,54.23,0,0,0,5.12-2.06c3.94-1.72,8-3.5,12.81-3.5l.9,0c3-4.65,7.58-5.2,11.33-5.64.78-.09,1.56-.18,2.34-.31a31.64,31.64,0,0,0,3.94-1,24.65,24.65,0,0,1,7.43-1.47,13.35,13.35,0,0,1,4.27.69c.09,0,.42,0,.64,0a5.73,5.73,0,0,1,4.5,1.92c.86,1.07,1.78,2.12,2.75,3.22,2.7,3.08,5.49,6.26,7.05,10.15,2.51,6.3-.15,12.74-3.09,18.21l-.34.65c-1.05,2-2.35,4.49-5.3,6.16l-2.71,1.55L218,192.5l-1.21-2.38c-.88-1.73-1.7-3.36-2.6-5a6,6,0,0,0-5.2-3.27,5.78,5.78,0,0,0-4.95,3,28,28,0,0,0-4.45,13.49c-.16,4-2.35,6.29-6.52,6.84a31.5,31.5,0,0,1-4.06.35c-5.61,0-7.39-3.54-9.14-8.16A12.51,12.51,0,0,0,172.9,190a6.68,6.68,0,0,0-2.74-.74,2.53,2.53,0,0,0-2.31,1.38,31.09,31.09,0,0,0-5.15,21.86c.36,2.61,1.64,3.31,6.52,3.6s8.44,2,11.21,5.46a1.57,1.57,0,0,0,2.86,0c2.1-3,4.66-3.88,6.91-4.69l.9-.33c.48-.18,1-.35,1.46-.51,2-.67,2.86-1,3.31-2a4.62,4.62,0,0,1,4.43-2.79c.34,0,.69,0,1,.06a3.88,3.88,0,0,0,.48,0,5.74,5.74,0,0,1,.73,0c.27,0,.53,0,.8,0a4.84,4.84,0,0,1,4.12-2.75,5.27,5.27,0,0,1,3.71,1.77l.28.28c1.44,1.42,5.26,5.2,1.73,9.26-1.68,1.92-1.76,3.93-1.75,7.32v.51q0,.3,0,.63c.09,1.31.28,4.06-2.26,5.65-3.95,2.47-4.44,5.95-4.92,11.44a42,42,0,0,1-.88,6.28c-.13.53-.24,1.07-.36,1.6-.67,3-1.42,6.51-4.23,9.32a8,8,0,0,1-5.65,2.64c-2.7,0-5-1.7-6.34-4.68a34.11,34.11,0,0,0-5.51-7.81,47.29,47.29,0,0,1-5.33-7.13,7.21,7.21,0,0,0-1-.06c-2.88,0-6,1-6.57,1.56l-.47.62c-1.89,2.48-2.95,4-2.66,6.39.67,5.46-.9,11-4.68,16.52-.87,1.26-.86,1.79-.86,1.82h0a4.19,4.19,0,0,0,1.66,1,19.54,19.54,0,0,1,7.52,6.28c1.91,2.42,4.09,3.6,6.66,3.6a10.46,10.46,0,0,0,3-.47l2.58-.79c2.61-.8,5.3-1.63,8-2.28a21.72,21.72,0,0,1,5.06-.66,14.24,14.24,0,0,1,8.82,2.92,5,5,0,0,0,2.66,1.27c.86,0,1.75-1.15,2.35-2.12,2.62-4.26,9.32-6.49,14.57-6.49a14.18,14.18,0,0,1,4.82.75,5.74,5.74,0,0,1,3.94,6.16,41.15,41.15,0,0,0,0,4.18c.1,4.1.21,8.33-2.34,11.11-2.39,2.6-3.64,5.75-5,9.08A39.87,39.87,0,0,1,220,314.3c-1.74,2.5-5.06,4-8.87,4-3.62,0-6.82-1.37-8.55-3.67s-2.59-2.48-2.74-2.48-1.05.16-3,2.19l-1,1c-.83.9-1.69,1.84-2.67,2.72-1.47,1.33-3.49,2.85-6,2.85-2.14,0-4.14-1-6.11-3.17-.56-.6-1.13-1.17-1.69-1.73-2.49-2.52-5.07-5.12-6.5-9.62-.69-2.16-3.92-3.67-7.87-3.67-3.3,0-6.26,1.11-7.54,2.82a21.7,21.7,0,0,1-14.17,8.16c-4.19.67-7.39,2.51-11.05,6.33l-2.22,2.34Z"/><path d="M211.62,155.67a10.71,10.71,0,0,1,3.33.53c1.21.4,2.86-.1,3.74,1,3.29,4.1,7.48,7.9,9.35,12.6,2.06,5.16-.32,10.79-2.94,15.68-1.07,2-2,4.23-4.48,5.63-1.3-2.51-2.51-5-3.86-7.43a9,9,0,0,0-7.82-4.81,8.77,8.77,0,0,0-7.52,4.42,31.28,31.28,0,0,0-4.88,14.93c-.11,2.86-1.55,3.66-3.92,4a30.06,30.06,0,0,1-3.66.32c-3.41,0-4.52-1.43-6.33-6.22a15.57,15.57,0,0,0-8.46-9,9.63,9.63,0,0,0-4-1,5.53,5.53,0,0,0-4.82,2.74,34,34,0,0,0-5.61,23.92c.76,5.45,5.26,5.94,9.31,6.18,3.79.22,6.71,1.44,9.05,4.34a4.76,4.76,0,0,0,3.72,2,5,5,0,0,0,3.92-2.19c1.8-2.53,4-3,6.43-4s5.17-1.29,6.45-4.1a1.63,1.63,0,0,1,1.69-1c.5,0,1,.1,1.53.1l.33,0,.4,0c.42,0,.85.05,1.27.05a1.88,1.88,0,0,0,1.88-1.07c.5-1,1-1.7,1.77-1.7a2.42,2.42,0,0,1,1.59.89c1.58,1.58,3.66,3.39,1.87,5.45-2.63,3-2.49,6.32-2.49,9.8,0,1.29.46,2.94-.82,3.73-7.49,4.69-5.49,12.8-7.12,19.56-.82,3.39-1.19,6.89-3.8,9.51a5.2,5.2,0,0,1-3.53,1.76c-1.44,0-2.73-1-3.6-2.9-2.72-6.07-8.25-10-11.33-15.85-.34-.65-1.62-.93-3.23-.93-3.2,0-7.72,1.11-8.91,2.68-2,2.68-4.26,5.19-3.77,9.25.65,5.23-1.23,10.17-4.17,14.46-2.47,3.59-1.57,5.72,2.08,7.3a16.42,16.42,0,0,1,6.36,5.38,11.24,11.24,0,0,0,9,4.74,13.29,13.29,0,0,0,3.82-.6c3.47-1,6.92-2.19,10.45-3a18.49,18.49,0,0,1,4.37-.58,11.29,11.29,0,0,1,7,2.32,7.79,7.79,0,0,0,4.46,1.87c1.74,0,3.37-1.05,4.9-3.54,1.94-3.15,7.47-5.07,12-5.07a11.48,11.48,0,0,1,3.81.57,2.78,2.78,0,0,1,2,3.1c-.37,4.61.91,10.79-1.58,13.5-4.88,5.31-5.51,12.22-9.3,17.67-1.25,1.81-3.84,2.71-6.4,2.71s-4.91-.83-6.16-2.48c-1.86-2.45-3.45-3.67-5.13-3.67s-3.18,1.05-5.15,3.13c-1.15,1.2-2.24,2.48-3.47,3.59-1.4,1.26-2.68,2.08-4,2.08s-2.47-.65-3.92-2.21c-2.94-3.17-6-5.47-7.52-10.23-1.22-3.81-6-5.75-10.73-5.75-4,0-7.94,1.33-9.95,4a18.75,18.75,0,0,1-12.23,7c-5.37.87-9.13,3.45-12.75,7.23-5.1-5.63-6.09-12.11-3.38-18.67s3.32-13.73,8.25-19.16c.11-.12.31-.29.28-.39-1.55-6.22,4.65-10.59,4.11-16.38-.78-8.27-.83-16.76-4.84-24.41-2-3.77-2.95-7.68-1.46-11.81a3.73,3.73,0,0,0-.65-3.64c-3.14-5-3.67-10.28-2.21-16.12,1.07-4.26,1-8.82,1.37-13.25.16-1.84.18-3.57-2-4.54A3.85,3.85,0,0,1,128,187.2c-2.39-9.33-1.86-18.47,2.76-27a5.87,5.87,0,0,1,5-3.09,4.3,4.3,0,0,1,2.25.62c3.7,2.21,7.76,2.55,11.64,3.8,4.49,1.45,9.23,2.35,12.38,6.62a4.51,4.51,0,0,0,3.84,1.89,9.33,9.33,0,0,0,2.86-.52c5.64-1.84,10.81-5.41,17-5.41.46,0,.91,0,1.38.06h.09a2.12,2.12,0,0,0,1.6-.82c2.67-4.91,7.47-4.45,12-5.21,3.67-.62,7.13-2.46,10.88-2.47m0-6h0a27.7,27.7,0,0,0-8.32,1.6,28,28,0,0,1-3.55.95c-.68.11-1.42.2-2.2.29-3.59.43-8.79,1-12.5,5.61-5.16.14-9.52,2-13.38,3.75-1.69.74-3.3,1.44-4.85,1.95l-.49.14c-3.85-4.79-9-6.34-13.12-7.6l-1.77-.54c-1.48-.48-2.91-.83-4.28-1.16a21.76,21.76,0,0,1-6.12-2.08,10.41,10.41,0,0,0-5.33-1.47,11.83,11.83,0,0,0-10.23,6.23c-5.11,9.43-6.22,20-3.3,31.35a10.56,10.56,0,0,0,3.38,5.47c-.09,1.19-.16,2.37-.22,3.51a45.08,45.08,0,0,1-1,8.29c-1.89,7.53-1,14.18,2.67,20.31-1.44,4.93-.72,10,2.16,15.51s3.31,11.61,3.84,18.22q.15,2,.33,4c.09,1-.69,2.53-1.52,4.2C130.59,270.7,129,274,129,278c-3.18,4.27-4.61,9-5.9,13.3-.62,2.05-1.2,4-1.93,5.74-3.66,8.88-2.07,17.75,4.49,25l4.33,4.78,4.45-4.66c3.2-3.36,5.83-4.88,9.36-5.45a24.68,24.68,0,0,0,16.09-9.32c.59-.79,2.59-1.62,5.14-1.62,3.15,0,4.89,1.2,5,1.58,1.66,5.18,4.62,8.18,7.23,10.82.57.57,1.1,1.11,1.62,1.67,2.54,2.73,5.33,4.12,8.31,4.12,3.62,0,6.33-2.07,8-3.62,1.08-1,2-2,2.86-2.92.31-.33.62-.67.94-1s.44-.46.62-.63c.15.18.33.4.52.66,2.31,3,6.4,4.86,11,4.86,4.79,0,9-2,11.33-5.29a41.8,41.8,0,0,0,4.4-8.87c1.27-3.2,2.37-6,4.39-8.16,3.37-3.67,3.24-8.74,3.13-13.22,0-1.43-.07-2.78,0-3.87a8.7,8.7,0,0,0-5.91-9.21,17.16,17.16,0,0,0-5.84-.93c-5.9,0-13.77,2.48-17.13,7.92-.07.12-.15.23-.21.33l-.45-.31a17.33,17.33,0,0,0-10.61-3.52,24.46,24.46,0,0,0-5.76.74c-2.83.67-5.58,1.52-8.23,2.34l-2.56.78a7.57,7.57,0,0,1-2.09.34c-1,0-2.56-.26-4.3-2.46a23.29,23.29,0,0,0-7.51-6.61c3.7-5.79,5.21-11.68,4.49-17.54-.14-1.13.29-1.87,2.06-4.2l.13-.15a13.57,13.57,0,0,1,3.81-.83,59,59,0,0,0,4.75,6.12,31.52,31.52,0,0,1,5,7.09c1.81,4,5.21,6.45,9.08,6.45a10.87,10.87,0,0,0,7.77-3.52c3.43-3.43,4.32-7.51,5-10.8.11-.51.23-1,.35-1.54a44.32,44.32,0,0,0,.95-6.72c.47-5.34.89-7.51,3.52-9.16,4.06-2.54,3.76-6.95,3.66-8.4,0-.14,0-.29,0-.42v-.52c0-3.09.07-4.27,1-5.34a8.31,8.31,0,0,0,1.3-9.29,15.1,15.1,0,0,0-3.18-4.08l-.27-.26a8.14,8.14,0,0,0-5.83-2.65,7.2,7.2,0,0,0-5.64,2.75h-.21a11.41,11.41,0,0,0-1.33-.08,7.64,7.64,0,0,0-7.08,4.38,14.16,14.16,0,0,1-1.6.59c-.48.16-1,.34-1.58.55l-.85.31a16.38,16.38,0,0,0-7.39,4.56,17.61,17.61,0,0,0-12.41-5.46,14.34,14.34,0,0,1-3.61-.54,2.13,2.13,0,0,1-.11-.49,28.17,28.17,0,0,1,4.69-19.79h0a4.77,4.77,0,0,1,1.26.43,9.52,9.52,0,0,1,5.39,5.7c1.52,4,3.82,10.1,12,10.1a35.41,35.41,0,0,0,4.45-.37c7.65-1,9-6.51,9.13-9.7a25,25,0,0,1,4-12.05,2.81,2.81,0,0,1,2.38-1.53,3,3,0,0,1,2.58,1.74c.87,1.55,1.68,3.16,2.54,4.86.41.79.81,1.59,1.23,2.39l2.87,5.55,5.42-3.09a16.38,16.38,0,0,0,6.47-7.38l.33-.62c2-3.68,6.6-12.3,3.24-20.74-1.75-4.38-4.85-7.91-7.59-11-.95-1.08-1.84-2.1-2.65-3.11a8.63,8.63,0,0,0-6.68-3.05h-.2a16.67,16.67,0,0,0-4.88-.73Z"/><path class="cls-6" d="M441.08,320.69a7.43,7.43,0,0,1-6-3.24,27.6,27.6,0,0,0-2.09-2.33,19,19,0,0,1-5.07-7.58c-.79-2.4-5.56-5.19-10.52-5.19-1.5,0-4.23.29-5.66,2.24a22.71,22.71,0,0,1-16.58,9.62,9.65,9.65,0,0,0-6.19,3.33c-1,1.07-2.49,2.5-4.56,2.5-2.82,0-4.46-2.59-5.25-3.84-5.18-8.2-1.89-16.32.28-21.69l.12-.31c2.11-5.22,4.3-10.61,6.16-15.58.51-1.35,1.1-2.72,1.68-4,1.65-3.8,3.36-7.72,3.3-11.92-.14-9.5-3.15-18.2-6.07-26.6a1.74,1.74,0,0,1-.11-.18,4.37,4.37,0,0,1-.9-3c.54-4.48-.27-9-1.12-13.77-1.19-6.63-2.42-13.48-.06-20.78.77-2.39-.43-5.66-1.84-8.85-4.5-10.18-3.95-20.88,1.54-30.15,1.91-3.22,4.79-5.07,7.9-5.07a9.11,9.11,0,0,1,5.17,1.72,10.74,10.74,0,0,0,3.95,1.32,26.68,26.68,0,0,1,3.32.86c1.12.39,2.29.71,3.53,1.05,4.28,1.18,9.13,2.51,12.59,7.28.1.14.38.53,1.44.53a6.84,6.84,0,0,0,2-.36,55,55,0,0,0,5.17-2.06c3.89-1.69,7.91-3.45,12.66-3.45h.3c3.49-4.54,8.54-5.25,12.67-5.83a20.1,20.1,0,0,0,6.41-1.57,12,12,0,0,1,5.61-1.29c5.6,0,11.29,3.12,13.84,7.6.16.29.31.61.45.93a.5.5,0,0,0,.05.13l.08.07c2.64,2.08,5.93,4.68,6.24,9.7a27.11,27.11,0,0,1-4.57,17.45c-.19.28-.35.58-.52.89a8.83,8.83,0,0,1-4.79,4.54l-2.51.93-4.65-9.15a5.69,5.69,0,0,0-10.12-.76c-2.57,3.72-4.05,8.18-4.81,14.45-.24,2-.74,6.05-5.22,6.05a8.46,8.46,0,0,1-1.73-.19,1.77,1.77,0,0,0-.34,0,2.05,2.05,0,0,0-.8.15,10.23,10.23,0,0,1-4,.92c-4,0-6.85-3-7.37-7.78-.42-3.89-2.73-6-6.57-8.23a6.3,6.3,0,0,0-3-1A2.78,2.78,0,0,0,422,190.5c-4.32,6.1-6.07,13.3-5.19,21.4.33,3,1.81,4,6.86,4.27,2.9.18,7.11.86,10.05,4.73,1,1.29,1.54,1.29,1.73,1.29a7.94,7.94,0,0,0,3.21-1.47c.92-.61,1.83-1.23,2.74-1.85,4.74-3.24,9.65-6.59,16-7.56.17-.12.48-.37.69-.55a6.45,6.45,0,0,1,4.12-1.88c1.93,0,3.58,1.17,4.9,3.47l.13.22a5.14,5.14,0,0,1,.44,5.48,19.35,19.35,0,0,0-2.34,11.24,5.17,5.17,0,0,1-1.9,4.43c-4.17,2.88-4.62,7.22-5.14,12.25a48.39,48.39,0,0,1-.92,6.22,37.13,37.13,0,0,1-2.68,8.11c-1.55,3.13-4.11,4.85-7.2,4.85-.31,0-.63,0-1,0-3.3-.37-4.71-2.85-5.56-4.34a9.55,9.55,0,0,0-.56-.93c-1.09-1.58-2.15-3.22-3.16-4.8a65.57,65.57,0,0,0-7.53-10.22,1.34,1.34,0,0,0-.8-.18c-3.36,0-9.37,4.58-9.44,7.92-.18,8.11-1.78,14.11-5.2,19.45a.76.76,0,0,0-.16.53,1.12,1.12,0,0,0,.63.53c3.93,1.67,6.54,4.44,9.06,7.12l.72.77a6.89,6.89,0,0,0,5.21,2.42,10.57,10.57,0,0,0,3.11-.53c3.28-1,6.52-2,9.64-2.8a21.91,21.91,0,0,1,5.69-.83,14.79,14.79,0,0,1,9.15,3.08,4.71,4.71,0,0,0,2.47,1.13c.88,0,1.73-1.08,2.28-2,2.71-4.41,9.53-6.72,14.87-6.72a14.21,14.21,0,0,1,5,.8,5.25,5.25,0,0,1,3.42,4.87l0,.33c.62,4.88.78,11.56-2,15.62a62.21,62.21,0,0,0-5.87,11.81c-.64,1.56-1.3,3.16-2,4.76-1.49,3.32-5.14,5.39-9.53,5.39a11.54,11.54,0,0,1-7.79-2.8,25.16,25.16,0,0,0-3.63-3,24.41,24.41,0,0,0-3.68,2.68l-.1.08c-.57.45-1.12.91-1.68,1.37s-1.43,1.18-2.16,1.75A9.53,9.53,0,0,1,441.08,320.69Z"/><path d="M464.82,155.44c4.36,0,9.18,2.49,11.23,6.09.33.57.49,1.33,1,1.7,2.62,2.07,5.24,4,5.47,7.82a24,24,0,0,1-4,15.57c-1,1.46-1.48,3.43-3.88,4.32-1.23-2.4-2.34-4.59-3.45-6.78a8.68,8.68,0,0,0-15.26-1.09c-3.29,4.76-4.64,10.2-5.32,15.78-.24,2-.4,3.42-2.24,3.42a5.67,5.67,0,0,1-1.13-.13,4.69,4.69,0,0,0-.94-.09,5.32,5.32,0,0,0-2,.39,7.11,7.11,0,0,1-2.84.68c-2.69,0-4.08-2.25-4.39-5.11-.58-5.38-4-8.13-8-10.48a9.14,9.14,0,0,0-4.56-1.4,5.75,5.75,0,0,0-4.86,2.63c-4.95,7-6.65,15-5.72,23.46.64,5.89,5.12,6.67,9.66,6.95,3.18.19,5.9,1,7.85,3.55,1.36,1.78,2.71,2.47,4.11,2.47s3.13-.84,4.85-2c5.56-3.65,10.79-8,17.75-9,1.46-.21,2.74-2.37,4.2-2.37.71,0,1.46.5,2.3,2,.54.94,1.13,1.76.58,2.7a22.21,22.21,0,0,0-2.74,12.94,2.36,2.36,0,0,1-.61,1.78c-7.27,5-5.63,13.24-7.28,20.25a34.33,34.33,0,0,1-2.45,7.46c-.94,1.89-2.39,3.18-4.51,3.18l-.62,0c-2.32-.26-2.9-2.42-4-4-3.6-5.19-6.67-10.91-11-15.39a3.94,3.94,0,0,0-2.95-1.1c-4.88,0-12.33,5.72-12.44,10.85-.14,6.42-1.2,12.39-4.73,17.9a3.58,3.58,0,0,0,1.83,5.44c3.69,1.57,6.16,4.44,8.78,7.19a9.84,9.84,0,0,0,7.38,3.36,13.54,13.54,0,0,0,4-.66q4.74-1.47,9.53-2.77a19,19,0,0,1,4.91-.73,11.87,11.87,0,0,1,7.35,2.48,7.4,7.4,0,0,0,4.27,1.73c1.72,0,3.36-1,4.83-3.41,2-3.27,7.67-5.29,12.32-5.29a11.13,11.13,0,0,1,3.9.61c1.46.55,1.4,1.6,1.54,2.77.6,4.69.62,10.45-1.5,13.55-3.71,5.43-5.57,11.28-8.14,17-1.08,2.41-3.92,3.61-6.79,3.61a8.57,8.57,0,0,1-5.76-2c-2.81-2.59-4.2-3.83-5.65-3.84s-2.84,1.18-5.67,3.44c-1.27,1-2.53,2.09-3.82,3.11a6.74,6.74,0,0,1-4,1.69,4.53,4.53,0,0,1-3.64-2.06c-2.24-2.94-5.28-4.75-6.7-9-1.36-4.11-7.68-7.25-13.37-7.25-3.24,0-6.28,1-8.08,3.47a19.7,19.7,0,0,1-14.46,8.41,12.64,12.64,0,0,0-8.12,4.3c-.92,1-1.65,1.51-2.33,1.51-.9,0-1.7-.84-2.71-2.44-4.18-6.6-1.82-13.19.52-19,2.12-5.24,4.4-10.85,6.31-15.95s5.26-10.64,5.17-17.06c-.15-9.8-3.15-18.68-6.27-27.66-.22-.61-.9-1.21-.83-1.75,1.37-11.37-5.06-22.37-1.31-34,1.07-3.31-.2-7.05-1.95-11a29.39,29.39,0,0,1,1.38-27.4c1.19-2,3.05-3.6,5.32-3.6a6.16,6.16,0,0,1,3.48,1.2c2.42,1.65,5.34,1.61,8,2.53,5.17,1.81,11,2.14,14.68,7.26A4.52,4.52,0,0,0,420,170a9.68,9.68,0,0,0,2.92-.5c5.62-1.81,10.77-5.37,16.92-5.37.47,0,1,0,1.45.07h.06a.55.55,0,0,0,.41-.13c4.34-7.25,12.77-4.52,18.84-7.67a9.18,9.18,0,0,1,4.22-.95m0-6h0a14.94,14.94,0,0,0-7,1.63,18.33,18.33,0,0,1-5.45,1.26c-4.13.58-9.55,1.34-13.67,5.82-4.89.25-9,2.06-12.74,3.67a51.2,51.2,0,0,1-4.89,2,6.36,6.36,0,0,1-.67.18c-4-5-9.34-6.48-13.65-7.66-1.18-.33-2.3-.64-3.33-1a26.72,26.72,0,0,0-3.7-1,10,10,0,0,1-2.87-.86,12,12,0,0,0-6.86-2.25c-4.19,0-8,2.38-10.48,6.54a35.52,35.52,0,0,0-1.7,32.89c.61,1.39,2.25,5.09,1.73,6.72-2.59,8-1.24,15.57,0,22.23.81,4.55,1.58,8.84,1.09,12.87a7.27,7.27,0,0,0,1.28,4.91c2.8,8.08,5.65,16.42,5.78,25.31,0,3.55-1.46,7-3.05,10.69-.59,1.35-1.2,2.75-1.74,4.18-1.84,4.92-4,10.28-6.11,15.47l-.14.34c-2.26,5.58-6,14.92,0,24.43.9,1.43,3.31,5.23,7.78,5.23,3.64,0,6-2.62,6.79-3.49a6.61,6.61,0,0,1,4.26-2.35,25.59,25.59,0,0,0,18.69-10.83c.47-.64,1.69-1,3.25-1,3.95,0,7.27,2.19,7.68,3.15a21.76,21.76,0,0,0,5.76,8.71,23,23,0,0,1,1.85,2.06,10.54,10.54,0,0,0,8.42,4.42,12.48,12.48,0,0,0,7.76-3c.75-.59,1.48-1.2,2.22-1.8.54-.45,1.08-.9,1.63-1.33l.1-.09,1.7-1.34c.56.5,1.2,1.09,1.7,1.55a14.56,14.56,0,0,0,9.83,3.6c5.59,0,10.29-2.75,12.27-7.17.73-1.63,1.4-3.26,2.05-4.83A58.74,58.74,0,0,1,485.9,298c2.65-3.89,3.49-9.85,2.5-17.7a2.48,2.48,0,0,1,0-.27c-.4-3.69-2.2-6.16-5.35-7.35a16.93,16.93,0,0,0-6-1c-6,0-14,2.55-17.43,8.15a1.93,1.93,0,0,1-.13.21l-.26-.19a18,18,0,0,0-10.95-3.68,24.85,24.85,0,0,0-6.47.94c-3.15.84-6.44,1.8-9.75,2.83a7.64,7.64,0,0,1-2.22.39,3.84,3.84,0,0,1-3-1.49l-.71-.75a34,34,0,0,0-7.88-6.74c2.83-5.27,4.19-11.17,4.36-18.78.21-1.49,3.74-4.37,5.83-4.9a70.2,70.2,0,0,1,6.41,8.94c1,1.61,2.1,3.26,3.23,4.89.1.14.26.43.42.71,1,1.71,3,5.29,7.83,5.83a11.15,11.15,0,0,0,1.29.07c4.23,0,7.84-2.37,9.89-6.52a39.83,39.83,0,0,0,2.91-8.75,51.64,51.64,0,0,0,1-6.6c.55-5.25,1-8.08,3.87-10.09a8.1,8.1,0,0,0,3.18-7.09,16.27,16.27,0,0,1,1.95-9.55c2.25-3.88.22-7.35-.45-8.49l-.11-.2c-2.37-4.12-5.39-5-7.51-5a9.31,9.31,0,0,0-6,2.57l0,0c-6.68,1.22-11.88,4.77-16.48,7.92-.9.61-1.79,1.22-2.7,1.82a11.83,11.83,0,0,1-1.07.65c-4.12-5.19-10.1-5.56-12.09-5.68-2.93-.18-3.67-.54-3.85-.69h0a3,3,0,0,1-.21-.91c-.81-7.45.72-13.78,4.66-19.35l.07-.09a3.78,3.78,0,0,1,1.4.55c3.61,2.14,4.85,3.59,5.11,6,.68,6.26,4.84,10.46,10.35,10.46a12.94,12.94,0,0,0,4.91-1,10.89,10.89,0,0,0,2,.19,7.63,7.63,0,0,0,7.06-4.22,12.6,12.6,0,0,0,1.13-4.42v0c.7-5.76,2-9.8,4.3-13.1a2.71,2.71,0,0,1,5,.41c.76,1.48,1.51,3,2.3,4.51l1.15,2.26,2.42,4.76,5-1.86a11.7,11.7,0,0,0,6.37-5.9c.14-.24.29-.52.37-.63a30,30,0,0,0,5.09-19.34c-.37-6-4.11-9.28-6.86-11.47-.1-.21-.21-.43-.35-.67-3.05-5.36-9.82-9.11-16.44-9.11Z"/><path class="cls-7" d="M816,319.28a7.07,7.07,0,0,1-7-4.61,30.38,30.38,0,0,0-4.9-7.19l-.76-.92c-5.78-7-6.55-14.9-2.2-22.13,3-5.06,3.08-10.13.12-16.45a87.76,87.76,0,0,1-4.1-11.31l-.28-.93c-.71-2-7.27-7.34-9.24-7.58h0a1,1,0,0,0-.9.48l-.27.35a7.15,7.15,0,0,1-4.71,3.26c.79,3.84-.82,6.9-2.15,9.41-.29.55-.58,1.1-.85,1.66-1.56,3.31-1.68,4.74-.52,6.12,6.11,7.25,5.94,15.88,4.84,24.14-.63,4.73.83,8.12,3.22,11.76a17.29,17.29,0,0,0,2.57,3.31c2.31,2.08,3,4.36,2,6.78a4.39,4.39,0,0,1-4.33,2.82l-.73,0-.36,0a23.64,23.64,0,0,1-3.73.3c-7.62,0-13.89-3.89-19.17-11.9a1.41,1.41,0,0,0-1.21-.69,1.88,1.88,0,0,0-1.41.76,43.78,43.78,0,0,0-2.61,3.7,50.25,50.25,0,0,1-3,4.25c-1.7,2.06-3.43,3.07-5.27,3.07-1.67,0-4-.84-5.45-4.81-1.91-5.11-2-10.2-.25-14,2-4.33,2.85-8.91,3.73-13.75.44-2.38.89-4.83,1.49-7.27a3.64,3.64,0,0,1,.82-2.41c4.83-5.69,4.53-12.44,4.22-19.58a70.79,70.79,0,0,1,0-9.66,4.82,4.82,0,0,0,0-.49,5.59,5.59,0,0,1,1.37-4.57c4.88-5.25,3.89-11.38,2.75-18.48-.12-.72-.24-1.44-.34-2.16-.14-.89-.28-1.78-.43-2.66-1-6.38-2.11-13,.31-20,1.22-3.55.71-4.53-.89-5.39-2.37-1.26-3.06-3.67-3.57-5.43l-.21-.74c-1.89-6.23-3.68-12.12-8.14-16.48a6.14,6.14,0,0,1-.54-8.5,4.09,4.09,0,0,0,.7-2.52,6.56,6.56,0,0,1,1.4-4.08c1.09-1.19,2.87-1.68,6.16-1.68.36,0,8.49,0,11.39,2.38a12.27,12.27,0,0,1,2.75-.29,26.19,26.19,0,0,1,5.82.84,22.63,22.63,0,0,0,4.76.72,7.19,7.19,0,0,0,4.59-1.56c5.71-4.31,13.33-7.15,23.29-8.7a11.42,11.42,0,0,1,1.55-.11,7.93,7.93,0,0,1,6.83,3.41c1.43,2.23,3.66,3.73,6,5.32,1.16.79,2.36,1.59,3.52,2.52l.41.33c4.81,3.84,10.78,8.62,7.32,17.67a7.28,7.28,0,0,0,.4.87,15.78,15.78,0,0,1,.65,1.46c2.27,6.32,4.2,14.63-1.06,22.9,1.17,5.22.31,11.87-9.88,14.66a3.92,3.92,0,0,0-.56.23c-.28,4.91-2.75,8.65-4.94,12-.86,1.29-1.66,2.52-2.34,3.78-.81,1.51-.11,3.6,2.09,6.21,4.26,5.07,9.56,11.39,8.79,20.62,0,.36,1,1.4,1.5,1.91l.37.39c2.93,3.09,5.81,7,5.06,12.58-.1.74.47,1.47,1.7,2.84.23.26.47.52.69.78a15.14,15.14,0,0,1,3.9,10.12c0,5.72-.26,12.42-.69,19.91a5.22,5.22,0,0,1-8.9,3.4c-1.07,5.28-4.71,8.59-10,9C816.7,319.27,816.34,319.28,816,319.28ZM785.44,209.14a9.89,9.89,0,0,1-.09,2.75c-.22,1.68-.15,1.72.25,1.94a5.64,5.64,0,0,0,2.7.78h0a3.17,3.17,0,0,0,2-.68,12.79,12.79,0,0,1,7.21-2.46l1.11-.13c4.6-.59,5.61-2,6-3.22,1.87-6.11,4-13,3.91-20.08a11.38,11.38,0,0,1,.09-1.47c0-.08,0-.18,0-.27a25.69,25.69,0,0,1-6.62-6.57,22,22,0,0,0-4.58-4.84,5.32,5.32,0,0,0-2.61-1.09c-.24,0-.7,0-1.28,1-1,1.75-2.05,3.48-3.08,5.14-2.69,4.38-5.23,8.52-6.63,13.2l0,.15c-.72,2.42-1.11,4-.39,5,2.27,3.4,2.15,6.81,2,10.41Z"/><path d="M806.24,149.34a5,5,0,0,1,4.31,2c2.54,4,6.74,5.8,10.18,8.56,4.8,3.85,9.64,7.43,6.74,14.76-.59,1.49.59,2.86,1.09,4.24,2.48,6.9,3.45,13.73-.81,20.37a2.73,2.73,0,0,0-.41,1.89c1.61,6.64-1.79,9.79-7.68,11.4-1,.29-2.77,1.23-2.75,1.84.17,6.39-4.24,10.58-6.95,15.64-1.81,3.38.24,6.94,2.44,9.55,4.54,5.41,8.75,10.74,8.1,18.43-.16,1.84,1.41,3.27,2.68,4.62,2.67,2.82,4.85,5.84,4.27,10.12-.35,2.56,1.63,4.27,3.08,6a12.12,12.12,0,0,1,3.18,8.16c0,6.78-.36,14.05-.68,19.75a2.19,2.19,0,0,1-2.24,2.09,2.16,2.16,0,0,1-2.06-1.45l-.06-.15a2.1,2.1,0,0,0-2-1.43,2.2,2.2,0,0,0-2.24,2.11v.09c-.34,5-3.07,8-7.55,8.31l-.86,0a4.11,4.11,0,0,1-4.29-2.77c-1.4-3.34-3.8-6-6.1-8.85-4.62-5.64-6-12-2-18.68,3.88-6.43,3.34-12.72.26-19.28a93.72,93.72,0,0,1-4.23-11.85c-.92-2.94-8.76-9.51-11.92-9.68h-.25a3.94,3.94,0,0,0-3.21,1.64c-.94,1.21-1.73,2.5-3.45,2.5l-.43,0a2.36,2.36,0,0,0-.37,0c-1.64,0-2,1.39-1.57,2.6,1.38,4-1,7-2.5,10.18s-2.63,6.34-.1,9.33c5.5,6.53,5.15,14.34,4.15,21.81-.73,5.5.94,9.63,3.69,13.81a19.48,19.48,0,0,0,3.08,3.89c1.12,1,1.8,2,1.23,3.42a1.46,1.46,0,0,1-1.55.95c-.36,0-.73-.05-1.09-.05a3.11,3.11,0,0,0-.43,0,20.19,20.19,0,0,1-3.3.27c-7.37,0-12.53-4.28-16.66-10.55a4.45,4.45,0,0,0-3.72-2,4.83,4.83,0,0,0-3.72,1.85c-2.06,2.5-3.58,5.45-5.64,7.95-1,1.23-2,2-2.95,2s-1.89-.85-2.64-2.86c-1.45-3.9-1.89-8.3-.34-11.65,3.26-7,3.65-14.53,5.46-21.77.08-.32,0-.76.15-1,7.9-9.31,4-20.5,4.93-30.91.1-1.11-.42-2.24.56-3.29,6.44-6.94,4.38-15.18,3.17-23.13-1.08-7.1-2.73-14-.25-21.24,1-3,1.88-6.77-2.31-9-1.43-.76-1.79-2.65-2.28-4.25-2-6.47-3.9-13-8.95-17.91a3.12,3.12,0,0,1-.28-4.49,7.05,7.05,0,0,0,1.33-4.16,4,4,0,0,1,.63-2.28c.44-.49,2-.7,3.94-.7,3.66,0,8.6.75,9.55,1.76.33.35.8,1,1,1h0a9,9,0,0,1,3.59-.7c3.46,0,7,1.56,10.58,1.56a10.25,10.25,0,0,0,6.4-2.16c6.06-4.58,14.06-6.91,21.94-8.13a6.68,6.68,0,0,1,1.09-.09M788.3,217.61a6.18,6.18,0,0,0,3.88-1.32c2.18-1.7,4.36-1.65,6.86-2,3.36-.43,7.29-1.45,8.47-5.32,2.09-6.83,4.11-13.72,4-21,0-1.32.59-3.25-.49-3.8-5.26-2.71-7.23-8.61-11.9-11.8a7.94,7.94,0,0,0-4.3-1.61,4.37,4.37,0,0,0-3.9,2.57c-3.5,6.21-7.88,12-10,18.95-.78,2.58-1.66,5.34-.07,7.72,1.82,2.72,1.63,5.55,1.51,9.1a2,2,0,0,0,0,.43c.29,2-1.48,5.12,1.67,6.88a8.62,8.62,0,0,0,4.16,1.16m17.94-74.27a13.51,13.51,0,0,0-2,.16c-10.46,1.62-18.52,4.65-24.64,9.27a4.19,4.19,0,0,1-2.78.95,20.26,20.26,0,0,1-4.11-.65,29.17,29.17,0,0,0-6.47-.91,14.8,14.8,0,0,0-2.12.14c-3.64-2-9.4-2.23-12-2.23-3,0-6.25.31-8.38,2.66a9.36,9.36,0,0,0-2.17,5.88,7.41,7.41,0,0,1-.11.94,9.13,9.13,0,0,0,.84,12.44c3.91,3.83,5.59,9.36,7.37,15.21l0,.15c.05.18.11.36.16.55.54,1.87,1.53,5.36,5,7.22a10.77,10.77,0,0,1-.49,1.8c-2.66,7.74-1.47,15-.43,21.45.14.88.29,1.75.42,2.63.11.73.23,1.46.34,2.19,1.18,7.3,1.71,12-2,16a8.64,8.64,0,0,0-2.17,6.82c0,.06,0,.11,0,.17a74.35,74.35,0,0,0,0,9.9c.35,7.88.37,12.95-3.51,17.51a6.51,6.51,0,0,0-1.52,3.94c-.59,2.42-1,4.82-1.45,7.14-.85,4.65-1.65,9-3.5,13-2.11,4.54-2.06,10.32.16,16.27s6.12,6.76,8.26,6.76c2.76,0,5.31-1.4,7.58-4.16a48.48,48.48,0,0,0,3.21-4.51c.48-.72.94-1.42,1.4-2.08,5.64,7.78,12.36,11.56,20.5,11.56a26,26,0,0,0,3.89-.29h0c.31,0,.62,0,.92,0a7.43,7.43,0,0,0,7.11-4.69c.84-2.09,1.61-6.18-2.78-10.14a16.05,16.05,0,0,1-2.08-2.73c-2.45-3.73-3.2-6.37-2.75-9.72,1.19-8.93,1.35-18.32-5.51-26.46a.37.37,0,0,1-.07-.1,8.49,8.49,0,0,1,1-2.81c.22-.48.49-1,.78-1.53,1.13-2.15,2.69-5.09,2.71-8.72a10.49,10.49,0,0,0,3.2-2.67,23.81,23.81,0,0,1,5.94,5.23l.2.65a90.1,90.1,0,0,0,4.24,11.69c2.53,5.39,2.54,9.47,0,13.63-5.06,8.4-4.19,17.49,2.45,25.58l.76.93a28,28,0,0,1,4.45,6.45,10.13,10.13,0,0,0,9.82,6.44c.42,0,.84,0,1.31,0a13.33,13.33,0,0,0,11.55-7.69,8.31,8.31,0,0,0,1.94.23A8.14,8.14,0,0,0,839,307c.43-7.55.66-14.3.69-20.06a18.09,18.09,0,0,0-4.62-12.09l-.74-.84c-.27-.3-.65-.73-.89-1,.73-7.41-3.9-12.31-5.91-14.44l-.4-.41-.61-.65c.41-9.88-5.32-16.7-9.55-21.73a6.73,6.73,0,0,1-1.72-2.89c.62-1.14,1.38-2.3,2.18-3.52,2-3.05,4.42-6.71,5.2-11.4,8.25-2.75,12.13-8.68,10.85-16.57,5.21-9.14,2.93-18.29.71-24.48a13.14,13.14,0,0,0-.64-1.47c3.23-10.33-4.17-16.25-8.68-19.86l-.41-.32c-1.25-1-2.5-1.85-3.71-2.66-2.19-1.48-4.08-2.75-5.17-4.46a10.94,10.94,0,0,0-9.36-4.8ZM786,196.89a15.12,15.12,0,0,1,.66-2.69l0-.16c1.29-4.3,3.74-8.28,6.32-12.49.85-1.39,1.73-2.81,2.58-4.28l.14.09a20,20,0,0,1,3.9,4.21,32.68,32.68,0,0,0,5.87,6.22v.28c.07,6.57-2,13.27-3.78,19.18-.07.26-.9.78-3.5,1.12l-1,.11a15.77,15.77,0,0,0-8.74,3.09l-.07,0a11.73,11.73,0,0,0,0-2.6v-.11c.13-3.69.28-7.86-2.41-12Z"/><path class="cls-8" d="M901,323.44a10.67,10.67,0,0,1-5.7-2c-.71-.48-1.4-1-2.09-1.46-3.88-2.75-7.23-5.12-11.69-5.12-.35,0-.7,0-1.06,0s-.45,0-.67,0c-4.61,0-8-3.88-8.07-9.22,0-.74,0-1.5-.08-2.26-.21-4.66-.5-10.92,5.71-14.6a28.42,28.42,0,0,1,2.12-6c1.24-2.77,2.3-5.16,1.73-7.77-.25-1.15-.55-2.3-.86-3.52a38.88,38.88,0,0,1-1.71-10.57c.12-5.36.26-11.43,2.26-17.22,1.57-4.51.44-7.85-3.66-10.85-2.33-1.71-4.7-4-4.67-7.92a.38.38,0,0,0-.07-.26c-3.82-1.21-5-4.17-5.78-6.34-.1-.26-.2-.53-.31-.79-.54-1.34-1.11-1.77-1.3-1.77s-1,.3-2,1.44a11.35,11.35,0,0,0-.85,1.3c-1,1.66-2.62,4.43-6.15,4.43a7.41,7.41,0,0,1-2.42-.43c-6.27-2.14-8.26-7.35-9.21-11.07a41.94,41.94,0,0,1-.85-11.45c.07-3.71.14-7.21-.88-10.51l-.45-1.52a31,31,0,0,0-1.44-4.18c-1.12-2.42-2.18-5.69-.43-9.58a2.56,2.56,0,0,0,0-2.29l-.32-.23c-3.3-2.25-2.9-4.89-2-6.7.65-1.28,1.28-2.63,1.88-3.93,1.06-2.27,2.15-4.62,3.45-6.87a3.87,3.87,0,0,1,3.39-2,5.73,5.73,0,0,1,3.3,1.31l.4.28a10.18,10.18,0,0,0,5.22,1.47,11.46,11.46,0,0,0,3.39-.54l.45-.12c.42-3,2.16-6.19,7.65-6.19.45,0,.91,0,1.36,0l1.06,0h.44c.38,0,.77,0,1.16,0,5.8,0,9.62,2.8,10.5,7.69,1.36,7.53-.12,13.38-4.51,17.87-3.42,3.49-3,5.09-.76,7.35,4.35,4.41,7.16,9.52,9.54,14.4a23,23,0,0,0,4.57,5.71,33.53,33.53,0,0,1,5,6c.42.69.88,1,1.35,1,.78,0,2.05-.84,3-2.67l.23-.46c2.35-4.62,4.77-9.4,10-12.66a6,6,0,0,0,1.32-2.61,13,13,0,0,1,2.21-4.36c4.25-5,4.21-8.29-.12-12.58-3.28-3.25-2.16-7.39-1.34-10.41a25.26,25.26,0,0,0,.58-2.47c1-6.32,5.39-7.22,8.61-7.88l.82-.16c1.31-.29,2.61-.62,4-1A43.05,43.05,0,0,1,937,149.46a20.92,20.92,0,0,1,6,.86c5.5,1.63,8.77,5.4,9.19,10.61.33,4.19.75,9.39-.91,14.51-4.25,13-6.62,26.86-8.92,40.23l-.3,1.74A46.36,46.36,0,0,1,938.59,228c-.68,1.6-1.38,3.24-2,4.89a7.27,7.27,0,0,1-13,1.43c-.73-1.18-1.41-2.34-2.08-3.49-.84-1.42-1.62-2.77-2.47-4.06a4,4,0,0,1-.2.42c-2.71,4.89-2.62,10.38-2.51,16.19l0,1.75a3.83,3.83,0,0,0,0,.47,5.13,5.13,0,0,1-1,4c-2.68,3-2.9,6.78-3.15,11.15-.23,4-.49,8.53-3,12.61-1.39,2.31-1.23,5.84-1.06,9.26l.05,1.27c.25,5.95,1.46,7.58,7.19,9.7,3.13,1.15,5.09,2.92,5.81,5.26s.14,4.72-1.67,7.29a62.46,62.46,0,0,1-7.76,8.55,68.66,68.66,0,0,0-6.19,6.54A5.87,5.87,0,0,1,901,323.44Z"/><path d="M867.22,151.49c.82,0,1.65.06,2.42.06l.62,0c.33,0,.65,0,1,0,3.41,0,6.82,1.17,7.55,5.22,1,5.46.53,10.91-3.7,15.24-4,4.12-4.64,7.63-.75,11.56s6.57,8.69,9,13.61c2.3,4.7,6.94,7.41,9.71,11.92a4.58,4.58,0,0,0,3.89,2.47c2.09,0,4.27-1.58,5.66-4.31,2.31-4.54,4.48-9,9.12-11.94,2.48-1.56,2.37-5.38,4.23-7.57,4.89-5.76,5.57-10.84-.3-16.65-2.74-2.72-.46-6.74.09-10.29.72-4.64,3.68-4.84,7.1-5.57,4.73-1,9.34-2.73,14.18-2.73a18,18,0,0,1,5.2.74c4.19,1.24,6.72,4,7,8,.35,4.41.66,8.91-.78,13.34-4.49,13.81-6.87,28.22-9.31,42.4-.92,5.36-3.55,9.85-5.35,14.94a4.23,4.23,0,0,1-4,2.84,4.16,4.16,0,0,1-3.59-2c-1.65-2.65-3-5.24-4.64-7.69-.77-1.17-1.15-2.88-3-2.88a3.65,3.65,0,0,0-.55,0c-2.37.38-1.13,2.39-1.77,3.54-3.39,6.13-2.94,12.8-2.85,19.43,0,.83.25,2-.18,2.44-6.23,7-1.88,16.66-6.44,24.21-2.08,3.43-1.62,8-1.44,12.2.29,7.11,2.25,9.84,9.14,12.39,4.23,1.56,5.37,4.28,2.73,8-3.94,5.56-9.61,9.59-13.85,15a2.91,2.91,0,0,1-2.39,1.09,7.64,7.64,0,0,1-4-1.46c-4.8-3.27-9.15-7.1-15.47-7.1-.42,0-.86,0-1.3.05l-.43,0c-3.18,0-5-2.95-5.07-6.26-.07-5.57-1.49-11.77,5.38-14.87.45-5.66,5.37-10.19,4-16.32-1-4.44-2.6-8.94-2.5-13.38.12-5.43.28-11.07,2.1-16.3,2.11-6.11.09-10.74-4.73-14.26-2-1.5-3.46-3-3.44-5.48a3.2,3.2,0,0,0-2.09-3.12c-2.85-.86-3.37-3.14-4.29-5.42s-2.44-3.64-4.08-3.64c-1.35,0-2.82.83-4.25,2.48s-2.15,4.69-4.72,4.69a4.7,4.7,0,0,1-1.46-.26c-4.18-1.44-6.15-4.59-7.27-9-1.88-7.33.46-14.89-1.77-22.1a46.66,46.66,0,0,0-2-6.08c-1.1-2.37-1.58-4.51-.41-7.09a5.46,5.46,0,0,0-.29-5.27c-.78-1.22-3.28-1.44-2.08-3.83,1.78-3.54,3.27-7.23,5.25-10.65a.88.88,0,0,1,.79-.53c.69,0,1.52.79,2.19,1.18a13.24,13.24,0,0,0,6.73,1.88,14.66,14.66,0,0,0,4.27-.67c1.09-.33,2.39-.3,2.48-1.91.22-3.78,2.42-4.27,4.74-4.27m0-6c-5.18,0-8.8,2.46-10.16,6.73a7.73,7.73,0,0,1-1.33.12,7.17,7.17,0,0,1-3.66-1l-.22-.16a8.57,8.57,0,0,0-5-1.86,6.89,6.89,0,0,0-6,3.53c-1.37,2.37-2.49,4.77-3.57,7.1-.62,1.34-1.21,2.61-1.83,3.85a7.71,7.71,0,0,0,2,9.83,13.93,13.93,0,0,0,.66,11.58,28.83,28.83,0,0,1,1.28,3.76c.15.53.31,1,.47,1.57.87,2.83.81,6.1.74,9.57a44.9,44.9,0,0,0,.94,12.24c.65,2.54,2.62,10.25,11.15,13.17a10.32,10.32,0,0,0,3.4.59c4.63,0,7.08-3.24,8.31-5.21a11.63,11.63,0,0,0,5.25,6c.72,4.83,4.32,7.47,5.77,8.53,3.44,2.52,3.54,4.72,2.6,7.45-2.16,6.23-2.31,12.83-2.43,18.14a41.9,41.9,0,0,0,1.8,11.37c.31,1.2.6,2.32.84,3.43.35,1.57-.32,3.18-1.54,5.9a36.77,36.77,0,0,0-2,5.31c-6.61,4.64-6.28,12-6.07,16.61,0,.76.07,1.48.08,2.16.08,6.94,4.85,12.18,11.07,12.18.3,0,.61,0,.91,0l.82,0c3.33,0,5.95,1.73,9.95,4.57.71.5,1.42,1,2.14,1.49a13.72,13.72,0,0,0,7.39,2.5,8.84,8.84,0,0,0,7.1-3.38,65.8,65.8,0,0,1,5.92-6.25,64.72,64.72,0,0,0,8.12-9c3-4.19,2.77-7.7,2.09-9.91s-2.59-5.32-7.64-7.19c-4.71-1.74-5-2.5-5.23-7l-.06-1.29c-.13-2.83-.28-6,.64-7.57,2.85-4.72,3.14-9.64,3.39-14s.5-7.22,2.39-9.32a7.94,7.94,0,0,0,1.73-6.25l0-.3c0-.57,0-1.16,0-1.74a50.21,50.21,0,0,1,.4-9.6c.42.71.85,1.44,1.31,2.18a10.27,10.27,0,0,0,18.38-2c.56-1.57,1.21-3.1,1.9-4.72a49.26,49.26,0,0,0,3.71-11.22l.3-1.75c2.28-13.26,4.63-27,8.81-39.8,1.85-5.69,1.4-11.23,1.05-15.68-.52-6.44-4.65-11.26-11.32-13.24a23.71,23.71,0,0,0-6.91-1,45.31,45.31,0,0,0-11.59,1.92c-1.34.35-2.6.67-3.85.94l-.79.17c-3.14.64-9.69,2-11,10.35a21.25,21.25,0,0,1-.51,2.14c-.84,3.09-2.39,8.85,2.13,13.33,1.11,1.1,2.43,2.68,2.41,4,0,.76-.45,2.16-2.47,4.53a15.72,15.72,0,0,0-2.75,5.31c-.14.41-.35,1-.5,1.32-5.61,3.69-8.28,8.94-10.63,13.58l-.23.46,0,0a43.85,43.85,0,0,0-4.49-5.11,20.63,20.63,0,0,1-4-4.92c-2.49-5.1-5.44-10.47-10.1-15.19a5.51,5.51,0,0,1-.84-1,7.77,7.77,0,0,1,1.62-2.1c5-5.17,6.83-12.06,5.31-20.5-1.12-6.27-6.28-10.16-13.45-10.16-.44,0-.89,0-1.34,0h-.26l-.94,0c-.49,0-1,0-1.48,0Z"/><path class="cls-9" d="M232.23,143.38a42.4,42.4,0,0,1-5.91-.4l-1.33-.19c-9.47-1.33-19.25-2.7-28.81-2.7-2.78,0-5.49.12-8.05.35-.7.06-1.38.09-2,.09-8.39,0-11.91-5.39-14.55-10.44-7.88-15-16.17-30.23-24.19-44.9l-3.26-6,0,50.14c0,4.63,0,7.17-1.86,9s-4.42,1.87-9,1.87l-5.48,0H122.3c-3.12,0-5.65,0-8,.07h-.44a6.55,6.55,0,0,1-4.83-1.61,6.71,6.71,0,0,1-1.64-4.89c.09-39.74.1-81.09,0-122.9A6.68,6.68,0,0,1,109.06,6,6.64,6.64,0,0,1,114,4.37h.33c3.89.06,7.7.1,11.33.1s7.48,0,11-.11h.3a8.14,8.14,0,0,1,7.87,4.77c10.28,19,20.85,38.31,30.92,56.63q0-15.83,0-31.66,0-9.75,0-19.5c0-8.85,1.31-10.18,9.94-10.18,2,0,4,0,6,0s3.94,0,5.91,0c3.06,0,5.57-.06,7.88-.18l1.18,0a7.91,7.91,0,0,1,5.82,2c1.84,1.85,2.05,4.57,2,6.74-.21,20.32-.17,41-.13,61q0,7.45,0,14.92c0,8.43,3.95,14.51,10.8,16.67a11.6,11.6,0,0,0,3.51.52c5.6,0,11-3.59,12.63-8.35a36.19,36.19,0,0,0,2.25-12c-.07-11.35-.07-22.88-.07-34,0-12.92,0-26.28-.1-39.41,0-2,.18-4.41,1.89-6.13a7.57,7.57,0,0,1,5.53-1.85l.77,0c3.81.14,7.6.21,11.26.21s7.41-.07,11-.22h.91c1.7,0,4.15.2,5.85,2s1.83,4.51,1.73,6.33c-.18,3.24-.21,6.52-.13,10C291,10.41,303.68,3.65,320,2.51c2.07-.14,4.1-.21,6-.21,16.32,0,28.72,5.11,37.7,15.59,0-2,0-4,0-5.93,0-1.64.14-4,1.84-5.74A7.16,7.16,0,0,1,371,4.33h.52c4.14.14,8.15.21,11.93.21s7.71-.07,11.33-.22l.7,0a7.15,7.15,0,0,1,5.23,1.78c1.62,1.63,1.83,3.89,1.82,6.08-.07,13.68-.07,27.58-.07,41,0,15.22,0,31-.1,46.44a7.59,7.59,0,0,0,.21,2.44,5,5,0,0,0,1.67.18h.41c6.1-.16,12.4-.24,19.27-.24,6.3,0,13.12.06,20.85.2H445a5.21,5.21,0,0,0,1.25-.11,7.65,7.65,0,0,0,.12-1.72c-.06-13.56-.06-27.35-.07-40.68,0-15.34,0-31.19-.1-46.78,0-2.42.21-4.9,1.95-6.65s4.27-2,6.27-2h.24c12.36.12,25,.18,37.65.18,12.39,0,25.1-.05,37.77-.17h.24c2.22,0,5,.25,6.91,2.23s2,4.74,1.92,6.65c-.25,5.88-.25,11.84,0,17.73.07,1.62,0,4-1.66,5.67s-3.89,1.9-5.69,1.9h-.24c-6.34-.07-13.09-.1-21.25-.1q-8.82,0-17.64,0h-8.11v1.47c0,.68,0,1.45,0,2.34s0,2,0,3a58.92,58.92,0,0,1-.1,6.21,5.76,5.76,0,0,0,0,1.11,6,6,0,0,0,1.34.11H486c6.14-.08,12.53-.12,19.54-.12,5.86,0,12.24,0,19.51.09,8.63.06,10,1.48,10,10.12,0,1.61,0,3.22-.06,4.83-.06,3-.12,6.05,0,9,.08,1.94,0,4.75-1.92,6.72s-4.6,2.19-6.49,2.19H526c-3.49-.1-7.34-.14-12.12-.14l-7.14,0-7.17,0c-5,0-8.88,0-12.55-.15h-.46a4.09,4.09,0,0,0-2,.28h0a5.9,5.9,0,0,0-.12,2.43,146.41,146.41,0,0,1,0,15.81,5.9,5.9,0,0,0,0,.8,6.16,6.16,0,0,0,1,.06c4.82,0,9.6,0,14.37,0,10.44,0,21.61,0,36.17.13,1.75-5.84,3.5-11.63,5.26-17.41q2.21-7.27,4.4-14.54,2.37-7.91,4.7-15.81,2.93-9.93,5.91-19.84c.92-3,1.91-6.12,2.86-9.08,1.85-5.73,3.75-11.65,5.21-17.52,1.08-4.38,3.31-6.17,7.69-6.17h1.6c4.54,0,9.09.08,13.63.08,4.79,0,9,0,12.85-.14h.35c5.27,0,6.95,3.25,7.89,6.43,8.42,28.2,17.09,56.85,25.49,84.55l2.31,7.64q0-6.27,0-12.53c.06-25.28.11-51.42,0-77.13,0-2.39.23-5.09,2.08-7s4.3-2,6.51-2h.57c4.48.09,9.23.13,15.41.13h8.48l8.5,0c5.74,0,10.38,0,14.59.11a100.79,100.79,0,0,1,20.28,2.14c13.45,3,22.1,14.57,23.73,31.73,1.2,12.63-1.37,23.19-7.85,32.3-3.26,4.6-7.47,7.56-12.61,10,9,7.19,13,17.07,16.85,26.66,1.32,3.25,2.68,6.62,4.2,9.75,1.37,2.81,2.52,5.71,3.64,8.51.81,2,1.65,4.17,2.55,6.18.74,1.66,1.86,4.17.45,6.34s-4.26,2.19-5.33,2.19h-.47c-4.32-.11-8.8-.17-13.69-.17-4.72,0-9.7,0-15.67.16h-.22c-4.69,0-6.46-2.89-7.37-5.06-3.17-7.51-6.5-15.1-9.72-22.44l-1.39-3.16c-1.52-3.49-3.08-7-4.63-10.45l-2.17-4.84a11.08,11.08,0,0,0-3.64-4.52c-1.08-.77-2.66-1.8-3.86-1.8a2,2,0,0,0-.55.08c0,.36.08.9.13,1.26a13.43,13.43,0,0,1,.18,2.08c-.09,13-.16,27,0,40.93,0,2.2-.17,4.46-1.78,6.1s-4,1.85-5.6,1.85h-.23c-8.28-.11-16.89-.16-26.34-.16-8.56,0-17.65,0-28.59.13h-.15c-4.26,0-6.5-1.86-7.26-6-.4-2.2-1-4.36-1.6-6.64a77.44,77.44,0,0,1-1.88-8.15,4,4,0,0,0-.12-.58c-.15,0-.38,0-.72,0-5.23,0-10.39.06-15.54.06s-9.81,0-14.09-.08h-.13a5.12,5.12,0,0,0-.8,0,4.7,4.7,0,0,0-.26,1c-.43,2.34-1.09,4.61-1.72,6.81a53.75,53.75,0,0,0-1.76,7.4c-.86,6.17-5.35,6.17-7.51,6.17l-86.31,0c-37.55,0-70.81,0-101.69.08-1.73,0-4.17-.21-5.81-2s-1.66-4-1.54-5.85a46.83,46.83,0,0,0,0-5l-.84.89a37.87,37.87,0,0,1-7.51,6.63,51,51,0,0,1-27.69,8,61.47,61.47,0,0,1-8.23-.57c-8.07-1.08-16.6-2.78-24.29-7.8-8.8-5.75-13.65-14.56-17.49-22.37l0,0c-6,14.37-14.15,23-25.67,27.26A57.48,57.48,0,0,1,232.23,143.38ZM326.31,38.59c-5.66,0-10,3-13.37,9.16S309.08,61,308.86,68.19c-.31,10-.29,19.73,3.31,28.75,2.4,6,6.64,9.06,12.94,9.32l.86,0c6,0,10-2.59,12.81-8.16,1.53-3.07,3.19-6.63,3.56-10.23.56-5.37,3.62-6.17,5.39-6.17a10.62,10.62,0,0,1,4,1c2.06.85,4.21,1.65,6.29,2.42,1.9.71,3.85,1.43,5.79,2.21-.05-4.16,0-8.36,0-12.44,0-1.7,0-3.39,0-5.09s0-3.27,0-4.91c-.05-3.82-.09-7.78.11-11.7,0-.71,0-1.21,0-1.56a8.87,8.87,0,0,0-1.06.36,46.94,46.94,0,0,1-5.92,1.72,41.57,41.57,0,0,0-5.08,1.46,12.34,12.34,0,0,1-4.39,1c-5.05,0-6.51-5-7-6.6-1.4-4.73-4.81-10.47-13.15-11Zm158.29,47ZM586,55c-2.31,9.59-4.69,19.5-7.19,29.22a2.25,2.25,0,0,0,0,.22H579c1.82-.06,3.78-.09,6.17-.09l4.37,0,3.92,0c-2.46-9.84-4.88-19.83-7.23-29.51l-.1-.43Zm96-17.9c-1.94,0-6,0-6.55.77-.69,1-.69,4.6-.69,9.21V50c0,2.35,0,4.71,0,7.06v0h4.8A40.14,40.14,0,0,0,691.07,56c4.29-1.25,7-3.52,6.55-10.52-.37-5.21-2.4-7.4-7.51-8.08a32.75,32.75,0,0,0-4.4-.2H685Z"/><path d="M326.06,5.3c16,0,29.91,5.05,39.43,20l1,1,0,0,.05,0a1,1,0,0,0,.14.29.22.22,0,0,0,.15,0h.12l-.41-.33,0-.07h0a.89.89,0,0,0,.18-.86c.06-4.5.21-9,.14-13.49,0-3.15,1-4.59,4.22-4.59h.42c4,.13,8,.21,12,.21q5.73,0,11.45-.22l.58,0c3.41,0,4.07,1.43,4,4.85-.14,29.15,0,58.31-.17,87.47,0,4,.68,5.63,4.88,5.63h.49q9.58-.26,19.19-.24c6.93,0,13.86.08,20.8.2H445c3.62,0,4.39-1.3,4.37-4.84-.14-29.16,0-58.31-.17-87.47,0-4.19.83-5.62,5.22-5.62h.21q18.84.18,37.68.18t37.79-.17h.22c4.38,0,6,1.27,5.83,5.75-.25,6-.25,12,0,18,.16,3.5-1.09,4.44-4.35,4.44h-.21c-7.09-.08-14.18-.1-21.28-.1q-11.1,0-22.2,0h-.28l-2.91,0c-3.94,0-3.3.52-3.35,6.8,0,3,.2,6-.06,9-.31,3.48,1.05,4.48,4.32,4.48h.22q9.74-.12,19.48-.12t19.51.09c7,.05,7.05.18,7,7.12,0,4.66-.25,9.33-.05,14,.19,4.21-1.16,5.78-5.41,5.78h-.52c-4.06-.11-8.13-.14-12.2-.14-4.77,0-9.54,0-14.31,0-4.16,0-8.31,0-12.47-.15h-.53c-4.38,0-5.4,1.68-5.11,5.91a145.51,145.51,0,0,1,0,15.49c-.13,3.07,1,4,4,4h.07c4.77,0,9.55,0,14.33,0q18.33,0,36.64.14h.31c.95,0,1.45-.09,1.8-1.24,3.26-11,6.63-21.9,9.92-32.86,3.56-11.88,7-23.78,10.61-35.65,2.7-8.92,5.88-17.71,8.11-26.74.81-3.27,2.06-3.89,4.78-3.89h.16c5,0,10,.09,15.07.09,4.3,0,8.61,0,12.92-.14h.28c3.13,0,4.14,1.34,5,4.29,10.32,34.61,20.83,69.16,31.29,103.73.19.64.47,1.24.71,1.86a3.71,3.71,0,0,0,1.58,3.43,11.07,11.07,0,0,0,.07-5.39c0-34,.19-68,0-102,0-4.72,1.22-6,5.58-6h.51c5.16.1,10.32.13,15.48.13,5.66,0,11.32,0,17,0,4.84,0,9.68,0,14.52.11a99,99,0,0,1,19.68,2.07c13,2.91,20,14.38,21.39,29.08,1,10.8-.77,21.1-7.3,30.28-4,5.59-9.61,8.51-16.33,11.19,15.08,8.84,17.92,24.76,24.51,38.31,2.31,4.75,4,9.78,6.15,14.6,1.24,2.77,1.63,4.31-2.14,4.31h-.39q-6.9-.18-13.79-.17-7.86,0-15.71.16h-.17c-2.51,0-3.67-1-4.6-3.23-3.62-8.58-7.38-17.1-11.12-25.63-2.24-5.12-4.53-10.21-6.81-15.31A14,14,0,0,0,681,87.43c-1.67-1.2-3.61-2.36-5.6-2.36a4.86,4.86,0,0,0-2.13.49c-2.33,1.12-1.09,3.9-1.11,5.91-.1,13.66-.15,27.33,0,41,0,3.44-.55,4.91-4.38,4.91h-.19q-13.19-.17-26.38-.16c-9.54,0-19.08.06-28.62.13h-.12c-2.76,0-3.8-.77-4.31-3.57-.9-5-2.69-9.76-3.47-14.72-.43-2.73-1.6-3.14-3.8-3.14h-.1c-5.14,0-10.28.06-15.43.06q-7,0-14.07-.08h-.15c-2.54,0-3.53.81-4,3.49-.89,4.83-2.83,9.49-3.5,14.34-.46,3.29-1.91,3.58-4.54,3.58h0q-43.11,0-86.22,0-50.88,0-101.75.08h0c-3.64,0-4.56-1.25-4.33-4.6.22-3.14-.07-6.32-.14-9.48,1.14-1.37.85-2.8.38-4.36-1.89.64-2.19,2-2.27,3.48-3.73,3.25-6.53,7.39-10.88,10.09A48.3,48.3,0,0,1,327.69,140a60,60,0,0,1-7.83-.54c-8.25-1.11-16-2.76-23.05-7.34-7.92-5.17-12.4-13-16.44-21.19-.65-1.33-.73-3.57-2.86-3.57h-.07c-2.32,0-2,2.4-2.55,3.78-4.81,11.53-11.81,21.15-23.94,25.61a54.82,54.82,0,0,1-18.72,3.64,38.76,38.76,0,0,1-5.49-.38c-10.18-1.43-20.35-2.92-30.56-2.92-2.77,0-5.54.11-8.32.36-.62.06-1.2.08-1.76.08-6.25,0-9.07-3.43-11.89-8.83-10.51-20.07-21.49-39.9-32.32-59.81-.12-.21-.5-.28-.8-.4v0l-.06,0,.06,0q0,30.44,0,60.88c0,7.9,0,7.9-7.9,7.9-3.64,0-7.28,0-10.93,0-2.68,0-5.37,0-8,.07h-.38c-2.36,0-3.47-.58-3.47-3.49q.15-61.47,0-122.92c0-2.91,1.12-3.54,3.57-3.54h.28q5.68.11,11.38.11t11.1-.11H137a5.21,5.21,0,0,1,5.23,3.19q16.6,30.75,33.51,61.35c.58,1,.65,2.7,2.52,2.85,1.08-1.63.52-3.47.52-5.19.05-18.32,0-36.64,0-55,0-7.18,0-7.18,6.94-7.18h0c4,0,7.93.09,11.9.09,2.68,0,5.36,0,8-.18l1,0c3.62,0,4.89,1.28,4.84,5.66-.26,25.32-.14,50.63-.11,75.95,0,9.83,4.78,17,12.9,19.53a14.69,14.69,0,0,0,4.41.66c6.61,0,13.38-4.14,15.48-10.4a40,40,0,0,0,2.4-13c-.15-24.48,0-49-.17-73.45,0-3.83,1.08-4.95,4.42-4.95l.66,0c3.78.14,7.58.21,11.37.21s7.41-.07,11.11-.22h.78c3.45,0,4.82,1.12,4.59,5.17a176.19,176.19,0,0,0,.32,20.45c8.2-17.22,22-26.15,40.49-27.43,2-.14,3.92-.21,5.83-.21M674.52,60.16h.11c.74,0,1.48,0,2.22,0h2.71a43.11,43.11,0,0,0,12.36-1.31c6.44-1.89,9.22-6.09,8.69-13.61-.46-6.59-3.56-10-10.1-10.85a45.32,45.32,0,0,0-5.47-.23l-3,0c-10.26,0-10.26,1-10.25,13,0,3.32,0,6.64,0,10,0,1.93.62,3.08,2.76,3.08M326,109.28c7.1,0,12.24-3.31,15.49-9.82,1.79-3.59,3.45-7.3,3.87-11.26.27-2.58,1.09-3.48,2.4-3.48a8,8,0,0,1,2.83.77c4.3,1.77,8.72,3.23,13,5a5.1,5.1,0,0,0,1.79.46c1.09,0,1.46-.88,1.44-2.68-.08-6.15,0-12.31,0-18.46,0-5.49-.22-11,.06-16.47.16-3.06-.21-4.84-2.27-4.84a8.45,8.45,0,0,0-2.86.69c-3.54,1.38-7.44,1.82-11,3.18a9.62,9.62,0,0,1-3.31.78c-2,0-3.19-1.28-4.12-4.44-2.25-7.64-7.71-12.64-15.85-13.11l-1.13,0c-7.29,0-12.46,4.18-16,10.73-3.69,6.84-4.21,14.36-4.44,21.78-.31,10.1-.32,20.32,3.53,30,2.77,6.94,8,10.89,15.6,11.21l1,0M578.56,87.47h.54c2-.07,4-.09,6.06-.09,2.9,0,5.79,0,8.69,0h.89c1.41,0,2.53-.16,1.92-2.59-3.46-13.78-6.77-27.6-10.13-41.41l-.83.06c-3.25,13.35-6.38,26.73-9.8,40-.81,3.15,0,4,2.66,4M326.06-.7c-2,0-4.11.07-6.25.22-14.15,1-25.68,6-34.48,14.83,0-.51.05-1,.08-1.53.07-1.37.31-5.54-2.55-8.56s-6.73-2.94-8-2.94c-.33,0-.67,0-1,0-3.53.14-7.19.21-10.86.21s-7.38-.07-11.15-.21l-.88,0c-1.23,0-4.95,0-7.66,2.74-2.51,2.53-2.78,5.93-2.76,8.26.1,13.12.1,26.47.1,39.38,0,11.16,0,22.7.07,34.06a33.5,33.5,0,0,1-2.09,11c-1.19,3.54-5.49,6.31-9.79,6.31a8.85,8.85,0,0,1-2.61-.38c-7.56-2.39-8.7-9.68-8.7-13.82q0-7.47,0-14.94c0-20-.08-40.64.13-60.93,0-2.53-.24-6.21-2.89-8.88C211.87,1.3,208,1.3,206.74,1.3c-.42,0-.86,0-1.33,0-2.27.12-4.72.17-7.73.17-2,0-4,0-5.88,0s-4-.05-6-.05c-4.36,0-7.77,0-10.41,2.72s-2.57,5.92-2.57,10.45q0,9.78,0,19.57V54.1c-8.34-15.2-16.92-30.89-25.3-46.4A11.12,11.12,0,0,0,137,1.36h-.37c-3.53.07-7.22.11-11,.11s-7.4,0-11.28-.1H114a9.5,9.5,0,0,0-7,2.52,9.69,9.69,0,0,0-2.53,7c.09,41.86.08,83.2,0,122.89a9.65,9.65,0,0,0,2.52,7,9.44,9.44,0,0,0,7,2.5h.51c2.31-.05,4.83-.07,7.92-.07h5.45l5.48,0c4.89,0,8.41,0,11.16-2.75s2.74-6.27,2.74-11.16q0-19.19,0-38.38c7.26,13.3,14.69,27,21.78,40.5,3.27,6.26,7.63,12.05,17.21,12.05.74,0,1.51,0,2.3-.1,2.51-.23,5-.34,7.78-.34,9.35,0,18.6,1.3,28.39,2.68l1.33.18a45.36,45.36,0,0,0,6.33.44,60.5,60.5,0,0,0,20.79-4c10.59-3.89,18.75-11.54,24.8-23.31,3.63,6.59,8.34,13.26,15.71,18.08,8.19,5.34,17.11,7.12,25.53,8.25a64.25,64.25,0,0,0,8.63.6A54,54,0,0,0,357,137.58a28.86,28.86,0,0,0,3.75-2.81,9.11,9.11,0,0,0,2.35,5.66c2.72,2.92,6.67,2.92,8,2.92,30.92-.06,64.2-.08,101.78-.08q43.11,0,86.22,0a11.4,11.4,0,0,0,6.37-1.51c2.28-1.48,3.68-3.92,4.14-7.24a51.41,51.41,0,0,1,1.68-7c.52-1.82,1.06-3.7,1.49-5.66,3.87,0,8,.07,12.63.07s9.14,0,13.75,0c.45,2.26,1,4.42,1.6,6.53s1.17,4.32,1.55,6.39c1,5.64,4.46,8.5,10.21,8.5h.18c10.93-.09,20-.13,28.56-.13,9.43,0,18,0,26.3.16h.27c1.24,0,5,0,7.73-2.75s2.67-6.45,2.65-8.23c-.17-13.41-.12-26.91,0-39.57a8.12,8.12,0,0,1,2,2.79l2.16,4.83c1.53,3.42,3.11,7,4.64,10.44l1.42,3.24c3.2,7.31,6.51,14.87,9.66,22.32,1.94,4.58,5.34,6.9,10.13,6.9h.28c5.94-.1,10.9-.15,15.6-.15,4.88,0,9.34.06,13.63.16h.55c3.68,0,6.32-1.19,7.85-3.55,2.3-3.55.59-7.37-.23-9.21s-1.67-3.94-2.51-6c-1.13-2.86-2.31-5.82-3.72-8.72s-2.76-6.21-4.11-9.57C732.1,97.9,728.39,88.7,721,81.36a31.46,31.46,0,0,0,9.88-8.94c6.82-9.59,9.64-21.14,8.38-34.32C737.52,19.55,728,7,713.22,3.72a102.91,102.91,0,0,0-20.87-2.21c-4.23-.07-8.88-.11-14.63-.11l-8.51,0h-8.48c-6.17,0-10.9,0-15.36-.13h-.63c-2.66,0-6,.33-8.64,2.93s-3,6.25-2.94,9.09c.12,23.13.09,46.62.05,69.52-7.28-24.05-14.72-48.65-22-72.93-.63-2.12-2.56-8.57-10.77-8.57h-.42c-3.84.1-8,.14-12.78.14-4.53,0-9.15,0-13.61-.08h-1.62c-5.73,0-9.2,2.76-10.61,8.45s-3.31,11.64-5.14,17.32c-1,3-1.95,6.06-2.88,9.13-2,6.61-4,13.34-5.92,19.85Q545.16,64,542.8,72q-2.17,7.27-4.4,14.55c-1.51,5-3.08,10.13-4.61,15.25-13.45-.09-24-.12-33.91-.12q-6.13,0-12.29,0c.15-4.29.2-8.81-.08-13.35,3.54.09,7.3.14,12.09.14l7.18,0,7.13,0c4.75,0,8.57,0,12,.13h.68c1.41,0,5.67,0,8.66-3.11C538,82.62,538.15,79,538,76.5c-.13-2.88-.07-5.78,0-8.85,0-1.59.07-3.23.07-4.87,0-4.29,0-7.67-2.57-10.34s-6.09-2.76-10.43-2.79c-7.29-.06-13.69-.09-19.55-.09-6.39,0-12.27,0-17.92.1.05-1.53,0-3,0-4.47,0-1,0-2,0-2.93,0-.29,0-.56,0-.83h5.18q8.78,0,17.56,0c8.15,0,14.89,0,21.21.1h.28c2.21,0,5.44-.29,7.86-2.83,2.71-2.83,2.54-6.63,2.49-7.87-.26-5.8-.26-11.68,0-17.47.06-1.42.24-5.73-2.75-8.85-2.71-2.83-6.48-3.16-9.08-3.16h-.27c-12.66.12-25.35.17-37.74.17-12.61,0-25.27-.06-37.63-.18h-.26c-2.38,0-5.84.3-8.4,2.87S443.18,10,443.2,13c.1,15.58.1,31.43.1,46.76,0,12.94,0,26.3.07,39.48-7.16-.12-13.54-.18-19.46-.18-6.6,0-12.68.07-18.56.22.09-15.36.1-31,.1-46,0-13.45,0-27.35.07-41,0-2.71-.3-5.8-2.7-8.21a10.1,10.1,0,0,0-7.35-2.67l-.82,0c-3.58.15-7.36.22-11.21.22s-7.72-.07-11.83-.21H371a10.11,10.11,0,0,0-7.51,2.78,10.1,10.1,0,0,0-2.69,6.56C351.85,3,340.37-.7,326.06-.7Zm351.85,41c.88-.08,2.25-.13,4.1-.13l3,0h.71a31.39,31.39,0,0,1,4,.17c3.69.49,4.65,1.54,4.92,5.32.36,5.15-1.07,6.46-4.4,7.44a38,38,0,0,1-10.67,1.06h-1.79V50.05c0-1,0-2,0-2.93,0-2.65,0-5.35.15-6.86ZM326,103.28l-.73,0c-5.14-.21-8.31-2.5-10.28-7.43-3.39-8.48-3.4-17.87-3.1-27.55.21-6.82.65-13.42,3.72-19.1,3.68-6.8,7.88-7.59,10.73-7.59l.79,0c5.29.31,8.81,3.27,10.44,8.81,2.13,7.23,6.54,8.75,9.87,8.75A15.31,15.31,0,0,0,352.88,58a37.89,37.89,0,0,1,4.7-1.34c1-.25,2.1-.51,3.17-.81-.08,3.08-.05,6.13,0,9.1,0,1.63,0,3.26,0,4.89s0,3.37,0,5.06c0,2.65,0,5.36,0,8.08l-1.71-.64c-2.16-.8-4.19-1.55-6.2-2.38a13.39,13.39,0,0,0-5.12-1.23c-1.75,0-7.52.64-8.37,8.86-.32,3.1-1.86,6.37-3.27,9.2-2.24,4.49-5.36,6.5-10.12,6.5Zm256.66-21.9c1.19-4.71,2.36-9.45,3.5-14.16,1.15,4.71,2.31,9.45,3.49,14.17h-.07l-4.39,0Z"/><path class="cls-10" d="M833.82,68.94l.06-2.46c0-2.49,0-4.52-1-6.25l-.26-.45-.06-.37-.47-.74,0-.46-.29-.38c-.78-1-1.46-2.09-2.12-3.11-1.58-2.44-2.94-4.55-5.18-5.79A5,5,0,0,1,822,45.82a5.69,5.69,0,0,1,.92-4.54c5.44-9,11.72-19.41,17.46-29.78.59-1.07,2.38-4.31,5.85-4.31a8.64,8.64,0,0,1,4.88,1.91c13,9.13,22,21.94,27.49,39.14l.85,1.44.05.71.27.72-.12.74a5.07,5.07,0,0,0,.76,3l.27.52.22,2.37v.13c.08,9.75-1.19,11.08-11.31,11.73l-.24.08q-.29.1-.57.18l-.4.11-14.51-.06-.16,0a68.77,68.77,0,0,0-7.45-.42,57.56,57.56,0,0,0-7.15.44l-.53.07Z"/><path d="M846.2,10.19a6,6,0,0,1,3.16,1.37C862.81,21,871,34.06,875.81,49.47l.66,1.13a2.94,2.94,0,0,0,.18.82,7.9,7.9,0,0,0,1.07,4.82l.15,1.67c.07,8.17.07,8.17-8.58,8.73A6.34,6.34,0,0,0,868,67l-14,0a70,70,0,0,0-7.78-.44,57.67,57.67,0,0,0-7.53.47l-1.82-.41c.06-2.7,0-5.38-1.38-7.82a2.35,2.35,0,0,0-.31-.81c.07-.82.14-1.64-.94-1.9-2.56-3.39-4.23-7.5-8.23-9.72-1.38-.76-1.58-1.79-.56-3.47C831.45,33,837.39,23.05,843,13c1.08-1.95,2.08-2.76,3.23-2.76m0-6h0c-3.48,0-6.33,2-8.48,5.86-5.71,10.33-12,20.73-17.39,29.67a8.65,8.65,0,0,0-1.26,6.88,8,8,0,0,0,4,4.95c1.5.83,2.54,2.37,4.11,4.8.57.89,1.17,1.81,1.84,2.74l0,.32.7,1.11.06.31.51.89c.61,1.06.62,2.68.58,4.7l-.11,4.9,4.79,1.08,1.82.41,1,.23,1.05-.13a53.39,53.39,0,0,1,6.77-.42,62.87,62.87,0,0,1,7.12.41l.32,0H854l9.36,0h5.4l.78-.22q.3-.08.6-.18c5-.32,8.4-.61,11-3.26,2.81-2.86,2.78-6.47,2.74-11.47v-.25l0-.24-.1-1-.06-.65-.1-1.17-.54-1c-.49-1-.46-1.21-.46-1.22l.22-1.54-.39-1-.06-.94-.72-1.22-.32-.54c-5.68-17.7-15-30.9-28.52-40.37a11.55,11.55,0,0,0-6.6-2.45Z"/><path class="cls-11" d="M743.23,69.4l-.64-2.16a6.2,6.2,0,0,1-.24-1.6v-.1l0-.82c-.51-12.29,2.85-24.17,10-35.31,5.87-9.19,13.87-15.75,20.93-21a5.85,5.85,0,0,1,3.51-1.31c2.79,0,4.11,2.34,4.82,3.6L802,46l-2.26,1.57c-5.49,3.82-8.3,7.74-9.1,12.71l-.12.72-.42.58a1.6,1.6,0,0,0-.19,1.51l.1.44-.47,5.87Z"/><path d="M776.79,10.14c1.16,0,1.75,1.29,2.42,2.45Q788.63,28.9,798,45.12c-5.24,3.65-9.28,8.11-10.34,14.69a4.63,4.63,0,0,0-.7,3.95l-.21,2.65H745.47a2.84,2.84,0,0,1-.12-.81c0-.29,0-.57,0-.86-.53-12.27,2.93-23.43,9.49-33.71,5.24-8.2,12.44-14.44,20.18-20.16a3.05,3.05,0,0,1,1.73-.72m0-6h0a8.88,8.88,0,0,0-5.3,1.9C764.22,11.41,756,18.2,749.82,27.79c-7.42,11.63-10.94,24.05-10.44,36.92v.2l0,.39v.38a8.9,8.9,0,0,0,.36,2.41L741,72.4h51.29l.44-5.53.1-1.33.11-1.31.07-.91-.11-.52.45-.61.23-1.43c.67-4.15,3-7.36,7.85-10.73l4.52-3.15-2.75-4.77-4.44-7.69L784.41,9.59l-.18-.32c-.79-1.4-2.89-5.13-7.44-5.13Z"/><path class="cls-12" d="M778.8,126.68a2.91,2.91,0,0,1-2-1.54c-.41-1.18.6-2.53.86-3,6.61-11.5,12.82-23.27,19-35,1.33-2.51,2.48-2.9,5-1.65,6.3,3.1,12.74,3.34,18.95-.53a2.8,2.8,0,0,1,2.19-.54c1.25.32,1.91,1.79,2.1,2.22,1.16,2.55,9.09,17.81,20.06,38.88-3,2.8-14.84,13.18-32.93,13.48S781.89,129.37,778.8,126.68Z"/><path class="cls-13" d="M804.25,83.32a23.61,23.61,0,0,1-9.55-9.5l-1-1.68.62-.86-.57-3.51,0-4.33.39-2.37-.39-1.25,1.33-.93,0-.34.3-.74.36-.82.11-.08-.11-.37.84-1.18a13.25,13.25,0,0,1,5.87-5.06l.94-.61,4.4-1.6.35,0a24.8,24.8,0,0,1,2.91-.16,42.3,42.3,0,0,1,6.44.58l.2,0,2.69.78-.09.69c5.79,3.79,9.14,8.59,9.69,13.93.6,5.83-2.18,11.85-8,17.4l-.14.13-1.35,1-1.26.53-1.21.58-1.53.37-8.21.06-1.65-.33-.74.53Z"/><path d="M811.09,50.89a40.29,40.29,0,0,1,6,.54h0l.92.62c11.38,7,12.1,17.38,1.89,27.07l-.9.66-1,.42-1,.48-.89.21-7.55,0-1-.2a1.23,1.23,0,0,0-.93-.49,1.7,1.7,0,0,0-1,.4,20.76,20.76,0,0,1-8.34-8.35,1.37,1.37,0,0,0-.06-1.93v0h0c-.15-.93-.3-1.85-.44-2.78l0-3.86.3-1.85a.74.74,0,0,0,.22-.81,2.07,2.07,0,0,0,.83-2l0-.06a1.57,1.57,0,0,0,.87-1.85A10.14,10.14,0,0,1,803.85,53l.93-.6L808.53,51a22,22,0,0,1,2.56-.14M798.19,59h0m12.9-14.07a28.93,28.93,0,0,0-3.27.18l-.68.08-.66.24-2.85,1-.9.33-.65.24-.58.37-.4.26a16.4,16.4,0,0,0-6.91,6l-1.07,1.48-.32.21-.07.33-.23.33.1.35-.16.81-2.15,1.5.83,2.67-.23,1.44-.08.45v.46l0,2V68l.08.5.33,2-1,1.43,1.74,3,.22,1.38h.61A26.07,26.07,0,0,0,802.87,86l3.28,1.7,1.19-.86h.07l.6.12h.86l7.3,0h.69l.67-.16.67-.16.21,0,.63-.15.58-.28.85-.41.68-.28.17-.08.67-.27.58-.43.35-.26.56-.41.3-.22.27-.26c8.29-7.86,9.44-15.15,9-19.89-.43-4.1-2.45-9.87-9.43-15l.2-1.44-5-1.46-.38-.11L818,45.5a46,46,0,0,0-6.89-.61Z"/></g></svg>