<svg xmlns="http://www.w3.org/2000/svg" xmlns:xlink="http://www.w3.org/1999/xlink" viewBox="0 0 1920 1080"><defs><style>.cls-1{fill:url(#linear-gradient);}</style><linearGradient id="linear-gradient" x1="1186.28" y1="1170.45" x2="1139.27" y2="711.45" gradientUnits="userSpaceOnUse"><stop offset="0" stop-color="#183047"/><stop offset="0.24" stop-color="#172e44"/><stop offset="0.43" stop-color="#132739"/><stop offset="0.62" stop-color="#0d1b28"/><stop offset="0.79" stop-color="#050a0f"/><stop offset="0.88"/></linearGradient></defs><g id="middle_hill"><path class="cls-1" d="M1941.39,665c-10.35-3.78-37.8,1-48.37-2-6,1.74-6.36,12.22-11.14,15.72-8.49,9.08-20.22,2.12-29.65,8.69-9,6.81-16.53,6.23-26.26,8.87-9.36,11.25-20.9-.48-32.67,1.86-26.36.23-13.27,1.24-1.28-14.07-22.71,2-28.92,17.17-15.58-10.24-26.16,19.93-2.25-7.25-11.37-27.48-17.52,19.91-13.11,42.88-12.12,46.86-.7-2.28-3.8-11.25-13.24-30.35-4.82,16.32,1.57,29.07,10.74,41.15-24.7-15.79-47.27-15.44-84-14.76-5.86,0-12.44.13-17.39-2.92a23.62,23.62,0,0,0-5.73-7.81L1634,638.14l36.73-8.55-5.51-23.69-36.73,8.55L1622,586.52l-25.72,6,6.5,27.93L1566,629l5.51,23.69,36.74-8.54,9,38.52c-11.64,5.33-25.61,9.71-42.78-4.37-7.39-1.58-17-3.53-21,4.36-20-.15-36.43,8.38-23.1-12-18,24.07-10.71,2.33-11.94-18.48-7.1,3.51,2.24,32.38-8.4,31.36-6.88-20.91-11-23-3.06-.48-13.67,6.8-30.58-44-54-45.09,22,23.74,34.39,29.7-.33,10.07,14.49,15.17,34.84,31.86,47.26,53.67-31.51-22.26-21.43-13.74-3.21,3.26-40.74-21.29-53.29-16.53-6,3-25.48-4.27-16.91-.23,2.64,4.41-18.07,3.8-3.21,5.93-26,18.26-34.12,26.44-43.88.07-74.76,1.6-24.1,5.91-42.36,19.26-68.23,19.54-11.19,3.74-18.26-11.59-27.69-3.73-14.76,5.9-16.6,13.27-14.63-2.6-21.25,25.86-2.07-10.74-9.48-26.29-24.78,24.45-1,65.48-25.37,16.5-6.3,22.51,14.28,40-16.64,27.1,8.36,10.7,7.45,9.48-4.45,14.16a59.69,59.69,0,0,1-17.67,3.27c1.18-9.55,2.42-19.71,3.57-29.05,4.33-35.2-60.5-42.4-64.73-8q-2.93,23.79-5.86,47.6a18.46,18.46,0,0,0-8.06.52c-21.06,10.74-81.85,19.14-46.78,0-36.44,18.75-5.39-4.38-3-21.11-8.6,9-15.53,24.52-24.8,30.37,8.34-29.91,2.8-31.42-3-2-12.51-20.65-5.46-54.18-26.52-73.75,3,12.94,18.88,52.65,3.63,21.64-21.61-32.18,10.5,32.45,8.15,49.71-7.28-3.46-9.19-16.73-18.06-21.09,26.5,45.83-1.4-1.5-24.09-5.3,16.67,11.52,46.13,44.14,12.9,21.77,10.86,9.76,25.36,19.64,2,12.08,11.53,5.42,9.69,6.74-.44,11.46-18.5,15.61-74.31-6.16-63.68,33-2.88,9.94-18.38,10.95-22,19.67L920,852l25.62-12.47-8.11-16.66-25.62,12.47-9.56-19.64-17.93,8.73L893.94,844l-25.62,12.47,8.11,16.66,25.62-12.47,12.75,26.18c-10.34,2.54-24.44.1-32.88.76-7.08,8.32-15,9.26-25.13,13.9-12.79,29.5-41.9,4.6-65.22,11.05C782.18,931,751.72,932.05,728,933.23c-9.25-2.07-18.33-1-27.48-3.37-9.13,4-14.34,12.53-25.81,7.09-11.75-3.73-21.37-.15-29.58,9-4.52,5.6-18.44,4.76-18.79,12.51-16.91-.88-31.06,1.63-46.1,9.43-4.55,2.36-9,5.11-14,6.27-5.92,1.37-12.09.38-18.16.06a82.9,82.9,0,0,0-68.42,31.15c-9.06,11.58-15.41,26-28,33.66-16.44,10-39.83,5.92-53.76,19.21-4.76,4.54-7.74,10.59-10.62,16.5l-14.67,30.06H1947.13Zm-197.05,41c1.35.42,2.74.77,4.15,1.06A10.24,10.24,0,0,1,1744.34,706Z"/></g></svg>