<svg xmlns="http://www.w3.org/2000/svg" xmlns:xlink="http://www.w3.org/1999/xlink" viewBox="0 0 400 200"><defs><style>.cls-1{filter:url(#AI_Shadow_1);}.cls-2{fill:#666;}.cls-3{fill:#999;}.cls-4{fill:#b3b3b3;}.cls-5{fill:#00fa00;}.cls-6{fill:#d2f78b;}</style><filter id="AI_Shadow_1" name="AI_Shadow_1"><feGaussianBlur result="blur" stdDeviation="2" in="SourceAlpha"/><feOffset result="offsetBlurredAlpha" dx="4" dy="4" in="blur"/><feMerge><feMergeNode in="offsetBlurredAlpha"/><feMergeNode in="SourceGraphic"/></feMerge></filter></defs><g id="instructions"><g class="cls-1"><path class="cls-2" d="M7.93,8.74c2.43,2.58,5.46,4.54,8,7C17.57,17.28,19,18.93,21,19.92a9.47,9.47,0,0,1,3.63,4,5.05,5.05,0,0,1,.92,2,29,29,0,0,1,0,3.09c0,1.17-.36,2.11-.42,3.25s0,2.35,0,3.52V43.5a56,56,0,0,0,.37,9.36A40.59,40.59,0,0,1,26,59.67,27.65,27.65,0,0,1,26,63c-.25,1.83-2.09,2.67-1.62,4.75a15,15,0,0,0,.89,1.91c.28.72.4,1.48.7,2.2a8.16,8.16,0,0,1,.4,3.42c0,1-.08,2.12,0,3.16s.4,1.72.43,2.65c.07,1.83.4,3.57.39,5.43,0,3.28.48,7-.2,10.23-.48,2.28.62,4.19.6,6.51,0,.82,0,1.64,0,2.46s.37,1.85.43,2.81c.13,1.77,0,3.68,0,5.45s-.42,3.5-.42,5.31a26.76,26.76,0,0,1-.5,5.72c-.58,2.75-1,5.6-1.52,8.4a43.74,43.74,0,0,0-.39,7.76c0,1,0,2.09,0,3.14,0,1.41-.34,2.73-.43,4.12-.13,2.18,0,4.41,0,6.6a16.32,16.32,0,0,0,.5,4.18c.2.77.51,1.57.65,2.35.07.41-.05,1,.05,1.33s.36.6.43,1.13a32.21,32.21,0,0,1,0,3.93A17,17,0,0,1,26,172c-.28,1.15-.21,2.23-1,3.09a8.76,8.76,0,0,1-.79.82c-.49.38-.67.24-1.22.4s-.73.33-1.18.44-1.18-.11-1.75,0c0,.23-.09.45-.15.67-1.27.09-3.12,1.42-4,2.12s-.94,1.07-1.91,1.25a10.47,10.47,0,0,0-2.44.82c-1.24.56-2.68,1.1-4,1.66a16.56,16.56,0,0,0-1.82.64c-.64.34-1.3.86-1.93,1.24a5.06,5.06,0,0,1-.8-3.61,24.08,24.08,0,0,0,.54-7.24,27.62,27.62,0,0,0-1.64-7.29c-.89-2.67-.09-4.79.65-7.36a6.45,6.45,0,0,0,.1-3.09c-.28-1.1-.94-2-.76-3.21a47.6,47.6,0,0,0,.83-6.95,23.61,23.61,0,0,1,0-2.79c.1-.85.6-1.51.73-2.39.47-3,0-6.31.06-9.38,0-1.8.61-3.28.06-5a38.09,38.09,0,0,1-1.46-5.55,27.21,27.21,0,0,1,1-11.45,24.28,24.28,0,0,0,.82-3.09A10.6,10.6,0,0,0,3.43,103a34,34,0,0,1-1.14-7.2c0-1.23,0-2.47,0-3.71a9.39,9.39,0,0,1,.16-3.22c.29-.76.82-1.06,1-2a22.32,22.32,0,0,0,.06-4.16c0-4.25.32-8.6-.38-12.8-.39-2.34-1.23-4.67-1.25-7.05A21.71,21.71,0,0,0,1.71,60c-.51-3.61.47-6.2,1.43-9.58.77-2.72.08-5.89,0-8.7S2.77,36,2.4,33.19A57.76,57.76,0,0,1,2.31,26c0-.79-.07-1.6,0-2.39a16.39,16.39,0,0,1,.85-3.12c.67-2.76.42-5.81.38-8.64,0-1-.16-1.06.59-1.5A33.53,33.53,0,0,0,7.93,8.74Z"/><path class="cls-3" d="M7.52,12c0-1.24-.32-2.54.7-3.39a5.63,5.63,0,0,1,3.72-1.54c1.71,0,3.42,0,5.13,0A28.94,28.94,0,0,0,23.9,6,21,21,0,0,1,28.79,5h4.72a6.93,6.93,0,0,1,.91,0,5.77,5.77,0,0,1,.86.33c.77.19,1.55,0,2.33.12a10.29,10.29,0,0,0,4,.34,9.29,9.29,0,0,1,2.87-.38,22.35,22.35,0,0,0,2.47.43A25.48,25.48,0,0,1,50.81,6a31.52,31.52,0,0,0,5.66.32,10,10,0,0,1,1.9.09c.84.16,1.92.81,2.83,1.06a18.78,18.78,0,0,0,4.5.94c2.16.05,4.35,0,6.52,0,2.92,0,5.71-.43,8.65-.4,1.56,0,3-.44,4.57-.43,2.13,0,4.3.13,6.43,0,1.85-.08,3.62-.43,5.49-.43a48.37,48.37,0,0,0,6.37-.32c1.84-.22,3.76.22,5.56-.18.35-.08.64-.28,1-.34.78-.13,1.6.11,2.4,0A23.2,23.2,0,0,1,116,5.46a15.93,15.93,0,0,0,3-.5,85.24,85.24,0,0,1,8.4-1.46c2.65-.4,6.73-1.4,8.91.72A7.12,7.12,0,0,0,139.82,6a11.53,11.53,0,0,0,1.74.75,31.4,31.4,0,0,0,4.75,0c3.26,0,6.4-.41,9.67-.41h3.57a17.31,17.31,0,0,1,5.61,1.26c1.5.5,3,.06,4.46.37.72.16,1.26.7,2,.87,4.28,1,8.61-.47,12.89.18a43.73,43.73,0,0,0,6.17.21,19.73,19.73,0,0,0,6-.82c1.55-.45,3.07-1.52,4.65-1.66,2.24-.19,4.52.24,6.76-.08a10.86,10.86,0,0,1,3.36-.24,26.71,26.71,0,0,0,2.67.35,30.32,30.32,0,0,1,4.88.34c2.89.53,5.39-1.89,8.09-2.38,2-.36,4,.33,6,.4s4.28,0,6.4,0c3.1,0,6.15-.37,9.23-.44,1.13,0,2.25.07,3.37.06a45.63,45.63,0,0,0,5.49-.78,59.45,59.45,0,0,1,8-.07,67.64,67.64,0,0,1,7.4.08c.9.1,1.8.29,2.7.44,1.63.27,3.21.17,4.84.33a60,60,0,0,0,6.7.8c2.16,0,4.33.09,6.49,0s4.63-1,6.87-1.34c4.05-.6,7.81-2.59,11.87-3.18a12.56,12.56,0,0,1,3,.06c1.89.18,3.79.26,5.67.52,2.17.29,4.32.83,6.51,1,2.42.23,4.71.92,7.17.85,3.72-.09,7.39-.75,11.12-.84,2.36-.05,4.65-.42,7-.42h2.49c5.12,0,10.23-.77,15.37-.83a10.72,10.72,0,0,1,2.15.33c.79.13,1.56.09,2.36.18a41.76,41.76,0,0,1,5.39,1.06c2.08.54,4.22.41,6.34,1A7.28,7.28,0,0,1,387,6.46c-.13.91-.46,1-1.23,1.45-1.86,1.2-2.41,2.81-4.49,3.59-1.5.57-1.53,1.18-2.93,2a24.39,24.39,0,0,0-3.9,3c-1.07,1-5.14.64-6.62.87-1.16.18-2.36.29-3.53.48s-2.48.53-3.72.77a54.51,54.51,0,0,1-8.18.45,226.82,226.82,0,0,0-24.12,2.49c-10.13,1.45-20.26,2.49-30.45,3.35a202.77,202.77,0,0,0-25.15,3.23c-5.71,1.2-11.59,2-17.11,4-7.39,2.63-14.49,5.26-22.46,4.4-2.11-.23-4.25-.79-6.36-1.11-2.3-.34-4.63-.52-6.93-.8-4.87-.6-9.67-1.53-14.54-2.06-6.6-.72-13.21-1.21-19.81-1.85-2.62-.25-5.24-.58-7.86-.84-3.73-.37-7.08.16-10.79.63a208.54,208.54,0,0,1-23.31,1.18c-3.53.05-6.94-.11-10.47-.33-5.27-.34-10.61-.33-15.86-.9-5.92-.66-11.71-2.09-17.63-2.69s-12,0-18-.42C78,27.09,74.46,26.15,70.88,26s-7.3,0-11-.42c-3-.34-6-.16-8.9-.5a24.12,24.12,0,0,0-5.76-.23,49.85,49.85,0,0,1-5.19.31,5.39,5.39,0,0,1-2.41-.72A8.77,8.77,0,0,0,33.89,24c-1.35,0-2.54-.45-3.89-.44a23.16,23.16,0,0,1-4.78,0,15.09,15.09,0,0,1-4.47-2.05C19,20.39,17.54,19,15.9,17.77s-3.5-1.72-5.19-2.7C9.43,14.33,9,13.67,7.52,12Z"/><path class="cls-3" d="M369.69,20.07c.7.13,1.26-.58,1.76-1,1-.8,2-1.55,2.94-2.37.71-.62,1.27-1.38,1.93-2.06s1.58-1.73,2.43-2.5,1.85-1.28,2.71-1.95c1.31-1,2-2.45,3.11-3.65.38-.42.93-1.1,1.49-1.19s.55.2.94.3.88-.2,1.32-.26a48.27,48.27,0,0,1,.58,5.8v3.85a17.43,17.43,0,0,0,.13,4.15,20.44,20.44,0,0,0,1.24,3.08c.59,1.31.4,3,.72,4.42.42,1.8.4,3.65.79,5.46a43,43,0,0,1,.89,5.75,21.76,21.76,0,0,0,.08,2.68c.1.55.32,1.09.42,1.64.25,1.33.53,2.63.82,3.94a10.91,10.91,0,0,1-.21,4c-.3,1.87-.52,3.68-.75,5.56-.14,1.17-.24,2.31-.36,3.48a37.29,37.29,0,0,0-.52,4q0,3.25,0,6.51a9.3,9.3,0,0,0,.35,2.41c.2.88.18,1.8.32,2.7s.37,2,.56,2.92c.15.76.1,1.51.19,2.28a92.24,92.24,0,0,1,.21,10.12v-.19a29.7,29.7,0,0,0,0,4.22,38.2,38.2,0,0,0,.81,5.37c.42,1.3,0,2.61,0,4a27.79,27.79,0,0,1-.05,4.28c-.21,1.44-.82,3.14-.59,4.58.12.76.53,1.36.63,2.13a13.19,13.19,0,0,1,0,3.38c-.28,2-1.18,3.73-1.21,5.76a30.41,30.41,0,0,0,.21,5.14,22.76,22.76,0,0,1,.06,3.6,23.53,23.53,0,0,1-.06,3.36,35.85,35.85,0,0,0-.44,4.74,11.87,11.87,0,0,0,.28,2.86c.11.49.19.94.26,1.46.11.83.74,1.48.72,2.27s-.26,1.47-.27,2.22c0,.52,0,1,0,1.54a3.86,3.86,0,0,0,0,1c0,.17.18.29.21.45a4.9,4.9,0,0,1-.23,1.34c-.6,3.73,0,7.49,0,11.25a46.09,46.09,0,0,1-.06,5.76c-.1.81-.13,1.52-.18,2.32s-.31,1.84-.27,2.81.4,1.52.14,2.42a3.71,3.71,0,0,1-.92,1.58c-.45.41-.82.84-1.25,1.28-.27.27-.56.53-.8.82-.38.48-.21.77-.44,1.23a1.12,1.12,0,0,1-1.38.51,4.35,4.35,0,0,1-.82-.65,9.57,9.57,0,0,1-.57-1,12.91,12.91,0,0,0-.89-1.44c-.71-.75-1.35-1.5-2.05-2.27-.55-.61-1-1.3-1.56-1.86s-1.15-1-1.7-1.52-1-.47-1.55-.8-1.09-.76-1.61-1.12a13.34,13.34,0,0,1-2.65-2.81,3.35,3.35,0,0,1-.63-1,5.42,5.42,0,0,1-.24-1.33,35.24,35.24,0,0,1-.19-5.14c0-2.53,0-5,0-7.58,0-2.71,0-5.37.24-8.07.27-2.86.52-5.75.51-8.63,0-5.34.54-10.93-.75-16.14a32,32,0,0,1-1.07-5.41c-.18-2.58-.57-5.13-.74-7.7-.17-2.4-.14-4.8-.3-7.19a51,51,0,0,1-.09-7.62,26.78,26.78,0,0,1,1.34-6.26,19.22,19.22,0,0,0,.65-2.17,33.43,33.43,0,0,0,.74-6.64,36.27,36.27,0,0,0-1.47-9.12C372,64.19,371.78,58,371,51.9a76.74,76.74,0,0,1-.49-7.73c0-1.5-.27-3-.26-4.48,0-.9,0-1.8,0-2.7v.17a17.51,17.51,0,0,0-.31-2.8c-.13-.69-.06-1.37-.18-2,0-.25-.22-.41-.27-.68a6.49,6.49,0,0,1,0-1.08c0-.68.07-1.41,0-2.09A17,17,0,0,0,369,26a3,3,0,0,1,0-1.78A25,25,0,0,0,369.69,20.07Z"/><path class="cls-2" d="M6,179.35a3.16,3.16,0,0,1-.29,1.26c-.13.46,0,.91-.17,1.38a8.85,8.85,0,0,1-1,2.43c-.62,1-.45,1.15.57,1.64.69.33,1.06,1,1.69,1.38.79.46,1.73.25,2.6.45s1.4.93,2.11,1.15a17.5,17.5,0,0,0,5.31.81,7.76,7.76,0,0,1,3.57.79,8.54,8.54,0,0,0,4.32.35,12.46,12.46,0,0,1,2.48-.36h2.21c2.64,0,5.23-.4,7.86-.39h3.23c2.18,0,4.68-.37,6.82.07,2.72.56,5.33,1.64,8.13,1.85,3.31.24,6.71,0,10,0,3.84,0,7.67,0,11.51,0a97.35,97.35,0,0,0,10-.78,30.63,30.63,0,0,0,4.46-.79,39,39,0,0,1,5-.58,25.57,25.57,0,0,1,5.6,0,41.28,41.28,0,0,0,10.18-.18c3.52-.52,6.65-1.34,10,0,1.53.6,3.1,1.11,4.64,1.66a9.49,9.49,0,0,0,3.36.29,35.43,35.43,0,0,0,3.57,0,21.39,21.39,0,0,0,2.34-.54,12.06,12.06,0,0,1,3.84-.16c1.1.12,2.16.48,3.25.65a19,19,0,0,0,2.72.05c1.69,0,3.21.77,4.86.81,1.87.06,3.67.35,5.56.37a20,20,0,0,0,3.45-.27c1.62-.27,3.11-1,4.73-1.22,3.25-.45,6.78-.09,10.07-.05,1.57,0,3.07-.35,4.64-.42,2.24-.1,4.48.31,6.71-.16,3.14-.67,5.75-3.18,9-3.32,2.24-.11,3.91.91,6,1.35s4,.12,6,.28c1.64.13,3.27.54,4.89.82a22.91,22.91,0,0,0,7-.25c1.89-.25,3.71.41,5.59.53,1.7.1,3.31.47,5.05.41,2.55-.1,5-.6,7.58-.8a8.77,8.77,0,0,1,4.71.95,7.33,7.33,0,0,0,1.58.94,14.72,14.72,0,0,0,2.74.08c4,.34,8,1.22,12,1.49,3.31.23,6.54.41,9.88.42a49.82,49.82,0,0,0,8.71-.58c1.24-.22,2.5-.4,3.75-.54a8,8,0,0,1,2.87.34c1.86.43,3.58.2,5.43.48a54.8,54.8,0,0,0,7,.29c2,0,3.91.44,5.89.41,1.32,0,2.42.26,3.71.36a13.46,13.46,0,0,0,4.46-.77,10.74,10.74,0,0,1,2.93-.72l.06.34c0,.15-.5-.39-.47-.24a9.21,9.21,0,0,0,3.1.09h10.39c1.53,0,3.07,0,4.6,0s2.91-.49,4.41-.59a50.62,50.62,0,0,0,5.07-.25,43.86,43.86,0,0,1,6.28-.24,39.87,39.87,0,0,0,6.12-1,25.46,25.46,0,0,1,3.6-.08c1.52,0,2.18-1,3.58-1.16a30,30,0,0,1,3.79,0,40.07,40.07,0,0,0,7.5-.66c3.19-.59,6.43-1.18,9.6-1.8,2.3-.44,4.85.24,7.09-.3,1.64-.4,2.49-1,2.46-2.69,0-1.29.3-2.92-.25-4.1s-1.69-2-2.42-3a22.07,22.07,0,0,1-2.25-3.27c-.41-.79-1.41-2.75-2.11-3.17-.53-.32-1.41,0-2-.2-.86-.25-1.36-1.06-2.12-1.41a11.84,11.84,0,0,0-3.63-.66c-2.37-.18-4.69-.46-7-.81-5.87-.86-11.37-1.94-17.32-1.91-6.68,0-13.41-.27-20.07.4-6.89.69-14.32,1.64-21.11-.1a54.7,54.7,0,0,0-11.19-1.91c-4.24-.17-8.5,0-12.75,0-12.61,0-25.2.47-37.82.55a83.54,83.54,0,0,1-13.69-.8c-3.74-.59-7.42-1.5-11.19-1.85-3.28-.31-6.6,0-9.88-.06-2.67,0-5.27-.3-7.93-.45-5-.28-10,0-15-.65a73.38,73.38,0,0,1-10.44-1.75A67.76,67.76,0,0,0,169.22,157a135.66,135.66,0,0,0-14.1-.92c-6.1-.09-12.25,1.42-18.23,2.47-3.36.59-6.74,1.5-10.13,1.87a95.24,95.24,0,0,1-10.28.08c-6,0-12-.24-18-.82-6.53-.63-14-1-20.41.85-3.35,1-7.14.53-10.61.52s-7.1-.12-10,2.06c-1.06.79-1.45,1.95-2.71,2.71a21.83,21.83,0,0,1-7.53,2.3c-3.2.57-5.9,2.18-9,3.16-2.72.87-5.16,2.8-8.09,2.86-2,0-4,0-6,0a17.75,17.75,0,0,0-5.06.41,45,45,0,0,0-5.07,1.7,30.65,30.65,0,0,1-3.32,1.28,7.7,7.7,0,0,1-1.73.41c-.79.08-1.24.62-2,.67C7,178.74,6,179.2,6,179.35Z"/><path class="cls-4" d="M25.87,20.5c3,0,5.12,2.48,8.07,1.93,4.62-.87,9.24-.67,13.88-1.37,5.13-.77,9.64.24,14.58,1.54,3.79,1,8.42,3.39,12.39,3.5,3.06.08,6.1-1.29,8.8-2.58a55.86,55.86,0,0,1,8.79-3.7c4.29-1.22,8.87-.66,13.24-.73,9.87-.16,19.52-2.56,29.38-2.86,3.76-.11,8.69-.28,12.32.83,3,.92,5.22,3,8.07,4.07,5.58,2.13,11.26-1.19,16.88-1.95,3.85-.53,7.36.46,11.2.66,7.82.39,15.72.3,23.13,2.86,7.13,2.45,16.15.68,23.31-.71,3.18-.62,7.4-2.5,10.64-2.23,4.12.34,1.49,10.55,4.29,13.8.79-3,2.08-6.28,5.34-7.29.36-3.32-.28-7.13,3.14-8.64a13.1,13.1,0,0,1,4.19-.63c6.95-.59,13.75-.73,20.73-.7,5.49,0,11,.06,16.46,0,4.63-.06,9.07,1.29,13.7.81,5.62-.58,10.91-2.63,16.4-3.46,6.49-1,13.33.93,19.85.89,4.75,0,9.5,0,14.24,0h11.49c1.38,0,5-.49,6.72.09.3,2-.38,4.26,0,6.26s2,3.39,2.74,5.35c1.29,3.51.83,6.72.89,10.55a22.15,22.15,0,0,1-1.61,9.5,19,19,0,0,0-1.24,6.51c.13,5.78,4.43,9.85,5.58,15.3,1.53,7.23-.34,14.69,1,21.85,1.5,8.19.69,17,.68,25.4,0,5.88-1.39,10.15-3.59,15.67a23.13,23.13,0,0,0-.93,14.3c1.52,5.61,3.44,10.85,2.28,16.77a15.07,15.07,0,0,1-5.57,9.67c-2.07,1.69-3,1.28-5.49,1.66-4.8.71-9.28,3.39-14.21,3.72A24,24,0,0,1,351,177a26.79,26.79,0,0,1-3.35-1.74c-3.27-1.56-7.24-.91-10.84-.91-2.23,0-4.48-.08-6.71,0-2.56.09-3.2.66-5.25,2.64-1.73,1.65-2.27,1.89-4.51,1.89a9.06,9.06,0,0,0-3.9.66,38.43,38.43,0,0,1-18.89,1.86,54.9,54.9,0,0,0-13.8-.5c-6.91.62-13.74.72-20.67.7-7.52,0-15,.4-22.42-.7a63.4,63.4,0,0,0-9.65-.19c-4.84,0-10,0-14.21-1.81-2.12-.89-5.21-1.3-7.43-1.89a33.28,33.28,0,0,0-7.27-.87c-5.55-.27-10.77-.9-16.38-.89-3.31,0-7.15-.44-10.44,0-5.26.77-10.45,2.57-15.74,3.42-6,1-13.21,2.56-19.2.43-5.08-1.82-.82-5.62-3-8.92-1.89,1.64-2.81,4.13-4.55,5.87-.76.76-1.9,2.37-2.73,2.77s-2.41-.1-3.47.11c-1.28.25-2.16.83-3.54.85a12.32,12.32,0,0,1-7.07-2.29c-2-1.28-5.79-4.5-8-4-2.86.59-3.09,4.39-5.32,5.37s-4.41-.46-6.21-.9c-2.5-.62-5.49.1-8-.42a39,39,0,0,0-8-.46c-6.28,0-11.49.17-17.36,2.78-5.1,2.26-13,.86-18.43.86-2.76,0-5.76.36-8.49,0-2.23-.27-3.9-.95-6.27-.94-3.35,0-9.58,1-11.56-2.69s.46-9.61,2.27-12.75.91-8.93.87-12.71c0-2.44.9-4.35.88-6.81,0-2.12.05-4.24,0-6.36-.05-2.5-1.42-4.41-1.83-6.81-.31-1.83.05-4,.05-5.9,0-2.41-.42-5.27.2-7.57s1.59-3.56,1.57-6.31a16.22,16.22,0,0,0-1.35-7,16.49,16.49,0,0,1-1.31-6.61,27.43,27.43,0,0,1,1.36-7.92c.66-2.36.41-4.87.41-7.31,0-2.84.18-5.75,0-8.58-.12-2.28-1.46-4.15-1.84-6.36-.72-4.32,1.82-7.56,1.82-11.81,0-2.49-.79-4.41-.89-6.81-.09-2,.35-4.14-.4-5.9-.87-2-2-3.92-1.41-6.4.17-.74.8-1,1-1.73a16.57,16.57,0,0,0-.05-3.22c0-2.27,0-4.54,0-6.81a12.32,12.32,0,0,1,.08-3.1c.19-.76.9-1.25,1-2.17Z"/></g><g class="cls-1"><path class="cls-5" d="M83.24,63q46.2-6.93,51.45-.94,2.73,1.89,3.17,4l.14.6.1,3.54A6.26,6.26,0,0,1,140,73.42l1.41,6.83q1.27,6.07-13,21.18Q118.2,110.76,113,111.85q-6.14,1.35-7.3-4.39c-2.85-2.59-4.43-4.61-4.72-6.08q1.36-.3,6.18-6.63,11.3-9.87,11.1-10.76l.34-1.25q-3.41-4.59-22.34-1.69-6.18,1.33-5.21,5.88.78,6.48,2.48,14.85l7.5,36.44q.15,1.29-5,4c.3,1.52-.11,2.4-1.21,2.64l-2.19.5q-.82.19-5.21-5.44-2-12.81-3.65-20.63-3.7-18.1-13-40.53,1-7.22,5.26-11.21C76.67,66.49,79.06,65,83.24,63Z"/><path class="cls-6" d="M92.56,147.92c-1.59,0-3.21-1.54-7-6.4l-.4-.51-.1-.64c-1.35-8.47-2.57-15.37-3.63-20.53C79,108,74.69,94.51,68.58,79.78l-.26-.64.1-.69C69.16,73.21,71.1,69,74.18,66c.78-1.17,2.53-2.68,8-5.26l.32-.15.34,0c41.05-6.16,50.32-3.53,53.4-.39a9.16,9.16,0,0,1,4,5.44l.19.77.08,2.88A8.29,8.29,0,0,1,142.35,73l1.4,6.77c1.05,5-3.3,12.49-13.68,23.44l-.12.12c-7.14,6.58-12.51,10.18-16.42,11a8.74,8.74,0,0,1-6.89-.88,7.8,7.8,0,0,1-3.1-4.61c-3-2.78-4.54-5-4.92-6.93l-.49-2.42,2.15-.47c.36-.26,1.62-1.35,5-5.77l.15-.2.19-.17a132.16,132.16,0,0,0,10.09-9.34c-1.83-.92-6.61-1.88-19,0-2.3.51-3,1.24-3.16,1.54a1.65,1.65,0,0,0-.11,1.34l0,.23c.51,4.24,1.34,9.16,2.45,14.65l7.53,36.66c.25,2.21-1.64,3.91-4.89,5.78a4,4,0,0,1-3.22,3.64l-2.15.49A3.05,3.05,0,0,1,92.56,147.92Zm-.38-5h0Zm-2.4-4a41.94,41.94,0,0,0,3.29,3.84l.6-.14-.32-1.7L95,140a20.18,20.18,0,0,0,3.52-2.21L91.17,102.3c-1.13-5.58-2-10.61-2.5-15a6.69,6.69,0,0,1,.79-5c1.16-1.84,3.23-3.07,6.32-3.74l.15,0c14.08-2.15,21.68-1.33,24.64,2.66l.74,1-.53,1.92c0,1.4-1.33,3.18-11.82,12.35a51.34,51.34,0,0,1-4.83,5.7,23.92,23.92,0,0,0,3.22,3.4l.61.55.16.81a3.44,3.44,0,0,0,1.19,2.28,4.56,4.56,0,0,0,3.21.18c2.07-.44,6.18-2.49,14.1-9.78,12-12.72,12.65-17.43,12.35-18.86l-1.41-6.83A4,4,0,0,0,136.37,72l-.68-.71L135.57,67l-.08-.33a4.74,4.74,0,0,0-2.17-2.58l-.24-.17-.2-.22c-1-1.17-7.59-4.48-48.93,1.69-4.86,2.3-5.67,3.31-5.75,3.42L78,69.2l-.27.23a15.42,15.42,0,0,0-4.39,9.06c6.09,14.77,10.42,28.34,12.87,40.32C87.26,123.91,88.46,130.67,89.78,138.91Zm4.57,3.55Z"/><path class="cls-5" d="M163.36,50.24c1.56,1.5,2.33,4.11,2.33,7.83a40.38,40.38,0,0,1-.63,6.63q-1.41,12.1-3.65,25.87L158,111.25q5.22-1.09,23-5.88a7.35,7.35,0,0,1,5.6,4.49l-.1.59-1.8,3.84,3.75,2.25-.93,5.73q-.15,1-1,1a.71.71,0,0,1-.29-.05l-3.26-1.14q-4.77.9-5.31,4.38-11.49,3.79-13.48,3.79h-.2l-25.89,4.69a41.49,41.49,0,0,0-2.53-12.81l.09-.6q6.87-13.65,8.91-37.63a47.24,47.24,0,0,0,.29-6.53q0-7.73-.78-23.28c1.76-4.42,4.43-6.63,8-6.63,2.4,0,5.2,1,8.42,2.89,0-.2.34-.3.92-.3A14,14,0,0,1,163.36,50.24Z"/><path class="cls-6" d="M135.66,137.9l0-2.93a39.08,39.08,0,0,0-2.39-12l-.22-.61.27-1.63.17-.34c4.41-8.78,7.32-21.13,8.65-36.71l0-.19a43.74,43.74,0,0,0,.26-6.12c0-5.07-.26-12.86-.77-23.15l0-.56.2-.51c2.69-6.77,7.08-8.19,10.3-8.19a18,18,0,0,1,8.62,2.64,10.83,10.83,0,0,1,3,.18l.75.12.55.53c2.09,2,3.11,5.16,3.11,9.65a42.53,42.53,0,0,1-.66,7c-.94,8.06-2.17,16.78-3.66,25.92L161,108c4.15-1,10.63-2.7,19.34-5l.5-.13.52.08a9.86,9.86,0,0,1,7.4,5.87l.33.72-.28,1.73-1,2.08,3.26,2-1.2,7.43a3.39,3.39,0,0,1-3.43,3.08,3.31,3.31,0,0,1-1.08-.18l-2.63-.92c-2.5.62-2.67,1.74-2.74,2.18l-.23,1.52-1.43.47c-10.39,3.43-13,3.91-14.21,3.91Zm2.42-15.84a46.73,46.73,0,0,1,2.23,9.92l23.83-4.24c.38,0,2.32-.26,11.49-3.26.78-2,2.64-4.08,6.85-4.87l.63-.12,2.24.79.39-2.45-4.24-2.54,2.43-5.17a4.65,4.65,0,0,0-2.88-2.18c-11.69,3.14-19.07,5-22.55,5.76l-3.5.74,4-24.29c1.48-9.08,2.71-17.75,3.64-25.75l0-.13a38.54,38.54,0,0,0,.59-6.2,12.3,12.3,0,0,0-.76-4.8l-.17,1.07-3.07-1.84C156.43,50.81,154,50,152.07,50c-1.56,0-3.8.49-5.57,4.58.5,10.09.75,17.77.75,22.83a53.11,53.11,0,0,1-.3,6.84C145.59,100,142.61,112.78,138.08,122.06Zm47-.18v0Z"/><path class="cls-5" d="M224.27,48q5.64-.84,10.17,10.82,17.63,28.86,27.94,38.63l.15,1.14a18.17,18.17,0,0,1-.59,3.64q1.76,1.69,3.6,9.47l-1,.7a6.31,6.31,0,0,0-3.5-.6l-.59,0q-4.08,3.44-3.84,5.28c.35,2.3-.6,3.61-2.87,3.94q-6.72,1.05-7.3-2.94-.73-5.17-13.63-3.24l-8.47,1.3a73.51,73.51,0,0,0-7.79,1.69q-5.59.86-6.18-3.14c-.33-2.29-.88-3.37-1.66-3.24l-1.07.15c-.62.1-1.86,2.95-3.75,8.55a200.32,200.32,0,0,0-5.59,21.41,7.44,7.44,0,0,0-1.76.1q-3.21.45-5.11,4l-1.12.15q-1.17.21-4.77-5.18l-.24-1.69q-.19-1.31,10.85-31.56a390.55,390.55,0,0,1,17.92-54.38c.78-.13,2.33-1.36,4.67-3.68l2.34.24A6.75,6.75,0,0,1,224.27,48Zm-3.9,28.81q-6.57,13.95-6.18,16.75c.2.79.62,1.14,1.27,1,3.24-.89,5.27-1.41,6.08-1.54q7.69,1.2,11.05.7l.39-1.25q-8.37-15.2-11.49-15.85Z"/><path class="cls-6" d="M190.12,148.42c-1.76,0-3.54-1.71-6.61-6.3l-.32-.47-.33-2.27c-.14-1-.28-1.92,10.94-32.66a394.78,394.78,0,0,1,18-54.61l.52-1.27,1.19-.2a18.7,18.7,0,0,0,3.51-3l.82-.81,2.51.27a8.47,8.47,0,0,1,3.54-1.53h0c7.41-1.11,11.34,8.62,12.72,12.15C248.15,76.54,257.37,89.3,264,95.61l.65.61.24,2a9.38,9.38,0,0,1-.36,3.41c.92,1.42,2,4,3.35,9.53l.4,1.7-3.53,2.41-1.2-.51a4.15,4.15,0,0,0-2.17-.44A8.83,8.83,0,0,0,259,117a5.46,5.46,0,0,1-5,6.58c-3.51.54-6.08.17-7.84-1.16A5.8,5.8,0,0,1,244,118.5a1,1,0,0,0-.42-.72c-.66-.5-3-1.54-10.44-.42l-8.46,1.3a73.51,73.51,0,0,0-7.54,1.64l-.25,0c-6.47,1-8.31-2.43-8.82-4.55-.45,1.12-1.07,2.77-1.89,5.21a198.62,198.62,0,0,0-5.52,21.13l-.44,2.08-2.08-.12a5.59,5.59,0,0,0-1.22.07c-.92.13-2.19.55-3.36,2.77l-.59,1.12-2.36.31A2.72,2.72,0,0,1,190.12,148.42Zm-.18-5h0Zm-2.08-3.65a29.78,29.78,0,0,0,2.4,3.18,8.75,8.75,0,0,1,5.93-3.72l.1,0a194.9,194.9,0,0,1,5.28-19.82c3-8.94,4-9.94,5.67-10.21l1.12-.16a3.09,3.09,0,0,1,2.33.6c1.1.82,1.72,2.25,2.07,4.76.08.55.22,1.48,3.29,1.05a74.47,74.47,0,0,1,7.92-1.72l8.46-1.29c7-1.06,11.47-.63,14.07,1.35a6,6,0,0,1,2.33,4c.06.43.2.53.29.6s1.21.7,4.23.23a1.72,1.72,0,0,0,.84-.26,2.13,2.13,0,0,0,0-.81c-.31-2.29,1.15-4.62,4.7-7.61l.59-.5,1.26-.1a6.55,6.55,0,0,1,1.66,0c-1.17-4.13-1.95-5.07-2.12-5.23l-1-1,.29-1.38c.41-2,.51-2.67.53-2.91l0-.14c-7-6.88-16.09-19.49-27.7-38.51l-.2-.4c-1.42-3.67-4.29-9.73-7.54-9.27a4.53,4.53,0,0,0-2,1.1l-.79.67L219.59,52a20.15,20.15,0,0,1-3.68,3,389.75,389.75,0,0,0-17.41,53.09l-.08.26C189.89,131.69,188,137.62,187.74,139Zm-.15-.61Zm0,0Zm0-.53v0ZM209.09,114h0Zm-1.57-.61Zm7.76-16.24a3.54,3.54,0,0,1-3.46-3l0-.25c-.26-1.84.34-5.32,6.4-18.19l.57-1.21,2.83-.38.4.08c2.19.46,5.29,2.84,13.13,17.07l.52,1L234.45,96l-1.51.22c-2.43.36-6.15.15-11.35-.64-.67.14-2.16.5-5.5,1.43l-.27.06A4.9,4.9,0,0,1,215.28,97.12Zm6.45-17.41a87.47,87.47,0,0,0-4.82,11.91c2.81-.76,3.77-1,4.25-1l.37-.06.38.06a61.2,61.2,0,0,0,7.63.8C225.18,83.69,222.84,80.79,221.73,79.71Z"/><path class="cls-5" d="M322.86,47.25Q328,48.41,328,50.14v.6l-1.12,4q1.71,1.94,2.24,9.92Q310.55,80.6,303,94.9q-13.63,18.45-13.63,29.66-1.75,4.63-2.87,4.64H286c-1.46-1.17-2.59-1.75-3.4-1.75q-4.53,4.74-4.53,6.43c-2,1.53-3.75,2.29-5.11,2.29q-5.12-.79-5.11-5.23,0-.8-4-7,1.8-5.47,9.63-16.84,7.94-10.87,7.94-12.81-5.65,0-16.45-25.58a12,12,0,0,1-1.71-4.63q3.31-7,8.52-7,2.38,0,6.81,12.21,6.29,10.47,9.11,10.47,9.09-3,21.56-25.57,1.06-1.69,5.69-4.69c0-1,.75-1.54,2.24-1.74l2.29.6A6.53,6.53,0,0,1,322.86,47.25Z"/><path class="cls-6" d="M272.92,138.67l-.37,0c-4.43-.69-7-3.36-7.18-7.33a58.15,58.15,0,0,0-3.59-6l-.66-1,.38-1.15c1.29-3.93,4.55-9.65,10-17.5a114,114,0,0,0,6.69-9.88c-3.37-2.15-8-8.53-15.41-26-1.35-2.58-1.95-4.35-1.95-5.73v-.58L261,63c2.64-5.57,6.24-8.39,10.71-8.39,2.57,0,4.87,2.24,9,13.61,4.1,6.8,6.09,8.52,6.78,9,3.83-1.62,10.18-7.24,19.56-24.18l.07-.13c.55-.87,1.73-2.3,5.62-4.9.45-1.08,1.52-2.31,4.05-2.65l.46-.06,1.81.47a8.32,8.32,0,0,1,3.74-1h.26l.26.06c2.1.47,7,1.58,7,5.33v1l-.9,3.27c1.05,2,1.68,5.25,2,10.17l.09,1.27-.95.81C318.59,77,310,86.88,305.15,96.09l-.2.32c-8.72,11.8-13.14,21.27-13.14,28.15V125l-.16.43c-1.46,3.85-2.83,6.24-5.15,6.24h-1.37l-.67-.53a13.14,13.14,0,0,0-1.2-.86c-2.22,2.45-2.7,3.46-2.79,3.71v1.13l-1,.75C277,137.77,274.83,138.67,272.92,138.67Zm7.53-4.59Zm-13.91-10.43c3.52,5.52,3.71,6.39,3.71,7.29,0,1.13.22,2.26,2.82,2.73a6.67,6.67,0,0,0,2.78-1.28c.48-1.37,1.76-3.34,5-6.69l.72-.75h1a6.59,6.59,0,0,1,3.45,1.22,21.38,21.38,0,0,0,.92-2.1c.18-8,4.77-18,14-30.52,5-9.47,13.65-19.54,25.62-29.94-.5-5.83-1.42-7-1.53-7.16l-.9-1,1.31-4.72a11.89,11.89,0,0,0-2.8-.94,4.87,4.87,0,0,0-1.92.78l-.88.54-2.47-.65v.49l-1.14.74c-3.69,2.39-4.68,3.53-4.92,3.88-8.68,15.68-16.17,24.39-22.89,26.64l-.37.12h-.38c-2.18,0-5-1.41-11.19-11.66l-.2-.44c-2.88-7.92-4.44-10-4.95-10.57-1.12.07-3.36.62-5.57,4.89a16.2,16.2,0,0,0,1.32,3l.1.19c9.88,23.39,13.79,24.07,14.21,24.07h2.44v2.5c0,1.4-.65,3.66-8.42,14.3C270.9,115.15,267.91,120.22,266.54,123.65Zm-1.1,7.83Z"/></g></g></svg>