<svg xmlns="http://www.w3.org/2000/svg" viewBox="0 0 150 150"><defs><style>.cls-1{fill:#666;}.cls-2{fill:#999;}.cls-3{fill:gray;}</style></defs><g id="PAUSE"><path class="cls-1" d="M72,144c6.11.82,72-32.24,72-72a71.61,71.61,0,0,0-14.05-42.71c25.13,30.33,24.82,74.08-1.57,101-30.44,31.1-82,23.48-109.42-9.64C19,120.67,65.89,143.16,72,144Z"/><path class="cls-2" d="M129.94,29.28A71.87,71.87,0,0,0,72,0c-1.83,0-3.65.07-5.45.2a72,72,0,1,0,63.4,29.08Z"/><rect class="cls-3" x="37.53" y="38.58" width="25.07" height="66.97"/><rect class="cls-3" x="81.39" y="38.58" width="25.07" height="66.97"/><rect class="cls-1" x="37.53" y="38.58" width="3.63" height="66.97"/><rect class="cls-1" x="81.39" y="38.58" width="3.63" height="66.97"/><rect class="cls-1" x="40.29" y="38.58" width="22.31" height="1.84"/><rect class="cls-1" x="84.15" y="38.58" width="22.31" height="1.84"/></g></svg>