<svg xmlns="http://www.w3.org/2000/svg" viewBox="0 0 150 150"><defs><style>.cls-1{fill:#666;}.cls-2{fill:#999;}.cls-3{fill:gray;}</style></defs><g id="PLAY"><path class="cls-1" d="M72.68,144c6.11.82,72-32.24,72-72a71.67,71.67,0,0,0-14-42.71c25.12,30.33,24.81,74.08-1.58,101-30.44,31.1-82,23.48-109.42-9.64C19.64,120.67,66.58,143.16,72.68,144Z"/><path class="cls-2" d="M130.64,29.28A71.91,71.91,0,0,0,72.68,0C70.85,0,69,.07,67.23.2a72,72,0,1,0,63.41,29.08Z"/><polygon class="cls-3" points="117.08 71.99 45.46 34.01 45.46 109.98 117.08 71.99"/><polygon class="cls-1" points="49.1 108.05 45.46 109.98 45.46 34.01 49.1 35.93 49.1 108.05"/></g></svg>