<svg xmlns="http://www.w3.org/2000/svg" xmlns:xlink="http://www.w3.org/1999/xlink" viewBox="0 0 400 200"><defs><style>.cls-1{filter:url(#AI_Shadow_1);}.cls-2{fill:#666;}.cls-3{fill:#999;}.cls-4{fill:#b3b3b3;}.cls-5{fill:#00fa00;}.cls-6{fill:#d2f78b;}</style><filter id="AI_Shadow_1" name="AI_Shadow_1"><feGaussianBlur result="blur" stdDeviation="2" in="SourceAlpha"/><feOffset result="offsetBlurredAlpha" dx="4" dy="4" in="blur"/><feMerge><feMergeNode in="offsetBlurredAlpha"/><feMergeNode in="SourceGraphic"/></feMerge></filter></defs><g id="play_again" data-name="play again"><g class="cls-1"><path class="cls-2" d="M7.78,8c2.43,2.59,5.46,4.55,8,7,1.61,1.54,3.07,3.19,5.09,4.18a9.64,9.64,0,0,1,3.63,4,5.21,5.21,0,0,1,.91,2,26.56,26.56,0,0,1,0,3.09c0,1.17-.36,2.11-.42,3.25s0,2.35,0,3.51V42.8a56.05,56.05,0,0,0,.36,9.36A39.57,39.57,0,0,1,25.83,59a27.65,27.65,0,0,1,0,3.28c-.24,1.83-2.09,2.66-1.62,4.75a14.41,14.41,0,0,0,.9,1.91c.28.72.39,1.48.69,2.2a8,8,0,0,1,.4,3.42c0,1-.08,2.12,0,3.16s.39,1.71.42,2.64c.07,1.84.4,3.58.39,5.44,0,3.28.48,7-.2,10.22-.48,2.29.62,4.19.6,6.52,0,.81,0,1.64,0,2.45,0,1,.37,1.86.44,2.81.12,1.78,0,3.68,0,5.46s-.42,3.5-.42,5.31a26.13,26.13,0,0,1-.5,5.72c-.58,2.75-1,5.6-1.52,8.39a43.9,43.9,0,0,0-.38,7.77c0,1.05,0,2.09,0,3.13,0,1.42-.35,2.73-.44,4.13-.13,2.17,0,4.41,0,6.6a15.49,15.49,0,0,0,.5,4.18c.19.76.5,1.57.64,2.35.07.4-.05.95.06,1.33s.35.6.42,1.13a30.32,30.32,0,0,1,0,3.93,17,17,0,0,1-.4,4.12c-.27,1.15-.21,2.23-1,3.08a7.88,7.88,0,0,1-.8.83c-.49.38-.67.24-1.22.4s-.73.32-1.18.43-1.18-.11-1.75.06c0,.22-.09.45-.15.67-1.27.09-3.11,1.41-4,2.11s-.94,1.08-1.91,1.26a10.39,10.39,0,0,0-2.43.82c-1.25.56-2.69,1.09-4,1.65-.57.25-1.22.32-1.82.64s-1.3.87-1.93,1.25a5.06,5.06,0,0,1-.8-3.61,24.41,24.41,0,0,0,.55-7.24,28,28,0,0,0-1.65-7.29c-.88-2.67-.08-4.79.65-7.36a6.46,6.46,0,0,0,.1-3.09c-.27-1.1-.94-2-.76-3.22a46.11,46.11,0,0,0,.83-7,23.44,23.44,0,0,1,0-2.78c.1-.85.6-1.51.73-2.39.48-3,0-6.31.06-9.38.06-1.8.61-3.28.06-5.05a39.19,39.19,0,0,1-1.46-5.56,27.56,27.56,0,0,1,1-11.45,23.85,23.85,0,0,0,.82-3.09,10.66,10.66,0,0,0-.51-3.75,33.78,33.78,0,0,1-1.14-7.19c0-1.24,0-2.48,0-3.71a9.37,9.37,0,0,1,.16-3.22c.29-.76.82-1.07,1-2a23.2,23.2,0,0,0,.05-4.16c0-4.25.33-8.6-.38-12.81-.39-2.33-1.23-4.66-1.25-7a21.61,21.61,0,0,0-.18-2.9C1.05,55.69,2,53.1,3,49.72c.77-2.72.08-5.89,0-8.7s-.35-5.73-.72-8.53a57.78,57.78,0,0,1-.09-7.21c0-.79-.07-1.61,0-2.39A17.17,17.17,0,0,1,3,19.77c.67-2.77.42-5.81.39-8.64,0-1-.17-1.06.58-1.5A31.74,31.74,0,0,0,7.78,8Z"/><path class="cls-3" d="M7.38,11.32c0-1.24-.33-2.54.69-3.39a5.63,5.63,0,0,1,3.72-1.54c1.71,0,3.42,0,5.14,0a29.46,29.46,0,0,0,6.82-1.13,20.49,20.49,0,0,1,4.89-.92h4.72a4.62,4.62,0,0,1,.91,0,6.41,6.41,0,0,1,.87.33c.76.19,1.54,0,2.32.12a10.29,10.29,0,0,0,3.95.34,9,9,0,0,1,2.87-.38,25,25,0,0,0,2.47.43,25.64,25.64,0,0,1,3.92.08,31.35,31.35,0,0,0,5.65.32,10.07,10.07,0,0,1,1.91.09c.84.16,1.91.81,2.83,1.06a19.08,19.08,0,0,0,4.49.93c2.17.06,4.35,0,6.52,0,2.92,0,5.71-.43,8.65-.4,1.56,0,3-.45,4.57-.43,2.13,0,4.3.13,6.43,0,1.85-.08,3.62-.44,5.49-.43a48.52,48.52,0,0,0,6.38-.32c1.83-.23,3.75.22,5.55-.18.35-.08.64-.28,1-.34.78-.14,1.6.11,2.4,0a23.2,23.2,0,0,1,3.28-.74,15.8,15.8,0,0,0,3-.5,82.39,82.39,0,0,1,8.4-1.46c2.65-.4,6.74-1.4,8.91.72a7.12,7.12,0,0,0,3.53,1.73,11.53,11.53,0,0,0,1.74.75,31.4,31.4,0,0,0,4.75,0c3.26,0,6.41-.41,9.67-.41h3.58A17.31,17.31,0,0,1,165,6.82c1.5.5,3,.06,4.46.37.72.16,1.26.7,2,.86,4.28,1,8.61-.46,12.89.19a43.73,43.73,0,0,0,6.17.21,20,20,0,0,0,6-.82c1.56-.46,3.07-1.52,4.65-1.66,2.25-.19,4.52.24,6.76-.08a10.86,10.86,0,0,1,3.36-.24,26.71,26.71,0,0,0,2.67.35,30.32,30.32,0,0,1,4.88.34c2.9.53,5.39-1.89,8.09-2.38,2-.37,4,.33,6,.4s4.28,0,6.41,0c3.09,0,6.14-.37,9.22-.44,1.13,0,2.25.07,3.38.06a43.83,43.83,0,0,0,5.48-.79,59.45,59.45,0,0,1,8-.07,67.64,67.64,0,0,1,7.4.09c.9.09,1.8.29,2.7.44,1.63.27,3.22.16,4.84.33a60.32,60.32,0,0,0,6.7.8c2.16,0,4.33.08,6.49,0s4.63-1,6.87-1.34c4-.6,7.81-2.6,11.87-3.18a12.56,12.56,0,0,1,3,0c1.89.18,3.8.27,5.67.52,2.17.3,4.33.84,6.51,1,2.43.23,4.71.92,7.17.85,3.72-.09,7.39-.75,11.12-.84,2.36,0,4.65-.42,7-.42h2.49c5.12,0,10.23-.77,15.37-.83a10.72,10.72,0,0,1,2.15.33c.79.13,1.56.09,2.37.18a40.3,40.3,0,0,1,5.38,1.06c2.08.53,4.23.41,6.34,1a7.06,7.06,0,0,1,.07,2.59c-.13.91-.46,1-1.23,1.45-1.85,1.19-2.41,2.8-4.48,3.59-1.51.57-1.53,1.18-2.93,2a23.48,23.48,0,0,0-3.91,3c-1.07,1-5.14.64-6.62.87-1.15.18-2.36.29-3.52.48s-2.49.53-3.73.76a53.22,53.22,0,0,1-8.18.45,229.48,229.48,0,0,0-24.12,2.5c-10.12,1.45-20.26,2.49-30.45,3.35a204.66,204.66,0,0,0-25.15,3.22c-5.71,1.2-11.59,2-17.11,4C248.07,34.06,241,36.69,233,35.82c-2.12-.23-4.26-.78-6.37-1.1-2.3-.35-4.63-.52-6.93-.81-4.86-.59-9.67-1.52-14.54-2-6.59-.72-13.2-1.22-19.8-1.85-2.63-.25-5.24-.58-7.87-.84a46,46,0,0,0-10.79.63A206.17,206.17,0,0,1,143.4,31c-3.53.06-6.94-.1-10.47-.33-5.27-.33-10.61-.32-15.86-.9-5.91-.65-11.71-2.08-17.63-2.68s-12,0-18-.42c-3.59-.25-7.13-1.2-10.71-1.34s-7.3,0-11-.42c-3-.34-5.95-.16-8.9-.51a24.12,24.12,0,0,0-5.76-.22c-1.74.19-3.43.29-5.19.31a5.32,5.32,0,0,1-2.41-.73,9.09,9.09,0,0,0-3.73-.49c-1.35,0-2.54-.45-3.89-.43a23.16,23.16,0,0,1-4.78,0A15.2,15.2,0,0,1,20.6,20.8c-1.72-1.11-3.21-2.51-4.85-3.73s-3.5-1.72-5.19-2.7C9.29,13.63,8.83,13,7.38,11.32Z"/><path class="cls-3" d="M369.54,19.37c.7.13,1.27-.58,1.76-1,1-.8,2-1.55,2.94-2.38.71-.61,1.27-1.37,1.93-2.05.81-.83,1.58-1.73,2.44-2.5s1.84-1.28,2.7-2c1.31-1,2-2.44,3.12-3.65.38-.41.92-1.09,1.48-1.19s.55.2.94.31.88-.2,1.33-.27a50.58,50.58,0,0,1,.58,5.81c0,1.29,0,2.57,0,3.85a17.34,17.34,0,0,0,.12,4.14,20.13,20.13,0,0,0,1.24,3.09c.6,1.31.41,3,.73,4.41.41,1.8.39,3.66.78,5.47a42.7,42.7,0,0,1,.89,5.75,24,24,0,0,0,.08,2.68c.1.55.33,1.08.43,1.64.24,1.33.52,2.62.82,3.93a11.18,11.18,0,0,1-.22,4c-.3,1.87-.52,3.68-.75,5.55-.14,1.17-.24,2.32-.35,3.48a37.65,37.65,0,0,0-.53,4q0,3.27,0,6.52a9.3,9.3,0,0,0,.35,2.41c.21.88.18,1.8.32,2.7s.38,2,.56,2.92c.15.76.1,1.51.19,2.28a92.11,92.11,0,0,1,.21,10.11v-.18a29.71,29.71,0,0,0,0,4.22,38.43,38.43,0,0,0,.81,5.37c.42,1.29,0,2.61,0,4a30.7,30.7,0,0,1-.05,4.29c-.22,1.44-.83,3.14-.6,4.58.13.76.53,1.36.63,2.13a13.66,13.66,0,0,1,0,3.38c-.29,1.95-1.19,3.73-1.21,5.75a28.39,28.39,0,0,0,.21,5.14,22.76,22.76,0,0,1,.05,3.6,25.25,25.25,0,0,1-.05,3.37,34.24,34.24,0,0,0-.44,4.74,11.73,11.73,0,0,0,.27,2.85,11.88,11.88,0,0,1,.26,1.47c.11.83.74,1.48.72,2.27s-.26,1.47-.27,2.22c0,.51,0,1,0,1.54a3.86,3.86,0,0,0,0,1c0,.17.19.29.21.44a4.83,4.83,0,0,1-.23,1.34c-.6,3.74,0,7.5,0,11.26a46.11,46.11,0,0,1-.06,5.76c-.1.81-.13,1.52-.18,2.32s-.31,1.84-.27,2.8.4,1.53.14,2.43a3.61,3.61,0,0,1-.92,1.58c-.45.41-.82.84-1.25,1.27a10.24,10.24,0,0,0-.79.83c-.39.48-.22.77-.44,1.23a1.11,1.11,0,0,1-1.39.5,4.26,4.26,0,0,1-.82-.65c-.24-.28-.33-.62-.57-1a12.05,12.05,0,0,0-.89-1.44c-.71-.75-1.35-1.5-2-2.27-.55-.61-1-1.3-1.56-1.86s-1.14-1-1.7-1.52-1-.48-1.54-.8-1.1-.76-1.62-1.13a13.05,13.05,0,0,1-2.65-2.8,3.49,3.49,0,0,1-.63-.95,5.42,5.42,0,0,1-.24-1.33,36.79,36.79,0,0,1-.19-5.15c0-2.52,0-5.05,0-7.57,0-2.71,0-5.37.24-8.07.27-2.87.52-5.76.51-8.64,0-5.33.55-10.92-.74-16.13a32.11,32.11,0,0,1-1.08-5.42c-.18-2.57-.57-5.12-.74-7.69-.17-2.4-.14-4.8-.3-7.19a51,51,0,0,1-.09-7.62,27.38,27.38,0,0,1,1.34-6.27,18.46,18.46,0,0,0,.65-2.16,33.43,33.43,0,0,0,.74-6.64,35.75,35.75,0,0,0-1.47-9.12c-1.53-6-1.78-12.17-2.54-18.3a76.74,76.74,0,0,1-.49-7.73c0-1.5-.27-3-.25-4.48V36.46a19,19,0,0,0-.3-2.81c-.14-.69-.07-1.36-.19-2,0-.25-.22-.41-.27-.68a7.77,7.77,0,0,1,0-1.08c0-.68.07-1.41,0-2.09a19.64,19.64,0,0,0-.57-2.5,3,3,0,0,1,0-1.78A24.33,24.33,0,0,0,369.54,19.37Z"/><path class="cls-2" d="M5.87,178.65a3.24,3.24,0,0,1-.3,1.25c-.13.47-.05.92-.17,1.39a8.26,8.26,0,0,1-1,2.43c-.61,1-.44,1.15.57,1.64.69.33,1.06,1,1.69,1.38.8.46,1.73.25,2.6.45s1.4.92,2.11,1.14a17.2,17.2,0,0,0,5.31.82,7.7,7.7,0,0,1,3.58.79,8.49,8.49,0,0,0,4.31.34,13.23,13.23,0,0,1,2.48-.36h2.22c2.63,0,5.22-.41,7.85-.39,1.08,0,2.15,0,3.23,0,2.18,0,4.69-.37,6.82.07,2.72.55,5.33,1.64,8.13,1.84,3.31.25,6.71,0,10,0,3.83,0,7.66,0,11.5,0a97.14,97.14,0,0,0,10-.79,29.66,29.66,0,0,0,4.47-.78,38.87,38.87,0,0,1,5-.58,25.57,25.57,0,0,1,5.6,0,41.37,41.37,0,0,0,10.19-.17c3.51-.52,6.64-1.35,10,0,1.52.6,3.1,1.1,4.64,1.66a9.2,9.2,0,0,0,3.35.28c1.18,0,2.39.1,3.57,0a23.33,23.33,0,0,0,2.34-.54,11.79,11.79,0,0,1,3.84-.16c1.1.12,2.16.48,3.25.65a17.67,17.67,0,0,0,2.72,0c1.69,0,3.21.77,4.86.82,1.88.06,3.67.35,5.56.37a19.9,19.9,0,0,0,3.45-.27c1.62-.27,3.11-1,4.73-1.23,3.25-.44,6.78-.08,10.07,0,1.57,0,3.08-.34,4.64-.41,2.24-.1,4.49.31,6.71-.17,3.14-.67,5.76-3.17,9-3.32,2.24-.1,3.91.92,6,1.35s4,.13,6,.29c1.65.13,3.27.53,4.89.81a22.27,22.27,0,0,0,7-.25c1.9-.24,3.71.42,5.59.53a49.83,49.83,0,0,0,5.05.42c2.55-.1,5-.61,7.58-.8a8.73,8.73,0,0,1,4.72,1,7.26,7.26,0,0,0,1.57.94,15.63,15.63,0,0,0,2.74.08c4,.34,8,1.22,12,1.49,3.31.22,6.54.4,9.88.42a48.87,48.87,0,0,0,8.71-.59c1.24-.21,2.5-.39,3.75-.53a8,8,0,0,1,2.87.34c1.86.43,3.58.2,5.43.48a53,53,0,0,0,7,.28c2,0,3.91.45,5.9.42,1.31,0,2.42.26,3.7.36a13.41,13.41,0,0,0,4.46-.77,10.37,10.37,0,0,1,2.94-.72l.05.34c0,.15-.49-.4-.47-.25a9,9,0,0,0,3.1.1h10.39c1.53,0,3.07,0,4.61,0s2.9-.5,4.4-.59a50.62,50.62,0,0,0,5.07-.25,43.86,43.86,0,0,1,6.28-.24,40.2,40.2,0,0,0,6.13-1,23.89,23.89,0,0,1,3.59-.08c1.52,0,2.18-1,3.58-1.16a30,30,0,0,1,3.79,0,39.43,39.43,0,0,0,7.51-.67c3.19-.59,6.42-1.17,9.6-1.79,2.29-.44,4.84.24,7.08-.31,1.65-.39,2.49-1,2.46-2.68,0-1.29.3-2.92-.24-4.1a18.34,18.34,0,0,0-2.43-3,22.22,22.22,0,0,1-2.25-3.26c-.41-.8-1.4-2.75-2.11-3.18-.53-.31-1.41,0-2-.19-.86-.25-1.36-1.06-2.12-1.41A11.84,11.84,0,0,0,375,168c-2.36-.19-4.69-.46-7-.81-5.86-.86-11.36-1.94-17.31-1.92-6.69,0-13.41-.27-20.08.4-6.89.7-14.32,1.65-21.11-.09a54.7,54.7,0,0,0-11.19-1.91c-4.24-.17-8.5,0-12.75,0-12.61,0-25.2.47-37.82.55a83.67,83.67,0,0,1-13.69-.8c-3.74-.59-7.41-1.5-11.19-1.85-3.27-.31-6.6,0-9.88-.07-2.66,0-5.27-.29-7.93-.44-5-.28-10,0-15-.65a73.65,73.65,0,0,1-10.44-1.76,67.73,67.73,0,0,0-10.51-2.3,135.66,135.66,0,0,0-14.1-.92c-6.1-.09-12.25,1.42-18.23,2.47-3.36.59-6.74,1.5-10.13,1.87a95.06,95.06,0,0,1-10.27.08c-6,0-12-.24-18-.82-6.53-.63-14-1-20.41.85-3.35,1-7.14.53-10.6.52s-7.11-.12-10,2c-1.06.8-1.45,2-2.71,2.71-2.29,1.38-4.92,1.83-7.53,2.31-3.2.57-5.9,2.18-9,3.16-2.72.86-5.16,2.8-8.09,2.85-2,0-4,0-6,0a17.75,17.75,0,0,0-5.06.41,45,45,0,0,0-5.07,1.7,34.4,34.4,0,0,1-3.32,1.28,7.7,7.7,0,0,1-1.73.41c-.79.08-1.24.62-2,.66C6.83,178,5.86,178.5,5.87,178.65Z"/><path class="cls-4" d="M25.72,19.8c3,0,5.12,2.48,8.07,1.92,4.63-.86,9.24-.66,13.88-1.36,5.13-.77,9.64.24,14.58,1.54,3.8,1,8.42,3.38,12.39,3.49,3.06.09,6.11-1.29,8.8-2.57a55.86,55.86,0,0,1,8.79-3.7c4.29-1.23,8.87-.66,13.24-.73,9.87-.16,19.52-2.57,29.38-2.86,3.76-.11,8.69-.28,12.33.83,3,.92,5.22,3,8.06,4.07,5.59,2.13,11.27-1.19,16.88-2,3.85-.52,7.37.47,11.21.67,7.81.39,15.71.3,23.12,2.85,7.13,2.46,16.15.69,23.31-.7,3.18-.62,7.4-2.5,10.64-2.23,4.12.34,1.49,10.55,4.29,13.8.79-3,2.08-6.29,5.34-7.3.37-3.31-.28-7.12,3.14-8.63a13.14,13.14,0,0,1,4.19-.63c6.95-.59,13.75-.73,20.73-.71,5.49,0,11,.07,16.47,0,4.63-.05,9.06,1.3,13.69.82,5.63-.58,10.91-2.63,16.4-3.46,6.49-1,13.33.93,19.85.88,4.75,0,9.5,0,14.25,0h11.48c1.38,0,5-.5,6.73.09.3,2-.39,4.26,0,6.26s2,3.39,2.74,5.34c1.29,3.52.83,6.73.89,10.55a22,22,0,0,1-1.61,9.5,19,19,0,0,0-1.24,6.51c.13,5.79,4.43,9.86,5.58,15.31,1.53,7.22-.34,14.69,1,21.85,1.51,8.18.69,17,.69,25.39,0,5.89-1.4,10.16-3.6,15.68a23.05,23.05,0,0,0-.92,14.3c1.51,5.61,3.43,10.84,2.27,16.77a15.1,15.1,0,0,1-5.57,9.67c-2.07,1.69-3,1.28-5.49,1.65-4.79.72-9.28,3.4-14.21,3.73a23.56,23.56,0,0,1-6.56-.13,25.42,25.42,0,0,1-3.35-1.73c-3.27-1.56-7.24-.91-10.84-.91-2.23,0-4.48-.08-6.71,0-2.55.1-3.2.67-5.25,2.64-1.72,1.66-2.27,1.9-4.51,1.9a8.94,8.94,0,0,0-3.9.66,38.54,38.54,0,0,1-18.89,1.86,54.9,54.9,0,0,0-13.8-.5c-6.91.62-13.73.72-20.67.7-7.52,0-15,.4-22.42-.7a64.69,64.69,0,0,0-9.65-.2c-4.83,0-10,0-14.21-1.8-2.12-.89-5.21-1.3-7.43-1.89a33.19,33.19,0,0,0-7.26-.87c-5.56-.27-10.78-.9-16.39-.89-3.31,0-7.14-.45-10.44,0-5.26.76-10.44,2.57-15.74,3.41-6,1-13.21,2.57-19.19.43-5.09-1.81-.82-5.61-3-8.91-1.9,1.64-2.82,4.13-4.56,5.87-.76.76-1.9,2.37-2.73,2.76s-2.41-.1-3.47.12c-1.27.25-2.16.83-3.54.84a12.17,12.17,0,0,1-7.06-2.29c-2-1.27-5.8-4.49-8-4-2.86.59-3.09,4.39-5.32,5.37s-4.41-.46-6.21-.9c-2.5-.62-5.49.1-8-.42a39,39,0,0,0-8-.46c-6.28,0-11.49.17-17.36,2.77-5.1,2.26-13,.86-18.43.86-2.76,0-5.76.37-8.49,0-2.23-.27-3.89-1-6.27-.94-3.34,0-9.58,1-11.56-2.7s.46-9.61,2.27-12.74.92-8.93.87-12.72c0-2.43.91-4.34.88-6.81,0-2.11.06-4.24,0-6.35-.05-2.51-1.42-4.41-1.83-6.81-.31-1.83.05-4,.05-5.91,0-2.4-.42-5.26.2-7.56s1.59-3.57,1.57-6.31a16.22,16.22,0,0,0-1.35-7,16.31,16.31,0,0,1-1.3-6.61A26.71,26.71,0,0,1,21,89.63c.65-2.36.41-4.87.41-7.31,0-2.84.17-5.75,0-8.59-.13-2.28-1.47-4.14-1.84-6.35-.73-4.32,1.82-7.56,1.82-11.81,0-2.49-.8-4.41-.9-6.81-.08-2,.35-4.14-.4-5.9-.87-2-2-3.92-1.41-6.4.17-.75.8-1,1-1.73a16.55,16.55,0,0,0-.05-3.22c0-2.27,0-4.54,0-6.81a13.33,13.33,0,0,1,.08-3.1c.19-.76.91-1.25,1-2.18Z"/></g><g class="cls-1"><path class="cls-5" d="M119.67,93.52c-2,0-3.35-1.42-5.75-4.43l-.57-.72-.15-.9c-.78-4.8-1.49-8.72-2.11-11.65a124.09,124.09,0,0,0-7.41-22.54l-.38-.91.14-1a14,14,0,0,1,3.86-8.2c.88-1.16,2.46-2.17,5.42-3.53l.45-.2.5-.08a168,168,0,0,1,22.65-2.16c5.34,0,8.46.72,10.26,2.39a7.11,7.11,0,0,1,3,4.2l.17.67,0,1.21a6.25,6.25,0,0,1,1.06,2.47l.81,3.83c.8,3.72-1.76,8.29-8.55,15.29l-.09.08-.08.08c-4.53,4.07-7.89,6.23-10.59,6.79a9.74,9.74,0,0,1-2,.22,6.18,6.18,0,0,1-5.09-2.38l2.79,13.26,0,.16c.27,2.32-1.44,3.85-3.12,4.89a4.41,4.41,0,0,1-3.27,2.76l-1.61.36Zm2.64-36.85c.19,1.49.46,3.13.79,4.9l.09,0a30.4,30.4,0,0,0,2.26-2.67l.21-.28.27-.23c1.08-.92,2-1.68,2.68-2.31a47.21,47.21,0,0,0-6.16.58Z"/><path class="cls-6" d="M136.32,40.74q6.57,0,8,1.58a4,4,0,0,1,1.86,2.31l.08.35.06,2a3.55,3.55,0,0,1,1.08,1.83l.83,3.91q.75,3.48-7.64,12.12-5.94,5.33-9,6a6,6,0,0,1-1.26.15,2.89,2.89,0,0,1-3-2.66q-2.5-2.22-2.77-3.48c.54-.11,1.74-1.38,3.63-3.79q6.61-5.65,6.5-6.17l.2-.71c-.82-1.07-2.77-1.61-5.87-1.61a51.26,51.26,0,0,0-7.22.64q-3.63.78-3,3.37.45,3.7,1.45,8.5l4.39,20.85q.09.74-2.91,2.31c.17.87-.06,1.38-.71,1.51l-1.28.29h0c-.36,0-1.36-1-3-3.11-.79-4.89-1.51-8.83-2.13-11.81a127.58,127.58,0,0,0-7.62-23.19A10.44,10.44,0,0,1,110,45.49q.51-.95,4.19-2.62a165.66,165.66,0,0,1,22.15-2.13m0-7h0a170.48,170.48,0,0,0-23.16,2.2l-1,.14-.91.42c-2.93,1.34-5.13,2.6-6.58,4.38a17.47,17.47,0,0,0-4.71,10l-.28,1.93.77,1.8a120.83,120.83,0,0,1,7.2,21.89c.61,2.88,1.31,6.75,2.09,11.51l.29,1.8,1.14,1.43c2.25,2.83,4.58,5.75,8.49,5.75h.81l.75-.17,1.25-.28a7.8,7.8,0,0,0,5.21-3.78c2.13-1.53,4.31-4,3.88-7.68l0-.33-.07-.31L130.09,78h.28a13.21,13.21,0,0,0,2.73-.31c3.32-.69,7.09-3,12.17-7.6l.17-.16.17-.17c7.8-8,10.55-13.39,9.47-18.45l-.82-3.85a9.63,9.63,0,0,0-1-2.76l0-.65-.19-.75L153,43a10.57,10.57,0,0,0-4.2-6.11c-3.16-2.78-8-3.17-12.47-3.17Z"/><path class="cls-5" d="M153.36,84.09a19.71,19.71,0,0,0-1.28-6.22l-.3-.85.29-1.78.25-.49c2.46-4.78,4.09-11.59,4.85-20.24v-.13l0-.14a21.9,21.9,0,0,0,.13-3.16c0-2.87-.16-7.29-.46-13.14l0-.78.29-.72c2.11-5.2,5.88-6,8-6A12.19,12.19,0,0,1,170.59,32a11.26,11.26,0,0,1,1.63.15l1.08.17.79.74c1.64,1.54,2.47,3.91,2.47,7a25.85,25.85,0,0,1-.4,4.3C175.6,49,174.88,54,174,59.21l-1.12,6.64q3.27-.81,8.24-2.12l.73-.19.74.12a7.74,7.74,0,0,1,5.86,4.5l.47,1-.26,1.62,1.56.91-.93,5.66a4.05,4.05,0,0,1-4.06,3.5,3.93,3.93,0,0,1-1.27-.21l-.57-.19-.22,1.4-2.06.66c-6.17,2-7.85,2.29-8.75,2.33l-18.94,3.35Z"/><path class="cls-6" d="M165.08,34A10.15,10.15,0,0,1,170,35.62c0-.11.2-.17.54-.17a8.82,8.82,0,0,1,1.14.11c.92.86,1.37,2.35,1.37,4.48a22.25,22.25,0,0,1-.37,3.8q-.83,6.93-2.14,14.8l-2,11.84q3-.63,13.46-3.37a4.28,4.28,0,0,1,3.28,2.57l-.06.34-1.05,2.2,2.19,1.28-.54,3.28a.56.56,0,0,1-.6.57l-.17,0-1.91-.65c-1.86.34-2.9,1.18-3.11,2.51-4.49,1.44-7.12,2.17-7.9,2.17H172L156.86,84a23.17,23.17,0,0,0-1.48-7.33l.06-.35q4-7.81,5.22-21.53a27.65,27.65,0,0,0,.17-3.74q0-4.42-.46-13.32,1.55-3.8,4.71-3.79m0-7c-5,0-9.09,3-11.2,8.16l-.58,1.44.08,1.55c.3,5.79.45,10.15.45,13a25.77,25.77,0,0,1-.08,2.62l-.05.27,0,.24c-.71,8.19-2.22,14.57-4.47,18.94l-.5,1-.18,1.08-.06.34-.29,1.79.61,1.71a16.23,16.23,0,0,1,1.07,5.1l.14,8.2,8.08-1.43,14.66-2.59c1.28-.08,3.26-.5,9.46-2.49l4.1-1.32,0-.25a7.58,7.58,0,0,0,6.41-6.37l.54-3.26.79-4.75L192.51,69l.06-.33-1-2a11.23,11.23,0,0,0-8.44-6.44L181.69,60l-1.45.38-3,.79.23-1.33c.88-5.28,1.6-10.31,2.16-15a28.43,28.43,0,0,0,.44-4.8c0-4.13-1.2-7.36-3.58-9.58L174.9,29l-2.15-.33c-.47-.07-.89-.12-1.28-.15A15.2,15.2,0,0,0,165.08,27Z"/><path class="cls-5" d="M193.8,93.81c-2.15,0-3.64-1.58-5.64-4.5l-.45-.66-.26-1.78c-.18-1.16-.25-1.61,6.47-19.61a224.09,224.09,0,0,1,10.62-31.43l.75-1.78,1.38-.23a16.09,16.09,0,0,0,1.39-1.25l1.18-1.14,1.74.18a6.3,6.3,0,0,1,3.22-.86c5.18,0,7.72,5.8,8.65,8.13,6.61,10.55,11.86,17.66,15.62,21.13l.93.86.23,1.81a5.28,5.28,0,0,1-.08,1.9,24.1,24.1,0,0,1,1.8,5.32l.58,2.39-4.2,2.79-1.49-.61a5.08,5.08,0,0,1-1,3,5.4,5.4,0,0,1-3.74,2.1,12.66,12.66,0,0,1-2,.16c-3.56,0-5.4-1.88-6.05-3.89a7.47,7.47,0,0,0-1.14-.07,22.6,22.6,0,0,0-3.08.26l-5,.74c-1.08.16-2.49.46-4.21.9l-.17,0-.19,0a11.07,11.07,0,0,1-1.57.13,6.84,6.84,0,0,1-3.18-.73,113.48,113.48,0,0,0-3,11.47l-.63,2.91-3-.17-.22,0H198s-.17.1-.39.51l-.85,1.57-2.37.31-.23,0Zm19.1-37.17-.16-.25a1.89,1.89,0,0,0-.09.21Z"/><path class="cls-6" d="M214.2,34.25q3,0,5.52,6.22Q230,57,236.09,62.58l.09.65a10.75,10.75,0,0,1-.35,2.08q1,1,2.11,5.42l-.59.4a4.35,4.35,0,0,0-1.64-.37,2.86,2.86,0,0,0-.42,0l-.34,0c-1.6,1.31-2.35,2.32-2.25,3A1.75,1.75,0,0,1,231,76.1a10.24,10.24,0,0,1-1.48.12c-1.68,0-2.61-.6-2.8-1.81-.2-1.43-1.67-2.15-4.39-2.15a25.31,25.31,0,0,0-3.59.3l-5,.74a45.25,45.25,0,0,0-4.56,1,6.89,6.89,0,0,1-1.06.09c-1.52,0-2.37-.63-2.56-1.89s-.48-1.86-.9-1.86h-.07l-.63.09q-.54.08-2.2,4.89a114.24,114.24,0,0,0-3.28,12.25h-.25a3.94,3.94,0,0,0-.77.07,4,4,0,0,0-3,2.31l-.65.08h0c-.48,0-1.39-1-2.75-3l-.14-1q-.12-.75,6.36-18.06a218.34,218.34,0,0,1,10.5-31.12,8.32,8.32,0,0,0,2.73-2.11l1.37.14a4.09,4.09,0,0,1,1.89-.94,3.25,3.25,0,0,1,.44,0M208.47,61h.12c1.9-.51,3.09-.81,3.57-.88a35.92,35.92,0,0,0,5.1.48,10.64,10.64,0,0,0,1.37-.08l.23-.72q-4.91-8.7-6.73-9.07l-.66.09q-3.84,8-3.62,9.58c.1.41.31.61.62.61m5.73-33.71a10.24,10.24,0,0,0-1.46.1h-.07a10.22,10.22,0,0,0-2.32.67L208,27.78l-2.35,2.28-.49.47-2.32.39-1.5,3.55a229.44,229.44,0,0,0-10.73,31.74c-7,18.68-6.93,19-6.59,21.22l.14.92.23,1.61.92,1.33c1.64,2.4,4.12,6,8.52,6a8.24,8.24,0,0,0,1-.07l.62-.08,3.54-.47,1-1.75,4.18.23,1.27-5.83c.66-3,1.33-5.7,2-8,.26,0,.54,0,.81,0a15.4,15.4,0,0,0,2.09-.16l.36-.06.36-.09a36.55,36.55,0,0,1,3.8-.82l5-.75c.62-.09,1.13-.14,1.55-.18a10,10,0,0,0,8.2,3.92A17.27,17.27,0,0,0,232,83a8.83,8.83,0,0,0,6-3.48,7.48,7.48,0,0,0,.54-.84L241.23,77l.6-.4,4.08-2.72-1.16-4.76a32.12,32.12,0,0,0-1.6-5.08,8,8,0,0,0-.05-1.83l-.07-.5-.33-2.51-1.86-1.72c-2.41-2.23-6.94-7.54-14.87-20.18-2.79-6.64-6.75-10-11.77-10Z"/><path class="cls-5" d="M251.87,88.24l-.26,0c-3.39-.52-5.59-2.65-5.92-5.66-.22-.38-.71-1.21-1.81-2.86l-.94-1.42.55-1.62c.82-2.44,2.81-5.89,6.1-10.55,1.36-1.81,2.27-3.11,2.89-4-2.21-2.24-4.76-6.53-8.17-14.4A9.07,9.07,0,0,1,243,43.49v-.8l.35-.73c2.4-4.93,5.75-6,8.14-6,3.17,0,5,3.14,7.16,8.94A29.52,29.52,0,0,0,261,48.43c1.77-1.24,4.85-4.39,9.33-12.31l.11-.18a11.94,11.94,0,0,1,3.45-3.11,4.86,4.86,0,0,1,3.68-2.13l.67-.09.76.19a6.62,6.62,0,0,1,2.36-.45h.38l.37.08c1.42.32,5.75,1.26,5.75,5.08v.83l-.4,1.42a20.48,20.48,0,0,1,1.05,5.84l.12,1.77-1.37,1.15c-6.87,5.75-11.73,11.22-14.45,16.26l-.13.24-.16.21c-6,8-7.28,12.47-7.28,14.86v.66l-.24.61c-.66,1.71-1.89,4.89-4.94,4.89h-1.47v1l-1.43,1a8.69,8.69,0,0,1-5.06,2Z"/><path class="cls-6" d="M281.4,33.85c2,.44,3,1,3,1.66v.34l-.66,2.31q1,1.11,1.32,5.68-10.87,9.09-15.29,17.28-8,10.56-8,17c-.68,1.77-1.25,2.66-1.68,2.66h-.32a3.77,3.77,0,0,0-2-1q-2.66,2.7-2.66,3.68a5.53,5.53,0,0,1-3,1.31q-3-.45-3-3a19.51,19.51,0,0,0-2.34-4q1.06-3.14,5.65-9.64,4.65-6.22,4.65-7.33-3.3,0-9.64-14.63a6.76,6.76,0,0,1-1-2.66c1.29-2.66,3-4,5-4q1.41,0,4,7,3.68,6,5.33,6,5.34-1.74,12.64-14.63a12.12,12.12,0,0,1,3.33-2.69q0-.82,1.32-1l1.34.34a3.9,3.9,0,0,1,2-.66m.76-7h-.76a9.75,9.75,0,0,0-2.45.32l-.46-.12-1.33.17a9,9,0,0,0-5.7,3.06A14.06,14.06,0,0,0,267.54,34l-.11.18-.1.18A59.55,59.55,0,0,1,261.62,43c-1.78-4.73-4.34-10.51-10.17-10.51-2.77,0-7.93,1-11.28,7.94l-.71,1.44v1.61a12,12,0,0,0,1.69,5.7c2.39,5.49,4.59,9.91,6.93,13.06l-1.23,1.67-.06.07-.06.08c-3.53,5-5.62,8.65-6.56,11.45l-1.09,3.24L241,81.61c.68,1,1.11,1.7,1.36,2.12.78,4.18,4.05,7.21,8.76,7.93l.53.08h.53a12,12,0,0,0,7.12-2.66l1.93-1.41c4.63-.63,6.42-5.24,7.12-7l.47-1.22V78.09c0-1.22.64-4.91,6.57-12.74l.32-.43.26-.47c2.51-4.65,7.09-9.78,13.62-15.25l2.73-2.29L292,43.36a27.73,27.73,0,0,0-.88-5.69l.24-.85V35.51c0-2.48-1.1-6.88-8.5-8.5l-.74-.16Z"/><path class="cls-5" d="M80,163.91c-2.14,0-3.63-1.58-5.63-4.5l-.46-.66L73.66,157c-.18-1.17-.25-1.62,6.48-19.62a224.09,224.09,0,0,1,10.62-31.43l.75-1.78,1.38-.23a16.09,16.09,0,0,0,1.39-1.25l1.18-1.14,1.73.18a6.3,6.3,0,0,1,3.23-.86c5.18,0,7.71,5.8,8.65,8.13,6.61,10.55,11.86,17.66,15.61,21.13l.93.86.24,1.81a5.53,5.53,0,0,1-.08,1.9,24.11,24.11,0,0,1,1.79,5.33l.58,2.38L124,145.18l-1.49-.61a5.08,5.08,0,0,1-1,3,5.42,5.42,0,0,1-3.74,2.1,12.75,12.75,0,0,1-2,.16c-3.56,0-5.4-1.88-6-3.89a7.47,7.47,0,0,0-1.14-.07,22.48,22.48,0,0,0-3.08.26l-5,.74a42.9,42.9,0,0,0-4.21.9l-.18.05-.18,0a9.77,9.77,0,0,1-1.57.13,6.81,6.81,0,0,1-3.18-.73,113.48,113.48,0,0,0-3,11.47l-.64,2.91-3-.17-.21,0h-.1s-.17.1-.39.51L83,163.56l-2.37.31-.23,0Zm19.11-37.17-.17-.25-.09.21Z"/><path class="cls-6" d="M100.42,104.35q3,0,5.51,6.22,10.33,16.52,16.38,22.11l.08.65a9.55,9.55,0,0,1-.34,2.09c.69.64,1.39,2.45,2.11,5.41l-.6.4a4.3,4.3,0,0,0-1.63-.37,2.77,2.77,0,0,0-.42,0l-.34,0c-1.6,1.31-2.35,2.32-2.26,3a1.74,1.74,0,0,1-1.68,2.26,10.35,10.35,0,0,1-1.48.12c-1.69,0-2.62-.6-2.8-1.81q-.32-2.14-4.39-2.15a25.31,25.31,0,0,0-3.59.3l-5,.74a44.68,44.68,0,0,0-4.56,1,7,7,0,0,1-1.06.09c-1.52,0-2.38-.63-2.56-1.88s-.48-1.86-.9-1.87h-.07l-.63.09c-.36.05-1.1,1.68-2.2,4.89A114.24,114.24,0,0,0,84.74,158h-.26a4.08,4.08,0,0,0-.77.07,4,4,0,0,0-3,2.31l-.66.08h0c-.47,0-1.38-1-2.74-3l-.14-1q-.12-.75,6.36-18.06A220,220,0,0,1,94,107.29a8.31,8.31,0,0,0,2.74-2.11l1.37.14a4.06,4.06,0,0,1,1.88-.94,3.4,3.4,0,0,1,.45,0m-5.73,26.71h.12c1.9-.51,3.09-.81,3.57-.88a35.93,35.93,0,0,0,5.09.48,10.7,10.7,0,0,0,1.38-.08l.23-.72q-4.9-8.7-6.73-9.07l-.66.09q-3.85,8-3.62,9.58c.1.41.31.61.62.61m5.73-33.71a8.89,8.89,0,0,0-1.46.11h-.07a9.58,9.58,0,0,0-2.32.66l-2.38-.25-2.35,2.28-.49.47L89,101l-1.5,3.55A226.81,226.81,0,0,0,76.8,136.31c-7,18.68-6.93,19-6.59,21.22l.13.92.24,1.61.91,1.33c1.64,2.4,4.12,6,8.52,6a8.26,8.26,0,0,0,1-.07l.62-.08,3.54-.47,1-1.75,4.19.23,1.27-5.83c.66-3,1.32-5.7,2-8,.27,0,.54,0,.82,0a15.26,15.26,0,0,0,2.08-.16l.37-.06.35-.09a37.1,37.1,0,0,1,3.81-.82l5-.75c.62-.09,1.13-.14,1.55-.18a10,10,0,0,0,8.2,3.92,17.38,17.38,0,0,0,2.51-.2,8.85,8.85,0,0,0,6-3.48,7.48,7.48,0,0,0,.54-.84l2.62-1.74.6-.4,4.07-2.72L131,139.18a32.78,32.78,0,0,0-1.59-5.07,7.45,7.45,0,0,0-.06-1.83l-.06-.51-.33-2.51-1.86-1.72c-2.41-2.23-6.94-7.54-14.87-20.18-2.8-6.64-6.75-10-11.77-10Z"/><path class="cls-5" d="M168.71,162.13c-6.83,0-7.46-4.45-7.5-5.69a8.18,8.18,0,0,0-1.49-2.24l-.36-.42-.21-.52c-1-2.49-1.68-4.26-2.15-5.54a20.82,20.82,0,0,1-4.9.64h-2.31c-7.31,0-12.87-2.76-16.53-8.19l-.22-.32-.14-.36a22.21,22.21,0,0,1-1.92-7.61c0-7,4.92-13.57,14.63-19.6l.27-.17.3-.12a40,40,0,0,1,14.6-2.55h1.31c5.18,0,8.77,1.57,10.66,4.67l.51.84v1a4.64,4.64,0,0,1-.22,1.4l.22,1.3V121l-1.91,1.42c2.6,1.28,3.91,3,3.91,5.15v.2l-.36,3.11-.26,4.14c.2,3.22,1,5.41,2.23,6.35a18,18,0,0,1,5.57,6.33l.7,1.44-1.71,4a4,4,0,0,1-3.17,3.13,17.32,17.32,0,0,1-3.77,1.18l-.36.26A5.15,5.15,0,0,1,168.71,162.13Zm-22.17-31.86c.92,1.18,2.6,2.35,6.11,2.44,3.28-1,3.28-2.1,3.28-2.49v-1.31l.87-1a18.5,18.5,0,0,1,3.26-3l-2.9-.47C152,124.49,148.59,126.35,146.54,130.27Z"/><path class="cls-6" d="M162.09,112.94c3.9,0,6.45,1,7.67,3a2.41,2.41,0,0,1-.34,1l.34,2v.31l-2.68,2c0,.32-.33.66-1,1h-.66l-8-1.31q-10.33,0-14.29,8.3l-.34,1.65q2.73,5.34,10.29,5.33,6.33-1.65,6.33-6,2.46-2.79,4.34-3.3c.11-.9.45-1.35,1-1.35l1.31.35a6,6,0,0,1,3-.69c1.78.73,2.68,1.5,2.68,2.34l-.35,3c0,.89-.15,2.37-.28,4.45q.38,6.71,3.64,9.15a14.65,14.65,0,0,1,4.52,5.05L178,152.13a.61.61,0,0,1-.68.69A12.55,12.55,0,0,1,173.7,154h-.32c-1.78,1.06-2.68,1.95-2.68,2.68a1.76,1.76,0,0,1-2,2q-4,0-4-2.33,0-1.58-2.31-4.34c-2-4.94-3-7.65-3-8.1l-.65-.32a21.09,21.09,0,0,1-6.68,1.32h-2.31q-9.15,0-13.63-6.65a19.7,19.7,0,0,1-1.68-6.33q0-8.56,13-16.63a36.36,36.36,0,0,1,13.33-2.31h1.31m0-7h-1.31a43.54,43.54,0,0,0-15.88,2.79l-.6.24-.54.34C133,116,127.48,123.62,127.48,131.88c0,2.34.67,5.08,2.16,8.89l.29.72.42.63c3,4.44,8.8,9.74,19.44,9.74h2.31a22.23,22.23,0,0,0,2.66-.17l1.14,2.87.42,1,.71.86c.37.45.61.77.75,1,.51,4.25,3.95,8.2,10.93,8.2a8.67,8.67,0,0,0,8.25-5.22c.7-.21,1.48-.49,2.37-.84a7.57,7.57,0,0,0,5.43-5.36l1-2.22,1.26-2.94-1.39-2.88A21.46,21.46,0,0,0,179,138.6c-.08-.11-.66-1-.86-3.58l.1-1.46.15-2.37.32-2.82,0-.4v-.4a8.24,8.24,0,0,0-2-5.38v-3.86l-.1-.58,0-.29a7.93,7.93,0,0,0,.15-1.53v-2l-1-1.68c-1.77-2.9-5.57-6.35-13.65-6.35ZM152,129.17l.41-.24v.16l-.25.09Z"/><path class="cls-5" d="M192.26,163.91c-2.15,0-3.63-1.58-5.63-4.5l-.46-.66-.26-1.77c-.18-1.17-.25-1.62,6.48-19.62A224.09,224.09,0,0,1,203,105.93l.74-1.78,1.38-.23a15.63,15.63,0,0,0,1.4-1.25l1.17-1.14,1.74.18a6.3,6.3,0,0,1,3.23-.86c5.18,0,7.71,5.8,8.65,8.13,6.61,10.55,11.86,17.66,15.61,21.13l.93.86.24,1.81a5.53,5.53,0,0,1-.08,1.9,24.11,24.11,0,0,1,1.79,5.33l.58,2.38-4.19,2.79-1.49-.61a5.15,5.15,0,0,1-1,3,5.42,5.42,0,0,1-3.75,2.1,12.53,12.53,0,0,1-2,.16c-3.56,0-5.41-1.88-6.05-3.89a7.47,7.47,0,0,0-1.14-.07,22.74,22.74,0,0,0-3.09.26l-4.95.74a42.3,42.3,0,0,0-4.21.9l-.18.05-.18,0a9.77,9.77,0,0,1-1.57.13,6.78,6.78,0,0,1-3.18-.73,110.88,110.88,0,0,0-3,11.47l-.64,2.91-3-.17-.21,0h-.11a1.4,1.4,0,0,0-.38.51l-.86,1.58-2.36.31-.23,0Zm19.11-37.17-.17-.25-.09.21Z"/><path class="cls-6" d="M212.67,104.35c2,0,3.86,2.07,5.51,6.22q10.33,16.52,16.38,22.11l.08.65a9.55,9.55,0,0,1-.34,2.09c.68.64,1.39,2.45,2.11,5.41l-.6.4a4.31,4.31,0,0,0-1.64-.37,2.73,2.73,0,0,0-.41,0l-.35,0c-1.59,1.31-2.34,2.32-2.25,3a1.74,1.74,0,0,1-1.68,2.26,10.35,10.35,0,0,1-1.48.12c-1.69,0-2.62-.6-2.8-1.81q-.31-2.14-4.39-2.15a25.44,25.44,0,0,0-3.6.3l-5,.74a44.68,44.68,0,0,0-4.56,1,7,7,0,0,1-1.06.09c-1.52,0-2.38-.63-2.57-1.88s-.47-1.86-.89-1.87h-.08l-.62.09q-.56.08-2.2,4.89A111.92,111.92,0,0,0,197,158h-.26a4.08,4.08,0,0,0-.77.07,4,4,0,0,0-3,2.31l-.66.08h-.05c-.47,0-1.39-1-2.74-3l-.15-1q-.1-.75,6.36-18.06a221.31,221.31,0,0,1,10.5-31.12,8.31,8.31,0,0,0,2.74-2.11l1.37.14a4.06,4.06,0,0,1,1.88-.94,3.4,3.4,0,0,1,.45,0m-5.73,26.71h.12c1.9-.51,3.09-.81,3.56-.88a35.92,35.92,0,0,0,5.1.48,10.93,10.93,0,0,0,1.38-.08l.23-.72q-4.91-8.7-6.73-9.07l-.66.09q-3.85,8-3.62,9.58c.1.41.3.61.62.61m5.73-33.71a8.89,8.89,0,0,0-1.46.11h-.07a9.58,9.58,0,0,0-2.32.66l-2.38-.25-2.35,2.28c-.19.19-.36.34-.5.47l-2.31.39-1.5,3.55a226.81,226.81,0,0,0-10.73,31.74c-7,18.68-6.93,19-6.59,21.22l.13.92.24,1.61.91,1.33c1.64,2.4,4.12,6,8.52,6a8.4,8.4,0,0,0,1-.07l.62-.08,3.54-.47,1-1.75,4.19.23,1.27-5.83c.66-3,1.32-5.7,2-8,.27,0,.54,0,.82,0a15.26,15.26,0,0,0,2.08-.16l.37-.06.35-.09a36.53,36.53,0,0,1,3.81-.82l5-.75c.62-.09,1.13-.14,1.54-.18a10,10,0,0,0,8.21,3.92,17.49,17.49,0,0,0,2.51-.2,8.88,8.88,0,0,0,6-3.48,9.23,9.23,0,0,0,.54-.84l2.61-1.74.6-.4,4.08-2.72-1.16-4.76a32.78,32.78,0,0,0-1.59-5.07,7.45,7.45,0,0,0-.06-1.83l-.06-.51-.33-2.51-1.86-1.72c-2.42-2.23-6.95-7.54-14.88-20.18-2.79-6.64-6.75-10-11.76-10Z"/><path class="cls-5" d="M249.31,159.25c-1.33-.57-5.34-2.29-4.76-5.88a6.8,6.8,0,0,0-.92-2.43l-.55-1L245.7,134c.16-1.05.29-2.48.38-4.25v-.21l0-.2c.58-3.47,3.3-6.29,8.06-8.38l.77-.34,3.12.18-.69-.18a61.81,61.81,0,0,0-6.37-1.35l-.62-.07-.56-.3a7.16,7.16,0,0,1-3.76-9.19,6.53,6.53,0,0,1,.82-4.9c2.5-4.79,8-7.68,16.42-8.52l1.06-.11.94.51a15.87,15.87,0,0,0,4.79,1.63l1.11.19.78.8c3.12,3.15,3,5.93,2.39,7.69l-.07,2.75-1.67,1.9-3.25,8.59-5.2.52-2.15-1.61c-.45.21-1.1.55-2,1.09l-1,.61.15,0c1.46.23,4,1.34,4.23,6.06a39.66,39.66,0,0,1-.67,8.22c-.13,9.1-.4,14.77-.81,17.33l-.18,1c-.2,1.17-1,2.73-3.5,3.55l-1.87.6-.74-.63a7,7,0,0,0-.62.84l-.94,1.43-3.94.33Z"/><path class="cls-6" d="M263.67,99.73a19,19,0,0,0,5.85,2c1.63,1.65,2.1,3.15,1.39,4.48l-.05,2.14-1.26,1.42-2.71,7.16-1.68.17-2.31-1.74a.82.82,0,0,0-.34-.07c-.73,0-2.17.64-4.31,1.9a62.21,62.21,0,0,0-6.79-1.43q-3.77-2-1.54-6.16c-.7-.74-.69-1.8.06-3.16q2.93-5.62,13.69-6.71m-8.07,24.39,3,.17q2.28.38.63,10.53-.21,13.49-.77,17.08l-.17,1c-.06.33-.44.6-1.14.83a3.9,3.9,0,0,0-1.86-1,10.2,10.2,0,0,0-3.22,3.19l-1.37.12c-1.9-.82-2.8-1.53-2.68-2.14q.26-1.68-1.29-4.59l2.43-14.78a46.63,46.63,0,0,0,.43-4.65c.38-2.24,2.38-4.16,6-5.76m9.49-31.57-2.12.22c-9.61,1-16.06,4.46-19.17,10.38a10.17,10.17,0,0,0-1.32,6.37A10.46,10.46,0,0,0,247,121.26a12.47,12.47,0,0,0-4.33,7.45l-.07.41,0,.41c-.11,2.05-.25,3.25-.35,3.9l-2.42,14.74-.38,2.33,1.1,2.08a7.79,7.79,0,0,1,.47,1,8.07,8.07,0,0,0,3.22,6.76,15.62,15.62,0,0,0,3.69,2.11l1.61.69,1.74-.15,1.37-.11,3.41-.28,1-1.53,2.25-.73a8.09,8.09,0,0,0,5.87-6.27l.17-1V153c.28-1.73.66-5.43.85-17.57a42.53,42.53,0,0,0,.67-8.74,14.7,14.7,0,0,0-.4-2.68l1.12-.11,4.31-.44,1.53-4,2.26-6,.41-.47,1.68-1.9.06-2.54,0-1c1.53-5.22-2.12-9.49-3.39-10.77l-1.57-1.6-2.22-.38A12,12,0,0,1,267,93.56l-1.89-1Z"/><path class="cls-5" d="M275.61,160.88c-2.14,0-3.34-1.67-4.84-3.77l-.86-1.2.25-1.44c1.73-9.9,2.9-17.78,3.48-23.43l0-.2,1-6.21c-.07-.3-.21-.84-.47-1.76l-.25-.88.21-.89c.78-3.23,3.39-7.29,11.4-8.32l1.81-.24,1.23,1.35c1.95,2.13,4.89,5.67,9,10.73.27-2,.47-4.1.58-6.41a7.58,7.58,0,0,1-.31-2.28v-2.84l.38-.75c1.87-3.64,3.66-6.26,6-7l2.62-1.87H308a9.6,9.6,0,0,0,2.63-.53l1.2-.37,1.16.48a8.89,8.89,0,0,1,4.78,4l.65,1.27-.43,1.36c-.14.46-.24.81-.32,1.08a7.44,7.44,0,0,1,.82,3.22,4.62,4.62,0,0,1-.22,1.39l.42,2.47-.87,1.2c-.34.45-1.25,2-2.68,6.5-.2,7.59-.3,13.66-.3,18v5c0,1.15-.49,2.8-2.83,4.07l-2.06,1.12-1.13-.92a3.69,3.69,0,0,0-.52.92l-.42,1.16L304.28,157h-1c-5.33,0-7.62-2.79-8.06-5.72q-5-8.16-8.47-12.94c-.6,2.31-1.42,5.52-2.55,10a13.55,13.55,0,0,1,.25,2.63v.89L282.22,156c-.51,1.36-2,2.37-4.6,4.23l-.91.63Z"/><path class="cls-6" d="M311.61,106.26a5.56,5.56,0,0,1,3,2.34,12.9,12.9,0,0,0-.66,2.66,5.72,5.72,0,0,1,1,2.68,2.41,2.41,0,0,1-.34,1l.34,2q-1.49,2-3.33,8-.32,11.83-.32,18.62v5c0,.3-.33.63-1,1a3.72,3.72,0,0,0-2.34-1,10.63,10.63,0,0,0-3,4l-1.66,1q-4.64,0-4.64-3.34-8.13-13.45-12.67-18.31a2.44,2.44,0,0,0-1-.32q-.57,1.66-4.36,16.75A10.48,10.48,0,0,1,281,151l-2,3.74c0,.21-1.12,1.09-3.34,2.65-.23,0-.9-.77-2-2.31q2.63-15,3.51-23.68l1.08-6.81a21.87,21.87,0,0,0-.65-2.66c.76-3.15,3.57-5,8.44-5.67q3.6,3.93,12.32,15l1.34.34a58.16,58.16,0,0,0,2-14,3.14,3.14,0,0,1-.34-1.66v-2c1.82-3.56,3.27-5.34,4.33-5.34L308,107a13,13,0,0,0,3.66-.69m.34-7.43-2.4.74a7.87,7.87,0,0,1-1.62.38h-2.25l-1.8,1.31-1.32.94c-3.91,1.58-6.15,6-7.48,8.54l-.77,1.5v2.91c-1.24-1.48-2.29-2.68-3.15-3.62l-2.45-2.69-3.61.46c-10.52,1.36-13.51,7.47-14.36,11l-.43,1.78.5,1.76.27,1-.87,5.49,0,.2,0,.19c-.57,5.57-1.73,13.37-3.44,23.19l-.51,2.89,1.71,2.38c1.67,2.34,3.75,5.24,7.69,5.24h2.21l1.81-1.27c2.7-1.9,4.86-3.4,5.8-5.65l1.69-3.14.85-1.56V151a18.67,18.67,0,0,0-.17-2.48c.15-.62.3-1.21.45-1.78,1.09,1.69,2.32,3.63,3.67,5.86,1,4.24,4.6,7.94,11.38,7.94h1.95l1.67-1,1.66-1,2.06-1.24,3-1.59c4.06-2.2,4.66-5.43,4.66-7.15v-5c0-4.25.1-10.12.29-17.45a22.47,22.47,0,0,1,2-5l1.75-2.39-.51-2.92,0-.29a7.91,7.91,0,0,0,.15-1.52,10.2,10.2,0,0,0-.61-3.41l.8-2.57-1.3-2.54a12.24,12.24,0,0,0-6.55-5.63l-2.33-1Z"/></g></g></svg>