<svg xmlns="http://www.w3.org/2000/svg" viewBox="0 0 400 100"><defs><style>.cls-1{fill:gray;}.cls-2{fill:#ccc;}</style></defs><g id="Seetings"><rect class="cls-1" x="5.21" y="4.63" width="394.79" height="95.37" rx="32.16"/><rect class="cls-2" width="394.79" height="95.37" rx="32.16"/><path d="M79,23.45q28.78,7.07,29,12.64l-.59,2.41a4,4,0,0,0,.16,2L107,41.63l-.08,1.56q-.77,3.15-11.65,5.51c-1.14.34-1.74.62-1.79.83q.72,1.63,15.08,12c.85.91,1.22,1.64,1.1,2.19a3.48,3.48,0,0,0-1.08,1.66l.46,2.06-.75,1.75-.21.91-.33-.08q-.21-.06-1.74-.75c-1.76.21-2.82,1-3.16,2.43-.66,0-1,.16-1,.38a22.49,22.49,0,0,1-6.6-2.71,62.41,62.41,0,0,1-8.33-6.84A63.53,63.53,0,0,1,77,50.63a2.43,2.43,0,0,1-.08-1l-1.09-1.55-.51-.46-.83.75-2.09,9.78q-1.12,4.55-3.24,4c-.08.29-.45.52-1.13.7l-.32-.08q-2.7-2,.59-15.32,1-9.33,1.47-20.54c2.23-2.24,3.47-3.32,3.7-3.25A9.2,9.2,0,0,1,79,23.45Zm.51,8.78-3.13,7.18a.6.6,0,0,0,.29.8c2.12-.68,3.38-.92,3.78-.75l2-.8,1,.8c.61-.17,2.45.29,5.54,1.4q5.68.24,6.22-1a13.8,13.8,0,0,0-4.4-4l-5.41-2.38Q80,31.1,79.51,32.23Z"/><path d="M124.12,27.57l1.53-.29q11.06-.34,11.27.67l.35,1.84c0,.2-.72,1.2-2.28,3q-10.5.75-11.89,1c-2.25.45-2.95,2.81-2.11,7.1l.4.56q4.1-1.09,6.1-1.5l2.76-.53q3.75-.3,4.1,1.42l-.4,1.36,1.23,1.34-.05,1.29a2.19,2.19,0,0,1,.45.85c-.39.15-.55.39-.48.73l-1.29-.06c-1.12.22-1.78,1.2-2,3l-1.18.51q-4,.51-6.48,1a.56.56,0,0,1-.51.73q1,5.22,4.1,4.6l.62-.1a160,160,0,0,0,17.83-4.72,4,4,0,0,1,2.52,1.42l.06.3-.62,1.71,1.66,1.9c.43,2.25.13,3.48-.91,3.7q-3.67.69-3.13,3.45a3.47,3.47,0,0,1-1.42.91l-7.29.14-4.9,1q-2.93.57-9.4,4c-2.66.52-4.11.17-4.34-1.07l.06-1.28-2.74-2.63-.08-.32q2.07-.41-1.12-23.94c-.14-3.68.3-6.31,1.34-7.9A12.52,12.52,0,0,1,124.12,27.57Z"/><path d="M169.85,18.81q6.57,0,6.46,9.83V29.9l-2.49,1.56-6-2.63h-2.2q-6.93,0-11.86,6a3.55,3.55,0,0,0-.94,1.87q3.54,1.45,20.38,2.63c4.38.28,6.56,1,6.56,2.17-.21,1.48-.32,2.31-.32,2.49a3.78,3.78,0,0,1,.62,1.87v2.81q-2,2.48-12.8,8.76a38,38,0,0,0-6.89,5.95q-3.1,0-5.92,3.42l-3.66,1.61c-2.09-.57-3.14-1-3.14-1.26v-.61a2.43,2.43,0,0,1,.32-1.26l-3.29-2.84a11.9,11.9,0,0,1,2.49-4q0-1.8,13.52-7.53c3.54-2,5.31-3.49,5.31-4.37v-.32Q158.07,43,147,43a17.12,17.12,0,0,1-2.2-3.72V38q1.47-8.87,11.68-15.75A30.64,30.64,0,0,1,169.85,18.81Z"/><path d="M208.36,21.17q1.78.85,2,1.74l.08.78-.57,2L211.06,27l.35,3.48c.07.57-1.1,1.08-3.51,1.52-.32,2.65-.78,4-1.39,4.05l-.27,0a17.84,17.84,0,0,1-6.21-1,8.71,8.71,0,0,0-2.38-.16l-.38,1.24.59,5.78q.55,5.35,3,18.91a3.86,3.86,0,0,0-.1,1.18,6.67,6.67,0,0,1,.42,1.9l-.48.43c0-.59-.53-.93-1.42-1-.93.55-1.7,2.32-2.33,5.3a1.43,1.43,0,0,0-.72.49c-1.89.19-3-.86-3.19-3.17a6.43,6.43,0,0,0-1.93-3.32q-.24-15.12-1.34-25.71a1.1,1.1,0,0,0-1.15-1.07,18.23,18.23,0,0,0-5.25,1.31q-2.57.27-2.94-3.21c-.25,0-.55-.34-.89-1.07q-.56-5.46,6.3-6.38A145.64,145.64,0,0,0,208.36,21.17Z"/><path d="M224.58,21.25q3.1-.45,5.6,5.81,9.69,15.51,15.37,20.76l.08.62a9.07,9.07,0,0,1-.32,2c.64.61,1.3,2.3,2,5.09l-.56.37a3.63,3.63,0,0,0-1.93-.32l-.32,0c-1.5,1.23-2.21,2.18-2.12,2.84a1.63,1.63,0,0,1-1.58,2.11q-3.69.57-4-1.58-.41-2.77-7.5-1.74l-4.66.7a39.81,39.81,0,0,0-4.29.91c-2,.3-3.19-.26-3.4-1.69-.18-1.23-.48-1.81-.91-1.74l-.59.08q-.51.09-2.06,4.6a102.1,102.1,0,0,0-3.08,11.5,4.51,4.51,0,0,0-1,0,3.77,3.77,0,0,0-2.81,2.17l-.62.08c-.42.07-1.3-.85-2.62-2.78l-.13-.91q-.12-.7,6-17A206.34,206.34,0,0,1,219,24a7.86,7.86,0,0,0,2.57-2l1.28.13A3.87,3.87,0,0,1,224.58,21.25Zm-2.14,15.48q-3.62,7.5-3.4,9c.1.43.33.62.69.56,1.79-.48,2.9-.76,3.35-.83a23.41,23.41,0,0,0,6.08.38l.21-.67q-4.6-8.18-6.32-8.52Z"/><path d="M263.06,23.45q28.79,7.07,29,12.64l-.59,2.41a4,4,0,0,0,.16,2l-.59,1.15L291,43.19q-.78,3.15-11.65,5.51c-1.14.34-1.74.62-1.79.83q.72,1.63,15.08,12c.85.91,1.22,1.64,1.09,2.19a3.45,3.45,0,0,0-1.07,1.66l.46,2.06-.75,1.75-.22.91-.32-.08q-.21-.06-1.74-.75c-1.77.21-2.82,1-3.16,2.43-.66,0-1,.16-1,.38a22.44,22.44,0,0,1-6.61-2.71,63.07,63.07,0,0,1-8.33-6.84A63.49,63.49,0,0,1,261,50.63a2.26,2.26,0,0,1-.08-1l-1.1-1.55-.51-.46-.83.75-2.09,9.78q-1.13,4.55-3.24,4c-.07.29-.44.52-1.12.7l-.32-.08q-2.72-2,.59-15.32,1-9.33,1.47-20.54,3.34-3.36,3.7-3.25A9.2,9.2,0,0,1,263.06,23.45Zm.51,8.78-3.14,7.18a.59.59,0,0,0,.3.8c2.12-.68,3.38-.92,3.77-.75l2-.8,1,.8c.6-.17,2.45.29,5.54,1.4,3.78.16,5.86-.18,6.21-1a13.79,13.79,0,0,0-4.39-4l-5.41-2.38Q264.05,31.1,263.57,32.23Z"/><path d="M323.6,21.17q1.8.85,2,1.74l.08.78-.56,2L326.31,27l.35,3.48c.07.57-1.1,1.08-3.51,1.52-.32,2.65-.79,4-1.4,4.05l-.26,0a17.86,17.86,0,0,1-6.22-1,8.69,8.69,0,0,0-2.38-.16l-.38,1.24L313.1,42q.57,5.35,3,18.91a3.63,3.63,0,0,0-.11,1.18,6.3,6.3,0,0,1,.43,1.9l-.48.43c-.06-.59-.53-.93-1.42-1q-1.39.82-2.33,5.3a1.48,1.48,0,0,0-.73.49c-1.89.19-2.95-.86-3.18-3.17a6.5,6.5,0,0,0-1.93-3.32Q306.09,47.56,305,37a1.12,1.12,0,0,0-1.15-1.07,18.23,18.23,0,0,0-5.25,1.31q-2.58.27-2.95-3.21c-.25,0-.54-.34-.88-1.07q-.57-5.46,6.29-6.38A145.36,145.36,0,0,0,323.6,21.17Z"/></g></svg>