<svg xmlns="http://www.w3.org/2000/svg" viewBox="0 0 150 150"><defs><style>.cls-1{fill:#666;}.cls-2{fill:#999;}</style></defs><g id="PLAY"><path class="cls-1" d="M18.94,118.69a20.76,20.76,0,0,1,1.45-2.78q4.23-5.62,8.6-11.15a2,2,0,0,0,.22-2.46c-1.07-2.26-1.9-4.64-2.94-6.92a2.33,2.33,0,0,0-1.41-1.19c-5.05-.82-10.13-1.55-15.2-2.29C7.19,91.54,6.18,90.5,6.17,88q0-10,0-20c0-2.52,1.07-3.61,3.6-4,5.07-.74,10.15-1.49,15.2-2.33a2.29,2.29,0,0,0,1.42-1.19c1-2.12,1.79-4.34,2.81-6.44A1.81,1.81,0,0,0,29,51.9C26,48.17,23.13,44.4,20.2,40.67c-1.85-2.35-2.08-3.45-.07-5.59,4.55-4.85,9.18-9.64,14-14.18,3.05-2.85,3.94-2.63,7.21-.1,3.49,2.71,7,5.39,10.46,8.15a2.1,2.1,0,0,0,2.62.26,61.63,61.63,0,0,1,5.87-2.46,1.8,1.8,0,0,0,1.41-1.67c.67-4.86,1.37-9.72,2.2-14.56.65-3.76,1.35-4.24,5.09-4.24q9.35,0,18.67,0c2.91,0,3.81.76,4.26,3.6.79,5,1.57,10,2.26,15.05a2.05,2.05,0,0,0,1.64,1.87,61.74,61.74,0,0,1,5.88,2.45,1.8,1.8,0,0,0,2.19-.25c4-3.08,8.09-6.12,12.15-9.18,1.69-1.27,3.25-1.36,4.72.1,4.95,4.92,9.89,9.86,14.68,14.94,2,2.12,1.9,3.47.13,5.81q-4.2,5.53-8.51,11a1.93,1.93,0,0,0-.24,2.34c1.05,2.28,1.91,4.64,3,6.91a2.29,2.29,0,0,0,1.44,1.17c4.89.82,9.8,1.56,14.71,2.29,3.15.47,4,1.44,4,4.61V87.84c0,3-.91,4-3.81,4.46-4.91.76-9.81,1.53-14.72,2.22a2.17,2.17,0,0,0-2,1.58c-.78,2.09-1.79,4.1-2.56,6.19a2.45,2.45,0,0,0,.2,2c2.89,3.84,5.86,7.61,8.83,11.39,1.82,2.31,2,3.49,0,5.61-4.55,4.84-9.17,9.64-14,14.18-3,2.85-4.14,2.63-7.38.1-3.52-2.77-7.06-5.5-10.56-8.29a1.66,1.66,0,0,0-2-.26c-2.07,1-4.19,1.86-6.33,2.65a1.82,1.82,0,0,0-1.33,1.75c-.71,5-1.44,10-2.31,15-.52,3.05-1.46,3.7-4.57,3.7h-19c-2.9,0-3.87-.85-4.31-3.75-.76-5-1.54-9.91-2.25-14.88a2.1,2.1,0,0,0-1.6-1.94,63.38,63.38,0,0,1-6-2.49,1.67,1.67,0,0,0-2,.26q-5.91,4.53-11.86,9C38.28,138,36.9,138,35,136.13q-7.11-7-14.09-14.14A16.93,16.93,0,0,1,18.94,118.69Zm59.14-16.55a24,24,0,1,0-24-23.84A23.72,23.72,0,0,0,78.08,102.14Z"/><path class="cls-2" d="M12.93,112.9a19.66,19.66,0,0,1,1.45-2.78Q18.61,104.5,23,99a2,2,0,0,0,.23-2.46c-1.07-2.26-1.91-4.64-2.95-6.91a2.22,2.22,0,0,0-1.4-1.19c-5.06-.83-10.13-1.56-15.21-2.3C1.17,85.75.16,84.71.15,82.23q0-10,0-20c0-2.52,1.08-3.61,3.61-4,5.07-.74,10.14-1.49,15.2-2.33a2.31,2.31,0,0,0,1.42-1.19c1-2.12,1.79-4.33,2.8-6.44a1.79,1.79,0,0,0-.23-2.2c-2.93-3.73-5.83-7.49-8.77-11.22-1.85-2.36-2.08-3.46-.06-5.6,4.55-4.85,9.17-9.64,14-14.18,3.05-2.85,3.94-2.63,7.2-.1,3.5,2.71,7,5.39,10.46,8.15a2.1,2.1,0,0,0,2.62.26c1.91-.93,3.89-1.72,5.88-2.46a1.8,1.8,0,0,0,1.41-1.67c.66-4.86,1.37-9.72,2.2-14.56C58.57,1,59.26.49,63,.49c6.22,0,12.45,0,18.67,0,2.9,0,3.81.75,4.25,3.59.79,5,1.57,10,2.27,15.05A2,2,0,0,0,89.83,21a63,63,0,0,1,5.89,2.45,1.79,1.79,0,0,0,2.19-.25c4-3.08,8.09-6.12,12.15-9.17,1.69-1.28,3.24-1.37,4.72.1,5,4.91,9.88,9.86,14.68,14.93,2,2.13,1.89,3.47.12,5.81q-4.2,5.55-8.51,11a2,2,0,0,0-.23,2.35c1,2.27,1.91,4.63,3,6.91a2.31,2.31,0,0,0,1.44,1.16c4.9.82,9.8,1.57,14.71,2.3,3.16.47,4,1.43,4,4.6q0,9.42,0,18.84c0,3-.9,4-3.81,4.46-4.9.76-9.8,1.53-14.72,2.22a2.17,2.17,0,0,0-2,1.58c-.78,2.09-1.79,4.1-2.56,6.19a2.45,2.45,0,0,0,.2,2c2.88,3.84,5.86,7.61,8.82,11.39,1.82,2.31,2,3.49,0,5.61-4.56,4.84-9.17,9.64-14,14.19-3,2.84-4.14,2.63-7.37.09-3.52-2.76-7.06-5.5-10.56-8.29a1.66,1.66,0,0,0-2-.26c-2.08,1-4.19,1.86-6.33,2.65a1.83,1.83,0,0,0-1.34,1.75c-.71,5-1.44,10-2.3,15-.53,3.05-1.46,3.7-4.57,3.7h-19c-2.9,0-3.86-.85-4.31-3.74-.76-5-1.53-9.92-2.24-14.89a2.1,2.1,0,0,0-1.6-1.94,59,59,0,0,1-6-2.49,1.68,1.68,0,0,0-2,.26c-3.93,3-7.89,6-11.85,9-2.12,1.59-3.5,1.6-5.36-.23q-7.11-7-14.09-14.14A17.32,17.32,0,0,1,12.93,112.9ZM72.07,96.35a24,24,0,1,0-24-23.84A23.72,23.72,0,0,0,72.07,96.35Z"/></g></svg>