<svg xmlns="http://www.w3.org/2000/svg" xmlns:xlink="http://www.w3.org/1999/xlink" viewBox="0 0 1920 1080"><defs><style>.cls-1{fill:url(#linear-gradient);}.cls-2{fill:url(#linear-gradient-2);}.cls-3{filter:url(#AI_GaussianBlur_7);}.cls-4{fill:url(#linear-gradient-3);}.cls-5{opacity:0.84;}.cls-5,.cls-7{filter:url(#AI_GaussianBlur_4);}.cls-6{fill:#4d5a6b;}.cls-7{opacity:0.83;}.cls-8{fill:none;}</style><linearGradient id="linear-gradient" x1="961.85" y1="794" x2="957.61" y2="-14.71" gradientUnits="userSpaceOnUse"><stop offset="0.03" stop-color="#7fc7ff"/><stop offset="0.11" stop-color="#69a7db"/><stop offset="0.22" stop-color="#4e7fac"/><stop offset="0.33" stop-color="#365c84"/><stop offset="0.44" stop-color="#223f63"/><stop offset="0.56" stop-color="#13294a"/><stop offset="0.69" stop-color="#081938"/><stop offset="0.82" stop-color="#02102d"/><stop offset="0.97" stop-color="#000d2a"/></linearGradient><linearGradient id="linear-gradient-2" x1="1400.08" y1="108.21" x2="1411.68" y2="578.96" gradientUnits="userSpaceOnUse"><stop offset="0" stop-color="#fff"/><stop offset="0.24" stop-color="#fdfdfd" stop-opacity="0.99"/><stop offset="0.38" stop-color="#f4f4f4" stop-opacity="0.96"/><stop offset="0.49" stop-color="#e6e6e6" stop-opacity="0.9"/><stop offset="0.58" stop-color="#d3d3d3" stop-opacity="0.83"/><stop offset="0.67" stop-color="#b9b9b9" stop-opacity="0.72"/><stop offset="0.75" stop-color="#999" stop-opacity="0.6"/><stop offset="0.83" stop-color="#737373" stop-opacity="0.45"/><stop offset="0.9" stop-color="#484848" stop-opacity="0.28"/><stop offset="0.97" stop-color="#181818" stop-opacity="0.09"/><stop offset="1" stop-opacity="0"/></linearGradient><filter id="AI_GaussianBlur_7" name="AI_GaussianBlur_7"><feGaussianBlur stdDeviation="7"/></filter><linearGradient id="linear-gradient-3" x1="1400.59" y1="107.37" x2="1412.52" y2="591.76" gradientTransform="matrix(1.01, 0.02, -0.02, 0.99, -15.67, -32.66)" xlink:href="#linear-gradient-2"/><filter id="AI_GaussianBlur_4" name="AI_GaussianBlur_4"><feGaussianBlur stdDeviation="4"/></filter></defs><g id="sky"><rect class="cls-1" width="1920" height="882.9"/><path class="cls-2" d="M1244.31,152.2c206.11,107.53,172.1,299.5,0,387.8,223,79.8,320.28-102.72,326.87-167.35S1558,206.88,1471,152.2,1284.2,121.65,1244.31,152.2Z"/><g class="cls-3"><path class="cls-4" d="M1238.31,148.81c212.45,115.13,172.33,310.8-9.35,397,230.78,87.15,336.62-97.28,345.06-163.27s-9.72-170-99.21-228.12S1280.67,118.52,1238.31,148.81Z"/></g><g class="cls-5"><path class="cls-6" d="M740.61,207.65c-16.59-2.48-31.11,1.66-45.18,11.09-14.37,9.64-31,12.44-48.32,9.11-14.83-2.85-25.6,4.12-33.81,15.41-7.83,10.76-17.63,14.23-30.47,11.26-10.25-2.37-14-.59-19.18,8.81-6.45,11.62-15.27,19.77-29.12,20.56a91.9,91.9,0,0,1-16.38-1c-16.1-2-31.26-.64-45.53,8.44-12.92,8.22-26.41,5.69-39.8-5.74-6.57-5.61-13.07-11.33-19.86-16.65a65.37,65.37,0,0,0-11.84-7.35c-11.84-5.72-23-3.6-33.36,3.85-3.63,2.62-7,5.58-10.48,8.45-7.71,6.43-18.2,6.56-25.4-.48-4.22-4.12-7.52-9.19-11.11-13.93a42,42,0,0,1-2.58-4.83c-6.19-11.14-14.82-14.08-26.47-8.72-5,2.29-9.59,5.39-14.6,7.59A62.17,62.17,0,0,1,263.46,258c-7.91,1.44-14.4-1.19-18.62-8.45a44.22,44.22,0,0,0-3.73-5.29c-4.93-6.14-10.91-7.12-17.61-2.87-8,5.06-15.53,11.08-24,15.1-26.36,12.48-53.78,21.34-83.48,21-11.44-.15-19.93-3.88-23.54-15.83-4.22-14-21.21-19.93-35.72-18.73-9.94.82-19.82,2.55-29.77,3.21-5.23.35-10.61-.44-15.85-1.21-26.32-3.9-52.45-9.23-79.3-8.45a135.53,135.53,0,0,0-45.81,9c-7.87,3.07-11.19,2-15-5.4a58.3,58.3,0,0,1-4.81-12c-1.95-7.51.73-13.33,8.17-15.21,9.61-2.44,19.58-3.49,29.41-5,5.58-.88,11.19-1.62,16.8-2.31,11.49-1.4,19.74-7.75,27-16.36a160.53,160.53,0,0,1,17.61-17.57c12.4-10.79,26.22-11.75,41.55-6.24a220.14,220.14,0,0,0,35.53,9.43c12.24,2.19,22.7-3.17,30.7-12.18,5.29-6,10.5-7.48,18-4.68,14.14,5.31,27.94,2.62,41.16-3.49a68,68,0,0,1,32.83-6.55c13,.66,27.58-10.27,29.65-22.1,4.21-24,20.52-32.6,42.27-33.52A84.83,84.83,0,0,1,271,98.34c10,3.87,19.23,2.7,28.13-2.78,6.23-3.83,12.27-8,18.63-11.6,12.73-7.23,26-6.73,38,.64C365.91,90.81,375,98.8,384,106.65c12.36,10.82,26,17.66,42.81,17.47,8.5-.09,12.28,3.16,14.91,11.29,1.48,4.57,2.51,9.34,4.49,13.67,3.06,6.66,8.18,9.12,15.18,6.92,9.35-2.94,18.4-6.81,27.69-9.95a103.15,103.15,0,0,1,14.51-3.58c5.22-.94,9.88.73,12.29,5.59,9.85,20,26.84,24.34,46.94,21.45,12.67-1.82,25.25-4.34,37.82-6.82,5.88-1.16,11.16-1.22,15.61,3.63,6.14,6.7,13.06,7,20.61,2.27,2.52-1.58,5.39-2.61,8-4,12.8-6.86,25.06-7.5,38.33.08,6.76,3.86,15.46,4.73,23.43,6,12.6,2.06,25.32,3.36,38,4.94,11.36,1.41,22.71,3,34.11,4,6.83.62,12.85,4.44,15.21,10.87,1.75,4.77-.75,10.09-7.05,11.82a189.18,189.18,0,0,1-26.82,5.15C753.68,208.28,747.11,207.65,740.61,207.65Z"/></g><g class="cls-7"><path class="cls-6" d="M1124.05,407.15c-10.59-.81-21.2-1.45-31.77-2.5a29.62,29.62,0,0,1-19.07-9.95,55.2,55.2,0,0,0-19.92-13.76c-1.69-.71-3.3-1.59-4.93-2.42-6.73-3.43-10.9-8.6-11.07-16.41-.16-7.63-4.21-12.12-11.16-14.81-7.8-3-15.61-4.48-23.89-2.39-9,2.27-16-.39-21.72-8.06-8-10.7-19.74-13.08-31.85-9.64-11.65,3.31-23,2.08-34.63,1.37-12.77-.78-25.57-1.14-38.34-1.88-10.29-.6-20.56-1.46-30.83-2.29a17,17,0,0,1-5.84-1.2c-2.23-1.06-4.15-2.78-6.2-4.21,1.82-1.91,3.3-4.56,5.53-5.59,11.73-5.43,24.51-5.44,37.08-6.63,14.21-1.34,28.61-2.11,42.46-5.19a86.09,86.09,0,0,1,28.55-1.32c15.61,1.68,31.58,1.66,44.38-8.74,9.08-7.38,17.35-15.37,28.2-20.49,5.18-2.44,9-7.76,13.44-11.75s9.65-6,15.61-4.88c8,1.57,15.5.14,22.83-3.17a55.18,55.18,0,0,1,9.44-3.1c5.41-1.36,9.86.39,14.28,3.84,8.47,6.61,17.18,13,26.18,18.85,8.3,5.43,16.16,11.12,21.39,19.75a18.26,18.26,0,0,0,15.63,9.24,19,19,0,0,1,15.05,7.54c5,6.45,11.32,8.25,19.45,6.67,10.12-1.95,19.3-4.68,25.28-14,2.54-4,6.84-4.16,10.7-2.06a82.92,82.92,0,0,0,35.19,10.12c7.41.44,12.18,4.65,15.5,10.93a76.09,76.09,0,0,0,5.65,9.92c5.3,7.13,13.35,8.69,21.42,8.55,8.63-.15,15.37,2.37,21.12,8.92,6,6.78,14.46,8.79,23.07,9.1s17-.67,25.42-.53a103.38,103.38,0,0,1,18.67,1.85c5.46,1.1,10.55,1.24,15.52-1.29s9.76-2.28,14.6.82c8.65,5.56,18.12,5.74,27.92,3.86a62.59,62.59,0,0,1,13.34-1.35,20.06,20.06,0,0,1,8.89,2.67c3.52,2,6.18,5.69,4.57,9.54a15.37,15.37,0,0,1-7.51,7.57c-3.83,1.61-8.44,1.65-12.73,1.79-15,.47-29.93.47-44.88,1.09-7.69.33-15.08,2.24-21.57,6.88-8.16,5.82-17.41,5.79-26.86,4.52s-18.75-3-28.17-3.27c-5-.13-11,1.2-15.09,4-13.9,9.65-28,8.79-42.76,3.09-9-3.47-18-6.87-27.26-9.64-15.6-4.68-28.8-1.62-38.51,12.58-4.92,7.18-12.12,10.94-21,11.94-9.88,1.1-19.38.23-29.17-1.68-13-2.54-26.27-3.31-39.43-4.84Z"/></g></g><g id="clipping"><rect class="cls-8" y="-19.22" width="1920" height="1080"/></g></svg>