<svg xmlns="http://www.w3.org/2000/svg" viewBox="0 0 250 250"><defs><style>.cls-1{fill:#91fa00;}.cls-2{fill:#d2f78b;}.cls-3{fill:none;stroke:#91fa00;stroke-miterlimit:10;}</style></defs><g id="Layer_36" data-name="Layer 36"><path class="cls-1" d="M129.78,54c4.7-4.45,9.49-9.81,16.09-10.36,7,4.66-.94,17.6,5.78,22.65,5.42,4.08,12.64-2,16.95-7.11a127,127,0,0,1,20.71-19.73c1.85-1.41,3.86-2.81,6.21-3.11,5.14-.64,9.33,4.4,10,9.29,1.31,9.85-6.75,18.57-15.25,24.31-6,4-12.56,7.48-17,13s-6,14-1.23,19.2c6.38,6.91,18.4,3.77,27.35,7.24,7.26,2.81,12.07,10.84,10.22,18.09s-10.7,12.34-18.12,9.93c-6.64-2.16-13.05-9.29-19.1-5.9-4.71,2.64-3.74,9.86.21,13.45s9.58,4.79,14.65,6.72a46.28,46.28,0,0,1,24.32,21.23c1.93,3.65,3.34,7.71,2.86,11.77s-3.26,8.06-7.39,9.14c-4.8,1.26-9.75-1.6-13.17-5s-6.13-7.62-10.27-10.25-10.52-3-13.48.76c-3.85,5,1,11.7,5.7,15.92s10.07,10.28,7.08,15.74c-1.08,2-3.1,3.35-5,4.62-8.05,5.29-18.4,10.76-27,6.29-4.26-2.21-7.09-6.55-11.59-8.31a11.75,11.75,0,0,0-10.73,1.27c-4.05,2.84-5.58,7.88-6.37,12.61s-1.18,9.72-3.84,13.79-8.58,6.73-12.85,4.18c-9.91-5.92,4.56-24.7-5.28-30.73-4.38-2.69-10.24-.05-14.09,3.3-7.56,6.56-13,16.2-22.69,19.2-7.49,2.3-16.38-.44-21-6.49a7.2,7.2,0,0,1-1.74-4c-.08-2.1,1.32-4,2.8-5.54,6.2-6.54,14.66-10.67,21.86-16.21s13.49-13.6,12.45-22.36a97.17,97.17,0,0,0-28.28-1.24c-7.47.77-15.24,2.62-20.64,7.6-1.62,1.5-3,3.26-4.89,4.44-6.28,3.93-15.63-1.13-17.06-8.16s3.36-14.16,9.78-17.88,14.14-4.68,21.64-5.22,15.15-.75,22.21-3.19a17,17,0,0,0,6.88-4,10.51,10.51,0,0,0-.18-14.32,11.89,11.89,0,0,0-15-.88c-2.07,1.61-4.16,4.13-6.75,3.47a6.09,6.09,0,0,1-3.15-2.78C39.67,136.64,37,132,39,127.91c3.49-7.1,15.72-3.55,22.11-8.51,3.21-2.49,4.3-6.76,4.2-10.71C65,97,55,86.26,42.86,84.57,37,83.75,30,84.4,26.41,80c-5-6,2.38-15.16,10.36-16.31,5.21-.75,10.57.39,15.76-.43s10.61-4.85,9.8-9.8c-.38-2.33-2-4.28-2.81-6.52-2.11-6.19,3.93-13,10.74-13.57s13.27,3.72,16.9,9.22c1.79,2.71,4.73,6.27,7.6,4.6,2-1.19,1.78-4,1.81-6.23s1.73-5.16,4-4.37a4.06,4.06,0,0,1,1.8,1.66C110.28,49.73,111.62,71.1,129.78,54Z"/><path class="cls-2" d="M108.94,249a10,10,0,0,1-5-1.41c-6.55-3.91-5.16-11.42-3.93-18.05s1.75-10.78-1.39-12.7c-2.92-1.79-7.48.23-10.7,3a82,82,0,0,0-6.65,6.78c-4.78,5.28-9.73,10.73-17.06,13-8.63,2.66-18.78-.47-24.14-7.44a9.61,9.61,0,0,1-2.27-5.43c-.12-3.19,1.95-5.76,3.52-7.41,4.15-4.39,9.22-7.71,14.12-10.92,2.71-1.78,5.51-3.61,8-5.57,3.54-2.73,11.35-9.68,11.53-18.1a93.69,93.69,0,0,0-25.31-.82c-8.89.92-14.92,3.1-19,6.87-.48.44-.94.91-1.39,1.38a21.3,21.3,0,0,1-3.91,3.37,13.1,13.1,0,0,1-11.94.71A15.07,15.07,0,0,1,4.14,185.7c-1.53-7.5,3-16,11.06-20.65,6.87-4,15.06-5,22.88-5.6l2.93-.2c6.56-.43,12.76-.84,18.54-2.84a13.9,13.9,0,0,0,5.77-3.3,7.92,7.92,0,0,0-.13-10.72A9,9,0,0,0,54,141.73c-.37.29-.74.62-1.12.94-1.93,1.67-4.57,4-8.11,3-2.5-.64-3.91-2.66-4.75-3.86-3.17-4.54-6.07-9.88-3.52-15.06s8.47-6.07,13.66-6.77c3.6-.49,7-1,9.21-2.67,3-2.33,3.23-6.79,3.19-8.6-.27-10.38-9.26-20.06-20-21.56-1.23-.18-2.53-.28-3.9-.39-5.05-.4-10.77-.85-14.33-5.18a9.74,9.74,0,0,1-1.32-10.37A17.89,17.89,0,0,1,36.36,61.06a47.74,47.74,0,0,1,8.25-.22,39.13,39.13,0,0,0,7.47-.2c4-.62,8-3.57,7.51-6.78a10.74,10.74,0,0,0-1.28-3,20.33,20.33,0,0,1-1.44-3.08,11.59,11.59,0,0,1,1.75-10.37A15.86,15.86,0,0,1,70,30.73c7.25-.61,14.9,3.49,19.49,10.45C91.92,44.82,93.2,45,93.22,45h0c.56-.32.57-2.23.57-3.25v-.8A7.9,7.9,0,0,1,97,34.64a5,5,0,0,1,4.5-.54,6.65,6.65,0,0,1,3.15,2.68,64.59,64.59,0,0,1,5.21,9.89c2.34,5.13,4.76,10.43,7.86,11,2.28.43,5.78-1.51,10.1-5.59h0l1.57-1.51c4.39-4.23,9.37-9,16.24-9.6l1-.09.83.55c4.83,3.2,4.48,8.74,4.18,13.64-.27,4.51-.3,7.57,1.73,9.11,4.45,3.35,12.19-5.65,13-6.69a130,130,0,0,1,21.16-20.15c2.07-1.57,4.53-3.28,7.58-3.66a10.37,10.37,0,0,1,7.53,2.06,14.54,14.54,0,0,1,5.57,9.52c1.68,12.55-9.55,22.18-16.39,26.8-1.35.91-2.73,1.79-4.11,2.68-4.7,3-9.13,5.82-12.32,9.76-3.66,4.53-5.16,11.69-1.34,15.84,3.13,3.39,8.17,3.82,14,4.31,4.12.35,8.38.71,12.3,2.23,8.67,3.36,14,12.85,11.87,21.17a16.79,16.79,0,0,1-8.72,10.49,17,17,0,0,1-13,1.31,37.55,37.55,0,0,1-7.06-3.46c-4.43-2.57-7.29-4-9.73-2.66a3.53,3.53,0,0,0-1.74,2.86,7.9,7.9,0,0,0,2.46,6.4c2.58,2.34,6.17,3.55,10,4.84,1.24.42,2.52.85,3.78,1.33A49.22,49.22,0,0,1,214,171.66c2.59,4.9,3.62,9.24,3.14,13.26a13.24,13.24,0,0,1-9.41,11.39c-5.13,1.35-10.93-.75-15.93-5.76-1.2-1.2-2.3-2.48-3.36-3.7a31.16,31.16,0,0,0-6.43-6.18c-3-1.93-7.77-2.35-9.71.14-2.58,3.33,1.28,8.77,5.37,12.42,3,2.67,12.08,10.79,7.65,18.9-1.43,2.61-3.92,4.25-5.93,5.57-8.69,5.71-19.95,11.61-29.9,6.44a29.12,29.12,0,0,1-5.78-4.29,20.14,20.14,0,0,0-5.53-3.9,8.77,8.77,0,0,0-8,1c-3.5,2.45-4.69,7.4-5.28,10.9-.12.73-.23,1.46-.34,2.19-.66,4.27-1.33,8.68-3.88,12.58a14.6,14.6,0,0,1-8.9,6.14A12,12,0,0,1,108.94,249ZM96.43,210.87a10.34,10.34,0,0,1,5.25,1.52c6.47,4,5.08,11.46,3.85,18.07s-1.74,10.77,1.41,12.65a4.74,4.74,0,0,0,3.58.44,9.17,9.17,0,0,0,5.43-3.78c1.94-3,2.5-6.64,3.1-10.54.11-.76.23-1.51.35-2.26.74-4.43,2.33-10.73,7.47-14.34a14.71,14.71,0,0,1,13.44-1.57,24.21,24.21,0,0,1,7.2,4.91,24.93,24.93,0,0,0,4.66,3.52c7.29,3.79,16.7-1.29,24.08-6.15,1.58-1,3.36-2.21,4.16-3.66,1.65-3-.55-7.25-6.52-12.59s-10.78-13.31-6-19.42c4-5.12,12.06-4.71,17.27-1.39a35.46,35.46,0,0,1,7.63,7.2c1.05,1.21,2,2.36,3.1,3.42,1.31,1.31,5.92,5.48,10.42,4.31,2.76-.72,5-3.56,5.37-6.89.35-3-.49-6.32-2.59-10.28a43.66,43.66,0,0,0-22.86-20c-1.16-.44-2.33-.83-3.58-1.25-4.19-1.42-8.52-2.88-12-6A13,13,0,0,1,166.5,136a8.78,8.78,0,0,1,4.45-6.81c5.48-3.08,10.77,0,15.44,2.7a34.23,34.23,0,0,0,6,3,11.25,11.25,0,0,0,8.53-.95,11.67,11.67,0,0,0,6-7.1c1.47-5.77-2.45-12.65-8.57-15-3.14-1.22-6.81-1.53-10.69-1.86-6.44-.54-13.1-1.11-17.7-6.09C164,97.4,166.08,87.41,171,81.27c3.74-4.62,8.76-7.83,13.62-10.93,1.34-.86,2.68-1.71,4-2.6,4.69-3.17,15.46-11.64,14.1-21.81a9.23,9.23,0,0,0-3.46-6,4.63,4.63,0,0,0-3.4-1c-1.64.2-3.29,1.37-4.85,2.55a124.49,124.49,0,0,0-20.27,19.31c-7.46,8.92-15.26,11.75-20.84,7.54-4.47-3.36-4.13-8.79-3.84-13.57.25-4.06.3-6.8-1.09-8.37-4.35.85-8.06,4.43-11.65,7.9-.54.52-1.08,1-1.62,1.54h0c-5.92,5.6-10.7,7.84-15.06,7-6-1.1-8.86-7.41-11.91-14.09A60.72,60.72,0,0,0,100,39.69l-.19-.27A3.38,3.38,0,0,0,99.35,41v.73c0,2.34,0,5.89-3.14,7.71-2.58,1.5-6.64,1.78-11.4-5.44-3.49-5.29-9.1-8.42-14.31-8a10.28,10.28,0,0,0-7.24,4.3,6.6,6.6,0,0,0-1.1,5.81,15.82,15.82,0,0,0,1.1,2.3A15,15,0,0,1,65.08,53C66.15,59.62,59.64,64.82,53,65.86a44.33,44.33,0,0,1-8.58.27,40,40,0,0,0-7.22.17,12.45,12.45,0,0,0-9.11,6.9,4.74,4.74,0,0,0,.52,5.16c2.06,2.5,6.12,2.83,10.42,3.17,1.4.11,2.84.22,4.24.42,13.58,1.9,24.47,13.61,24.8,26.68.08,3.21-.49,9.15-5.23,12.83-3.41,2.64-7.94,3.25-11.94,3.8-5,.68-8.17,1.27-9.4,3.78-1.38,2.8.8,6.56,3.11,9.88.36.51,1.09,1.56,1.57,1.68s1.95-1,2.93-1.85c.44-.38.89-.77,1.33-1.11a14.76,14.76,0,0,1,18.78,1.11,13.06,13.06,0,0,1,.23,17.91,19.14,19.14,0,0,1-8,4.73c-6.52,2.25-13.4,2.71-20.06,3.14l-2.89.2c-8.25.59-14.87,1.64-20.41,4.85-5,2.88-9.77,8.84-8.49,15.11a9.85,9.85,0,0,0,6.07,6.71,7.5,7.5,0,0,0,6.73-.26,16.91,16.91,0,0,0,2.9-2.56c.52-.53,1-1.06,1.59-1.57,5-4.63,12.09-7.28,22.27-8.33A99.25,99.25,0,0,1,78.3,180l2,.38.22,1.91c1,8.36-3.91,17.37-13.46,24.72-2.71,2.09-5.6,4-8.4,5.81C53.79,216,49.21,219,45.49,222.89c-.91,1-2.13,2.41-2.08,3.67a4.87,4.87,0,0,0,1.2,2.51c3.92,5.09,11.63,7.47,17.94,5.53,5.85-1.8,10.08-6.47,14.56-11.41A86.5,86.5,0,0,1,84.22,216C87.39,213.21,92,210.77,96.43,210.87Z"/><path class="cls-1" d="M20.4,132.13A15.18,15.18,0,0,0,7,134.72c-3.62,2.92-5.29,8-3.52,12.23s7.18,6.8,11.62,5.23A15.19,15.19,0,0,0,19.92,149,19.68,19.68,0,0,0,26,139.11c.64-2.54.64-3.61-2.91-5.91Z"/><path class="cls-2" d="M12.13,155.27A12.7,12.7,0,0,1,.89,147.94c-2.15-5.08-.34-11.49,4.3-15.24,4.31-3.48,10-4.59,15.91-3.13l.36.12,3,1.16.24.16c4.56,3,4.94,5.18,4,8.72A22.27,22.27,0,0,1,21.81,151a17.48,17.48,0,0,1-5.75,3.71A11.22,11.22,0,0,1,12.13,155.27Zm4.3-21a11.54,11.54,0,0,0-7.64,2.49C6,139,4.79,143,6.05,146s5.17,4.76,8.07,3.74A12.73,12.73,0,0,0,18,147.08a17.11,17.11,0,0,0,5.31-8.59c.41-1.61.42-1.68-1.53-3l-2.28-.88A14.67,14.67,0,0,0,16.43,134.25Z"/><path class="cls-1" d="M146.85,24.62c-.78,13,5.77,0,11.09-.48,12.48-3.34,10.69-24.23-2.85-21.21C144.34,5.34,146.85,24.62,146.85,24.62Z"/><path class="cls-2" d="M148.18,33.05a3.76,3.76,0,0,1-1.57-.35c-2.41-1.08-2.78-3.86-2.55-8-.29-2.52-2-21.55,10.4-24.33,6.72-1.51,12.41,1.83,14.16,8.29,1.87,6.9-1.4,15.76-9.93,18l-.48.08c-1,.1-3.11,1.93-4.34,3C152.05,31.4,150.19,33.05,148.18,33.05Zm9.49-27.77a8.86,8.86,0,0,0-1.94.23c-8.07,1.81-6.14,18.61-6.12,18.78l0,.24,0,.24c0,.63-.05,1.16-.05,1.61l.51-.46c2.13-1.88,4.52-4,7.29-4.38,5.16-1.5,7.07-7.14,5.86-11.57C162.73,8.1,161.36,5.28,157.67,5.28Z"/><path class="cls-1" d="M219.13,147c-2.07,8,.61,17.62,8.08,21.85a11.43,11.43,0,0,0,6.57,1.62c4.71-.42,8.11-4.49,10.19-8.54a21.26,21.26,0,0,0,2.74-10.25,11.41,11.41,0,0,0-4.83-9.22C233.66,137.15,221.9,136.33,219.13,147Z"/><path class="cls-2" d="M232.72,173.19a14.81,14.81,0,0,1-6.93-2c-9-5.1-11.54-16.31-9.36-24.75l2.7.63-2.7-.63c1.53-5.93,5.31-8.44,8.21-9.49,5.37-2,12.58-.66,18.81,3.4a13.93,13.93,0,0,1,6,11.31,23.38,23.38,0,0,1-3,11.51c-3.09,6-7.5,9.57-12.42,10A11.64,11.64,0,0,1,232.72,173.19Zm-2.39-31.88a10.22,10.22,0,0,0-3.71.55c-2.41.88-4,2.83-4.79,5.81-1.69,6.55.1,15.16,6.8,18.94a8.69,8.69,0,0,0,4.89,1.27c3.94-.36,6.67-4.58,7.95-7.07a18.51,18.51,0,0,0,2.46-9,8.81,8.81,0,0,0-3.62-7.11A19.81,19.81,0,0,0,230.33,141.31Z"/><g id="Layer_37" data-name="Layer 37"><path class="cls-3" d="M191.5,44.05A8.71,8.71,0,0,1,195.74,42a4.73,4.73,0,0,1,4.94,4.86,24.39,24.39,0,0,0-11,2.12,48.6,48.6,0,0,0-5.16,2.57c-1.14.64-3.13,2.39-4.35,2.17C183,50,187.75,46.84,191.5,44.05Z"/><path class="cls-3" d="M65.63,44.21a5,5,0,0,1,2.91-3.82,14.77,14.77,0,0,1,4.84-1.2c-1.56,1.38-3.24,3-3.34,5.09a13.33,13.33,0,0,0,.8,3.69,3.65,3.65,0,0,1-.63,3.56C68.78,49.76,65.28,46.68,65.63,44.21Z"/><path class="cls-2" d="M31.6,76.14a4.09,4.09,0,0,1,.81-3.8A8.76,8.76,0,0,1,35.68,70c6.39-3,13.79-2.43,20.81-1.84a30.1,30.1,0,0,0-19.44,6.21c-1,.75-1.7,3.2-2.44,3.57C33.45,78.52,32,77.15,31.6,76.14Z"/><path class="cls-2" d="M66.92,41.6a7.59,7.59,0,0,1,3.62-2,8.67,8.67,0,0,1,4.29-.2,5.52,5.52,0,0,1,3.49,2.39,7.52,7.52,0,0,0-7.16,2.16,9.54,9.54,0,0,0-2.46,7.21c0-.27-1.48-1.46-1.72-1.82a8.07,8.07,0,0,1-1-2.67A5.17,5.17,0,0,1,66.92,41.6Z"/><path class="cls-2" d="M190.69,45.07c1.44-1.33,3-2.74,5-2.93a4.7,4.7,0,0,1,5,4.35c-3.41-1-7,.47-10,2.37-3.61,2.28-6.81,4.71-10.79,6.34C183.29,51.69,187.06,48.43,190.69,45.07Z"/><path class="cls-2" d="M116.71,65.16a10.35,10.35,0,0,0,3.23.36A11.52,11.52,0,0,0,127,62.45c-1.34,1.49-2,3.52-3.38,5A6.44,6.44,0,0,1,119,69.35a6.31,6.31,0,0,1-4.56-2.09C112,64.5,114.41,64.52,116.71,65.16Z"/><path class="cls-2" d="M11.25,137.38c2-1,4.46-.94,6.75-.81a7.61,7.61,0,0,0-2.94.89c-2.2,1.2-3.65,3.4-5,5.51a5.13,5.13,0,0,0-1,2.78C6.08,143.34,8.42,138.83,11.25,137.38Z"/><path class="cls-2" d="M13.92,176a10.49,10.49,0,0,0-2.32,4.44,7.29,7.29,0,0,0,4.57,8,15.87,15.87,0,0,1,2.55-11.27c2.23-3.46,5.43-5.24,8.32-7.95-1.69-.8-5.63,1.15-7.21,2A19.13,19.13,0,0,0,13.92,176Z"/><path class="cls-2" d="M45.05,130.74c.38-1.29,1.81-1.91,3.11-2.24a19.51,19.51,0,0,1,5.9-.52c-2.36,1.25-4.81,2.58-6.31,4.78a16.54,16.54,0,0,1-1.37,2A4.21,4.21,0,0,1,45.05,130.74Z"/><path class="cls-2" d="M106.07,237.42a3.77,3.77,0,0,0,.26,2.26c.59,1.07,2,1.37,3.17,1.57.62.09,1.42.1,1.68-.47a1.51,1.51,0,0,1-1.6-.71,4.21,4.21,0,0,1-.55-1.78c-.63-4.4.43-10.35-1.1-14.4C107.57,228.44,106.5,232.88,106.07,237.42Z"/><path class="cls-2" d="M50.07,230.57c-1.51-1-3.21-2.35-3-4.13.17-1.27,1.29-2.16,2.31-2.92l13.19-9.73-8,9.32a12.22,12.22,0,0,0-2.07,2.94,6.21,6.21,0,0,0-.12,4.62.91.91,0,0,1,0,.79A7.37,7.37,0,0,1,50.07,230.57Z"/><path class="cls-2" d="M129,209.22a14,14,0,0,1,3.22-.63c2.4-.26,4.93-.51,7.14.46a1.92,1.92,0,0,0-.59-1.33,7.16,7.16,0,0,0-6.71-2.05,11.3,11.3,0,0,0-6.19,3.73c-.55.65-1.32,1.65.09,1.66C126.65,211.06,128.23,209.5,129,209.22Z"/><path class="cls-2" d="M158.37,218.33c3.23-.22,6.26-1.58,9.18-3a52.62,52.62,0,0,0,8.85-5,44.47,44.47,0,0,1-14,4.73,27.24,27.24,0,0,1-14.6-1.73c1.8.82,2.9,2.7,4.6,3.68A10.74,10.74,0,0,0,158.37,218.33Z"/><path class="cls-2" d="M208.8,186.34c1-2.14.44-4.66-.19-7a9.79,9.79,0,0,0-.74-2.11,10.65,10.65,0,0,0-1.93-2.41l-3.52-3.61c1.09,1.11,1.63,3.83,2.06,5.29a33.39,33.39,0,0,1,1.16,5.86,29.78,29.78,0,0,1,.18,3c0,.57-.34,2.33-.06,2.78C206.71,189.65,208.35,187.3,208.8,186.34Z"/><path class="cls-2" d="M197.69,114.79a12.06,12.06,0,0,1,6.38,7.54c.81,3.3-.48,7.17-3.44,8.84.88-2,1.78-4.06,1.54-6.21a9.25,9.25,0,0,0-2.87-5.23,18.36,18.36,0,0,0-4.66-3.4c-1-.51-4.64-1.06-5.16-1.78C187.17,111.33,196.76,114.31,197.69,114.79Z"/><path class="cls-2" d="M152.38,11.32a9.6,9.6,0,0,1,3.37-3.24,4.8,4.8,0,0,1,1.88-.72A3,3,0,0,1,161,10.52a9.06,9.06,0,0,0-5.48,1.25,12.3,12.3,0,0,0-2,1.44c-.52.45-1.13,1.45-1.71,1.73-.8.38-.44-.8-.33-1.31A7.56,7.56,0,0,1,152.38,11.32Z"/><path class="cls-1" d="M151.54,15.51a.68.68,0,0,1-.44-.15c-.45-.36-.28-1.07-.15-1.64l0-.19a8.13,8.13,0,0,1,1-2.47,10.12,10.12,0,0,1,3.55-3.41,5.33,5.33,0,0,1,2.07-.79,3.51,3.51,0,0,1,3.92,3.68l0,.53-.53-.06a8.54,8.54,0,0,0-5.18,1.2,11.83,11.83,0,0,0-1.92,1.38,6.49,6.49,0,0,0-.57.63A4.27,4.27,0,0,1,152,15.39,1.12,1.12,0,0,1,151.54,15.51ZM158,7.84l-.28,0a4.28,4.28,0,0,0-1.68.65,9,9,0,0,0-3.2,3.07h0a6.92,6.92,0,0,0-.84,2.15l-.05.21c0,.09,0,.22-.07.35a6.45,6.45,0,0,0,.65-.71,7.39,7.39,0,0,1,.69-.75,14,14,0,0,1,2.07-1.49A9.7,9.7,0,0,1,160.47,10,2.52,2.52,0,0,0,158,7.84Z"/><path class="cls-2" d="M223.26,151.13c-.31-3.2,2.24-6.22,5.33-7.14a11.88,11.88,0,0,1,9.25,1.6,12.47,12.47,0,0,0-11.68,6.62c-.57,1.08-.77,3.33-1.57,4.09C224.23,154.58,223.42,152.89,223.26,151.13Z"/><path class="cls-2" d="M140.4,51a4,4,0,0,1,1.87-.88,1.38,1.38,0,0,1,1.55,1.07c.09.91-1,1.44-1.88,1.69s-4.58,1.77-5,1.11S140,51.35,140.4,51Z"/></g></g></svg>