<svg xmlns="http://www.w3.org/2000/svg" xmlns:xlink="http://www.w3.org/1999/xlink" viewBox="0 0 500 200"><defs><style>.cls-1{fill:#666;}.cls-2{fill:#999;}.cls-3{fill:#4d4d4d;}.cls-4{fill:#b3b3b3;}.cls-5{filter:url(#AI_Shadow_1);}.cls-6{fill:#00fa00;}.cls-7{fill:#d2f78b;}</style><filter id="AI_Shadow_1" name="AI_Shadow_1"><feGaussianBlur result="blur" stdDeviation="2" in="SourceAlpha"/><feOffset result="offsetBlurredAlpha" dx="4" dy="4" in="blur"/><feMerge><feMergeNode in="offsetBlurredAlpha"/><feMergeNode in="SourceGraphic"/></feMerge></filter></defs><g id="teach_me" data-name="teach me"><path class="cls-1" d="M7.78,9c2.43,2.59,5.46,4.55,8,7,1.61,1.54,3.07,3.19,5.09,4.18a9.64,9.64,0,0,1,3.63,4,5.21,5.21,0,0,1,.91,2,26.56,26.56,0,0,1,0,3.09c0,1.17-.36,2.11-.42,3.25s0,2.35,0,3.51V43.8a56.05,56.05,0,0,0,.36,9.36A39.57,39.57,0,0,1,25.83,60a27.65,27.65,0,0,1,0,3.28c-.24,1.83-2.09,2.66-1.62,4.75a14.41,14.41,0,0,0,.9,1.91c.28.72.39,1.48.69,2.2a8,8,0,0,1,.4,3.42c0,1-.08,2.12,0,3.16s.39,1.71.42,2.64c.07,1.84.4,3.58.39,5.44,0,3.28.48,7-.2,10.22-.48,2.29.62,4.19.6,6.52,0,.81,0,1.64,0,2.45,0,1,.37,1.86.44,2.81.12,1.78,0,3.68,0,5.46s-.42,3.5-.42,5.31a26.13,26.13,0,0,1-.5,5.72c-.58,2.75-1,5.6-1.52,8.39a43.9,43.9,0,0,0-.38,7.77c0,1.05,0,2.09,0,3.13,0,1.42-.35,2.73-.44,4.13-.13,2.17,0,4.41,0,6.6a15.49,15.49,0,0,0,.5,4.18c.19.76.5,1.57.64,2.35.07.4-.05.95.06,1.33s.35.6.42,1.13a30.32,30.32,0,0,1,0,3.93,17,17,0,0,1-.4,4.12c-.27,1.15-.21,2.23-1,3.08a7.88,7.88,0,0,1-.8.83c-.49.38-.67.24-1.22.4s-.73.32-1.18.43-1.18-.11-1.75.06c0,.22-.09.45-.15.67-1.27.09-3.11,1.41-4,2.11s-.94,1.08-1.91,1.26a10.39,10.39,0,0,0-2.43.82c-1.25.56-2.69,1.09-4,1.65-.57.25-1.22.32-1.82.64s-1.3.87-1.93,1.25a5.06,5.06,0,0,1-.8-3.61,24.41,24.41,0,0,0,.55-7.24,28,28,0,0,0-1.65-7.29c-.88-2.67-.08-4.79.65-7.36a6.46,6.46,0,0,0,.1-3.09c-.27-1.1-.94-2-.76-3.22a46.11,46.11,0,0,0,.83-7,23.44,23.44,0,0,1,0-2.78c.1-.85.6-1.51.73-2.39.48-3,0-6.31.06-9.38.06-1.8.61-3.28.06-5.05a39.19,39.19,0,0,1-1.46-5.56,27.56,27.56,0,0,1,1-11.45,23.85,23.85,0,0,0,.82-3.09,10.66,10.66,0,0,0-.51-3.75,33.78,33.78,0,0,1-1.14-7.19c0-1.24,0-2.48,0-3.71a9.37,9.37,0,0,1,.16-3.22c.29-.76.82-1.07,1-2a23.2,23.2,0,0,0,.05-4.16c0-4.25.33-8.6-.38-12.81-.39-2.33-1.23-4.66-1.25-7a21.61,21.61,0,0,0-.18-2.9C1.05,56.69,2,54.1,3,50.72c.77-2.72.08-5.89,0-8.7s-.35-5.73-.72-8.53a57.78,57.78,0,0,1-.09-7.21c0-.79-.07-1.61,0-2.39A17.17,17.17,0,0,1,3,20.77c.67-2.77.42-5.81.39-8.64,0-1-.17-1.06.58-1.5A31.74,31.74,0,0,0,7.78,9Z"/><path class="cls-2" d="M475.66,21.29c.58.14,1-.6,1.46-1,.81-.83,1.65-1.61,2.44-2.48.59-.64,1.06-1.43,1.61-2.14.67-.86,1.31-1.8,2-2.61s1.53-1.33,2.25-2c1.09-1.07,1.68-2.55,2.59-3.81.31-.43.77-1.14,1.23-1.24s.46.21.78.32.73-.21,1.1-.28c.18,2,.5,4,.49,6.06,0,1.34,0,2.68,0,4a23,23,0,0,0,.1,4.32,24.66,24.66,0,0,0,1,3.22c.49,1.37.34,3.14.6,4.61.35,1.87.33,3.81.65,5.7a54.33,54.33,0,0,1,.75,6c.05.92-.08,1.88.06,2.79.09.58.27,1.13.36,1.71.2,1.39.43,2.74.68,4.11a14.45,14.45,0,0,1-.18,4.15c-.25,2-.44,3.84-.62,5.8-.12,1.22-.2,2.42-.3,3.63-.11,1.42-.44,2.68-.43,4.13q0,3.41,0,6.8a12.22,12.22,0,0,0,.29,2.51c.17.92.15,1.88.27,2.82s.31,2,.47,3c.12.79.08,1.57.15,2.37.31,3.49.18,7,.18,10.56v-.19a38,38,0,0,0,0,4.4,49.21,49.21,0,0,0,.67,5.6c.34,1.35,0,2.73,0,4.15a37,37,0,0,1,0,4.47,20.89,20.89,0,0,0-.49,4.77c.1.8.43,1.42.52,2.22a17.35,17.35,0,0,1,0,3.53c-.24,2-1,3.9-1,6a38.32,38.32,0,0,0,.18,5.36,29.31,29.31,0,0,1,.05,3.75,31.77,31.77,0,0,1-.05,3.52,45.23,45.23,0,0,0-.37,4.94,15.5,15.5,0,0,0,.23,3c.1.51.16,1,.22,1.53.09.86.61,1.54.6,2.37s-.22,1.53-.23,2.31c0,.54,0,1.07,0,1.61a4.69,4.69,0,0,0,0,1.06c0,.18.15.3.17.46a6.12,6.12,0,0,1-.19,1.4c-.5,3.9,0,7.83,0,11.75,0,2,.15,4.06,0,6-.08.84-.11,1.58-.15,2.42,0,1-.26,1.91-.22,2.92a8.61,8.61,0,0,1,.11,2.53,4.11,4.11,0,0,1-.76,1.65c-.37.43-.68.88-1,1.33a9.32,9.32,0,0,0-.66.86c-.32.5-.18.8-.37,1.28a.85.85,0,0,1-1.15.53,3.65,3.65,0,0,1-.68-.68c-.2-.29-.27-.65-.48-1a12.43,12.43,0,0,0-.73-1.51c-.59-.78-1.12-1.57-1.71-2.37a23.25,23.25,0,0,0-1.3-1.93c-.46-.54-.94-1-1.41-1.59s-.84-.5-1.28-.84-.91-.79-1.34-1.17a12.75,12.75,0,0,1-2.21-2.92,4.45,4.45,0,0,1-.52-1,6.66,6.66,0,0,1-.19-1.39,43.67,43.67,0,0,1-.16-5.37v-7.9c0-2.83,0-5.6.2-8.42.22-3,.43-6,.42-9,0-5.56.45-11.4-.62-16.83a39.33,39.33,0,0,1-.89-5.65c-.16-2.69-.47-5.35-.62-8-.14-2.5-.11-5-.25-7.51a67.84,67.84,0,0,1-.08-7.94,34.8,34.8,0,0,1,1.12-6.54,21.24,21.24,0,0,0,.54-2.26,43,43,0,0,0,.61-6.92,46,46,0,0,0-1.22-9.52c-1.27-6.27-1.47-12.69-2.11-19.09-.27-2.7-.35-5.34-.4-8.06,0-1.57-.23-3.11-.22-4.67,0-.94,0-1.88,0-2.82v.17a23.64,23.64,0,0,0-.26-2.92c-.11-.72-.05-1.43-.15-2.13,0-.26-.18-.42-.22-.71a8.37,8.37,0,0,1,0-1.12c0-.72.05-1.47,0-2.18a25.5,25.5,0,0,0-.48-2.61,3.9,3.9,0,0,1,0-1.86A32.46,32.46,0,0,0,475.66,21.29Z"/><path class="cls-2" d="M489.49,7.6A6.07,6.07,0,0,1,489.2,6a2.27,2.27,0,0,0-.4-1.43l-.09-.42a2.53,2.53,0,0,0-.36-.12c-.11-.11-.2-.34-.33-.43s-.4-.06-.58-.11-.26-.19-.5-.22-.48.08-.7,0S486,3,485.81,3a6,6,0,0,0-2.1-.26c-.61,0-1.24,0-1.85,0s-1.3.27-2,.3c-1.29.06-2.52.5-3.81.55-2.25.08-4.53,0-6.79,0a23,23,0,0,1-3.7-.28,34.22,34.22,0,0,0-3.9-.56c-1.64,0-3.29,0-4.94,0a12.91,12.91,0,0,1-3.62-.2,13.18,13.18,0,0,0-7.33.4,12.33,12.33,0,0,1-3.68.34A10.42,10.42,0,0,1,438.69,3a10.49,10.49,0,0,0-3.49-.27h-4.27c-2.81,0-5.62,0-8.43,0-1.31,0-2.57-.27-3.89-.28H415c-.85,0-1.71,0-2.56,0a12.64,12.64,0,0,0-2.24.49c-1.63.37-3.08-1-4.65-1.06a13.49,13.49,0,0,0-3.36.08,22,22,0,0,1-3.12.5c-1.24.06-2.5.29-3.74.26-1.47,0-2.73.71-4.23.56-.41,0-.76-.25-1.16-.3s-.68.07-1,0c-1.85-.23-3.64-1-5.54-.84-.92.05-1.78.31-2.71.29a5.68,5.68,0,0,0-1.54,0,8.93,8.93,0,0,1-2.08.52c-.62,0-1.23-.06-1.85,0a13.58,13.58,0,0,0-2.25.52,9.29,9.29,0,0,1-1.75,0,16.55,16.55,0,0,1-2.54-.06,19.21,19.21,0,0,0-3.47-.22c-1.23,0-2.41.23-3.63.29s-2.65,0-4,0a3.22,3.22,0,0,1-1.78-.26,2.6,2.6,0,0,0-1.21-.57,31.55,31.55,0,0,0-3.18-.55,5.92,5.92,0,0,0-3.22.62,10.09,10.09,0,0,1-4.78,1,41.2,41.2,0,0,0-6.48.06,6.75,6.75,0,0,1-3,0,4.57,4.57,0,0,1-1.54-.41,7.91,7.91,0,0,0-4.11-.74c-1,0-1.94-.28-3-.28a8.62,8.62,0,0,0-4.11.83,11,11,0,0,1-1.11.51,19,19,0,0,1-3.23-.55,28.22,28.22,0,0,0-4.47-1.06c-.67-.09-1.31-.05-2-.18a7.46,7.46,0,0,0-1.79-.33c-4.27.06-8.51.85-12.77.83h-2.07c-2,0-3.88.37-5.84.42-3.1.09-6.15.75-9.24.84-2.05.07-3.94-.62-6-.85-1.82-.2-3.6-.74-5.41-1-1.56-.25-3.14-.34-4.71-.52a8.74,8.74,0,0,0-2.5-.05c-3.37.58-6.49,2.58-9.86,3.18-1.86.34-3.86,1.27-5.71,1.34s-3.6,0-5.39,0a42,42,0,0,1-5.57-.8c-1.35-.17-2.67-.06-4-.33-.74-.15-1.49-.35-2.23-.44a46.89,46.89,0,0,0-6.16-.09,41.13,41.13,0,0,0-6.66.07A30.49,30.49,0,0,1,210,5c-.93,0-1.87-.08-2.8-.06-2.57.07-5.1.43-7.67.44-1.77,0-3.56.09-5.33,0s-3.3-.77-5-.4c-2.24.49-4.31,2.91-6.72,2.38a21,21,0,0,0-4-.34,18.31,18.31,0,0,1-2.22-.35,7.51,7.51,0,0,0-2.79.24c-1.87.32-3.76-.11-5.62.08-1.31.14-2.57,1.2-3.87,1.66a14,14,0,0,1-5,.82,30.29,30.29,0,0,1-5.13-.21c-3.56-.65-7.15.79-10.71-.19-.6-.16-1-.7-1.65-.86-1.21-.31-2.45.13-3.7-.37a12.36,12.36,0,0,0-4.66-1.26h-3c-2.71,0-5.32.42-8,.41a21.62,21.62,0,0,1-3.94,0c-.53-.1-1-.58-1.45-.75a5.58,5.58,0,0,1-2.93-1.73c-1.81-2.12-5.2-1.12-7.41-.72a57.53,57.53,0,0,0-7,1.46,11.31,11.31,0,0,1-2.5.5,16.46,16.46,0,0,0-2.73.74c-.66.16-1.34-.09-2,0-.31.06-.55.26-.84.34-1.5.4-3.1,0-4.62.18a33.48,33.48,0,0,1-5.29.32c-1.56,0-3,.35-4.57.43-1.77.1-3.57,0-5.34,0-1.3,0-2.5.45-3.8.43-2.44,0-4.76.41-7.19.4-1.8,0-3.62.09-5.42,0a13.61,13.61,0,0,1-3.73-.93c-.76-.25-1.65-.9-2.35-1.06a7,7,0,0,0-1.59-.09,21.83,21.83,0,0,1-4.7-.32,17.64,17.64,0,0,0-3.25-.08,17.33,17.33,0,0,1-2-.43,6.34,6.34,0,0,0-2.39.38,7.16,7.16,0,0,1-3.28-.34c-.65-.14-1.3.07-1.93-.12a4.47,4.47,0,0,0-.72-.33,3.23,3.23,0,0,0-.76,0H24.49a14.47,14.47,0,0,0-4.06.92,20.76,20.76,0,0,1-5.67,1.13c-1.43,0-2.85,0-4.27,0A4.29,4.29,0,0,0,7.4,8.93c-.85.85-.58,2.15-.58,3.39a10.94,10.94,0,0,0,2.65,3c1.4,1,3,1.53,4.31,2.7s2.6,2.62,4,3.73a11.77,11.77,0,0,0,3.72,2.05,15.91,15.91,0,0,0,4,0c1.13,0,2.12.46,3.24.43a6.38,6.38,0,0,1,3.1.49,3.88,3.88,0,0,0,2,.73,36.75,36.75,0,0,0,4.32-.31,16.66,16.66,0,0,1,4.78.22c2.45.35,4.94.17,7.4.51,3.07.41,6.06.27,9.14.42s5.92,1.09,8.9,1.34c5,.42,10-.18,15,.42s9.73,2,14.65,2.68c4.36.58,8.8.57,13.18.9,2.94.23,5.77.39,8.7.33a142.58,142.58,0,0,0,19.37-1.17,31.89,31.89,0,0,1,9-.63c2.18.26,4.35.59,6.54.84,5.48.63,11,1.13,16.45,1.85,4.05.53,8,1.46,12.08,2,1.92.29,3.86.46,5.76.81s3.53.87,5.29,1.1c6.62.87,12.52-1.76,18.67-4.39,4.58-2,9.47-2.8,14.21-4a143,143,0,0,1,20.91-3.22c8.46-.86,16.89-1.9,25.3-3.35a159.7,159.7,0,0,1,20-2.5,36.84,36.84,0,0,0,6.8-.45c1-.23,2.06-.55,3.1-.76s2-.3,2.92-.48a9,9,0,0,1,1.32-.09,3.15,3.15,0,0,0,.3,1.19c.33.39,1.14.43,1.54.51a15.26,15.26,0,0,0,1.63.35c1.54.16,3-.11,4.57.3a72,72,0,0,0,14.76,2.39c4.18.21,8.38.23,12.57.29,4.38.07,8.73.78,13.1,1.06,5.48.35,11-.51,16.51-.72A115.28,115.28,0,0,1,393,24.19c4.46.62,8.92,1.08,13.38,1.66a64.53,64.53,0,0,0,8.44.64c4.61,0,9.2-.58,13.81-.61,2.59,0,5.19.06,7.79,0,3.86,0,7.7-.36,11.56-.32a34.28,34.28,0,0,1,6.38.81,27.42,27.42,0,0,0,9-.23,39,39,0,0,0,5.77-.93,67.17,67.17,0,0,0,12-5.13c.69-.35,1.77-.66,2.46-1a7.8,7.8,0,0,0,1.38-1.15c.74-.66,1.32-1.45,2-2.14a14.14,14.14,0,0,0,2.31-3.27A6.63,6.63,0,0,0,489.49,7.6Z"/><path class="cls-3" d="M491.53,185.74c-1.06-3.5-7.82-4.7-9.24-7.8-.56-1.22-3.41-4.92-4.15-6-.63-.91,2.48-1.41,1.66-2-1.48-1.08-.39.15-2.09-.2a63.84,63.84,0,0,0-13.57-1.24,77.13,77.13,0,0,1-15.07-1.39,67.63,67.63,0,0,0-17-.71c-6.48.51-13.07.71-19.52,1.57a23,23,0,0,1-7.89.14,33.27,33.27,0,0,0-10.86-.3,60.74,60.74,0,0,1-8.07.69c-5.55,0-11.19.42-16.72.06-5.72-.38-11.36-2.12-17.13-1.65-5.05.42-9.92,2.13-15,2.2-4.56,0-9.08-.67-13.64-.61-2.27,0-4.46-.4-6.69-.56a15.44,15.44,0,0,0-6.33.79c-1.26-.15-2.51-.34-3.77-.56-4.87-.86-9.44-1.94-14.38-1.92-5.56,0-11.15-.27-16.68.4-5.73.7-11.9,1.65-17.55-.09a38.56,38.56,0,0,0-9.3-1.91c-3.52-.17-7.06,0-10.59,0-10.48,0-20.95.47-31.43.55a58,58,0,0,1-11.38-.8c-3.11-.59-6.16-1.5-9.3-1.85-2.72-.31-5.49,0-8.21-.07-2.21,0-4.38-.29-6.59-.44-4.17-.28-8.3,0-12.46-.65a52,52,0,0,1-8.68-1.76,47.81,47.81,0,0,0-8.73-2.3,93.94,93.94,0,0,0-11.71-.92c-5.08-.09-10.19,1.42-15.15,2.47-2.8.59-5.61,1.5-8.42,1.87a65.77,65.77,0,0,1-8.54.08,128.77,128.77,0,0,1-15-.82c-5.44-.63-11.68-1-17,.85-2.78,1-5.93.53-8.81.52s-5.9-.12-8.3,2c-.88.8-1.2,2-2.25,2.71a16,16,0,0,1-6.26,2.31c-2.66.57-4.9,2.18-7.44,3.16-2.26.86-4.28,2.8-6.72,2.85-1.66,0-3.33,0-5,0a12.32,12.32,0,0,0-4.2.41,33.09,33.09,0,0,0-4.21,1.7,27.31,27.31,0,0,1-2.76,1.28,5.52,5.52,0,0,1-1.44.41c-.65.08-1,.62-1.67.66,0,.15-.83.61-.83.76a4,4,0,0,1-.24,1.25c-.11.47,0,.92-.14,1.39a9.75,9.75,0,0,1-.8,2.43c-.51,1-.37,1.15.47,1.64.58.33.88,1,1.41,1.38s1.44.25,2.16.45,1.16.92,1.75,1.14a12.12,12.12,0,0,0,4.41.82,5.51,5.51,0,0,1,3,.79,5.92,5.92,0,0,0,3.58.34,9.35,9.35,0,0,1,2.06-.36H25c2.2,0,4.35-.41,6.53-.39.9,0,1.79,0,2.68,0,1.82,0,3.9-.37,5.68.07,2.26.55,4.42,1.64,6.75,1.84,2.75.25,5.58,0,8.34,0,3.19,0,6.37,0,9.56,0a67.47,67.47,0,0,0,8.27-.79,21,21,0,0,0,3.71-.78,27.11,27.11,0,0,1,4.11-.58,17.73,17.73,0,0,1,4.66,0,28.57,28.57,0,0,0,8.46-.17c2.92-.52,5.53-1.35,8.34,0,1.27.6,2.58,1.1,3.86,1.66a6.39,6.39,0,0,0,2.78.28,26.74,26.74,0,0,0,3,0,16.41,16.41,0,0,0,1.94-.54,8.18,8.18,0,0,1,3.19-.16c.92.12,1.8.48,2.71.65a12.19,12.19,0,0,0,2.26,0c1.4,0,2.67.77,4,.82,1.56.06,3.05.35,4.62.37a14,14,0,0,0,2.87-.27c1.34-.27,2.58-1,3.92-1.23,2.71-.44,5.64-.08,8.37,0,1.31,0,2.56-.34,3.86-.41,1.86-.1,3.73.31,5.58-.17,2.61-.67,4.78-3.17,7.49-3.32,1.87-.1,3.25.92,5,1.35s3.35.13,5,.29a38.36,38.36,0,0,1,4.06.81,15.42,15.42,0,0,0,5.78-.25c1.58-.24,3.08.42,4.64.53a34.7,34.7,0,0,0,4.21.42c2.11-.1,4.19-.61,6.29-.8a6.22,6.22,0,0,1,3.92,1c.47.31.76.75,1.31.94a10.86,10.86,0,0,0,2.28.08c3.32.34,6.63,1.22,9.95,1.49,2.75.22,5.44.4,8.21.42a33.88,33.88,0,0,0,7.24-.59c1-.21,2.08-.39,3.12-.53a5.56,5.56,0,0,1,2.38.34c1.55.43,3,.2,4.51.48a36.8,36.8,0,0,0,5.84.28c1.65,0,3.25.45,4.9.42a26,26,0,0,1,3.07.36A9.45,9.45,0,0,0,258,194a7.48,7.48,0,0,1,2.44-.72l0,.22a10.79,10.79,0,0,0,2.21,0h8.63c1.27,0,2.55,0,3.83,0s2.41-.5,3.65-.59a35,35,0,0,0,4.22-.25,30.34,30.34,0,0,1,5.22-.24,28.14,28.14,0,0,0,5.09-1,16.58,16.58,0,0,1,3-.08c1.26,0,1.81-1,3-1.16a9.17,9.17,0,0,1,2,0,10.51,10.51,0,0,1,1.52.44,16.73,16.73,0,0,1,1.47.82c.62.29,1.28.89,1.83,1.13,1.05.45,2.66.1,3.78.11,2,0,3.76-.88,5.74-1.13a14.07,14.07,0,0,1,5,.46c1.26.3,2.54.11,3.81.39a18.58,18.58,0,0,0,4.15.28c.72,0,1.45,0,2.17,0a11.11,11.11,0,0,1,2.18.59,6.6,6.6,0,0,0,1.83,0c1.22-.12,1.94-1.25,3.12-1.58,1.63-.46,3.41-.09,5.09-.51,1.5-.37,2.81.09,4.3.31a38.48,38.48,0,0,0,7.12.15c1.4-.07,2.73-.56,4.12-.6a10.81,10.81,0,0,0,4.08-.74c2.91-1.15,6.06-1.07,9.12-.92,1.7.09,3.39,1,5.09,1.29,1.24.26,2.49.56,3.72.81s2.26-.07,3.36.18a20.53,20.53,0,0,0,4.78.5c3.69,0,7.33.55,11,.55a45.85,45.85,0,0,0,6.31-.13c2.16-.29,4.29-.74,6.48-.3a14.11,14.11,0,0,0,5.79.15c1.85-.35,3.71-.21,5.58-.54a7.08,7.08,0,0,1,5.41.67c2.31,1.25,4.37,1.25,6.85,1.24,1.83,0,3.66,0,5.5,0,1.53,0,3.32-.81,4.76-.56a17.54,17.54,0,0,1,1.87.77,10.11,10.11,0,0,0,3.14.35c2.34,0,4.5.26,6.83.48,3.07.28,6-.52,9-.51a20.39,20.39,0,0,0,9.56-2.22,16.71,16.71,0,0,1,6.79-1.62c1.35-.06,3.27-.39,4.59,0,1,.27,1.72,1.71,2.91,1.09C493.2,190.47,492.09,187.58,491.53,185.74Z"/><path class="cls-4" d="M482.86,176.14a32.58,32.58,0,0,1,0-4.07c0-1.59-.52-2.29-.9-3.76a13.13,13.13,0,0,1-.1-3.14,25.41,25.41,0,0,0-.5-5.48c-.46-2.34-.28-4.49-.54-6.81-.12-1-.43-2-.48-3-.12-2.26.18-4.51-.09-6.76a53,53,0,0,1-.38-6.33c0-2,0-4,0-6.06,0-3.27.89-6.37,1-9.63.07-1.71-.07-3.45-.05-5.17.05-3.54,1.05-7,1.42-10.55.26-2.58-.33-4.73-.41-7.24s-.1-5.15-.38-7.76c-.15-1.46,0-3-.15-4.45a62.31,62.31,0,0,1-.46-6.26,40.6,40.6,0,0,1,.12-5.52c.3-2.15.14-4.39.49-6.51a31,31,0,0,0,.39-5.37,31.11,31.11,0,0,0-.91-5.85c-.56-3.29-.09-7.29-.09-10.65,0-4.64.4-9.68-.38-14.13a47.35,47.35,0,0,1-.65-4.76c-.15-2.39.9-3.74,1.45-5.92.51-2,1-3.46-.29-5a6.64,6.64,0,0,0-3.11-2.27,4.81,4.81,0,0,0-2.64.48,8.41,8.41,0,0,1-2.46.14,9.15,9.15,0,0,0-3.35.45,19.1,19.1,0,0,1-4.64,1.39c-2.18.12-4.42,0-6.61,0-6.3,0-12.54,0-18.73,1.2-1.38.26-2.56,1.16-4,1.21a16.36,16.36,0,0,1-3.5-.61,10.53,10.53,0,0,1-3.17-1.19c-1-.59-1.33-1.16-2.53-1.22-2.89-.13-5.8,0-8.7,0-3.54,0-7,.6-10.49.6a23,23,0,0,1-3.52,0c-.69-.11-1-.47-1.71-.63-1-.24-2.06.17-3.05,0s-2.18-.39-3.21-.69-1.9-1-3-1.08a17.38,17.38,0,0,0-2.5,0c-1.2.11-2.18.65-3.45.63-1.85,0-3.71,0-5.56,0s-3.67.62-5.69.6c-1.71,0-3,.76-4.74.61-1.26-.11-2.28-.61-3.61-.61a20.59,20.59,0,0,0-3.86.63c-3.43.6-7.35-.05-10.81,0a22.18,22.18,0,0,1-5.41-.9,19.14,19.14,0,0,0-4.74-.3,28.92,28.92,0,0,1-6.38-.47c-.88-.19-1.73,0-2.6-.12s-1.18-.57-2-.64c-1.46-.13-3.21,1.2-4.48,1.84a10.12,10.12,0,0,1-4.5,1.19,8.12,8.12,0,0,1-1.71-.05c-.33-.08-.38-.47-.76-.58a10.13,10.13,0,0,0-2.52,0,13,13,0,0,0-2.49,0,6,6,0,0,0-.84.25c0-.27,0-.54-.06-.8-1.4-.59-4.44-.09-5.59-.09h-9.54c-3.95,0-7.89,0-11.84,0-5.42.05-11.1-1.85-16.49-.88-4.57.83-9,2.88-13.64,3.46-3.84.48-7.53-.87-11.38-.82-4.56.07-9.12,0-13.68,0a162.24,162.24,0,0,0-17.22.71,9.22,9.22,0,0,0-3.49.63c-2.84,1.51-2.3,5.32-2.61,8.63-2.7,1-3.78,4.33-4.44,7.3-2.32-3.25-.13-13.46-3.56-13.8-2.69-.27-6.2,1.61-8.84,2.23-5.95,1.39-13.45,3.16-19.37.7-6.16-2.55-12.72-2.46-19.22-2.85-3.19-.2-6.11-1.19-9.31-.67-4.67.77-9.39,4.09-14,2-2.36-1.09-4.22-3.15-6.7-4.07-3-1.11-7.12-.94-10.25-.83-8.19.29-16.21,2.7-24.41,2.86-3.63.07-7.44-.5-11,.73A42.53,42.53,0,0,0,70,23.82c-2.24,1.28-4.77,2.66-7.31,2.57-3.3-.11-7.14-2.49-10.3-3.49-4.1-1.3-7.85-2.31-12.11-1.54-3.86.7-7.7.5-11.54,1.36-2.45.56-4.23-1.95-6.71-1.92l-4.21-.38c-.06.93-.66,1.42-.81,2.18A15.22,15.22,0,0,0,17,25.7c0,2.27,0,4.54,0,6.81a19.29,19.29,0,0,1,0,3.22c-.15.74-.67,1-.81,1.73-.49,2.48.45,4.37,1.17,6.4.63,1.76.26,3.91.33,5.9.09,2.4.75,4.32.75,6.81,0,4.25-2.12,7.49-1.52,11.81.31,2.21,1.43,4.07,1.53,6.35.13,2.84,0,5.75,0,8.59a32.37,32.37,0,0,1-.35,7.31A32.85,32.85,0,0,0,17,98.55a19.59,19.59,0,0,0,1.09,6.61,19,19,0,0,1,1.12,7c0,2.74-.79,4-1.31,6.31s-.16,5.16-.16,7.56a44.88,44.88,0,0,0,0,5.91c.34,2.4,1.48,4.3,1.52,6.81,0,2.11,0,4.24,0,6.35,0,2.47-.76,4.38-.73,6.81,0,3.79.8,9.52-.72,12.72s-3.5,9.16-1.89,12.74,6.83,2.71,9.61,2.7c2,0,3.35.67,5.21.94,2.26.33,4.76,0,7.06,0,4.51,0,11.07,1.4,15.31-.86,4.87-2.6,9.2-2.77,14.42-2.77a27,27,0,0,1,6.63.46c2.1.52,4.59-.2,6.67.42,1.49.44,3.39,1.83,5.16.9s2-4.78,4.42-5.37c1.81-.45,5,2.77,6.63,4a9,9,0,0,0,5.87,2.29c1.15,0,1.88-.59,3-.84.88-.22,2.08.34,2.88-.12s1.64-2,2.27-2.76c1.45-1.74,2.21-4.23,3.78-5.87,1.83,3.3-1.71,7.1,2.51,8.91,5,2.14,10.95.53,16-.43,4.39-.84,8.71-2.65,13.07-3.41,2.74-.48,5.93,0,8.68,0,4.66,0,9,.62,13.62.89a23.19,23.19,0,0,1,6,.87c1.85.59,4.42,1,6.18,1.89,3.51,1.77,7.79,1.82,11.81,1.8a44.75,44.75,0,0,1,8,.2c6.18,1.1,12.38.68,18.63.7a154.13,154.13,0,0,0,17.18-.7,38,38,0,0,1,11.47.5,26.94,26.94,0,0,0,15.69-1.86,6.32,6.32,0,0,1,3.24-.66c1.87,0,2.32-.24,3.75-1.9,1.71-2,2.24-2.54,4.36-2.64,1.86-.08,3.73,0,5.58,0,3,0,6.29-.65,9,.91a20.06,20.06,0,0,0,2.78,1.73,16.36,16.36,0,0,0,5.46.13c4.09-.33,7.71-.75,11.7-1.46a10.18,10.18,0,0,0,5-2c1.6-.41,3.32.37,5,0a16.54,16.54,0,0,1,10,1c1.23.45,2.2-1.09,3.49-1,1.65.09,3.26-.13,4.92.07,1.17.15,2.34.42,3.5.66a13,13,0,0,0,5.12,0,35.28,35.28,0,0,1,6.08-.17c2.43.06,4.76,1.24,7.15,1.81,5.14,1.23,9.77,2.81,15,2.29a78.89,78.89,0,0,0,11-1.69,16.7,16.7,0,0,1,3.9-.68c1.74,0,3.26.89,5,1.19a27.79,27.79,0,0,0,5.08.1c5.1,0,9.94,1.4,15,1.82,3.8.31,7.51-1.14,11.3-.49,4.13.7,8.66,1.11,12.56,2.92a15.49,15.49,0,0,0,6.18,1.18,56.2,56.2,0,0,0,7.56-.57c2.06-.22,4.18.26,6.23-.18,1.21-.26,2-1.12,3.14-1.56a11,11,0,0,1,1.86-.26,32,32,0,0,1,6.49-.46h8.59c1.51,0,3.45.45,4.87-.09C483.54,178.34,483.06,177.48,482.86,176.14Z"/><g class="cls-5"><path class="cls-6" d="M113.09,79a2,2,0,0,1-2-2V49.67H100.82a2,2,0,0,1-2-2V38.06a2,2,0,0,1,2-2H137.4a2,2,0,0,1,2,2v9.61a2,2,0,0,1-2,2H127.12V77a2,2,0,0,1-2,2Z"/><path class="cls-7" d="M137.4,38.06v9.61H125.12V77h-12V47.67H100.82V38.06H137.4m0-4H100.82a4,4,0,0,0-4,4v9.61a4,4,0,0,0,4,4h8.27V77a4,4,0,0,0,4,4h12a4,4,0,0,0,4-4V51.67h8.28a4,4,0,0,0,4-4V38.06a4,4,0,0,0-4-4Z"/><path class="cls-6" d="M153.76,79.64a22,22,0,0,1-9.7-1.79,15,15,0,0,1-6.15-5.77A17.14,17.14,0,0,1,135.5,63a16.19,16.19,0,0,1,4.85-12.15c3.2-3.08,7.6-4.65,13.09-4.65,4.41,0,7.84.67,10.49,2.06a14.31,14.31,0,0,1,6.18,6.16,21.39,21.39,0,0,1,2.07,10v1.23a2,2,0,0,1-2,2h-1.8l1.37.12a2,2,0,0,1,1.59,1.07,2,2,0,0,1,0,1.92,17.31,17.31,0,0,1-6.69,6.87C162,79,158.44,79.64,153.76,79.64Zm-2.71-12.06a3,3,0,0,0,.36.56A3.18,3.18,0,0,0,154,69.29a4.13,4.13,0,0,0,2.06-.55,4.64,4.64,0,0,0,1.2-1.16Zm5.67-9.18a2.78,2.78,0,0,0-.64-1.07,2.83,2.83,0,0,0-2.19-.78,2.91,2.91,0,0,0-2.52,1.25,2.83,2.83,0,0,0-.34.6Z"/><path class="cls-7" d="M153.44,48.15q6.06,0,9.56,1.83a12.41,12.41,0,0,1,5.34,5.32,19.32,19.32,0,0,1,1.84,9.06v1.22H148.5a7,7,0,0,0,1.41,3.88A5.12,5.12,0,0,0,154,71.29a6.19,6.19,0,0,0,3-.8,7,7,0,0,0,1.88-1.78l10.66,1a15.24,15.24,0,0,1-5.9,6.1c-2.3,1.23-5.61,1.85-9.91,1.85a20.32,20.32,0,0,1-8.82-1.58,13.05,13.05,0,0,1-5.33-5A15.24,15.24,0,0,1,137.5,63a14.24,14.24,0,0,1,4.24-10.71c2.82-2.72,6.73-4.09,11.7-4.09M148.53,60.4h10.65a7.22,7.22,0,0,0-1.69-4.49,5.27,5.27,0,0,0-7.71.69,7.36,7.36,0,0,0-1.25,3.8m4.91-16.25c-6,0-10.9,1.76-14.48,5.21A18.15,18.15,0,0,0,133.5,63a19.1,19.1,0,0,0,2.71,10.18,16.88,16.88,0,0,0,7,6.52c2.72,1.34,6.18,2,10.58,2,5,0,8.88-.76,11.79-2.32A19.22,19.22,0,0,0,173,71.69a4,4,0,0,0,.22-3.55,4,4,0,0,0,.93-2.56V64.36a23.31,23.31,0,0,0-2.3-10.93,16.34,16.34,0,0,0-7-7c-3-1.54-6.68-2.29-11.42-2.29Z"/><path class="cls-6" d="M184.1,79.64c-3.86,0-6.89-1-9-2.85a9.37,9.37,0,0,1-3.28-7.25,9.57,9.57,0,0,1,2.4-6.64c1.38-1.51,3.58-2.63,6.69-3.39l-6.45-.68a2,2,0,0,1-1.41-.82,2,2,0,0,1-.34-1.59,13.36,13.36,0,0,1,2-5,11.28,11.28,0,0,1,3.84-3.29,14.81,14.81,0,0,1,4.72-1.5,35.05,35.05,0,0,1,6-.48,47.08,47.08,0,0,1,8.17.58,12.11,12.11,0,0,1,5.87,2.73A9.87,9.87,0,0,1,206,53.67a14.28,14.28,0,0,1,.92,4.87V71a13.25,13.25,0,0,0,.2,2.68,13.18,13.18,0,0,0,.95,2.45,2,2,0,0,1-.1,1.93,2,2,0,0,1-1.69.94H196.16a2,2,0,0,1-1.75-1q-.3-.54-.51-1a13.4,13.4,0,0,1-2.36,1.29A19.67,19.67,0,0,1,184.1,79.64Zm8.22-13.26c-.69.21-1.39.4-2.1.58-2.69.71-3.25,1.2-3.27,1.23-.3.28-.3.45-.3.55a.68.68,0,0,0,.24.6,2,2,0,0,0,1.27.29,4.79,4.79,0,0,0,2.38-.61A3.37,3.37,0,0,0,192,67.7,4.16,4.16,0,0,0,192.32,66.38Zm-1.66-9.8a5.57,5.57,0,0,0-2.91.53,2.43,2.43,0,0,0-.72,1.11c1.39-.3,2.39-.53,3-.7s1.41-.41,2.15-.67l0,0A3.08,3.08,0,0,0,190.66,56.58Z"/><path class="cls-7" d="M189.25,48.15a44,44,0,0,1,7.81.55A10.06,10.06,0,0,1,202,51a7.89,7.89,0,0,1,2.17,3.38,12.3,12.3,0,0,1,.8,4.19V71a15,15,0,0,0,.25,3.12A14.09,14.09,0,0,0,206.31,77H196.16a10,10,0,0,1-.8-1.66,12.43,12.43,0,0,1-.37-1.79,14.3,14.3,0,0,1-4.22,2.92,17.61,17.61,0,0,1-6.67,1.17c-3.37,0-5.92-.78-7.67-2.34a7.44,7.44,0,0,1-2.61-5.76,7.58,7.58,0,0,1,1.88-5.29q1.89-2.07,7-3.08,6.09-1.23,7.89-1.72a35.1,35.1,0,0,0,3.83-1.28,3.8,3.8,0,0,0-.83-2.79,4.11,4.11,0,0,0-2.89-.8,7.49,7.49,0,0,0-4,.85,4.65,4.65,0,0,0-1.67,2.5l-10.33-1.09a11.73,11.73,0,0,1,1.68-4.27,9.42,9.42,0,0,1,3.18-2.69,13.16,13.16,0,0,1,4.09-1.28,33,33,0,0,1,5.63-.45m-1.09,23.48a6.73,6.73,0,0,0,3.36-.87,5.38,5.38,0,0,0,2.21-2.14,7.22,7.22,0,0,0,.65-3.28V63.61q-2.24.8-4.65,1.41a10.55,10.55,0,0,0-4.17,1.73,2.7,2.7,0,0,0-.91,2,2.67,2.67,0,0,0,.9,2.08,3.74,3.74,0,0,0,2.61.81m1.09-27.48a36.91,36.91,0,0,0-6.31.51,16.82,16.82,0,0,0-5.35,1.72,13.24,13.24,0,0,0-4.5,3.88A15.38,15.38,0,0,0,170.76,56a4,4,0,0,0,2.87,4.71,10.35,10.35,0,0,0-.89.86,12,12,0,0,0,1,16.72c2.49,2.23,6,3.36,10.33,3.36a21.41,21.41,0,0,0,8.17-1.47,10.45,10.45,0,0,0,1-.44A4,4,0,0,0,196.16,81h10.15a4,4,0,0,0,3.59-5.75,9.69,9.69,0,0,1-.79-2A10.8,10.8,0,0,1,209,71V58.54a16.22,16.22,0,0,0-1-5.55,11.87,11.87,0,0,0-3.32-5.05,14,14,0,0,0-6.8-3.18,48.29,48.29,0,0,0-8.54-.61Z"/><path class="cls-6" d="M227.34,79.64a30.46,30.46,0,0,1-8-.91,15.24,15.24,0,0,1-5.92-3.13,15.75,15.75,0,0,1-3.86-5A17.28,17.28,0,0,1,208.13,63a17.84,17.84,0,0,1,1.71-8.16,15.21,15.21,0,0,1,3.42-4.38,16,16,0,0,1,4.45-2.87,23.62,23.62,0,0,1,8.86-1.45c5.07,0,8.88.92,11.66,2.82a15.06,15.06,0,0,1,5.88,8.29,2,2,0,0,1-1.65,2.57l-10.18,1.35a1.14,1.14,0,0,1-.26,0,2,2,0,0,1-1.93-1.49,2.71,2.71,0,0,0-1-1.61,3.71,3.71,0,0,0-2.21-.54,3.49,3.49,0,0,0-2.83,1.23c-.78.9-1.17,2.42-1.17,4.52A5.74,5.74,0,0,0,224,67.23a3.45,3.45,0,0,0,2.72,1.16,3.81,3.81,0,0,0,2.37-.69,4.58,4.58,0,0,0,1.47-2.36,2,2,0,0,1,1.9-1.39h.23L243,65.13a2,2,0,0,1,1.42.86,2,2,0,0,1,.29,1.64A16.58,16.58,0,0,1,241.51,74a15.17,15.17,0,0,1-5.71,4.21A21.53,21.53,0,0,1,227.34,79.64Z"/><path class="cls-7" d="M226.57,48.15q6.92,0,10.54,2.47a13.05,13.05,0,0,1,5.08,7.23L232,59.2a4.73,4.73,0,0,0-1.74-2.72,5.65,5.65,0,0,0-3.39-.92,5.44,5.44,0,0,0-4.34,1.93q-1.67,1.92-1.66,5.82a7.55,7.55,0,0,0,1.65,5.27,5.42,5.42,0,0,0,4.19,1.81,5.84,5.84,0,0,0,3.58-1.09A6.57,6.57,0,0,0,232.47,66l10.28,1.17A14.16,14.16,0,0,1,240,72.68a12.93,12.93,0,0,1-5,3.66,19.62,19.62,0,0,1-7.67,1.3,28.07,28.07,0,0,1-7.47-.84,13,13,0,0,1-5.14-2.71,13.61,13.61,0,0,1-3.38-4.39A15.53,15.53,0,0,1,210.13,63a15.76,15.76,0,0,1,1.49-7.24,13,13,0,0,1,3-3.81,13.85,13.85,0,0,1,3.88-2.51,21.46,21.46,0,0,1,8.1-1.3m0-4a25.1,25.1,0,0,0-9.62,1.6,17.56,17.56,0,0,0-5,3.23,17,17,0,0,0-3.87,5A19.73,19.73,0,0,0,206.13,63a19.19,19.19,0,0,0,1.62,8.44,17.74,17.74,0,0,0,4.35,5.66,17,17,0,0,0,6.69,3.54,31.48,31.48,0,0,0,8.55,1A23.21,23.21,0,0,0,236.59,80a17.09,17.09,0,0,0,6.46-4.78,18.48,18.48,0,0,0,3.57-7.09,4,4,0,0,0-3.42-5l-5.65-.64,5.17-.69a4,4,0,0,0,2.84-1.8,4,4,0,0,0,.46-3.34,17,17,0,0,0-6.66-9.35c-3.13-2.13-7.31-3.17-12.79-3.17Zm.16,22.24a1.45,1.45,0,0,1-1.24-.51,4.13,4.13,0,0,1-.6-2.57c0-2.24.53-3,.69-3.21a1.48,1.48,0,0,1,1.31-.54,2.21,2.21,0,0,1,1,.16,1,1,0,0,1,.22.5,4,4,0,0,0,2,2.5,3.94,3.94,0,0,0-1.45,2,2.88,2.88,0,0,1-.76,1.36,1.76,1.76,0,0,1-1.17.29Z"/><path class="cls-6" d="M265.76,79a2,2,0,0,1-2-2V61.49c0-1.81-.4-2.34-.48-2.43s-.39-.44-1.27-.44a1.94,1.94,0,0,0-1.64.76c-.23.28-.77,1.24-.77,4.07V77a2,2,0,0,1-2,2H246.79a2,2,0,0,1-2-2V38.06a2,2,0,0,1,2-2H257.6a2,2,0,0,1,2,2V48.15a14.87,14.87,0,0,1,1.56-.84,14.5,14.5,0,0,1,6-1.16,11,11,0,0,1,8.4,3.31c2,2.16,3.08,5.4,3.08,9.61V77a2,2,0,0,1-2,2Z"/><path class="cls-7" d="M257.6,38.06V52.4A14.76,14.76,0,0,1,262,49.13a12.57,12.57,0,0,1,5.16-1,9.11,9.11,0,0,1,6.94,2.68c1.7,1.79,2.54,4.54,2.54,8.24V77H265.76V61.49a5.61,5.61,0,0,0-1-3.76A3.48,3.48,0,0,0,262,56.62a4,4,0,0,0-3.19,1.49q-1.21,1.48-1.22,5.34V77H246.79V38.06H257.6m0-4H246.79a4,4,0,0,0-4,4V77a4,4,0,0,0,4,4H257.6a4,4,0,0,0,4-4V63.45a11.05,11.05,0,0,1,.16-2.11V77a4,4,0,0,0,4,4h10.86a4,4,0,0,0,4-4V59.07c0-4.74-1.22-8.44-3.63-11a13,13,0,0,0-9.85-3.94,17.31,17.31,0,0,0-5.54.84V38.06a4,4,0,0,0-4-4Z"/><path class="cls-6" d="M338.33,79a2,2,0,0,1-2-2V60.93a2.76,2.76,0,0,0-.3-1.6c-.47-.63-.82-.71-1.14-.71a1.83,1.83,0,0,0-1.54.68c-.26.3-.7,1.12-.7,3.14V77a2,2,0,0,1-2,2H319.82a2,2,0,0,1-2-2V61.46a8.63,8.63,0,0,0-.12-1.92,1.52,1.52,0,0,0-.51-.73,1.26,1.26,0,0,0-.79-.24,1.83,1.83,0,0,0-1.54.71c-.27.31-.72,1.17-.72,3.32V77a2,2,0,0,1-2,2H301.3a2,2,0,0,1-2-2V48.79a2,2,0,0,1,2-2h10.09a2,2,0,0,1,2,1.58,12.19,12.19,0,0,1,1.57-.93,14.21,14.21,0,0,1,6.24-1.29,12.17,12.17,0,0,1,6.38,1.49A9.9,9.9,0,0,1,330,49.78a14.51,14.51,0,0,1,3.48-2.44,14,14,0,0,1,6-1.19,11.27,11.27,0,0,1,8.54,3.32c2.05,2.18,3.09,5.48,3.09,9.81V77a2,2,0,0,1-2,2Z"/><path class="cls-7" d="M339.54,48.15a9.25,9.25,0,0,1,7.08,2.7c1.7,1.79,2.55,4.61,2.55,8.43V77H338.33V60.93a4.53,4.53,0,0,0-.74-2.84,3.24,3.24,0,0,0-2.7-1.47A3.83,3.83,0,0,0,331.82,58a6.81,6.81,0,0,0-1.17,4.43V77H319.82V61.46a9.69,9.69,0,0,0-.22-2.52,3.46,3.46,0,0,0-1.2-1.72,3.22,3.22,0,0,0-2-.65A3.84,3.84,0,0,0,313.34,58q-1.2,1.41-1.2,4.62V77H301.3V48.79h10.09v4.12a14.24,14.24,0,0,1,4.41-3.67,12,12,0,0,1,5.36-1.09,10.27,10.27,0,0,1,5.35,1.2,8.8,8.8,0,0,1,3.21,3.56,16.08,16.08,0,0,1,4.65-3.76,11.89,11.89,0,0,1,5.17-1m0-4a16.1,16.1,0,0,0-6.89,1.38,14.16,14.16,0,0,0-2.49,1.54,11.73,11.73,0,0,0-1.58-1.14,14.15,14.15,0,0,0-7.42-1.78,16,16,0,0,0-7.12,1.5l-.1.05a4,4,0,0,0-2.55-.91H301.3a4,4,0,0,0-4,4V77a4,4,0,0,0,4,4h10.84A4,4,0,0,0,316,78.13,4,4,0,0,0,319.82,81h10.83a4,4,0,0,0,3.84-2.87A4,4,0,0,0,338.33,81h10.84a4,4,0,0,0,4-4V59.28c0-4.86-1.22-8.62-3.64-11.18a13.15,13.15,0,0,0-10-4Z"/><path class="cls-6" d="M370.53,79.64a22,22,0,0,1-9.7-1.79,15,15,0,0,1-6.15-5.77A17.14,17.14,0,0,1,352.27,63a16.19,16.19,0,0,1,4.85-12.15c3.2-3.08,7.6-4.65,13.09-4.65,4.41,0,7.84.67,10.49,2.06a14.44,14.44,0,0,1,6.18,6.15,21.46,21.46,0,0,1,2.06,10v1.23a2,2,0,0,1-2,2h-1.79l1.37.12a2,2,0,0,1,1.55,3,17.31,17.31,0,0,1-6.69,6.87C378.76,79,375.21,79.64,370.53,79.64Zm-2.71-12.06a2.59,2.59,0,0,0,.36.56,3.17,3.17,0,0,0,2.59,1.15,4.1,4.1,0,0,0,2.05-.55A4.77,4.77,0,0,0,374,67.58Zm5.67-9.18a3.06,3.06,0,0,0-.64-1.07,2.85,2.85,0,0,0-2.19-.78,2.91,2.91,0,0,0-2.52,1.25,2.45,2.45,0,0,0-.34.6Z"/><path class="cls-7" d="M370.21,48.15c4,0,7.22.61,9.56,1.83a12.41,12.41,0,0,1,5.34,5.32,19.45,19.45,0,0,1,1.83,9.06v1.22H365.27a6.94,6.94,0,0,0,1.41,3.88,5.11,5.11,0,0,0,4.09,1.83,6.19,6.19,0,0,0,3-.8,7,7,0,0,0,1.88-1.78l10.65,1a15.22,15.22,0,0,1-5.89,6.1q-3.46,1.84-9.91,1.85a20.32,20.32,0,0,1-8.82-1.58,13.05,13.05,0,0,1-5.33-5A15.15,15.15,0,0,1,354.27,63a14.2,14.2,0,0,1,4.24-10.71q4.23-4.08,11.7-4.09M365.29,60.4H376a7.28,7.28,0,0,0-1.69-4.49,5.29,5.29,0,0,0-7.72.69,7.55,7.55,0,0,0-1.25,3.8m4.92-16.25c-6,0-10.9,1.76-14.48,5.21A18.15,18.15,0,0,0,350.27,63,19.18,19.18,0,0,0,353,73.13a17,17,0,0,0,7,6.52,23.9,23.9,0,0,0,10.59,2c5,0,8.87-.76,11.79-2.32a19.28,19.28,0,0,0,7.48-7.63,4,4,0,0,0,.22-3.55,4,4,0,0,0,.92-2.56V64.36a23.44,23.44,0,0,0-2.29-10.93,16.34,16.34,0,0,0-7-7c-2.95-1.54-6.68-2.29-11.42-2.29Z"/><path class="cls-6" d="M85.49,144.29a2,2,0,0,1-2-2V126.77c0-1.8-.4-2.34-.48-2.43a1.5,1.5,0,0,0-1.27-.43,1.94,1.94,0,0,0-1.64.76c-.23.28-.77,1.24-.77,4.07v13.55a2,2,0,0,1-2,2H66.52a2,2,0,0,1-2-2V103.34a2,2,0,0,1,2-2H77.33a2,2,0,0,1,2,2v10.1a11.9,11.9,0,0,1,1.56-.84,14.5,14.5,0,0,1,6-1.16,11,11,0,0,1,8.4,3.31c2,2.16,3.08,5.39,3.08,9.6v17.94a2,2,0,0,1-2,2Z"/><path class="cls-7" d="M77.33,103.34v14.35a14.45,14.45,0,0,1,4.39-3.27,12.36,12.36,0,0,1,5.15-1,9.1,9.1,0,0,1,6.95,2.68q2.54,2.68,2.53,8.23v17.94H85.49V126.77a5.69,5.69,0,0,0-1-3.76,3.54,3.54,0,0,0-2.77-1.1,3.92,3.92,0,0,0-3.18,1.49q-1.23,1.48-1.23,5.34v13.55H66.52V103.34H77.33m0-4H66.52a4,4,0,0,0-4,4v38.95a4,4,0,0,0,4,4H77.33a4,4,0,0,0,4-4V128.74a12.1,12.1,0,0,1,.16-2.12v15.67a4,4,0,0,0,4,4H96.35a4,4,0,0,0,4-4V124.35c0-4.74-1.22-8.43-3.63-11a13,13,0,0,0-9.85-3.93,17.36,17.36,0,0,0-5.54.84v-6.94a4,4,0,0,0-4-4Z"/><path class="cls-6" d="M117.63,144.92c-5,0-9.11-1.31-12.27-3.91a15.85,15.85,0,0,1-5.88-12.75,16.08,16.08,0,0,1,5-12.08c3.28-3.15,7.7-4.74,13.16-4.74,6.22,0,11,1.88,14.3,5.59a17.36,17.36,0,0,1-.95,23.18C127.71,143.34,123.23,144.92,117.63,144.92Zm.14-22a2.89,2.89,0,0,0-2.38,1.12,6.69,6.69,0,0,0-1.07,4.24,6.86,6.86,0,0,0,1.05,4.29,2.83,2.83,0,0,0,2.32,1.1,2.81,2.81,0,0,0,2.31-1.07c.47-.56,1-1.78,1-4.42a6.64,6.64,0,0,0-1-4.17A2.7,2.7,0,0,0,117.77,122.87Z"/><path class="cls-7" d="M117.61,113.44q8.48,0,12.8,4.91a15.37,15.37,0,0,1-.84,20.42q-4.3,4.15-11.94,4.15-6.8,0-11-3.45a13.86,13.86,0,0,1-5.16-11.21,14.11,14.11,0,0,1,4.36-10.64q4.35-4.19,11.77-4.18m.08,22.18a4.81,4.81,0,0,0,3.83-1.78q1.52-1.78,1.51-5.71,0-3.67-1.52-5.46a4.71,4.71,0,0,0-3.74-1.8,4.91,4.91,0,0,0-3.91,1.82c-1,1.22-1.54,3.06-1.54,5.54s.51,4.38,1.53,5.58a4.81,4.81,0,0,0,3.84,1.81m-.08-26.18c-6,0-10.88,1.78-14.54,5.3a18,18,0,0,0-5.59,13.52,17.76,17.76,0,0,0,6.6,14.29c3.53,2.9,8.09,4.37,13.55,4.37,6.13,0,11.08-1.77,14.72-5.27a19.37,19.37,0,0,0,1.07-25.94c-3.67-4.16-9-6.27-15.81-6.27Zm.08,22.18a.87.87,0,0,1-.79-.39c-.1-.12-.58-.8-.58-3a5.24,5.24,0,0,1,.59-2.95.94.94,0,0,1,.86-.41c.2,0,.37,0,.69.38.09.11.57.78.57,2.88,0,2.44-.54,3.1-.56,3.13a.84.84,0,0,1-.78.36Z"/><path class="cls-6" d="M166.32,144.29a2,2,0,0,1-1.9-1.37l-3.79-11.24L157,142.9a2,2,0,0,1-1.9,1.39h-9.67a2,2,0,0,1-1.87-1.31l-10.46-28.21a2,2,0,0,1,1.87-2.7h10.46a2,2,0,0,1,1.94,1.51l2.81,11,3.59-11.16a2,2,0,0,1,1.9-1.39h9.77a2,2,0,0,1,1.9,1.37l3.81,11.37L174,113.58a2,2,0,0,1,1.94-1.51h10.39a2,2,0,0,1,1.64.86,2,2,0,0,1,.24,1.83L177.81,143a2,2,0,0,1-1.87,1.31Z"/><path class="cls-7" d="M186.33,114.07h0m0,0-10.39,28.22h-9.62l-5.72-17-5.52,17h-9.67L135,114.07h10.46l4.52,17.77,5.72-17.77h9.77l6,17.81,4.55-17.81h10.39m0-4H175.94a4,4,0,0,0-3.88,3l-1.19,4.67-1.65-5a4,4,0,0,0-3.8-2.73h-9.77a4,4,0,0,0-3.8,2.78l-1.47,4.54-1.1-4.3a4,4,0,0,0-3.87-3H135a4,4,0,0,0-3.75,5.39l10.46,28.22a4,4,0,0,0,3.75,2.61h9.67a4,4,0,0,0,3.8-2.77l1.79-5.48,1.85,5.52a4,4,0,0,0,3.8,2.73h9.62a4,4,0,0,0,3.75-2.62L190,115.6a4.09,4.09,0,0,0,.3-1.53,4,4,0,0,0-4-4Zm0,8Z"/><path class="cls-6" d="M219.51,144.92a14.67,14.67,0,0,1-6.9-1.27,8.35,8.35,0,0,1-3.72-4.11,20.19,20.19,0,0,1-1.08-7.63V124h-2a2,2,0,0,1-2-2v-7.92a2,2,0,0,1,2-2h2v-3.18a2,2,0,0,1,1.09-1.78l10.84-5.55a2,2,0,0,1,.91-.22,2,2,0,0,1,1,.29,2,2,0,0,1,1,1.71v8.73h3.95a2,2,0,0,1,2,2V122a2,2,0,0,1-2,2h-3.95v8a7.4,7.4,0,0,0,.08,1.29h.13a9.94,9.94,0,0,0,2.73-.59,1.86,1.86,0,0,1,.61-.1,1.92,1.92,0,0,1,1.09.33,2,2,0,0,1,.9,1.46l.8,7.46a2,2,0,0,1-1.56,2.17A37.59,37.59,0,0,1,219.51,144.92Z"/><path class="cls-7" d="M220.65,103.34v10.73h5.95V122h-5.95v10a5.36,5.36,0,0,0,.35,2.39,2,2,0,0,0,1.86.9,11.84,11.84,0,0,0,3.34-.69l.8,7.47a35.42,35.42,0,0,1-7.49.87,13,13,0,0,1-5.95-1,6.28,6.28,0,0,1-2.83-3.15,18.45,18.45,0,0,1-.92-6.83V122h-4v-7.92h4v-5.18l10.84-5.55m0-4a4,4,0,0,0-1.82.44L208,105.33a4,4,0,0,0-2.18,3.56v1.18a4,4,0,0,0-4,4V122a4,4,0,0,0,4,4v5.92c0,3.79.4,6.47,1.25,8.43a10.26,10.26,0,0,0,4.6,5.07c1.88,1,4.45,1.51,7.85,1.51a38.89,38.89,0,0,0,8.34-1,4,4,0,0,0,3.13-4.33l-.8-7.46a4,4,0,0,0-1.8-2.93,4,4,0,0,0-2.18-.65,4.25,4.25,0,0,0-1.22.19l-.33.11V126h1.95a4,4,0,0,0,4-4v-7.92a4,4,0,0,0-4-4h-1.95v-6.73a4,4,0,0,0-4-4Z"/><path class="cls-6" d="M246.58,144.92c-5,0-9.12-1.31-12.27-3.91a15.82,15.82,0,0,1-5.88-12.75,16.1,16.1,0,0,1,5-12.08c3.27-3.15,7.7-4.74,13.15-4.74,6.22,0,11,1.88,14.31,5.59a17.39,17.39,0,0,1-.95,23.18C256.66,143.34,252.17,144.92,246.58,144.92Zm.13-22a2.9,2.9,0,0,0-2.38,1.12,6.69,6.69,0,0,0-1.07,4.24,6.85,6.85,0,0,0,1.06,4.29,3,3,0,0,0,4.62,0c.47-.56,1-1.78,1-4.42a6.65,6.65,0,0,0-1-4.17A2.73,2.73,0,0,0,246.71,122.87Z"/><path class="cls-7" d="M246.55,113.44q8.47,0,12.81,4.91a15.37,15.37,0,0,1-.84,20.42q-4.32,4.15-11.94,4.15-6.81,0-11-3.45a13.85,13.85,0,0,1-5.15-11.21,14.13,14.13,0,0,1,4.35-10.64q4.36-4.19,11.77-4.18m.08,22.18a4.82,4.82,0,0,0,3.84-1.78q1.5-1.78,1.5-5.71,0-3.67-1.51-5.46a4.71,4.71,0,0,0-3.75-1.8,4.88,4.88,0,0,0-3.9,1.82c-1,1.22-1.55,3.06-1.55,5.54s.51,4.38,1.53,5.58a4.81,4.81,0,0,0,3.84,1.81m-.08-26.18c-6,0-10.88,1.78-14.54,5.3a18,18,0,0,0-5.58,13.52,17.76,17.76,0,0,0,6.6,14.29c3.53,2.9,8.08,4.37,13.55,4.37,6.13,0,11.08-1.77,14.71-5.27a19.34,19.34,0,0,0,1.07-25.94c-3.67-4.16-9-6.27-15.81-6.27Zm.08,22.18a.86.86,0,0,1-.78-.39c-.1-.12-.59-.8-.59-3a5.12,5.12,0,0,1,.6-2.95.93.93,0,0,1,.85-.41c.21,0,.37,0,.69.38.09.11.57.78.57,2.88,0,2.44-.54,3.1-.56,3.13a.84.84,0,0,1-.78.36Z"/><path class="cls-6" d="M286.24,155a2,2,0,0,1-2-2v-39a2,2,0,0,1,2-2h10.12a2,2,0,0,1,1.93,1.46,9.73,9.73,0,0,1,1-.61,13,13,0,0,1,6.17-1.48,12.06,12.06,0,0,1,10.38,5.16,19.92,19.92,0,0,1,3.47,11.87c0,5.19-1.31,9.26-3.89,12.09a13,13,0,0,1-10,4.36,13.77,13.77,0,0,1-5.32-1c-.31-.13-.61-.27-.91-.42V153a2,2,0,0,1-2,2Zm15.67-31.64a2.35,2.35,0,0,0-1.93.92c-.41.48-.9,1.56-.9,4a5.71,5.71,0,0,0,.91,3.65,2.52,2.52,0,0,0,2.05.94,1.94,1.94,0,0,0,1.62-.83c.31-.37.82-1.39.82-4,0-2.24-.47-3.28-.87-3.76A2.07,2.07,0,0,0,301.91,123.38Z"/><path class="cls-7" d="M305.44,113.44a10.13,10.13,0,0,1,8.76,4.33,17.93,17.93,0,0,1,3.09,10.7q0,7-3.37,10.75a11,11,0,0,1-8.53,3.7,11.74,11.74,0,0,1-4.55-.85,10.75,10.75,0,0,1-3.68-2.52V153H286.24v-39h10.12v4.17a13.5,13.5,0,0,1,3.85-3.56,11.06,11.06,0,0,1,5.23-1.24M302,134.85a3.94,3.94,0,0,0,3.17-1.56q1.28-1.54,1.27-5.27,0-3.42-1.33-5a4,4,0,0,0-3.24-1.61,4.35,4.35,0,0,0-3.45,1.62q-1.38,1.62-1.38,5.26a7.48,7.48,0,0,0,1.4,5,4.52,4.52,0,0,0,3.56,1.62m3.4-25.41a15.11,15.11,0,0,0-6.63,1.47,4,4,0,0,0-2.45-.84H286.24a4,4,0,0,0-4,4v39a4,4,0,0,0,4,4h10.92a4,4,0,0,0,4-4v-6.63a16.62,16.62,0,0,0,4.23.53,14.94,14.94,0,0,0,11.49-5c2.93-3.22,4.41-7.74,4.41-13.44a21.92,21.92,0,0,0-3.84-13,14.15,14.15,0,0,0-12-6ZM302,130.85a.55.55,0,0,1-.53-.25,4.45,4.45,0,0,1-.42-2.34,5.34,5.34,0,0,1,.42-2.67c.19-.21.24-.21.41-.21h0l.15.15a4.76,4.76,0,0,1,.41,2.49,6.14,6.14,0,0,1-.39,2.77l-.06.06Z"/><rect class="cls-6" x="320.84" y="101.34" width="14.84" height="42.94" rx="2"/><path class="cls-7" d="M333.68,103.34v38.95H322.84V103.34h10.84m0-4H322.84a4,4,0,0,0-4,4v38.95a4,4,0,0,0,4,4h10.84a4,4,0,0,0,4-4V103.34a4,4,0,0,0-4-4Z"/><path class="cls-6" d="M349.54,144.92c-3.85,0-6.88-1-9-2.84a10,10,0,0,1-.87-13.89c1.37-1.51,3.57-2.63,6.69-3.4l-6.46-.68a2,2,0,0,1-1.74-2.41,13.43,13.43,0,0,1,2-5,11.2,11.2,0,0,1,3.84-3.29,15,15,0,0,1,4.71-1.49,35.09,35.09,0,0,1,6-.48,47.38,47.38,0,0,1,8.17.57,12.08,12.08,0,0,1,5.87,2.74,10,10,0,0,1,2.74,4.21,14.2,14.2,0,0,1,.91,4.86v12.46a13,13,0,0,0,.21,2.69,11.59,11.59,0,0,0,.95,2.44,2,2,0,0,1-1.8,2.88H361.6a2,2,0,0,1-1.74-1c-.2-.36-.37-.68-.51-1a13.25,13.25,0,0,1-2.37,1.3A19.67,19.67,0,0,1,349.54,144.92Zm8.22-13.25q-1,.3-2.1.57c-2.68.72-3.25,1.21-3.27,1.23-.29.28-.29.46-.29.55a.74.74,0,0,0,.23.61,2.14,2.14,0,0,0,1.28.29,4.64,4.64,0,0,0,2.37-.62,3.41,3.41,0,0,0,1.41-1.31A4,4,0,0,0,357.76,131.67Zm-1.66-9.81a5.48,5.48,0,0,0-2.9.54,2.25,2.25,0,0,0-.73,1.11c1.39-.3,2.4-.54,3-.7s1.41-.41,2.16-.67l0,0A3,3,0,0,0,356.1,121.86Z"/><path class="cls-7" d="M354.7,113.44a45.17,45.17,0,0,1,7.81.54,10,10,0,0,1,4.91,2.27,8,8,0,0,1,2.18,3.39,12.22,12.22,0,0,1,.79,4.18v12.46a14.79,14.79,0,0,0,.26,3.12,13.8,13.8,0,0,0,1.1,2.89H361.6a10.52,10.52,0,0,1-.8-1.67,13.62,13.62,0,0,1-.37-1.79,13.69,13.69,0,0,1-4.22,2.92,17.58,17.58,0,0,1-6.67,1.17c-3.36,0-5.92-.78-7.66-2.34a7.4,7.4,0,0,1-2.62-5.76,7.57,7.57,0,0,1,1.89-5.29c1.25-1.38,3.57-2.4,7-3.08q6.08-1.22,7.89-1.71a37.43,37.43,0,0,0,3.82-1.29,3.8,3.8,0,0,0-.82-2.79,4.16,4.16,0,0,0-2.9-.8,7.52,7.52,0,0,0-4,.85,4.74,4.74,0,0,0-1.68,2.5l-10.33-1.09a11.57,11.57,0,0,1,1.69-4.26,9.2,9.2,0,0,1,3.17-2.7,13.27,13.27,0,0,1,4.09-1.27,33.23,33.23,0,0,1,5.64-.45m-1.09,23.48A6.69,6.69,0,0,0,357,136a5.23,5.23,0,0,0,2.2-2.14,7.19,7.19,0,0,0,.65-3.28V128.9q-2.24.79-4.65,1.4A10.86,10.86,0,0,0,351,132a2.77,2.77,0,0,0,0,4.08,3.75,3.75,0,0,0,2.62.81m1.09-27.48a37,37,0,0,0-6.32.51,16.93,16.93,0,0,0-5.34,1.71,13.3,13.3,0,0,0-4.51,3.89,15.31,15.31,0,0,0-2.33,5.73,4,4,0,0,0,2.88,4.71,9,9,0,0,0-.89.85,12,12,0,0,0,1,16.73c2.49,2.22,6,3.35,10.33,3.35a21.69,21.69,0,0,0,8.18-1.46c.32-.14.64-.28,1-.45a4,4,0,0,0,2.92,1.28h10.15a4,4,0,0,0,3.6-5.75,10,10,0,0,1-.8-2,10.71,10.71,0,0,1-.16-2.25V123.82a16.24,16.24,0,0,0-1-5.55,11.93,11.93,0,0,0-3.32-5,14,14,0,0,0-6.81-3.18,48.17,48.17,0,0,0-8.53-.61Z"/><path class="cls-6" d="M383.38,155.73a62.83,62.83,0,0,1-7.48-.65,2,2,0,0,1-1.73-1.76l-.85-7.54A2,2,0,0,1,374,144a2,2,0,0,1,1.27-.46,1.86,1.86,0,0,1,.61.1,15.14,15.14,0,0,0,4.59.65,3.17,3.17,0,0,0,1.9-.49,3.75,3.75,0,0,0,1-1.51l-11.53-27.45a2,2,0,0,1,1.85-2.78h11.41a2,2,0,0,1,1.91,1.41l3.84,12.39,3.55-12.35a2,2,0,0,1,1.92-1.45h10.65a2,2,0,0,1,1.88,2.7l-11.19,30.14c-1.4,3.78-2.85,6.32-4.44,7.75C391.05,154.7,387.72,155.73,383.38,155.73Z"/><path class="cls-7" d="M407.05,114.07h0m0,0-11.19,30.15q-1.91,5.16-3.9,7-2.82,2.55-8.58,2.55a62.67,62.67,0,0,1-7.22-.63l-.85-7.55a17,17,0,0,0,5.2.75,5.06,5.06,0,0,0,3.09-.88,6.66,6.66,0,0,0,2-3.14l-11.84-28.21h11.41L391,132.85l5.4-18.78h10.65m0-4H396.4a4,4,0,0,0-3.84,2.9l-1.71,5.91-1.85-6a4,4,0,0,0-3.82-2.82H373.77a4,4,0,0,0-3.69,5.55l11.15,26.56,0,0a2.45,2.45,0,0,1-.69.08,13.17,13.17,0,0,1-4-.56,3.83,3.83,0,0,0-1.21-.19,4.05,4.05,0,0,0-2.54.91,4,4,0,0,0-1.44,3.54l.85,7.54a4,4,0,0,0,3.46,3.52,65,65,0,0,0,7.74.67c4.85,0,8.64-1.2,11.26-3.58,1.86-1.69,3.44-4.4,5-8.54l11.14-30a3.92,3.92,0,0,0,.31-1.54,4,4,0,0,0-4-4Zm0,8h0Z"/><path class="cls-6" d="M410.53,144.29a2,2,0,0,1-2-2v-9.54a2,2,0,0,1,1.91-2,2.31,2.31,0,0,1-.11-.47l-2.18-17.82a2.09,2.09,0,0,1,0-.25v-8.87a2,2,0,0,1,2-2h11.55a2,2,0,0,1,2,2v8.87a2,2,0,0,1,0,.25l-2.24,17.83a1.82,1.82,0,0,1-.11.46,2,2,0,0,1,2,2v9.54a2,2,0,0,1-2,2Z"/><path class="cls-7" d="M421.69,103.34v8.87L419.46,130h-7.15l-2.17-17.83v-8.87h11.55m-.37,29.41v9.54H410.53v-9.54h10.79m.37-33.41H410.14a4,4,0,0,0-4,4v8.87a3.91,3.91,0,0,0,0,.49l2.05,16.79a4,4,0,0,0-1.69,3.26v9.54a4,4,0,0,0,4,4h10.79a4,4,0,0,0,4-4v-9.54a4,4,0,0,0-1.75-3.31l2.09-16.73a4.07,4.07,0,0,0,0-.5v-8.87a4,4,0,0,0-4-4Z"/></g></g></svg>