<svg xmlns="http://www.w3.org/2000/svg" xmlns:xlink="http://www.w3.org/1999/xlink" viewBox="0 0 1920 1080"><defs><style>.cls-1{fill:none;}.cls-2{opacity:0.48;}.cls-3{fill:#666;}.cls-4{fill:gray;}.cls-5{isolation:isolate;}.cls-6{fill:#5c5c5c;}.cls-7{fill:#333;}.cls-8{clip-path:url(#clip-path);}.cls-9{fill:#353535;}.cls-10{clip-path:url(#clip-path-2);}.cls-11{clip-path:url(#clip-path-3);}.cls-12{clip-path:url(#clip-path-4);}.cls-13{fill:#393939;}.cls-14{fill:#373737;}.cls-15{clip-path:url(#clip-path-5);}.cls-16{clip-path:url(#clip-path-6);}.cls-17{clip-path:url(#clip-path-7);}.cls-18{clip-path:url(#clip-path-8);}.cls-19{clip-path:url(#clip-path-9);}.cls-20{clip-path:url(#clip-path-10);}</style><clipPath id="clip-path"><path class="cls-1" d="M1543.88,801.52h-1a1,1,0,0,0,.27-.63h1A1.08,1.08,0,0,1,1543.88,801.52Z"/></clipPath><clipPath id="clip-path-2"><path class="cls-1" d="M1544.14,800.89h-1a1.07,1.07,0,0,0-.28-.86h1A1,1,0,0,1,1544.14,800.89Z"/></clipPath><clipPath id="clip-path-3"><path class="cls-1" d="M1543.87,800h-1a2.11,2.11,0,0,0-1.24-.4h.95A2.14,2.14,0,0,1,1543.87,800Z"/></clipPath><clipPath id="clip-path-4"><path class="cls-1" d="M1542.49,801.91h-1a6.26,6.26,0,0,0,.8-.07,1,1,0,0,0,.58-.32h1a1,1,0,0,1-.59.32A6.26,6.26,0,0,1,1542.49,801.91Z"/></clipPath><clipPath id="clip-path-5"><path class="cls-1" d="M1542.44,805.18h-1a2.47,2.47,0,0,0-.55-.91h1A2.61,2.61,0,0,1,1542.44,805.18Z"/></clipPath><clipPath id="clip-path-6"><path class="cls-1" d="M1541.89,804.27h-1a1.47,1.47,0,0,0-.81-.34h1A1.51,1.51,0,0,1,1541.89,804.27Z"/></clipPath><clipPath id="clip-path-7"><path class="cls-1" d="M1568.3,803.94h-1a1.12,1.12,0,0,0,.47-.85h1A1.09,1.09,0,0,1,1568.3,803.94Z"/></clipPath><clipPath id="clip-path-8"><path class="cls-1" d="M1568.36,806.57h-.95l-.63,0h1Z"/></clipPath><clipPath id="clip-path-9"><path class="cls-1" d="M1567.28,804.19h-1a1.69,1.69,0,0,0,1-.25h1A1.67,1.67,0,0,1,1567.28,804.19Z"/></clipPath><clipPath id="clip-path-10"><path class="cls-1" d="M1568.77,803.09h-1a1.29,1.29,0,0,0-.28-.93,1.82,1.82,0,0,0-1.27-.48h1a1.84,1.84,0,0,1,1.27.48A1.28,1.28,0,0,1,1568.77,803.09Z"/></clipPath></defs><g id="middle_hill"><polygon class="cls-2" points="1594.58 934.7 1594.58 934.7 1566.44 933.32 1565.56 889.1 1547.26 888.2 1532.55 888.53 1530.18 932.66 1495.08 929.82 1492.44 946.3 1529.07 948.19 1527.25 965.51 1537.31 966 1537.31 966 1542.71 966.27 1556.66 966.95 1556.66 966.95 1567.24 967.47 1566.83 949 1602.53 950.75 1601.03 935.02 1594.58 934.7"/><polygon class="cls-3" points="1611.06 795.11 1573.79 792.08 1576.29 761.32 1550.19 759.2 1547.69 789.95 1510.42 786.92 1508.29 813.02 1545.57 816.05 1539.59 889.67 1565.68 891.79 1571.66 818.17 1608.94 821.2 1611.06 795.11"/><polygon class="cls-4" points="1604.54 794.58 1567.26 791.54 1569.76 760.79 1543.67 758.67 1541.17 789.42 1503.89 786.39 1501.77 812.49 1539.05 815.52 1533.06 889.14 1559.15 891.26 1565.14 817.64 1602.42 820.67 1604.54 794.58"/><g class="cls-5"><polygon class="cls-6" points="1548.62 806.93 1550.92 807.12 1550.75 809.32 1548.44 809.13 1548.62 806.93"/><polygon class="cls-7" points="1550.75 809.32 1549.79 809.32 1547.49 809.13 1548.44 809.13 1550.75 809.32"/><polygon class="cls-7" points="1548.44 809.13 1547.49 809.13 1547.66 806.93 1548.62 806.93 1548.44 809.13"/></g><g class="cls-5"><polygon class="cls-7" points="1547.82 809.08 1546.87 809.08 1543.03 808.77 1543.98 808.77 1547.82 809.08"/><g class="cls-5"><g class="cls-8"><g class="cls-5"><path class="cls-9" d="M1543.88,801.52h-1a1,1,0,0,0,.27-.63h1a1.08,1.08,0,0,1-.26.63"/></g></g></g><g class="cls-5"><g class="cls-10"><g class="cls-5"><path class="cls-9" d="M1544.14,800.89h-1a1.07,1.07,0,0,0-.28-.86h1a1,1,0,0,1,.27.86"/></g></g></g><g class="cls-5"><g class="cls-11"><g class="cls-5"><path class="cls-9" d="M1543.87,800h-1a2.11,2.11,0,0,0-1.24-.4h.95a2.14,2.14,0,0,1,1.25.4"/></g></g></g><g class="cls-5"><g class="cls-12"><g class="cls-5"><path class="cls-13" d="M1542.49,801.91h-1a6.26,6.26,0,0,0,.8-.07h1a6.26,6.26,0,0,1-.8.07"/><path class="cls-14" d="M1543.34,801.83h-.95a1.06,1.06,0,0,0,.25-.09h.95a1.06,1.06,0,0,1-.25.09"/><path class="cls-9" d="M1543.59,801.74h-.95a.83.83,0,0,0,.28-.22h1a.86.86,0,0,1-.29.22"/></g></g></g><polygon class="cls-7" points="1543.98 808.77 1543.03 808.77 1541.48 805.18 1542.43 805.18 1543.98 808.77"/><g class="cls-5"><g class="cls-15"><g class="cls-5"><path class="cls-9" d="M1542.44,805.18h-1a2.47,2.47,0,0,0-.55-.91h1a2.61,2.61,0,0,1,.55.91"/></g></g></g><polygon class="cls-7" points="1542.62 799.63 1541.67 799.63 1540.17 799.51 1541.13 799.51 1542.62 799.63"/><g class="cls-5"><g class="cls-16"><g class="cls-5"><path class="cls-9" d="M1541.89,804.27h-1a1.47,1.47,0,0,0-.81-.34h1a1.51,1.51,0,0,1,.82.34"/></g></g></g><polygon class="cls-7" points="1541.08 803.93 1540.12 803.93 1539.82 803.91 1540.77 803.91 1541.08 803.93"/><polygon class="cls-7" points="1540.41 808.47 1539.46 808.47 1536.04 808.18 1536.99 808.18 1540.41 808.47"/><path class="cls-6" d="M1546.44,805.7l1.38,3.38-3.84-.31-1.54-3.59a2.61,2.61,0,0,0-.55-.91,1.51,1.51,0,0,0-.82-.34h-.3l-.36,4.55-3.42-.29.9-11.22,5.67.48a8.31,8.31,0,0,1,2.39.46,2.68,2.68,0,0,1,1.26,1.14,3.5,3.5,0,0,1-.15,3.44,3.06,3.06,0,0,1-1.16,1,3.87,3.87,0,0,1-1.23.34,4,4,0,0,1,.85.49,3.81,3.81,0,0,1,.49.64A4,4,0,0,1,1546.44,805.7Zm-2.3-4.81a1,1,0,0,0-.27-.86,2.14,2.14,0,0,0-1.25-.4l-1.49-.12-.19,2.28,1.43.12h.12a6.26,6.26,0,0,0,.8-.07,1,1,0,0,0,.59-.32,1.08,1.08,0,0,0,.26-.63"/><polygon class="cls-7" points="1536.99 808.18 1536.04 808.18 1536.93 796.96 1537.88 796.96 1536.99 808.18"/></g><g class="cls-5"><polygon class="cls-6" points="1553.57 798.26 1556.98 798.54 1556.08 809.76 1552.67 809.49 1553.57 798.26"/><polygon class="cls-7" points="1556.08 809.76 1555.12 809.76 1551.71 809.49 1552.67 809.49 1556.08 809.76"/><polygon class="cls-7" points="1552.67 809.49 1551.71 809.49 1552.61 798.26 1553.57 798.26 1552.67 809.49"/></g><g class="cls-5"><polygon class="cls-6" points="1558.23 807.72 1560.54 807.91 1560.36 810.12 1558.06 809.93 1558.23 807.72"/><polygon class="cls-7" points="1560.36 810.12 1559.41 810.12 1557.1 809.93 1558.06 809.93 1560.36 810.12"/><polygon class="cls-7" points="1558.06 809.93 1557.1 809.93 1557.28 807.72 1558.23 807.72 1558.06 809.93"/></g><g class="cls-5"><polygon class="cls-6" points="1572.96 808.95 1575.27 809.13 1575.09 811.34 1572.78 811.15 1572.96 808.95"/><polygon class="cls-7" points="1575.09 811.34 1574.13 811.34 1571.83 811.15 1572.78 811.15 1575.09 811.34"/><polygon class="cls-7" points="1572.78 811.15 1571.83 811.15 1572.01 808.95 1572.96 808.95 1572.78 811.15"/></g><g class="cls-5"><g class="cls-5"><g class="cls-17"><g class="cls-5"><path class="cls-9" d="M1568.3,803.94h-1a1.12,1.12,0,0,0,.47-.85h1a1.09,1.09,0,0,1-.47.85"/></g></g></g><g class="cls-5"><g class="cls-18"><g class="cls-5"><path class="cls-9" d="M1568.36,806.57h-.95l-.63,0h1l.62,0"/></g></g></g><g class="cls-5"><g class="cls-19"><g class="cls-5"><path class="cls-13" d="M1567.28,804.19h-1a2.86,2.86,0,0,0,.53,0h1a2.79,2.79,0,0,1-.53,0"/><path class="cls-14" d="M1567.81,804.15h-1a1.35,1.35,0,0,0,.34-.12h1a1.6,1.6,0,0,1-.35.12"/><path class="cls-9" d="M1568.16,804h-1a.38.38,0,0,0,.15-.09h1a.42.42,0,0,1-.14.09"/></g></g></g><g class="cls-5"><g class="cls-20"><g class="cls-5"><path class="cls-9" d="M1568.77,803.09h-1a1.29,1.29,0,0,0-.28-.93,1.82,1.82,0,0,0-1.27-.48h1a1.84,1.84,0,0,1,1.27.48,1.28,1.28,0,0,1,.27.93"/></g></g></g><polygon class="cls-7" points="1567.22 801.68 1566.27 801.68 1565.3 801.61 1566.25 801.61 1567.22 801.68"/><polygon class="cls-7" points="1567.74 806.54 1566.78 806.54 1564.92 806.38 1565.87 806.38 1567.74 806.54"/><polygon class="cls-7" points="1562.13 810.27 1561.17 810.27 1562.07 799.05 1563.02 799.05 1562.13 810.27"/><polygon class="cls-7" points="1565.55 810.55 1564.59 810.55 1561.17 810.27 1562.13 810.27 1565.55 810.55"/><path class="cls-6" d="M1571.38,800.64a3.42,3.42,0,0,1,.71,2.62,3.47,3.47,0,0,1-1.21,2.57,3.86,3.86,0,0,1-2.52.74l-.62,0-1.87-.16-.32,4.17-3.42-.28.89-11.22,5.66.46A3.85,3.85,0,0,1,1571.38,800.64Zm-2.61,2.45a1.28,1.28,0,0,0-.27-.93,1.84,1.84,0,0,0-1.27-.48l-1-.07-.19,2.5.83.07h.39a1.67,1.67,0,0,0,1-.25,1.09,1.09,0,0,0,.47-.85"/></g></g></svg>