<svg xmlns="http://www.w3.org/2000/svg" xmlns:xlink="http://www.w3.org/1999/xlink" viewBox="0 0 1920 1080"><defs><style>.cls-1{fill:none;}.cls-2{opacity:0.46;}.cls-3{fill:#333;}.cls-4{fill:#4d4d4d;}.cls-5{isolation:isolate;}.cls-6{fill:#2e2e2e;}.cls-7{fill:#1a1a1a;}.cls-8{clip-path:url(#clip-path);}.cls-9{fill:#1b1b1b;}.cls-10{clip-path:url(#clip-path-2);}.cls-11{fill:#1d1d1d;}.cls-12{fill:#1c1c1c;}.cls-13{clip-path:url(#clip-path-3);}.cls-14{clip-path:url(#clip-path-4);}.cls-15{clip-path:url(#clip-path-5);}.cls-16{clip-path:url(#clip-path-6);}.cls-17{clip-path:url(#clip-path-7);}.cls-18{clip-path:url(#clip-path-8);}.cls-19{clip-path:url(#clip-path-9);}.cls-20{clip-path:url(#clip-path-10);}.cls-21{clip-path:url(#clip-path-11);}.cls-22{clip-path:url(#clip-path-12);}.cls-23{clip-path:url(#clip-path-13);}.cls-24{clip-path:url(#clip-path-14);}.cls-25{clip-path:url(#clip-path-15);}.cls-26{clip-path:url(#clip-path-16);}.cls-27{clip-path:url(#clip-path-17);}.cls-28{clip-path:url(#clip-path-18);}.cls-29{clip-path:url(#clip-path-19);}.cls-30{clip-path:url(#clip-path-20);}.cls-31{clip-path:url(#clip-path-21);}.cls-32{opacity:0.48;}</style><clipPath id="clip-path"><path class="cls-1" d="M1667.29,670.44h-1a1.43,1.43,0,0,0,.29-.82,1.32,1.32,0,0,0-.4-1.07,2.53,2.53,0,0,0-1.61-.42h1a2.52,2.52,0,0,1,1.6.42,1.29,1.29,0,0,1,.4,1.07A1.36,1.36,0,0,1,1667.29,670.44Z"/></clipPath><clipPath id="clip-path-2"><path class="cls-1" d="M1665.47,671h-1a7.49,7.49,0,0,0,1.11-.16,1.23,1.23,0,0,0,.72-.43h1a1.2,1.2,0,0,1-.72.43A7.41,7.41,0,0,1,1665.47,671Z"/></clipPath><clipPath id="clip-path-3"><path class="cls-1" d="M1665.73,675.17h-1a3.24,3.24,0,0,0-.76-1.12h1A3.38,3.38,0,0,1,1665.73,675.17Z"/></clipPath><clipPath id="clip-path-4"><path class="cls-1" d="M1665,674.05h-1a1.75,1.75,0,0,0-1-.36h1A1.78,1.78,0,0,1,1665,674.05Z"/></clipPath><clipPath id="clip-path-5"><path class="cls-1" d="M1698.39,671.74h-1a1.39,1.39,0,0,0,.53-1.12,1.66,1.66,0,0,0-.4-1.16h1a1.67,1.67,0,0,1,.41,1.16A1.45,1.45,0,0,1,1698.39,671.74Z"/></clipPath><clipPath id="clip-path-6"><path class="cls-1" d="M1698.13,675.07h0Z"/></clipPath><clipPath id="clip-path-7"><path class="cls-1" d="M1698.51,669.46h-1a2.32,2.32,0,0,0-1.65-.5h1A2.31,2.31,0,0,1,1698.51,669.46Z"/></clipPath><clipPath id="clip-path-8"><path class="cls-1" d="M1696.76,672.14h-1a2.61,2.61,0,0,0,1.63-.4h1A2.65,2.65,0,0,1,1696.76,672.14Z"/></clipPath><clipPath id="clip-path-9"><path class="cls-1" d="M1343.37,747.76h-1a.91.91,0,0,0,.14-.55h1A.9.9,0,0,1,1343.37,747.76Z"/></clipPath><clipPath id="clip-path-10"><path class="cls-1" d="M1343.5,747.21h-1a.87.87,0,0,0-.33-.67h1A.84.84,0,0,1,1343.5,747.21Z"/></clipPath><clipPath id="clip-path-11"><path class="cls-1" d="M1342.94,748.08h-1a.7.7,0,0,0,.43-.32h1A.76.76,0,0,1,1342.94,748.08Z"/></clipPath><clipPath id="clip-path-12"><path class="cls-1" d="M1342.58,744.48h-.95c.34,0,.65,0,.93,0h1C1343.23,744.44,1342.92,744.45,1342.58,744.48Z"/></clipPath><clipPath id="clip-path-13"><path class="cls-1" d="M1343.17,746.54h-1a1.3,1.3,0,0,0-.74-.17h1A1.27,1.27,0,0,1,1343.17,746.54Z"/></clipPath><clipPath id="clip-path-14"><path class="cls-1" d="M1342.21,748.27h-1a3.64,3.64,0,0,0,.72-.19h1A3.86,3.86,0,0,1,1342.21,748.27Z"/></clipPath><clipPath id="clip-path-15"><path class="cls-1" d="M1342.68,750.91h-1a2.3,2.3,0,0,0-.57-.67h.95A2.16,2.16,0,0,1,1342.68,750.91Z"/></clipPath><clipPath id="clip-path-16"><path class="cls-1" d="M1342.11,750.24h-.95a1.07,1.07,0,0,0-.57-.16h1A1,1,0,0,1,1342.11,750.24Z"/></clipPath><clipPath id="clip-path-17"><path class="cls-1" d="M1363.49,746.44h-1a.93.93,0,0,0,.26-.76h1A.9.9,0,0,1,1363.49,746.44Z"/></clipPath><clipPath id="clip-path-18"><path class="cls-1" d="M1363.76,745.68h-1a1,1,0,0,0-.34-.71h1A1,1,0,0,1,1363.76,745.68Z"/></clipPath><clipPath id="clip-path-19"><path class="cls-1" d="M1363.22,742.8h-1l.47,0h1Z"/></clipPath><clipPath id="clip-path-20"><path class="cls-1" d="M1363.41,745h-1a1.17,1.17,0,0,0-.82-.23h.95A1.15,1.15,0,0,1,1363.41,745Z"/></clipPath><clipPath id="clip-path-21"><path class="cls-1" d="M1362.37,746.82h-.95a1.76,1.76,0,0,0,1.12-.38h1A1.76,1.76,0,0,1,1362.37,746.82Z"/></clipPath></defs><g id="middle_hill"><path class="cls-2" d="M1643.32,736.19c5.88,18.67,10.68,37.7,17.64,56,11.57,30.43,115.44,29.94,102.31-2.23-9.72-23.83-35.68-51.67-35.68-51.67Z"/><path class="cls-3" d="M1651.42,736.59l1.79-70.7c.9-35.69,76.2-34.57,75.28,1.9l-1.79,70.71Z"/><path class="cls-4" d="M1643.32,736.35l1.85-70.7c.94-35.69,76.24-34.5,75.28,2l-1.86,70.71Z"/><g class="cls-5"><polygon class="cls-6" points="1673.68 676.93 1676.61 677.01 1676.54 679.81 1673.61 679.73 1673.68 676.93"/><polygon class="cls-7" points="1676.54 679.81 1675.59 679.81 1672.65 679.73 1673.61 679.73 1676.54 679.81"/><polygon class="cls-7" points="1673.61 679.73 1672.65 679.73 1672.72 676.93 1673.68 676.93 1673.61 679.73"/></g><g class="cls-5"><polygon class="cls-7" points="1672.82 679.72 1671.87 679.72 1666.98 679.59 1667.93 679.59 1672.82 679.72"/><polygon class="cls-7" points="1667.93 679.59 1666.98 679.59 1664.77 675.17 1665.73 675.17 1667.93 679.59"/><g class="cls-5"><g class="cls-8"><g class="cls-5"><path class="cls-9" d="M1667.29,670.44h-1a1.43,1.43,0,0,0,.29-.82,1.32,1.32,0,0,0-.4-1.07,2.53,2.53,0,0,0-1.61-.42h1a2.52,2.52,0,0,1,1.6.42,1.29,1.29,0,0,1,.4,1.07,1.36,1.36,0,0,1-.29.82"/></g></g></g><g class="cls-5"><g class="cls-10"><g class="cls-5"><path class="cls-11" d="M1665.47,671h-1a7.49,7.49,0,0,0,1.11-.16h1a7.41,7.41,0,0,1-1.1.16"/><path class="cls-12" d="M1666.6,670.86h-1a1,1,0,0,0,.3-.1h1a1.18,1.18,0,0,1-.3.1"/><path class="cls-9" d="M1666.9,670.76h-1a1.2,1.2,0,0,0,.4-.32h1a1.08,1.08,0,0,1-.39.32"/></g></g></g><g class="cls-5"><g class="cls-13"><g class="cls-5"><path class="cls-9" d="M1665.73,675.17h-1a3.24,3.24,0,0,0-.76-1.12h1a3.38,3.38,0,0,1,.76,1.12"/></g></g></g><g class="cls-5"><g class="cls-14"><g class="cls-5"><path class="cls-9" d="M1665,674.05h-1a1.75,1.75,0,0,0-1-.36h1a1.78,1.78,0,0,1,1,.36"/></g></g></g><polygon class="cls-7" points="1665.58 668.13 1664.62 668.13 1662.72 668.09 1663.68 668.09 1665.58 668.13"/><polygon class="cls-7" points="1663.92 673.68 1662.96 673.68 1662.58 673.68 1663.54 673.68 1663.92 673.68"/><polygon class="cls-7" points="1659.04 679.36 1658.09 679.36 1658.45 665.09 1659.4 665.09 1659.04 679.36"/><polygon class="cls-7" points="1663.39 679.47 1662.44 679.47 1658.09 679.36 1659.04 679.36 1663.39 679.47"/><path class="cls-6" d="M1670.82,675.52l2,4.2-4.88-.13-2.21-4.42a3.38,3.38,0,0,0-.76-1.12,1.78,1.78,0,0,0-1-.36h-.38l-.15,5.79-4.35-.11.36-14.27,7.21.18a10.54,10.54,0,0,1,3.06.43,3.3,3.3,0,0,1,1.68,1.34,4.47,4.47,0,0,1,0,4.37,3.91,3.91,0,0,1-1.4,1.37,5.43,5.43,0,0,1-1.53.52,4.32,4.32,0,0,1,1.11.56,3.73,3.73,0,0,1,.67.76A5,5,0,0,1,1670.82,675.52Zm-3.53-5.08a1.36,1.36,0,0,0,.29-.82,1.29,1.29,0,0,0-.4-1.07,2.52,2.52,0,0,0-1.6-.42l-1.9,0-.08,2.9,1.83,0h0a7.41,7.41,0,0,0,1.1-.16,1.2,1.2,0,0,0,.72-.43"/></g><g class="cls-5"><rect class="cls-6" x="1674.19" y="670.62" width="14.28" height="4.34" transform="translate(966.9 2336.86) rotate(-88.57)"/><polygon class="cls-7" points="1683.32 679.99 1682.36 679.99 1678.03 679.88 1678.98 679.88 1683.32 679.99"/><polygon class="cls-7" points="1678.98 679.88 1678.03 679.88 1678.38 665.6 1679.33 665.6 1678.98 679.88"/></g><g class="cls-5"><polygon class="cls-6" points="1685.9 677.25 1688.83 677.32 1688.76 680.13 1685.83 680.05 1685.9 677.25"/><polygon class="cls-7" points="1688.76 680.13 1687.81 680.13 1684.87 680.05 1685.83 680.05 1688.76 680.13"/><polygon class="cls-7" points="1685.83 680.05 1684.87 680.05 1684.94 677.25 1685.9 677.25 1685.83 680.05"/></g><g class="cls-5"><g class="cls-5"><g class="cls-15"><g class="cls-5"><path class="cls-9" d="M1698.39,671.74h-1a1.39,1.39,0,0,0,.53-1.12,1.66,1.66,0,0,0-.4-1.16h1a1.67,1.67,0,0,1,.41,1.16,1.45,1.45,0,0,1-.53,1.12"/></g></g></g><g class="cls-5"><g class="cls-16"><g class="cls-5"><path class="cls-9" d="M1698.13,675.07h0"/></g></g></g><g class="cls-5"><g class="cls-17"><g class="cls-5"><path class="cls-9" d="M1698.51,669.46h-1a2.32,2.32,0,0,0-1.65-.5h1a2.31,2.31,0,0,1,1.64.5"/></g></g></g><g class="cls-5"><g class="cls-18"><g class="cls-5"><path class="cls-11" d="M1696.76,672.14h-1a4.3,4.3,0,0,0,.87-.08h1a4.45,4.45,0,0,1-.87.08"/><path class="cls-12" d="M1697.63,672.06h-1a2.2,2.2,0,0,0,.53-.17h1a2.36,2.36,0,0,1-.53.17"/><path class="cls-9" d="M1698.16,671.89h-1a.76.76,0,0,0,.23-.15h1a1.14,1.14,0,0,1-.23.15"/></g></g></g><polygon class="cls-7" points="1696.87 668.96 1695.91 668.96 1694.68 668.92 1695.63 668.92 1696.87 668.96"/><polygon class="cls-7" points="1697.85 675.06 1696.89 675.06 1694.53 675 1695.48 675 1697.85 675.06"/><polygon class="cls-7" points="1691 680.18 1690.05 680.18 1690.4 665.91 1691.36 665.91 1691 680.18"/><polygon class="cls-7" points="1695.35 680.29 1694.39 680.29 1690.05 680.18 1691 680.18 1695.35 680.29"/><path class="cls-6" d="M1702.05,667.33a4.33,4.33,0,0,1,1.09,3.27,4.45,4.45,0,0,1-1.36,3.35,5.31,5.31,0,0,1-3.65,1.12h-.28l-2.37-.06-.13,5.29-4.35-.11.36-14.27,7.2.19A4.83,4.83,0,0,1,1702.05,667.33Zm-3.66,4.41a1.45,1.45,0,0,0,.53-1.12,1.67,1.67,0,0,0-.41-1.16,2.31,2.31,0,0,0-1.64-.5l-1.24,0-.08,3.19,1.06,0h.15a2.65,2.65,0,0,0,1.63-.4"/></g><g class="cls-5"><polygon class="cls-6" points="1704.63 677.73 1707.57 677.81 1707.5 680.61 1704.56 680.53 1704.63 677.73"/><polygon class="cls-7" points="1707.5 680.61 1706.54 680.61 1703.61 680.53 1704.56 680.53 1707.5 680.61"/><polygon class="cls-7" points="1704.56 680.53 1703.61 680.53 1703.67 677.73 1704.63 677.73 1704.56 680.53"/></g><polygon class="cls-3" points="1396.9 733.61 1366.28 736.06 1364.25 710.8 1342.82 712.51 1344.84 737.77 1314.22 740.23 1315.93 761.66 1346.56 759.21 1351.4 819.69 1372.83 817.97 1367.99 757.5 1398.62 755.04 1396.9 733.61"/><polygon class="cls-4" points="1391.54 734.04 1360.92 736.49 1358.89 711.23 1337.46 712.94 1339.48 738.2 1308.86 740.66 1310.58 762.09 1341.2 759.64 1346.04 820.12 1367.47 818.4 1362.63 757.92 1393.26 755.47 1391.54 734.04"/><g class="cls-5"><polygon class="cls-6" points="1353.61 743.58 1354.33 752.79 1351.53 753.03 1350.81 743.8 1353.61 743.58"/><polygon class="cls-7" points="1351.53 753.03 1350.58 753.03 1349.85 743.8 1350.81 743.8 1351.53 753.03"/><polygon class="cls-12" points="1350.81 743.8 1349.85 743.8 1352.65 743.58 1353.61 743.58 1350.81 743.8"/></g><g class="cls-5"><polygon class="cls-6" points="1349.82 751.34 1349.96 753.15 1348.06 753.31 1347.92 751.5 1349.82 751.34"/><polygon class="cls-7" points="1348.06 753.31 1347.11 753.31 1346.96 751.5 1347.92 751.5 1348.06 753.31"/><polygon class="cls-12" points="1347.92 751.5 1346.96 751.5 1348.86 751.34 1349.82 751.34 1347.92 751.5"/></g><g class="cls-5"><g class="cls-5"><g class="cls-19"><g class="cls-5"><path class="cls-9" d="M1343.37,747.76h-1a.91.91,0,0,0,.14-.55h1a.9.9,0,0,1-.13.55"/></g></g></g><g class="cls-5"><g class="cls-20"><g class="cls-5"><path class="cls-9" d="M1343.5,747.21h-1a.87.87,0,0,0-.33-.67h1a.84.84,0,0,1,.33.67"/></g></g></g><g class="cls-5"><g class="cls-21"><g class="cls-5"><path class="cls-12" d="M1342.94,748.08h-1l.14-.05h1l-.13.05"/><path class="cls-9" d="M1343.07,748h-1a.69.69,0,0,0,.29-.27h1a.77.77,0,0,1-.3.27"/></g></g></g><polygon class="cls-7" points="1344.39 753.61 1343.44 753.61 1341.72 750.91 1342.68 750.91 1344.39 753.61"/><g class="cls-5"><g class="cls-22"><g class="cls-5"><path class="cls-11" d="M1342.58,744.48h-.95c.34,0,.65,0,.93,0h1c-.28,0-.59,0-.93,0"/></g></g></g><g class="cls-5"><g class="cls-23"><g class="cls-5"><path class="cls-9" d="M1343.17,746.54h-1a1.3,1.3,0,0,0-.74-.17h1a1.27,1.27,0,0,1,.73.17"/></g></g></g><g class="cls-5"><g class="cls-24"><g class="cls-5"><path class="cls-11" d="M1342.21,748.27h-1l.13,0h.95l-.13,0"/><path class="cls-12" d="M1342.34,748.25h-.95l.59-.17h1l-.6.17"/></g></g></g><g class="cls-5"><g class="cls-25"><g class="cls-5"><path class="cls-9" d="M1342.68,750.91h-1a2.3,2.3,0,0,0-.57-.67h.95a2.16,2.16,0,0,1,.57.67"/></g></g></g><g class="cls-5"><g class="cls-26"><g class="cls-5"><path class="cls-9" d="M1342.11,750.24h-.95a1.07,1.07,0,0,0-.57-.16h1a1,1,0,0,1,.57.16"/></g></g></g><polygon class="cls-12" points="1341.03 748.37 1340.07 748.37 1341.26 748.27 1342.21 748.27 1341.03 748.37"/><polygon class="cls-7" points="1338.65 754.07 1337.7 754.07 1336.97 744.86 1337.93 744.86 1338.65 754.07"/><path class="cls-6" d="M1346,750.79l1.58,2.56-3.17.26-1.71-2.7a2.16,2.16,0,0,0-.57-.67,1,1,0,0,0-.57-.16h-.37l.29,3.75-2.81.22-.72-9.21,4.65-.38c.34,0,.65,0,.93,0a4.72,4.72,0,0,1,1.08.1,2,2,0,0,1,1.16.75,2.91,2.91,0,0,1,.33,2.81,2.72,2.72,0,0,1-.81,1,4,4,0,0,1-1,.44,2.76,2.76,0,0,1,.75.28,2.46,2.46,0,0,1,.49.45A3.26,3.26,0,0,1,1346,750.79Zm-2.61-3a.9.9,0,0,0,.13-.55.84.84,0,0,0-.33-.67,1.27,1.27,0,0,0-.73-.17l-.33,0-1.23.1.15,1.88,1.18-.1a3.86,3.86,0,0,0,.73-.19.76.76,0,0,0,.43-.32"/><polygon class="cls-12" points="1337.93 744.86 1336.97 744.86 1341.63 744.48 1342.58 744.48 1337.93 744.86"/></g><g class="cls-5"><g class="cls-5"><g class="cls-27"><g class="cls-5"><path class="cls-9" d="M1363.49,746.44h-1a.93.93,0,0,0,.26-.76h1a.9.9,0,0,1-.27.76"/></g></g></g><g class="cls-5"><g class="cls-28"><g class="cls-5"><path class="cls-9" d="M1363.76,745.68h-1a1,1,0,0,0-.34-.71h1a1,1,0,0,1,.35.71"/></g></g></g><g class="cls-5"><g class="cls-29"><g class="cls-5"><path class="cls-11" d="M1363.22,742.8h-1l.47,0h1l-.48,0"/></g></g></g><g class="cls-5"><g class="cls-30"><g class="cls-5"><path class="cls-9" d="M1363.41,745h-1a1.17,1.17,0,0,0-.82-.23h.95a1.15,1.15,0,0,1,.82.23"/></g></g></g><g class="cls-5"><g class="cls-31"><g class="cls-5"><path class="cls-11" d="M1362.37,746.82h-.95a2.65,2.65,0,0,0,.42-.06h1a2.62,2.62,0,0,1-.43.06"/><path class="cls-12" d="M1362.8,746.76h-1a1.46,1.46,0,0,0,.46-.15h1a1.4,1.4,0,0,1-.45.15"/><path class="cls-9" d="M1363.25,746.61h-1a.86.86,0,0,0,.24-.17h1a.74.74,0,0,1-.24.17"/></g></g></g><polygon class="cls-12" points="1361.69 746.87 1360.74 746.87 1361.42 746.82 1362.37 746.82 1361.69 746.87"/><polygon class="cls-12" points="1358.57 743.17 1357.62 743.17 1362.27 742.8 1363.22 742.8 1358.57 743.17"/><polygon class="cls-7" points="1359.3 752.39 1358.34 752.39 1357.62 743.17 1358.57 743.17 1359.3 752.39"/><path class="cls-6" d="M1366.47,745.38a2.87,2.87,0,0,1-.64,2.24,3.59,3.59,0,0,1-2.46,1l-1.53.13.27,3.42-2.81.22-.73-9.22,4.65-.37.48,0a2.79,2.79,0,0,1,1.85.58A2.74,2.74,0,0,1,1366.47,745.38Zm-3,1.06a.9.9,0,0,0,.27-.76,1,1,0,0,0-.35-.71,1.15,1.15,0,0,0-.82-.23h-.26l-.8.07.16,2,.68,0a1.76,1.76,0,0,0,1.12-.38"/></g><g class="cls-5"><polygon class="cls-6" points="1357.71 750.7 1357.85 752.51 1355.95 752.66 1355.81 750.85 1357.71 750.7"/><polygon class="cls-7" points="1355.95 752.66 1354.99 752.66 1354.85 750.85 1355.81 750.85 1355.95 752.66"/><polygon class="cls-12" points="1355.81 750.85 1354.85 750.85 1356.75 750.7 1357.71 750.7 1355.81 750.85"/></g><g class="cls-5"><polygon class="cls-6" points="1369.81 749.71 1369.95 751.53 1368.05 751.68 1367.91 749.87 1369.81 749.71"/><polygon class="cls-7" points="1368.05 751.68 1367.1 751.68 1366.96 749.87 1367.91 749.87 1368.05 751.68"/><polygon class="cls-12" points="1367.91 749.87 1366.96 749.87 1368.86 749.71 1369.81 749.71 1367.91 749.87"/></g><polygon class="cls-32" points="1383.96 865.6 1383.96 865.6 1361.17 864.19 1372.19 819.02 1357.37 818.11 1345.18 818.44 1331.51 863.52 1303.37 860.62 1296.83 877.45 1326.46 879.38 1320.37 897.07 1328.51 897.58 1328.51 897.58 1332.89 897.85 1344.18 898.55 1344.18 898.55 1352.75 899.08 1357.32 880.21 1386.24 882 1389.18 865.93 1383.96 865.6"/></g></svg>