<svg xmlns="http://www.w3.org/2000/svg" xmlns:xlink="http://www.w3.org/1999/xlink" viewBox="0 0 400 200"><defs><style>.cls-1{filter:url(#AI_Shadow_1);}.cls-2{fill:#666;}.cls-3{fill:#999;}.cls-4{fill:#b3b3b3;}.cls-5{fill:#00fa00;}.cls-6{fill:#d2f78b;}</style><filter id="AI_Shadow_1" name="AI_Shadow_1"><feGaussianBlur result="blur" stdDeviation="2" in="SourceAlpha"/><feOffset result="offsetBlurredAlpha" dx="4" dy="4" in="blur"/><feMerge><feMergeNode in="offsetBlurredAlpha"/><feMergeNode in="SourceGraphic"/></feMerge></filter></defs><g id="try_again" data-name="try again"><g class="cls-1"><path class="cls-2" d="M6.78,9c2.43,2.59,5.46,4.55,8,7,1.61,1.54,3.07,3.19,5.09,4.18a9.64,9.64,0,0,1,3.63,4,5.21,5.21,0,0,1,.91,2,26.56,26.56,0,0,1,0,3.09c0,1.17-.36,2.11-.42,3.25s0,2.35,0,3.51V43.8a56.05,56.05,0,0,0,.36,9.36A39.57,39.57,0,0,1,24.83,60a27.65,27.65,0,0,1,0,3.28c-.24,1.83-2.09,2.66-1.62,4.75a14.41,14.41,0,0,0,.9,1.91c.28.72.39,1.48.69,2.2a8,8,0,0,1,.4,3.42c0,1-.08,2.12,0,3.16s.39,1.71.42,2.64c.07,1.84.4,3.58.39,5.44,0,3.28.48,7-.2,10.22-.48,2.29.62,4.19.6,6.52,0,.81,0,1.64,0,2.45,0,1,.37,1.86.44,2.81.12,1.78,0,3.68,0,5.46s-.42,3.5-.42,5.31a26.13,26.13,0,0,1-.5,5.72c-.58,2.75-1,5.6-1.52,8.39a43.9,43.9,0,0,0-.38,7.77c0,1.05,0,2.09,0,3.13,0,1.42-.35,2.73-.44,4.13-.13,2.17,0,4.41,0,6.6a15.49,15.49,0,0,0,.5,4.18c.19.76.5,1.57.64,2.35.07.4-.05.95.06,1.33s.35.6.42,1.13a30.32,30.32,0,0,1,0,3.93,17,17,0,0,1-.4,4.12c-.27,1.15-.21,2.23-1,3.08a7.88,7.88,0,0,1-.8.83c-.49.38-.67.24-1.22.4s-.73.32-1.18.43-1.18-.11-1.75.06c0,.22-.09.45-.15.67-1.27.09-3.11,1.41-4,2.11s-.94,1.08-1.91,1.26a10.39,10.39,0,0,0-2.43.82c-1.25.56-2.69,1.09-4,1.65-.57.25-1.22.32-1.82.64s-1.3.87-1.93,1.25a5.06,5.06,0,0,1-.8-3.61,24.41,24.41,0,0,0,.55-7.24,28,28,0,0,0-1.65-7.29c-.88-2.67-.08-4.79.65-7.36a6.46,6.46,0,0,0,.1-3.09c-.27-1.1-.94-2-.76-3.22a46.11,46.11,0,0,0,.83-7,23.44,23.44,0,0,1,0-2.78c.1-.85.6-1.51.73-2.39.48-3,0-6.31.06-9.38.06-1.8.61-3.28.06-5.05A39.19,39.19,0,0,1,.94,121.6a27.56,27.56,0,0,1,1-11.45,23.85,23.85,0,0,0,.82-3.09,10.66,10.66,0,0,0-.51-3.75,33.78,33.78,0,0,1-1.14-7.19c0-1.24,0-2.48,0-3.71a9.37,9.37,0,0,1,.16-3.22c.29-.76.82-1.07,1-2a23.2,23.2,0,0,0,.05-4.16c0-4.25.33-8.6-.38-12.81C1.6,67.91.76,65.58.74,63.2a21.61,21.61,0,0,0-.18-2.9C.05,56.69,1,54.1,2,50.72c.77-2.72.08-5.89,0-8.7s-.35-5.73-.72-8.53a57.78,57.78,0,0,1-.09-7.21c0-.79-.07-1.61,0-2.39A17.17,17.17,0,0,1,2,20.77c.67-2.77.42-5.81.39-8.64,0-1-.17-1.06.58-1.5A31.74,31.74,0,0,0,6.78,9Z"/><path class="cls-3" d="M6.38,12.32c0-1.24-.33-2.54.69-3.39a5.63,5.63,0,0,1,3.72-1.54c1.71,0,3.42,0,5.14,0a29.46,29.46,0,0,0,6.82-1.13,20.49,20.49,0,0,1,4.89-.92h4.72a4.62,4.62,0,0,1,.91,0,6.41,6.41,0,0,1,.87.33c.76.19,1.54,0,2.32.12a10.29,10.29,0,0,0,3.95.34,9,9,0,0,1,2.87-.38,25,25,0,0,0,2.47.43,25.64,25.64,0,0,1,3.92.08,31.35,31.35,0,0,0,5.65.32,10.07,10.07,0,0,1,1.91.09c.84.16,1.91.81,2.83,1.06a19.08,19.08,0,0,0,4.49.93c2.17.06,4.35,0,6.52,0,2.92,0,5.71-.43,8.65-.4,1.56,0,3-.45,4.57-.43,2.13,0,4.3.13,6.43,0,1.85-.08,3.62-.44,5.49-.43a48.52,48.52,0,0,0,6.38-.32c1.83-.23,3.75.22,5.55-.18.35-.08.64-.28,1-.34.78-.14,1.6.11,2.4,0a23.2,23.2,0,0,1,3.28-.74,15.8,15.8,0,0,0,3-.5,82.39,82.39,0,0,1,8.4-1.46c2.65-.4,6.74-1.4,8.91.72a7.12,7.12,0,0,0,3.53,1.73,11.53,11.53,0,0,0,1.74.75,31.4,31.4,0,0,0,4.75,0c3.26,0,6.41-.41,9.67-.41h3.58A17.31,17.31,0,0,1,164,7.82c1.5.5,3,.06,4.46.37.72.16,1.26.7,2,.86,4.28,1,8.61-.46,12.89.19a43.73,43.73,0,0,0,6.17.21,20,20,0,0,0,6-.82c1.56-.46,3.07-1.52,4.65-1.66,2.25-.19,4.52.24,6.76-.08a10.86,10.86,0,0,1,3.36-.24,26.71,26.71,0,0,0,2.67.35,30.32,30.32,0,0,1,4.88.34c2.9.53,5.39-1.89,8.09-2.38,2-.37,4,.33,6,.4s4.28,0,6.41,0c3.09,0,6.14-.37,9.22-.44,1.13,0,2.25.07,3.38.06a43.83,43.83,0,0,0,5.48-.79,59.45,59.45,0,0,1,8-.07,67.64,67.64,0,0,1,7.4.09c.9.09,1.8.29,2.7.44,1.63.27,3.22.16,4.84.33a60.32,60.32,0,0,0,6.7.8c2.16,0,4.33.08,6.49,0s4.63-1,6.87-1.34c4-.6,7.81-2.6,11.87-3.18a12.56,12.56,0,0,1,3,.05c1.89.18,3.8.27,5.67.52,2.17.3,4.33.84,6.51,1,2.43.23,4.71.92,7.17.85,3.72-.09,7.39-.75,11.12-.84,2.36,0,4.65-.42,7-.42h2.49c5.12,0,10.23-.77,15.37-.83a10.72,10.72,0,0,1,2.15.33c.79.13,1.56.09,2.37.18a40.3,40.3,0,0,1,5.38,1.06c2.08.53,4.23.41,6.34,1a7.06,7.06,0,0,1,.07,2.59c-.13.91-.46,1-1.23,1.45-1.85,1.19-2.41,2.8-4.48,3.59-1.51.57-1.53,1.18-2.93,2a23.48,23.48,0,0,0-3.91,3c-1.07,1-5.14.64-6.62.87-1.15.18-2.36.29-3.52.48s-2.49.53-3.73.76a53.22,53.22,0,0,1-8.18.45,229.48,229.48,0,0,0-24.12,2.5c-10.12,1.45-20.26,2.49-30.45,3.35a204.66,204.66,0,0,0-25.15,3.22c-5.71,1.2-11.59,2-17.11,4C247.07,35.06,240,37.69,232,36.82c-2.12-.23-4.26-.78-6.37-1.1-2.3-.35-4.63-.52-6.93-.81-4.86-.59-9.67-1.52-14.54-2-6.59-.72-13.2-1.22-19.8-1.85-2.63-.25-5.24-.58-7.87-.84a46,46,0,0,0-10.79.63A206.17,206.17,0,0,1,142.4,32c-3.53.06-6.94-.1-10.47-.33-5.27-.33-10.61-.32-15.86-.9-5.91-.65-11.71-2.08-17.63-2.68s-12,0-18-.42c-3.59-.25-7.13-1.2-10.71-1.34s-7.3,0-11-.42c-3-.34-5.95-.16-8.9-.51a24.12,24.12,0,0,0-5.76-.22c-1.74.19-3.43.29-5.19.31a5.32,5.32,0,0,1-2.41-.73,9.09,9.09,0,0,0-3.73-.49c-1.35,0-2.54-.45-3.89-.43a23.16,23.16,0,0,1-4.78,0A15.2,15.2,0,0,1,19.6,21.8c-1.72-1.11-3.21-2.51-4.85-3.73s-3.5-1.72-5.19-2.7C8.29,14.63,7.83,14,6.38,12.32Z"/><path class="cls-3" d="M368.54,20.37c.7.13,1.27-.58,1.76-1,1-.8,2-1.55,2.94-2.38.71-.61,1.27-1.37,1.93-2.05.81-.83,1.58-1.73,2.44-2.5s1.84-1.28,2.7-2c1.31-1,2-2.44,3.12-3.65.38-.41.92-1.09,1.48-1.19s.55.2.94.31.88-.2,1.33-.27a50.58,50.58,0,0,1,.58,5.81c0,1.29,0,2.57,0,3.85a17.34,17.34,0,0,0,.12,4.14,20.13,20.13,0,0,0,1.24,3.09c.6,1.31.41,3,.73,4.41.41,1.8.39,3.66.78,5.47a42.7,42.7,0,0,1,.89,5.75,24,24,0,0,0,.08,2.68c.1.55.33,1.08.43,1.64.24,1.33.52,2.62.82,3.93a11.18,11.18,0,0,1-.22,4c-.3,1.87-.52,3.68-.75,5.55-.14,1.17-.24,2.32-.35,3.48a37.65,37.65,0,0,0-.53,4q0,3.27,0,6.52a9.3,9.3,0,0,0,.35,2.41c.21.88.18,1.8.32,2.7s.38,2,.56,2.92c.15.76.1,1.51.19,2.28a92.11,92.11,0,0,1,.21,10.11v-.18a29.71,29.71,0,0,0,0,4.22,38.43,38.43,0,0,0,.81,5.37c.42,1.29,0,2.61,0,4a30.7,30.7,0,0,1-.05,4.29c-.22,1.44-.83,3.14-.6,4.58.13.76.53,1.36.63,2.13a13.66,13.66,0,0,1,0,3.38c-.29,1.95-1.19,3.73-1.21,5.75a28.39,28.39,0,0,0,.21,5.14,22.76,22.76,0,0,1,.05,3.6,25.25,25.25,0,0,1-.05,3.37,34.24,34.24,0,0,0-.44,4.74,11.73,11.73,0,0,0,.27,2.85,11.88,11.88,0,0,1,.26,1.47c.11.83.74,1.48.72,2.27s-.26,1.47-.27,2.22c0,.51,0,1,0,1.54a3.86,3.86,0,0,0,0,1c0,.17.19.29.21.44a4.83,4.83,0,0,1-.23,1.34c-.6,3.74,0,7.5,0,11.26a46.11,46.11,0,0,1-.06,5.76c-.1.81-.13,1.52-.18,2.32s-.31,1.84-.27,2.8.4,1.53.14,2.43a3.61,3.61,0,0,1-.92,1.58c-.45.41-.82.84-1.25,1.27a10.24,10.24,0,0,0-.79.83c-.39.48-.22.77-.44,1.23a1.11,1.11,0,0,1-1.39.5,4.26,4.26,0,0,1-.82-.65c-.24-.28-.33-.62-.57-1a12.05,12.05,0,0,0-.89-1.44c-.71-.75-1.35-1.5-2-2.27-.55-.61-1-1.3-1.56-1.86s-1.14-1-1.7-1.52-1-.48-1.54-.8-1.1-.76-1.62-1.13a13.05,13.05,0,0,1-2.65-2.8,3.49,3.49,0,0,1-.63-.95,5.42,5.42,0,0,1-.24-1.33,36.79,36.79,0,0,1-.19-5.15c0-2.52,0-5.05,0-7.57,0-2.71,0-5.37.24-8.07.27-2.87.52-5.76.51-8.64,0-5.33.55-10.92-.74-16.13a32.11,32.11,0,0,1-1.08-5.42c-.18-2.57-.57-5.12-.74-7.69-.17-2.4-.14-4.8-.3-7.19a51,51,0,0,1-.09-7.62,27.38,27.38,0,0,1,1.34-6.27,18.46,18.46,0,0,0,.65-2.16,33.43,33.43,0,0,0,.74-6.64,35.75,35.75,0,0,0-1.47-9.12c-1.53-6-1.78-12.17-2.54-18.3a76.74,76.74,0,0,1-.49-7.73c0-1.5-.27-3-.25-4.48V37.46a19,19,0,0,0-.3-2.81c-.14-.69-.07-1.36-.19-2,0-.25-.22-.41-.27-.68a7.77,7.77,0,0,1,0-1.08c0-.68.07-1.41,0-2.09a19.64,19.64,0,0,0-.57-2.5,3,3,0,0,1,0-1.78A24.33,24.33,0,0,0,368.54,20.37Z"/><path class="cls-2" d="M4.87,179.65a3.24,3.24,0,0,1-.3,1.25c-.13.47-.05.92-.17,1.39a8.26,8.26,0,0,1-1,2.43c-.61,1-.44,1.15.57,1.64.69.33,1.06,1,1.69,1.38.8.46,1.73.25,2.6.45s1.4.92,2.11,1.14a17.2,17.2,0,0,0,5.31.82,7.7,7.7,0,0,1,3.58.79,8.49,8.49,0,0,0,4.31.34,13.23,13.23,0,0,1,2.48-.36h2.22c2.63,0,5.22-.41,7.85-.39,1.08,0,2.15,0,3.23,0,2.18,0,4.69-.37,6.82.07,2.72.55,5.33,1.64,8.13,1.84,3.31.25,6.71,0,10,0,3.83,0,7.66,0,11.5,0a97.14,97.14,0,0,0,10-.79,29.66,29.66,0,0,0,4.47-.78,38.87,38.87,0,0,1,5-.58,25.57,25.57,0,0,1,5.6,0,41.37,41.37,0,0,0,10.19-.17c3.51-.52,6.64-1.35,10,0,1.52.6,3.1,1.1,4.64,1.66a9.2,9.2,0,0,0,3.35.28c1.18,0,2.39.1,3.57,0a23.33,23.33,0,0,0,2.34-.54,11.79,11.79,0,0,1,3.84-.16c1.1.12,2.16.48,3.25.65a17.67,17.67,0,0,0,2.72,0c1.69,0,3.21.77,4.86.82,1.88.06,3.67.35,5.56.37a19.9,19.9,0,0,0,3.45-.27c1.62-.27,3.11-1,4.73-1.23,3.25-.44,6.78-.08,10.07,0,1.57,0,3.08-.34,4.64-.41,2.24-.1,4.49.31,6.71-.17,3.14-.67,5.76-3.17,9-3.32,2.24-.1,3.91.92,6,1.35s4,.13,6,.29c1.65.13,3.27.53,4.89.81a22.27,22.27,0,0,0,7-.25c1.9-.24,3.71.42,5.59.53a49.83,49.83,0,0,0,5.05.42c2.55-.1,5-.61,7.58-.8a8.73,8.73,0,0,1,4.72,1,7.26,7.26,0,0,0,1.57.94,15.63,15.63,0,0,0,2.74.08c4,.34,8,1.22,12,1.49,3.31.22,6.54.4,9.88.42a48.87,48.87,0,0,0,8.71-.59c1.24-.21,2.5-.39,3.75-.53a8,8,0,0,1,2.87.34c1.86.43,3.58.2,5.43.48a53,53,0,0,0,7,.28c2,0,3.91.45,5.9.42,1.31,0,2.42.26,3.7.36a13.41,13.41,0,0,0,4.46-.77,10.37,10.37,0,0,1,2.94-.72l.05.34c0,.15-.49-.4-.47-.25a9,9,0,0,0,3.1.1h10.39c1.53,0,3.07,0,4.61,0s2.9-.5,4.4-.59a50.62,50.62,0,0,0,5.07-.25,43.86,43.86,0,0,1,6.28-.24,40.2,40.2,0,0,0,6.13-1,23.89,23.89,0,0,1,3.59-.08c1.52,0,2.18-1,3.58-1.16a30,30,0,0,1,3.79,0,39.43,39.43,0,0,0,7.51-.67c3.19-.59,6.42-1.17,9.6-1.79,2.29-.44,4.84.24,7.08-.31,1.65-.39,2.49-1,2.46-2.68,0-1.29.3-2.92-.24-4.1a18.34,18.34,0,0,0-2.43-3,22.22,22.22,0,0,1-2.25-3.26c-.41-.8-1.4-2.75-2.11-3.18-.53-.31-1.41,0-2-.19-.86-.25-1.36-1.06-2.12-1.41A11.84,11.84,0,0,0,374,169c-2.36-.19-4.69-.46-7-.81-5.86-.86-11.36-1.94-17.31-1.92-6.69,0-13.41-.27-20.08.4-6.89.7-14.32,1.65-21.11-.09a54.7,54.7,0,0,0-11.19-1.91c-4.24-.17-8.5,0-12.75,0-12.61,0-25.2.47-37.82.55a83.67,83.67,0,0,1-13.69-.8c-3.74-.59-7.41-1.5-11.19-1.85-3.27-.31-6.6,0-9.88-.07-2.66,0-5.27-.29-7.93-.44-5-.28-10,0-15-.65a73.65,73.65,0,0,1-10.44-1.76,67.73,67.73,0,0,0-10.51-2.3,135.66,135.66,0,0,0-14.1-.92c-6.1-.09-12.25,1.42-18.23,2.47-3.36.59-6.74,1.5-10.13,1.87a95.06,95.06,0,0,1-10.27.08c-6,0-12-.24-18-.82-6.53-.63-14-1-20.41.85-3.35,1-7.14.53-10.6.52s-7.11-.12-10,2c-1.06.8-1.45,2-2.71,2.71-2.29,1.38-4.92,1.83-7.53,2.31-3.2.57-5.9,2.18-9,3.16-2.72.86-5.16,2.8-8.09,2.85-2,0-4,0-6,0a17.75,17.75,0,0,0-5.06.41,45,45,0,0,0-5.07,1.7,34.4,34.4,0,0,1-3.32,1.28,7.7,7.7,0,0,1-1.73.41c-.79.08-1.24.62-2,.66C5.83,179,4.86,179.5,4.87,179.65Z"/><path class="cls-4" d="M24.72,20.8c3,0,5.12,2.48,8.07,1.92,4.63-.86,9.24-.66,13.88-1.36,5.13-.77,9.64.24,14.58,1.54,3.8,1,8.42,3.38,12.39,3.49,3.06.09,6.11-1.29,8.8-2.57a55.86,55.86,0,0,1,8.79-3.7c4.29-1.23,8.87-.66,13.24-.73,9.87-.16,19.52-2.57,29.38-2.86,3.76-.11,8.69-.28,12.33.83,3,.92,5.22,3,8.06,4.07,5.59,2.13,11.27-1.19,16.88-2,3.85-.52,7.37.47,11.21.67,7.81.39,15.71.3,23.12,2.85,7.13,2.46,16.15.69,23.31-.7,3.18-.62,7.4-2.5,10.64-2.23,4.12.34,1.49,10.55,4.29,13.8.79-3,2.08-6.29,5.34-7.3.37-3.31-.28-7.12,3.14-8.63a13.14,13.14,0,0,1,4.19-.63c6.95-.59,13.75-.73,20.73-.71,5.49,0,11,.07,16.47,0,4.63-.05,9.06,1.3,13.69.82,5.63-.58,10.91-2.63,16.4-3.46,6.49-1,13.33.93,19.85.88,4.75,0,9.5,0,14.25,0h11.48c1.38,0,5-.5,6.73.09.3,2-.39,4.26,0,6.26s2,3.39,2.74,5.34c1.29,3.52.83,6.73.89,10.55a22,22,0,0,1-1.61,9.5,19,19,0,0,0-1.24,6.51c.13,5.79,4.43,9.86,5.58,15.31,1.53,7.22-.34,14.69,1,21.85,1.51,8.18.69,17,.69,25.39,0,5.89-1.4,10.16-3.6,15.68a23.05,23.05,0,0,0-.92,14.3c1.51,5.61,3.43,10.84,2.27,16.77a15.1,15.1,0,0,1-5.57,9.67c-2.07,1.69-3,1.28-5.49,1.65-4.79.72-9.28,3.4-14.21,3.73a23.56,23.56,0,0,1-6.56-.13,25.42,25.42,0,0,1-3.35-1.73c-3.27-1.56-7.24-.91-10.84-.91-2.23,0-4.48-.08-6.71,0-2.55.1-3.2.67-5.25,2.64-1.72,1.66-2.27,1.9-4.51,1.9a8.94,8.94,0,0,0-3.9.66,38.54,38.54,0,0,1-18.89,1.86,54.9,54.9,0,0,0-13.8-.5c-6.91.62-13.73.72-20.67.7-7.52,0-15,.4-22.42-.7a64.69,64.69,0,0,0-9.65-.2c-4.83,0-10,0-14.21-1.8-2.12-.89-5.21-1.3-7.43-1.89a33.19,33.19,0,0,0-7.26-.87c-5.56-.27-10.78-.9-16.39-.89-3.31,0-7.14-.45-10.44,0-5.26.76-10.44,2.57-15.74,3.41-6,1-13.21,2.57-19.19.43-5.09-1.81-.82-5.61-3-8.91-1.9,1.64-2.82,4.13-4.56,5.87-.76.76-1.9,2.37-2.73,2.76s-2.41-.1-3.47.12c-1.27.25-2.16.83-3.54.84a12.17,12.17,0,0,1-7.06-2.29c-2-1.27-5.8-4.49-8-4-2.86.59-3.09,4.39-5.32,5.37s-4.41-.46-6.21-.9c-2.5-.62-5.49.1-8-.42a39,39,0,0,0-8-.46c-6.28,0-11.49.17-17.36,2.77-5.1,2.26-13,.86-18.43.86-2.76,0-5.76.37-8.49,0-2.23-.27-3.89-1-6.27-.94-3.34,0-9.58,1-11.56-2.7s.46-9.61,2.27-12.74.92-8.93.87-12.72c0-2.43.91-4.34.88-6.81,0-2.11.06-4.24,0-6.35-.05-2.51-1.42-4.41-1.83-6.81-.31-1.83.05-4,.05-5.91,0-2.4-.42-5.26.2-7.56s1.59-3.57,1.57-6.31a16.22,16.22,0,0,0-1.35-7,16.31,16.31,0,0,1-1.3-6.61A26.71,26.71,0,0,1,20,90.63c.65-2.36.41-4.87.41-7.31,0-2.84.17-5.75,0-8.59-.13-2.28-1.47-4.14-1.84-6.35-.73-4.32,1.82-7.56,1.82-11.81,0-2.49-.8-4.41-.9-6.81-.08-2,.35-4.14-.4-5.9-.87-2-2-3.92-1.41-6.4.17-.75.8-1,1-1.73a16.55,16.55,0,0,0-.05-3.22c0-2.27,0-4.54,0-6.81a13.33,13.33,0,0,1,.08-3.1c.19-.76.91-1.25,1-2.18Z"/></g><g class="cls-1"><path class="cls-5" d="M150.36,89.32c-3,0-6.32-1.8-6.89-6.83a6.29,6.29,0,0,0-1-1.37l-1-1.12,0-1.52c-.15-9.15-.52-17.18-1.12-23.94a12.42,12.42,0,0,0-1.55.55l-.54.22-.59.07c-.27,0-.54,0-.79,0-2.56,0-5.44-1.45-6.44-5.39a8.85,8.85,0,0,1-.88-1.5l-.28-.6-.07-.67c-.91-8.88,7.38-10.76,10.06-11.13a151,151,0,0,0,23.24-5.54l1.54-.52,1.47.7c.89.43,3.61,1.73,4.29,4.51l.06.26.19,1.85-.21.78.66.73.5,5c.38,3.07-2,4.53-4.19,5.27-.56,2.3-1.74,4.76-4.64,5l-.23,0a9.71,9.71,0,0,1-1.12.06,20.42,20.42,0,0,1-4.44-.58l.24,2.36c.39,3.66,1.44,10.31,3.12,19.76l.13.76-.14.66a12.58,12.58,0,0,1,.39,2.12l.22,2.05-4.78,4.25-.6,2.82-1.78.18-.46.46-1.42.16C150.93,89.3,150.64,89.32,150.36,89.32Z"/><path class="cls-6" d="M163.71,34.38c1.27.61,2,1.22,2.13,1.85l.09.82-.6,2.16,1.25,1.39.37,3.69q.12.91-3.72,1.62c-.34,2.81-.83,4.24-1.48,4.29l-.28,0a5.48,5.48,0,0,1-.72,0,22.07,22.07,0,0,1-5.87-1.09A11.18,11.18,0,0,0,153,49a5.79,5.79,0,0,0-.61,0l-.4,1.31.63,6.13q.58,5.69,3.15,20.06a4.08,4.08,0,0,0-.11,1.25,7.35,7.35,0,0,1,.45,2l-.51.45c-.06-.62-.56-1-1.51-1.08-1,.59-1.81,2.47-2.47,5.63a1.59,1.59,0,0,0-.77.51,3.52,3.52,0,0,1-.45,0c-1.73,0-2.7-1.13-2.93-3.38a6.72,6.72,0,0,0-2-3.52q-.25-16.07-1.42-27.28A1.18,1.18,0,0,0,142.75,50a18.67,18.67,0,0,0-5.57,1.39l-.38,0c-1.59,0-2.5-1.15-2.75-3.43h0c-.26,0-.57-.38-.92-1.14q-.59-5.79,6.68-6.76a154.55,154.55,0,0,0,23.92-5.71m.52-8.62-3.08,1a146.43,146.43,0,0,1-22.56,5.38,16.6,16.6,0,0,0-9.8,4.46,13.4,13.4,0,0,0-3.63,11l.13,1.33.56,1.21a14.18,14.18,0,0,0,.85,1.56,10.5,10.5,0,0,0,9.94,7.65c.38,5.64.64,12,.75,19.12l.05,3,2.05,2.24.16.18c1,5.66,5,8.57,9,9.19l.32,3.55,4.11-3.65,1.33-.13.47-.47,3.28-.32.92-4.41,1.74-1.54.51-.46L164.46,83,164,78.93a16.64,16.64,0,0,0-.26-1.75l.11-.53-.27-1.54c-1.31-7.39-2.23-13-2.75-16.84.49,0,1,0,1.44-.08l.26,0a9,9,0,0,0,7.46-6,8.76,8.76,0,0,0,4.9-8.64h0l-.37-3.69-.26-2.61-.33-.37-.06-.61-.09-.82-.06-.54-.12-.52c-.75-3.07-2.92-5.49-6.46-7.18l-2.93-1.4Z"/><path class="cls-5" d="M210,92.24a28.06,28.06,0,0,1-8.17-3.35,70.78,70.78,0,0,1-9.44-7.72A69.36,69.36,0,0,1,184.14,72l-.56,2.61c-1.29,5.22-3.72,6.91-5.83,7.3a7.66,7.66,0,0,1-1.67.64l-1,.26-2.1-.52-.63-.46c-3.59-2.64-3.87-8.3-1-20.17.67-6.42,1.18-13.57,1.51-21.27l.07-1.56,1.1-1.1c3.07-3.07,4.38-4.23,5.83-4.53a13.07,13.07,0,0,1,4.23-.69,15.11,15.11,0,0,1,3.54.44C215.46,39.73,221.3,44.69,221.53,50l0,.57-.71,2.88c0,.05,0,.13.06.23l.47,1.54-1,1.9-.06,1.17-.09.37c-.8,3.26-3.94,5.6-10.25,7.5,2.23,1.73,5.54,4.2,10.43,7.73l.32.22.26.28c1.87,2,2.6,4,2.15,6l-.27,1.19-.5.47.4,1.8-1.16,2.71-1.08,4.57-4.28-1.07a5.7,5.7,0,0,1-.57-.18l-.47,1.92-.81,0-.24,1.44Z"/><path class="cls-6" d="M184.14,36.47a11.34,11.34,0,0,1,2.6.32q30.54,7.5,30.8,13.41l-.63,2.56a4.25,4.25,0,0,0,.17,2.1l-.62,1.23-.09,1.64q-.83,3.36-12.36,5.86c-1.21.36-1.84.65-1.9.88q.76,1.73,16,12.7c.91,1,1.29,1.74,1.16,2.33a3.64,3.64,0,0,0-1.14,1.76l.49,2.18-.8,1.85-.22,1-.35-.09c-.15,0-.76-.3-1.84-.79-1.88.22-3,1.09-3.35,2.58-.71,0-1.08.17-1.11.4a23.73,23.73,0,0,1-7-2.87,67.82,67.82,0,0,1-8.83-7.26,67.42,67.42,0,0,1-10.53-12.6,2.37,2.37,0,0,1-.08-1l-1.17-1.65-.54-.48-.88.79L179.7,73.61q-1.08,4.35-3,4.35a1.67,1.67,0,0,1-.44-.06c-.08.31-.48.55-1.2.74l-.34-.08q-2.86-2.1.63-16.25,1.05-9.89,1.56-21.79c2.3-2.3,3.59-3.44,3.9-3.44h0a9,9,0,0,1,3.31-.61m.13,18.11a14.79,14.79,0,0,1,3.63-.85,1,1,0,0,1,.38.05l2.15-.85,1.08.85a1.61,1.61,0,0,1,.35,0,22.2,22.2,0,0,1,5.53,1.52c.65,0,1.25,0,1.8,0,2.88,0,4.48-.37,4.8-1.12a14.73,14.73,0,0,0-4.66-4.2l-5.74-2.53a16.94,16.94,0,0,0-5.44-1.72c-.47,0-.76.13-.87.38L184,53.73a.63.63,0,0,0,.31.85m-.13-26.11h0a17.12,17.12,0,0,0-5.38.86c-2.66.68-4.7,2.72-7.51,5.53l-2.2,2.2-.13,3.11c-.32,7.52-.82,14.5-1.47,20.76C164.69,72.27,164.12,80.71,170,85l1.26.93,1.53.38.34.09,2,.49,2-.52a12.31,12.31,0,0,0,2-.73A10.33,10.33,0,0,0,185,81.42c.27-.4.53-.81.77-1.25q1.91,2.07,3.91,3.93a73.94,73.94,0,0,0,10,8.18,31.94,31.94,0,0,0,9.34,3.85l8.38,2.05.42-2.52.59,0,.21-.86L223.52,96l1.86-7.9.07-.28.52-1.2,1-2.37-.29-1.31.38-1.68c.51-2.29.39-5.81-3.15-9.57l-.53-.56-.62-.45c-1.81-1.3-3.4-2.46-4.79-3.48,2.91-1.73,5.31-4.14,6.15-7.55l.18-.74,0-.69,1.31-2.57L225,53.39l.31-1.29.27-1.1-.05-1.14c-.38-8.79-10-14.24-36.88-20.83a18.75,18.75,0,0,0-4.51-.56Z"/><path class="cls-5" d="M238.93,88.72l-.3,0c-3.59-.55-5.93-2.8-6.32-6-.23-.4-.72-1.21-1.73-2.73l-1.07-1.63.62-1.85c.84-2.51,2.8-5.89,6.15-10.64l.06-.09c1.17-1.56,2-2.72,2.59-3.58-2.39-2.55-4.89-7.07-8-14.16a9.43,9.43,0,0,1-1.39-4.38v-.92l.4-.83c2.5-5.14,6-6.23,8.57-6.23,3.44,0,5.34,3.23,7.59,9.2a34.93,34.93,0,0,0,2.05,3c1.74-1.35,4.61-4.5,8.76-11.82l.05-.1.07-.1a12,12,0,0,1,3.52-3.21,5.46,5.46,0,0,1,4-2.25l.76-.09.7.17a7.15,7.15,0,0,1,2.38-.42h.43l.43.09c4.06.89,6.12,2.76,6.12,5.56v.89L275,37.89a21.2,21.2,0,0,1,1,5.82l.14,2-1.56,1.31c-6.8,5.69-11.6,11.09-14.28,16.05l-.15.27-.18.24c-5.91,7.81-7.14,12.19-7.14,14.49v.75l-.27.7c-.66,1.69-2,5.2-5.41,5.2h-.94v.7l-1.65,1.2a9.17,9.17,0,0,1-5.34,2.07Z"/><path class="cls-6" d="M268.38,34c2,.43,3,1,3,1.65V36l-.65,2.3q1,1.11,1.31,5.65Q261.19,53,256.79,61.2q-8,10.51-8,16.9c-.69,1.76-1.25,2.65-1.68,2.65h-.31a3.8,3.8,0,0,0-2-1q-2.64,2.7-2.64,3.67a5.53,5.53,0,0,1-3,1.3c-2-.3-3-1.29-3-3a19.52,19.52,0,0,0-2.33-4q1.05-3.12,5.62-9.6,4.64-6.19,4.64-7.3-3.3,0-9.61-14.58a6.8,6.8,0,0,1-1-2.64c1.29-2.65,2.94-4,5-4,.93,0,2.25,2.32,4,7q3.66,6,5.31,6,5.31-1.73,12.59-14.57a11.55,11.55,0,0,1,3.32-2.67c0-.55.44-.89,1.31-1l1.33.34a4,4,0,0,1,2-.65m.87-8h-.87a10.62,10.62,0,0,0-2.44.28l-.39-.1-1.52.2a9.44,9.44,0,0,0-6.25,3.29,14.81,14.81,0,0,0-4.07,4l-.13.2-.11.2a66.67,66.67,0,0,1-4.49,7c-1.84-4.46-4.69-9.45-10.43-9.45-3,0-8.58,1.11-12.17,8.49l-.8,1.65v1.84a12.78,12.78,0,0,0,1.78,6.11,72.84,72.84,0,0,0,6.56,12.56l-.78,1.06-.07.09-.06.09c-3.58,5.07-5.7,8.78-6.67,11.66l-1.25,3.71,2.16,3.25c.6.92,1,1.53,1.24,1.94.95,4.46,4.54,7.76,9.54,8.52l.6.09h.6a13,13,0,0,0,7.7-2.84l1.72-1.26c5-.84,7-5.87,7.65-7.63l.54-1.39V78.1c0-.87.45-4.31,6.33-12.07l.37-.49.29-.54c2.44-4.51,6.92-9.52,13.32-14.88l3.13-2.62L280,43.43a29.67,29.67,0,0,0-.83-5.59l.19-.7V35.69a9.05,9.05,0,0,0-4.87-7.92,16.43,16.43,0,0,0-4.4-1.55l-.84-.18Z"/><path class="cls-5" d="M70.49,164.09c-2.6,0-4.27-2.13-6-4.7l-.52-.76-.28-1.88c-.2-1.3-.27-1.74,6.47-19.77a224.23,224.23,0,0,1,10.59-31.35l.86-2,1.52-.25c.23-.19.63-.54,1.25-1.14l1.34-1.3,1.81.19a7.42,7.42,0,0,1,2.25-.77,8.19,8.19,0,0,1,1.07-.08c5.47,0,8.09,6,9.07,8.38,6.55,10.45,11.74,17.48,15.44,20.9l1.07,1,.26,2a5.79,5.79,0,0,1-.06,1.88,25.29,25.29,0,0,1,1.75,5.27l.67,2.72-4.71,3.14-1.08-.45a5.71,5.71,0,0,1-1,2.54,5.93,5.93,0,0,1-4.07,2.3,14.82,14.82,0,0,1-2,.16c-3.65,0-5.63-1.85-6.41-3.92-.2,0-.45,0-.76,0a21.57,21.57,0,0,0-3,.26l-4.94.74a41.22,41.22,0,0,0-4.14.88l-.2,0-.21,0a10.53,10.53,0,0,1-1.64.13,7.47,7.47,0,0,1-2.86-.54c-.94,2.9-1.89,6.53-2.83,10.83l-.73,3.33L75,161.63h-.08a2.36,2.36,0,0,0-.17.26l-1,1.8-2.61.34-.26,0Zm7.72-21.6"/><path class="cls-6" d="M90.82,104.25q3,0,5.49,6.2,10.29,16.45,16.31,22l.08.65a9.5,9.5,0,0,1-.34,2.08c.68.64,1.39,2.44,2.11,5.39l-.6.4a4.3,4.3,0,0,0-1.63-.37,3,3,0,0,0-.42,0l-.34,0c-1.59,1.31-2.34,2.31-2.24,3a1.74,1.74,0,0,1-1.68,2.25,10.11,10.11,0,0,1-1.47.12q-2.52,0-2.79-1.8-.31-2.14-4.38-2.15a25.05,25.05,0,0,0-3.57.3l-4.95.74a41.91,41.91,0,0,0-4.54,1,8.43,8.43,0,0,1-1.06.08c-1.51,0-2.36-.62-2.55-1.87s-.48-1.86-.89-1.86h-.08l-.62.09c-.36.05-1.09,1.68-2.19,4.87a111.54,111.54,0,0,0-3.27,12.2H75a5,5,0,0,0-.77.07,4,4,0,0,0-3,2.3l-.66.08h-.05c-.47,0-1.38-1-2.73-3l-.14-1q-.12-.74,6.33-18a218.34,218.34,0,0,1,10.46-31c.45-.07,1.36-.77,2.72-2.1l1.37.14a3.91,3.91,0,0,1,1.87-.93,2.28,2.28,0,0,1,.45,0m-5.71,26.61h.12c1.89-.51,3.08-.8,3.55-.88a35.81,35.81,0,0,0,5.08.48,10.64,10.64,0,0,0,1.37-.08l.23-.71q-4.89-8.67-6.71-9l-.65.09q-3.84,8-3.61,9.54c.1.41.31.61.62.61m5.71-34.61a10.81,10.81,0,0,0-1.61.12h-.08a11.06,11.06,0,0,0-2.3.63l-2.59-.27-2.68,2.61-.25.24-2.56.42L77,104.08a227.12,227.12,0,0,0-10.72,31.7c-7,18.74-7,19.13-6.6,21.57l.13.94.27,1.83,1,1.53c1.65,2.41,4.41,6.44,9.33,6.44a8.47,8.47,0,0,0,1.13-.08l.61-.08,4.06-.53.88-1.64,4.39.25L83,159.35c.58-2.66,1.16-5,1.74-7.15h0A15.87,15.87,0,0,0,87,152l.41-.06.41-.11c1.93-.49,3.07-.7,3.68-.79h0l5-.73.9-.12a11.12,11.12,0,0,0,8.66,3.85,17.9,17.9,0,0,0,2.65-.21,10,10,0,0,0,6.68-3.87c.17-.24.33-.48.48-.73l2.41-1.6.59-.4,4.66-3.11-1.32-5.44a35.07,35.07,0,0,0-1.54-5,9.15,9.15,0,0,0-.08-1.8l-.07-.49-.37-2.88-2.13-2c-2.35-2.17-6.79-7.38-14.6-19.81-2.11-5-6-10.53-12.63-10.53Zm8.56,53.88Z"/><path class="cls-5" d="M158.83,162.32c-7.11,0-7.9-4.62-8-6.08a8.57,8.57,0,0,0-1.38-2l-.4-.49-.24-.59c-.89-2.21-1.53-3.86-2-5.11a20.48,20.48,0,0,1-4.54.55H140c-7.47,0-13.15-2.82-16.9-8.38l-.25-.37-.16-.4a22.56,22.56,0,0,1-2-7.78c0-7.13,5-13.84,14.81-20l.32-.19.34-.13a40.28,40.28,0,0,1,14.72-2.58h1.31c5.36,0,9.08,1.65,11.06,4.9l.58,1v1.12a5.16,5.16,0,0,1-.21,1.43l.21,1.22v2.66l-1.45,1.08c2.28,1.32,3.44,3.07,3.44,5.2v.23l-.35,3.11-.27,4.09c.2,3,.91,5.08,2,5.91a18.47,18.47,0,0,1,5.7,6.48l.8,1.65L172,153a4.51,4.51,0,0,1-3.5,3.47,17.87,17.87,0,0,1-3.71,1.16l-.09.06A5.67,5.67,0,0,1,158.83,162.32ZM137.37,130c.89,1,2.42,1.88,5.4,2,1.23-.36,2.83-1,2.83-1.95v-1.51l1-1.13A22.68,22.68,0,0,1,149,125l-1.66-.27C142.51,124.84,139.33,126.51,137.37,130Z"/><path class="cls-6" d="M152.24,112.81q5.82,0,7.64,3a2.41,2.41,0,0,1-.34,1l.34,2v.31l-2.67,2q0,.48-1,1h-.66l-7.95-1.31q-10.29,0-14.23,8.27l-.35,1.65q2.73,5.31,10.26,5.31,6.32-1.65,6.31-6,2.44-2.79,4.32-3.3c.11-.89.44-1.33,1-1.33l1.31.34a6,6,0,0,1,3-.69c1.78.72,2.67,1.5,2.67,2.33l-.34,3c-.06.89-.15,2.36-.28,4.43q.36,6.67,3.62,9.12a14.34,14.34,0,0,1,4.5,5l-1.25,2.9a.6.6,0,0,1-.68.68,12.63,12.63,0,0,1-3.64,1.13h-.31q-2.67,1.59-2.67,2.67a1.76,1.76,0,0,1-2,2c-2.65,0-4-.77-4-2.33,0-1-.76-2.48-2.3-4.32q-3-7.38-3-8.06l-.66-.32a20.83,20.83,0,0,1-6.64,1.31H140q-9.12,0-13.59-6.62a19.74,19.74,0,0,1-1.67-6.31q0-8.52,12.93-16.56a36.23,36.23,0,0,1,13.26-2.3h1.31m0-8h-1.31a44.33,44.33,0,0,0-16.18,2.85l-.68.27-.63.39c-11.08,6.89-16.7,14.75-16.7,23.35,0,2.47.69,5.32,2.23,9.24l.32.81.49.73c3.12,4.63,9.16,10.15,20.22,10.15h2.3q1,0,2-.09c.25.65.54,1.36.84,2.14l.48,1.18.81,1c.25.3.43.53.55.7.67,4.6,4.41,8.82,11.87,8.82a9.64,9.64,0,0,0,9-5.39c.58-.19,1.22-.42,1.91-.69a8.56,8.56,0,0,0,6.08-6l.92-2.13,1.45-3.36-1.6-3.3a22.13,22.13,0,0,0-6.71-7.8,8,8,0,0,1-.6-2.86l.24-3.72.32-2.79.05-.45v-.46a9.2,9.2,0,0,0-2-5.74v-3.55l-.11-.67,0-.1a8.78,8.78,0,0,0,.13-1.53v-2.24l-1.17-1.92c-1.89-3.11-5.94-6.82-14.47-6.82Z"/><path class="cls-5" d="M182.29,164.09c-2.6,0-4.27-2.13-6-4.7l-.52-.76-.28-1.88c-.2-1.3-.27-1.74,6.47-19.77a224.23,224.23,0,0,1,10.59-31.35l.86-2,1.52-.25c.23-.19.63-.54,1.25-1.14l1.34-1.3,1.81.19a7.42,7.42,0,0,1,2.25-.77,8.19,8.19,0,0,1,1.07-.08c5.47,0,8.09,6,9.07,8.38,6.55,10.45,11.74,17.48,15.45,20.9l1.06,1,.26,2a5.79,5.79,0,0,1-.06,1.88,25.29,25.29,0,0,1,1.75,5.27l.67,2.72-4.71,3.14-1.08-.45a5.6,5.6,0,0,1-1,2.54,5.93,5.93,0,0,1-4.07,2.3,14.7,14.7,0,0,1-2,.16c-3.65,0-5.62-1.85-6.41-3.92-.2,0-.45,0-.76,0a21.57,21.57,0,0,0-3,.26l-4.94.74a41.22,41.22,0,0,0-4.14.88l-.2,0-.21,0a10.53,10.53,0,0,1-1.64.13,7.51,7.51,0,0,1-2.86-.54c-.94,2.9-1.89,6.53-2.83,10.83l-.73,3.33-3.42-.19h-.08a1.54,1.54,0,0,0-.16.26l-1,1.8-2.61.34-.26,0Zm7.72-21.6"/><path class="cls-6" d="M202.62,104.25q3,0,5.49,6.2,10.29,16.45,16.31,22l.08.65a9.5,9.5,0,0,1-.34,2.08q1,1,2.11,5.39l-.6.4a4.26,4.26,0,0,0-1.63-.37,3,3,0,0,0-.42,0l-.34,0c-1.59,1.31-2.34,2.31-2.24,3a1.74,1.74,0,0,1-1.68,2.25,10.11,10.11,0,0,1-1.47.12q-2.52,0-2.79-1.8-.32-2.14-4.38-2.15a25.05,25.05,0,0,0-3.57.3l-5,.74a41.91,41.91,0,0,0-4.54,1,8.3,8.3,0,0,1-1.06.08c-1.51,0-2.36-.62-2.55-1.87s-.48-1.86-.89-1.86h-.08l-.62.09c-.36.05-1.09,1.68-2.19,4.87a111.54,111.54,0,0,0-3.27,12.2h-.25a5,5,0,0,0-.77.07,4,4,0,0,0-3,2.3l-.66.08h-.05c-.47,0-1.38-1-2.73-3l-.14-1q-.12-.74,6.33-18a219.61,219.61,0,0,1,10.46-31q.67-.11,2.73-2.1l1.36.14a3.91,3.91,0,0,1,1.87-.93,2.28,2.28,0,0,1,.45,0m-5.71,26.61H197c1.9-.51,3.08-.8,3.55-.88a35.81,35.81,0,0,0,5.08.48,10.64,10.64,0,0,0,1.37-.08l.23-.71q-4.89-8.67-6.7-9l-.66.09q-3.84,8-3.61,9.54c.1.41.31.61.62.61m5.71-34.61a10.91,10.91,0,0,0-1.61.12h-.08a10.81,10.81,0,0,0-2.29.63l-2.6-.27-2.68,2.61-.25.24-2.56.42-1.72,4.07a228.44,228.44,0,0,0-10.72,31.7c-7,18.74-7,19.13-6.6,21.57l.13.94.27,1.83,1.05,1.53c1.65,2.41,4.41,6.44,9.33,6.44a8.47,8.47,0,0,0,1.13-.08l.61-.08,4.06-.53.88-1.64,4.39.25,1.46-6.66c.58-2.66,1.16-5,1.74-7.15h0a15.87,15.87,0,0,0,2.23-.17l.41-.06.41-.11c1.93-.49,3.07-.7,3.68-.79h.06l4.94-.73.9-.12a11.12,11.12,0,0,0,8.66,3.85,17.9,17.9,0,0,0,2.65-.21,10,10,0,0,0,6.68-3.87c.17-.24.33-.48.48-.73l2.41-1.6.6-.4,4.66-3.11L234,138.7a35.07,35.07,0,0,0-1.54-5,9.15,9.15,0,0,0-.08-1.8l-.07-.49-.37-2.88-2.13-2c-2.35-2.17-6.79-7.38-14.6-19.81-2.11-5-6-10.53-12.63-10.53Zm8.56,53.88Z"/><path class="cls-5" d="M238.91,159.41c-1.41-.6-5.64-2.42-5.06-6.34a6.64,6.64,0,0,0-.85-2.17l-.63-1.19,2.64-16c.16-1,.29-2.44.38-4.19v-.23l0-.23c.61-3.64,3.41-6.58,8.33-8.74l.21-.09c-1.34-.3-2.42-.5-3.22-.6l-.72-.09-.64-.33a7.63,7.63,0,0,1-4-9.63,7.09,7.09,0,0,1,.9-5.11c2.58-4.93,8.22-7.89,16.75-8.75l1.22-.13,1.08.58a15,15,0,0,0,4.61,1.57l1.26.22.9.91c3.28,3.31,3.1,6.32,2.53,8.09l-.07,2.87-1.73,2-3.32,8.77-5.7.58-2-1.55c-.41.2-.95.5-1.66.92,1.52.6,3.31,2.18,3.55,6.21A39.86,39.86,0,0,1,253,135c-.14,9.06-.4,14.72-.81,17.3l-.19,1c-.18,1.06-.93,3-3.84,3.93l-2.12.69-.56-.47c-.09.12-.17.25-.26.38l-1.07,1.64-4.3.36Z"/><path class="cls-6" d="M253.42,99.66a19.17,19.17,0,0,0,5.82,2q2.44,2.48,1.39,4.46l-.05,2.14-1.25,1.42-2.7,7.13L255,117l-2.3-1.74a.83.83,0,0,0-.34-.06c-.73,0-2.16.62-4.29,1.88a63.92,63.92,0,0,0-6.76-1.42q-3.75-2-1.54-6.13c-.7-.74-.68-1.79.06-3.16q2.92-5.6,13.64-6.67m-8,24.29,3,.17q2.26.36.62,10.48-.19,13.44-.76,17l-.17,1c-.06.33-.44.6-1.14.83a3.91,3.91,0,0,0-1.85-1,10.13,10.13,0,0,0-3.21,3.18l-1.36.12q-2.85-1.23-2.67-2.13.26-1.68-1.28-4.58L239,134.32a43.62,43.62,0,0,0,.43-4.63q.57-3.36,6-5.74M255,91.45l-2.43.25c-9.93,1-16.62,4.66-19.9,10.88a12,12,0,0,0-1.43,6.7,11.75,11.75,0,0,0,.12,6.36,11.46,11.46,0,0,0,3.82,5.55,13.22,13.22,0,0,0-3.73,7.16l-.08.46,0,.47a36,36,0,0,1-.34,3.78l-2.4,14.68-.44,2.65,1.26,2.38c.16.31.26.54.33.7-.1,2.8,1.06,6.84,7.53,9.62l1.83.79,2-.17,1.37-.11,3.89-.33,1.08-1.64,1.89-.61a9,9,0,0,0,6.54-7.05l.17-1,0-.07v-.07c.28-1.75.66-5.48.85-17.57a42.75,42.75,0,0,0,.67-8.85,17.18,17.18,0,0,0-.19-1.71l4.91-.49,1.75-4.63,2.18-5.77.29-.33,1.92-2.18.07-2.89,0-1c.69-2.71.71-7-3.67-11.47l-1.8-1.82-2.53-.44a11,11,0,0,1-3.4-1.15L255,91.45Z"/><path class="cls-5" d="M265.31,161.07c-2.4,0-3.72-1.84-5.24-4l-1-1.36.29-1.66c1.72-9.84,2.88-17.68,3.45-23.3l0-.11,1-6.19c-.08-.31-.21-.82-.44-1.64l-.28-1,.24-1c.81-3.37,3.52-7.62,11.79-8.68l2.06-.27,1.4,1.54c1.83,2,4.53,5.22,8.19,9.78q.29-2.37.42-5.07a8.33,8.33,0,0,1-.3-2.33v-3l.44-.86c1.9-3.71,3.75-6.4,6.22-7.22l2.67-1.92h1.29a9.3,9.3,0,0,0,2.46-.5l1.37-.42,1.33.54a9.4,9.4,0,0,1,5,4.21l.74,1.45-.49,1.56c-.11.35-.19.64-.26.88a7.8,7.8,0,0,1,.79,3.24,5.16,5.16,0,0,1-.21,1.43l.44,2.55-1,1.37c-.31.43-1.17,1.88-2.56,6.26-.2,7.52-.3,13.53-.3,17.88v5c0,1.29-.54,3.12-3.09,4.51l-2.35,1.27-1-.77a3,3,0,0,0-.16.33l-.48,1.33-3.81,2.3h-1.12c-5.59,0-8-2.93-8.52-6q-4.46-7.32-7.72-11.88c-.56,2.17-1.29,5-2.23,8.79a15,15,0,0,1,.23,2.6v1l-2.28,4.2c-.57,1.49-2.12,2.57-4.77,4.43l-1,.72Z"/><path class="cls-6" d="M301.16,106.16a5.55,5.55,0,0,1,3,2.33,12.84,12.84,0,0,0-.66,2.64,5.84,5.84,0,0,1,1,2.67,2.57,2.57,0,0,1-.34,1l.34,2q-1.49,2-3.33,7.95-.32,11.79-.31,18.55v5q0,.45-1,1a3.8,3.8,0,0,0-2.33-1,10.66,10.66,0,0,0-3,4l-1.65,1c-3.08,0-4.63-1.11-4.63-3.33q-8.08-13.41-12.61-18.24a2.57,2.57,0,0,0-1-.31q-.57,1.65-4.35,16.68a10.4,10.4,0,0,1,.34,2.67l-2,3.72c0,.21-1.11,1.09-3.32,2.64-.23,0-.89-.76-2-2.3q2.61-15,3.49-23.58l1.08-6.79a19.61,19.61,0,0,0-.65-2.64q1.14-4.73,8.41-5.66Q279.24,120,287.92,131l1.34.34a58.34,58.34,0,0,0,2-13.92,3.13,3.13,0,0,1-.34-1.65v-2q2.71-5.31,4.31-5.31l2.31-1.65a12.76,12.76,0,0,0,3.63-.68m.4-8.49-2.75.85a8.43,8.43,0,0,1-1.35.32H295l-2.09,1.5-1.24.89c-4.18,1.79-6.56,6.43-7.84,8.92l-.88,1.72v.36c-.5-.57-.94-1.07-1.35-1.52l-2.81-3.07-4.12.53c-11.09,1.43-14.26,8-15.17,11.72l-.49,2,.57,2c.08.3.15.55.21.76l-.84,5.25,0,.22,0,.23c-.57,5.52-1.72,13.27-3.42,23l-.58,3.3,1.95,2.73c1.71,2.38,4.05,5.64,8.5,5.64h2.52l2.07-1.45c2.76-1.93,5.1-3.57,6.15-6.08l1.63-3,1-1.78v-2c0-.41,0-.81,0-1.22.62,1,1.28,2.06,2,3.2,1.1,4.58,5,8.55,12.3,8.55h2.23l1.91-1.15,1.65-1,1.45-.88,3.54-1.92a9,9,0,0,0,5.18-8v-5c0-4.2.09-10,.28-17.2a21.9,21.9,0,0,1,1.84-4.61l2-2.74-.6-3.3,0-.11a8.8,8.8,0,0,0,.14-1.53,11.14,11.14,0,0,0-.56-3.39l.82-2.65-1.48-2.91a13.17,13.17,0,0,0-7.06-6.08l-2.65-1.1Z"/><path class="cls-5" d="M318.76,157.94c-5.75-.79-8.11-3.89-8.5-7.08a7.51,7.51,0,0,1-.64-1.39l-.32-.9.13-1c.38-2.8,2.07-6.27,7.6-8.16a8.06,8.06,0,0,1-1.75-5.07,7.36,7.36,0,0,1-.89-4.8l.14-1.5.08-.33c3.25-12.3,4-15.59,4.1-16.47a51.21,51.21,0,0,1,.37-5.93l.1-.8.39-.7c2.86-5,3.84-6.22,5-6.93l.86-.54.87,0a3.8,3.8,0,0,0,.92-.87l1.47-1.74,3.15.52.15.07a7.89,7.89,0,0,1,2.38-.41,5.77,5.77,0,0,1,.85.06l1.24.18.92.85c2.19,2,3.84,3.78,3.62,6.15l-.19,1.39-.62,1.77.58,1.72-.32,3.08v7.41l-2.6-.47a89.67,89.67,0,0,0-4.49,11.72l-.75,6.82a4.68,4.68,0,0,1-2.37,3.71l.73.81c1.81,2,2.9,3.3,2.73,5.26l0,.36-.41,1.46a7.31,7.31,0,0,1,.17,2.65l-.32,2.33c-.4,3.19-3.34,4.09-5.8,4.39-1.56,1.47-4.17,2.29-7.82,2.42l-.34,0Z"/><path class="cls-6" d="M334.33,97.9l.29,0c1.61,1.5,2.39,2.45,2.36,2.84l-.12.83-.93,2.7.73,2.18-.25,2.42v2.84h-.09q-1.92,0-6.93,15.18l-.79,7.25c-.05.46-.26.69-.61.69h-.16a2.52,2.52,0,0,1-1.25-.63q-1.84.28-3.41,3.53a2.51,2.51,0,0,1-.91.26h-.11q-3.3-.54-2.82-5a2.93,2.93,0,0,1-1-3l.11-1.22q4-15.18,4.23-17.25a45.87,45.87,0,0,1,.35-5.71q2.83-5,3.6-5.51A5.41,5.41,0,0,0,330.24,98l.34,0,1.25.6a6.08,6.08,0,0,1,2.5-.79M325,141.69c.86,0,1.86,0,3,.1,1.16,1.27,1.72,2,1.7,2.21l-.62,2.25a4.27,4.27,0,0,1,.37,2.07l-.31,2.3c-.08.61-1.46,1-4.15,1.08-.19,1.39-2.08,2.14-5.65,2.28-3.74-.52-5.42-2.09-5.06-4.72-.32,0-.61-.41-.85-1.11q.59-4.36,7.78-5.62.1-.84,3.78-.84m2.1-52.29-2.55,3-.39,0-1.72,1.09c-1.94,1.22-3.3,3-6.31,8.35l-.79,1.4-.19,1.59a54.89,54.89,0,0,0-.4,6c-.2,1.07-1,4.56-4,15.83l-.17.64-.06.66-.11,1.14a11.75,11.75,0,0,0,.93,6.31,13.94,13.94,0,0,0,.36,2.1,12.89,12.89,0,0,0-6.23,9.49l-.26,1.91.64,1.82a11.5,11.5,0,0,0,.57,1.37,11.12,11.12,0,0,0,3.37,6.09,14.82,14.82,0,0,0,8.43,3.64l.69.1.69,0c4.4-.16,7.36-1.22,9.36-2.64.37-.07.73-.15,1.07-.24a8.84,8.84,0,0,0,7-7.39h0l.32-2.3v-.06a10.64,10.64,0,0,0,0-3l.06-.21.2-.71.06-.73a8.84,8.84,0,0,0-2.1-6.38,9.17,9.17,0,0,0,1-3.34l.7-6.37c1.27-3.81,2.23-6.37,2.93-8.09l4.23.76v-12l.21-2,.18-1.75-.42-1.25,0-.11.26-.74.11-.79.11-.82,0-.17,0-.17c.43-4.53-2.76-7.49-4.87-9.46l-1.84-1.7L335.75,90a11,11,0,0,0-1.42-.1,11.32,11.32,0,0,0-2.48.29l-.3,0-4.49-.74Zm-3.12,3.68Z"/></g></g></svg>