<svg xmlns="http://www.w3.org/2000/svg" viewBox="0 0 100 100"><defs><style>.cls-1{fill:none;stroke:#000;stroke-miterlimit:10;stroke-width:5px;}.cls-2{fill:#ed1c24;}</style></defs><g id="Seetings"><path class="cls-1" d="M8.81,85.59c26.26-4.52,53.06.28,79.52,3.26a3.34,3.34,0,0,0,2.87-.56,3.64,3.64,0,0,0,.68-2.48q.93-36.66-.55-73.31c0-1.26-73.08-3.55-79,2S9.11,32.75,9.07,40.32Q8.94,63,8.81,85.59Z"/><path class="cls-2" d="M32.93,97.54C27.78,97.54,19.86,93.08,16,88c-2.26-3-3.11-6-2.45-8.89,1.23-5.29,7.55-11.73,13.66-18,2.62-2.68,5.14-5.24,7-7.42A115.37,115.37,0,0,1,3,28.38a2.52,2.52,0,0,1-.32-2.81A77.45,77.45,0,0,1,14.47,8.91c1.3-1.39,2.92-2.81,5.14-2.81h.28c2.46.14,4.08,2.07,4.95,3.11L45.67,34.11c1,1.16,1.35,1.33,1.48,1.33s.48-.15,1.41-1.17A159.46,159.46,0,0,0,70.4,3.71,2.38,2.38,0,0,1,72,2.51a2.42,2.42,0,0,1,.47,0A2.35,2.35,0,0,1,73.92,3L91.7,17.08c1.54,1.22,4.76,3.77,4.59,7.59-.11,2.4-1.51,4.2-2.81,5.69A149.2,149.2,0,0,1,69.84,52.29C71.91,58.72,78,63,84.34,67.4A74.77,74.77,0,0,1,95.2,76c.6.61,2.4,2.46,2,4.94a5.66,5.66,0,0,1-2.21,3.31,82.44,82.44,0,0,1-13,8.92,12.55,12.55,0,0,1-6.07,2,4.35,4.35,0,0,1-.51,0c-3.4-.22-5.9-2.56-8.1-5A131.09,131.09,0,0,1,52.62,69.91a5.44,5.44,0,0,0-1.06-1.33L37.63,95.09C37.15,96,35.9,97.54,32.93,97.54Z"/><path d="M72.47,4.92,90.25,19C92,20.45,94,22.25,93.91,24.56c-.07,1.61-1.15,3-2.2,4.16A147,147,0,0,1,67.1,51.28c2.65,12.59,17.51,17.36,26.43,26.49a3.39,3.39,0,0,1,1.28,2.74,3.43,3.43,0,0,1-1.37,1.85A79.9,79.9,0,0,1,80.8,91a10.57,10.57,0,0,1-5,1.68h-.36c-2.63-.18-4.72-2.25-6.49-4.25A127.78,127.78,0,0,1,54.66,68.63c-.76-1.27-2-2.73-3.3-2.73a1.67,1.67,0,0,0-.91.28,3.47,3.47,0,0,0-1.07,1.39L35.53,93.92a2.7,2.7,0,0,1-2.6,1.16c-5.9,0-18.78-8.08-17.08-15.4C17.6,72.14,33.16,60,37.77,52.91a112,112,0,0,1-33-26.16A74.41,74.41,0,0,1,16.19,10.62c.94-1,2.07-2.06,3.42-2.06h.14c1.36.08,2.4,1.22,3.28,2.27L43.87,35.72c.88,1.05,1.93,2.18,3.28,2.18h0c1.27,0,2.29-1,3.15-1.95a162.08,162.08,0,0,0,22.17-31m0-4.92a4.38,4.38,0,0,0-1,.1,4.76,4.76,0,0,0-3.2,2.39A156.41,156.41,0,0,1,47.2,32.17L26.64,7.61c-1-1.22-3.15-3.76-6.62-4h-.41c-3.53,0-5.95,2.59-6.86,3.57A79.61,79.61,0,0,0,.58,24.4,5,5,0,0,0,1.21,30,117.69,117.69,0,0,0,30.35,54.37c-1.47,1.6-3.17,3.33-4.83,5-6.64,6.77-12.91,13.16-14.3,19.13-.59,2.52-.56,6.47,2.89,11C18.44,95.2,27.06,100,32.93,100a7.24,7.24,0,0,0,6.79-3.73L46.16,84l5.66-10.76a133.21,133.21,0,0,0,13.66,18.5c1.58,1.8,4.88,5.53,9.7,5.85.23,0,.45,0,.67,0a14.78,14.78,0,0,0,7.2-2.26,85.14,85.14,0,0,0,13.39-9.18,8.13,8.13,0,0,0,3.06-4.77c.45-2.49-.43-4.89-2.62-7.13a76.64,76.64,0,0,0-11.2-8.92C80,61.41,75,57.92,72.74,53.15A151.69,151.69,0,0,0,95.26,32c1.14-1.31,3.25-3.75,3.41-7.22.22-5.1-3.8-8.3-5.52-9.66L83.7,7.63,75.37,1a4.64,4.64,0,0,0-2.9-1Z"/></g></svg>