<svg xmlns="http://www.w3.org/2000/svg" viewBox="0 0 1920 1080"><defs><style>.cls-1{fill:none;stroke:red;stroke-miterlimit:10;}.cls-2{fill:red;}</style></defs><g id="vw_grid"><rect class="cls-1" width="1920" height="1271.33"/><line class="cls-1" y1="1080" x2="1920" y2="1080"/><line class="cls-1" y1="956.64" x2="1920" y2="956.64"/><line class="cls-1" y1="765.31" x2="1920" y2="765.31"/><line class="cls-1" y1="573.98" x2="1920" y2="573.98"/><line class="cls-1" y1="382.65" x2="1920" y2="382.65"/><line class="cls-1" y1="191.33" x2="1920" y2="191.33"/><line class="cls-1" x1="1728" x2="1728" y2="1271.33"/><line class="cls-1" x1="1536" x2="1536" y2="1271.33"/><line class="cls-1" x1="1344" x2="1344" y2="1271.33"/><line class="cls-1" x1="1152" x2="1152" y2="1271.33"/><line class="cls-1" x1="960" x2="960" y2="1271.33"/><line class="cls-1" x1="768" x2="768" y2="1271.33"/><line class="cls-1" x1="576" x2="576" y2="1271.33"/><line class="cls-1" x1="384" x2="384" y2="1271.33"/><line class="cls-1" x1="192" x2="192" y2="1271.33"/><path class="cls-2" d="M176.12,11.54h0l-1.36.73-.2-.8,1.7-.92h.9v7.8h-1Z"/><path class="cls-2" d="M185.17,14.37c0,2.65-1,4.11-2.71,4.11-1.53,0-2.56-1.43-2.58-4s1.13-4.06,2.71-4.06S185.17,11.89,185.17,14.37Zm-4.24.12c0,2,.63,3.18,1.59,3.18s1.59-1.26,1.59-3.25-.49-3.18-1.58-3.18C181.61,11.24,180.93,12.37,180.93,14.49Z"/><path class="cls-2" d="M366.21,18.35V17.7l.82-.8c2-1.9,2.89-2.9,2.9-4.08a1.39,1.39,0,0,0-1.54-1.52,2.66,2.66,0,0,0-1.66.66l-.33-.75a3.43,3.43,0,0,1,2.2-.79A2.2,2.2,0,0,1,371,12.69c0,1.44-1,2.6-2.69,4.18l-.62.58v0h3.5v.88Z"/><path class="cls-2" d="M377.54,14.37c0,2.65-1,4.11-2.71,4.11-1.52,0-2.55-1.43-2.58-4s1.13-4.06,2.71-4.06S377.54,11.89,377.54,14.37Zm-4.23.12c0,2,.62,3.18,1.58,3.18s1.6-1.26,1.6-3.25-.49-3.18-1.59-3.18C374,11.24,373.31,12.37,373.31,14.49Z"/><path class="cls-2" d="M560,17.14a3.52,3.52,0,0,0,1.72.49c1.36,0,1.78-.86,1.77-1.51,0-1.09-1-1.56-2-1.56h-.59v-.79h.59c.77,0,1.74-.4,1.74-1.32,0-.62-.4-1.18-1.37-1.18a2.89,2.89,0,0,0-1.56.52L560,11a3.71,3.71,0,0,1,2-.6c1.53,0,2.23.91,2.23,1.86a1.94,1.94,0,0,1-1.44,1.84v0a2,2,0,0,1,1.74,2c0,1.25-1,2.34-2.84,2.34a3.87,3.87,0,0,1-2-.53Z"/><path class="cls-2" d="M571.05,14.37c0,2.65-1,4.11-2.71,4.11-1.52,0-2.55-1.43-2.58-4s1.13-4.06,2.71-4.06S571.05,11.89,571.05,14.37Zm-4.23.12c0,2,.62,3.18,1.58,3.18s1.6-1.26,1.6-3.25-.5-3.18-1.59-3.18C567.49,11.24,566.82,12.37,566.82,14.49Z"/><path class="cls-2" d="M753.31,18.35V16.23h-3.63v-.7l3.48-5h1.14V15.4h1.09v.83H754.3v2.12Zm0-3V12.8q0-.62,0-1.23h0c-.24.46-.44.79-.65,1.15l-1.91,2.65v0Z"/><path class="cls-2" d="M761.38,14.37c0,2.65-1,4.11-2.71,4.11-1.52,0-2.56-1.43-2.58-4s1.13-4.05,2.71-4.05S761.38,11.88,761.38,14.37Zm-4.23.12c0,2,.62,3.18,1.58,3.18s1.59-1.26,1.59-3.25-.49-3.18-1.58-3.18C757.82,11.24,757.15,12.36,757.15,14.49Z"/><path class="cls-2" d="M947.07,11.44h-3l-.3,2a4.86,4.86,0,0,1,.63,0,3.28,3.28,0,0,1,1.68.42,2.22,2.22,0,0,1,1.12,2,2.71,2.71,0,0,1-2.91,2.66,3.8,3.8,0,0,1-1.94-.48l.26-.8a3.54,3.54,0,0,0,1.67.43,1.72,1.72,0,0,0,1.85-1.69c0-1-.68-1.73-2.24-1.73a7.17,7.17,0,0,0-1.08.09l.5-3.75h3.73Z"/><path class="cls-2" d="M953.75,14.37c0,2.65-1,4.11-2.71,4.11-1.52,0-2.55-1.43-2.58-4s1.13-4.05,2.72-4.05S953.75,11.88,953.75,14.37Zm-4.23.12c0,2,.62,3.18,1.58,3.18s1.6-1.26,1.6-3.25-.49-3.18-1.58-3.18C950.19,11.24,949.52,12.36,949.52,14.49Z"/><path class="cls-2" d="M1140.38,11.3a3.29,3.29,0,0,0-.8,0,3.16,3.16,0,0,0-2.71,2.77h0a2.37,2.37,0,0,1,4.23,1.61,2.61,2.61,0,0,1-2.59,2.75c-1.66,0-2.76-1.29-2.76-3.32a5,5,0,0,1,1.32-3.52,4.28,4.28,0,0,1,2.5-1.15,6.28,6.28,0,0,1,.77-.06Zm-.3,4.49a1.58,1.58,0,0,0-1.61-1.78,1.72,1.72,0,0,0-1.51,1,.89.89,0,0,0-.12.46c0,1.29.61,2.24,1.71,2.24C1139.46,17.67,1140.08,16.91,1140.08,15.79Z"/><path class="cls-2" d="M1147.26,14.37c0,2.65-1,4.11-2.71,4.11-1.52,0-2.55-1.43-2.58-4s1.13-4.05,2.71-4.05S1147.26,11.88,1147.26,14.37Zm-4.23.12c0,2,.62,3.18,1.58,3.18s1.6-1.26,1.6-3.25-.49-3.18-1.59-3.18C1143.7,11.24,1143,12.36,1143,14.49Z"/><path class="cls-2" d="M1331.9,10.55v.7l-3.39,7.1h-1.1l3.39-6.9v0H1327v-.88Z"/><path class="cls-2" d="M1338.18,14.37c0,2.65-1,4.11-2.71,4.11-1.53,0-2.56-1.43-2.58-4s1.12-4.06,2.71-4.06S1338.18,11.89,1338.18,14.37Zm-4.24.12c0,2,.63,3.18,1.59,3.18s1.59-1.26,1.59-3.25-.49-3.18-1.58-3.18C1334.61,11.24,1333.94,12.37,1333.94,14.49Z"/><path class="cls-2" d="M1517.07,16.37a2.24,2.24,0,0,1,1.55-2.09v0a1.93,1.93,0,0,1-1.24-1.75,2.19,2.19,0,0,1,2.41-2.08,2,2,0,0,1,2.27,1.92,2,2,0,0,1-1.28,1.82v0a2.16,2.16,0,0,1,1.57,2,2.4,2.4,0,0,1-2.65,2.27C1518.06,18.48,1517.07,17.51,1517.07,16.37Zm4.2-.05c0-1-.66-1.4-1.71-1.7a1.69,1.69,0,0,0-1.41,1.61,1.44,1.44,0,0,0,1.56,1.48A1.41,1.41,0,0,0,1521.27,16.32Zm-2.9-3.9c0,.78.59,1.2,1.48,1.44a1.51,1.51,0,0,0,1.19-1.41,1.21,1.21,0,0,0-1.32-1.27A1.23,1.23,0,0,0,1518.37,12.42Z"/><path class="cls-2" d="M1528.51,14.37c0,2.65-1,4.11-2.72,4.11-1.52,0-2.55-1.43-2.57-4s1.12-4.05,2.71-4.05S1528.51,11.88,1528.51,14.37Zm-4.24.12c0,2,.63,3.18,1.58,3.18s1.6-1.26,1.6-3.25-.49-3.18-1.58-3.18C1524.94,11.24,1524.27,12.36,1524.27,14.49Z"/><path class="cls-2" d="M1710.15,17.61a4.53,4.53,0,0,0,.86,0,2.94,2.94,0,0,0,1.63-.76,3.46,3.46,0,0,0,1-2.07h0a2.34,2.34,0,0,1-4.14-1.55,2.68,2.68,0,0,1,2.67-2.77c1.59,0,2.58,1.3,2.58,3.29a4.94,4.94,0,0,1-1.35,3.66,4,4,0,0,1-2.26,1,5.15,5.15,0,0,1-1,.06Zm.39-4.49a1.51,1.51,0,0,0,1.5,1.66,1.74,1.74,0,0,0,1.53-.82.71.71,0,0,0,.1-.38c0-1.33-.49-2.35-1.6-2.35C1711.17,11.23,1710.54,12,1710.54,13.12Z"/><path class="cls-2" d="M1720.88,14.37c0,2.65-1,4.11-2.71,4.11-1.52,0-2.56-1.43-2.58-4s1.13-4.06,2.71-4.06S1720.88,11.89,1720.88,14.37Zm-4.23.12c0,2,.62,3.18,1.58,3.18s1.59-1.26,1.59-3.25-.49-3.18-1.58-3.18C1717.32,11.24,1716.65,12.37,1716.65,14.49Z"/><path class="cls-2" d="M1900.34,11.54h0l-1.36.73-.2-.8,1.7-.92h.9v7.8h-1Z"/><path class="cls-2" d="M1909.39,14.37c0,2.65-1,4.11-2.71,4.11-1.53,0-2.56-1.43-2.58-4s1.13-4.06,2.71-4.06S1909.39,11.89,1909.39,14.37Zm-4.24.12c0,2,.63,3.18,1.59,3.18s1.59-1.26,1.59-3.25-.49-3.18-1.58-3.18C1905.83,11.24,1905.15,12.37,1905.15,14.49Z"/><path class="cls-2" d="M1915.54,14.37c0,2.65-1,4.11-2.71,4.11-1.52,0-2.55-1.43-2.58-4s1.13-4.06,2.72-4.06S1915.54,11.89,1915.54,14.37Zm-4.23.12c0,2,.62,3.18,1.58,3.18s1.6-1.26,1.6-3.25-.49-3.18-1.58-3.18C1912,11.24,1911.31,12.37,1911.31,14.49Z"/><path class="cls-2" d="M176.12,586.17h0l-1.36.73-.2-.8,1.7-.91h.9V593h-1Z"/><path class="cls-2" d="M185.17,589c0,2.65-1,4.12-2.71,4.12-1.53,0-2.56-1.43-2.58-4s1.13-4.05,2.71-4.05S185.17,586.52,185.17,589Zm-4.24.12c0,2,.63,3.18,1.59,3.18s1.59-1.26,1.59-3.25-.49-3.18-1.58-3.18C181.61,585.87,180.93,587,180.93,589.12Z"/><path class="cls-2" d="M366.21,593v-.65l.82-.81c2-1.89,2.89-2.9,2.9-4.07a1.39,1.39,0,0,0-1.54-1.53,2.66,2.66,0,0,0-1.66.66l-.33-.74a3.38,3.38,0,0,1,2.2-.79,2.19,2.19,0,0,1,2.39,2.26c0,1.44-1,2.61-2.69,4.19l-.62.58v0h3.5V593Z"/><path class="cls-2" d="M377.54,589c0,2.65-1,4.12-2.71,4.12-1.52,0-2.55-1.43-2.58-4s1.13-4.05,2.71-4.05S377.54,586.52,377.54,589Zm-4.23.12c0,2,.62,3.18,1.58,3.18s1.6-1.26,1.6-3.25-.49-3.18-1.59-3.18C374,585.87,373.31,587,373.31,589.12Z"/><path class="cls-2" d="M560,591.77a3.41,3.41,0,0,0,1.72.5c1.36,0,1.78-.87,1.77-1.52,0-1.09-1-1.55-2-1.55h-.59v-.8h.59c.77,0,1.74-.39,1.74-1.32,0-.62-.4-1.17-1.37-1.17a3,3,0,0,0-1.56.51l-.27-.76a3.71,3.71,0,0,1,2-.6c1.53,0,2.23.91,2.23,1.86a1.94,1.94,0,0,1-1.44,1.83v0a2,2,0,0,1,1.74,2c0,1.25-1,2.34-2.84,2.34a4,4,0,0,1-2-.53Z"/><path class="cls-2" d="M571.05,589c0,2.65-1,4.12-2.71,4.12-1.52,0-2.55-1.43-2.58-4s1.13-4.05,2.71-4.05S571.05,586.52,571.05,589Zm-4.23.12c0,2,.62,3.18,1.58,3.18s1.6-1.26,1.6-3.25-.5-3.18-1.59-3.18C567.49,585.87,566.82,587,566.82,589.12Z"/><path class="cls-2" d="M753.31,593v-2.12h-3.63v-.69l3.48-5h1.14V590h1.09v.83H754.3V593Zm0-3v-2.6c0-.41,0-.81,0-1.22h0c-.24.45-.44.79-.65,1.15L750.75,590v0Z"/><path class="cls-2" d="M761.38,589c0,2.65-1,4.12-2.71,4.12-1.52,0-2.56-1.43-2.58-4s1.13-4.05,2.71-4.05S761.38,586.52,761.38,589Zm-4.23.12c0,2,.62,3.18,1.58,3.18s1.59-1.26,1.59-3.25-.49-3.18-1.58-3.18C757.82,585.87,757.15,587,757.15,589.12Z"/><path class="cls-2" d="M947.07,586.08h-3l-.3,2a3.4,3.4,0,0,1,.63-.05,3.28,3.28,0,0,1,1.68.42,2.23,2.23,0,0,1,1.12,2,2.71,2.71,0,0,1-2.91,2.67,3.8,3.8,0,0,1-1.94-.48l.26-.81a3.54,3.54,0,0,0,1.67.43,1.72,1.72,0,0,0,1.85-1.69c0-1-.68-1.72-2.24-1.72a7.36,7.36,0,0,0-1.08.08l.5-3.74h3.73Z"/><path class="cls-2" d="M953.75,589c0,2.65-1,4.12-2.71,4.12-1.52,0-2.55-1.43-2.58-4s1.13-4.05,2.72-4.05S953.75,586.52,953.75,589Zm-4.23.12c0,2,.62,3.18,1.58,3.18s1.6-1.26,1.6-3.25-.49-3.18-1.58-3.18C950.19,585.87,949.52,587,949.52,589.12Z"/><path class="cls-2" d="M1140.38,585.93a3.89,3.89,0,0,0-.8.05,3.18,3.18,0,0,0-2.71,2.77h0a2.37,2.37,0,0,1,4.23,1.62,2.61,2.61,0,0,1-2.59,2.75c-1.66,0-2.76-1.3-2.76-3.33a4.94,4.94,0,0,1,1.32-3.51,4.22,4.22,0,0,1,2.5-1.15,4.76,4.76,0,0,1,.77-.06Zm-.3,4.5a1.59,1.59,0,0,0-1.61-1.79,1.74,1.74,0,0,0-1.51,1,.93.93,0,0,0-.12.47c0,1.28.61,2.23,1.71,2.23C1139.46,592.3,1140.08,591.54,1140.08,590.43Z"/><path class="cls-2" d="M1147.26,589c0,2.65-1,4.12-2.71,4.12-1.52,0-2.55-1.43-2.58-4s1.13-4.05,2.71-4.05S1147.26,586.52,1147.26,589Zm-4.23.12c0,2,.62,3.18,1.58,3.18s1.6-1.26,1.6-3.25-.49-3.18-1.59-3.18C1143.7,585.87,1143,587,1143,589.12Z"/><path class="cls-2" d="M1331.9,585.19v.69l-3.39,7.11h-1.1l3.39-6.9v0H1327v-.88Z"/><path class="cls-2" d="M1338.18,589c0,2.65-1,4.12-2.71,4.12-1.53,0-2.56-1.43-2.58-4s1.12-4.05,2.71-4.05S1338.18,586.52,1338.18,589Zm-4.24.12c0,2,.63,3.18,1.59,3.18s1.59-1.26,1.59-3.25-.49-3.18-1.58-3.18C1334.61,585.87,1333.94,587,1333.94,589.12Z"/><path class="cls-2" d="M1517.07,591a2.23,2.23,0,0,1,1.55-2.09v0a1.93,1.93,0,0,1-1.24-1.75,2.19,2.19,0,0,1,2.41-2.07,2,2,0,0,1,2.27,1.92,2,2,0,0,1-1.28,1.82v0a2.17,2.17,0,0,1,1.57,2,2.41,2.41,0,0,1-2.65,2.27C1518.06,593.12,1517.07,592.14,1517.07,591Zm4.2,0c0-1-.66-1.41-1.71-1.71a1.7,1.7,0,0,0-1.41,1.61,1.45,1.45,0,0,0,1.56,1.49A1.41,1.41,0,0,0,1521.27,591Zm-2.9-3.9c0,.78.59,1.2,1.48,1.44a1.53,1.53,0,0,0,1.19-1.42,1.21,1.21,0,0,0-1.32-1.27A1.24,1.24,0,0,0,1518.37,587.06Z"/><path class="cls-2" d="M1528.51,589c0,2.65-1,4.12-2.72,4.12-1.52,0-2.55-1.43-2.57-4s1.12-4.05,2.71-4.05S1528.51,586.52,1528.51,589Zm-4.24.12c0,2,.63,3.18,1.58,3.18s1.6-1.26,1.6-3.25-.49-3.18-1.58-3.18C1524.94,585.87,1524.27,587,1524.27,589.12Z"/><path class="cls-2" d="M1710.15,592.24a4.4,4.4,0,0,0,.86,0,3,3,0,0,0,1.63-.76,3.49,3.49,0,0,0,1-2.08h0a2.34,2.34,0,0,1-4.14-1.54,2.67,2.67,0,0,1,2.67-2.77c1.59,0,2.58,1.29,2.58,3.28a4.91,4.91,0,0,1-1.35,3.66,3.82,3.82,0,0,1-2.26,1,4.53,4.53,0,0,1-1,.07Zm.39-4.48a1.5,1.5,0,0,0,1.5,1.65,1.75,1.75,0,0,0,1.53-.81.72.72,0,0,0,.1-.39c0-1.33-.49-2.35-1.6-2.35C1711.17,585.86,1710.54,586.65,1710.54,587.76Z"/><path class="cls-2" d="M1720.88,589c0,2.65-1,4.12-2.71,4.12-1.52,0-2.56-1.43-2.58-4s1.13-4.05,2.71-4.05S1720.88,586.52,1720.88,589Zm-4.23.12c0,2,.62,3.18,1.58,3.18s1.59-1.26,1.59-3.25-.49-3.18-1.58-3.18C1717.32,585.87,1716.65,587,1716.65,589.12Z"/><path class="cls-2" d="M1900.34,586.17h0l-1.36.73-.2-.8,1.7-.91h.9V593h-1Z"/><path class="cls-2" d="M1909.39,589c0,2.65-1,4.12-2.71,4.12-1.53,0-2.56-1.43-2.58-4s1.13-4.05,2.71-4.05S1909.39,586.52,1909.39,589Zm-4.24.12c0,2,.63,3.18,1.59,3.18s1.59-1.26,1.59-3.25-.49-3.18-1.58-3.18C1905.83,585.87,1905.15,587,1905.15,589.12Z"/><path class="cls-2" d="M1915.54,589c0,2.65-1,4.12-2.71,4.12-1.52,0-2.55-1.43-2.58-4s1.13-4.05,2.72-4.05S1915.54,586.52,1915.54,589Zm-4.23.12c0,2,.62,3.18,1.58,3.18s1.6-1.26,1.6-3.25-.49-3.18-1.58-3.18C1912,585.87,1911.31,587,1911.31,589.12Z"/><path class="cls-2" d="M13.19,374.08v-.65l.83-.8c2-1.9,2.89-2.91,2.9-4.08A1.39,1.39,0,0,0,15.37,367a2.63,2.63,0,0,0-1.65.66l-.34-.75a3.46,3.46,0,0,1,2.21-.79A2.19,2.19,0,0,1,18,368.42c0,1.44-1,2.6-2.68,4.18l-.63.58v0h3.51v.88Z"/><path class="cls-2" d="M24.52,370.1c0,2.65-1,4.11-2.71,4.11-1.52,0-2.55-1.43-2.57-4s1.12-4.05,2.71-4.05S24.52,367.61,24.52,370.1Zm-4.23.12c0,2,.62,3.17,1.58,3.17s1.6-1.25,1.6-3.25S23,367,21.89,367C21,367,20.29,368.09,20.29,370.22Z"/><path class="cls-2" d="M14.74,565.18a3.57,3.57,0,0,0,1.73.49c1.35,0,1.77-.87,1.76-1.51,0-1.1-1-1.56-2-1.56h-.59v-.79h.59c.76,0,1.74-.4,1.74-1.32,0-.63-.4-1.18-1.37-1.18a2.83,2.83,0,0,0-1.56.52l-.28-.77a3.71,3.71,0,0,1,2-.6c1.54,0,2.23.91,2.23,1.86a1.93,1.93,0,0,1-1.44,1.83v0a2,2,0,0,1,1.74,2c0,1.25-1,2.34-2.84,2.34a4,4,0,0,1-2-.53Z"/><path class="cls-2" d="M25.83,562.41c0,2.65-1,4.11-2.71,4.11-1.53,0-2.56-1.43-2.58-4s1.12-4,2.71-4S25.83,559.92,25.83,562.41Zm-4.24.11c0,2,.63,3.18,1.59,3.18s1.59-1.26,1.59-3.25-.49-3.18-1.58-3.18C22.26,559.27,21.59,560.4,21.59,562.52Z"/><path class="cls-2" d="M15.48,176.2h0l-1.36.73-.2-.8,1.7-.91h.9V183h-1Z"/><path class="cls-2" d="M24.53,179c0,2.65-1,4.11-2.72,4.11-1.52,0-2.55-1.42-2.57-4s1.12-4.06,2.71-4.06S24.53,176.55,24.53,179Zm-4.24.12c0,2,.63,3.18,1.58,3.18s1.6-1.26,1.6-3.25-.49-3.18-1.58-3.18C21,175.9,20.29,177,20.29,179.15Z"/><path class="cls-2" d="M18.49,936.41h-3l-.3,2a3.48,3.48,0,0,1,.63,0,3.28,3.28,0,0,1,1.68.42,2.23,2.23,0,0,1,1.12,2,2.7,2.7,0,0,1-2.9,2.66A3.81,3.81,0,0,1,13.8,943l.27-.8a3.5,3.5,0,0,0,1.66.43,1.72,1.72,0,0,0,1.85-1.69c0-1-.68-1.73-2.24-1.73a7.29,7.29,0,0,0-1.08.09l.5-3.75h3.73Z"/><path class="cls-2" d="M25.18,939.34c0,2.65-1,4.11-2.71,4.11-1.53,0-2.56-1.42-2.58-4s1.12-4.06,2.71-4.06S25.18,936.86,25.18,939.34Zm-4.24.12c0,2,.63,3.18,1.59,3.18s1.59-1.26,1.59-3.25-.49-3.18-1.58-3.18C21.61,936.21,20.94,937.34,20.94,939.46Z"/><path class="cls-2" d="M17.1,752.25v-2.12H13.48v-.69l3.48-5H18.1v4.84h1.09v.83H18.1v2.12Zm0-3v-2.6c0-.41,0-.81,0-1.22h0c-.24.45-.43.79-.65,1.15l-1.9,2.65v0Z"/><path class="cls-2" d="M25.18,748.27c0,2.65-1,4.12-2.71,4.12-1.53,0-2.56-1.43-2.58-4s1.12-4,2.71-4S25.18,745.79,25.18,748.27Zm-4.24.12c0,2,.63,3.18,1.59,3.18s1.59-1.26,1.59-3.25-.49-3.18-1.58-3.18C21.61,745.14,20.94,746.27,20.94,748.39Z"/></g></svg>