<svg xmlns="http://www.w3.org/2000/svg" viewBox="0 0 164.4 163.56"><defs><style>.cls-1{fill:#706957;}.cls-2{fill:#827a65;}.cls-3{fill:#7d765f;}.cls-4{fill:#8c846a;}.cls-5{fill:#9c967f;}.cls-6{fill:#d2f78b;}.cls-7{fill:#37222b;}.cls-8{fill:#e6e6e6;}.cls-9{fill:#91fa00;}.cls-10{fill:#816274;}.cls-11{fill:#725466;}.cls-12{fill:#937c8a;}.cls-13{fill:#64a005;}.cls-14{fill:#c9d94e;}.cls-15{fill:#cff784;}.cls-16{fill:none;}.cls-17{opacity:0.45;}.cls-18{fill:#68624f;}</style></defs><g id="FOLDS"><ellipse class="cls-1" cx="66.42" cy="129.46" rx="23.08" ry="30.65" transform="translate(-37.25 27.36) rotate(-18.28)"/><ellipse class="cls-2" cx="64.62" cy="124.01" rx="23.08" ry="30.65" transform="translate(-35.63 26.52) rotate(-18.28)"/><ellipse class="cls-3" cx="100.09" cy="133.14" rx="30.65" ry="23.08" transform="translate(-49.32 206.77) rotate(-79.3)"/><ellipse class="cls-4" cx="100.84" cy="128.32" rx="30.65" ry="23.08" transform="translate(-43.97 203.58) rotate(-79.3)"/><ellipse class="cls-5" cx="94.01" cy="149.39" rx="4.25" ry="9.24" transform="translate(-80.39 176.59) rotate(-66.68)"/><ellipse class="cls-5" cx="53.35" cy="141.3" rx="3.35" ry="8.79" transform="translate(-67 50.04) rotate(-32.14)"/><path class="cls-4" d="M43.77,88.79c7,.22,31.46.4,29.19-15.43s-15-11.33-20.42-11-20.12,0-21.53.17c-.87-7.54-10.8-17.72-14.63-1,0,0-12.79-4.23-16.34,12.24C-.9,90.4,13.58,88.76,17.81,89S43.77,88.79,43.77,88.79Z"/><ellipse class="cls-5" cx="8.94" cy="69.35" rx="5.49" ry="3.29" transform="translate(-39.99 19.4) rotate(-37.07)"/><ellipse class="cls-5" cx="21.5" cy="57.19" rx="3.44" ry="1.96" transform="translate(-39.57 55.37) rotate(-67.69)"/><path class="cls-3" d="M72.89,72.94c-2.3,11.58-22.77,11.42-29.12,11.22,0,0-21.73.4-26,.19C14,84.15,1.68,85.48.16,73.23c0,.15-.08.3-.12.47C-.9,90.4,13.58,88.76,17.81,89s26-.18,26-.18c7,.22,31.46.4,29.19-15.43C72.94,73.21,72.92,73.08,72.89,72.94Z"/><path class="cls-4" d="M123.75,99.32C118.39,96,100.07,84.08,108.9,74.37s16.36-.32,20.25,2.53,15,9.92,16,10.73c4.06-4.72,16.07-6.78,11.39,6.53,0,0,11.47,3.42,6.69,16.42-6.84,11.88-16.91,3.62-20.17,1.68S123.75,99.32,123.75,99.32Z"/><path class="cls-3" d="M144,108.89C140.77,107,124.72,96,124.72,96c-4.42-2.74-17.6-11.3-17.2-19.66-5.12,9.3,11.22,19.93,16.23,23,0,0,16.06,11,19.32,12.94s13.33,10.2,20.17-1.68a19.42,19.42,0,0,0,.91-3.3C157.32,119.05,147.28,110.82,144,108.89Z"/><ellipse class="cls-5" cx="126.67" cy="79.34" rx="2.12" ry="16.5" transform="translate(-12.31 134.33) rotate(-53.65)"/><ellipse class="cls-5" cx="150.53" cy="88.28" rx="3.44" ry="1.96" transform="translate(-23.79 80.12) rotate(-27.71)"/><path class="cls-4" d="M129.16,101.85C131,82.38,116.05,55.68,88.3,53.26S39.06,73.06,36.92,92.51c-2.79,25.21-.77,27.92,45.22,31.32C121.68,126.76,126.85,126,129.16,101.85Z"/><path class="cls-3" d="M130.53,97c-2.71,28.66-7.9,29.67-47.45,26.84-35.51-2.54-44.78-5-45.69-19.8-.94,20,5.93,22.8,45.69,25.65,39.55,2.83,44.74,1.82,47.45-26.84a51.53,51.53,0,0,0,.12-7.58C130.62,95.83,130.58,96.41,130.53,97Z"/><ellipse class="cls-5" cx="57.45" cy="83.89" rx="20.73" ry="9.26" transform="translate(-42.33 103.44) rotate(-66.68)"/><path class="cls-6" d="M72.84,97.19a3.21,3.21,0,0,0,.73,2,.32.32,0,0,0,.22.12c.19,0,.23-.27.21-.46-.09-.81-.17-1.62-.26-2.43,0-.37,0-2.09-.38-2.18C72.3,93.92,72.8,96.88,72.84,97.19Z"/><path class="cls-7" d="M116,65.26l-.13-.12"/><path class="cls-7" d="M125.74,76.37C109.94,88.12,69.48,89,49.34,68.86,73.75,47.84,104.9,48.13,125.74,76.37Z"/><path class="cls-8" d="M102,75.64,115.39,65a48.39,48.39,0,0,0-11.18-7.55Z"/><path class="cls-8" d="M65.3,57.88a48.08,48.08,0,0,0-10.09,6.27l10,10.25Z"/><path class="cls-8" d="M74.81,70.73,77.45,54a51.8,51.8,0,0,0-12,3.84Z"/><path class="cls-8" d="M77.87,53.88l6.18,15.25L90.6,53.39l-.25,0A43.67,43.67,0,0,0,77.87,53.88Z"/><path class="cls-8" d="M93.85,71.25,104.1,57.4a42.27,42.27,0,0,0-12.79-3.91Z"/><path class="cls-8" d="M116,65.54,111.74,80.1l11.31-6.29A46,46,0,0,0,116,65.54Z"/><path class="cls-9" d="M63.21,109.21a1.82,1.82,0,0,1-.46-.06c-1.53-.36-2.37-2.39-2.62-4a21.14,21.14,0,0,1,.06-5.1L61,91.76A31.26,31.26,0,0,0,60.59,83a10.54,10.54,0,0,0-2.33-4.88c-.38-.53-.78-1.08-1.18-1.7l-1.83-2.87,2.94,1.71c10.38,6,21.25,8.84,34.21,8.84A127.22,127.22,0,0,0,114.05,82l1.64-.29-.78,1.48c-.44.83-1.42,2.31-2.56,4-1.78,2.66-4,6-4.46,7.38a15.67,15.67,0,0,0-.54,3.79,28,28,0,0,1-.28,2.89c-.51,2.9-2.07,5.24-4,6a2.09,2.09,0,0,1-.76.17,1.46,1.46,0,0,1-.63-.14c-.91-.42-1.24-1.65-1.35-2.61a18.54,18.54,0,0,1,.31-5c.09-.63.19-1.25.25-1.87.24-2.16-.21-4.12-1.08-4.75h-.18l-.25,0-.33,0a26.24,26.24,0,0,1-3.42.2c-2,0-4.07-.18-6-.35-1.69-.15-3.44-.3-5.13-.33h-.42l-1,0c-2.37,0-4,.4-5,2.42a15.1,15.1,0,0,0-.74,1.79,14.29,14.29,0,0,1-.86,2,3.16,3.16,0,0,1-2.53,1.92,1.91,1.91,0,0,1-1.28-.51c-1.32-1.21-1.16-3.92-1.08-4.72,0-.48.11-1,.18-1.44a14.92,14.92,0,0,0,.24-2.44.69.69,0,0,0-.25,0c-.75,0-1.72,1-2.29,2.37a25.05,25.05,0,0,0-1.32,5.76c-.07.45-.13.89-.2,1.33-.38,2.37-1,5.3-2.56,7A2.89,2.89,0,0,1,63.21,109.21Z"/><path class="cls-6" d="M63.21,109.71a2.3,2.3,0,0,1-.58-.07c-1.77-.42-2.7-2.56-3-4.43a21.61,21.61,0,0,1,0-5.22l.78-8.28a31.1,31.1,0,0,0-.37-8.59,10.09,10.09,0,0,0-2.24-4.67c-.39-.53-.79-1.09-1.2-1.72l-2.95-4.61,4.73,2.75c10.3,6,21.09,8.77,34,8.77A126.07,126.07,0,0,0,114,81.52l2.65-.45-1.26,2.37c-.45.86-1.44,2.35-2.59,4.07-1.66,2.49-3.94,5.91-4.4,7.26a14.83,14.83,0,0,0-.51,3.66,27,27,0,0,1-.29,2.95c-.54,3.06-2.22,5.56-4.27,6.35a2.21,2.21,0,0,1-1.78,0c-.89-.42-1.46-1.46-1.63-3a19.1,19.1,0,0,1,.3-5.09c.1-.61.19-1.23.26-1.85.22-2.07-.23-3.66-.79-4.2h-.12l-.37.06a27.46,27.46,0,0,1-3.49.2c-2.06,0-4.11-.18-6.09-.35-1.67-.15-3.4-.3-5.09-.33h-.42l-1,0c-2.23,0-3.62.34-4.59,2.16a14.07,14.07,0,0,0-.7,1.71,16,16,0,0,1-.9,2.13,3.62,3.62,0,0,1-3,2.18,2.39,2.39,0,0,1-1.62-.64c-1.45-1.33-1.35-4-1.24-5.14,0-.49.12-1,.19-1.46s.18-1.23.21-1.81a3.76,3.76,0,0,0-1.56,2,24.69,24.69,0,0,0-1.29,5.64v.1c-.06.41-.12.82-.19,1.23-.39,2.43-1,5.46-2.68,7.24A3.39,3.39,0,0,1,63.21,109.71ZM56.79,75.06l.72,1.13c.39.61.78,1.16,1.16,1.68A11,11,0,0,1,61.08,83a31.76,31.76,0,0,1,.39,8.84l-.78,8.28a20.68,20.68,0,0,0-.06,5c.24,1.59,1,3.32,2.23,3.61a2.19,2.19,0,0,0,2.08-.88c1.45-1.58,2.06-4.42,2.43-6.72.07-.4.13-.81.19-1.22l0-.1a25.42,25.42,0,0,1,1.34-5.88c.56-1.33,1.63-2.68,2.76-2.68a1.4,1.4,0,0,1,.41.06l.34.12v.35a15.67,15.67,0,0,1-.24,2.52c-.07.48-.14,1-.19,1.42-.15,1.53,0,3.46.93,4.3s2.21.23,3-1.28a14,14,0,0,0,.83-2,16.11,16.11,0,0,1,.77-1.85c1.19-2.24,3-2.69,5.47-2.69l1.07,0h.41c1.72,0,3.47.18,5.16.33,2,.17,4,.35,6,.35A27.19,27.19,0,0,0,99,92.68l.29-.05a1.88,1.88,0,0,1,.59,0l.13,0,.1.07c1,.75,1.55,2.84,1.29,5.21-.07.63-.16,1.26-.26,1.89a18.14,18.14,0,0,0-.3,4.83c.08.68.32,1.87,1.06,2.21a1.41,1.41,0,0,0,1,0c1.73-.67,3.16-2.87,3.64-5.6a22.23,22.23,0,0,0,.28-2.83,15.43,15.43,0,0,1,.57-3.92c.5-1.48,2.72-4.81,4.51-7.5,1.13-1.7,2.11-3.17,2.54-4l.31-.58-.65.11A127.07,127.07,0,0,1,92.4,84.64c-13.05,0-24-2.83-34.46-8.91Z"/><path class="cls-6" d="M62.25,97.6l.87-6.75a1,1,0,0,1,.29-.73,1.41,1.41,0,0,1,.3,1.17l-.5,11c0,.44,0,3.81-.36,3.77-.54-.06-.88-2.27-.93-2.67A24.36,24.36,0,0,1,62.25,97.6Z"/><path class="cls-10" d="M89.78,73.17c-.06,0,0,.35,0,.4-.48,7.82-1.18,9.67-1.86,9.62s-1.07-2.19-.59-10a2.11,2.11,0,0,0,0-.26c-5.17-1.87-10.11.39-10.85,7.15-.82,7.48,3.78,14.11,10.27,14.82S99.15,90.12,100,82.64C100.76,75.42,93.34,71.71,89.78,73.17Z"/><path class="cls-11" d="M86.78,92.36c-5.57-.61-9.74-5.59-10.29-11.72C75.83,88,80.38,94.45,86.78,95.15S99.19,90.37,100,82.9a11.5,11.5,0,0,0,0-2.76C99.17,87.6,93.26,93.07,86.78,92.36Z"/><ellipse class="cls-12" cx="80.92" cy="77.25" rx="3.51" ry="2.36" transform="translate(-30.03 91.61) rotate(-51.05)"/><ellipse class="cls-12" cx="93.14" cy="77.25" rx="2.58" ry="2.22" transform="translate(-19.53 33.11) rotate(-18.28)"/><path class="cls-3" d="M145.62,43.43C143.5,15.47,122.55,2.58,88,1.65,44.66,2.28,23.17,45.05,49.23,71c21.3-20,56.47-22.72,75.64,7.08C136.47,71.59,144.72,60.53,145.62,43.43Z"/><path class="cls-4" d="M144.64,42.59c-2.12-28-23.46-41.66-58-42.59C43.3.63,21.8,43.4,47.87,69.33c21.3-20,57.19-24.19,76.35,5.61C135.83,68.48,143.74,59.7,144.64,42.59Z"/><ellipse class="cls-5" cx="71.48" cy="14.62" rx="14.31" ry="8.64" transform="translate(-1.32 19.38) rotate(-15.3)"/><ellipse class="cls-3" cx="73.45" cy="34.78" rx="13.41" ry="8.92" transform="translate(33.57 105.6) rotate(-85.95)"/><ellipse class="cls-3" cx="111.74" cy="36.84" rx="12.75" ry="8.25" transform="translate(54.79 139.8) rotate(-79.3)"/><ellipse class="cls-6" cx="73.2" cy="33.99" rx="11.81" ry="7.76" transform="translate(31.72 103.23) rotate(-83.98)"/><path class="cls-9" d="M73.06,43.57a4.4,4.4,0,0,1-1,0c-3.84-.44-6.24-5.12-5.57-10.88.6-5.13,3.52-9.06,7-9.33a5.13,5.13,0,0,1,1,0,6.1,6.1,0,0,1,4.72,4A13.86,13.86,0,0,1,80,34.23C79.41,39.37,76.49,43.29,73.06,43.57Z"/><path class="cls-13" d="M80,32.12c-.6,5.12-3.52,9-7,9.32a4.4,4.4,0,0,1-1,0c-3.16-.36-5.33-3.59-5.64-7.92-.35,5.37,1.36,10.22,5,10.64a9.61,9.61,0,0,0,1.42,0c3.43-.27,6.51-4.78,7.11-9.91a15.35,15.35,0,0,0,0-2.87C80,31.61,80,31.86,80,32.12Z"/><path class="cls-9" d="M110.76,46.38a4.22,4.22,0,0,1-.93-.11c-3.71-.82-5.7-5.94-4.63-11.92,1-5.32,4.1-9.17,7.47-9.15a4.22,4.22,0,0,1,.93.11c1.93.42,3.5,2.11,4.3,4.63a15.48,15.48,0,0,1,.33,7.29C117.27,42.55,114.13,46.4,110.76,46.38Z"/><path class="cls-13" d="M118,35c-1,5.33-4.1,9.18-7.47,9.15a4.9,4.9,0,0,1-.93-.1c-2.42-.54-4.11-2.92-4.69-6.16.1,4.35,1.55,8.65,4.5,9.3.31.07,1.51.22,1.82.23,3.37,0,6-4.87,7-10.19a16.71,16.71,0,0,0,0-5.77A17.86,17.86,0,0,1,118,35Z"/><path class="cls-14" d="M69.48,30.24c1-3,3-4.62,5.15-4.57"/><path class="cls-15" d="M69.48,31.33a1.4,1.4,0,0,1-.34,0,1.1,1.1,0,0,1-.7-1.38c1.08-3.35,3.47-5.42,6.21-5.33a1.09,1.09,0,0,1,1.07,1.12,1.06,1.06,0,0,1-1.12,1.07c-1.76-.06-3.29,1.39-4.08,3.81A1.08,1.08,0,0,1,69.48,31.33Z"/><path class="cls-15" d="M107.94,33.62a1,1,0,0,1-.34-.06,1.09,1.09,0,0,1-.7-1.38c1.08-3.35,3.46-5.41,6.21-5.32A1.1,1.1,0,0,1,114.18,28a1.06,1.06,0,0,1-1.12,1.07c-1.76-.05-3.29,1.38-4.08,3.81A1.1,1.1,0,0,1,107.94,33.62Z"/><path class="cls-6" d="M73.78,99.05c-.28,0-.49-.26-.61-.52A6,6,0,0,1,73,95.18l.15-1c0-.17.08-.46.25-.5a3.23,3.23,0,0,1,0,1,13.64,13.64,0,0,0,.34,4.08C73.82,98.93,73.86,99,73.78,99.05Z"/><path class="cls-16" d="M84.25,97.85v0"/><path class="cls-6" d="M101.66,103.09a2.48,2.48,0,0,0,.66,2.16.92.92,0,0,0,.52.21c.19,0,.38-.13.39-.3a3.6,3.6,0,0,1-.74-2.11c-.14-1.55.58-3.49.12-5A14.63,14.63,0,0,0,101.66,103.09Z"/><g class="cls-17"><path class="cls-18" d="M43.47,52.79a3.07,3.07,0,0,1-1.68-.72l-.16-.13c-1.18-.82-2.14-1.41-2.89-1a.82.82,0,0,1-.82-1.43c1.72-1,3.48.25,4.65,1.07l.19.13c.2.15.57.45.71.42l.16-.2.92-1.13a2,2,0,0,0,.28-.42c0-.07,0-.15.05-.22a1.91,1.91,0,0,1,.06-.33,2.39,2.39,0,0,1,1.13-1.43,2.32,2.32,0,0,1,1.81-.23l.32.11a.83.83,0,0,0,.24.08,1.35,1.35,0,0,0,.39-.08l3.28-1a.82.82,0,1,1,.48,1.57l-3.29,1a2.57,2.57,0,0,1-1.06.14,2.34,2.34,0,0,1-.64-.18l-.18-.07a.79.79,0,0,0-.89.5l0,.19a4.15,4.15,0,0,1-.11.48,3.16,3.16,0,0,1-.57.92L44.91,52a2.13,2.13,0,0,1-.73.64A1.6,1.6,0,0,1,43.47,52.79Z"/></g><g class="cls-17"><path class="cls-18" d="M48.66,33.74a.87.87,0,0,1-.41-.11.75.75,0,0,1-.27-.26l-.1,0a1.21,1.21,0,0,1-1.73-.87c-.46-1.4-1.51-2.82-2.81-2.82h0a5.09,5.09,0,0,0-1.13.2c-.25.07-.5.13-.76.18a1.62,1.62,0,0,1-1.91-.67.86.86,0,0,1,0-1.19.79.79,0,0,1,1.14.06l.05,0,.15.18.22,0c.22,0,.43-.1.65-.16a6,6,0,0,1,1.55-.26h0c2.14,0,3.6,1.93,4.26,3.68l1.57-.62.3.77a1.65,1.65,0,0,1-.11,1.42A.82.82,0,0,1,48.66,33.74Z"/></g><g class="cls-17"><path class="cls-18" d="M99.06,15a1.18,1.18,0,0,1-1-.59,7.87,7.87,0,0,1-.81-2c-.26-.88-.49-1.64-1.06-1.94l-.13-.06a1.73,1.73,0,0,1-.9-.79,1.72,1.72,0,0,1,0-1.37A1.11,1.11,0,0,0,95.29,8c.09-.41-.69-1.14-1.32-1.73C93,5.4,92,4.41,92.06,3.16A2.91,2.91,0,0,1,93.55,1a.82.82,0,1,1,.94,1.35c-.49.34-.77.66-.79.91,0,.48.75,1.21,1.39,1.8,1,.91,2.1,1.95,1.81,3.28a3.38,3.38,0,0,1-.13.42l0,.1.06,0L97,9a4.36,4.36,0,0,1,1.88,2.92,10,10,0,0,0,.4,1.17.82.82,0,0,1,.32.12,1,1,0,0,1,.42,1,.94.94,0,0,1-.68.75A1.27,1.27,0,0,1,99.06,15Z"/></g><g class="cls-17"><path class="cls-18" d="M88.88,13.74a.81.81,0,0,1-.73-.46l-1.3-2.63a1.75,1.75,0,0,1-.24-1,1.8,1.8,0,0,1,1-1.3,12.68,12.68,0,0,1,2.35-1A13.16,13.16,0,0,1,92,4a.82.82,0,0,1,1.24,1.08,11.49,11.49,0,0,0-2,3.19l-.15.37-.38.11a10.77,10.77,0,0,0-2.37,1l-.13.08s0,0,0,.05l1.3,2.63a.82.82,0,0,1-.37,1.1A.81.81,0,0,1,88.88,13.74Z"/></g><g class="cls-17"><path class="cls-18" d="M138.92,64.15a.81.81,0,0,1-.58-.23,7.39,7.39,0,0,0-2.52-1.87,3.28,3.28,0,0,0-3.16.05l-.12.09a2,2,0,0,1-1.49.5,2,2,0,0,1-1.4-1.29l-.06-.11A3,3,0,0,0,127,59.73a.64.64,0,0,1-.28.07l-.52,0-.25-1.62a4.62,4.62,0,0,1,5.13,2.33l.06.12a2.64,2.64,0,0,0,.2.37l.25-.17.15-.11a4.88,4.88,0,0,1,4.79-.2,8.83,8.83,0,0,1,3,2.2.82.82,0,0,1-.57,1.4Z"/></g><g class="cls-17"><path class="cls-18" d="M135.62,60.37a.82.82,0,0,1-.74-.46,10.19,10.19,0,0,1-1.07-4.6v0h-.53a3.69,3.69,0,0,1-3-1.86,9.34,9.34,0,0,1-1-3,.82.82,0,0,1,1.61-.35,7.78,7.78,0,0,0,.82,2.45,2.07,2.07,0,0,0,1.62,1.08h.2a1.77,1.77,0,0,1,1.76.7,1.75,1.75,0,0,1,.21.95,8.86,8.86,0,0,0,.9,3.9.82.82,0,0,1-.37,1.1A.78.78,0,0,1,135.62,60.37Z"/></g><g class="cls-17"><path class="cls-18" d="M141.65,33.49a2.15,2.15,0,0,1-1.48-.89,1.87,1.87,0,0,0-.41-.4s-.12.12-.23.22a2.48,2.48,0,0,1-.36.28,4.25,4.25,0,0,1-3.16.35,1.31,1.31,0,0,1-1.19-1.56.72.72,0,0,0-.21-.59,1.56,1.56,0,0,0-1.05-.48,5.55,5.55,0,0,0-2.35.71l-.21.09a5.45,5.45,0,0,1-3.51.63.82.82,0,1,1,.38-1.6,4.06,4.06,0,0,0,2.44-.53l.21-.09a6.91,6.91,0,0,1,3.09-.85,3.2,3.2,0,0,1,2.21,1,2.34,2.34,0,0,1,.65,1.67,2.63,2.63,0,0,0,1.78-.12,1.84,1.84,0,0,0,.22-.17,3,3,0,0,1,.69-.47,1.92,1.92,0,0,1,2.25.81,3.08,3.08,0,0,0,.24.27.84.84,0,0,1,1,.25.83.83,0,0,1-.17,1.15A1.44,1.44,0,0,1,141.65,33.49Z"/></g><g class="cls-17"><path class="cls-18" d="M21.85,89.5a.78.78,0,0,1-.33-.07,2.2,2.2,0,0,1-1.28-1.62,3.78,3.78,0,0,1,.92-3.16,10.72,10.72,0,0,1,1.41-1.22,10.71,10.71,0,0,0,.94-.76,6.19,6.19,0,0,1-1.94-2.36l-.35-.75.75-.34a1.52,1.52,0,0,0,.78-1.63.82.82,0,1,1,1.6-.39,3.17,3.17,0,0,1-1,3,4.52,4.52,0,0,0,1.72,1.53l.82.42-.5.76a7.33,7.33,0,0,1-1.87,1.82,10.34,10.34,0,0,0-1.2,1,2.14,2.14,0,0,0-.52,1.71.58.58,0,0,0,.33.46.82.82,0,0,1-.33,1.57Z"/></g><g class="cls-17"><path class="cls-18" d="M34.16,74.76h0a.82.82,0,0,1-.8-.84l.09-4.33,1.06.35a1.44,1.44,0,0,0,1.75-1.28,3.62,3.62,0,0,0-.24-1l-.16-.52-.1-.37c-.38-1.31-.76-2.66.11-4.14a.82.82,0,1,1,1.42.83c-.49.84-.32,1.56,0,2.86l.11.38c0,.15.09.3.14.45a5.39,5.39,0,0,1,.32,1.52A3,3,0,0,1,36.62,71a3.1,3.1,0,0,1-1.59.61L35,74A.82.82,0,0,1,34.16,74.76Z"/></g><g class="cls-17"><path class="cls-18" d="M149,115.62a.8.8,0,0,1-.8-.63c-1-4.11-.63-6.2,3.87-8a9.9,9.9,0,0,1-.29-2.67A3.89,3.89,0,0,1,154,101a.82.82,0,0,1,.66,1.51,2.3,2.3,0,0,0-1.15,2,9.9,9.9,0,0,0,.33,2.54l.23,1.06-.68.24c-4.14,1.47-4.37,2.58-3.5,6.3a.82.82,0,0,1-.62,1Z"/></g><g class="cls-17"><path class="cls-18" d="M149.57,110.84h0c-1.47-.09-3.49-.42-4.14-2.16a5,5,0,0,1-.24-1.54c0-.6-.07-1-.25-1.1a1.53,1.53,0,0,0-.46,0h-.21a4.89,4.89,0,0,1-4.74-4.63.83.83,0,0,1,.81-.84.84.84,0,0,1,.84.8,3.22,3.22,0,0,0,3.09,3h.17a2.66,2.66,0,0,1,1.14.15c1.14.49,1.2,1.67,1.25,2.53a4.06,4.06,0,0,0,.14,1.06c.24.63,1.12,1,2.71,1.09a.82.82,0,0,1-.06,1.64Z"/></g><g class="cls-17"><path class="cls-18" d="M123.45,110.23h-.21a2.31,2.31,0,0,1-1.61-.85,3.46,3.46,0,0,1-.29-.45,1.49,1.49,0,0,0-.21-.31,1.26,1.26,0,0,0-.54-.1,11.26,11.26,0,0,0-5,.91l-.64.28-.38-.59a5.85,5.85,0,0,0-.83-1,.49.49,0,0,1-.17,0,.82.82,0,0,1-.66-.67,1,1,0,0,1,.51-1,.9.9,0,0,1,1.06.1,7.69,7.69,0,0,1,1.08,1.13,12.88,12.88,0,0,1,5.14-.79,2.47,2.47,0,0,1,1.49.47,2.57,2.57,0,0,1,.59.76,1.45,1.45,0,0,0,.17.26.65.65,0,0,0,.45.22.71.71,0,0,0,.49-.14,2.37,2.37,0,0,0,.29-.36,2.51,2.51,0,0,1,3.35-.93,2.29,2.29,0,0,0,1.3.12.82.82,0,0,1,.71,1.48,3.44,3.44,0,0,1-2.43,0c-.61-.16-1-.26-1.26-.1a2,2,0,0,0-.33.39,3.28,3.28,0,0,1-.53.63A2.24,2.24,0,0,1,123.45,110.23Z"/></g><g class="cls-17"><path class="cls-18" d="M40.65,119.26a.81.81,0,0,1-.55-.21.82.82,0,0,1-.06-1.16,5.28,5.28,0,0,1,3.51-1.51l.19,0a6.35,6.35,0,0,1,1.51,0c.24,0,.48,0,.72,0h0a10.09,10.09,0,0,0,3.41-.89c1.77-.68,3.59-1.39,5.49-.65a.82.82,0,1,1-.6,1.53c-1.3-.51-2.76.06-4.3.65a11.22,11.22,0,0,1-4,1h0c-.28,0-.57,0-.85,0A4.77,4.77,0,0,0,44,118l-.2,0a3.77,3.77,0,0,0-2.53,1A.82.82,0,0,1,40.65,119.26Z"/></g><g class="cls-17"><path class="cls-18" d="M98.3,130.28a.78.78,0,0,1-.26,0c-3.18-1-3.76-2.61-3.69-3.74a2,2,0,0,1,.05-.42c0-.1,0-.21,0-.31,0-.58-1-1-1.81-1.28-1.88-.65-2.88-1.93-2.53-3.25a.82.82,0,0,1,1-.58.81.81,0,0,1,.58,1c-.11.44.66,1,1.48,1.28s2.88,1,2.92,2.8a4.07,4.07,0,0,1-.06.6,2.06,2.06,0,0,0,0,.26c-.07,1.05,1.58,1.76,2.57,2.08a.82.82,0,0,1-.26,1.6Z"/></g><g class="cls-17"><path class="cls-18" d="M111.43,145.46a.82.82,0,0,1-.3-1.59l5.75-2.2a9.43,9.43,0,0,1,3.08-.78.82.82,0,1,1,.05,1.64,8.2,8.2,0,0,0-2.54.68l-5.75,2.2A1,1,0,0,1,111.43,145.46Z"/></g><g class="cls-17"><path class="cls-18" d="M68.63,143.34a.83.83,0,0,1-.74-.45.82.82,0,0,1,.37-1.1,43.47,43.47,0,0,0,7.1-4.51.83.83,0,0,1,1.16.14.84.84,0,0,1-.14,1.16A45,45,0,0,1,69,143.25.84.84,0,0,1,68.63,143.34Z"/></g><g class="cls-17"><path class="cls-18" d="M83.31,134.76a11.73,11.73,0,0,1-5.84-1.62.82.82,0,0,1,.79-1.44,10,10,0,0,0,7.44,1.17.82.82,0,0,1,.31,1.62A14.61,14.61,0,0,1,83.31,134.76Z"/></g><g class="cls-17"><path class="cls-18" d="M72,52.47l-.71,0c-4-.39-6.13-3.89-6.51-4.59a1,1,0,0,1,.4-1.35,1,1,0,0,1,1.36.4,6.8,6.8,0,0,0,4.94,3.55c3.32.32,5.53-2.53,5.77-2.85a1,1,0,0,1,1.61,1.19C78.6,49.19,76,52.47,72,52.47Z"/></g><g class="cls-17"><path class="cls-18" d="M108.83,54.9a7.74,7.74,0,0,1-1.48-.15c-4-.83-5.68-4.53-6-5.26a1,1,0,1,1,1.85-.76,6.79,6.79,0,0,0,4.53,4.06c3.26.67,5.77-1.92,6-2.21a1,1,0,0,1,1.41-.06,1,1,0,0,1,.06,1.42A9.58,9.58,0,0,1,108.83,54.9Z"/></g></g></svg>